G04 ================== begin FILE IDENTIFICATION RECORD ==================*
G04 Layout Name:  pc049a_toplevel_51.brd*
G04 Film Name:    PC049A_L6*
G04 File Format:  Gerber RS274X*
G04 File Origin:  Cadence Allegro 16.6-S014*
G04 Origin Date:  Mon Feb 23 12:27:40 2015*
G04 *
G04 Layer:  VIA CLASS/L6*
G04 Layer:  PIN/L6*
G04 Layer:  ETCH/L6*
G04 Layer:  BOARD GEOMETRY/CTEXT_TOP*
G04 *
G04 Offset:    (0.0000 0.0000)*
G04 Mirror:    No*
G04 Mode:      Positive*
G04 Rotation:  0*
G04 FullContactRelief:  No*
G04 UndefLineWidth:     0.1270*
G04 ================== end FILE IDENTIFICATION RECORD ====================*
%FSLAX25Y25*MOMM*%
%IR0*IPPOS*OFA0.00000B0.00000*MIA0B0*SFA1.00000B1.00000*%
%ADD14C,.6*%
%ADD22C,.8*%
%ADD23C,.6096*%
%ADD18C,1.*%
%ADD10C,5.*%
%ADD24C,1.6*%
%ADD19C,2.032*%
%ADD12C,1.7*%
%ADD21C,1.6002*%
%ADD13C,1.27*%
%ADD17C,1.55*%
%ADD20C,1.524*%
%ADD16C,1.65*%
%ADD15C,1.75*%
%ADD11C,6.604*%
%ADD25C,.101*%
%ADD26C,.13*%
%ADD27C,.127*%
%ADD28C,.254*%
%ADD29C,.8544*%
G75*
%LPD*%
G75*
G36*
G01X-742500Y8716650D02*
Y8638000D01*
X-656380Y8636880D01*
X-657500Y8723000D01*
X-736150D01*
G03X-742500Y8716650I0J-6350D01*
G37*
G36*
G01X-578850Y8977000D02*
X-657500D01*
X-658620Y8890880D01*
X-572500Y8892000D01*
Y8970650D01*
G03X-578850Y8977000I-6350J0D01*
G37*
G36*
G01X-742500Y9478650D02*
Y9400000D01*
X-656380Y9398880D01*
X-657500Y9485000D01*
X-736150D01*
G03X-742500Y9478650I0J-6350D01*
G37*
G36*
G01X-578850Y9739000D02*
X-657500D01*
X-658620Y9652880D01*
X-572500Y9654000D01*
Y9732650D01*
G03X-578850Y9739000I-6350J0D01*
G37*
G36*
G01X-572500Y11861350D02*
Y11940000D01*
X-658620Y11941120D01*
X-657500Y11855000D01*
X-578850D01*
G03X-572500Y11861350I0J6350D01*
G37*
G36*
G01X-742500Y12526650D02*
Y12448000D01*
X-656380Y12446880D01*
X-657500Y12533000D01*
X-736150D01*
G03X-742500Y12526650I0J-6350D01*
G37*
G36*
G01X-736150Y12617000D02*
X-657500D01*
X-656380Y12703120D01*
X-742500Y12702000D01*
Y12623350D01*
G03X-736150Y12617000I6350J0D01*
G37*
G36*
G01X-578850Y13295000D02*
X-657500D01*
X-658620Y13208880D01*
X-572500Y13210000D01*
Y13288650D01*
G03X-578850Y13295000I-6350J0D01*
G37*
G36*
G01X-572500Y13385350D02*
Y13464000D01*
X-658620Y13465120D01*
X-657500Y13379000D01*
X-578850D01*
G03X-572500Y13385350I0J6350D01*
G37*
G36*
G01X-234500Y7192650D02*
Y7114000D01*
X-148380Y7112880D01*
X-149500Y7199000D01*
X-228150D01*
G03X-234500Y7192650I0J-6350D01*
G37*
G36*
G01X-70850Y7453000D02*
X-149500D01*
X-150620Y7366880D01*
X-64500Y7368000D01*
Y7446650D01*
G03X-70850Y7453000I-6350J0D01*
G37*
G36*
G01X-234500Y7954650D02*
Y7876000D01*
X-148380Y7874880D01*
X-149500Y7961000D01*
X-228150D01*
G03X-234500Y7954650I0J-6350D01*
G37*
G36*
G01X-70850Y8215000D02*
X-149500D01*
X-150620Y8128880D01*
X-64500Y8130000D01*
Y8208650D01*
G03X-70850Y8215000I-6350J0D01*
G37*
G36*
G01Y10247000D02*
X-149500D01*
X-150620Y10160880D01*
X-64500Y10162000D01*
Y10240650D01*
G03X-70850Y10247000I-6350J0D01*
G37*
G36*
G01X-64500Y10337350D02*
Y10416000D01*
X-150620Y10417120D01*
X-149500Y10331000D01*
X-70850D01*
G03X-64500Y10337350I0J6350D01*
G37*
G36*
G01Y10845350D02*
Y10924000D01*
X-150620Y10925120D01*
X-149500Y10839000D01*
X-70850D01*
G03X-64500Y10845350I0J6350D01*
G37*
G36*
G01X-228150Y11093000D02*
X-149500D01*
X-148380Y11179120D01*
X-234500Y11178000D01*
Y11099350D01*
G03X-228150Y11093000I6350J0D01*
G37*
G36*
G01X-70850Y11771000D02*
X-149500D01*
X-150620Y11684880D01*
X-64500Y11686000D01*
Y11764650D01*
G03X-70850Y11771000I-6350J0D01*
G37*
G36*
G01X-64500Y11861350D02*
Y11940000D01*
X-150620Y11941120D01*
X-149500Y11855000D01*
X-70850D01*
G03X-64500Y11861350I0J6350D01*
G37*
G36*
G01X350740Y5728990D02*
X334000Y5745700D01*
X311210Y5724500D01*
X334000Y5703300D01*
X350740Y5720010D01*
G03Y5728990I-4490J4490D01*
G37*
G36*
G01Y5808990D02*
X334000Y5825700D01*
X311210Y5804500D01*
X334000Y5783300D01*
X350740Y5800010D01*
G03Y5808990I-4490J4490D01*
G37*
G36*
G01Y5888990D02*
X334000Y5905700D01*
X311210Y5884500D01*
X334000Y5863300D01*
X350740Y5880010D01*
G03Y5888990I-4490J4490D01*
G37*
G36*
G01X346080Y5973430D02*
X332960Y5981900D01*
X311220Y5964310D01*
X334010Y5950510D01*
X347130Y5963610D01*
G03X346080Y5973430I-4491J4486D01*
G37*
G36*
G01X1034060Y3853920D02*
G02X1022580Y3881000I30244J28795D01*
G01X990960Y3888710D01*
X994910Y3856410D01*
G02X1020460Y3841830I-6570J-41191D01*
G03X1034060Y3853920I911J12669D01*
G37*
G36*
G01X750300Y3383000D02*
X733000D01*
X730750Y3350750D01*
X763000Y3353000D01*
Y3370300D01*
G03X750300Y3383000I-12700J0D01*
G37*
G36*
G01X755740Y9882790D02*
X739000Y9899500D01*
X716210Y9878300D01*
X739000Y9857100D01*
X755740Y9873810D01*
G03Y9882790I-4490J4490D01*
G37*
G36*
G01X810080Y9902090D02*
Y9933120D01*
X779120Y9934380D01*
X778190Y9903420D01*
X801840Y9896030D01*
G03X810080Y9902090I1892J6060D01*
G37*
G36*
G01X1481040Y5286790D02*
X1464300Y5303500D01*
X1441510Y5282300D01*
X1464300Y5261100D01*
X1481040Y5277810D01*
G03Y5286790I-4490J4490D01*
G37*
G36*
G01X1409600Y16472750D02*
Y16496400D01*
X1378480Y16497520D01*
X1379600Y16466400D01*
X1403250D01*
G03X1409600Y16472750I0J6350D01*
G37*
G36*
G01X1316460Y16860230D02*
G02X1331420Y16881570I33937J-7877D01*
G01X1316240Y16908930D01*
X1296450Y16884700D01*
G02X1307370Y16861040I-23775J-25323D01*
G03X1316460Y16860230I4937J3991D01*
G37*
G36*
G01X1396790Y17017260D02*
X1413500Y17034000D01*
X1392300Y17056790D01*
X1371100Y17034000D01*
X1387810Y17017260D01*
G03X1396790I4490J4490D01*
G37*
G36*
G01X1547550Y17351850D02*
X1604700D01*
X1605820Y17416470D01*
X1541200Y17415350D01*
Y17358200D01*
G03X1547550Y17351850I6350J0D01*
G37*
G36*
G01X1541200Y17066100D02*
Y17008950D01*
X1605820Y17007830D01*
X1604700Y17072450D01*
X1547550D01*
G03X1541200Y17066100I0J-6350D01*
G37*
G36*
G01X1547550Y17986850D02*
X1604700D01*
X1605820Y18051470D01*
X1541200Y18050350D01*
Y17993200D01*
G03X1547550Y17986850I6350J0D01*
G37*
G36*
G01X1989040Y4956590D02*
X1972300Y4973300D01*
X1949510Y4952100D01*
X1972300Y4930900D01*
X1989040Y4947610D01*
G03Y4956590I-4490J4490D01*
G37*
G36*
G01X1912840Y5009140D02*
X1896100Y5025850D01*
X1873310Y5004650D01*
X1896100Y4983450D01*
X1912840Y5000160D01*
G03Y5009140I-4490J4490D01*
G37*
G36*
G01X2014760Y5100010D02*
X2031500Y5083300D01*
X2054290Y5104500D01*
X2031500Y5125700D01*
X2014760Y5108990D01*
G03Y5100010I4490J-4490D01*
G37*
G36*
G01X1925540Y5108990D02*
X1908800Y5125700D01*
X1886010Y5104500D01*
X1908800Y5083300D01*
X1925540Y5100010D01*
G03Y5108990I-4490J4490D01*
G37*
G36*
G01X2244950Y5252300D02*
X2268600D01*
X2269720Y5283420D01*
X2238600Y5282300D01*
Y5258650D01*
G03X2244950Y5252300I6350J0D01*
G37*
G36*
G01X1912840Y5223290D02*
X1896100Y5240000D01*
X1873310Y5218800D01*
X1896100Y5197600D01*
X1912840Y5214310D01*
G03Y5223290I-4490J4490D01*
G37*
G36*
G01X2052860Y5277810D02*
X2069600Y5261100D01*
X2092390Y5282300D01*
X2069600Y5303500D01*
X2052860Y5286790D01*
G03Y5277810I4490J-4490D01*
G37*
G36*
G01X1787330Y5065870D02*
G02X1777890Y5091380I26762J24405D01*
G01X1746660Y5092800D01*
X1754700Y5062590D01*
G02X1781630Y5058800I8783J-35165D01*
G03X1787330Y5065870I-607J6322D01*
G37*
G36*
G01X1849340Y5159790D02*
X1832600Y5176500D01*
X1809810Y5155300D01*
X1832600Y5134100D01*
X1849340Y5150810D01*
G03Y5159790I-4490J4490D01*
G37*
G36*
G01X2050240Y5728990D02*
X2033500Y5745700D01*
X2010710Y5724500D01*
X2033500Y5703300D01*
X2050240Y5720010D01*
G03Y5728990I-4490J4490D01*
G37*
G36*
G01X2051040Y5808990D02*
X2034300Y5825700D01*
X2011510Y5804500D01*
X2034300Y5783300D01*
X2051040Y5800010D01*
G03Y5808990I-4490J4490D01*
G37*
G36*
G01X2047240Y5888990D02*
X2030500Y5905700D01*
X2007710Y5884500D01*
X2030500Y5863300D01*
X2047240Y5880010D01*
G03Y5888990I-4490J4490D01*
G37*
G36*
G01X2048940Y5968990D02*
X2032200Y5985700D01*
X2009410Y5964500D01*
X2032200Y5943300D01*
X2048940Y5960010D01*
G03Y5968990I-4490J4490D01*
G37*
G36*
G01X2829150Y5011000D02*
X2852800D01*
X2853920Y5042120D01*
X2822800Y5041000D01*
Y5017350D01*
G03X2829150Y5011000I6350J0D01*
G37*
G36*
G01X2765650Y5074500D02*
X2789300D01*
X2790420Y5105620D01*
X2759300Y5104500D01*
Y5080850D01*
G03X2765650Y5074500I6350J0D01*
G37*
G36*
G01X2702150Y5125300D02*
X2725800D01*
X2726920Y5156420D01*
X2695800Y5155300D01*
Y5131650D01*
G03X2702150Y5125300I6350J0D01*
G37*
G36*
G01X2471960Y5150810D02*
X2488700Y5134100D01*
X2511490Y5155300D01*
X2488700Y5176500D01*
X2471960Y5159790D01*
G03Y5150810I4490J-4490D01*
G37*
G36*
G01X2720550Y9455300D02*
X2744200D01*
X2745320Y9486420D01*
X2714200Y9485300D01*
Y9461650D01*
G03X2720550Y9455300I6350J0D01*
G37*
G36*
G01X2705950Y9256600D02*
X2742900Y9256610D01*
X2745570Y9286100D01*
X2715550Y9288590D01*
X2700680Y9266490D01*
G03X2705950Y9256600I5270J-3541D01*
G37*
G36*
G01X2706260Y9580810D02*
X2723000Y9564100D01*
X2745790Y9585300D01*
X2723000Y9606500D01*
X2706260Y9589790D01*
G03Y9580810I4490J-4490D01*
G37*
G36*
G01X2714530Y11209370D02*
X2714210Y11185720D01*
X2745310Y11184160D01*
X2744620Y11215290D01*
X2720970Y11215630D01*
G03X2714530Y11209370I-90J-6350D01*
G37*
G36*
G01X2706260Y10980810D02*
X2723000Y10964100D01*
X2745790Y10985300D01*
X2723000Y11006500D01*
X2706260Y10989790D01*
G03Y10980810I4490J-4490D01*
G37*
G36*
G01X2695860Y10891210D02*
X2722990Y10864100D01*
X2745740Y10884930D01*
X2726040Y10908190D01*
X2698910Y10901880D01*
G03X2695860Y10891210I1441J-6183D01*
G37*
G36*
G01X3362550Y5900000D02*
X3386200D01*
X3387320Y5931120D01*
X3356200Y5930000D01*
Y5906350D01*
G03X3362550Y5900000I6350J0D01*
G37*
G36*
G01X3399060Y6001710D02*
X3415800Y5985000D01*
X3438590Y6006200D01*
X3415800Y6027400D01*
X3399060Y6010690D01*
G03Y6001710I4490J-4490D01*
G37*
G36*
G01X3233800Y5976200D02*
X3257450D01*
X3258570Y6007320D01*
X3227450Y6006200D01*
Y5982550D01*
G03X3233800Y5976200I6350J0D01*
G37*
G36*
G01X3399060Y6255710D02*
X3415800Y6239000D01*
X3438590Y6260200D01*
X3415800Y6281400D01*
X3399060Y6264690D01*
G03Y6255710I4490J-4490D01*
G37*
G36*
G01X3117650Y6230200D02*
X3141300D01*
X3142420Y6261320D01*
X3111300Y6260200D01*
Y6236550D01*
G03X3117650Y6230200I6350J0D01*
G37*
G36*
G01X3048690Y9447360D02*
X3065400Y9464100D01*
X3044200Y9486890D01*
X3023000Y9464100D01*
X3039710Y9447360D01*
G03X3048690I4490J4490D01*
G37*
G36*
G01X2906260Y9280810D02*
X2923000Y9264100D01*
X2945790Y9285300D01*
X2923000Y9306500D01*
X2906260Y9289790D01*
G03Y9280810I4490J-4490D01*
G37*
G36*
G01X3015500Y10007650D02*
X3015510Y9986600D01*
X3045320Y9984180D01*
X3042900Y10013990D01*
X3021850Y10014000D01*
G03X3015500Y10007650I0J-6350D01*
G37*
G36*
G01X3114200Y10008950D02*
Y9985300D01*
X3145320Y9984180D01*
X3144200Y10015300D01*
X3120550D01*
G03X3114200Y10008950I0J-6350D01*
G37*
G36*
G01X3214200Y9708950D02*
Y9685300D01*
X3245320Y9684180D01*
X3244200Y9715300D01*
X3220550D01*
G03X3214200Y9708950I0J-6350D01*
G37*
G36*
G01Y9608950D02*
Y9585300D01*
X3245320Y9584180D01*
X3244200Y9615300D01*
X3220550D01*
G03X3214200Y9608950I0J-6350D01*
G37*
G36*
G01X3020090Y9555660D02*
X3043740Y9555310D01*
X3045340Y9586410D01*
X3014210Y9585760D01*
X3013840Y9562110D01*
G03X3020090Y9555660I6350J-100D01*
G37*
G36*
G01X3208550Y10016390D02*
G02X3214540Y9989710I-29918J-20729D01*
G01X3245290Y9984150D01*
X3241470Y10015170D01*
G02X3215170Y10022640I-3914J36252D01*
G03X3208550Y10016390I-272J-6343D01*
G37*
G36*
G01X3114200Y11108950D02*
Y11085300D01*
X3145320Y11084180D01*
X3144200Y11115300D01*
X3120550D01*
G03X3114200Y11108950I0J-6350D01*
G37*
G36*
G01X3074200Y10961650D02*
Y10985300D01*
X3043080Y10986420D01*
X3044200Y10955300D01*
X3067850D01*
G03X3074200Y10961650I0J6350D01*
G37*
G36*
G01X3306260Y10780810D02*
X3323000Y10764100D01*
X3345790Y10785300D01*
X3323000Y10806500D01*
X3306260Y10789790D01*
G03Y10780810I4490J-4490D01*
G37*
G36*
G01X2914320Y11209100D02*
X2914210Y11185450D01*
X2945320Y11184170D01*
X2944350Y11215290D01*
X2920700Y11215420D01*
G03X2914320Y11209100I-30J-6350D01*
G37*
G36*
G01X3114200Y11008950D02*
Y10985300D01*
X3145320Y10984180D01*
X3144200Y11015300D01*
X3120550D01*
G03X3114200Y11008950I0J-6350D01*
G37*
G36*
G01X2906260Y10980810D02*
X2923000Y10964100D01*
X2945790Y10985300D01*
X2923000Y11006500D01*
X2906260Y10989790D01*
G03Y10980810I4490J-4490D01*
G37*
G36*
G01X3014200Y10908950D02*
Y10885300D01*
X3045320Y10884180D01*
X3044200Y10915300D01*
X3020550D01*
G03X3014200Y10908950I0J-6350D01*
G37*
G36*
G01X3123640Y10842940D02*
X3147280Y10856110D01*
X3145060Y10886640D01*
X3114200Y10885300D01*
Y10848490D01*
G03X3123640Y10842940I6351J0D01*
G37*
G36*
G01X3174200Y10761650D02*
Y10785300D01*
X3143080Y10786420D01*
X3144200Y10755300D01*
X3167850D01*
G03X3174200Y10761650I0J6350D01*
G37*
G36*
G01X3224100Y13999050D02*
X3281100D01*
X3282250Y14063700D01*
X3217600Y14062550D01*
Y14005550D01*
G03X3224100Y13999050I6500J0D01*
G37*
G36*
G01X3500670Y6103310D02*
X3517410Y6086600D01*
X3540200Y6107800D01*
X3517410Y6129000D01*
X3500670Y6112290D01*
G03Y6103310I4490J-4490D01*
G37*
G36*
G01X3514950Y5976200D02*
X3538600D01*
X3539720Y6007320D01*
X3508600Y6006200D01*
Y5982550D01*
G03X3514950Y5976200I6350J0D01*
G37*
G36*
G01X3880210Y6021940D02*
X3863500Y6005200D01*
X3884700Y5982410D01*
X3905900Y6005200D01*
X3889190Y6021940D01*
G03X3880210I-4490J-4490D01*
G37*
G36*
G01X3551460Y6179510D02*
X3568200Y6162800D01*
X3590990Y6184000D01*
X3568200Y6205200D01*
X3551460Y6188490D01*
G03Y6179510I4490J-4490D01*
G37*
G36*
G01X3820550Y9355300D02*
X3844200D01*
X3845320Y9386420D01*
X3814200Y9385300D01*
Y9361650D01*
G03X3820550Y9355300I6350J0D01*
G37*
G36*
G01X3521240Y9555990D02*
X3543510Y9556000D01*
X3545320Y9586420D01*
X3514900Y9584610D01*
X3514890Y9562340D01*
G03X3521240Y9555990I6350J0D01*
G37*
G36*
G01X3574200Y9659950D02*
Y9685300D01*
X3543120Y9686460D01*
X3543750Y9655330D01*
X3567390Y9653620D01*
G03X3574200Y9659950I463J6330D01*
G37*
G36*
G01X3538910Y11325640D02*
X3522200Y11308900D01*
X3543400Y11286110D01*
X3564600Y11308900D01*
X3547890Y11325640D01*
G03X3538910I-4490J-4490D01*
G37*
G36*
G01X3606590Y13588260D02*
X3623300Y13605000D01*
X3602100Y13627790D01*
X3580900Y13605000D01*
X3597610Y13588260D01*
G03X3606590I4490J4490D01*
G37*
G36*
G01X3759100Y17526850D02*
Y17550500D01*
X3727980Y17551620D01*
X3729100Y17520500D01*
X3752750D01*
G03X3759100Y17526850I0J6350D01*
G37*
G36*
G01X4513080Y9049680D02*
G02X4539770Y9055640I20714J-30020D01*
G01X4545350Y9086390D01*
X4514330Y9082590D01*
G02X4506840Y9056300I-36267J-3879D01*
G03X4513080Y9049680I6343J-272D01*
G37*
G36*
G01X4366560Y11214010D02*
X4345490Y11214000D01*
X4343080Y11184180D01*
X4372900Y11186590D01*
X4372910Y11207660D01*
G03X4366560Y11214010I-6350J0D01*
G37*
G36*
G01X4474910Y10823950D02*
G02X4448790Y10816010I-22843J28212D01*
G01X4445530Y10784930D01*
X4476170Y10791080D01*
G02X4481640Y10817820I35766J6613D01*
G03X4474910Y10823950I-6348J-210D01*
G37*
G36*
G01X4260040Y11501410D02*
X4260050Y11482040D01*
X4289020Y11478780D01*
X4285760Y11507750D01*
X4266390Y11507760D01*
G03X4260040Y11501410I0J-6350D01*
G37*
G36*
G01X4448770Y11559070D02*
X4465500Y11575780D01*
X4444310Y11598600D01*
X4423080Y11575820D01*
X4439790Y11559070D01*
G03X4448770I4490J4490D01*
G37*
G36*
G01X4452940Y14024610D02*
X4469650Y14041350D01*
X4448450Y14064140D01*
X4427250Y14041350D01*
X4443960Y14024610D01*
G03X4452940I4490J4490D01*
G37*
G36*
G01X4254400Y14720150D02*
Y14743800D01*
X4223280Y14744920D01*
X4224400Y14713800D01*
X4248050D01*
G03X4254400Y14720150I0J6350D01*
G37*
G36*
G01X4101890Y16864860D02*
X4118600Y16881600D01*
X4097400Y16904390D01*
X4076200Y16881600D01*
X4092910Y16864860D01*
G03X4101890I4490J4490D01*
G37*
G36*
G01X4718300Y6007650D02*
Y5984000D01*
X4749420Y5982880D01*
X4748300Y6014000D01*
X4724650D01*
G03X4718300Y6007650I0J-6350D01*
G37*
G36*
G01X4748790Y9047470D02*
X4765410Y9064090D01*
X4744200Y9086920D01*
X4722990Y9064090D01*
X4739610Y9047470D01*
G03X4748790I4590J4600D01*
G37*
G36*
G01X4721240Y9455990D02*
X4743510Y9456000D01*
X4745320Y9486420D01*
X4714900Y9484610D01*
X4714890Y9462340D01*
G03X4721240Y9455990I6350J0D01*
G37*
G36*
G01X4620550Y9055300D02*
X4644200D01*
X4645320Y9086420D01*
X4614200Y9085300D01*
Y9061650D01*
G03X4620550Y9055300I6350J0D01*
G37*
G36*
G01Y9255300D02*
X4644200D01*
X4645320Y9286420D01*
X4614200Y9285300D01*
Y9261650D01*
G03X4620550Y9255300I6350J0D01*
G37*
G36*
G01X4621790Y9356540D02*
X4642960Y9356550D01*
X4645320Y9386420D01*
X4615450Y9384060D01*
X4615440Y9362890D01*
G03X4621790Y9356540I6350J0D01*
G37*
G36*
G01X4820550Y9255300D02*
X4844200D01*
X4845320Y9286420D01*
X4814200Y9285300D01*
Y9261650D01*
G03X4820550Y9255300I6350J0D01*
G37*
G36*
G01X4920550D02*
X4944200D01*
X4945320Y9286420D01*
X4914200Y9285300D01*
Y9261650D01*
G03X4920550Y9255300I6350J0D01*
G37*
G36*
G01X4767850Y9415300D02*
X4744200D01*
X4743080Y9384180D01*
X4774200Y9385300D01*
Y9408950D01*
G03X4767850Y9415300I-6350J0D01*
G37*
G36*
G01X4815000Y9106550D02*
Y9082900D01*
X4846120Y9081780D01*
X4845000Y9112900D01*
X4821350D01*
G03X4815000Y9106550I0J-6350D01*
G37*
G36*
G01X4873080Y9422750D02*
G02X4846810Y9415180I-22497J28705D01*
G01X4843110Y9384140D01*
X4873850Y9389830D01*
G02X4879720Y9416530I35856J6112D01*
G03X4873080Y9422750I-6348J-123D01*
G37*
G36*
G01X4867850Y9715300D02*
X4844200D01*
X4843080Y9684180D01*
X4874200Y9685300D01*
Y9708950D01*
G03X4867850Y9715300I-6350J0D01*
G37*
G36*
G01Y9915300D02*
X4844200D01*
X4843080Y9884180D01*
X4874200Y9885300D01*
Y9908950D01*
G03X4867850Y9915300I-6350J0D01*
G37*
G36*
G01Y9815300D02*
X4844200D01*
X4843080Y9784180D01*
X4874200Y9785300D01*
Y9808950D01*
G03X4867850Y9815300I-6350J0D01*
G37*
G36*
G01X4778890Y9689790D02*
X4765400Y9703250D01*
X4742610Y9685300D01*
X4765400Y9667350D01*
X4778890Y9680810D01*
G03Y9689790I-4490J4490D01*
G37*
G36*
G01X4888390Y9565080D02*
X4873180Y9588730D01*
X4842840Y9586130D01*
X4844200Y9555300D01*
X4883050D01*
G03X4888390Y9565080I0J6348D01*
G37*
G36*
G01X4967850Y10115300D02*
X4944200D01*
X4943080Y10084180D01*
X4974200Y10085300D01*
Y10108950D01*
G03X4967850Y10115300I-6350J0D01*
G37*
G36*
G01X4767850Y10015300D02*
X4744200D01*
X4743080Y9984180D01*
X4774200Y9985300D01*
Y10008950D01*
G03X4767850Y10015300I-6350J0D01*
G37*
G36*
G01X4982140Y10389790D02*
X4965400Y10406500D01*
X4942610Y10385300D01*
X4965400Y10364100D01*
X4982140Y10380810D01*
G03Y10389790I-4490J4490D01*
G37*
G36*
G01X4774200Y10461650D02*
Y10485300D01*
X4743080Y10486420D01*
X4744200Y10455300D01*
X4767850D01*
G03X4774200Y10461650I0J6350D01*
G37*
G36*
G01X4767850Y10215300D02*
X4744200D01*
X4743080Y10184180D01*
X4774200Y10185300D01*
Y10208950D01*
G03X4767850Y10215300I-6350J0D01*
G37*
G36*
G01X4667850Y10515300D02*
X4644200D01*
X4643080Y10484180D01*
X4674200Y10485300D01*
Y10508950D01*
G03X4667850Y10515300I-6350J0D01*
G37*
G36*
G01X4682140Y10289790D02*
X4665400Y10306500D01*
X4642610Y10285300D01*
X4665400Y10264100D01*
X4682140Y10280810D01*
G03Y10289790I-4490J4490D01*
G37*
G36*
G01X4714200Y11208950D02*
Y11185300D01*
X4745320Y11184180D01*
X4744200Y11215300D01*
X4720550D01*
G03X4714200Y11208950I0J-6350D01*
G37*
G36*
G01X5159710Y6760540D02*
X5143000Y6743800D01*
X5164200Y6721010D01*
X5185400Y6743800D01*
X5168690Y6760540D01*
G03X5159710I-4490J-4490D01*
G37*
G36*
G01X5167850Y9815300D02*
X5144200D01*
X5143080Y9784180D01*
X5174200Y9785300D01*
Y9808950D01*
G03X5167850Y9815300I-6350J0D01*
G37*
G36*
G01X5194020Y9577910D02*
X5165410Y9606500D01*
X5142660Y9585700D01*
X5161980Y9562330D01*
X5190590Y9567160D01*
G03X5194020Y9577910I-1060J6260D01*
G37*
G36*
G01X5167850Y10115300D02*
X5144200D01*
X5143080Y10084180D01*
X5174200Y10085300D01*
Y10108950D01*
G03X5167850Y10115300I-6350J0D01*
G37*
G36*
G01X5174200Y10355710D02*
Y10385300D01*
X5143210Y10386540D01*
X5142660Y10355500D01*
X5166300Y10349550D01*
G03X5174200Y10355710I1548J6160D01*
G37*
G36*
G01X5702240Y10723720D02*
X5678590D01*
X5677470Y10692600D01*
X5708590Y10693720D01*
Y10717370D01*
G03X5702240Y10723720I-6350J0D01*
G37*
G36*
G01X5683000Y11345360D02*
X5659350Y11344790D01*
X5658390Y11313660D01*
X5689500Y11314800D01*
Y11339010D01*
G03X5683000Y11345360I-6352J0D01*
G37*
G36*
G01X5641650Y11395400D02*
X5614030Y11401220D01*
X5594460Y11377920D01*
X5617210Y11357100D01*
X5644830Y11384700D01*
G03X5641650Y11395400I-4491J4488D01*
G37*
G36*
G01X5329220Y13602830D02*
X5329210Y13625920D01*
X5298380Y13627320D01*
X5299780Y13596490D01*
X5322870Y13596480D01*
G03X5329220Y13602830I0J6350D01*
G37*
G36*
G01X5253990Y13664460D02*
X5270700Y13681200D01*
X5249500Y13703990D01*
X5228300Y13681200D01*
X5245010Y13664460D01*
G03X5253990I4490J4490D01*
G37*
G36*
G01X6064330Y10414850D02*
Y10438500D01*
X6033210Y10439620D01*
X6034330Y10408500D01*
X6057980D01*
G03X6064330Y10414850I0J6350D01*
G37*
G36*
G01X6104530Y10408500D02*
X6128180D01*
X6129300Y10439620D01*
X6098180Y10438500D01*
Y10414850D01*
G03X6104530Y10408500I6350J0D01*
G37*
G36*
G01X5743800Y10703450D02*
Y10679800D01*
X5774920Y10678680D01*
X5773800Y10709800D01*
X5750150D01*
G03X5743800Y10703450I0J-6350D01*
G37*
G36*
G01X5994190Y13626360D02*
X6010900Y13643100D01*
X5989700Y13665890D01*
X5968500Y13643100D01*
X5985210Y13626360D01*
G03X5994190I4490J4490D01*
G37*
G36*
G01X7221000Y-115000D02*
Y466000D01*
X7365420D01*
G03X7436860I35720J23440D01*
G01X7492420D01*
G03X7563860I35720J23440D01*
G01X7619420D01*
G03X7690860I35720J23440D01*
G01X7903000D01*
Y-115000D01*
X7804540D01*
X7803250Y-111840D01*
G03X7724150I-39550J-16160D01*
G01X7722860Y-115000D01*
X7221000D01*
G37*
G36*
G01X7242000Y2145000D02*
Y2726000D01*
X7419980D01*
G03X7463580I21800J36740D01*
G01X7546980D01*
G03X7590580I21800J36740D01*
G01X7673980D01*
G03X7717580I21800J36740D01*
G01X7924000D01*
Y2145000D01*
X7857880D01*
Y2150140D01*
G03X7772440I-42720J460D01*
G01Y2145000D01*
X7242000D01*
G37*
G36*
G01X7244000Y4449000D02*
Y4663270D01*
X7244180Y4663940D01*
G03Y4686780I-41160J11420D01*
G01X7244000Y4687450D01*
Y5030000D01*
X7423400D01*
G03X7490640I33620J26360D01*
G01X7550400D01*
G03X7617640I33620J26360D01*
G01X7677400D01*
G03X7744640I33620J26360D01*
G01X7926000D01*
Y4449000D01*
X7873050D01*
X7872200Y4453030D01*
G03X7788600I-41800J-8810D01*
G01X7787750Y4449000D01*
X7244000D01*
G37*
G36*
G01X8853150Y7199000D02*
X8774500D01*
X8773380Y7112880D01*
X8859500Y7114000D01*
Y7192650D01*
G03X8853150Y7199000I-6350J0D01*
G37*
G36*
G01X8819620Y7463660D02*
X8784070Y7428090D01*
X8773740Y7366610D01*
X8832470Y7423960D01*
X8830450Y7459530D01*
G03X8819620Y7463660I-6340J-360D01*
G37*
G36*
G01X8830440Y8009320D02*
X8771630Y7958140D01*
X8773830Y7874560D01*
X8840950Y7894540D01*
X8840960Y8004530D01*
G03X8830440Y8009320I-6350J0D01*
G37*
G36*
G01X8689500Y8208650D02*
Y8130000D01*
X8775620Y8128880D01*
X8774500Y8215000D01*
X8695850D01*
G03X8689500Y8208650I0J-6350D01*
G37*
G36*
G01Y8716650D02*
Y8638000D01*
X8775620Y8636880D01*
X8774500Y8723000D01*
X8695850D01*
G03X8689500Y8716650I0J-6350D01*
G37*
G36*
G01X8695850Y8807000D02*
X8774500D01*
X8775620Y8893120D01*
X8689500Y8892000D01*
Y8813350D01*
G03X8695850Y8807000I6350J0D01*
G37*
G36*
G01X8689500Y9478650D02*
Y9400000D01*
X8775620Y9398880D01*
X8774500Y9485000D01*
X8695850D01*
G03X8689500Y9478650I0J-6350D01*
G37*
G36*
G01X8695850Y9569000D02*
X8774500D01*
X8775620Y9655120D01*
X8689500Y9654000D01*
Y9575350D01*
G03X8695850Y9569000I6350J0D01*
G37*
G36*
G01X8689500Y10240650D02*
Y10162000D01*
X8775620Y10160880D01*
X8774500Y10247000D01*
X8695850D01*
G03X8689500Y10240650I0J-6350D01*
G37*
G36*
G01X8695850Y10331000D02*
X8774500D01*
X8775620Y10417120D01*
X8689500Y10416000D01*
Y10337350D01*
G03X8695850Y10331000I6350J0D01*
G37*
G36*
G01X8689500Y11002650D02*
Y10924000D01*
X8775620Y10922880D01*
X8774500Y11009000D01*
X8695850D01*
G03X8689500Y11002650I0J-6350D01*
G37*
G36*
G01X8695850Y11093000D02*
X8774500D01*
X8775620Y11179120D01*
X8689500Y11178000D01*
Y11099350D01*
G03X8695850Y11093000I6350J0D01*
G37*
G36*
G01X8689500Y11770950D02*
Y11686000D01*
X8775580Y11684840D01*
X8775010Y11770970D01*
X8696360Y11777280D01*
G03X8689500Y11770950I-510J-6330D01*
G37*
G36*
G01X8695850Y11855000D02*
X8774500D01*
X8775620Y11941120D01*
X8689500Y11940000D01*
Y11861350D01*
G03X8695850Y11855000I6350J0D01*
G37*
G36*
G01X8689500Y12526650D02*
Y12448000D01*
X8775620Y12446880D01*
X8774500Y12533000D01*
X8695850D01*
G03X8689500Y12526650I0J-6350D01*
G37*
G36*
G01X8695850Y12617000D02*
X8774500D01*
X8775620Y12703120D01*
X8689500Y12702000D01*
Y12623350D01*
G03X8695850Y12617000I6350J0D01*
G37*
G36*
G01X8689500Y13288650D02*
Y13210000D01*
X8775620Y13208880D01*
X8774500Y13295000D01*
X8695850D01*
G03X8689500Y13288650I0J-6350D01*
G37*
G36*
G01X8695850Y13379000D02*
X8774500D01*
X8775620Y13465120D01*
X8689500Y13464000D01*
Y13385350D01*
G03X8695850Y13379000I6350J0D01*
G37*
%LPC*%
G75*
G36*
G01X7753730Y2260090D02*
G02X7714950Y2280210I-36297J-22527D01*
G03X7722990Y2295710I-594J10143D01*
G02X7761770Y2275590I36297J22527D01*
G03X7753730Y2260090I594J-10143D01*
G37*
G54D29*
X7676000Y-49000D03*
X7718640Y44940D03*
X7528140Y-18560D03*
X7568780Y2254740D03*
X7774520Y4611860D03*
X7584020Y4548360D03*
%LPD*%
G75*
G36*
G01X7307590Y371420D02*
X7295340Y383650D01*
X7270960Y362440D01*
X7295340Y341230D01*
X7307590Y353460D01*
G03Y371420I-8980J8980D01*
G37*
G36*
G01X7367690Y353460D02*
X7379940Y341230D01*
X7404320Y362440D01*
X7379940Y383650D01*
X7367690Y371420D01*
G03Y353460I8980J-8980D01*
G37*
G36*
G01X7348230Y2644720D02*
X7335980Y2656950D01*
X7311600Y2635740D01*
X7335980Y2614530D01*
X7348230Y2626760D01*
G03Y2644720I-8980J8980D01*
G37*
G36*
G01X7363470Y4938340D02*
X7351220Y4950570D01*
X7326840Y4929360D01*
X7351220Y4908150D01*
X7363470Y4920380D01*
G03Y4938340I-8980J8980D01*
G37*
G36*
G01X7730230Y255860D02*
X7742480Y243630D01*
X7766860Y264840D01*
X7742480Y286050D01*
X7730230Y273820D01*
G03Y255860I8980J-8980D01*
G37*
G36*
G01Y382860D02*
X7742480Y370630D01*
X7766860Y391840D01*
X7742480Y413050D01*
X7730230Y400820D01*
G03Y382860I8980J-8980D01*
G37*
G36*
G01X7434590Y371420D02*
X7422340Y383650D01*
X7397960Y362440D01*
X7422340Y341230D01*
X7434590Y353460D01*
G03Y371420I-8980J8980D01*
G37*
G36*
G01X7771270Y2530800D02*
X7783520Y2518570D01*
X7807900Y2539780D01*
X7783520Y2560990D01*
X7771270Y2548760D01*
G03Y2530800I8980J-8980D01*
G37*
G36*
G01Y2657800D02*
X7783520Y2645570D01*
X7807900Y2666780D01*
X7783520Y2687990D01*
X7771270Y2675760D01*
G03Y2657800I8980J-8980D01*
G37*
G36*
G01X7408330Y2626760D02*
X7420580Y2614530D01*
X7444960Y2635740D01*
X7420580Y2656950D01*
X7408330Y2644720D01*
G03Y2626760I8980J-8980D01*
G37*
G36*
G01X7475230Y2644720D02*
X7462980Y2656950D01*
X7438600Y2635740D01*
X7462980Y2614530D01*
X7475230Y2626760D01*
G03Y2644720I-8980J8980D01*
G37*
G36*
G01X7785050Y4824380D02*
X7797300Y4812150D01*
X7821680Y4833360D01*
X7797300Y4854570D01*
X7785050Y4842340D01*
G03Y4824380I8980J-8980D01*
G37*
G36*
G01Y4951380D02*
X7797300Y4939150D01*
X7821680Y4960360D01*
X7797300Y4981570D01*
X7785050Y4969340D01*
G03Y4951380I8980J-8980D01*
G37*
G36*
G01X7423570Y4920380D02*
X7435820Y4908150D01*
X7460200Y4929360D01*
X7435820Y4950570D01*
X7423570Y4938340D01*
G03Y4920380I8980J-8980D01*
G37*
G36*
G01X7490470Y4938340D02*
X7478220Y4950570D01*
X7453840Y4929360D01*
X7478220Y4908150D01*
X7490470Y4920380D01*
G03Y4938340I-8980J8980D01*
G37*
G54D10*
X-911500Y5082000D03*
Y13972000D03*
X9536500Y5082000D03*
Y13972000D03*
G54D11*
X-687500Y90000D03*
X-187500Y4590000D03*
Y14090000D03*
X-687500Y19590000D03*
X8812500Y4590000D03*
Y14090000D03*
X9312500Y90000D03*
Y19590000D03*
G54D20*
X1194800Y14002900D03*
Y14202900D03*
X1394800Y14002900D03*
X1594800D03*
X1794800D03*
X1394800Y14202900D03*
X1594800D03*
X1794800D03*
X1994800Y14002900D03*
X2194800D03*
X1994800Y14202900D03*
X2194800D03*
X2394800Y14002900D03*
Y14202900D03*
X6938700Y14697550D03*
Y14951550D03*
Y15205550D03*
Y17262950D03*
Y17516950D03*
Y17770950D03*
G54D21*
X1388400Y19793200D03*
X7236700D03*
G54D12*
X-657500Y5590000D03*
Y6098000D03*
Y5844000D03*
Y6606000D03*
Y6352000D03*
Y7114000D03*
Y6860000D03*
Y7876000D03*
Y7622000D03*
Y7368000D03*
Y8384000D03*
Y8130000D03*
Y8892000D03*
Y8638000D03*
Y9400000D03*
Y9146000D03*
Y10162000D03*
Y9908000D03*
Y9654000D03*
Y10670000D03*
Y10416000D03*
Y11178000D03*
Y10924000D03*
Y11686000D03*
Y11432000D03*
Y12448000D03*
Y12194000D03*
Y11940000D03*
Y12956000D03*
Y12702000D03*
Y13464000D03*
Y13210000D03*
X-149500Y5590000D03*
X-403500D03*
X-149500Y6098000D03*
Y5844000D03*
X-403500Y6098000D03*
Y5844000D03*
X-149500Y6606000D03*
Y6352000D03*
X-403500Y6606000D03*
Y6352000D03*
X-149500Y7114000D03*
Y6860000D03*
X-403500Y7114000D03*
Y6860000D03*
X-149500Y7876000D03*
Y7622000D03*
Y7368000D03*
X-403500Y7876000D03*
Y7622000D03*
Y7368000D03*
X-149500Y8384000D03*
Y8130000D03*
X-403500Y8384000D03*
Y8130000D03*
X-149500Y8892000D03*
Y8638000D03*
X-403500Y8892000D03*
Y8638000D03*
X-149500Y9400000D03*
Y9146000D03*
X-403500Y9400000D03*
Y9146000D03*
X-149500Y10162000D03*
Y9908000D03*
Y9654000D03*
X-403500Y10162000D03*
Y9908000D03*
Y9654000D03*
X-149500Y10670000D03*
Y10416000D03*
X-403500Y10670000D03*
Y10416000D03*
X-149500Y11178000D03*
Y10924000D03*
X-403500Y11178000D03*
Y10924000D03*
X-149500Y11686000D03*
Y11432000D03*
X-403500Y11686000D03*
Y11432000D03*
X-149500Y12448000D03*
Y12194000D03*
Y11940000D03*
X-403500Y12448000D03*
Y12194000D03*
Y11940000D03*
X-149500Y12956000D03*
Y12702000D03*
X-403500Y12956000D03*
Y12702000D03*
X-149500Y13464000D03*
Y13210000D03*
X-403500Y13464000D03*
Y13210000D03*
X8774500Y5590000D03*
X9028500D03*
X8774500Y5844000D03*
Y6098000D03*
X9028500Y5844000D03*
Y6098000D03*
X8774500Y6352000D03*
Y6606000D03*
X9028500Y6352000D03*
Y6606000D03*
X8774500Y6860000D03*
Y7114000D03*
X9028500Y6860000D03*
Y7114000D03*
X8774500Y7368000D03*
Y7622000D03*
Y7876000D03*
X9028500Y7368000D03*
Y7622000D03*
Y7876000D03*
X8774500Y8130000D03*
Y8384000D03*
X9028500Y8130000D03*
Y8384000D03*
X8774500Y8638000D03*
Y8892000D03*
X9028500Y8638000D03*
Y8892000D03*
X8774500Y9146000D03*
Y9400000D03*
X9028500Y9146000D03*
Y9400000D03*
X8774500Y9654000D03*
Y9908000D03*
Y10162000D03*
X9028500Y9654000D03*
Y9908000D03*
Y10162000D03*
X8774500Y10416000D03*
Y10670000D03*
X9028500Y10416000D03*
Y10670000D03*
X8774500Y10924000D03*
Y11178000D03*
X9028500Y10924000D03*
Y11178000D03*
X8774500Y11432000D03*
Y11686000D03*
X9028500Y11432000D03*
Y11686000D03*
X8774500Y11940000D03*
Y12194000D03*
Y12448000D03*
X9028500Y11940000D03*
Y12194000D03*
Y12448000D03*
X8774500Y12702000D03*
Y12956000D03*
X9028500Y12702000D03*
Y12956000D03*
X8774500Y13210000D03*
Y13464000D03*
X9028500Y13210000D03*
Y13464000D03*
X9282500Y5590000D03*
Y5844000D03*
Y6098000D03*
Y6352000D03*
Y6606000D03*
Y6860000D03*
Y7114000D03*
Y7368000D03*
Y7622000D03*
Y7876000D03*
Y8130000D03*
Y8384000D03*
Y8638000D03*
Y8892000D03*
Y9146000D03*
Y9400000D03*
Y9654000D03*
Y9908000D03*
Y10162000D03*
Y10416000D03*
Y10670000D03*
Y10924000D03*
Y11178000D03*
Y11432000D03*
Y11686000D03*
Y11940000D03*
Y12194000D03*
Y12448000D03*
Y12702000D03*
Y12956000D03*
Y13210000D03*
Y13464000D03*
G54D13*
X-538900Y14787100D03*
X-157900Y14774400D03*
X1045900Y14672150D03*
Y15078550D03*
Y15281750D03*
Y14875350D03*
Y15484950D03*
Y15688150D03*
X766500D03*
X1045900Y16094550D03*
Y15891350D03*
Y16297750D03*
Y16704150D03*
Y16907350D03*
Y16500950D03*
Y17516950D03*
Y17313750D03*
Y17110550D03*
Y17720150D03*
Y17948750D03*
Y18151950D03*
Y18355150D03*
X1604700Y14570550D03*
Y14976950D03*
Y14773750D03*
Y15180150D03*
Y15383350D03*
Y15789750D03*
Y15586550D03*
Y16196150D03*
Y15992950D03*
Y16399350D03*
Y16602550D03*
Y16805750D03*
Y17008950D03*
Y17212150D03*
Y17415350D03*
Y17618550D03*
Y17821750D03*
Y18050350D03*
Y18253550D03*
Y18456750D03*
X1959000Y10467000D03*
X3281100Y14062550D03*
X3484300Y13846650D03*
X3627500Y1129400D03*
X3687500Y14062550D03*
X4313300Y13042000D03*
X6016840Y2130280D03*
X6029540Y4423900D03*
X6370700Y10298800D03*
X6586600Y10768700D03*
X6684700Y14410350D03*
X7548300Y14722950D03*
Y14926150D03*
Y15129350D03*
X7954700Y15230950D03*
Y14824550D03*
Y15027750D03*
X7548300Y15332550D03*
Y15738950D03*
Y15535750D03*
X7954700Y15434150D03*
Y15840550D03*
Y15637350D03*
X7548300Y16145350D03*
Y15942150D03*
Y16348550D03*
X7954700Y16043750D03*
Y16246950D03*
X7548300Y16754950D03*
Y16551750D03*
Y16958150D03*
X7954700Y16856550D03*
Y16450150D03*
Y16653350D03*
Y17059750D03*
G54D22*
X1887000Y10216000D03*
G54D23*
X2312500Y19138850D03*
X2249000Y19758850D03*
X2820500Y19138850D03*
X2693500D03*
X2566500D03*
X2439500D03*
X2884000Y19758850D03*
X2757000D03*
X2630000D03*
X2503000D03*
X2376000D03*
X3074500Y19138850D03*
X2947500D03*
X3011000Y19758850D03*
X3995000Y19138850D03*
X3868000D03*
X3741000D03*
X3614000D03*
X3931500Y19758850D03*
X3804500D03*
X3677500D03*
X3550500D03*
X4385000Y15707600D03*
X4559000Y15476600D03*
Y15957600D03*
X4503000Y19138850D03*
X4376000D03*
X4249000D03*
X4122000D03*
X4566500Y19758850D03*
X4439500D03*
X4312500D03*
X4185500D03*
X4058500D03*
X4986000Y15707600D03*
X5011000Y19138850D03*
X4884000D03*
X4757000D03*
X4630000D03*
X5074500Y19758850D03*
X4947500D03*
X4820500D03*
X4693500D03*
X5294000Y15303600D03*
X5677500Y19138850D03*
X5550500D03*
X5614000Y19758850D03*
X6185500Y19138850D03*
X6058500D03*
X5931500D03*
X5804500D03*
X6249000Y19758850D03*
X6122000D03*
X5995000D03*
X5868000D03*
X5741000D03*
X6439500Y19138850D03*
X6312500D03*
X6820500D03*
X6693500D03*
X6566500D03*
X6376000Y19758850D03*
X6757000D03*
X6630000D03*
X6503000D03*
X7074500Y19138850D03*
X6947500D03*
X7011000Y19758850D03*
X6884000D03*
G54D14*
X-754000Y15467700D03*
X-980800Y15310300D03*
Y16310300D03*
Y17310300D03*
Y18310300D03*
Y20310300D03*
X-487500Y15150400D03*
X-337500Y15467700D03*
X-360300Y16077300D03*
X-169800D03*
X-262500D03*
X19200Y16310300D03*
Y17310300D03*
Y18310300D03*
Y19310300D03*
Y20310300D03*
X598000Y3070000D03*
X373000Y2831200D03*
X533000D03*
X453000D03*
X613000D03*
X333000Y3351900D03*
X573000D03*
X409920Y3771000D03*
X496090D03*
X516000Y4208000D03*
X410200Y4601700D03*
Y4500100D03*
X312800Y5724500D03*
Y5804500D03*
Y5884500D03*
Y5964500D03*
X441420Y6528520D03*
X525420Y6612520D03*
X604800Y8254200D03*
X604900Y8635200D03*
X604800Y9016200D03*
X611400Y10254200D03*
Y10635200D03*
X494200Y12060300D03*
X269200Y13660300D03*
Y14260300D03*
X84200Y15480400D03*
X439800Y15797900D03*
X223900D03*
X439800Y15302600D03*
X849000Y3263000D03*
X1013000Y2831200D03*
X1093000D03*
X933000D03*
X773000D03*
X853000D03*
X693000D03*
X813000Y3351900D03*
X1053000D03*
X973200Y3804020D03*
X902080Y3776080D03*
X725300Y3898000D03*
X653000Y3351900D03*
X733000Y3353000D03*
X993070Y3886340D03*
X733000Y3351900D03*
X1156200Y3979400D03*
X1157600Y4444600D03*
X1151000Y4888600D03*
X972400Y4675100D03*
X743800D03*
X1146300Y5358500D03*
X1151000Y5129900D03*
X733650Y8597000D03*
X808100Y8571070D03*
X1025750Y8800200D03*
X1024000Y8876400D03*
X1074800Y9130400D03*
X858900Y10032100D03*
X717800Y9878300D03*
X780080Y9933120D03*
X965810Y9968600D03*
X903530Y9917800D03*
X846200Y10260700D03*
X1125600Y10667100D03*
X998600Y10654400D03*
X1062100Y10603600D03*
X1156200Y10443700D03*
X782700Y10184500D03*
X706500Y10806800D03*
X960500Y11251300D03*
X615060Y10786480D03*
Y10867760D03*
X871600Y11187800D03*
X935100Y11137000D03*
X1049400Y12368100D03*
X794200Y11935300D03*
X844200Y12685300D03*
X1062100Y12661000D03*
X973200Y12572100D03*
X922400Y12495900D03*
X1062100Y12876900D03*
Y12775300D03*
X844200Y13185300D03*
Y13660300D03*
Y14260300D03*
X897000Y18655400D03*
X894200Y18835300D03*
X1144200Y19085300D03*
X894200Y19335300D03*
X1144200Y19585300D03*
X894200Y20335300D03*
X1144200Y20085300D03*
X894200Y19835300D03*
X1532000Y4456800D03*
X1697100Y4228200D03*
X1196600Y4208000D03*
X1366900Y4672700D03*
X1646300Y5358500D03*
X1443100Y5282300D03*
X1747900Y5091800D03*
X1506600Y7377800D03*
X1582800Y8393200D03*
X1343200Y8116940D03*
X1700500Y8873000D03*
X1493900Y9346300D03*
X1303400Y9988920D03*
Y9854300D03*
X1493900D03*
X1491360Y9991460D03*
X1689760Y10026740D03*
X1693340Y9926740D03*
X1694940Y9826740D03*
X1519300Y10443700D03*
X1316100Y10629000D03*
X1303400Y10146400D03*
X1493900D03*
X1691000Y10193000D03*
X1684400Y10324200D03*
X1392300Y10667100D03*
X1544700Y10349600D03*
X1201800Y10341580D03*
X1684400Y10870300D03*
X1328800Y10717900D03*
X1417700Y11911700D03*
X1582800D03*
X1683600D03*
X1481200Y12292700D03*
X1226600Y12280000D03*
X1683600Y12254600D03*
X1595500Y12737200D03*
Y12508600D03*
X1711100Y12509900D03*
X1595600Y12623000D03*
X1711100D03*
X1341500Y12648000D03*
X1607400Y13257900D03*
X1228900Y13065700D03*
X1608200Y12991200D03*
X1679620Y13410300D03*
X1369200Y13660300D03*
X1379600Y16496400D03*
X1316100Y16907350D03*
X1392300Y17055200D03*
X1614000Y19157600D03*
X1394200Y18835300D03*
X1644200Y19035300D03*
X1550500Y19767200D03*
Y19411600D03*
X1674240Y19679020D03*
X1394200Y19335300D03*
X1614000Y20021200D03*
X1394200Y20335300D03*
X2273000Y2831200D03*
X2284000Y3874000D03*
X2233000Y3341700D03*
X2309430Y3778620D03*
X2268600Y4220700D03*
X2294000Y4355200D03*
X2167000Y4507600D03*
X2168600Y4610600D03*
X2217800Y4850500D03*
X1951100Y4952100D03*
X1874900Y5004650D03*
X2154300Y5396600D03*
X1887600Y5104500D03*
X2052700D03*
X1874900Y5218800D03*
X2268600Y5282300D03*
X2090800D03*
X1811400Y5155300D03*
X2012300Y5724500D03*
X2013100Y5804500D03*
X2009300Y5884500D03*
X2011000Y5964500D03*
X1824100Y6590300D03*
Y6680300D03*
X1874000Y7022200D03*
X2034000D03*
X1954000D03*
X1794000D03*
X1907580Y8399220D03*
X2154300Y8493200D03*
X2116200Y8793200D03*
X2154300Y8965300D03*
Y8587180D03*
X1874900Y9185300D03*
X2299800Y9359000D03*
X1849500Y9346300D03*
X1926000Y9669000D03*
X2221700Y9685300D03*
X2217800Y9867000D03*
X1798700Y9676500D03*
X1947000Y10016700D03*
X1798700Y10017000D03*
X2243200Y10298800D03*
Y10209900D03*
X2176500Y10635300D03*
X1975000Y10220000D03*
X2032000Y10345000D03*
X1845800Y10364050D03*
X1795000Y10262450D03*
X1887600Y11060800D03*
X2014600Y10819500D03*
X1862200Y11505300D03*
X1886800Y11911700D03*
X2026500D03*
X1760600D03*
X1959700Y12373000D03*
X2065400Y12749900D03*
X1811400Y12762600D03*
X2052200Y12598000D03*
X2103500Y12495900D03*
X2179700Y12775300D03*
X1912200Y13308700D03*
X2051900D03*
X1785200Y13257100D03*
Y13004700D03*
X1764020Y13448400D03*
X1975090Y14812470D03*
X1834490Y15038960D03*
X2257570Y14814330D03*
X2229450Y15136650D03*
X2116200Y15719160D03*
X2241380Y15348430D03*
X2253650Y15569950D03*
X2055540Y15425930D03*
X1889030Y15269950D03*
X2254030Y16134710D03*
X2032380Y16176360D03*
X2253080Y15991970D03*
X2249500Y16349990D03*
Y16519950D03*
Y16719950D03*
X2264410Y16953120D03*
X2266080Y17469950D03*
X2262710Y17277530D03*
X2151850Y17369950D03*
X2258540Y17147230D03*
X2044200Y18560300D03*
X1894200Y18835300D03*
X2144200Y19035300D03*
X2309240Y19679020D03*
X2182240D03*
X2055240D03*
X1928240D03*
X1925700Y19460580D03*
X2052700D03*
X2179700D03*
X2306700D03*
X1801240Y19679020D03*
X1798700Y19460580D03*
X2187320Y20052400D03*
X2314320D03*
X1894200Y20335300D03*
X2433000Y2526400D03*
X2564000Y3066000D03*
X2643000Y3060000D03*
X2435450Y3313000D03*
X2833000Y2831200D03*
X2673000D03*
X2753000D03*
X2353000D03*
X2593000D03*
X2513000D03*
X2833500Y3880000D03*
X2740000Y3334000D03*
X2876090Y3788780D03*
X2789920D03*
X2395600Y3778620D03*
X2553000Y3356900D03*
X2490600Y3898000D03*
X2725800D03*
X2633000Y3355800D03*
X2319400Y3992100D03*
X2509900Y4850500D03*
X2789300D03*
X2496400Y4687800D03*
X2725000D03*
X2802000Y5396600D03*
X2852800Y5041000D03*
X2789300Y5104500D03*
X2725800Y5155300D03*
X2509900D03*
X2535300Y5282300D03*
X2751200Y6476100D03*
X2543200Y7166700D03*
X2326300Y8876400D03*
X2844200Y9085300D03*
X2471800Y9435200D03*
X2408300Y9185300D03*
X2611500Y9371700D03*
X2580700Y9041500D03*
X2744200Y9485300D03*
Y9385300D03*
Y9285300D03*
X2611500Y9663800D03*
X2744200Y9985300D03*
X2624200Y9930500D03*
X2700400Y9881450D03*
X2744200Y9685300D03*
Y9585300D03*
X2463000Y9685300D03*
X2744200Y9785300D03*
X2484500Y9867000D03*
X2573400Y10603600D03*
X2644520Y10428340D03*
X2744200Y10285300D03*
X2509900Y10209900D03*
X2744200Y10585300D03*
X2444200Y10435300D03*
X2744200Y10685300D03*
X2414600Y10635300D03*
X2421000Y11060800D03*
X2844200Y11085300D03*
X2744200Y10785300D03*
Y11185300D03*
X2644200Y11085300D03*
X2744200Y10985300D03*
Y10885300D03*
X2421000Y10819500D03*
X2843400Y11487700D03*
X2357500Y11632300D03*
X2506100Y12187300D03*
X2382900Y12388100D03*
X2699600Y12213960D03*
X2870580Y12094580D03*
X2548400Y12711400D03*
X2388400Y12757100D03*
X2370200Y12495900D03*
X2548400Y12457800D03*
X2814700Y14553300D03*
X2564880Y15207430D03*
X2532850Y15057990D03*
X2539750Y15578930D03*
X2585300Y15356870D03*
X2538300Y15473600D03*
X2539460Y15723600D03*
X2578740Y16023600D03*
X2594830Y16223600D03*
X2546970Y16324190D03*
X2541760Y15923600D03*
X2547500Y16596750D03*
X2549410Y16492620D03*
X2584040Y17125420D03*
X2580400Y17291130D03*
X2581670Y16973600D03*
X2369200Y18060300D03*
X2436240Y19679020D03*
X2817240D03*
X2690240D03*
X2563240D03*
X2433700Y19460580D03*
X2687700D03*
X2814700D03*
X2560700D03*
X2441320Y20052400D03*
X2568320D03*
X2695320D03*
X2822320D03*
X2394200Y20335300D03*
X2993000Y2831200D03*
X2913000D03*
X2953000Y3353300D03*
X2894200Y4447400D03*
X2954400Y4220700D03*
X2906200Y4093700D03*
X3005200Y4990200D03*
X3094100Y5142600D03*
X3386200Y5930000D03*
X3437000Y6006200D03*
X3257450D03*
X3030600Y6222100D03*
X3322700Y6463400D03*
X3310700Y6717400D03*
X3183700D03*
X3056700D03*
X2929700D03*
X3437000Y6260200D03*
X3141300D03*
X3310700Y7758100D03*
X3183700D03*
X3056700Y7758800D03*
X2970200Y8187500D03*
X3050200Y8184800D03*
X3130200Y8188600D03*
X3210200Y8188800D03*
X3081400Y8901800D03*
X2930700Y8939900D03*
X3398900Y8990700D03*
X3244200Y9285300D03*
X2944200Y9485300D03*
X3344200D03*
X3044200Y9285300D03*
X3444200D03*
X3244200Y9385300D03*
Y9085300D03*
X3144200Y9285300D03*
X3244200Y9485300D03*
X3444200D03*
Y9385300D03*
Y9085300D03*
X3344200Y9385300D03*
Y9285300D03*
Y9085300D03*
X3044200Y9485300D03*
X2944200Y9385300D03*
Y9285300D03*
X3244200Y9785300D03*
X3144200Y10085300D03*
X3044200Y9685300D03*
X2944200Y9785300D03*
X3444200Y9585300D03*
X2944200D03*
X3344200Y9685300D03*
X3444200Y10085300D03*
X3044200Y9985300D03*
X3144200D03*
X3044200Y9785300D03*
X3144200D03*
X2944200Y9685300D03*
X3444200D03*
X3344200Y9585300D03*
X3244200Y9685300D03*
X3144200D03*
X3344200Y9985300D03*
Y9885300D03*
X3244200Y9585300D03*
X3144200D03*
X3044200D03*
X3444200Y9885300D03*
X3344200Y9785300D03*
X3244200Y10085300D03*
X3044200D03*
X3244200Y9885300D03*
Y9985300D03*
Y10585300D03*
X3044200D03*
Y10385300D03*
X2942600Y10286100D03*
X2944200Y10685300D03*
X3244200Y10185300D03*
X3444200Y10385300D03*
Y10585300D03*
X3344200Y10185300D03*
X3044200Y10485300D03*
X3144200D03*
X2944200Y10585300D03*
X3044200Y10685300D03*
X3144200D03*
X3344200Y10385300D03*
X3244200D03*
X3144200Y10185300D03*
X3044200D03*
X3344200Y10685300D03*
Y10585300D03*
X3144200D03*
Y10385300D03*
X2944200Y10485300D03*
X3444200Y10985300D03*
X3044200Y10785300D03*
X2944200Y10885300D03*
X3444200Y11085300D03*
Y11185300D03*
X3344200Y10985300D03*
Y11185300D03*
X3244200D03*
X3044200D03*
X3244200Y10885300D03*
Y11085300D03*
X2944200Y10785300D03*
X3244200Y10985300D03*
X3444200Y10885300D03*
X3144200Y11185300D03*
Y11085300D03*
X3044200Y10985300D03*
X3344200Y10885300D03*
Y10785300D03*
X2944200Y11185300D03*
X3044200Y11085300D03*
X3144200Y10985300D03*
X2944200D03*
X3044200Y10885300D03*
X3144200D03*
X3444200Y10785300D03*
X3144200D03*
X3344200Y11085300D03*
X3284600Y11594200D03*
X3386200D03*
X3244200Y11285300D03*
X3348100Y11454500D03*
X3081400Y11581500D03*
X3386200Y11683100D03*
X3284600D03*
X3444200Y11285300D03*
X3044200D03*
X3194200Y11423000D03*
X3284600Y12229200D03*
X3386200D03*
X3133950Y12355490D03*
X3144200Y12877600D03*
X3348100Y12699100D03*
X3233800Y12495900D03*
X3348100Y13372200D03*
X3271900Y13458930D03*
X3144200Y13308000D03*
X3271900Y13550000D03*
X3297300Y14680300D03*
X3290360Y15201090D03*
X3295130Y14872280D03*
X3355120Y14771910D03*
X3005200Y14769200D03*
X2951850Y14973600D03*
X3014500Y15075950D03*
X3015930Y14873600D03*
X3394500Y15675300D03*
X3287510Y15669950D03*
X3285500Y15527590D03*
X3328500Y15425950D03*
X3003470Y15559040D03*
X3015930Y15673600D03*
X3011320Y15265700D03*
Y15373600D03*
X2981050Y15773600D03*
X3285760Y16069950D03*
X2981270Y16173600D03*
X3017090Y15873600D03*
X2994010Y16353630D03*
X3015930Y16073600D03*
X3404720Y16166730D03*
X2983170Y15973600D03*
X3022190Y16619330D03*
X3128700Y16831150D03*
X2995420Y16463760D03*
X3209210Y16717240D03*
X3282920Y17369950D03*
X3056000Y17487000D03*
X3004910Y17073360D03*
X3282670Y17224470D03*
X3337330Y17122020D03*
X3398900Y17017100D03*
X3282920Y17019950D03*
X2991950Y16954600D03*
X3005960Y17280860D03*
X2962900Y17180020D03*
X3144900Y17487000D03*
X2954220Y17374670D03*
X3043300Y17652100D03*
X3369200Y17660300D03*
X3444200Y18835300D03*
X3344200Y19035300D03*
X3071240Y19679020D03*
X3068700Y19460580D03*
X3195700D03*
X3344200Y19785300D03*
X2944240Y19679020D03*
X2941700Y19460580D03*
X3344200Y19285300D03*
X3076320Y20052400D03*
X3394200Y20335300D03*
X3344200Y20085300D03*
X2949320Y20052400D03*
X2894200Y20335300D03*
X3686000Y625000D03*
X3767200Y1604500D03*
X3627500Y1650100D03*
X3923760Y2577200D03*
X3652900Y6069700D03*
X3602100Y5866500D03*
X3475100Y5777600D03*
X3884700Y5701400D03*
X3538610Y6107800D03*
X3538600Y6006200D03*
X3884700Y5984000D03*
X3957700Y6692000D03*
X3881500Y6615800D03*
X3792600Y6692000D03*
X3678300Y6311000D03*
X3919200Y6460300D03*
X3487800Y6387200D03*
X3589400Y6184000D03*
X3643200Y6831700D03*
X3881700Y7204380D03*
X3643200Y7174600D03*
X3780700Y7263500D03*
X3995800D03*
X3494200Y7714400D03*
X3941600Y7603000D03*
X3805000Y7644800D03*
X3856100Y8317600D03*
X3652900Y8152500D03*
X3678300Y8647800D03*
X3983100Y8749400D03*
X3678300Y8800200D03*
X3868800Y8876400D03*
X3983100Y9003400D03*
X3644200Y9285300D03*
X3983100Y9092300D03*
X3744200Y9485300D03*
Y9385300D03*
Y9285300D03*
X3844200D03*
Y9485300D03*
X3644200D03*
Y9385300D03*
X3544200Y9485300D03*
Y9385300D03*
X3844200D03*
X3644200Y9985300D03*
X3844200D03*
X3544200Y9785300D03*
X3844200Y9585300D03*
Y10085300D03*
X3644200Y9885300D03*
X3844200D03*
X3544200Y9985300D03*
X3744200Y9585300D03*
Y9685300D03*
X3844200D03*
Y9785300D03*
X3644200Y9585300D03*
Y9685300D03*
X3544200Y9585300D03*
Y9685300D03*
X3744200Y9885300D03*
X3844200Y10485300D03*
X3744200Y10585300D03*
Y10385300D03*
X3644200Y10485300D03*
Y10285300D03*
Y10685300D03*
X3844200Y10185300D03*
Y10585300D03*
Y10385300D03*
X3644200Y10585300D03*
X3744200Y10485300D03*
X3644200Y10385300D03*
Y10185300D03*
X3744200D03*
Y10685300D03*
X3544200D03*
X3944200D03*
X3844200Y10985300D03*
X3944200Y10885300D03*
Y10985300D03*
X3844200Y10885300D03*
Y11085300D03*
X3744200Y10885300D03*
Y10985300D03*
Y11085300D03*
Y11185300D03*
X3644200Y10885300D03*
Y11085300D03*
Y11185300D03*
X3544200Y10885300D03*
Y10985300D03*
Y11085300D03*
X3538600Y11187800D03*
X3644200Y10985300D03*
X3844200Y10785300D03*
X3644200Y11285300D03*
X3640200Y11568800D03*
X3543400Y11287700D03*
X3844200Y11285300D03*
X3475100Y11429100D03*
X3694200Y12305400D03*
X3892900Y12624200D03*
X3500500Y12673700D03*
X3671770Y12762600D03*
X3577920D03*
X3607200Y13075000D03*
X3995800Y13384900D03*
X3970400Y13296000D03*
X3830700Y13372200D03*
X3805300Y13461100D03*
X3741800Y13537300D03*
X3602100Y13372200D03*
X3551300Y13435700D03*
X3702500Y13256700D03*
X3892900Y13256600D03*
X3899500Y13588100D03*
X3868800Y13677000D03*
X3676550Y13740500D03*
X3602100Y13626200D03*
X3475100Y13550000D03*
X3576700Y14680300D03*
X3779900D03*
X3578920Y15138950D03*
X3869200Y14860300D03*
X3576700Y15442300D03*
X3687480Y15769950D03*
X3844200Y15485300D03*
X3580920Y15263950D03*
X3596250Y16064400D03*
X3690330Y15969950D03*
X3679250Y16269950D03*
X3488650Y16390550D03*
X3691000Y16521800D03*
X3869200Y16685300D03*
X3477020Y16604490D03*
X3476050Y16723180D03*
X3589120Y16449660D03*
X3894200Y16410300D03*
Y17185300D03*
X3729100Y17550500D03*
X3944200Y17560300D03*
X3617340Y19681560D03*
X3871340D03*
X3998340D03*
X3995800Y19463120D03*
X3744340Y19681560D03*
X3868800Y19463120D03*
X3741800D03*
X3617340Y20072720D03*
X3744340D03*
X3998340D03*
X3871340D03*
X3894200Y20335300D03*
X4135500Y354700D03*
X4134700Y252300D03*
X4427600Y530500D03*
X4035000Y579000D03*
X4022820Y2577200D03*
X4278960Y2484540D03*
X4582540Y2994300D03*
X4440300Y2945500D03*
X4351400Y4896220D03*
X4304880Y4791280D03*
X4284700Y5701400D03*
X4440300Y6724700D03*
X4033900Y6615800D03*
X4440300Y6978700D03*
X4414900Y7230600D03*
X4046600Y7200000D03*
X4326000Y7434800D03*
X4503800Y7415900D03*
X4351400Y7644800D03*
X4554600Y8292200D03*
X4338730Y8273640D03*
X4338700Y8358350D03*
X4194200Y8441000D03*
X4193930Y8961000D03*
X4444200Y8622400D03*
Y8952600D03*
X4351400Y8470000D03*
X4144200Y9285300D03*
X4544200D03*
Y9085300D03*
Y9385300D03*
Y9485300D03*
X4444200Y9085300D03*
X4244200Y9385300D03*
X4144200Y9485300D03*
X4244200D03*
X4344200Y9285300D03*
Y9085300D03*
Y9385300D03*
Y9485300D03*
X4244200Y9085300D03*
X4044200Y9385300D03*
X4244200Y9285300D03*
X4444200Y9385300D03*
Y9485300D03*
X4144200Y9385300D03*
X4044200Y9285300D03*
X4544200Y9785300D03*
X4044200Y10085300D03*
X4344200Y9585300D03*
X4044200Y9685300D03*
X4144200D03*
X4444200Y9585300D03*
X4244200Y9985300D03*
X4144200Y10085300D03*
X4344200D03*
X4444200Y9985300D03*
X4144200Y9885300D03*
X4344200Y9685300D03*
X4144200Y9585300D03*
X4544200D03*
X4044200D03*
X4244200Y9885300D03*
X4044200D03*
X4244200Y10385300D03*
X4144200Y10485300D03*
X4044200Y10585300D03*
Y10385300D03*
X4144200Y10185300D03*
Y10285300D03*
Y10385300D03*
X4244200Y10485300D03*
X4144200Y10585300D03*
X4044200Y10485300D03*
Y10185300D03*
X4544200Y10285300D03*
X4444200Y10485300D03*
X4344200Y10385300D03*
Y10985300D03*
X4144200Y10885300D03*
X4444200Y10985300D03*
Y11085300D03*
Y11185300D03*
X4344200D03*
X4244200Y10885300D03*
Y10985300D03*
Y11085300D03*
Y11185300D03*
X4144200Y11085300D03*
Y11185300D03*
X4044200Y11085300D03*
Y11185300D03*
X4544200Y11085300D03*
Y11185300D03*
X4444200Y10885300D03*
X4544200Y10985300D03*
X4144200D03*
X4446600Y10786100D03*
X4544200Y10885300D03*
X4344200Y11085300D03*
X4287970Y11834700D03*
X4144200Y11285300D03*
X4544200D03*
X4287900Y11479900D03*
X4444510Y11837000D03*
X4544060Y11838870D03*
X4344200Y11285300D03*
X4444310Y11597010D03*
X4544390Y11594050D03*
X4290590Y11599300D03*
X4414900Y13270600D03*
X4351400Y13181700D03*
X4199000Y13397600D03*
X4135500Y13245200D03*
X4099500Y13359500D03*
X4046600Y13486500D03*
X4448450Y14062550D03*
X4449500Y14678320D03*
X4544200Y15210300D03*
X4224400Y14743800D03*
X4097400Y16902800D03*
X4419200Y16410300D03*
Y17010300D03*
X4499500Y17713900D03*
X4419200Y17560300D03*
X4125340Y19681560D03*
X4249800Y19463120D03*
X4122800D03*
X4506340Y19681560D03*
X4503800Y19463120D03*
X4252340Y19681560D03*
X4379340D03*
X4376800Y19463120D03*
X4125340Y20072720D03*
X4379340D03*
X4252340D03*
X4506340D03*
X4344200Y20335300D03*
X4658060Y-115200D03*
X5039740Y2094300D03*
X5054980Y4172020D03*
X4814620Y4412020D03*
X4597780Y5072020D03*
X4748300Y5701400D03*
X5148300D03*
X4748300Y5984000D03*
X4969200Y6460300D03*
X4808600Y6724700D03*
X4841500Y7598900D03*
X5108200D03*
X4882100Y7829400D03*
X4994200Y8355700D03*
X4614800Y7946000D03*
X4844200Y8398000D03*
X4745100Y8660500D03*
Y8914500D03*
X4594200Y8622400D03*
Y8952600D03*
X4744200Y9085300D03*
X5144200Y9485300D03*
X4944200D03*
X4744200D03*
X4644200Y9085300D03*
Y9285300D03*
Y9385300D03*
X5049900Y9179600D03*
X4644200Y9485300D03*
X4844200Y9285300D03*
X4944200D03*
X4744200Y9385300D03*
X4845000Y9082900D03*
X4945000D03*
X4844200Y9385300D03*
X5144200D03*
X4744200Y9285300D03*
X4844200Y9485300D03*
X4644200Y9585300D03*
X4744200Y9785300D03*
X4944200Y9985300D03*
X4644200Y10085300D03*
X4944200Y9585300D03*
Y9785300D03*
X4644200Y9885300D03*
Y9685300D03*
X4744200Y9585300D03*
X5144200Y9885300D03*
Y9785300D03*
X4744200Y9885300D03*
X4844200Y9685300D03*
X5144200D03*
Y9585300D03*
X4844200Y10085300D03*
X5144200D03*
Y9985300D03*
X4844200Y9885300D03*
X4944200D03*
X4844200Y9785300D03*
X4644200D03*
X4744200Y9685300D03*
X4944200D03*
X4844200Y9585300D03*
X4744200Y10085300D03*
X4944200D03*
X4844200Y9985300D03*
X4744200D03*
X4944200Y10485300D03*
X4644200Y10585300D03*
X5144200Y10385300D03*
X4944200D03*
X5144200Y10485300D03*
X4844200D03*
X4944200Y10685300D03*
X4644200Y10385300D03*
X4944200Y10185300D03*
X5144200D03*
X4844200D03*
X5144200Y10685300D03*
X4844200Y10585300D03*
X4744200Y10485300D03*
X4844200Y10385300D03*
X4744200Y10185300D03*
X4844200Y10685300D03*
X4744200Y10585300D03*
X4644200Y10485300D03*
X4744200Y10385300D03*
X4644200Y10285300D03*
X4744200Y11085300D03*
X4746600Y10786100D03*
X4944200Y10885300D03*
X4744200Y11185300D03*
X4844200Y10885300D03*
Y10985300D03*
X4744200Y10885300D03*
X5144200Y10985300D03*
X4944200D03*
Y11085300D03*
X4646600Y10786100D03*
X4844200Y11085300D03*
X4840550Y11180850D03*
X4944200Y11485300D03*
X5044200D03*
X4744200Y11285300D03*
X4836000Y11605300D03*
Y11930700D03*
X4994200Y11937100D03*
X5100700Y12978500D03*
X4891150Y12972150D03*
X5099500Y13462300D03*
X4745100Y13410300D03*
X4694300Y13283300D03*
X4637150Y12997550D03*
X4592700Y13473800D03*
X4795900Y14083400D03*
X5056250Y13588100D03*
X4846700Y13575400D03*
X4913570Y15123920D03*
X5136990Y14995480D03*
X4969200Y14785300D03*
X4869200Y16060300D03*
Y16410300D03*
Y17010300D03*
Y17560300D03*
X5144200Y18835300D03*
X4760340Y19681560D03*
X4757800Y19463120D03*
X5014340Y19681560D03*
X5138800Y19463120D03*
X4887340Y19681560D03*
X5011800Y19463120D03*
X4884800D03*
X4633340Y19681560D03*
X4630800Y19463120D03*
X4760340Y20072720D03*
X4887340D03*
X5014340D03*
X4794200Y20335300D03*
X4633340Y20072720D03*
X5416780Y300500D03*
Y377260D03*
Y224860D03*
X5603060Y114220D03*
X5526300D03*
X5678700D03*
X5527420Y486780D03*
X5679820D03*
X5603060D03*
X5342000Y530500D03*
X5532500Y1424040D03*
Y1523100D03*
X5571720Y2764300D03*
Y2688660D03*
X5681240Y2578020D03*
X5571720Y2841060D03*
X5682360Y2950580D03*
X5496940Y2994300D03*
X5555360Y3697340D03*
Y3796400D03*
X5697600Y5028300D03*
X5696480Y4655740D03*
X5586960Y4842020D03*
Y4918780D03*
Y4766380D03*
X5512180Y5072020D03*
X5559640Y5991080D03*
Y6090140D03*
X5164200Y6722600D03*
X5544600Y6793600D03*
X5383300Y6768200D03*
X5278500Y7230600D03*
X5164200Y7232700D03*
X5253100Y7066300D03*
X5631500Y7555600D03*
X5541500D03*
X5294200Y8238400D03*
X5669200Y8241400D03*
X5494200Y8241200D03*
X5392800Y8838300D03*
Y8939900D03*
X5659500Y9117700D03*
X5583300Y9168500D03*
X5418900Y9485300D03*
X5684900Y9757400D03*
X5410200D03*
X5425700Y9630900D03*
X5678590Y10693720D03*
X5634100Y11085300D03*
X5586300Y10936800D03*
X5192650Y10895700D03*
X5319600Y10936800D03*
X5278500Y11086200D03*
X5352500Y11659900D03*
X5659500Y11314800D03*
X5596000Y11378300D03*
X5176870Y11933980D03*
X5612500Y11852020D03*
X5507100Y13270600D03*
X5443600Y13359500D03*
X5202300Y13397600D03*
X5596000Y13423000D03*
X5494400Y13867500D03*
X5299500Y13626200D03*
X5249500Y13702400D03*
X5697600D03*
X5696650Y14920610D03*
X5288900Y15131220D03*
X5172330Y14875920D03*
X5704250Y15472290D03*
X5390060Y16169950D03*
X5596540Y16036710D03*
X5704500Y16357510D03*
X5405500Y15953950D03*
X5709680Y16514290D03*
X5508640Y16688150D03*
X5409440Y16919950D03*
X5369200Y16410300D03*
X5240680Y17069950D03*
X5601400Y17119950D03*
X5498390Y17475640D03*
X5354500Y17258370D03*
X5244200Y19035300D03*
X5674740Y19679020D03*
X5294200Y19785300D03*
Y19285300D03*
X5672200Y20075260D03*
X5545200D03*
X5294200Y20335300D03*
Y20085300D03*
X6131140Y-399560D03*
X5789340Y376140D03*
Y223740D03*
Y300500D03*
X6171780Y1873740D03*
X5944280Y2687540D03*
Y2764300D03*
X5833640Y2578020D03*
X5758000D03*
X5944280Y2839940D03*
X5834760Y2950580D03*
X5758000D03*
X6187020Y4167360D03*
X5850000Y5028300D03*
X5848880Y4655740D03*
X5959520Y4917660D03*
Y4765260D03*
Y4842020D03*
X5773240Y5028300D03*
Y4655740D03*
X5844200Y6735300D03*
X6192900Y7161900D03*
X6015100D03*
X6192900Y6966900D03*
X6197600Y7661900D03*
X5994200Y7839500D03*
X6194200Y7836300D03*
X6010400Y7661900D03*
X5764300Y7596900D03*
X5926200Y8939900D03*
Y8851000D03*
X6244200Y8835300D03*
X6194200Y8583000D03*
X5772100Y9335300D03*
X5773100Y9485300D03*
X6056700Y10095600D03*
X5768600Y9630900D03*
X6218300Y10502000D03*
X6034330Y10438500D03*
X6128180D03*
X5950380Y10489300D03*
X5856530D03*
X6034330Y10692500D03*
X6128180D03*
X5773800Y10679800D03*
X5799200Y11264000D03*
X6218300Y11022700D03*
X5748400Y11530700D03*
X6234400Y11755900D03*
X6180200Y11327500D03*
X6090200Y11860900D03*
X6243700Y12755100D03*
X5913500Y12838800D03*
X6243700Y12628100D03*
Y13263100D03*
X6096380Y13097880D03*
X5761100Y13283300D03*
X6243700Y13390100D03*
X6167490Y14045290D03*
X5989700Y13664300D03*
X6152560Y14536850D03*
X6194200Y14260300D03*
X5968320Y15122750D03*
X5734570Y15219360D03*
X5967860Y14923600D03*
X5869690Y15244170D03*
X5860470Y15023700D03*
X5932840Y15573600D03*
X5932380Y15467020D03*
X5951370Y15754000D03*
X5842500Y15665580D03*
X5930500Y15362890D03*
X5899950Y15973600D03*
X5953070Y16223600D03*
X5868800Y16354310D03*
X5949500Y15869950D03*
X5950900Y16073600D03*
X5952320Y16874560D03*
X5944100Y16532580D03*
X5945500Y16424770D03*
X5949500Y16719950D03*
X5839640Y17375030D03*
X5756710Y17255380D03*
X5949500Y17119950D03*
X5950610Y17002340D03*
X5944500Y17474950D03*
X5943440Y17323110D03*
X5944330Y17602080D03*
X5799500Y17673500D03*
X5926200Y19460580D03*
X5928740Y19679020D03*
X6055740D03*
X6182740D03*
X6180200Y19460580D03*
X6053200D03*
X5801740Y19679020D03*
X5799200Y19460580D03*
X6180200Y20075260D03*
X6053200D03*
X5926200D03*
X5799200D03*
X5794200Y20335300D03*
X6766140Y-145560D03*
X6639140D03*
X6512140D03*
X6766140Y-18560D03*
X6639140D03*
X6766140Y108440D03*
X6639140D03*
X6766140Y235440D03*
X6639140D03*
X6766140Y362440D03*
X6639140D03*
X6766140Y489440D03*
X6639140D03*
X6766140Y616440D03*
X6639140D03*
X6766140Y743440D03*
X6639140D03*
X6766140Y870440D03*
X6639140D03*
Y997440D03*
X6766140D03*
Y1124440D03*
X6639140D03*
X6806780Y2127740D03*
X6679780D03*
X6552780D03*
X6806780Y2254740D03*
X6679780D03*
X6806780Y2381740D03*
X6679780D03*
X6806780Y2508740D03*
X6679780D03*
X6806780Y2635740D03*
X6679780D03*
X6806780Y2762740D03*
X6679780D03*
X6806780Y2889740D03*
X6679780D03*
X6806780Y3016740D03*
X6679780D03*
X6806780Y3143740D03*
X6679780D03*
Y3270740D03*
X6806780D03*
Y3397740D03*
X6679780D03*
X6695020Y4421360D03*
X6822020D03*
X6568020D03*
X6822020Y4548360D03*
X6695020D03*
X6822020Y4675360D03*
X6695020D03*
X6822020Y4802360D03*
X6695020D03*
X6822020Y4929360D03*
X6695020D03*
X6822020Y5183360D03*
X6695020D03*
X6822020Y5310360D03*
X6695020D03*
X6822020Y5437360D03*
X6695020D03*
Y5564360D03*
X6822020D03*
Y5056360D03*
X6695020D03*
Y5691360D03*
X6822020D03*
X6344200Y6735300D03*
X6840600Y6730220D03*
X6824300Y7285300D03*
X6510970Y6780900D03*
X6510400Y6882500D03*
X6815200Y7025800D03*
X6535800Y7294800D03*
X6827900Y7441300D03*
Y7530200D03*
X6815200Y7675800D03*
X6459400Y7466900D03*
X6461030Y7643070D03*
X6485000Y7570050D03*
X6777100Y7885300D03*
X6497700D03*
X6485000Y8025500D03*
X6480470Y8114930D03*
X6345300Y8533500D03*
X6319900Y8622400D03*
X6345300Y8444600D03*
X6418000D03*
X6456700Y10095600D03*
X6627100Y10110700D03*
X6757500Y11258200D03*
X6612000Y11276700D03*
X6502900Y11754100D03*
X6676600Y11950900D03*
X6319200Y12110300D03*
X6744200Y12885300D03*
Y12460300D03*
X6769200Y13185300D03*
X6535790Y13930980D03*
X6364350Y13924650D03*
X6544200Y13610300D03*
X6707260Y13988160D03*
X6297430Y14585630D03*
X6419620Y14778250D03*
X6736170Y15669950D03*
X6429660Y15745060D03*
X6373910Y15650770D03*
X6735500Y15940630D03*
Y16094550D03*
X6643830Y16348550D03*
X6731520Y15819950D03*
X6430760Y16158180D03*
X6355070Y16023600D03*
X6430780Y15923600D03*
Y16275890D03*
X6472300Y16483700D03*
X6355500Y16623320D03*
X6396970Y16824270D03*
X6725560Y17172460D03*
X6356500Y17023600D03*
X6396970Y17173600D03*
X6319200Y17885300D03*
X6794200Y18835300D03*
X6436740Y19679020D03*
X6434200Y19460580D03*
X6563740Y19679020D03*
X6690740D03*
X6817740D03*
X6561200Y19460580D03*
X6815200D03*
X6688200D03*
X6309740Y19679020D03*
X6307200Y19460580D03*
X6434200Y20075260D03*
X6815200D03*
X6688200D03*
X6561200D03*
X6794200Y20335300D03*
X6307200Y20075260D03*
X6294200Y20335300D03*
X7401140Y-272560D03*
X6966160Y-155720D03*
X6893140Y-272560D03*
X7020140Y235440D03*
Y362440D03*
X7147140Y108440D03*
X7020140Y489440D03*
X7147140D03*
X6893140Y108440D03*
Y235440D03*
Y362440D03*
Y489440D03*
X7401140D03*
X7403700Y238000D03*
X7279000Y240300D03*
X7401140Y362440D03*
X7274140D03*
X7020140Y616440D03*
Y743440D03*
Y870440D03*
Y997440D03*
X7147140Y616440D03*
Y743440D03*
Y870440D03*
Y997440D03*
X6893140Y616440D03*
Y743440D03*
Y870440D03*
Y997440D03*
X7401140Y616440D03*
Y743440D03*
Y870440D03*
Y997440D03*
X7110000Y1210000D03*
X7231000Y1276000D03*
X7110000Y1591000D03*
Y1464000D03*
X7231000Y1530000D03*
X7110000Y1337000D03*
X7231000Y1403000D03*
X7020140Y1124440D03*
X7147140D03*
X6893140D03*
X7360100Y1442060D03*
Y1541120D03*
X7401140Y1124440D03*
X7231000Y1784000D03*
Y1657000D03*
X7110000Y1718000D03*
X7006800Y2117580D03*
X6933780Y2000740D03*
X7060780Y2508740D03*
Y2635740D03*
Y2762740D03*
X7187780Y2381740D03*
Y2762740D03*
X6933780Y2381740D03*
Y2508740D03*
Y2635740D03*
Y2762740D03*
X7316040Y2510000D03*
X7314780Y2635740D03*
X7060780Y2889740D03*
X7187780D03*
X7060780Y3016740D03*
Y3143740D03*
Y3270740D03*
X7187780Y3016740D03*
Y3143740D03*
Y3270740D03*
X6933780Y2889740D03*
Y3016740D03*
Y3143740D03*
Y3270740D03*
X7101000Y3884000D03*
Y3757000D03*
Y3630000D03*
Y3503000D03*
X7222000Y3569000D03*
Y3696000D03*
Y3823000D03*
X7060780Y3397740D03*
X7187780D03*
X6933780D03*
X7398200Y3715360D03*
Y3814420D03*
X7101000Y4011000D03*
X7222000Y3950000D03*
Y4077000D03*
X7022040Y4411200D03*
X6946390Y4293440D03*
X6949020Y4675360D03*
Y4802360D03*
Y4929360D03*
X7076020Y4802360D03*
Y4929360D03*
X7203020Y4675360D03*
X7328660Y4801000D03*
X7330020Y4929360D03*
X6949020Y5183360D03*
Y5310360D03*
Y5437360D03*
X7076020Y5183360D03*
Y5310360D03*
Y5437360D03*
X7203020Y5183360D03*
Y5310360D03*
Y5437360D03*
X6949020Y5564360D03*
X7076020D03*
X7203020D03*
X6949020Y5056360D03*
X7076020D03*
X7203020D03*
X7209000Y6100000D03*
Y5973000D03*
Y5846000D03*
X7088000Y5780000D03*
Y5907000D03*
Y6034000D03*
Y6161000D03*
X6949020Y5691360D03*
X7076020D03*
X7203020D03*
X7414900Y6008320D03*
Y6107380D03*
X7209000Y6354000D03*
Y6227000D03*
X7088000Y6288000D03*
X6967600Y6730100D03*
X7069200Y7294800D03*
X6944200Y7160300D03*
X7056500Y6793600D03*
Y6882500D03*
X7394200Y7710300D03*
X7069200Y7441300D03*
Y7530200D03*
X7361300Y7898500D03*
Y8000100D03*
X7043800Y8152500D03*
Y8254100D03*
X7138500Y8476900D03*
X7374000Y8609700D03*
X7228500Y8476900D03*
X7269200Y9735300D03*
X6916800Y10095600D03*
X7269200Y11010300D03*
X7365090Y11721200D03*
X7412100Y11657700D03*
X7145680Y11657980D03*
X7081900Y11733900D03*
X7132700Y12295600D03*
X7119200Y11960300D03*
X7178300Y12755100D03*
X7165600Y12628100D03*
X7170800Y13257900D03*
X6894200Y13935300D03*
X7183500Y13854800D03*
X7202550Y14051650D03*
X7194200Y14260300D03*
X7319200Y17685300D03*
Y18285300D03*
X7294200Y18835300D03*
X7069200Y19460580D03*
X7071740Y19679020D03*
X7196200Y19460580D03*
X7294200Y19335300D03*
X6944740Y19679020D03*
X6942200Y19460580D03*
X7294200Y20335300D03*
Y20035300D03*
X6942200Y20075260D03*
X7763700Y-128000D03*
X7676000Y-49000D03*
X7528140Y489440D03*
X7655140D03*
X7789780Y168000D03*
X7790000Y-59000D03*
X7763680Y391840D03*
Y264840D03*
X7718640Y44940D03*
X7528140Y-18560D03*
X7763120Y745420D03*
Y618420D03*
X7761540Y964980D03*
X7528140Y616440D03*
Y743440D03*
Y870440D03*
Y997440D03*
X7655140Y616440D03*
Y743440D03*
Y870440D03*
Y997440D03*
X7528140Y1124440D03*
X7655140D03*
X7761540Y1091980D03*
X7815160Y2150600D03*
X7441780Y2000740D03*
X7717440Y2237560D03*
X7568780Y2762740D03*
X7695780D03*
X7441780D03*
X7851310Y2420410D03*
X7826580Y2250000D03*
X7454810Y2521770D03*
X7441780Y2635740D03*
X7804720Y2666780D03*
Y2539780D03*
X7759280Y2318240D03*
X7568780Y2254740D03*
X7804720Y3017300D03*
Y2890300D03*
X7568780Y2889740D03*
X7695780D03*
X7802180Y3240820D03*
X7568780Y3016740D03*
Y3143740D03*
Y3270740D03*
X7695780Y3016740D03*
Y3143740D03*
Y3270740D03*
X7441780Y2889740D03*
Y3016740D03*
Y3143740D03*
Y3270740D03*
X7568780Y3397740D03*
X7695780D03*
X7441780D03*
X7802180Y3367820D03*
X7830400Y4444220D03*
X7457020Y4294360D03*
X7774520Y4611860D03*
X7860000Y4741000D03*
X7811000Y4526000D03*
X7462000Y4807340D03*
X7457020Y4929360D03*
X7818500Y4960360D03*
Y4833360D03*
X7584020Y4548360D03*
X7818500Y5183360D03*
Y5310360D03*
X7584020Y5183360D03*
Y5310360D03*
Y5437360D03*
X7711020Y5183360D03*
Y5310360D03*
Y5437360D03*
X7818500Y5564360D03*
X7584020D03*
X7711020D03*
X7457020Y5183360D03*
Y5310360D03*
Y5437360D03*
Y5564360D03*
X7584020Y5056360D03*
X7711020D03*
X7457020D03*
X7584020Y5691360D03*
X7711020D03*
X7457020D03*
X7818500D03*
X7479200Y6644800D03*
X7767300Y7035300D03*
X7494200Y7160300D03*
X7488300Y7301600D03*
X7491900Y7025800D03*
X7755000Y7675800D03*
Y8275800D03*
X7780400Y8038200D03*
Y8139800D03*
X7767700Y8597000D03*
X7988550Y8444600D03*
X7894700D03*
X7744200Y9735300D03*
X7894200Y11610300D03*
X7819200Y12260300D03*
X7494200Y11960300D03*
X7536200Y12295600D03*
X7819200Y12960300D03*
X7501000Y12628100D03*
X7819200Y13485300D03*
X7494200Y13860300D03*
X7819200Y14235300D03*
X7694200Y18835300D03*
X7494200Y19085300D03*
X7694200Y19335300D03*
X7494200Y19585300D03*
X7694200Y20335300D03*
Y20035300D03*
Y19835300D03*
X8148700Y-282720D03*
X8025000Y-47000D03*
X8029000Y154000D03*
X8288400Y396240D03*
Y297180D03*
Y47360D03*
Y-51700D03*
X8285380Y749820D03*
Y650760D03*
X8283800Y997320D03*
X8288400Y1434200D03*
Y1548500D03*
X8283800Y1096380D03*
X8199500Y1990580D03*
X8050940Y2330940D03*
X8326980Y2671180D03*
Y2572120D03*
Y2320660D03*
Y2221600D03*
Y3021700D03*
Y2922640D03*
X8324440Y3273160D03*
X8329040Y3821800D03*
Y3707500D03*
X8324440Y3372220D03*
X8199500Y4284200D03*
X8108690Y4550050D03*
X8104500Y4704990D03*
X8340760Y4614760D03*
Y4515700D03*
Y4964760D03*
Y4865700D03*
Y5314760D03*
Y5215700D03*
Y5565700D03*
X8343200Y6114760D03*
Y6000460D03*
X8340760Y5664760D03*
X8034400Y6644800D03*
X8534400Y6654800D03*
X8293100Y6793600D03*
Y6896100D03*
X8481000Y6949100D03*
X8391200D03*
X8288400Y7428600D03*
X8287840Y7549740D03*
X8015900Y8285300D03*
X8288400D03*
X8034400Y7894800D03*
X8094200Y9885300D03*
X8369200Y10460300D03*
X8294200Y11460300D03*
X8194200Y11910300D03*
X8344200Y13485300D03*
X8094200Y13860300D03*
X8344200Y14235300D03*
X8194200Y14685300D03*
Y15285300D03*
Y16285300D03*
Y17285300D03*
Y18285300D03*
Y18985300D03*
X8019200Y20285300D03*
X8620200Y6569000D03*
X8819200Y15285300D03*
Y16285300D03*
Y17285300D03*
Y18285300D03*
Y19285300D03*
Y20285300D03*
X9478860Y2377340D03*
X9471240Y3286660D03*
X9619200Y14685300D03*
Y15285300D03*
Y16285300D03*
Y17285300D03*
Y18285300D03*
Y20285300D03*
G54D15*
X0Y0D03*
Y1000000D03*
Y2000000D03*
X568000D03*
X858000Y0D03*
X1108000Y2000000D03*
X1425000Y500000D03*
Y1500000D03*
Y2500000D03*
Y3500000D03*
X1900000Y0D03*
Y1000000D03*
Y2000000D03*
X2758000Y0D03*
X2468000Y2000000D03*
X3325000Y500000D03*
Y1500000D03*
X3008000Y2000000D03*
X3325000Y2500000D03*
Y3500000D03*
G54D24*
X7952500Y17903950D03*
X7698500D03*
X7952500Y17649950D03*
X7698500D03*
X7952500Y18157950D03*
X7698500D03*
G54D25*
G01X-968580Y2457690D02*
X-950430Y2459340D01*
X-937700Y2457930D01*
X-925450Y2451330D01*
X-920030Y2440250D01*
X-919790Y2428700D01*
X-923560Y2415500D01*
X-932280Y2404420D01*
X-941950Y2397110D01*
X-955150Y2393340D01*
X-969290Y2393350D01*
X-980370Y2398770D01*
X-986970Y2411020D01*
X-986730Y2427750D01*
X-978720Y2445200D01*
X-965750Y2460520D01*
X-945010Y2476550D01*
X-931570Y2482910D01*
X-915790Y2486920D01*
X-900460Y2485740D01*
X-890800Y2478910D01*
X-885380Y2467830D01*
X-886560Y2454860D01*
G01X2710870Y-1164700D02*
Y-1044700D01*
X2750870D01*
X2764200Y-1050700D01*
X2774200Y-1064700D01*
X2777530Y-1080700D01*
X2774200Y-1096700D01*
X2765870Y-1108700D01*
X2750870Y-1114700D01*
X2710870D01*
G01X2881870Y-1054700D02*
X2871870Y-1048700D01*
X2860200Y-1044700D01*
X2846870D01*
X2831860Y-1050700D01*
X2820200Y-1060700D01*
X2811870Y-1072700D01*
X2805200Y-1092700D01*
X2803530Y-1110700D01*
X2806870Y-1128700D01*
X2811870Y-1140700D01*
X2821870Y-1152700D01*
X2833530Y-1160700D01*
X2845200Y-1164700D01*
X2856870D01*
X2868530Y-1160700D01*
X2878530Y-1154700D01*
X2886870Y-1146700D01*
G01X2946200Y-1044700D02*
X2932860Y-1048700D01*
X2922870Y-1058700D01*
X2916200Y-1070700D01*
X2911200Y-1086700D01*
X2909530Y-1104700D01*
X2911200Y-1122700D01*
X2916200Y-1138700D01*
X2922870Y-1150700D01*
X2932860Y-1160700D01*
X2946200Y-1164700D01*
X2959530Y-1160700D01*
X2969530Y-1150700D01*
X2976200Y-1138700D01*
X2981200Y-1122700D01*
X2982870Y-1104700D01*
X2981200Y-1086700D01*
X2976200Y-1070700D01*
X2969530Y-1058700D01*
X2959530Y-1048700D01*
X2946200Y-1044700D01*
G01X3067200Y-1164700D02*
Y-1044700D01*
X3005530Y-1130700D01*
X3088870D01*
G01X3119870Y-1150700D02*
X3131530Y-1160700D01*
X3144870Y-1164700D01*
X3158200Y-1160700D01*
X3169870Y-1148700D01*
X3178200Y-1130700D01*
X3181530Y-1112700D01*
Y-1090700D01*
X3178200Y-1072700D01*
X3169870Y-1056700D01*
X3159870Y-1048700D01*
X3148200Y-1044700D01*
X3134860Y-1048700D01*
X3124870Y-1056700D01*
X3118200Y-1068700D01*
X3114870Y-1084700D01*
X3118200Y-1098700D01*
X3126530Y-1112700D01*
X3136530Y-1120700D01*
X3148200Y-1122700D01*
X3161530Y-1118700D01*
X3171530Y-1108700D01*
X3181530Y-1090700D01*
G01X3207530Y-1164700D02*
X3249200Y-1044700D01*
X3290870Y-1164700D01*
G01X3275870Y-1122700D02*
X3222530D01*
G01X3431200Y-1044700D02*
X3471200D01*
G01X3451200D02*
Y-1164700D01*
G01X3431200D02*
X3471200D01*
G01X3517200Y-1148700D02*
X3530530Y-1158700D01*
X3545530Y-1164700D01*
X3558870D01*
X3572200Y-1158700D01*
X3582200Y-1148700D01*
X3587200Y-1134700D01*
X3583870Y-1120700D01*
X3575530Y-1108700D01*
X3560530Y-1100700D01*
X3540530Y-1096700D01*
X3528870Y-1088700D01*
X3523870Y-1074700D01*
X3527200Y-1060700D01*
X3535530Y-1050700D01*
X3547200Y-1044700D01*
X3558870D01*
X3570530Y-1048700D01*
X3580530Y-1058700D01*
G01X3618200Y-1148700D02*
X3631530Y-1158700D01*
X3646530Y-1164700D01*
X3659870D01*
X3673200Y-1158700D01*
X3683200Y-1148700D01*
X3688200Y-1134700D01*
X3684870Y-1120700D01*
X3676530Y-1108700D01*
X3661530Y-1100700D01*
X3641530Y-1096700D01*
X3629870Y-1088700D01*
X3624870Y-1074700D01*
X3628200Y-1060700D01*
X3636530Y-1050700D01*
X3648200Y-1044700D01*
X3659870D01*
X3671530Y-1048700D01*
X3681530Y-1058700D01*
G01X3717530Y-1044700D02*
Y-1130700D01*
X3724200Y-1148700D01*
X3737530Y-1160700D01*
X3754200Y-1164700D01*
X3770870Y-1160700D01*
X3784200Y-1148700D01*
X3790870Y-1130700D01*
Y-1044700D01*
G01X3888530Y-1164700D02*
X3821870D01*
Y-1044700D01*
X3888530D01*
G01X3861870Y-1102700D02*
X3821870D01*
G01X4057200Y-1164700D02*
Y-1044700D01*
X4037200Y-1068700D01*
G01Y-1164700D02*
X4077200D01*
G01X4510870Y-1044700D02*
Y-1164700D01*
X4577530D01*
G01X4603530D02*
X4645200Y-1044700D01*
X4686870Y-1164700D01*
G01X4671870Y-1122700D02*
X4618530D01*
G01X4746200Y-1164700D02*
Y-1110700D01*
X4712870Y-1044700D01*
G01X4779530D02*
X4746200Y-1110700D01*
G01X4880530Y-1164700D02*
X4813870D01*
Y-1044700D01*
X4880530D01*
G01X4853870Y-1102700D02*
X4813870D01*
G01X4914870Y-1164700D02*
Y-1044700D01*
X4956530D01*
X4969870Y-1050700D01*
X4978200Y-1058700D01*
X4981530Y-1074700D01*
X4978200Y-1090700D01*
X4968200Y-1100700D01*
X4956530Y-1106700D01*
X4914870D01*
G01X4956530D02*
X4981530Y-1164700D01*
G01X5118530Y-1114700D02*
X5130200Y-1100700D01*
X5140200Y-1092700D01*
X5153530Y-1088700D01*
X5165200Y-1092700D01*
X5173530Y-1100700D01*
X5180200Y-1112700D01*
X5181870Y-1126700D01*
X5180200Y-1138700D01*
X5173530Y-1150700D01*
X5163530Y-1160700D01*
X5151870Y-1164700D01*
X5138530Y-1160700D01*
X5126870Y-1148700D01*
X5120200Y-1130700D01*
X5118530Y-1110700D01*
X5121870Y-1084700D01*
X5126870Y-1070700D01*
X5135200Y-1056700D01*
X5146870Y-1046700D01*
X5158530Y-1044700D01*
X5170200Y-1048700D01*
X5178530Y-1058700D01*
G01X5343870Y-1204700D02*
X5327200Y-1184700D01*
X5318870Y-1164700D01*
Y-1084700D01*
X5327200Y-1064700D01*
X5343870Y-1044700D01*
G01X5418200Y-1148700D02*
X5431530Y-1158700D01*
X5446530Y-1164700D01*
X5459870D01*
X5473200Y-1158700D01*
X5483200Y-1148700D01*
X5488200Y-1134700D01*
X5484870Y-1120700D01*
X5476530Y-1108700D01*
X5461530Y-1100700D01*
X5441530Y-1096700D01*
X5429870Y-1088700D01*
X5424870Y-1074700D01*
X5428200Y-1060700D01*
X5436530Y-1050700D01*
X5448200Y-1044700D01*
X5459870D01*
X5471530Y-1048700D01*
X5481530Y-1058700D01*
G01X5534200Y-1044700D02*
X5574200D01*
G01X5554200D02*
Y-1164700D01*
G01X5534200D02*
X5574200D01*
G01X5665200Y-1104700D02*
X5698530D01*
Y-1140700D01*
X5688530Y-1152700D01*
X5676870Y-1160700D01*
X5660200Y-1164700D01*
X5643530Y-1160700D01*
X5631870Y-1152700D01*
X5621870Y-1140700D01*
X5615200Y-1126700D01*
X5611870Y-1110700D01*
Y-1096700D01*
X5615200Y-1084700D01*
X5621870Y-1070700D01*
X5631870Y-1058700D01*
X5641860Y-1050700D01*
X5655200Y-1044700D01*
X5666870D01*
X5680200Y-1048700D01*
X5690200Y-1056700D01*
G01X5717870Y-1164700D02*
Y-1044700D01*
X5794530Y-1164700D01*
Y-1044700D01*
G01X5815530Y-1164700D02*
X5857200Y-1044700D01*
X5898870Y-1164700D01*
G01X5883870Y-1122700D02*
X5830530D01*
G01X5924870Y-1044700D02*
Y-1164700D01*
X5991530D01*
G01X6067530Y-1204700D02*
X6084200Y-1184700D01*
X6092530Y-1164700D01*
Y-1084700D01*
X6084200Y-1064700D01*
X6067530Y-1044700D01*
G54D16*
X0Y2750000D03*
Y2280000D03*
Y3250000D03*
X233000Y3710000D03*
X1193000D03*
X713000D03*
X1425000Y2750000D03*
Y2280000D03*
Y3250000D03*
X1900000Y2750000D03*
Y2280000D03*
Y3250000D03*
X2133000Y3710000D03*
X2613000D03*
X3325000Y2750000D03*
Y2280000D03*
Y3250000D03*
X3093000Y3710000D03*
G54D26*
G01X4744200Y9085300D02*
Y9043920D01*
G02X4714910Y8973210I-100000J1D01*
G01X4672790Y8931090D01*
G02X4602080Y8901800I-70711J70710D01*
G01X3995800D01*
G02X3903000Y8994600I0J92800D01*
G01Y10013140D01*
G03X3878590Y10037550I-24410J0D01*
G01X3681250D01*
G02X3610540Y10066840I1J100000D01*
G01X3421240Y10256140D01*
G02X3391950Y10326850I70710J70711D01*
G01Y10805090D01*
G03X3363990Y10833050I-27960J0D01*
G01X3309150D01*
G02X3291950Y10850250I0J17200D01*
G01Y11382870D01*
G03X3262660Y11453580I-100000J-1D01*
G01X3212290Y11503950D01*
G02X3183000Y11574660I70710J70711D01*
G01Y12073480D01*
G03X3153710Y12144190I-100000J-1D01*
G01X3059890Y12238010D01*
G02X3030600Y12308720I70710J70711D01*
G01Y13770630D01*
G02X3059890Y13841340I100000J-1D01*
G01X3281100Y14062550D01*
G54D17*
X0Y3000000D03*
X1900000D03*
G54D27*
G01X2744200Y9585300D02*
X2695140D01*
X2622140Y9512300D01*
X486180D01*
X12840Y9038960D01*
X-693040D01*
X-769150Y8962850D01*
Y8749650D01*
X-657500Y8638000D01*
G01X3044200Y9585300D02*
X2991670Y9534350D01*
X2680130D01*
X2632680Y9486900D01*
X2632670D01*
X2632660Y9486890D01*
X2611620D01*
X2611610Y9486900D01*
X2406010D01*
X2400710Y9481600D01*
X498900D01*
X25550Y9008250D01*
X130D01*
X120Y9008260D01*
X-541240D01*
X-657500Y8892000D01*
G01X3244200Y9685300D02*
X3194200Y9735300D01*
X2613630D01*
X2493080Y9614750D01*
X2387980D01*
X2386460Y9613230D01*
X223670D01*
X35250Y9801650D01*
X-679650D01*
X-766700Y9714600D01*
Y9509200D01*
X-657500Y9400000D01*
G01Y9654000D02*
X-540550Y9770950D01*
X22530D01*
X210950Y9582530D01*
X2599600D01*
X2652520Y9635450D01*
X3062120D01*
X3062230Y9635560D01*
X3193960D01*
X3209500Y9620020D01*
Y9620000D01*
X3244200Y9585300D01*
G01X2744200Y10885300D02*
X2735400Y10895700D01*
X2390300D01*
X2376700Y10909300D01*
X1774760D01*
X1145710Y11538350D01*
X-458850D01*
X-606500Y11686000D01*
X-657500D01*
G01X3144200Y11085300D02*
X3096450Y11133050D01*
X2734290D01*
X2686940Y11180400D01*
X1836820D01*
X681120Y12336100D01*
X-761730D01*
X-794550Y12368920D01*
Y12546950D01*
X-781850Y12559650D01*
X-769150D01*
X-657500Y12448000D01*
G01X3144200Y10985300D02*
X3096450Y11033050D01*
X2798360D01*
X2676410Y11155000D01*
X2406010D01*
X2400710Y11149700D01*
X1824100D01*
X668400Y12305400D01*
X-774450D01*
X-825250Y12356200D01*
Y12559670D01*
X-794570Y12590350D01*
X-769150D01*
X-657500Y12702000D01*
G01X3044200Y10885300D02*
X2994200Y10935300D01*
X2394130D01*
X2389430Y10940000D01*
X1779990D01*
X1156240Y11563750D01*
X-448320D01*
X-551150Y11666580D01*
Y11833650D01*
X-657500Y11940000D01*
G01X2744200Y11185300D02*
X2703840Y11226800D01*
X1888200D01*
X594200Y12520800D01*
Y12885300D01*
X148850Y13330650D01*
X-536850D01*
X-657500Y13210000D01*
G01X2944200Y11185300D02*
X2877990Y11252200D01*
X1898730D01*
X619600Y12531330D01*
Y12895830D01*
X159380Y13356050D01*
X-549550D01*
X-657500Y13464000D01*
G01X-149500Y7114000D02*
X-271400Y7235900D01*
Y7415900D01*
X-182500Y7504800D01*
X427100D01*
X2014600Y9092300D01*
X2390500D01*
X2390550Y9092250D01*
X2426920D01*
X2597620Y9262950D01*
X2705950D01*
X2728300Y9285300D01*
X2744200D01*
G01X-149500Y7368000D02*
X-50800Y7466700D01*
X432420D01*
X2027320Y9061600D01*
X2389250D01*
X2394500Y9066850D01*
X2437450D01*
X2608150Y9237550D01*
X2761830D01*
X2809580Y9285300D01*
X2944200D01*
G01X2744200Y9485300D02*
X2659250Y9400350D01*
Y9351910D01*
X2628240Y9320900D01*
X2388860D01*
X2344260Y9276300D01*
X1766800D01*
X998600Y8508100D01*
X541400D01*
X305380Y8272080D01*
X-202630D01*
X-220600Y8254110D01*
Y8254100D01*
X-271400Y8203300D01*
Y7997900D01*
X-149500Y7876000D01*
G01X3044200Y9485300D02*
Y9400540D01*
X2979800Y9336140D01*
X2727510D01*
X2686870Y9295500D01*
X2399400D01*
X2349500Y9245600D01*
X1779520D01*
X1011320Y8477400D01*
X554120D01*
X318100Y8241380D01*
X-38120D01*
X-149500Y8130000D01*
G01Y10162000D02*
X-37850Y10273650D01*
X351150D01*
X414400Y10336900D01*
X922380D01*
X1214480Y10044800D01*
X1595500D01*
X1653750Y10103050D01*
X2300040D01*
X2419090Y10222100D01*
Y10229590D01*
X2457700Y10268200D01*
X2680200D01*
X2715350Y10233050D01*
X2985660D01*
X3064110Y10311500D01*
X3181580D01*
X3207830Y10337750D01*
X3209250D01*
X3209300Y10337800D01*
X3264240D01*
X3291950Y10365510D01*
Y10599710D01*
X3225650Y10666010D01*
Y10734680D01*
X3276270Y10785300D01*
X3344200D01*
G01X-149500Y10416000D02*
X-37850Y10304350D01*
X338430D01*
X401680Y10367600D01*
X935100D01*
X1227200Y10075500D01*
X1582780D01*
X1641030Y10133750D01*
X2287320D01*
X2447170Y10293600D01*
X2669800D01*
X2710050Y10333850D01*
X3050530D01*
X3053580Y10336900D01*
X3171050D01*
X3200250Y10366100D01*
Y10403510D01*
X3238500Y10441760D01*
Y10492910D01*
X3200250Y10531150D01*
Y10729250D01*
X3144200Y10785300D01*
G01X-149500Y10924000D02*
X-45000Y10819500D01*
X236600D01*
X401700Y10984600D01*
X1481200D01*
X1675990Y10789810D01*
Y10789800D01*
X1702950Y10762840D01*
X2461030D01*
X2501090Y10802900D01*
X2665750D01*
X2700400Y10837550D01*
X3067880D01*
X3091950Y10861620D01*
Y10937550D01*
X3044200Y10985300D01*
G01X-149500Y11178000D02*
X-255850Y11071650D01*
Y10879940D01*
X-164710Y10788800D01*
X249320D01*
X414420Y10953900D01*
X1468480D01*
X1645290Y10777090D01*
Y10777080D01*
X1690230Y10732140D01*
X2400710D01*
X2406010Y10737440D01*
X2471560D01*
X2511620Y10777500D01*
X2676280D01*
X2676400Y10777620D01*
X2676620Y10777630D01*
X2716700Y10737550D01*
X3063990D01*
X3091950Y10765510D01*
Y10819890D01*
X3144200Y10872140D01*
Y10885300D01*
G01X2744200Y10985300D02*
X1841950D01*
X1033300Y11793950D01*
X-41550D01*
X-149500Y11686000D01*
G01X2944200Y10985300D02*
X2814000D01*
X2764000Y11035300D01*
X2721630D01*
X2697030Y11010700D01*
X1852480D01*
X1038530Y11824650D01*
X499230D01*
X498540Y11825340D01*
X-34840D01*
X-149500Y11940000D01*
G01X312800Y5724500D02*
X449180D01*
G02X519890Y5695210I-1J-100000D01*
G01X687610Y5527490D01*
G03X758320Y5498200I70711J70710D01*
G01X2989180D01*
G03X3059890Y5527490I-1J100000D01*
G01X3538600Y6006200D01*
G01X312800Y5804500D02*
X447680D01*
G02X518390Y5775210I-1J-100000D01*
G01X715310Y5578290D01*
G03X786020Y5549000I70711J70710D01*
G01X2963780D01*
G03X3034490Y5578290I-1J100000D01*
G01X3386200Y5930000D01*
G01X312800Y5884500D02*
X449180D01*
G02X519890Y5855210I-1J-100000D01*
G01X746010Y5629090D01*
G03X816720Y5599800I70711J70710D01*
G01X2900280D01*
G03X2970990Y5629090I-1J100000D01*
G01X3318810Y5976910D01*
G02X3389520Y6006200I70711J-70710D01*
G01X3437000D01*
G01X312800Y5964500D02*
X317240D01*
X320840Y5968100D01*
X342640D01*
X346240Y5964500D01*
X452780D01*
G02X523490Y5935210I-1J-100000D01*
G01X778810Y5679890D01*
G03X849520Y5650600I70711J70710D01*
G01X2860430D01*
G03X2931140Y5679890I-1J100000D01*
G01X3257450Y6006200D01*
G01X717800Y9878300D02*
X784100D01*
X928050Y9734350D01*
X2382680D01*
X2387980Y9739650D01*
X2499930D01*
X2565690Y9805410D01*
Y9953530D01*
X2651760Y10039600D01*
X2882190D01*
X2914140Y10007650D01*
X3021850D01*
X3044200Y9985300D01*
G01X3144200D02*
X3096450Y10033050D01*
X2924670D01*
X2892720Y10065000D01*
X2641230D01*
X2540290Y9964060D01*
Y9815940D01*
X2489400Y9765050D01*
X940770D01*
X796820Y9909000D01*
Y9916380D01*
X780080Y9933120D01*
G01X2090800Y5282300D02*
X1443100D01*
G01X4644200Y9085300D02*
X4598190Y9039290D01*
G02X4527480Y9010000I-70711J70710D01*
G01X4126010D01*
G02X4027050Y9108960I0J98960D01*
G01Y9110510D01*
G03X4001310Y9136250I-25740J0D01*
G01X3999760D01*
G02X3932300Y9203710I0J67460D01*
G01Y10095600D01*
G03X3895560Y10132340I-36740J0D01*
G01X3649960D01*
G02X3579250Y10161630I1J100000D01*
G01X3524140Y10216740D01*
G02X3494850Y10287450I70710J70711D01*
G01Y10802190D01*
G03X3463990Y10833050I-30860J0D01*
G01X3423450D01*
G02X3396450Y10860050I0J27000D01*
G01Y11387770D01*
G02X3425740Y11458480I100000J-1D01*
G01X3464710Y11497450D01*
G03X3494000Y11568160I-70710J70711D01*
G01Y12435580D01*
G03X3464710Y12506290I-100000J-1D01*
G01X3428190Y12542810D01*
G02X3398900Y12613520I70710J70711D01*
G01Y13406980D01*
G03X3369610Y13477690I-100000J-1D01*
G01X3355290Y13492010D01*
G02X3326000Y13562720I70710J70711D01*
G01Y13911570D01*
G02X3355290Y13982280I100000J-1D01*
G01X3369610Y13996600D01*
G03X3398900Y14067310I-70710J70711D01*
G01Y14070680D01*
G03X3369610Y14141390I-100000J-1D01*
G01X3210290Y14300710D01*
G03X3139580Y14330000I-70711J-70710D01*
G01X1335420D01*
G02X1264710Y14359290I1J100000D01*
G01X1180290Y14443710D01*
G02X1151000Y14514420I70710J70711D01*
G01Y17555230D01*
G02X1180290Y17625940I100000J-1D01*
G01X1604700Y18050350D01*
G01X4944200Y9285300D02*
X4869390Y9210490D01*
G02X4798680Y9181200I-70711J70710D01*
G01X4160900D01*
G02X4096450Y9245650I0J64450D01*
G01Y9705090D01*
X4097400Y9706040D01*
Y9764560D01*
X4096450Y9765510D01*
Y10163670D01*
G03X4067160Y10234380I-100000J-1D01*
G01X3879910Y10421630D01*
G03X3841470Y10437550I-38437J-38440D01*
G01X3818950D01*
G02X3792600Y10463900I0J26350D01*
G01Y10673940D01*
G03X3763310Y10744650I-100000J-1D01*
G01X3721240Y10786720D01*
G02X3691950Y10857430I70710J70711D01*
G01Y11451180D01*
G02X3721240Y11521890I100000J-1D01*
G01X3737910Y11538560D01*
G03X3767200Y11609270I-70710J70711D01*
G01Y12505690D01*
X3776950Y12515440D01*
Y13373580D01*
G03X3747660Y13444290I-100000J-1D01*
G01X3707390Y13484560D01*
G02X3692750Y13519910I35360J35351D01*
G01Y13573830D01*
G02X3722040Y13644540I100000J-1D01*
G01X3725210Y13647710D01*
G03X3754500Y13718420I-70710J70711D01*
G01Y13749880D01*
G03X3725210Y13820590I-100000J-1D01*
G01X3565290Y13980510D01*
G02X3536000Y14051220I70710J70711D01*
G01Y14216580D01*
G03X3506710Y14287290I-100000J-1D01*
G01X3306130Y14487870D01*
G03X3270780Y14502510I-35351J-35360D01*
G01X1740510D01*
X1717000Y14479000D01*
X1391000D01*
G02X1316100Y14553900I0J74900D01*
G01Y16328140D01*
G03X1295060Y16378940I-71840J3D01*
G02X1274000Y16429780I50830J50838D01*
G01Y16786430D01*
G02X1295040Y16837230I71840J3D01*
G03X1316100Y16888070I-50830J50838D01*
G01Y16907350D01*
G01X4544200Y9085300D02*
X4525140Y9066240D01*
G02X4454430Y9036950I-70711J70710D01*
G01X4202470D01*
G02X4131760Y9066240I1J100000D01*
G01X3986990Y9211010D01*
G02X3957700Y9281720I70710J70711D01*
G01Y10130380D01*
G03X3928410Y10201090I-100000J-1D01*
G01X3923490Y10206010D01*
G03X3852780Y10235300I-70711J-70710D01*
G01X3614800D01*
G02X3591950Y10258150I0J22850D01*
G01Y10712030D01*
G03X3562660Y10782740I-100000J-1D01*
G01X3521240Y10824160D01*
G02X3491950Y10894870I70710J70711D01*
G01Y11298670D01*
G02X3515270Y11354970I79620J0D01*
G03X3538600Y11411290I-56310J56318D01*
G01Y12524810D01*
G03X3509310Y12595520I-100000J-1D01*
G01X3451450Y12653380D01*
Y13406980D01*
G03X3422160Y13477690I-100000J-1D01*
G01X3402790Y13497060D01*
G02X3373500Y13567770I70710J70711D01*
G01Y13864180D01*
G02X3402790Y13934890I100000J-1D01*
G01X3420710Y13952810D01*
G03X3450000Y14023520I-70710J70711D01*
G01Y14116580D01*
G03X3420710Y14187290I-100000J-1D01*
G01X3261790Y14346210D01*
G03X3191080Y14375500I-70711J-70710D01*
G01X1380920D01*
G02X1310210Y14404790I1J100000D01*
G01X1218390Y14496610D01*
G02X1189100Y14567320I70710J70711D01*
G01Y16958330D01*
G02X1218390Y17029040I100000J-1D01*
G01X1604700Y17415350D01*
G01X4845000Y9082900D02*
X4821190Y9106710D01*
G03X4750480Y9136000I-70711J-70710D01*
G01X4158620D01*
G02X4087910Y9165290I1J100000D01*
G01X4021240Y9231960D01*
G02X3991950Y9302670I70710J70711D01*
G01Y10146930D01*
G03X3962660Y10217640I-100000J-1D01*
G01X3885390Y10294910D01*
G03X3814680Y10324200I-70711J-70710D01*
G01X3716400D01*
G02X3691950Y10348650I0J24450D01*
G01Y10688230D01*
G03X3662660Y10758940I-100000J-1D01*
G01X3621240Y10800360D01*
G02X3591950Y10871070I70710J70711D01*
G01Y11289400D01*
X3592450Y11289900D01*
Y12343230D01*
G02X3621740Y12413940I100000J-1D01*
G01X3722260Y12514460D01*
G03X3751550Y12585170I-70710J70711D01*
G01Y13346430D01*
G03X3722260Y13417140I-100000J-1D01*
G01X3685520Y13453880D01*
G02X3656230Y13524590I70710J70711D01*
G01Y13622700D01*
G03X3629170Y13688030I-92390J1D01*
G02X3602100Y13753380I65340J65347D01*
G01Y13851480D01*
G03X3572810Y13922190I-100000J-1D01*
G01X3515290Y13979710D01*
G02X3486000Y14050420I70710J70711D01*
G01Y14191580D01*
G03X3456710Y14262290I-100000J-1D01*
G01X3313290Y14405710D01*
G03X3242580Y14435000I-70711J-70710D01*
G01X1399620D01*
G02X1328910Y14464290I1J100000D01*
G01X1267290Y14525910D01*
G02X1238000Y14596620I70710J70711D01*
G01Y16961080D01*
G02X1267290Y17031790I100000J-1D01*
G01X1324910Y17089410D01*
G02X1395620Y17118700I70711J-70710D01*
G01X1453530D01*
G02X1524240Y17089410I-1J-100000D01*
G01X1604700Y17008950D01*
G01X1379600Y16496400D02*
X1407710Y16468290D01*
G02X1437000Y16397580I-70710J-70711D01*
G01Y14961000D01*
G03X1518000Y14880000I81000J0D01*
G01X1623580D01*
G02X1694290Y14850710I-1J-100000D01*
G01X1839710Y14705290D01*
G03X1910420Y14676000I70711J70710D01*
G01X3163350D01*
G02X3217360Y14653630I2J-76380D01*
G03X3271390Y14631250I54026J54020D01*
G01X3468330D01*
G02X3539040Y14601960I-1J-100000D01*
G01X4150710Y13990290D01*
G02X4180000Y13919580I-70710J-70711D01*
G01Y13569430D01*
G02X4150710Y13498720I-100000J1D01*
G01X4074140Y13422150D01*
G03X4044850Y13351440I70710J-70711D01*
G01Y13342500D01*
G02X4015560Y13271790I-100000J1D01*
G01X4012290Y13268520D01*
G03X3983000Y13197810I70710J-70711D01*
G01Y12676920D01*
G02X3953710Y12606210I-100000J1D01*
G01X3923490Y12575990D01*
G03X3894200Y12505280I70710J-70711D01*
G01Y10873620D01*
G03X3923490Y10802910I100000J1D01*
G01X3966510Y10759890D01*
G02X3995800Y10689180I-70710J-70711D01*
G01Y10466160D01*
G03X4024410Y10437550I28610J0D01*
G01X4172000D01*
G02X4196450Y10413100I0J-24450D01*
G01Y10314270D01*
G03X4225740Y10243560I100000J1D01*
G01X4262660Y10206640D01*
G02X4291950Y10135930I-70710J-70711D01*
G01Y9253350D01*
G03X4313300Y9232000I21350J0D01*
G01X4549480D01*
G03X4620190Y9261290I-1J100000D01*
G01X4644200Y9285300D01*
G01X4844200D02*
X4794790Y9235890D01*
G02X4724080Y9206600I-70711J70710D01*
G01X4237100D01*
G02X4196450Y9247250I0J40650D01*
G01Y10212450D01*
G03X4173600Y10235300I-22850J0D01*
G01X4151520D01*
G02X4080810Y10264590I1J100000D01*
G01X3923490Y10421910D01*
G02X3894200Y10492620I70710J70711D01*
G01Y10612980D01*
G03X3864910Y10683690I-100000J-1D01*
G01X3825740Y10722860D01*
G02X3796450Y10793570I70710J70711D01*
G01Y11464170D01*
G02X3820150Y11521380I80900J0D01*
G03X3843850Y11578590I-57200J57210D01*
G01Y12659840D01*
X3863000Y12678990D01*
Y13217130D01*
X3843850Y13236280D01*
Y13266370D01*
G02X3865120Y13317720I72610J4D01*
G01X3877610Y13330210D01*
G03X3906900Y13400920I-70710J70711D01*
G01Y13432380D01*
G03X3877610Y13503090I-100000J-1D01*
G01X3834590Y13546110D01*
G02X3805300Y13616820I70710J70711D01*
G01Y14174280D01*
G03X3776010Y14244990I-100000J-1D01*
G01X3471290Y14549710D01*
G03X3400580Y14579000I-70711J-70710D01*
G01X3191060D01*
X3166060Y14604000D01*
X1855120D01*
G02X1784410Y14633290I1J100000D01*
G01X1781990Y14635710D01*
G03X1711280Y14665000I-70711J-70710D01*
G01X1556420D01*
G02X1485710Y14694290I1J100000D01*
G01X1421590Y14758410D01*
G02X1392300Y14829120I70710J70711D01*
G01Y16378000D01*
G03X1379600Y16390700I-12700J0D01*
G01X1379590D01*
G02X1324000Y16446290I0J55590D01*
G01Y16765590D01*
G02X1353290Y16836300I100000J-1D01*
G01X1363010Y16846020D01*
G03X1392300Y16916730I-70710J70711D01*
G01Y17055200D01*
G01X1951100Y4952100D02*
X2722480D01*
G03X2793190Y4981390I-1J100000D01*
G01X2852800Y5041000D01*
G01X1887600Y5104500D02*
X2052700D01*
G01X1874900Y5004650D02*
X2648030D01*
G03X2718740Y5033940I-1J100000D01*
G01X2789300Y5104500D01*
G01X2268600Y5282300D02*
X2234390Y5248090D01*
G02X2163680Y5218800I-70711J70710D01*
G01X1874900D01*
G01X2725800Y5155300D02*
X2653490Y5082990D01*
G02X2582780Y5053700I-70711J70710D01*
G01X1827420D01*
G02X1756710Y5082990I1J100000D01*
G01X1747900Y5091800D01*
G01X2509900Y5155300D02*
X1811400D01*
G01X2012300Y5724500D02*
X2834480D01*
G03X2905190Y5753790I-1J100000D01*
G01X3229910Y6078510D01*
G02X3300620Y6107800I70711J-70710D01*
G01X3538610D01*
G01X2013100Y5804500D02*
X2825580D01*
G03X2896290Y5833790I-1J100000D01*
G01X3217210Y6154710D01*
G02X3287920Y6184000I70711J-70710D01*
G01X3589400D01*
G01X2009300Y5884500D02*
X2816680D01*
G03X2887390Y5913790I-1J100000D01*
G01X3204510Y6230910D01*
G02X3275220Y6260200I70711J-70710D01*
G01X3437000D01*
G01X3141300D02*
X2874890Y5993790D01*
G02X2804180Y5964500I-70711J70710D01*
G01X2011000D01*
G01X2484500Y10019400D02*
X2569510Y10104410D01*
G02X2640220Y10133700I70711J-70710D01*
G01X3170300D01*
G02X3195700Y10108300I0J-25400D01*
G01Y10075220D01*
G03X3224990Y10004510I100000J1D01*
G01X3244200Y9985300D01*
G01X3257030Y14477100D02*
X3258130Y14476000D01*
G01X3884700Y5984000D02*
Y6177480D01*
G03X3855410Y6248190I-100000J-1D01*
G01X3726290Y6377310D01*
G02X3697000Y6448020I70710J70711D01*
G01Y7762180D01*
G03X3667710Y7832890I-100000J-1D01*
G01X3521240Y7979360D01*
G02X3491950Y8050070I70710J70711D01*
G01Y9491630D01*
G02X3521240Y9562340I100000J-1D01*
G01X3544200Y9585300D01*
G01Y9685300D02*
Y9683600D01*
X3568080Y9659720D01*
G02X3591950Y9602090I-57630J-57628D01*
G01Y9143870D01*
G03X3621240Y9073160I100000J1D01*
G01X3712510Y8981890D01*
G02X3741800Y8911180I-70710J-70711D01*
G01Y8625720D01*
G03X3771090Y8555010I100000J1D01*
G01X4169710Y8156390D01*
G02X4199000Y8085680I-70710J-70711D01*
G01Y6574720D01*
G03X4228290Y6504010I100000J1D01*
G01X4748300Y5984000D01*
G01X3844200Y9385300D02*
X3809500Y9350600D01*
Y9350500D01*
X3796000Y9337000D01*
Y9223000D01*
X3769550Y9196550D01*
Y8712270D01*
G03X3798840Y8641560I100000J1D01*
G01X4449110Y7991290D01*
G02X4478400Y7920580I-70710J-70711D01*
G01Y7724020D01*
G03X4507690Y7653310I100000J1D01*
G01X5134910Y7026090D01*
G02X5164200Y6955380I-70710J-70711D01*
G01Y6722600D01*
G01X4644200Y9385300D02*
X4621790Y9362890D01*
G02X4551080Y9333600I-70711J70710D01*
G01X4414900D01*
G02X4391950Y9356550I0J22950D01*
G01Y10178730D01*
G03X4362660Y10249440I-100000J-1D01*
G01X4325740Y10286360D01*
G02X4296450Y10357070I70710J70711D01*
G01Y10464730D01*
G03X4267160Y10535440I-100000J-1D01*
G01X4050490Y10752110D01*
G02X4021200Y10822820I70710J70711D01*
G01Y10956000D01*
G03X3992000Y11026500I-99700J3D01*
G02X3962780Y11097040I70530J70538D01*
G01Y12475090D01*
G02X3992070Y12545800I100000J-1D01*
G01X4068710Y12622440D01*
G03X4098000Y12693150I-70710J70711D01*
G01Y13070570D01*
G02X4127290Y13141280I100000J-1D01*
G01X4233690Y13247680D01*
G03X4262980Y13318390I-70710J70711D01*
G01Y14089600D01*
G03X4233690Y14160310I-100000J-1D01*
G01X4063190Y14330810D01*
G02X4033900Y14401520I70710J70711D01*
G01Y17204280D01*
G03X4004610Y17274990I-100000J-1D01*
G01X3729100Y17550500D01*
G01X3543400Y11287700D02*
Y11345000D01*
X3564000Y11365600D01*
Y12672160D01*
G03X3544950Y12718150I-65030J4D01*
G02X3525900Y12764140I45980J45986D01*
G01Y13152980D01*
G02X3555190Y13223690I100000J-1D01*
G01X3636310Y13304810D01*
G03X3665600Y13375520I-70710J70711D01*
G01Y13381580D01*
G03X3636310Y13452290I-100000J-1D01*
G01X3631390Y13457210D01*
G02X3602100Y13527920I70710J70711D01*
G01Y13626200D01*
G01X4097400Y16902800D02*
Y14468020D01*
G03X4126690Y14397310I100000J1D01*
G01X4317710Y14206290D01*
G02X4347000Y14135580I-70710J-70711D01*
G01Y13303420D01*
G02X4317710Y13232710I-100000J1D01*
G01X4210290Y13125290D01*
G03X4181000Y13054580I70710J-70711D01*
G01Y12689500D01*
G02X4151710Y12618790I-100000J1D01*
G01X4025090Y12492170D01*
G03X3995800Y12421460I70710J-70711D01*
G01Y11102220D01*
G03X4025090Y11031510I100000J1D01*
G01X4030010Y11026590D01*
G02X4059300Y10955880I-70710J-70711D01*
G01Y10856120D01*
G03X4088590Y10785410I100000J1D01*
G01X4362660Y10511340D01*
G02X4391950Y10440630I-70710J-70711D01*
G01Y10320840D01*
G03X4421240Y10250130I100000J1D01*
G01X4462660Y10208710D01*
G02X4491950Y10138000I-70710J-70711D01*
G01Y9470020D01*
G03X4528920Y9433050I36970J0D01*
G01X4650530D01*
G03X4721240Y9462340I-1J100000D01*
G01X4744200Y9485300D01*
G01Y9385300D02*
X4769600Y9410700D01*
G03X4795900Y9474200I-63500J63496D01*
G01Y9511400D01*
X4770500Y9536800D01*
X4618100D01*
G02X4592700Y9562200I0J25400D01*
G01Y10099900D01*
G03X4563410Y10170610I-100000J-1D01*
G01X4521240Y10212780D01*
G02X4491950Y10283490I70710J70711D01*
G01Y10489630D01*
G03X4462660Y10560340I-100000J-1D01*
G01X4404290Y10618710D01*
G03X4333580Y10648000I-70711J-70710D01*
G01X4333410D01*
G02X4262700Y10677290I1J100000D01*
G01X4125740Y10814250D01*
G02X4096450Y10884960I70710J70711D01*
G01Y12420150D01*
G02X4125740Y12490860I100000J-1D01*
G01X4447710Y12812830D01*
G03X4477000Y12883540I-70710J70711D01*
G01Y13345840D01*
X4448450Y13374390D01*
Y14062550D01*
G01X4224400Y14743800D02*
X4499910Y14468290D01*
G02X4529200Y14397580I-70710J-70711D01*
G01Y12810010D01*
G02X4499910Y12739300I-100000J1D01*
G01X4223640Y12463030D01*
G03X4194350Y12392320I70710J-70711D01*
G01Y10828650D01*
G03X4255000Y10768000I60650J0D01*
G01X4308580D01*
G02X4379290Y10738710I-1J-100000D01*
G01X4562660Y10555340D01*
G02X4591950Y10484630I-70710J-70711D01*
G01Y10277470D01*
G03X4621240Y10206760I100000J1D01*
G01X4665010Y10162990D01*
G02X4694300Y10092280I-70710J-70711D01*
G01Y9663800D01*
G03X4720550Y9637550I26250J0D01*
G01X4771350D01*
G02X4791950Y9616950I0J-20600D01*
G01Y9566150D01*
G03X4821300Y9536800I29350J0D01*
G01X4859400D01*
G02X4891950Y9504250I0J-32550D01*
G01Y9474470D01*
G02X4862660Y9403760I-100000J1D01*
G01X4844200Y9385300D01*
G01X4344200Y11185300D02*
X4366560Y11207660D01*
G03X4395850Y11278370I-70710J70711D01*
G01Y11874090D01*
G02X4425140Y11944800I100000J-1D01*
G01X5322870Y12842530D01*
G03X5352160Y12913240I-70710J70711D01*
G01Y13532120D01*
G03X5322870Y13602830I-100000J-1D01*
G01X5299500Y13626200D01*
G01X4444310Y11597010D02*
X4444200Y11463300D01*
X4468080Y11439420D01*
G02X4491950Y11381790I-57630J-57628D01*
G01Y10872870D01*
G02X4462660Y10802160I-100000J1D01*
G01X4446600Y10786100D01*
G01X4287900Y11479900D02*
X4266390Y11501410D01*
G02X4237100Y11572120I70710J70711D01*
G01Y11880440D01*
G02X4266390Y11951150I100000J-1D01*
G01X5264450Y12949210D01*
G03X5293740Y13019920I-70710J70711D01*
G01Y13445060D01*
G03X5271620Y13498460I-75510J3D01*
G02X5249500Y13551860I53390J53397D01*
G01Y13702400D01*
G01X4844200Y9585300D02*
X4859400D01*
X4911650Y9533050D01*
X5455610D01*
X5464230Y9525000D01*
X5486750Y9503960D01*
X5504330Y9487540D01*
Y9481290D01*
X5531300Y9454320D01*
X5535100D01*
X5536940Y9452480D01*
Y9452490D01*
X6052120Y8937310D01*
X7739570D01*
X8402700Y8274180D01*
Y7708000D01*
X8631300Y7479400D01*
X8803880D01*
X8824110Y7459170D01*
Y7417610D01*
X8774500Y7368000D01*
G01X4844200Y9685300D02*
X4893250Y9734350D01*
X5250560D01*
X5271460Y9713450D01*
X5514860D01*
X5661030Y9567280D01*
X6025770D01*
X6043800Y9549250D01*
X6051270D01*
X6051280Y9549260D01*
X6053440D01*
X6454300Y9148400D01*
X7762400D01*
X8638920Y8271880D01*
X8796340D01*
X8885300Y8182920D01*
Y8055220D01*
X8774500Y7944420D01*
Y7876000D01*
G01X4844200Y9885300D02*
X4896450Y9937550D01*
X4963990D01*
X5008640Y9982200D01*
X5079760D01*
X5124410Y9937550D01*
X5163990D01*
X5233140Y10006700D01*
X5540290D01*
X5540340Y10006650D01*
X6185350D01*
X6680350Y9511650D01*
X8662850D01*
X8774500Y9400000D01*
G01X4844200Y9785300D02*
X4896450Y9837550D01*
X5160520D01*
X5180090Y9857120D01*
X5531920D01*
X5534400Y9859600D01*
X5989820D01*
X6510520Y9338900D01*
X7869320D01*
X8151370Y9056850D01*
Y9056860D01*
X8151590D01*
X8428100Y8780350D01*
X8662850D01*
X8774500Y8892000D01*
G01X4744200Y9685300D02*
X4774400D01*
X4823450Y9636250D01*
X5264520D01*
X5316320Y9688050D01*
X5496840D01*
X5648310Y9536580D01*
X6020530D01*
X6023180Y9533930D01*
X6023190D01*
X6033270Y9523850D01*
X6040750D01*
X6446900Y9117700D01*
X7749680D01*
X8626200Y8241180D01*
X8663320D01*
X8774500Y8130000D01*
G01X4944200Y10085300D02*
X5091950Y10233050D01*
X5202300D01*
X5249950Y10185400D01*
X8436150D01*
X8564100Y10313350D01*
X8671850D01*
X8774500Y10416000D01*
G01X4744200Y9985300D02*
X4796450Y10037550D01*
X4968160D01*
X4998110Y10007600D01*
X5078760D01*
X5108710Y10037550D01*
X5523070D01*
X5523220Y10037400D01*
X5553010D01*
X5553060Y10037350D01*
X6198070D01*
X6693070Y9542350D01*
X8662850D01*
X8774500Y9654000D01*
G01X4944200Y10385300D02*
X5005530D01*
X5073440Y10317390D01*
X5982960D01*
X6016390Y10350820D01*
X6065930D01*
X6096610Y10381500D01*
Y10406930D01*
X6128180Y10438500D01*
G01X8774500Y11686000D02*
X8733710Y11726790D01*
Y11733090D01*
X8674700Y11792100D01*
X8537100D01*
X8478900Y11733900D01*
Y11137000D01*
X7904400Y10562500D01*
X5535040D01*
X5529740Y10567800D01*
X5099880D01*
X4969630Y10437550D01*
X4791950D01*
X4744200Y10485300D01*
G01Y10185300D02*
X4821400Y10262500D01*
X5524510D01*
X5527110Y10259900D01*
X6188520D01*
X6338170Y10409550D01*
X7941720D01*
X8576820Y11044650D01*
X8653850D01*
X8774500Y10924000D01*
G01Y11940000D02*
X8657300Y11822800D01*
X8524380D01*
X8448200Y11746620D01*
Y11149720D01*
X7891680Y10593200D01*
X5089350D01*
X5029200Y10533050D01*
X4691950D01*
X4644200Y10485300D01*
G01Y10285300D02*
X4808270D01*
X4810870Y10287900D01*
X5535040D01*
X5537640Y10285300D01*
X6170500D01*
X6325450Y10440250D01*
X7929000D01*
X8564100Y11075350D01*
X8671850D01*
X8774500Y11178000D01*
G01X4744200Y11185300D02*
X4710890Y11218610D01*
G02X4681600Y11289320I70710J70711D01*
G01Y11928700D01*
G02X4710890Y11999410I100000J-1D01*
G01X5960410Y13248930D01*
G03X5989700Y13319640I-70710J70711D01*
G01Y13664300D01*
G01X5144200Y9585300D02*
X5156080Y9573420D01*
X5450680D01*
X5465640Y9558460D01*
X5481580Y9543570D01*
X5504100Y9522530D01*
X5524710Y9503270D01*
X5525760D01*
X5525770Y9503260D01*
X5525780D01*
X5553010Y9476030D01*
Y9476020D01*
X5556740Y9472290D01*
Y9468620D01*
X6062650Y8962710D01*
X7757590D01*
X8433400Y8286900D01*
Y7720720D01*
X8644020Y7510100D01*
X8816600D01*
X8898850Y7427850D01*
Y7238350D01*
X8774500Y7114000D01*
G01X5144200Y9785300D02*
X5190620Y9831720D01*
X5530950D01*
X5533770Y9828900D01*
X5977100D01*
X6497800Y9308200D01*
X7856600D01*
X8415150Y8749650D01*
X8662850D01*
X8774500Y8638000D01*
G01X5144200Y10085300D02*
X5218900Y10160000D01*
X8454170D01*
X8576820Y10282650D01*
X8653850D01*
X8774500Y10162000D01*
G01X5144200Y10385300D02*
Y10379360D01*
X5180770Y10342790D01*
X5517010D01*
X5522310Y10348090D01*
X5970240D01*
X6003670Y10381520D01*
X6053210D01*
X6065910Y10394220D01*
Y10406920D01*
X6034330Y10438500D01*
G01X5678590Y10693720D02*
X5713700Y10728830D01*
Y10766130D01*
X6078000Y11130430D01*
Y11480820D01*
X7072980Y12475800D01*
X7627980D01*
X7742530Y12590350D01*
X8662850D01*
X8774500Y12702000D01*
G01X5659500Y11314800D02*
Y11315360D01*
X5702630Y11358490D01*
X5857130D01*
X5943690Y11445050D01*
Y11478870D01*
X5943700Y11478880D01*
Y11965760D01*
X6681840Y12703900D01*
X6939620D01*
X7557370Y13321650D01*
X8662850D01*
X8774500Y13210000D01*
G01X5596000Y11378300D02*
X5606890Y11389190D01*
X5844410D01*
X5912990Y11457770D01*
Y11491590D01*
X5913000Y11491600D01*
Y11978480D01*
X6669120Y12734600D01*
X6926900D01*
X7544660Y13352360D01*
X7570080D01*
X7570090Y13352350D01*
X8662850D01*
X8774500Y13464000D01*
G01X5773800Y10679800D02*
X5739100Y10714500D01*
Y10755600D01*
X6108700Y11125200D01*
Y11468100D01*
X7085700Y12445100D01*
X7640700D01*
X7755250Y12559650D01*
X8662850D01*
X8774500Y12448000D01*
G54D18*
X233000Y3090000D03*
X1193000D03*
X2133000D03*
X3093000D03*
G54D28*
G01X993070Y3886340D02*
X1007410Y3872000D01*
G02X1036700Y3801290I-70710J-70711D01*
G01Y3698120D01*
G02X1007410Y3627410I-100000J1D01*
G01X733000Y3353000D01*
G01X7274140Y362440D02*
X7401140D01*
G01X7441780Y2635740D02*
X7314780D01*
G01X7457020Y4929360D02*
X7330020D01*
G01X7401140Y362440D02*
X7554340D01*
G01X7763680Y264840D02*
X7590860D01*
G02X7554340Y301360I0J36520D01*
G01Y362440D01*
G01D02*
X7554450Y362550D01*
G02X7625160Y391840I70711J-70710D01*
G01X7763680D01*
G01X7441780Y2635740D02*
X7600060D01*
G01X7804720Y2539780D02*
X7631900D01*
G02X7600060Y2571620I0J31840D01*
G01Y2635740D01*
G01D02*
X7601810Y2637490D01*
G02X7672520Y2666780I70711J-70710D01*
G01X7804720D01*
G01X7457020Y4929360D02*
X7614360D01*
G01X7818500Y4833360D02*
X7645680D01*
G02X7614360Y4864680I0J31320D01*
G01Y4929360D01*
G01D02*
X7616070Y4931070D01*
G02X7686780Y4960360I70711J-70710D01*
G01X7818500D01*
G54D19*
X425100Y7979200D03*
X525100Y9262200D03*
X425100Y9979200D03*
X525100Y11262200D03*
X8712500Y1090000D03*
Y1598000D03*
M02*
