G04 ================== begin FILE IDENTIFICATION RECORD ==================*
G04 Layout Name:  pc049a_toplevel_51.brd*
G04 Film Name:    PC049A_L5*
G04 File Format:  Gerber RS274X*
G04 File Origin:  Cadence Allegro 16.6-S014*
G04 Origin Date:  Mon Feb 23 12:27:40 2015*
G04 *
G04 Layer:  VIA CLASS/L5*
G04 Layer:  PIN/L5*
G04 Layer:  ETCH/L5*
G04 Layer:  BOARD GEOMETRY/CTEXT_TOP*
G04 *
G04 Offset:    (0.0000 0.0000)*
G04 Mirror:    No*
G04 Mode:      Positive*
G04 Rotation:  0*
G04 FullContactRelief:  No*
G04 UndefLineWidth:     0.1270*
G04 ================== end FILE IDENTIFICATION RECORD ====================*
%FSLAX25Y25*MOMM*%
%IR0*IPPOS*OFA0.00000B0.00000*MIA0B0*SFA1.00000B1.00000*%
%ADD14C,.6*%
%ADD22C,.8*%
%ADD23C,.6096*%
%ADD18C,1.*%
%ADD10C,5.*%
%ADD24C,1.6*%
%ADD19C,2.032*%
%ADD12C,1.7*%
%ADD21C,1.6002*%
%ADD13C,1.27*%
%ADD17C,1.55*%
%ADD20C,1.524*%
%ADD16C,1.65*%
%ADD15C,1.75*%
%ADD11C,6.604*%
%ADD25C,.101*%
%ADD26C,.127*%
G75*
%LPD*%
G75*
G36*
G01X-70850Y13295000D02*
X-149500D01*
X-150620Y13208880D01*
X-64500Y13210000D01*
Y13288650D01*
G03X-70850Y13295000I-6350J0D01*
G37*
G36*
G01X-64500Y13385350D02*
Y13464000D01*
X-150620Y13465120D01*
X-149500Y13379000D01*
X-70850D01*
G03X-64500Y13385350I0J6350D01*
G37*
G36*
G01X405430Y3808940D02*
X388720Y3792200D01*
X409920Y3769410D01*
X431120Y3792200D01*
X414410Y3808940D01*
G03X405430I-4490J-4490D01*
G37*
G36*
G01X491600D02*
X474890Y3792200D01*
X496090Y3769410D01*
X517290Y3792200D01*
X500580Y3808940D01*
G03X491600I-4490J-4490D01*
G37*
G36*
G01X954460Y3848090D02*
Y3822760D01*
X973820Y3802560D01*
X986280Y3825230D01*
X958950Y3852580D01*
X954460Y3848090D01*
G37*
G36*
G01X908450Y3814210D02*
X897910Y3804060D01*
X901590Y3774570D01*
X919190Y3788960D01*
X919200Y3809640D01*
G03X908450Y3814210I-6346J0D01*
G37*
G36*
G01X757300Y8627000D02*
X733650D01*
X732530Y8595880D01*
X763650Y8597000D01*
Y8620650D01*
G03X757300Y8627000I-6350J0D01*
G37*
G36*
G01X803610Y8609010D02*
X786900Y8592270D01*
X808100Y8569480D01*
X829300Y8592270D01*
X812590Y8609010D01*
G03X803610I-4490J-4490D01*
G37*
G36*
G01X1049400Y8830200D02*
X1025750D01*
X1024630Y8799080D01*
X1055750Y8800200D01*
Y8823850D01*
G03X1049400Y8830200I-6350J0D01*
G37*
G36*
G01X994000Y8900050D02*
Y8876400D01*
X1025120Y8875280D01*
X1024000Y8906400D01*
X1000350D01*
G03X994000Y8900050I0J-6350D01*
G37*
G36*
G01X747800Y9854650D02*
Y9878300D01*
X716680Y9879420D01*
X717800Y9848300D01*
X741450D01*
G03X747800Y9854650I0J6350D01*
G37*
G36*
G01X810080Y9909470D02*
Y9933120D01*
X778960Y9934240D01*
X780080Y9903120D01*
X803730D01*
G03X810080Y9909470I0J6350D01*
G37*
G36*
G01X970300Y9930660D02*
X987010Y9947400D01*
X965810Y9970190D01*
X944610Y9947400D01*
X961320Y9930660D01*
G03X970300I4490J4490D01*
G37*
G36*
G01X933530Y9894150D02*
Y9917800D01*
X902410Y9918920D01*
X903530Y9887800D01*
X927180D01*
G03X933530Y9894150I0J6350D01*
G37*
G36*
G01X867110Y11225740D02*
X850400Y11209000D01*
X871600Y11186210D01*
X892800Y11209000D01*
X876090Y11225740D01*
G03X867110I-4490J-4490D01*
G37*
G36*
G01X930610Y11174940D02*
X913900Y11158200D01*
X935100Y11135410D01*
X956300Y11158200D01*
X939590Y11174940D01*
G03X930610I-4490J-4490D01*
G37*
G36*
G01X975940Y12532410D02*
X994400Y12550890D01*
X973280Y12573690D01*
X951550Y12551390D01*
X966520Y12532900D01*
G03X975940Y12532410I4931J4000D01*
G37*
G36*
G01X926890Y12457960D02*
X943600Y12474700D01*
X922400Y12497490D01*
X901200Y12474700D01*
X917910Y12457960D01*
G03X926890I4490J4490D01*
G37*
G36*
G01X1092100Y12853250D02*
Y12876900D01*
X1060980Y12878020D01*
X1062100Y12846900D01*
X1085750D01*
G03X1092100Y12853250I0J6350D01*
G37*
G36*
G01Y12751650D02*
Y12775300D01*
X1060980Y12776420D01*
X1062100Y12745300D01*
X1085750D01*
G03X1092100Y12751650I0J6350D01*
G37*
G36*
G01X851040Y18644800D02*
G02X875980Y18634020I-852J-36210D01*
G01X898570Y18655610D01*
X871180Y18670640D01*
G02X849860Y18653800I-31470J17926D01*
G03X851040Y18644800I4991J-3923D01*
G37*
G36*
G01X1670500Y8896650D02*
Y8873000D01*
X1701620Y8871880D01*
X1700500Y8903000D01*
X1676850D01*
G03X1670500Y8896650I0J-6350D01*
G37*
G36*
G01X1387810Y10705040D02*
X1371100Y10688300D01*
X1392300Y10665510D01*
X1413500Y10688300D01*
X1396790Y10705040D01*
G03X1387810I-4490J-4490D01*
G37*
G36*
G01X1352450Y10747900D02*
X1328800D01*
X1327680Y10716780D01*
X1358800Y10717900D01*
Y10741550D01*
G03X1352450Y10747900I-6350J0D01*
G37*
G36*
G01X1600050Y13898990D02*
X1648740Y13949090D01*
X1594790Y14004490D01*
X1540930Y13949030D01*
X1591010Y13898930D01*
G03X1600050Y13898990I4490J4490D01*
G37*
G36*
G01X1830720Y10408320D02*
X1823010Y10382590D01*
X1846130Y10362500D01*
X1867000Y10385260D01*
X1841290Y10410990D01*
G03X1830720Y10408320I-4488J-4491D01*
G37*
G36*
G01X1787310Y10302220D02*
X1773170Y10282920D01*
X1795110Y10260870D01*
X1816200Y10283660D01*
X1796920Y10302960D01*
G03X1787310Y10302220I-4488J-4491D01*
G37*
G36*
G01X1857710Y11543240D02*
X1841000Y11526500D01*
X1862200Y11503710D01*
X1883400Y11526500D01*
X1866690Y11543240D01*
G03X1857710I-4490J-4490D01*
G37*
G36*
G01X2196890Y13897230D02*
X2248670Y13949030D01*
X2194840Y14004490D01*
X2140710Y13949250D01*
X2187700Y13897450D01*
G03X2196890Y13897230I4700J4270D01*
G37*
G36*
G01X2582400Y2877160D02*
G02X2571620Y2852220I-36210J852D01*
G01X2593210Y2829630D01*
X2608240Y2857020D01*
G02X2591400Y2878340I17926J31470D01*
G03X2582400Y2877160I-3923J-4991D01*
G37*
G36*
G01X2794410Y3750840D02*
X2811120Y3767580D01*
X2789920Y3790370D01*
X2768720Y3767580D01*
X2785430Y3750840D01*
G03X2794410I4490J4490D01*
G37*
G36*
G01X2304940Y3816560D02*
X2288230Y3799820D01*
X2309430Y3777030D01*
X2330630Y3799820D01*
X2313920Y3816560D01*
G03X2304940I-4490J-4490D01*
G37*
G36*
G01X2391110D02*
X2374400Y3799820D01*
X2395600Y3777030D01*
X2416800Y3799820D01*
X2400090Y3816560D01*
G03X2391110I-4490J-4490D01*
G37*
G36*
G01X2539790Y5244360D02*
X2556500Y5261100D01*
X2535300Y5283890D01*
X2514100Y5261100D01*
X2530810Y5244360D01*
G03X2539790I4490J4490D01*
G37*
G36*
G01X2782140Y9689790D02*
X2765400Y9706500D01*
X2742610Y9685300D01*
X2765400Y9664100D01*
X2782140Y9680810D01*
G03Y9689790I-4490J4490D01*
G37*
G36*
G01X2706260Y10780810D02*
X2723000Y10764100D01*
X2745790Y10785300D01*
X2723000Y10806500D01*
X2706260Y10789790D01*
G03Y10780810I4490J-4490D01*
G37*
G36*
G01X2353010Y11670240D02*
X2336300Y11653500D01*
X2357500Y11630710D01*
X2378700Y11653500D01*
X2361990Y11670240D01*
G03X2353010I-4490J-4490D01*
G37*
G36*
G01X2880580Y3750840D02*
X2897290Y3767580D01*
X2876090Y3790370D01*
X2854890Y3767580D01*
X2871600Y3750840D01*
G03X2880580I4490J4490D01*
G37*
G36*
G01X3358340Y5951510D02*
X3358350Y5932140D01*
X3387320Y5928880D01*
X3384060Y5957850D01*
X3364690Y5957860D01*
G03X3358340Y5951510I0J-6350D01*
G37*
G36*
G01X3407000Y6029850D02*
Y6006200D01*
X3438120Y6005080D01*
X3437000Y6036200D01*
X3413350D01*
G03X3407000Y6029850I0J-6350D01*
G37*
G36*
G01X3227450D02*
Y6006200D01*
X3258570Y6005080D01*
X3257450Y6036200D01*
X3233800D01*
G03X3227450Y6029850I0J-6350D01*
G37*
G36*
G01X3136810Y6298140D02*
X3120100Y6281400D01*
X3141300Y6258610D01*
X3162500Y6281400D01*
X3145790Y6298140D01*
G03X3136810I-4490J-4490D01*
G37*
G36*
G01X3415320Y9447850D02*
G02X3441590Y9455420I22497J-28705D01*
G01X3445290Y9486460D01*
X3414550Y9480770D01*
G02X3408680Y9454070I-35856J-6112D01*
G03X3415320Y9447850I6348J123D01*
G37*
G36*
G01X3365600Y9344810D02*
G02X3368660Y9367950I30421J7749D01*
G01X3343600Y9386770D01*
X3338960Y9355770D01*
G02X3357390Y9341440I-8657J-30150D01*
G03X3365600Y9344810I2379J5889D01*
G37*
G36*
G01X3324190Y9239890D02*
X3347840Y9256460D01*
X3345000Y9286670D01*
X3314200Y9285300D01*
Y9245090D01*
G03X3324190Y9239890I6348J0D01*
G37*
G36*
G01X3320550Y9055300D02*
X3344200D01*
X3345320Y9086420D01*
X3314200Y9085300D01*
Y9061650D01*
G03X3320550Y9055300I6350J0D01*
G37*
G36*
G01X3020550Y9755300D02*
X3044200D01*
X3045320Y9786420D01*
X3014200Y9785300D01*
Y9761650D01*
G03X3020550Y9755300I6350J0D01*
G37*
G36*
G01X3120550D02*
X3144200D01*
X3145320Y9786420D01*
X3114200Y9785300D01*
Y9761650D01*
G03X3120550Y9755300I6350J0D01*
G37*
G36*
G01X2906260Y9680810D02*
X2923000Y9664100D01*
X2945790Y9685300D01*
X2923000Y9706500D01*
X2906260Y9689790D01*
G03Y9680810I4490J-4490D01*
G37*
G36*
G01X3412970Y9649780D02*
G02X3439670Y9655650I20588J-29986D01*
G01X3445360Y9686390D01*
X3414320Y9682690D01*
G02X3406750Y9656420I-36275J-3773D01*
G03X3412970Y9649780I6343J-292D01*
G37*
G36*
G01X3320980Y9553710D02*
X3344630Y9555320D01*
X3345290Y9586460D01*
X3314200Y9585300D01*
Y9560050D01*
G03X3320980Y9553710I6354J0D01*
G37*
G36*
G01X3016660Y10655300D02*
X3044200D01*
X3045400Y10686330D01*
X3014290D01*
X3010390Y10662680D01*
G03X3016660Y10655300I6270J-1027D01*
G37*
G36*
G01X3214200Y11208950D02*
Y11185300D01*
X3245320Y11184180D01*
X3244200Y11215300D01*
X3220550D01*
G03X3214200Y11208950I0J-6350D01*
G37*
G36*
G01X3014200D02*
Y11185300D01*
X3045320Y11184180D01*
X3044200Y11215300D01*
X3020550D01*
G03X3014200Y11208950I0J-6350D01*
G37*
G36*
G01X3114200Y10708950D02*
Y10685300D01*
X3145320Y10684180D01*
X3144200Y10715300D01*
X3120550D01*
G03X3114200Y10708950I0J-6350D01*
G37*
G36*
G01X2906260Y10780810D02*
X2923000Y10764100D01*
X2945790Y10785300D01*
X2923000Y10806500D01*
X2906260Y10789790D01*
G03Y10780810I4490J-4490D01*
G37*
G36*
G01X3318100Y11478150D02*
Y11454500D01*
X3349220Y11453380D01*
X3348100Y11484500D01*
X3324450D01*
G03X3318100Y11478150I0J-6350D01*
G37*
G36*
G01X3057750Y11551500D02*
X3081400D01*
X3082520Y11582620D01*
X3051400Y11581500D01*
Y11557850D01*
G03X3057750Y11551500I6350J0D01*
G37*
G36*
G01X3138440Y12317550D02*
X3155150Y12334290D01*
X3133950Y12357080D01*
X3112750Y12334290D01*
X3129460Y12317550D01*
G03X3138440I4490J4490D01*
G37*
G36*
G01X3343610Y12737040D02*
X3326900Y12720300D01*
X3348100Y12697510D01*
X3369300Y12720300D01*
X3352590Y12737040D01*
G03X3343610I-4490J-4490D01*
G37*
G36*
G01X3238290Y12457960D02*
X3255000Y12474700D01*
X3233800Y12497490D01*
X3212600Y12474700D01*
X3229310Y12457960D01*
G03X3238290I4490J4490D01*
G37*
G36*
G01X3352590Y13334260D02*
X3369300Y13351000D01*
X3348100Y13373790D01*
X3326900Y13351000D01*
X3343610Y13334260D01*
G03X3352590I4490J4490D01*
G37*
G36*
G01X3534120Y6145740D02*
X3517410Y6129000D01*
X3538610Y6106210D01*
X3559810Y6129000D01*
X3543100Y6145740D01*
G03X3534120I-4490J-4490D01*
G37*
G36*
G01X3508600Y6029850D02*
Y6006200D01*
X3539720Y6005080D01*
X3538600Y6036200D01*
X3514950D01*
G03X3508600Y6029850I0J-6350D01*
G37*
G36*
G01X3584910Y6221940D02*
X3568200Y6205200D01*
X3589400Y6182410D01*
X3610600Y6205200D01*
X3593890Y6221940D01*
G03X3584910I-4490J-4490D01*
G37*
G36*
G01X3432510Y6298140D02*
X3415800Y6281400D01*
X3437000Y6258610D01*
X3458200Y6281400D01*
X3441490Y6298140D01*
G03X3432510I-4490J-4490D01*
G37*
G36*
G01X3910300Y7567540D02*
G02X3937010Y7573360I20545J-30086D01*
G01X3942760Y7604080D01*
X3911720Y7600440D01*
G02X3904090Y7574200I-36254J-3687D01*
G03X3910300Y7567540I6342J-312D01*
G37*
G36*
G01X3828650Y7674800D02*
X3805000D01*
X3803880Y7643680D01*
X3835000Y7644800D01*
Y7668450D01*
G03X3828650Y7674800I-6350J0D01*
G37*
G36*
G01X3676550Y8182500D02*
X3652900D01*
X3651780Y8151380D01*
X3682900Y8152500D01*
Y8176150D01*
G03X3676550Y8182500I-6350J0D01*
G37*
G36*
G01X3880130Y9472340D02*
X3872660Y9494770D01*
X3842780Y9486010D01*
X3853670Y9456840D01*
X3876120Y9464310D01*
G03X3880130Y9472340I-2010J6020D01*
G37*
G36*
G01X3490280Y9365400D02*
X3472970Y9389040D01*
X3442830Y9386090D01*
X3444200Y9355300D01*
X3485150D01*
G03X3490280Y9365400I0J6353D01*
G37*
G36*
G01X3455370Y9043490D02*
X3466580Y9065720D01*
X3443980Y9086870D01*
X3423000Y9064090D01*
X3445210Y9041860D01*
G03X3455370Y9043490I4490J4490D01*
G37*
G36*
G01X3581340Y9455980D02*
G02X3574040Y9482350I28821J22174D01*
G01X3543050Y9486400D01*
X3548370Y9455600D01*
G02X3575030Y9449410I5686J-36019D01*
G03X3581340Y9455980I-38J6351D01*
G37*
G36*
G01X3966510Y10913960D02*
X3945540Y10913950D01*
X3943080Y10884180D01*
X3972850Y10886640D01*
X3972860Y10907610D01*
G03X3966510Y10913960I-6350J0D01*
G37*
G36*
G01X3939710Y11023240D02*
X3923000Y11006500D01*
X3944200Y10983710D01*
X3965400Y11006500D01*
X3948690Y11023240D01*
G03X3939710I-4490J-4490D01*
G37*
G36*
G01X3873510Y10922450D02*
G02X3847130Y10915150I-22187J28862D01*
G01X3843100Y10884150D01*
X3873900Y10889490D01*
G02X3880080Y10916140I35905J5715D01*
G03X3873510Y10922450I-6351J-38D01*
G37*
G36*
G01X3767820Y10915400D02*
X3744170Y10915290D01*
X3743080Y10884180D01*
X3774200Y10885300D01*
Y10909050D01*
G03X3767820Y10915400I-6350J0D01*
G37*
G36*
G01X3673080Y10922750D02*
G02X3646810Y10915180I-22497J28705D01*
G01X3643110Y10884140D01*
X3673850Y10889830D01*
G02X3679720Y10916530I35856J6112D01*
G03X3673080Y10922750I-6348J-123D01*
G37*
G36*
G01X3573180Y10922680D02*
G02X3546890Y10915170I-22429J28746D01*
G01X3543110Y10884140D01*
X3573860Y10889750D01*
G02X3579810Y10916440I35903J6004D01*
G03X3573180Y10922680I-6348J-103D01*
G37*
G36*
G01X3504130Y11220110D02*
G02X3509120Y11193300I-30580J-19561D01*
G01X3539650Y11186610D01*
X3536910Y11217740D01*
G02X3510960Y11226110I-2639J36230D01*
G03X3504130Y11220110I-489J-6330D01*
G37*
G36*
G01X3496010Y12711640D02*
X3479300Y12694900D01*
X3500500Y12672110D01*
X3521700Y12694900D01*
X3504990Y12711640D01*
G03X3496010I-4490J-4490D01*
G37*
G36*
G01X3835190Y13334260D02*
X3851900Y13351000D01*
X3830700Y13373790D01*
X3809500Y13351000D01*
X3826210Y13334260D01*
G03X3835190I4490J4490D01*
G37*
G36*
G01X3578450Y13342200D02*
X3602100D01*
X3603220Y13373320D01*
X3572100Y13372200D01*
Y13348550D01*
G03X3578450Y13342200I6350J0D01*
G37*
G36*
G01X3681040Y13702560D02*
X3697750Y13719300D01*
X3676550Y13742090D01*
X3655350Y13719300D01*
X3672060Y13702560D01*
G03X3681040I4490J4490D01*
G37*
G36*
G01X4017310Y7291360D02*
X3997940Y7291350D01*
X3994680Y7262380D01*
X4023650Y7265640D01*
X4023660Y7285010D01*
G03X4017310Y7291360I-6350J0D01*
G37*
G36*
G01X4070250Y7230000D02*
X4046600D01*
X4045480Y7198880D01*
X4076600Y7200000D01*
Y7223650D01*
G03X4070250Y7230000I-6350J0D01*
G37*
G36*
G01X4375050Y7674800D02*
X4351400D01*
X4350280Y7643680D01*
X4381400Y7644800D01*
Y7668450D01*
G03X4375050Y7674800I-6350J0D01*
G37*
G36*
G01X4327750Y7614800D02*
X4351400D01*
X4352520Y7645920D01*
X4321400Y7644800D01*
Y7621150D01*
G03X4327750Y7614800I6350J0D01*
G37*
G36*
G01X4300790Y8269150D02*
X4317530Y8252440D01*
X4340320Y8273640D01*
X4317530Y8294840D01*
X4300790Y8278130D01*
G03Y8269150I4490J-4490D01*
G37*
G36*
G01X4300760Y8353860D02*
X4317500Y8337150D01*
X4340290Y8358350D01*
X4317500Y8379550D01*
X4300760Y8362840D01*
G03Y8353860I4490J-4490D01*
G37*
G36*
G01X4420550Y8922600D02*
X4444200D01*
X4445320Y8953720D01*
X4414200Y8952600D01*
Y8928950D01*
G03X4420550Y8922600I6350J0D01*
G37*
G36*
G01X4467850Y8982600D02*
X4444200D01*
X4443080Y8951480D01*
X4474200Y8952600D01*
Y8976250D01*
G03X4467850Y8982600I-6350J0D01*
G37*
G36*
G01X4573230Y9422640D02*
G02X4546930Y9415170I-22386J28782D01*
G01X4543110Y9384150D01*
X4573860Y9389710D01*
G02X4579850Y9416390I35908J5951D01*
G03X4573230Y9422640I-6348J-93D01*
G37*
G36*
G01X4515640Y9507510D02*
X4515650Y9486740D01*
X4545320Y9484180D01*
X4542760Y9513850D01*
X4521990Y9513860D01*
G03X4515640Y9507510I0J-6350D01*
G37*
G36*
G01X4006260Y9380810D02*
X4023000Y9364100D01*
X4045790Y9385300D01*
X4023000Y9406500D01*
X4006260Y9389790D01*
G03Y9380810I4490J-4490D01*
G37*
G36*
G01X4279720Y9254070D02*
G02X4273850Y9280770I29986J20588D01*
G01X4243110Y9286460D01*
X4246810Y9255420D01*
G02X4273080Y9247850I3773J-36275D01*
G03X4279720Y9254070I292J6343D01*
G37*
G36*
G01X4448690Y9347360D02*
X4465400Y9364100D01*
X4444200Y9386890D01*
X4423000Y9364100D01*
X4439710Y9347360D01*
G03X4448690I4490J4490D01*
G37*
G36*
G01X4473510Y9462340D02*
X4473500Y9484610D01*
X4443080Y9486420D01*
X4444890Y9456000D01*
X4467160Y9455990D01*
G03X4473510Y9462340I0J6350D01*
G37*
G36*
G01X4467850Y9615300D02*
X4444200D01*
X4443080Y9584180D01*
X4474200Y9585300D01*
Y9608950D01*
G03X4467850Y9615300I-6350J0D01*
G37*
G36*
G01X4208780Y10916640D02*
G02X4214570Y10889930I-30045J-20495D01*
G01X4245280Y10884140D01*
X4241680Y10915180D01*
G02X4215440Y10922840I-3663J36225D01*
G03X4208780Y10916640I-312J-6342D01*
G37*
G36*
G01X4473080Y10922750D02*
G02X4446810Y10915180I-22497J28705D01*
G01X4443110Y10884140D01*
X4473850Y10889830D01*
G02X4479720Y10916530I35856J6112D01*
G03X4473080Y10922750I-6348J-123D01*
G37*
G36*
G01X4573230Y10922640D02*
G02X4546930Y10915170I-22386J28782D01*
G01X4543110Y10884150D01*
X4573860Y10889710D01*
G02X4579850Y10916390I35908J5951D01*
G03X4573230Y10922640I-6348J-93D01*
G37*
G36*
G01X4572290Y11567950D02*
X4574280Y11591520D01*
X4543370Y11595260D01*
X4541870Y11564160D01*
X4565430Y11562160D01*
G03X4572290Y11567950I531J6329D01*
G37*
G36*
G01X4419390Y13232660D02*
X4436100Y13249400D01*
X4414900Y13272190D01*
X4393700Y13249400D01*
X4410410Y13232660D01*
G03X4419390I4490J4490D01*
G37*
G36*
G01X4217990Y13350590D02*
X4222000Y13380020D01*
X4198580Y13399130D01*
X4177800Y13376390D01*
X4207210Y13346960D01*
G03X4217990Y13350590I4489J4490D01*
G37*
G36*
G01X4025800Y13361250D02*
Y13384900D01*
X3994680Y13386020D01*
X3995800Y13354900D01*
X4019450D01*
G03X4025800Y13361250I0J6350D01*
G37*
G36*
G01X4598690Y8914660D02*
X4615400Y8931400D01*
X4594200Y8954190D01*
X4573000Y8931400D01*
X4589710Y8914660D01*
G03X4598690I4490J4490D01*
G37*
G36*
G01X4586900Y8992150D02*
X4572440Y8973160D01*
X4594300Y8951020D01*
X4615400Y8973810D01*
X4596440Y8992790D01*
G03X4586900Y8992150I-4490J-4490D01*
G37*
G36*
G01X4966410Y9513860D02*
X4945640Y9513850D01*
X4943080Y9484180D01*
X4972750Y9486740D01*
X4972760Y9507510D01*
G03X4966410Y9513860I-6350J0D01*
G37*
G36*
G01X4982940Y9087390D02*
X4966200Y9104100D01*
X4943410Y9082900D01*
X4966200Y9061700D01*
X4982940Y9078410D01*
G03Y9087390I-4490J4490D01*
G37*
G36*
G01X4867850Y10215300D02*
X4844200D01*
X4843080Y10184180D01*
X4874200Y10185300D01*
Y10208950D01*
G03X4867850Y10215300I-6350J0D01*
G37*
G36*
G01X4775100Y13386650D02*
Y13410300D01*
X4743980Y13411420D01*
X4745100Y13380300D01*
X4768750D01*
G03X4775100Y13386650I0J6350D01*
G37*
G36*
G01X4698790Y13245360D02*
X4715500Y13262100D01*
X4694300Y13284890D01*
X4673100Y13262100D01*
X4689810Y13245360D01*
G03X4698790I4490J4490D01*
G37*
G36*
G01X4772250Y14053400D02*
X4795900D01*
X4797020Y14084520D01*
X4765900Y14083400D01*
Y14059750D01*
G03X4772250Y14053400I6350J0D01*
G37*
G36*
G01X5191090Y9491450D02*
G02X5167140Y9504620I4273J36132D01*
G01X5142610Y9485250D01*
X5168400Y9467590D01*
G02X5191400Y9482350I29736J-21036D01*
G03X5191090Y9491450I-4580J4399D01*
G37*
G36*
G01X5683150Y9147700D02*
X5659500D01*
X5658380Y9116580D01*
X5689500Y9117700D01*
Y9141350D01*
G03X5683150Y9147700I-6350J0D01*
G37*
G36*
G01X5611160Y9206660D02*
G02X5585160Y9198430I-23182J28050D01*
G01X5582240Y9167310D01*
X5612810Y9173830D01*
G02X5617950Y9200620I35696J7039D01*
G03X5611160Y9206660I-6341J-292D01*
G37*
G36*
G01X5456840Y9489790D02*
X5440100Y9506500D01*
X5417310Y9485300D01*
X5440100Y9464100D01*
X5456840Y9480810D01*
G03Y9489790I-4490J4490D01*
G37*
G36*
G01X5167850Y10215300D02*
X5144200D01*
X5143080Y10184180D01*
X5174200Y10185300D01*
Y10208950D01*
G03X5167850Y10215300I-6350J0D01*
G37*
G36*
G01X5629660Y11338290D02*
X5629670Y11314960D01*
X5660620Y11313680D01*
X5659340Y11344630D01*
X5636010Y11344640D01*
G03X5629660Y11338290I0J-6350D01*
G37*
G36*
G01X5572350Y11348300D02*
X5596000D01*
X5597120Y11379420D01*
X5566000Y11378300D01*
Y11354650D01*
G03X5572350Y11348300I6350J0D01*
G37*
G36*
G01X5206790Y13359660D02*
X5223500Y13376400D01*
X5202300Y13399190D01*
X5181100Y13376400D01*
X5197810Y13359660D01*
G03X5206790I4490J4490D01*
G37*
G36*
G01X5600490Y13385060D02*
X5617200Y13401800D01*
X5596000Y13424590D01*
X5574800Y13401800D01*
X5591510Y13385060D01*
G03X5600490I4490J4490D01*
G37*
G36*
G01X6162900Y6990550D02*
Y6966900D01*
X6194020Y6965780D01*
X6192900Y6996900D01*
X6169250D01*
G03X6162900Y6990550I0J-6350D01*
G37*
G36*
G01X6064330Y10414850D02*
Y10438500D01*
X6033210Y10439620D01*
X6034330Y10408500D01*
X6057980D01*
G03X6064330Y10414850I0J6350D01*
G37*
G36*
G01X6104530Y10408500D02*
X6128180D01*
X6129300Y10439620D01*
X6098180Y10438500D01*
Y10414850D01*
G03X6104530Y10408500I6350J0D01*
G37*
G36*
G01X5926730Y10459300D02*
X5950380D01*
X5951500Y10490420D01*
X5920380Y10489300D01*
Y10465650D01*
G03X5926730Y10459300I6350J0D01*
G37*
G36*
G01X5886530Y10465650D02*
Y10489300D01*
X5855410Y10490420D01*
X5856530Y10459300D01*
X5880180D01*
G03X5886530Y10465650I0J6350D01*
G37*
G36*
G01X6062390Y10670790D02*
X6062380Y10690560D01*
X6033210Y10693620D01*
X6036270Y10664450D01*
X6056040Y10664440D01*
G03X6062390Y10670790I0J6350D01*
G37*
G36*
G01X6176620Y10686490D02*
X6149390Y10713700D01*
X6126640Y10692870D01*
X6146310Y10669600D01*
X6173540Y10675810D01*
G03X6176620Y10686490I-1410J6191D01*
G37*
G36*
G01X5803690Y11226060D02*
X5820400Y11242800D01*
X5799200Y11265590D01*
X5778000Y11242800D01*
X5794710Y11226060D01*
G03X5803690I4490J4490D01*
G37*
G36*
G01X5917990Y12800860D02*
X5934700Y12817600D01*
X5913500Y12840390D01*
X5892300Y12817600D01*
X5909010Y12800860D01*
G03X5917990I4490J4490D01*
G37*
G36*
G01X6143840Y14015290D02*
X6167490D01*
X6168610Y14046410D01*
X6137490Y14045290D01*
Y14021640D01*
G03X6143840Y14015290I6350J0D01*
G37*
G36*
G01X6534620Y6810900D02*
X6510970D01*
X6509850Y6779780D01*
X6540970Y6780900D01*
Y6804550D01*
G03X6534620Y6810900I-6350J0D01*
G37*
G36*
G01X6532660Y6917670D02*
X6509010Y6912340D01*
X6509400Y6881270D01*
X6540400Y6882500D01*
Y6911470D01*
G03X6532660Y6917670I-6353J0D01*
G37*
G36*
G01X6797900Y7464950D02*
Y7441300D01*
X6829020Y7440180D01*
X6827900Y7471300D01*
X6804250D01*
G03X6797900Y7464950I0J-6350D01*
G37*
G36*
G01X6804250Y7500200D02*
X6827900D01*
X6829020Y7531320D01*
X6797900Y7530200D01*
Y7506550D01*
G03X6804250Y7500200I6350J0D01*
G37*
G36*
G01X6429400Y7490550D02*
Y7466900D01*
X6460520Y7465780D01*
X6459400Y7496900D01*
X6435750D01*
G03X6429400Y7490550I0J-6350D01*
G37*
G36*
G01X6454150Y7689830D02*
G02X6441370Y7665710I-36265J3769D01*
G01X6461110Y7641480D01*
X6478340Y7667550D01*
G02X6463230Y7690280I20551J30049D01*
G03X6454150Y7689830I-4321J-4651D01*
G37*
G36*
G01X6508650Y7621320D02*
X6485000Y7597670D01*
X6484340Y7568610D01*
X6515000Y7570050D01*
Y7621320D01*
X6508650D01*
G37*
G36*
G01X6321650Y8503500D02*
X6345300D01*
X6346420Y8534620D01*
X6315300Y8533500D01*
Y8509850D01*
G03X6321650Y8503500I6350J0D01*
G37*
G36*
G01X6296250Y8592400D02*
X6319900D01*
X6321020Y8623520D01*
X6289900Y8622400D01*
Y8598750D01*
G03X6296250Y8592400I6350J0D01*
G37*
G36*
G01X6349790Y8406660D02*
X6366500Y8423400D01*
X6345300Y8446190D01*
X6324100Y8423400D01*
X6340810Y8406660D01*
G03X6349790I4490J4490D01*
G37*
G36*
G01X6389220Y8407080D02*
G02X6415460Y8414720I22548J-28562D01*
G01X6419080Y8445760D01*
X6388370Y8439990D01*
G02X6382560Y8413290I-35819J-6188D01*
G03X6389220Y8407080I6348J132D01*
G37*
G36*
G01X6512140Y13900980D02*
X6535790D01*
X6536910Y13932100D01*
X6505790Y13930980D01*
Y13907330D01*
G03X6512140Y13900980I6350J0D01*
G37*
G36*
G01X6340700Y13894650D02*
X6364350D01*
X6365470Y13925770D01*
X6334350Y13924650D01*
Y13901000D01*
G03X6340700Y13894650I6350J0D01*
G37*
G36*
G01X6683610Y13958160D02*
X6707260D01*
X6708380Y13989280D01*
X6677260Y13988160D01*
Y13964510D01*
G03X6683610Y13958160I6350J0D01*
G37*
G36*
G01X7331300Y7922150D02*
Y7898500D01*
X7362420Y7897380D01*
X7361300Y7928500D01*
X7337650D01*
G03X7331300Y7922150I0J-6350D01*
G37*
G36*
G01X7337650Y7970100D02*
X7361300D01*
X7362420Y8001220D01*
X7331300Y8000100D01*
Y7976450D01*
G03X7337650Y7970100I6350J0D01*
G37*
G36*
G01X7404000Y8586050D02*
Y8609700D01*
X7372880Y8610820D01*
X7374000Y8579700D01*
X7397650D01*
G03X7404000Y8586050I0J6350D01*
G37*
G36*
G01X7407610Y11733540D02*
X7384360Y11743730D01*
X7363520Y11720940D01*
X7386300Y11700000D01*
X7409550Y11723230D01*
G03X7407610Y11733540I-4489J4493D01*
G37*
G36*
G01X7159850Y13824800D02*
X7183500D01*
X7184620Y13855920D01*
X7153500Y13854800D01*
Y13831150D01*
G03X7159850Y13824800I6350J0D01*
G37*
G36*
G01X7178900Y14021650D02*
X7202550D01*
X7203670Y14052770D01*
X7172550Y14051650D01*
Y14028000D01*
G03X7178900Y14021650I6350J0D01*
G37*
G36*
G01X7483810Y7339540D02*
X7467100Y7322800D01*
X7488300Y7300010D01*
X7509500Y7322800D01*
X7492790Y7339540D01*
G03X7483810I-4490J-4490D01*
G37*
G36*
G01X7897610Y8489940D02*
X7873500Y8465810D01*
X7894420Y8443040D01*
X7917330Y8463600D01*
X7908020Y8487740D01*
G03X7897610Y8489940I-5922J-2291D01*
G37*
G36*
G01X7435750Y11687700D02*
X7412100D01*
X7410980Y11656580D01*
X7442100Y11657700D01*
Y11681350D01*
G03X7435750Y11687700I-6350J0D01*
G37*
G36*
G01X7953730Y8466950D02*
X7958690Y8443300D01*
X7989770Y8443590D01*
X7988550Y8474600D01*
X7959950D01*
G03X7953730Y8466950I0J-6354D01*
G37*
G54D10*
X-911500Y5082000D03*
Y13972000D03*
X9536500Y5082000D03*
Y13972000D03*
G54D11*
X-687500Y90000D03*
X-187500Y4590000D03*
Y14090000D03*
X-687500Y19590000D03*
X8812500Y4590000D03*
Y14090000D03*
X9312500Y90000D03*
Y19590000D03*
G54D20*
X1194800Y14002900D03*
Y14202900D03*
X1394800Y14002900D03*
X1594800D03*
X1794800D03*
X1394800Y14202900D03*
X1594800D03*
X1794800D03*
X1994800Y14002900D03*
X2194800D03*
X1994800Y14202900D03*
X2194800D03*
X2394800Y14002900D03*
Y14202900D03*
X6938700Y14697550D03*
Y14951550D03*
Y15205550D03*
Y17262950D03*
Y17516950D03*
Y17770950D03*
G54D21*
X1388400Y19793200D03*
X7236700D03*
G54D12*
X-657500Y5590000D03*
Y6098000D03*
Y5844000D03*
Y6606000D03*
Y6352000D03*
Y7114000D03*
Y6860000D03*
Y7876000D03*
Y7622000D03*
Y7368000D03*
Y8384000D03*
Y8130000D03*
Y8892000D03*
Y8638000D03*
Y9400000D03*
Y9146000D03*
Y10162000D03*
Y9908000D03*
Y9654000D03*
Y10670000D03*
Y10416000D03*
Y11178000D03*
Y10924000D03*
Y11686000D03*
Y11432000D03*
Y12448000D03*
Y12194000D03*
Y11940000D03*
Y12956000D03*
Y12702000D03*
Y13464000D03*
Y13210000D03*
X-149500Y5590000D03*
X-403500D03*
X-149500Y6098000D03*
Y5844000D03*
X-403500Y6098000D03*
Y5844000D03*
X-149500Y6606000D03*
Y6352000D03*
X-403500Y6606000D03*
Y6352000D03*
X-149500Y7114000D03*
Y6860000D03*
X-403500Y7114000D03*
Y6860000D03*
X-149500Y7876000D03*
Y7622000D03*
Y7368000D03*
X-403500Y7876000D03*
Y7622000D03*
Y7368000D03*
X-149500Y8384000D03*
Y8130000D03*
X-403500Y8384000D03*
Y8130000D03*
X-149500Y8892000D03*
Y8638000D03*
X-403500Y8892000D03*
Y8638000D03*
X-149500Y9400000D03*
Y9146000D03*
X-403500Y9400000D03*
Y9146000D03*
X-149500Y10162000D03*
Y9908000D03*
Y9654000D03*
X-403500Y10162000D03*
Y9908000D03*
Y9654000D03*
X-149500Y10670000D03*
Y10416000D03*
X-403500Y10670000D03*
Y10416000D03*
X-149500Y11178000D03*
Y10924000D03*
X-403500Y11178000D03*
Y10924000D03*
X-149500Y11686000D03*
Y11432000D03*
X-403500Y11686000D03*
Y11432000D03*
X-149500Y12448000D03*
Y12194000D03*
Y11940000D03*
X-403500Y12448000D03*
Y12194000D03*
Y11940000D03*
X-149500Y12956000D03*
Y12702000D03*
X-403500Y12956000D03*
Y12702000D03*
X-149500Y13464000D03*
Y13210000D03*
X-403500Y13464000D03*
Y13210000D03*
X8774500Y5590000D03*
X9028500D03*
X8774500Y5844000D03*
Y6098000D03*
X9028500Y5844000D03*
Y6098000D03*
X8774500Y6352000D03*
Y6606000D03*
X9028500Y6352000D03*
Y6606000D03*
X8774500Y6860000D03*
Y7114000D03*
X9028500Y6860000D03*
Y7114000D03*
X8774500Y7368000D03*
Y7622000D03*
Y7876000D03*
X9028500Y7368000D03*
Y7622000D03*
Y7876000D03*
X8774500Y8130000D03*
Y8384000D03*
X9028500Y8130000D03*
Y8384000D03*
X8774500Y8638000D03*
Y8892000D03*
X9028500Y8638000D03*
Y8892000D03*
X8774500Y9146000D03*
Y9400000D03*
X9028500Y9146000D03*
Y9400000D03*
X8774500Y9654000D03*
Y9908000D03*
Y10162000D03*
X9028500Y9654000D03*
Y9908000D03*
Y10162000D03*
X8774500Y10416000D03*
Y10670000D03*
X9028500Y10416000D03*
Y10670000D03*
X8774500Y10924000D03*
Y11178000D03*
X9028500Y10924000D03*
Y11178000D03*
X8774500Y11432000D03*
Y11686000D03*
X9028500Y11432000D03*
Y11686000D03*
X8774500Y11940000D03*
Y12194000D03*
Y12448000D03*
X9028500Y11940000D03*
Y12194000D03*
Y12448000D03*
X8774500Y12702000D03*
Y12956000D03*
X9028500Y12702000D03*
Y12956000D03*
X8774500Y13210000D03*
Y13464000D03*
X9028500Y13210000D03*
Y13464000D03*
X9282500Y5590000D03*
Y5844000D03*
Y6098000D03*
Y6352000D03*
Y6606000D03*
Y6860000D03*
Y7114000D03*
Y7368000D03*
Y7622000D03*
Y7876000D03*
Y8130000D03*
Y8384000D03*
Y8638000D03*
Y8892000D03*
Y9146000D03*
Y9400000D03*
Y9654000D03*
Y9908000D03*
Y10162000D03*
Y10416000D03*
Y10670000D03*
Y10924000D03*
Y11178000D03*
Y11432000D03*
Y11686000D03*
Y11940000D03*
Y12194000D03*
Y12448000D03*
Y12702000D03*
Y12956000D03*
Y13210000D03*
Y13464000D03*
G54D13*
X-538900Y14787100D03*
X-157900Y14774400D03*
X1045900Y14672150D03*
Y15078550D03*
Y15281750D03*
Y14875350D03*
Y15484950D03*
Y15688150D03*
X766500D03*
X1045900Y16094550D03*
Y15891350D03*
Y16297750D03*
Y16704150D03*
Y16907350D03*
Y16500950D03*
Y17516950D03*
Y17313750D03*
Y17110550D03*
Y17720150D03*
Y17948750D03*
Y18151950D03*
Y18355150D03*
X1604700Y14570550D03*
Y14976950D03*
Y14773750D03*
Y15180150D03*
Y15383350D03*
Y15789750D03*
Y15586550D03*
Y16196150D03*
Y15992950D03*
Y16399350D03*
Y16602550D03*
Y16805750D03*
Y17008950D03*
Y17212150D03*
Y17415350D03*
Y17618550D03*
Y17821750D03*
Y18050350D03*
Y18253550D03*
Y18456750D03*
X1959000Y10467000D03*
X3281100Y14062550D03*
X3484300Y13846650D03*
X3627500Y1129400D03*
X3687500Y14062550D03*
X4313300Y13042000D03*
X6016840Y2130280D03*
X6029540Y4423900D03*
X6370700Y10298800D03*
X6586600Y10768700D03*
X6684700Y14410350D03*
X7548300Y14722950D03*
Y14926150D03*
Y15129350D03*
X7954700Y15230950D03*
Y14824550D03*
Y15027750D03*
X7548300Y15332550D03*
Y15738950D03*
Y15535750D03*
X7954700Y15434150D03*
Y15840550D03*
Y15637350D03*
X7548300Y16145350D03*
Y15942150D03*
Y16348550D03*
X7954700Y16043750D03*
Y16246950D03*
X7548300Y16754950D03*
Y16551750D03*
Y16958150D03*
X7954700Y16856550D03*
Y16450150D03*
Y16653350D03*
Y17059750D03*
G54D22*
X1887000Y10216000D03*
G54D23*
X2312500Y19138850D03*
X2249000Y19758850D03*
X2820500Y19138850D03*
X2693500D03*
X2566500D03*
X2439500D03*
X2884000Y19758850D03*
X2757000D03*
X2630000D03*
X2503000D03*
X2376000D03*
X3074500Y19138850D03*
X2947500D03*
X3011000Y19758850D03*
X3995000Y19138850D03*
X3868000D03*
X3741000D03*
X3614000D03*
X3931500Y19758850D03*
X3804500D03*
X3677500D03*
X3550500D03*
X4385000Y15707600D03*
X4559000Y15476600D03*
Y15957600D03*
X4503000Y19138850D03*
X4376000D03*
X4249000D03*
X4122000D03*
X4566500Y19758850D03*
X4439500D03*
X4312500D03*
X4185500D03*
X4058500D03*
X4986000Y15707600D03*
X5011000Y19138850D03*
X4884000D03*
X4757000D03*
X4630000D03*
X5074500Y19758850D03*
X4947500D03*
X4820500D03*
X4693500D03*
X5294000Y15303600D03*
X5677500Y19138850D03*
X5550500D03*
X5614000Y19758850D03*
X6185500Y19138850D03*
X6058500D03*
X5931500D03*
X5804500D03*
X6249000Y19758850D03*
X6122000D03*
X5995000D03*
X5868000D03*
X5741000D03*
X6439500Y19138850D03*
X6312500D03*
X6820500D03*
X6693500D03*
X6566500D03*
X6376000Y19758850D03*
X6757000D03*
X6630000D03*
X6503000D03*
X7074500Y19138850D03*
X6947500D03*
X7011000Y19758850D03*
X6884000D03*
G54D14*
X-754000Y15467700D03*
X-980800Y15310300D03*
Y16310300D03*
Y17310300D03*
Y18310300D03*
Y20310300D03*
X-487500Y15150400D03*
X-337500Y15467700D03*
X-360300Y16077300D03*
X-169800D03*
X-262500D03*
X19200Y16310300D03*
Y17310300D03*
Y18310300D03*
Y19310300D03*
Y20310300D03*
X598000Y3070000D03*
X373000Y2831200D03*
X533000D03*
X453000D03*
X613000D03*
X333000Y3351900D03*
X573000D03*
X409920Y3771000D03*
X496090D03*
X516000Y4208000D03*
X410200Y4601700D03*
Y4500100D03*
X312800Y5724500D03*
Y5804500D03*
Y5884500D03*
Y5964500D03*
X441420Y6528520D03*
X525420Y6612520D03*
X604800Y8254200D03*
X604900Y8635200D03*
X604800Y9016200D03*
X611400Y10254200D03*
Y10635200D03*
X494200Y12060300D03*
X269200Y13660300D03*
Y14260300D03*
X84200Y15480400D03*
X439800Y15797900D03*
X223900D03*
X439800Y15302600D03*
X849000Y3263000D03*
X1013000Y2831200D03*
X1093000D03*
X933000D03*
X773000D03*
X853000D03*
X693000D03*
X813000Y3351900D03*
X1053000D03*
X973200Y3804020D03*
X902080Y3776080D03*
X725300Y3898000D03*
X653000Y3351900D03*
X733000Y3353000D03*
X993070Y3886340D03*
X733000Y3351900D03*
X1156200Y3979400D03*
X1157600Y4444600D03*
X1151000Y4888600D03*
X972400Y4675100D03*
X743800D03*
X1146300Y5358500D03*
X1151000Y5129900D03*
X733650Y8597000D03*
X808100Y8571070D03*
X1025750Y8800200D03*
X1024000Y8876400D03*
X1074800Y9130400D03*
X858900Y10032100D03*
X717800Y9878300D03*
X780080Y9933120D03*
X965810Y9968600D03*
X903530Y9917800D03*
X846200Y10260700D03*
X1125600Y10667100D03*
X998600Y10654400D03*
X1062100Y10603600D03*
X1156200Y10443700D03*
X782700Y10184500D03*
X706500Y10806800D03*
X960500Y11251300D03*
X615060Y10786480D03*
Y10867760D03*
X871600Y11187800D03*
X935100Y11137000D03*
X1049400Y12368100D03*
X794200Y11935300D03*
X844200Y12685300D03*
X1062100Y12661000D03*
X973200Y12572100D03*
X922400Y12495900D03*
X1062100Y12876900D03*
Y12775300D03*
X844200Y13185300D03*
Y13660300D03*
Y14260300D03*
X897000Y18655400D03*
X894200Y18835300D03*
X1144200Y19085300D03*
X894200Y19335300D03*
X1144200Y19585300D03*
X894200Y20335300D03*
X1144200Y20085300D03*
X894200Y19835300D03*
X1532000Y4456800D03*
X1697100Y4228200D03*
X1196600Y4208000D03*
X1366900Y4672700D03*
X1646300Y5358500D03*
X1443100Y5282300D03*
X1747900Y5091800D03*
X1506600Y7377800D03*
X1582800Y8393200D03*
X1343200Y8116940D03*
X1700500Y8873000D03*
X1493900Y9346300D03*
X1303400Y9988920D03*
Y9854300D03*
X1493900D03*
X1491360Y9991460D03*
X1689760Y10026740D03*
X1693340Y9926740D03*
X1694940Y9826740D03*
X1519300Y10443700D03*
X1316100Y10629000D03*
X1303400Y10146400D03*
X1493900D03*
X1691000Y10193000D03*
X1684400Y10324200D03*
X1392300Y10667100D03*
X1544700Y10349600D03*
X1201800Y10341580D03*
X1684400Y10870300D03*
X1328800Y10717900D03*
X1417700Y11911700D03*
X1582800D03*
X1683600D03*
X1481200Y12292700D03*
X1226600Y12280000D03*
X1683600Y12254600D03*
X1595500Y12737200D03*
Y12508600D03*
X1711100Y12509900D03*
X1595600Y12623000D03*
X1711100D03*
X1341500Y12648000D03*
X1607400Y13257900D03*
X1228900Y13065700D03*
X1608200Y12991200D03*
X1679620Y13410300D03*
X1369200Y13660300D03*
X1379600Y16496400D03*
X1316100Y16907350D03*
X1392300Y17055200D03*
X1614000Y19157600D03*
X1394200Y18835300D03*
X1644200Y19035300D03*
X1550500Y19767200D03*
Y19411600D03*
X1674240Y19679020D03*
X1394200Y19335300D03*
X1614000Y20021200D03*
X1394200Y20335300D03*
X2273000Y2831200D03*
X2284000Y3874000D03*
X2233000Y3341700D03*
X2309430Y3778620D03*
X2268600Y4220700D03*
X2294000Y4355200D03*
X2167000Y4507600D03*
X2168600Y4610600D03*
X2217800Y4850500D03*
X1951100Y4952100D03*
X1874900Y5004650D03*
X2154300Y5396600D03*
X1887600Y5104500D03*
X2052700D03*
X1874900Y5218800D03*
X2268600Y5282300D03*
X2090800D03*
X1811400Y5155300D03*
X2012300Y5724500D03*
X2013100Y5804500D03*
X2009300Y5884500D03*
X2011000Y5964500D03*
X1824100Y6590300D03*
Y6680300D03*
X1874000Y7022200D03*
X2034000D03*
X1954000D03*
X1794000D03*
X1907580Y8399220D03*
X2154300Y8493200D03*
X2116200Y8793200D03*
X2154300Y8965300D03*
Y8587180D03*
X1874900Y9185300D03*
X2299800Y9359000D03*
X1849500Y9346300D03*
X1926000Y9669000D03*
X2221700Y9685300D03*
X2217800Y9867000D03*
X1798700Y9676500D03*
X1947000Y10016700D03*
X1798700Y10017000D03*
X2243200Y10298800D03*
Y10209900D03*
X2176500Y10635300D03*
X1975000Y10220000D03*
X2032000Y10345000D03*
X1845800Y10364050D03*
X1795000Y10262450D03*
X1887600Y11060800D03*
X2014600Y10819500D03*
X1862200Y11505300D03*
X1886800Y11911700D03*
X2026500D03*
X1760600D03*
X1959700Y12373000D03*
X2065400Y12749900D03*
X1811400Y12762600D03*
X2052200Y12598000D03*
X2103500Y12495900D03*
X2179700Y12775300D03*
X1912200Y13308700D03*
X2051900D03*
X1785200Y13257100D03*
Y13004700D03*
X1764020Y13448400D03*
X1975090Y14812470D03*
X1834490Y15038960D03*
X2257570Y14814330D03*
X2229450Y15136650D03*
X2116200Y15719160D03*
X2241380Y15348430D03*
X2253650Y15569950D03*
X2055540Y15425930D03*
X1889030Y15269950D03*
X2254030Y16134710D03*
X2032380Y16176360D03*
X2253080Y15991970D03*
X2249500Y16349990D03*
Y16519950D03*
Y16719950D03*
X2264410Y16953120D03*
X2266080Y17469950D03*
X2262710Y17277530D03*
X2151850Y17369950D03*
X2258540Y17147230D03*
X2044200Y18560300D03*
X1894200Y18835300D03*
X2144200Y19035300D03*
X2309240Y19679020D03*
X2182240D03*
X2055240D03*
X1928240D03*
X1925700Y19460580D03*
X2052700D03*
X2179700D03*
X2306700D03*
X1801240Y19679020D03*
X1798700Y19460580D03*
X2187320Y20052400D03*
X2314320D03*
X1894200Y20335300D03*
X2433000Y2526400D03*
X2564000Y3066000D03*
X2643000Y3060000D03*
X2435450Y3313000D03*
X2833000Y2831200D03*
X2673000D03*
X2753000D03*
X2353000D03*
X2593000D03*
X2513000D03*
X2833500Y3880000D03*
X2740000Y3334000D03*
X2876090Y3788780D03*
X2789920D03*
X2395600Y3778620D03*
X2553000Y3356900D03*
X2490600Y3898000D03*
X2725800D03*
X2633000Y3355800D03*
X2319400Y3992100D03*
X2509900Y4850500D03*
X2789300D03*
X2496400Y4687800D03*
X2725000D03*
X2802000Y5396600D03*
X2852800Y5041000D03*
X2789300Y5104500D03*
X2725800Y5155300D03*
X2509900D03*
X2535300Y5282300D03*
X2751200Y6476100D03*
X2543200Y7166700D03*
X2326300Y8876400D03*
X2844200Y9085300D03*
X2471800Y9435200D03*
X2408300Y9185300D03*
X2611500Y9371700D03*
X2580700Y9041500D03*
X2744200Y9485300D03*
Y9385300D03*
Y9285300D03*
X2611500Y9663800D03*
X2744200Y9985300D03*
X2624200Y9930500D03*
X2700400Y9881450D03*
X2744200Y9685300D03*
Y9585300D03*
X2463000Y9685300D03*
X2744200Y9785300D03*
X2484500Y9867000D03*
X2573400Y10603600D03*
X2644520Y10428340D03*
X2744200Y10285300D03*
X2509900Y10209900D03*
X2744200Y10585300D03*
X2444200Y10435300D03*
X2744200Y10685300D03*
X2414600Y10635300D03*
X2421000Y11060800D03*
X2844200Y11085300D03*
X2744200Y10785300D03*
Y11185300D03*
X2644200Y11085300D03*
X2744200Y10985300D03*
Y10885300D03*
X2421000Y10819500D03*
X2843400Y11487700D03*
X2357500Y11632300D03*
X2506100Y12187300D03*
X2382900Y12388100D03*
X2699600Y12213960D03*
X2870580Y12094580D03*
X2548400Y12711400D03*
X2388400Y12757100D03*
X2370200Y12495900D03*
X2548400Y12457800D03*
X2814700Y14553300D03*
X2564880Y15207430D03*
X2532850Y15057990D03*
X2539750Y15578930D03*
X2585300Y15356870D03*
X2538300Y15473600D03*
X2539460Y15723600D03*
X2578740Y16023600D03*
X2594830Y16223600D03*
X2546970Y16324190D03*
X2541760Y15923600D03*
X2547500Y16596750D03*
X2549410Y16492620D03*
X2584040Y17125420D03*
X2580400Y17291130D03*
X2581670Y16973600D03*
X2369200Y18060300D03*
X2436240Y19679020D03*
X2817240D03*
X2690240D03*
X2563240D03*
X2433700Y19460580D03*
X2687700D03*
X2814700D03*
X2560700D03*
X2441320Y20052400D03*
X2568320D03*
X2695320D03*
X2822320D03*
X2394200Y20335300D03*
X2993000Y2831200D03*
X2913000D03*
X2953000Y3353300D03*
X2894200Y4447400D03*
X2954400Y4220700D03*
X2906200Y4093700D03*
X3005200Y4990200D03*
X3094100Y5142600D03*
X3386200Y5930000D03*
X3437000Y6006200D03*
X3257450D03*
X3030600Y6222100D03*
X3322700Y6463400D03*
X3310700Y6717400D03*
X3183700D03*
X3056700D03*
X2929700D03*
X3437000Y6260200D03*
X3141300D03*
X3310700Y7758100D03*
X3183700D03*
X3056700Y7758800D03*
X2970200Y8187500D03*
X3050200Y8184800D03*
X3130200Y8188600D03*
X3210200Y8188800D03*
X3081400Y8901800D03*
X2930700Y8939900D03*
X3398900Y8990700D03*
X3244200Y9285300D03*
X2944200Y9485300D03*
X3344200D03*
X3044200Y9285300D03*
X3444200D03*
X3244200Y9385300D03*
Y9085300D03*
X3144200Y9285300D03*
X3244200Y9485300D03*
X3444200D03*
Y9385300D03*
Y9085300D03*
X3344200Y9385300D03*
Y9285300D03*
Y9085300D03*
X3044200Y9485300D03*
X2944200Y9385300D03*
Y9285300D03*
X3244200Y9785300D03*
X3144200Y10085300D03*
X3044200Y9685300D03*
X2944200Y9785300D03*
X3444200Y9585300D03*
X2944200D03*
X3344200Y9685300D03*
X3444200Y10085300D03*
X3044200Y9985300D03*
X3144200D03*
X3044200Y9785300D03*
X3144200D03*
X2944200Y9685300D03*
X3444200D03*
X3344200Y9585300D03*
X3244200Y9685300D03*
X3144200D03*
X3344200Y9985300D03*
Y9885300D03*
X3244200Y9585300D03*
X3144200D03*
X3044200D03*
X3444200Y9885300D03*
X3344200Y9785300D03*
X3244200Y10085300D03*
X3044200D03*
X3244200Y9885300D03*
Y9985300D03*
Y10585300D03*
X3044200D03*
Y10385300D03*
X2942600Y10286100D03*
X2944200Y10685300D03*
X3244200Y10185300D03*
X3444200Y10385300D03*
Y10585300D03*
X3344200Y10185300D03*
X3044200Y10485300D03*
X3144200D03*
X2944200Y10585300D03*
X3044200Y10685300D03*
X3144200D03*
X3344200Y10385300D03*
X3244200D03*
X3144200Y10185300D03*
X3044200D03*
X3344200Y10685300D03*
Y10585300D03*
X3144200D03*
Y10385300D03*
X2944200Y10485300D03*
X3444200Y10985300D03*
X3044200Y10785300D03*
X2944200Y10885300D03*
X3444200Y11085300D03*
Y11185300D03*
X3344200Y10985300D03*
Y11185300D03*
X3244200D03*
X3044200D03*
X3244200Y10885300D03*
Y11085300D03*
X2944200Y10785300D03*
X3244200Y10985300D03*
X3444200Y10885300D03*
X3144200Y11185300D03*
Y11085300D03*
X3044200Y10985300D03*
X3344200Y10885300D03*
Y10785300D03*
X2944200Y11185300D03*
X3044200Y11085300D03*
X3144200Y10985300D03*
X2944200D03*
X3044200Y10885300D03*
X3144200D03*
X3444200Y10785300D03*
X3144200D03*
X3344200Y11085300D03*
X3284600Y11594200D03*
X3386200D03*
X3244200Y11285300D03*
X3348100Y11454500D03*
X3081400Y11581500D03*
X3386200Y11683100D03*
X3284600D03*
X3444200Y11285300D03*
X3044200D03*
X3194200Y11423000D03*
X3284600Y12229200D03*
X3386200D03*
X3133950Y12355490D03*
X3144200Y12877600D03*
X3348100Y12699100D03*
X3233800Y12495900D03*
X3348100Y13372200D03*
X3271900Y13458930D03*
X3144200Y13308000D03*
X3271900Y13550000D03*
X3297300Y14680300D03*
X3290360Y15201090D03*
X3295130Y14872280D03*
X3355120Y14771910D03*
X3005200Y14769200D03*
X2951850Y14973600D03*
X3014500Y15075950D03*
X3015930Y14873600D03*
X3394500Y15675300D03*
X3287510Y15669950D03*
X3285500Y15527590D03*
X3328500Y15425950D03*
X3003470Y15559040D03*
X3015930Y15673600D03*
X3011320Y15265700D03*
Y15373600D03*
X2981050Y15773600D03*
X3285760Y16069950D03*
X2981270Y16173600D03*
X3017090Y15873600D03*
X2994010Y16353630D03*
X3015930Y16073600D03*
X3404720Y16166730D03*
X2983170Y15973600D03*
X3022190Y16619330D03*
X3128700Y16831150D03*
X2995420Y16463760D03*
X3209210Y16717240D03*
X3282920Y17369950D03*
X3056000Y17487000D03*
X3004910Y17073360D03*
X3282670Y17224470D03*
X3337330Y17122020D03*
X3398900Y17017100D03*
X3282920Y17019950D03*
X2991950Y16954600D03*
X3005960Y17280860D03*
X2962900Y17180020D03*
X3144900Y17487000D03*
X2954220Y17374670D03*
X3043300Y17652100D03*
X3369200Y17660300D03*
X3444200Y18835300D03*
X3344200Y19035300D03*
X3071240Y19679020D03*
X3068700Y19460580D03*
X3195700D03*
X3344200Y19785300D03*
X2944240Y19679020D03*
X2941700Y19460580D03*
X3344200Y19285300D03*
X3076320Y20052400D03*
X3394200Y20335300D03*
X3344200Y20085300D03*
X2949320Y20052400D03*
X2894200Y20335300D03*
X3686000Y625000D03*
X3767200Y1604500D03*
X3627500Y1650100D03*
X3923760Y2577200D03*
X3652900Y6069700D03*
X3602100Y5866500D03*
X3475100Y5777600D03*
X3884700Y5701400D03*
X3538610Y6107800D03*
X3538600Y6006200D03*
X3884700Y5984000D03*
X3957700Y6692000D03*
X3881500Y6615800D03*
X3792600Y6692000D03*
X3678300Y6311000D03*
X3919200Y6460300D03*
X3487800Y6387200D03*
X3589400Y6184000D03*
X3643200Y6831700D03*
X3881700Y7204380D03*
X3643200Y7174600D03*
X3780700Y7263500D03*
X3995800D03*
X3494200Y7714400D03*
X3941600Y7603000D03*
X3805000Y7644800D03*
X3856100Y8317600D03*
X3652900Y8152500D03*
X3678300Y8647800D03*
X3983100Y8749400D03*
X3678300Y8800200D03*
X3868800Y8876400D03*
X3983100Y9003400D03*
X3644200Y9285300D03*
X3983100Y9092300D03*
X3744200Y9485300D03*
Y9385300D03*
Y9285300D03*
X3844200D03*
Y9485300D03*
X3644200D03*
Y9385300D03*
X3544200Y9485300D03*
Y9385300D03*
X3844200D03*
X3644200Y9985300D03*
X3844200D03*
X3544200Y9785300D03*
X3844200Y9585300D03*
Y10085300D03*
X3644200Y9885300D03*
X3844200D03*
X3544200Y9985300D03*
X3744200Y9585300D03*
Y9685300D03*
X3844200D03*
Y9785300D03*
X3644200Y9585300D03*
Y9685300D03*
X3544200Y9585300D03*
Y9685300D03*
X3744200Y9885300D03*
X3844200Y10485300D03*
X3744200Y10585300D03*
Y10385300D03*
X3644200Y10485300D03*
Y10285300D03*
Y10685300D03*
X3844200Y10185300D03*
Y10585300D03*
Y10385300D03*
X3644200Y10585300D03*
X3744200Y10485300D03*
X3644200Y10385300D03*
Y10185300D03*
X3744200D03*
Y10685300D03*
X3544200D03*
X3944200D03*
X3844200Y10985300D03*
X3944200Y10885300D03*
Y10985300D03*
X3844200Y10885300D03*
Y11085300D03*
X3744200Y10885300D03*
Y10985300D03*
Y11085300D03*
Y11185300D03*
X3644200Y10885300D03*
Y11085300D03*
Y11185300D03*
X3544200Y10885300D03*
Y10985300D03*
Y11085300D03*
X3538600Y11187800D03*
X3644200Y10985300D03*
X3844200Y10785300D03*
X3644200Y11285300D03*
X3640200Y11568800D03*
X3543400Y11287700D03*
X3844200Y11285300D03*
X3475100Y11429100D03*
X3694200Y12305400D03*
X3892900Y12624200D03*
X3500500Y12673700D03*
X3671770Y12762600D03*
X3577920D03*
X3607200Y13075000D03*
X3995800Y13384900D03*
X3970400Y13296000D03*
X3830700Y13372200D03*
X3805300Y13461100D03*
X3741800Y13537300D03*
X3602100Y13372200D03*
X3551300Y13435700D03*
X3702500Y13256700D03*
X3892900Y13256600D03*
X3899500Y13588100D03*
X3868800Y13677000D03*
X3676550Y13740500D03*
X3602100Y13626200D03*
X3475100Y13550000D03*
X3576700Y14680300D03*
X3779900D03*
X3578920Y15138950D03*
X3869200Y14860300D03*
X3576700Y15442300D03*
X3687480Y15769950D03*
X3844200Y15485300D03*
X3580920Y15263950D03*
X3596250Y16064400D03*
X3690330Y15969950D03*
X3679250Y16269950D03*
X3488650Y16390550D03*
X3691000Y16521800D03*
X3869200Y16685300D03*
X3477020Y16604490D03*
X3476050Y16723180D03*
X3589120Y16449660D03*
X3894200Y16410300D03*
Y17185300D03*
X3729100Y17550500D03*
X3944200Y17560300D03*
X3617340Y19681560D03*
X3871340D03*
X3998340D03*
X3995800Y19463120D03*
X3744340Y19681560D03*
X3868800Y19463120D03*
X3741800D03*
X3617340Y20072720D03*
X3744340D03*
X3998340D03*
X3871340D03*
X3894200Y20335300D03*
X4135500Y354700D03*
X4134700Y252300D03*
X4427600Y530500D03*
X4035000Y579000D03*
X4022820Y2577200D03*
X4278960Y2484540D03*
X4582540Y2994300D03*
X4440300Y2945500D03*
X4351400Y4896220D03*
X4304880Y4791280D03*
X4284700Y5701400D03*
X4440300Y6724700D03*
X4033900Y6615800D03*
X4440300Y6978700D03*
X4414900Y7230600D03*
X4046600Y7200000D03*
X4326000Y7434800D03*
X4503800Y7415900D03*
X4351400Y7644800D03*
X4554600Y8292200D03*
X4338730Y8273640D03*
X4338700Y8358350D03*
X4194200Y8441000D03*
X4193930Y8961000D03*
X4444200Y8622400D03*
Y8952600D03*
X4351400Y8470000D03*
X4144200Y9285300D03*
X4544200D03*
Y9085300D03*
Y9385300D03*
Y9485300D03*
X4444200Y9085300D03*
X4244200Y9385300D03*
X4144200Y9485300D03*
X4244200D03*
X4344200Y9285300D03*
Y9085300D03*
Y9385300D03*
Y9485300D03*
X4244200Y9085300D03*
X4044200Y9385300D03*
X4244200Y9285300D03*
X4444200Y9385300D03*
Y9485300D03*
X4144200Y9385300D03*
X4044200Y9285300D03*
X4544200Y9785300D03*
X4044200Y10085300D03*
X4344200Y9585300D03*
X4044200Y9685300D03*
X4144200D03*
X4444200Y9585300D03*
X4244200Y9985300D03*
X4144200Y10085300D03*
X4344200D03*
X4444200Y9985300D03*
X4144200Y9885300D03*
X4344200Y9685300D03*
X4144200Y9585300D03*
X4544200D03*
X4044200D03*
X4244200Y9885300D03*
X4044200D03*
X4244200Y10385300D03*
X4144200Y10485300D03*
X4044200Y10585300D03*
Y10385300D03*
X4144200Y10185300D03*
Y10285300D03*
Y10385300D03*
X4244200Y10485300D03*
X4144200Y10585300D03*
X4044200Y10485300D03*
Y10185300D03*
X4544200Y10285300D03*
X4444200Y10485300D03*
X4344200Y10385300D03*
Y10985300D03*
X4144200Y10885300D03*
X4444200Y10985300D03*
Y11085300D03*
Y11185300D03*
X4344200D03*
X4244200Y10885300D03*
Y10985300D03*
Y11085300D03*
Y11185300D03*
X4144200Y11085300D03*
Y11185300D03*
X4044200Y11085300D03*
Y11185300D03*
X4544200Y11085300D03*
Y11185300D03*
X4444200Y10885300D03*
X4544200Y10985300D03*
X4144200D03*
X4446600Y10786100D03*
X4544200Y10885300D03*
X4344200Y11085300D03*
X4287970Y11834700D03*
X4144200Y11285300D03*
X4544200D03*
X4287900Y11479900D03*
X4444510Y11837000D03*
X4544060Y11838870D03*
X4344200Y11285300D03*
X4444310Y11597010D03*
X4544390Y11594050D03*
X4290590Y11599300D03*
X4414900Y13270600D03*
X4351400Y13181700D03*
X4199000Y13397600D03*
X4135500Y13245200D03*
X4099500Y13359500D03*
X4046600Y13486500D03*
X4448450Y14062550D03*
X4449500Y14678320D03*
X4544200Y15210300D03*
X4224400Y14743800D03*
X4097400Y16902800D03*
X4419200Y16410300D03*
Y17010300D03*
X4499500Y17713900D03*
X4419200Y17560300D03*
X4125340Y19681560D03*
X4249800Y19463120D03*
X4122800D03*
X4506340Y19681560D03*
X4503800Y19463120D03*
X4252340Y19681560D03*
X4379340D03*
X4376800Y19463120D03*
X4125340Y20072720D03*
X4379340D03*
X4252340D03*
X4506340D03*
X4344200Y20335300D03*
X4658060Y-115200D03*
X5039740Y2094300D03*
X5054980Y4172020D03*
X4814620Y4412020D03*
X4597780Y5072020D03*
X4748300Y5701400D03*
X5148300D03*
X4748300Y5984000D03*
X4969200Y6460300D03*
X4808600Y6724700D03*
X4841500Y7598900D03*
X5108200D03*
X4882100Y7829400D03*
X4994200Y8355700D03*
X4614800Y7946000D03*
X4844200Y8398000D03*
X4745100Y8660500D03*
Y8914500D03*
X4594200Y8622400D03*
Y8952600D03*
X4744200Y9085300D03*
X5144200Y9485300D03*
X4944200D03*
X4744200D03*
X4644200Y9085300D03*
Y9285300D03*
Y9385300D03*
X5049900Y9179600D03*
X4644200Y9485300D03*
X4844200Y9285300D03*
X4944200D03*
X4744200Y9385300D03*
X4845000Y9082900D03*
X4945000D03*
X4844200Y9385300D03*
X5144200D03*
X4744200Y9285300D03*
X4844200Y9485300D03*
X4644200Y9585300D03*
X4744200Y9785300D03*
X4944200Y9985300D03*
X4644200Y10085300D03*
X4944200Y9585300D03*
Y9785300D03*
X4644200Y9885300D03*
Y9685300D03*
X4744200Y9585300D03*
X5144200Y9885300D03*
Y9785300D03*
X4744200Y9885300D03*
X4844200Y9685300D03*
X5144200D03*
Y9585300D03*
X4844200Y10085300D03*
X5144200D03*
Y9985300D03*
X4844200Y9885300D03*
X4944200D03*
X4844200Y9785300D03*
X4644200D03*
X4744200Y9685300D03*
X4944200D03*
X4844200Y9585300D03*
X4744200Y10085300D03*
X4944200D03*
X4844200Y9985300D03*
X4744200D03*
X4944200Y10485300D03*
X4644200Y10585300D03*
X5144200Y10385300D03*
X4944200D03*
X5144200Y10485300D03*
X4844200D03*
X4944200Y10685300D03*
X4644200Y10385300D03*
X4944200Y10185300D03*
X5144200D03*
X4844200D03*
X5144200Y10685300D03*
X4844200Y10585300D03*
X4744200Y10485300D03*
X4844200Y10385300D03*
X4744200Y10185300D03*
X4844200Y10685300D03*
X4744200Y10585300D03*
X4644200Y10485300D03*
X4744200Y10385300D03*
X4644200Y10285300D03*
X4744200Y11085300D03*
X4746600Y10786100D03*
X4944200Y10885300D03*
X4744200Y11185300D03*
X4844200Y10885300D03*
Y10985300D03*
X4744200Y10885300D03*
X5144200Y10985300D03*
X4944200D03*
Y11085300D03*
X4646600Y10786100D03*
X4844200Y11085300D03*
X4840550Y11180850D03*
X4944200Y11485300D03*
X5044200D03*
X4744200Y11285300D03*
X4836000Y11605300D03*
Y11930700D03*
X4994200Y11937100D03*
X5100700Y12978500D03*
X4891150Y12972150D03*
X5099500Y13462300D03*
X4745100Y13410300D03*
X4694300Y13283300D03*
X4637150Y12997550D03*
X4592700Y13473800D03*
X4795900Y14083400D03*
X5056250Y13588100D03*
X4846700Y13575400D03*
X4913570Y15123920D03*
X5136990Y14995480D03*
X4969200Y14785300D03*
X4869200Y16060300D03*
Y16410300D03*
Y17010300D03*
Y17560300D03*
X5144200Y18835300D03*
X4760340Y19681560D03*
X4757800Y19463120D03*
X5014340Y19681560D03*
X5138800Y19463120D03*
X4887340Y19681560D03*
X5011800Y19463120D03*
X4884800D03*
X4633340Y19681560D03*
X4630800Y19463120D03*
X4760340Y20072720D03*
X4887340D03*
X5014340D03*
X4794200Y20335300D03*
X4633340Y20072720D03*
X5416780Y300500D03*
Y377260D03*
Y224860D03*
X5603060Y114220D03*
X5526300D03*
X5678700D03*
X5527420Y486780D03*
X5679820D03*
X5603060D03*
X5342000Y530500D03*
X5532500Y1424040D03*
Y1523100D03*
X5571720Y2764300D03*
Y2688660D03*
X5681240Y2578020D03*
X5571720Y2841060D03*
X5682360Y2950580D03*
X5496940Y2994300D03*
X5555360Y3697340D03*
Y3796400D03*
X5697600Y5028300D03*
X5696480Y4655740D03*
X5586960Y4842020D03*
Y4918780D03*
Y4766380D03*
X5512180Y5072020D03*
X5559640Y5991080D03*
Y6090140D03*
X5164200Y6722600D03*
X5544600Y6793600D03*
X5383300Y6768200D03*
X5278500Y7230600D03*
X5164200Y7232700D03*
X5253100Y7066300D03*
X5631500Y7555600D03*
X5541500D03*
X5294200Y8238400D03*
X5669200Y8241400D03*
X5494200Y8241200D03*
X5392800Y8838300D03*
Y8939900D03*
X5659500Y9117700D03*
X5583300Y9168500D03*
X5418900Y9485300D03*
X5684900Y9757400D03*
X5410200D03*
X5425700Y9630900D03*
X5678590Y10693720D03*
X5634100Y11085300D03*
X5586300Y10936800D03*
X5192650Y10895700D03*
X5319600Y10936800D03*
X5278500Y11086200D03*
X5352500Y11659900D03*
X5659500Y11314800D03*
X5596000Y11378300D03*
X5176870Y11933980D03*
X5612500Y11852020D03*
X5507100Y13270600D03*
X5443600Y13359500D03*
X5202300Y13397600D03*
X5596000Y13423000D03*
X5494400Y13867500D03*
X5299500Y13626200D03*
X5249500Y13702400D03*
X5697600D03*
X5696650Y14920610D03*
X5288900Y15131220D03*
X5172330Y14875920D03*
X5704250Y15472290D03*
X5390060Y16169950D03*
X5596540Y16036710D03*
X5704500Y16357510D03*
X5405500Y15953950D03*
X5709680Y16514290D03*
X5508640Y16688150D03*
X5409440Y16919950D03*
X5369200Y16410300D03*
X5240680Y17069950D03*
X5601400Y17119950D03*
X5498390Y17475640D03*
X5354500Y17258370D03*
X5244200Y19035300D03*
X5674740Y19679020D03*
X5294200Y19785300D03*
Y19285300D03*
X5672200Y20075260D03*
X5545200D03*
X5294200Y20335300D03*
Y20085300D03*
X6131140Y-399560D03*
X5789340Y376140D03*
Y223740D03*
Y300500D03*
X6171780Y1873740D03*
X5944280Y2687540D03*
Y2764300D03*
X5833640Y2578020D03*
X5758000D03*
X5944280Y2839940D03*
X5834760Y2950580D03*
X5758000D03*
X6187020Y4167360D03*
X5850000Y5028300D03*
X5848880Y4655740D03*
X5959520Y4917660D03*
Y4765260D03*
Y4842020D03*
X5773240Y5028300D03*
Y4655740D03*
X5844200Y6735300D03*
X6192900Y7161900D03*
X6015100D03*
X6192900Y6966900D03*
X6197600Y7661900D03*
X5994200Y7839500D03*
X6194200Y7836300D03*
X6010400Y7661900D03*
X5764300Y7596900D03*
X5926200Y8939900D03*
Y8851000D03*
X6244200Y8835300D03*
X6194200Y8583000D03*
X5772100Y9335300D03*
X5773100Y9485300D03*
X6056700Y10095600D03*
X5768600Y9630900D03*
X6218300Y10502000D03*
X6034330Y10438500D03*
X6128180D03*
X5950380Y10489300D03*
X5856530D03*
X6034330Y10692500D03*
X6128180D03*
X5773800Y10679800D03*
X5799200Y11264000D03*
X6218300Y11022700D03*
X5748400Y11530700D03*
X6234400Y11755900D03*
X6180200Y11327500D03*
X6090200Y11860900D03*
X6243700Y12755100D03*
X5913500Y12838800D03*
X6243700Y12628100D03*
Y13263100D03*
X6096380Y13097880D03*
X5761100Y13283300D03*
X6243700Y13390100D03*
X6167490Y14045290D03*
X5989700Y13664300D03*
X6152560Y14536850D03*
X6194200Y14260300D03*
X5968320Y15122750D03*
X5734570Y15219360D03*
X5967860Y14923600D03*
X5869690Y15244170D03*
X5860470Y15023700D03*
X5932840Y15573600D03*
X5932380Y15467020D03*
X5951370Y15754000D03*
X5842500Y15665580D03*
X5930500Y15362890D03*
X5899950Y15973600D03*
X5953070Y16223600D03*
X5868800Y16354310D03*
X5949500Y15869950D03*
X5950900Y16073600D03*
X5952320Y16874560D03*
X5944100Y16532580D03*
X5945500Y16424770D03*
X5949500Y16719950D03*
X5839640Y17375030D03*
X5756710Y17255380D03*
X5949500Y17119950D03*
X5950610Y17002340D03*
X5944500Y17474950D03*
X5943440Y17323110D03*
X5944330Y17602080D03*
X5799500Y17673500D03*
X5926200Y19460580D03*
X5928740Y19679020D03*
X6055740D03*
X6182740D03*
X6180200Y19460580D03*
X6053200D03*
X5801740Y19679020D03*
X5799200Y19460580D03*
X6180200Y20075260D03*
X6053200D03*
X5926200D03*
X5799200D03*
X5794200Y20335300D03*
X6766140Y-145560D03*
X6639140D03*
X6512140D03*
X6766140Y-18560D03*
X6639140D03*
X6766140Y108440D03*
X6639140D03*
X6766140Y235440D03*
X6639140D03*
X6766140Y362440D03*
X6639140D03*
X6766140Y489440D03*
X6639140D03*
X6766140Y616440D03*
X6639140D03*
X6766140Y743440D03*
X6639140D03*
X6766140Y870440D03*
X6639140D03*
Y997440D03*
X6766140D03*
Y1124440D03*
X6639140D03*
X6806780Y2127740D03*
X6679780D03*
X6552780D03*
X6806780Y2254740D03*
X6679780D03*
X6806780Y2381740D03*
X6679780D03*
X6806780Y2508740D03*
X6679780D03*
X6806780Y2635740D03*
X6679780D03*
X6806780Y2762740D03*
X6679780D03*
X6806780Y2889740D03*
X6679780D03*
X6806780Y3016740D03*
X6679780D03*
X6806780Y3143740D03*
X6679780D03*
Y3270740D03*
X6806780D03*
Y3397740D03*
X6679780D03*
X6695020Y4421360D03*
X6822020D03*
X6568020D03*
X6822020Y4548360D03*
X6695020D03*
X6822020Y4675360D03*
X6695020D03*
X6822020Y4802360D03*
X6695020D03*
X6822020Y4929360D03*
X6695020D03*
X6822020Y5183360D03*
X6695020D03*
X6822020Y5310360D03*
X6695020D03*
X6822020Y5437360D03*
X6695020D03*
Y5564360D03*
X6822020D03*
Y5056360D03*
X6695020D03*
Y5691360D03*
X6822020D03*
X6344200Y6735300D03*
X6840600Y6730220D03*
X6824300Y7285300D03*
X6510970Y6780900D03*
X6510400Y6882500D03*
X6815200Y7025800D03*
X6535800Y7294800D03*
X6827900Y7441300D03*
Y7530200D03*
X6815200Y7675800D03*
X6459400Y7466900D03*
X6461030Y7643070D03*
X6485000Y7570050D03*
X6777100Y7885300D03*
X6497700D03*
X6485000Y8025500D03*
X6480470Y8114930D03*
X6345300Y8533500D03*
X6319900Y8622400D03*
X6345300Y8444600D03*
X6418000D03*
X6456700Y10095600D03*
X6627100Y10110700D03*
X6757500Y11258200D03*
X6612000Y11276700D03*
X6502900Y11754100D03*
X6676600Y11950900D03*
X6319200Y12110300D03*
X6744200Y12885300D03*
Y12460300D03*
X6769200Y13185300D03*
X6535790Y13930980D03*
X6364350Y13924650D03*
X6544200Y13610300D03*
X6707260Y13988160D03*
X6297430Y14585630D03*
X6419620Y14778250D03*
X6736170Y15669950D03*
X6429660Y15745060D03*
X6373910Y15650770D03*
X6735500Y15940630D03*
Y16094550D03*
X6643830Y16348550D03*
X6731520Y15819950D03*
X6430760Y16158180D03*
X6355070Y16023600D03*
X6430780Y15923600D03*
Y16275890D03*
X6472300Y16483700D03*
X6355500Y16623320D03*
X6396970Y16824270D03*
X6725560Y17172460D03*
X6356500Y17023600D03*
X6396970Y17173600D03*
X6319200Y17885300D03*
X6794200Y18835300D03*
X6436740Y19679020D03*
X6434200Y19460580D03*
X6563740Y19679020D03*
X6690740D03*
X6817740D03*
X6561200Y19460580D03*
X6815200D03*
X6688200D03*
X6309740Y19679020D03*
X6307200Y19460580D03*
X6434200Y20075260D03*
X6815200D03*
X6688200D03*
X6561200D03*
X6794200Y20335300D03*
X6307200Y20075260D03*
X6294200Y20335300D03*
X7401140Y-272560D03*
X6966160Y-155720D03*
X6893140Y-272560D03*
X7020140Y235440D03*
Y362440D03*
X7147140Y108440D03*
X7020140Y489440D03*
X7147140D03*
X6893140Y108440D03*
Y235440D03*
Y362440D03*
Y489440D03*
X7401140D03*
X7403700Y238000D03*
X7279000Y240300D03*
X7401140Y362440D03*
X7274140D03*
X7020140Y616440D03*
Y743440D03*
Y870440D03*
Y997440D03*
X7147140Y616440D03*
Y743440D03*
Y870440D03*
Y997440D03*
X6893140Y616440D03*
Y743440D03*
Y870440D03*
Y997440D03*
X7401140Y616440D03*
Y743440D03*
Y870440D03*
Y997440D03*
X7110000Y1210000D03*
X7231000Y1276000D03*
X7110000Y1591000D03*
Y1464000D03*
X7231000Y1530000D03*
X7110000Y1337000D03*
X7231000Y1403000D03*
X7020140Y1124440D03*
X7147140D03*
X6893140D03*
X7360100Y1442060D03*
Y1541120D03*
X7401140Y1124440D03*
X7231000Y1784000D03*
Y1657000D03*
X7110000Y1718000D03*
X7006800Y2117580D03*
X6933780Y2000740D03*
X7060780Y2508740D03*
Y2635740D03*
Y2762740D03*
X7187780Y2381740D03*
Y2762740D03*
X6933780Y2381740D03*
Y2508740D03*
Y2635740D03*
Y2762740D03*
X7316040Y2510000D03*
X7314780Y2635740D03*
X7060780Y2889740D03*
X7187780D03*
X7060780Y3016740D03*
Y3143740D03*
Y3270740D03*
X7187780Y3016740D03*
Y3143740D03*
Y3270740D03*
X6933780Y2889740D03*
Y3016740D03*
Y3143740D03*
Y3270740D03*
X7101000Y3884000D03*
Y3757000D03*
Y3630000D03*
Y3503000D03*
X7222000Y3569000D03*
Y3696000D03*
Y3823000D03*
X7060780Y3397740D03*
X7187780D03*
X6933780D03*
X7398200Y3715360D03*
Y3814420D03*
X7101000Y4011000D03*
X7222000Y3950000D03*
Y4077000D03*
X7022040Y4411200D03*
X6946390Y4293440D03*
X6949020Y4675360D03*
Y4802360D03*
Y4929360D03*
X7076020Y4802360D03*
Y4929360D03*
X7203020Y4675360D03*
X7328660Y4801000D03*
X7330020Y4929360D03*
X6949020Y5183360D03*
Y5310360D03*
Y5437360D03*
X7076020Y5183360D03*
Y5310360D03*
Y5437360D03*
X7203020Y5183360D03*
Y5310360D03*
Y5437360D03*
X6949020Y5564360D03*
X7076020D03*
X7203020D03*
X6949020Y5056360D03*
X7076020D03*
X7203020D03*
X7209000Y6100000D03*
Y5973000D03*
Y5846000D03*
X7088000Y5780000D03*
Y5907000D03*
Y6034000D03*
Y6161000D03*
X6949020Y5691360D03*
X7076020D03*
X7203020D03*
X7414900Y6008320D03*
Y6107380D03*
X7209000Y6354000D03*
Y6227000D03*
X7088000Y6288000D03*
X6967600Y6730100D03*
X7069200Y7294800D03*
X6944200Y7160300D03*
X7056500Y6793600D03*
Y6882500D03*
X7394200Y7710300D03*
X7069200Y7441300D03*
Y7530200D03*
X7361300Y7898500D03*
Y8000100D03*
X7043800Y8152500D03*
Y8254100D03*
X7138500Y8476900D03*
X7374000Y8609700D03*
X7228500Y8476900D03*
X7269200Y9735300D03*
X6916800Y10095600D03*
X7269200Y11010300D03*
X7365090Y11721200D03*
X7412100Y11657700D03*
X7145680Y11657980D03*
X7081900Y11733900D03*
X7132700Y12295600D03*
X7119200Y11960300D03*
X7178300Y12755100D03*
X7165600Y12628100D03*
X7170800Y13257900D03*
X6894200Y13935300D03*
X7183500Y13854800D03*
X7202550Y14051650D03*
X7194200Y14260300D03*
X7319200Y17685300D03*
Y18285300D03*
X7294200Y18835300D03*
X7069200Y19460580D03*
X7071740Y19679020D03*
X7196200Y19460580D03*
X7294200Y19335300D03*
X6944740Y19679020D03*
X6942200Y19460580D03*
X7294200Y20335300D03*
Y20035300D03*
X6942200Y20075260D03*
X7763700Y-128000D03*
X7676000Y-49000D03*
X7528140Y489440D03*
X7655140D03*
X7789780Y168000D03*
X7790000Y-59000D03*
X7763680Y391840D03*
Y264840D03*
X7718640Y44940D03*
X7528140Y-18560D03*
X7763120Y745420D03*
Y618420D03*
X7761540Y964980D03*
X7528140Y616440D03*
Y743440D03*
Y870440D03*
Y997440D03*
X7655140Y616440D03*
Y743440D03*
Y870440D03*
Y997440D03*
X7528140Y1124440D03*
X7655140D03*
X7761540Y1091980D03*
X7815160Y2150600D03*
X7441780Y2000740D03*
X7717440Y2237560D03*
X7568780Y2762740D03*
X7695780D03*
X7441780D03*
X7851310Y2420410D03*
X7826580Y2250000D03*
X7454810Y2521770D03*
X7441780Y2635740D03*
X7804720Y2666780D03*
Y2539780D03*
X7759280Y2318240D03*
X7568780Y2254740D03*
X7804720Y3017300D03*
Y2890300D03*
X7568780Y2889740D03*
X7695780D03*
X7802180Y3240820D03*
X7568780Y3016740D03*
Y3143740D03*
Y3270740D03*
X7695780Y3016740D03*
Y3143740D03*
Y3270740D03*
X7441780Y2889740D03*
Y3016740D03*
Y3143740D03*
Y3270740D03*
X7568780Y3397740D03*
X7695780D03*
X7441780D03*
X7802180Y3367820D03*
X7830400Y4444220D03*
X7457020Y4294360D03*
X7774520Y4611860D03*
X7860000Y4741000D03*
X7811000Y4526000D03*
X7462000Y4807340D03*
X7457020Y4929360D03*
X7818500Y4960360D03*
Y4833360D03*
X7584020Y4548360D03*
X7818500Y5183360D03*
Y5310360D03*
X7584020Y5183360D03*
Y5310360D03*
Y5437360D03*
X7711020Y5183360D03*
Y5310360D03*
Y5437360D03*
X7818500Y5564360D03*
X7584020D03*
X7711020D03*
X7457020Y5183360D03*
Y5310360D03*
Y5437360D03*
Y5564360D03*
X7584020Y5056360D03*
X7711020D03*
X7457020D03*
X7584020Y5691360D03*
X7711020D03*
X7457020D03*
X7818500D03*
X7479200Y6644800D03*
X7767300Y7035300D03*
X7494200Y7160300D03*
X7488300Y7301600D03*
X7491900Y7025800D03*
X7755000Y7675800D03*
Y8275800D03*
X7780400Y8038200D03*
Y8139800D03*
X7767700Y8597000D03*
X7988550Y8444600D03*
X7894700D03*
X7744200Y9735300D03*
X7894200Y11610300D03*
X7819200Y12260300D03*
X7494200Y11960300D03*
X7536200Y12295600D03*
X7819200Y12960300D03*
X7501000Y12628100D03*
X7819200Y13485300D03*
X7494200Y13860300D03*
X7819200Y14235300D03*
X7694200Y18835300D03*
X7494200Y19085300D03*
X7694200Y19335300D03*
X7494200Y19585300D03*
X7694200Y20335300D03*
Y20035300D03*
Y19835300D03*
X8148700Y-282720D03*
X8025000Y-47000D03*
X8029000Y154000D03*
X8288400Y396240D03*
Y297180D03*
Y47360D03*
Y-51700D03*
X8285380Y749820D03*
Y650760D03*
X8283800Y997320D03*
X8288400Y1434200D03*
Y1548500D03*
X8283800Y1096380D03*
X8199500Y1990580D03*
X8050940Y2330940D03*
X8326980Y2671180D03*
Y2572120D03*
Y2320660D03*
Y2221600D03*
Y3021700D03*
Y2922640D03*
X8324440Y3273160D03*
X8329040Y3821800D03*
Y3707500D03*
X8324440Y3372220D03*
X8199500Y4284200D03*
X8108690Y4550050D03*
X8104500Y4704990D03*
X8340760Y4614760D03*
Y4515700D03*
Y4964760D03*
Y4865700D03*
Y5314760D03*
Y5215700D03*
Y5565700D03*
X8343200Y6114760D03*
Y6000460D03*
X8340760Y5664760D03*
X8034400Y6644800D03*
X8534400Y6654800D03*
X8293100Y6793600D03*
Y6896100D03*
X8481000Y6949100D03*
X8391200D03*
X8288400Y7428600D03*
X8287840Y7549740D03*
X8015900Y8285300D03*
X8288400D03*
X8034400Y7894800D03*
X8094200Y9885300D03*
X8369200Y10460300D03*
X8294200Y11460300D03*
X8194200Y11910300D03*
X8344200Y13485300D03*
X8094200Y13860300D03*
X8344200Y14235300D03*
X8194200Y14685300D03*
Y15285300D03*
Y16285300D03*
Y17285300D03*
Y18285300D03*
Y18985300D03*
X8019200Y20285300D03*
X8620200Y6569000D03*
X8819200Y15285300D03*
Y16285300D03*
Y17285300D03*
Y18285300D03*
Y19285300D03*
Y20285300D03*
X9478860Y2377340D03*
X9471240Y3286660D03*
X9619200Y14685300D03*
Y15285300D03*
Y16285300D03*
Y17285300D03*
Y18285300D03*
Y20285300D03*
G54D15*
X0Y0D03*
Y1000000D03*
Y2000000D03*
X568000D03*
X858000Y0D03*
X1108000Y2000000D03*
X1425000Y500000D03*
Y1500000D03*
Y2500000D03*
Y3500000D03*
X1900000Y0D03*
Y1000000D03*
Y2000000D03*
X2758000Y0D03*
X2468000Y2000000D03*
X3325000Y500000D03*
Y1500000D03*
X3008000Y2000000D03*
X3325000Y2500000D03*
Y3500000D03*
G54D24*
X7952500Y17903950D03*
X7698500D03*
X7952500Y17649950D03*
X7698500D03*
X7952500Y18157950D03*
X7698500D03*
G54D25*
G01X-994750Y2638600D02*
Y2624460D01*
X-990740Y2611970D01*
X-981550Y2599950D01*
X-968110Y2592160D01*
X-954210Y2589570D01*
X-938410Y2593580D01*
X-925920Y2603710D01*
X-916960Y2617390D01*
X-915780Y2630350D01*
X-918380Y2644260D01*
X-925210Y2653920D01*
X-934880Y2660750D01*
X-951140Y2665710D01*
X-910830Y2698940D01*
X-879010Y2667120D01*
G01X2710870Y-1164700D02*
Y-1044700D01*
X2750870D01*
X2764200Y-1050700D01*
X2774200Y-1064700D01*
X2777530Y-1080700D01*
X2774200Y-1096700D01*
X2765870Y-1108700D01*
X2750870Y-1114700D01*
X2710870D01*
G01X2881870Y-1054700D02*
X2871870Y-1048700D01*
X2860200Y-1044700D01*
X2846870D01*
X2831860Y-1050700D01*
X2820200Y-1060700D01*
X2811870Y-1072700D01*
X2805200Y-1092700D01*
X2803530Y-1110700D01*
X2806870Y-1128700D01*
X2811870Y-1140700D01*
X2821870Y-1152700D01*
X2833530Y-1160700D01*
X2845200Y-1164700D01*
X2856870D01*
X2868530Y-1160700D01*
X2878530Y-1154700D01*
X2886870Y-1146700D01*
G01X2946200Y-1044700D02*
X2932860Y-1048700D01*
X2922870Y-1058700D01*
X2916200Y-1070700D01*
X2911200Y-1086700D01*
X2909530Y-1104700D01*
X2911200Y-1122700D01*
X2916200Y-1138700D01*
X2922870Y-1150700D01*
X2932860Y-1160700D01*
X2946200Y-1164700D01*
X2959530Y-1160700D01*
X2969530Y-1150700D01*
X2976200Y-1138700D01*
X2981200Y-1122700D01*
X2982870Y-1104700D01*
X2981200Y-1086700D01*
X2976200Y-1070700D01*
X2969530Y-1058700D01*
X2959530Y-1048700D01*
X2946200Y-1044700D01*
G01X3067200Y-1164700D02*
Y-1044700D01*
X3005530Y-1130700D01*
X3088870D01*
G01X3119870Y-1150700D02*
X3131530Y-1160700D01*
X3144870Y-1164700D01*
X3158200Y-1160700D01*
X3169870Y-1148700D01*
X3178200Y-1130700D01*
X3181530Y-1112700D01*
Y-1090700D01*
X3178200Y-1072700D01*
X3169870Y-1056700D01*
X3159870Y-1048700D01*
X3148200Y-1044700D01*
X3134860Y-1048700D01*
X3124870Y-1056700D01*
X3118200Y-1068700D01*
X3114870Y-1084700D01*
X3118200Y-1098700D01*
X3126530Y-1112700D01*
X3136530Y-1120700D01*
X3148200Y-1122700D01*
X3161530Y-1118700D01*
X3171530Y-1108700D01*
X3181530Y-1090700D01*
G01X3207530Y-1164700D02*
X3249200Y-1044700D01*
X3290870Y-1164700D01*
G01X3275870Y-1122700D02*
X3222530D01*
G01X3431200Y-1044700D02*
X3471200D01*
G01X3451200D02*
Y-1164700D01*
G01X3431200D02*
X3471200D01*
G01X3517200Y-1148700D02*
X3530530Y-1158700D01*
X3545530Y-1164700D01*
X3558870D01*
X3572200Y-1158700D01*
X3582200Y-1148700D01*
X3587200Y-1134700D01*
X3583870Y-1120700D01*
X3575530Y-1108700D01*
X3560530Y-1100700D01*
X3540530Y-1096700D01*
X3528870Y-1088700D01*
X3523870Y-1074700D01*
X3527200Y-1060700D01*
X3535530Y-1050700D01*
X3547200Y-1044700D01*
X3558870D01*
X3570530Y-1048700D01*
X3580530Y-1058700D01*
G01X3618200Y-1148700D02*
X3631530Y-1158700D01*
X3646530Y-1164700D01*
X3659870D01*
X3673200Y-1158700D01*
X3683200Y-1148700D01*
X3688200Y-1134700D01*
X3684870Y-1120700D01*
X3676530Y-1108700D01*
X3661530Y-1100700D01*
X3641530Y-1096700D01*
X3629870Y-1088700D01*
X3624870Y-1074700D01*
X3628200Y-1060700D01*
X3636530Y-1050700D01*
X3648200Y-1044700D01*
X3659870D01*
X3671530Y-1048700D01*
X3681530Y-1058700D01*
G01X3717530Y-1044700D02*
Y-1130700D01*
X3724200Y-1148700D01*
X3737530Y-1160700D01*
X3754200Y-1164700D01*
X3770870Y-1160700D01*
X3784200Y-1148700D01*
X3790870Y-1130700D01*
Y-1044700D01*
G01X3888530Y-1164700D02*
X3821870D01*
Y-1044700D01*
X3888530D01*
G01X3861870Y-1102700D02*
X3821870D01*
G01X4057200Y-1164700D02*
Y-1044700D01*
X4037200Y-1068700D01*
G01Y-1164700D02*
X4077200D01*
G01X4510870Y-1044700D02*
Y-1164700D01*
X4577530D01*
G01X4603530D02*
X4645200Y-1044700D01*
X4686870Y-1164700D01*
G01X4671870Y-1122700D02*
X4618530D01*
G01X4746200Y-1164700D02*
Y-1110700D01*
X4712870Y-1044700D01*
G01X4779530D02*
X4746200Y-1110700D01*
G01X4880530Y-1164700D02*
X4813870D01*
Y-1044700D01*
X4880530D01*
G01X4853870Y-1102700D02*
X4813870D01*
G01X4914870Y-1164700D02*
Y-1044700D01*
X4956530D01*
X4969870Y-1050700D01*
X4978200Y-1058700D01*
X4981530Y-1074700D01*
X4978200Y-1090700D01*
X4968200Y-1100700D01*
X4956530Y-1106700D01*
X4914870D01*
G01X4956530D02*
X4981530Y-1164700D01*
G01X5113530Y-1146700D02*
X5123530Y-1156700D01*
X5135200Y-1162700D01*
X5150200Y-1164700D01*
X5165200Y-1160700D01*
X5176870Y-1152700D01*
X5185200Y-1138700D01*
X5186870Y-1122700D01*
X5183530Y-1106700D01*
X5175200Y-1096700D01*
X5163530Y-1088700D01*
X5151870Y-1086700D01*
X5140200Y-1088700D01*
X5125200Y-1096700D01*
X5130200Y-1044700D01*
X5175200D01*
G01X5343870Y-1204700D02*
X5327200Y-1184700D01*
X5318870Y-1164700D01*
Y-1084700D01*
X5327200Y-1064700D01*
X5343870Y-1044700D01*
G01X5418200Y-1148700D02*
X5431530Y-1158700D01*
X5446530Y-1164700D01*
X5459870D01*
X5473200Y-1158700D01*
X5483200Y-1148700D01*
X5488200Y-1134700D01*
X5484870Y-1120700D01*
X5476530Y-1108700D01*
X5461530Y-1100700D01*
X5441530Y-1096700D01*
X5429870Y-1088700D01*
X5424870Y-1074700D01*
X5428200Y-1060700D01*
X5436530Y-1050700D01*
X5448200Y-1044700D01*
X5459870D01*
X5471530Y-1048700D01*
X5481530Y-1058700D01*
G01X5534200Y-1044700D02*
X5574200D01*
G01X5554200D02*
Y-1164700D01*
G01X5534200D02*
X5574200D01*
G01X5665200Y-1104700D02*
X5698530D01*
Y-1140700D01*
X5688530Y-1152700D01*
X5676870Y-1160700D01*
X5660200Y-1164700D01*
X5643530Y-1160700D01*
X5631870Y-1152700D01*
X5621870Y-1140700D01*
X5615200Y-1126700D01*
X5611870Y-1110700D01*
Y-1096700D01*
X5615200Y-1084700D01*
X5621870Y-1070700D01*
X5631870Y-1058700D01*
X5641860Y-1050700D01*
X5655200Y-1044700D01*
X5666870D01*
X5680200Y-1048700D01*
X5690200Y-1056700D01*
G01X5717870Y-1164700D02*
Y-1044700D01*
X5794530Y-1164700D01*
Y-1044700D01*
G01X5815530Y-1164700D02*
X5857200Y-1044700D01*
X5898870Y-1164700D01*
G01X5883870Y-1122700D02*
X5830530D01*
G01X5924870Y-1044700D02*
Y-1164700D01*
X5991530D01*
G01X6067530Y-1204700D02*
X6084200Y-1184700D01*
X6092530Y-1164700D01*
Y-1084700D01*
X6084200Y-1064700D01*
X6067530Y-1044700D01*
G54D16*
X0Y2750000D03*
Y2280000D03*
Y3250000D03*
X233000Y3710000D03*
X1193000D03*
X713000D03*
X1425000Y2750000D03*
Y2280000D03*
Y3250000D03*
X1900000Y2750000D03*
Y2280000D03*
Y3250000D03*
X2133000Y3710000D03*
X2613000D03*
X3325000Y2750000D03*
Y2280000D03*
Y3250000D03*
X3093000Y3710000D03*
G54D26*
G01X871600Y11187800D02*
Y11365600D01*
X348710Y11888490D01*
Y12949210D01*
X-20030Y13317950D01*
X-41550D01*
X-149500Y13210000D01*
G01X935100Y11137000D02*
Y11207330D01*
X911450Y11230980D01*
Y11235100D01*
X909700Y11236850D01*
Y11370920D01*
X379410Y11901210D01*
Y12961930D01*
X-7310Y13348650D01*
X-34150D01*
X-149500Y13464000D01*
G01X409920Y3771000D02*
Y3815670D01*
X437650Y3843400D01*
Y4173560D01*
X436250Y4174960D01*
Y4241040D01*
X437650Y4242440D01*
Y4412750D01*
X584200Y4559300D01*
Y7200900D01*
X1752600Y8369300D01*
Y9419820D01*
X2041000Y9708220D01*
Y10279720D01*
X2307580Y10546300D01*
X2411410D01*
X2620630Y10755520D01*
X2620640D01*
X2650420Y10785300D01*
X2744200D01*
G01X496090Y3771000D02*
Y3815660D01*
X468350Y3843400D01*
Y4186280D01*
X466950Y4187680D01*
Y4228320D01*
X468350Y4229720D01*
Y4400030D01*
X614900Y4546580D01*
Y7188180D01*
X1783300Y8356580D01*
Y9407100D01*
X2071700Y9695500D01*
Y10267000D01*
X2320300Y10515600D01*
X2416640D01*
X2637670Y10736630D01*
X2637680D01*
X2638600Y10737550D01*
X2781880D01*
X2829630Y10785300D01*
X2944200D01*
G01X3044200Y10685300D02*
X3040310D01*
X2991010Y10636000D01*
X2892940D01*
X2820990Y10564050D01*
Y10563990D01*
X2772950Y10515950D01*
X2772880D01*
X2750930Y10494000D01*
X2616010D01*
X2405950Y10283940D01*
Y10276460D01*
X2335700Y10206210D01*
Y9596410D01*
X2250750Y9511460D01*
Y7908330D01*
X869400Y6526980D01*
Y3933150D01*
X954460Y3848090D01*
Y3822760D01*
X973200Y3804020D01*
G01X3144200Y10685300D02*
X3096450Y10733050D01*
X2920050D01*
X2884980Y10697980D01*
Y10663970D01*
X2795590Y10574580D01*
Y10574520D01*
X2762420Y10541350D01*
X2762350D01*
X2740400Y10519400D01*
X2605470D01*
X2305000Y10218930D01*
Y9609130D01*
X2220050Y9524180D01*
Y7921050D01*
X844000Y6545000D01*
Y3922620D01*
X923760Y3842860D01*
Y3820750D01*
X912850Y3809840D01*
Y3809640D01*
X906150Y3802940D01*
Y3780150D01*
X902080Y3776080D01*
G01X733650Y8597000D02*
X782700Y8646050D01*
Y9813400D01*
X717800Y9878300D01*
G01X808100Y8571070D02*
Y9905100D01*
X780080Y9933120D01*
G01X1025750Y8800200D02*
X1073050Y8847500D01*
Y8896720D01*
X1016000Y8953770D01*
Y9848750D01*
X965810Y9898940D01*
Y9968600D01*
G01X903530Y9917800D02*
X990600Y9830730D01*
Y8943240D01*
X993800Y8940040D01*
Y8906600D01*
X1024000Y8876400D01*
G01X897000Y18655400D02*
X887620D01*
G03X816910Y18626110I1J-100000D01*
G01X634190Y18443390D01*
G03X604900Y18372680I70710J-70711D01*
G01Y11815520D01*
G03X634190Y11744810I100000J1D01*
G01X1058210Y11320790D01*
G02X1087500Y11250080I-70710J-70711D01*
G01Y11051420D01*
G02X1058210Y10980710I-100000J1D01*
G01X938990Y10861490D01*
G03X909700Y10790780I70710J-70711D01*
G01Y10505320D01*
G03X938990Y10434610I100000J1D01*
G01X1172510Y10201090D01*
G02X1201800Y10130380I-70710J-70711D01*
G01Y9413120D01*
G03X1231090Y9342410I100000J1D01*
G01X1700500Y8873000D01*
G01X973200Y12572100D02*
X971450Y12570350D01*
Y12475580D01*
X953100Y12457230D01*
Y11591320D01*
X1384900Y11159520D01*
Y10730580D01*
X1392300Y10723180D01*
Y10667100D01*
G01X922400Y12495900D02*
X935370Y12482930D01*
Y12482920D01*
X922400Y12469950D01*
Y11578600D01*
X1354200Y11146800D01*
Y10743300D01*
X1328800Y10717900D01*
G01X1795000Y10262450D02*
X1792430Y10265020D01*
Y10308430D01*
X1796750Y10312750D01*
Y10384370D01*
X1806100Y10393720D01*
Y11410510D01*
X1337950Y11878660D01*
Y11880630D01*
X1127300Y12091280D01*
Y12710100D01*
X1062100Y12775300D01*
G01X1845800Y10364050D02*
X1832830Y10377020D01*
Y10377030D01*
X1836800Y10381000D01*
Y11423230D01*
X1368650Y11891380D01*
Y11893350D01*
X1158000Y12104000D01*
Y12781000D01*
X1062100Y12876900D01*
G01X1594800Y14002900D02*
X1595500Y14002200D01*
Y13413620D01*
G03X1624790Y13342910I100000J1D01*
G01X1667810Y13299890D01*
G02X1697100Y13229180I-70710J-70711D01*
G01Y12804020D01*
G03X1726390Y12733310I100000J1D01*
G01X1794810Y12664890D01*
G02X1824100Y12594180I-70710J-70711D01*
G01Y11798940D01*
G03X1843150Y11752950I65030J-4D01*
G02X1862200Y11706960I-45980J-45986D01*
G01Y11505300D01*
G01X2194800Y14002900D02*
X2192400Y14000500D01*
Y13083420D01*
G02X2163110Y13012710I-100000J1D01*
G01X1916890Y12766490D01*
G03X1887600Y12695780I70710J-70711D01*
G01Y12346820D01*
G03X1916890Y12276110I100000J1D01*
G01X2328210Y11864790D01*
G02X2357500Y11794080I-70710J-70711D01*
G01Y11632300D01*
G01X2593000Y2831200D02*
Y2840580D01*
G03X2563710Y2911290I-100000J-1D01*
G01X2528240Y2946760D01*
G02X2498950Y3017470I70710J70711D01*
G01Y3372220D01*
X2509900Y3383170D01*
Y3666220D01*
X2509150Y3666970D01*
Y3821050D01*
X2535300Y3847200D01*
Y3873330D01*
X2545450Y3883480D01*
Y4816680D01*
X2558950Y4830180D01*
Y5175620D01*
X2535300Y5199270D01*
Y5282300D01*
G01X2876090Y3788780D02*
Y3744120D01*
X2848350Y3716380D01*
Y3690960D01*
X2817670Y3660280D01*
X2756480D01*
X2725800Y3690960D01*
Y3758310D01*
X2707830Y3776290D01*
X2624200Y3859920D01*
Y7060300D01*
X2675000Y7111100D01*
Y8616430D01*
X3026000Y8967430D01*
Y9204100D01*
X2996450Y9233650D01*
Y9737550D01*
X3044200Y9785300D01*
G01X3144200D02*
X3091950Y9733050D01*
Y9251450D01*
X3051400Y9210900D01*
Y8949410D01*
X2705700Y8603710D01*
Y7098380D01*
X2654900Y7047580D01*
Y3872640D01*
X2729540Y3798000D01*
X2738520Y3789010D01*
X2756500Y3771030D01*
Y3703680D01*
X2769200Y3690980D01*
X2804950D01*
X2817650Y3703680D01*
Y3716380D01*
X2789920Y3744110D01*
Y3788780D01*
G01X2309430Y3778620D02*
Y3823290D01*
X2337160Y3851020D01*
Y3908380D01*
X2394000Y3965220D01*
Y8769400D01*
X2832100Y9207500D01*
Y9659880D01*
X2832090Y9659890D01*
Y9659900D01*
X2806690Y9685300D01*
X2744200D01*
G01X2395600Y3778620D02*
Y3823280D01*
X2367860Y3851020D01*
Y3895660D01*
X2424700Y3952500D01*
Y8685900D01*
X2419400Y8691200D01*
Y8758870D01*
X2857500Y9196970D01*
Y9659900D01*
X2882900Y9685300D01*
X2944200D01*
G01X3538600Y6006200D02*
X3402790Y6142010D01*
G02X3373500Y6212720I70710J70711D01*
G01Y8062060D01*
G03X3354450Y8108050I-65030J4D01*
G02X3335400Y8154040I45980J45986D01*
G01Y8963420D01*
G02X3363670Y9031670I96520J0D01*
G03X3391950Y9099940I-68260J68268D01*
G01Y9281390D01*
G03X3368080Y9339020I-81500J2D01*
G01X3360040Y9347060D01*
G02X3344200Y9385300I38230J38237D01*
G01X3386200Y5930000D02*
X3364690Y5951510D01*
G02X3335400Y6022220I70710J70711D01*
G01Y6053680D01*
G03X3306110Y6124390I-100000J-1D01*
G01X3263090Y6167410D01*
G02X3233800Y6238120I70710J70711D01*
G01Y6941780D01*
G03X3204510Y7012490I-100000J-1D01*
G01X2945590Y7271410D01*
G02X2916300Y7342120I70710J70711D01*
G01Y8276180D01*
G02X2945590Y8346890I100000J-1D01*
G01X3161330Y8562630D01*
G03X3190620Y8633340I-70710J70711D01*
G01Y9073740D01*
G02X3219910Y9144450I100000J-1D01*
G01X3344200Y9268740D01*
Y9285300D01*
G01Y9085300D02*
X3290940Y9032040D01*
G03X3261650Y8961330I70710J-70711D01*
G01Y7691340D01*
X3282000Y7670990D01*
Y6758070D01*
X3261650Y6737720D01*
Y6697080D01*
X3282000Y6676730D01*
Y6492070D01*
X3273650Y6483720D01*
Y6443080D01*
X3282000Y6434730D01*
Y6240720D01*
G03X3311290Y6170010I100000J1D01*
G01X3373500Y6107800D01*
Y6069700D01*
X3437000Y6006200D01*
G01X3257450D02*
X3223290Y6040360D01*
G02X3194000Y6111070I70710J70711D01*
G01Y6512580D01*
G03X3164710Y6583290I-100000J-1D01*
G01X3148790Y6599210D01*
G02X3119500Y6669920I70710J70711D01*
G01Y6879080D01*
G03X3090210Y6949790I-100000J-1D01*
G01X2915110Y7124890D01*
G02X2885820Y7195600I70710J70711D01*
G01Y8372700D01*
G02X2915110Y8443410I100000J-1D01*
G01X3135930Y8664230D01*
G03X3165220Y8734940I-70710J70711D01*
G01Y9094060D01*
G02X3194510Y9164770I100000J-1D01*
G01X3267160Y9237420D01*
G03X3296450Y9308130I-70710J70711D01*
G01Y9502190D01*
G02X3320320Y9559820I81500J2D01*
G01X3344200Y9583700D01*
Y9585300D01*
G01X3141300Y6260200D02*
Y6476380D01*
G03X3112010Y6547090I-100000J-1D01*
G01X3021790Y6637310D01*
G02X2992500Y6708020I70710J70711D01*
G01Y6779080D01*
G03X2963210Y6849790I-100000J-1D01*
G01X2882090Y6930910D01*
G02X2852800Y7001620I70710J70711D01*
G01Y8479380D01*
G02X2882090Y8550090I100000J-1D01*
G01X3105450Y8773450D01*
G03X3134740Y8844160I-70710J70711D01*
G01Y9116920D01*
G02X3164030Y9187630I100000J-1D01*
G01X3167160Y9190760D01*
G03X3196450Y9261470I-70710J70711D01*
G01Y9609590D01*
G02X3224410Y9637550I27960J0D01*
G01X3355030D01*
G03X3425740Y9666840I-1J100000D01*
G01X3444200Y9685300D01*
G01X3538610Y6107800D02*
Y6893020D01*
X3525900Y6905730D01*
Y7579460D01*
G02X3544950Y7625450I65030J4D01*
G03X3564000Y7671440I-45980J45986D01*
G01Y9191620D01*
G03X3534710Y9262330I-100000J-1D01*
G01X3478140Y9318900D01*
G03X3442650Y9333600I-35489J-35490D01*
G01X3421850D01*
G02X3396450Y9359000I0J25400D01*
G01Y9396130D01*
G02X3425740Y9466840I100000J-1D01*
G01X3444200Y9485300D01*
G01X4544200D02*
X4521990Y9507510D01*
G03X4451280Y9536800I-70711J-70710D01*
G01X3513200D01*
G02X3491950Y9558050I0J21250D01*
G01Y10153240D01*
G03X3462660Y10223950I-100000J-1D01*
G01X3425740Y10260870D01*
G02X3396450Y10331580I70710J70711D01*
G01Y11472770D01*
G02X3417720Y11524120I72610J4D01*
G03X3439000Y11575490I-51360J51368D01*
G01Y12481200D01*
X3424300Y12495900D01*
Y13572080D01*
G02X3453590Y13642790I100000J-1D01*
G01X3649010Y13838210D01*
G02X3719720Y13867500I70711J-70710D01*
G01X4538580D01*
G03X4609290Y13896790I-1J100000D01*
G01X4795900Y14083400D01*
G01X3133950Y12355490D02*
Y11336970D01*
G03X3163240Y11266260I100000J1D01*
G01X3244200Y11185300D01*
G01X3081400Y11581500D02*
X3019250Y11519350D01*
G03X2989960Y11448640I70710J-70711D01*
G01Y11280960D01*
G03X3019250Y11210250I100000J1D01*
G01X3044200Y11185300D01*
G01X3348100Y11454500D02*
X3263090Y11539510D01*
G02X3233800Y11610220I70710J70711D01*
G01Y12495900D01*
G01X3348100Y12699100D02*
Y13372200D01*
G01X3444200Y9385300D02*
X3461500D01*
X3562660Y9284140D01*
G02X3591950Y9213430I-70710J-70711D01*
G01Y6808850D01*
X3589400Y6806300D01*
Y6184000D01*
G01X3437000Y6260200D02*
Y8063600D01*
X3449700Y8076300D01*
Y9079800D01*
X3444200Y9085300D01*
G01X3941600Y7603000D02*
X3923490Y7584890D01*
G02X3852780Y7555600I-70711J70710D01*
G01X3754500D01*
G02X3729100Y7581000I0J25400D01*
G01Y7653880D01*
G02X3758390Y7724590I100000J-1D01*
G01X3839510Y7805710D01*
G02X3910220Y7835000I70711J-70710D01*
G01X4043280D01*
G03X4113990Y7864290I-1J100000D01*
G01X4398310Y8148610D01*
G03X4427600Y8219320I-70710J70711D01*
G01Y8453980D01*
G03X4398310Y8524690I-100000J-1D01*
G01X4321240Y8601760D01*
G02X4291950Y8672470I70710J70711D01*
G01Y9196130D01*
G03X4262660Y9266840I-100000J-1D01*
G01X4244200Y9285300D01*
G01X4046600Y7708000D02*
X4046300Y7708300D01*
X3909920D01*
G03X3839210Y7679010I1J-100000D01*
G01X3805000Y7644800D01*
G01X3652900Y8152500D02*
X3712510Y8212110D01*
G03X3741800Y8282820I-70710J70711D01*
G01Y8866560D01*
G03X3716880Y8926720I-85070J3D01*
G02X3691950Y8986900I60170J60180D01*
G01Y9408850D01*
G03X3665600Y9435200I-26350J0D01*
G01X3635720D01*
G02X3565010Y9464490I1J100000D01*
G01X3544200Y9485300D01*
G01X3844200D02*
X3905950Y9454400D01*
X3911600Y9437370D01*
Y8902410D01*
X4042300Y8771710D01*
Y8472710D01*
X4241370Y8273640D01*
X4338730D01*
G01X4044200Y9385300D02*
X4005220D01*
X3955920Y9336000D01*
X3949700D01*
X3937000Y9323300D01*
Y8912940D01*
X4067700Y8782240D01*
Y8701850D01*
X4073000Y8696550D01*
Y8485430D01*
X4200080Y8358350D01*
X4338700D01*
G01X3944200Y10885300D02*
X3966510Y10907610D01*
G03X3995800Y10978320I-70710J70711D01*
G01Y11222040D01*
G02X4018400Y11276600I77150J3D01*
G03X4041010Y11331180I-54570J54579D01*
G01Y11953590D01*
G02X4070300Y12024300I100000J-1D01*
G01X4779310Y12733310D01*
G03X4808600Y12804020I-70710J70711D01*
G01Y13305380D01*
G03X4779310Y13376090I-100000J-1D01*
G01X4745100Y13410300D01*
G01X3944200Y10985300D02*
Y12009180D01*
G02X3973490Y12079890I100000J-1D01*
G01X4665010Y12771410D01*
G03X4694300Y12842120I-70710J70711D01*
G01Y13283300D01*
G01X3844200Y10885300D02*
X3864910Y10906010D01*
G03X3894200Y10976720I-70710J70711D01*
G01Y12086180D01*
G02X3923490Y12156890I100000J-1D01*
G01X4385610Y12619010D01*
G03X4414900Y12689720I-70710J70711D01*
G01Y13270600D01*
G01X3744200Y10885300D02*
Y10885400D01*
X3768400Y10909600D01*
G03X3792600Y10968020I-58410J58418D01*
G01Y12136980D01*
G02X3821890Y12207690I100000J-1D01*
G01X4182410Y12568210D01*
G03X4211700Y12638920I-70710J70711D01*
G01Y13384900D01*
X4199000Y13397600D01*
G01X3995800Y13384900D02*
X4039710Y13340990D01*
G02X4069000Y13270280I-70710J-70711D01*
G01Y12610520D01*
G02X4039710Y12539810I-100000J1D01*
G01X3745690Y12245790D01*
G03X3716400Y12175080I70710J-70711D01*
G01Y11260510D01*
X3691950Y11236060D01*
Y10974470D01*
G02X3662660Y10903760I-100000J1D01*
G01X3644200Y10885300D01*
G01X3830700Y13372200D02*
Y12575420D01*
G02X3801410Y12504710I-100000J1D01*
G01X3669490Y12372790D01*
G03X3640200Y12302080I70710J-70711D01*
G01Y11826080D01*
G02X3616330Y11768450I-81500J-2D01*
G03X3592450Y11710800I57640J-57647D01*
G01Y10974970D01*
G02X3563160Y10904260I-100000J1D01*
G01X3544200Y10885300D01*
G01X3676550Y13740500D02*
Y13417750D01*
G03X3698680Y13364320I75560J-2D01*
G01X3720820Y13342180D01*
Y13307750D01*
X3751550Y13277020D01*
Y13236380D01*
X3736180Y13221010D01*
G03X3720820Y13183930I37070J-37077D01*
G01Y12657420D01*
G02X3691530Y12586710I-100000J1D01*
G01X3567890Y12463070D01*
G03X3538600Y12392360I70710J-70711D01*
G01Y11423910D01*
G02X3517130Y11372070I-73310J-4D01*
G01X3517120Y11372060D01*
G03X3495650Y11320220I51840J-51836D01*
G01Y11272170D01*
G03X3524940Y11201460I100000J1D01*
G01X3538600Y11187800D01*
G01X3500500Y12673700D02*
Y13229180D01*
G02X3529790Y13299890I100000J-1D01*
G01X3602100Y13372200D01*
G01X4046600Y7708000D02*
Y7355720D01*
G02X4017310Y7285010I-100000J1D01*
G01X3995800Y7263500D01*
G01X4046600Y7200000D02*
X4134150Y7287550D01*
G03X4163440Y7358260I-70710J70711D01*
G01Y7415420D01*
G02X4192730Y7486130I100000J-1D01*
G01X4351400Y7644800D01*
G01X4444200Y8952600D02*
X4393390Y8901790D01*
G03X4364100Y8831080I70710J-70711D01*
G01Y8663820D01*
G03X4393390Y8593110I100000J1D01*
G01X4436410Y8550090D01*
G02X4465700Y8479380I-70710J-70711D01*
G01Y8168520D01*
G02X4436410Y8097810I-100000J1D01*
G01X4046600Y7708000D01*
G01X4594200Y8952600D02*
Y8843120D01*
G02X4564910Y8772410I-100000J1D01*
G01X4534840Y8742340D01*
G03X4505550Y8671630I70710J-70711D01*
G01Y7840370D01*
G02X4476260Y7769660I-100000J1D01*
G01X4351400Y7644800D01*
G01X4444200Y8952600D02*
X4468060Y8976460D01*
G03X4491100Y9032080I-55610J55618D01*
G01Y9064660D01*
X4491950Y9065510D01*
Y9105090D01*
X4491100Y9105940D01*
Y9127060D01*
G03X4476170Y9163110I-50980J3D01*
G01X4473490Y9165790D01*
G02X4444200Y9236500I70710J70711D01*
G01Y9385300D01*
G01X4544200D02*
X4563410Y9404510D01*
G03X4592700Y9475220I-70710J70711D01*
G01Y9610460D01*
G02X4619790Y9637550I27090J0D01*
G01X5206530D01*
G03X5275960Y9706980I0J69430D01*
G01Y9723980D01*
G02X5305250Y9794690I100000J-1D01*
G01X5338110Y9827550D01*
G03X5367400Y9898260I-70710J70711D01*
G01Y10606980D01*
G02X5396690Y10677690I100000J-1D01*
G01X5822710Y11103710D01*
G03X5852000Y11174420I-70710J70711D01*
G01Y11501730D01*
G03X5822710Y11572440I-100000J-1D01*
G01X5499290Y11895860D01*
G02X5470000Y11966570I70710J70711D01*
G01Y12759580D01*
G02X5499290Y12830290I100000J-1D01*
G01X5803710Y13134710D01*
G03X5833000Y13205420I-70710J70711D01*
G01Y13669380D01*
G02X5862290Y13740090I100000J-1D01*
G01X6167490Y14045290D01*
G01X4594200Y8952600D02*
X4591950Y8954850D01*
Y9092270D01*
G03X4562660Y9162980I-100000J-1D01*
G01X4525740Y9199900D01*
G02X4496450Y9270610I70710J70711D01*
G01Y9391630D01*
G03X4467160Y9462340I-100000J-1D01*
G01X4444200Y9485300D01*
G01Y9585300D02*
X4567160Y9708260D01*
G02X4637870Y9737550I70711J-70710D01*
G01X5155890D01*
G03X5226600Y9766840I-1J100000D01*
G01X5312710Y9852950D01*
G03X5342000Y9923660I-70710J70711D01*
G01Y10738580D01*
G02X5371290Y10809290I100000J-1D01*
G01X5549710Y10987710D01*
G02X5620420Y11017000I70711J-70710D01*
G01X5623590D01*
G03X5694300Y11046290I-1J100000D01*
G01X5769910Y11121900D01*
G03X5799200Y11192610I-70710J70711D01*
G01Y11264000D01*
G01X4244200Y10885300D02*
X4226290Y10903210D01*
G02X4197000Y10973920I70710J70711D01*
G01Y11324110D01*
G03X4169500Y11390500I-93880J4D01*
G02X4142000Y11456890I66380J66386D01*
G01Y11902180D01*
G02X4171290Y11972890I100000J-1D01*
G01X5173010Y12974610D01*
G03X5202300Y13045320I-70710J70711D01*
G01Y13397600D01*
G01X5596000Y13423000D02*
Y13038540D01*
G02X5566710Y12967830I-100000J1D01*
G01X4521240Y11922360D01*
G03X4491950Y11851650I70710J-70711D01*
G01Y11565510D01*
X4491100Y11564660D01*
Y11305940D01*
X4491950Y11305090D01*
Y10974470D01*
G02X4462660Y10903760I-100000J1D01*
G01X4444200Y10885300D01*
G01X4544390Y11594050D02*
X4569130Y11564740D01*
G02X4592700Y11500250I-76432J-64487D01*
G01Y10975220D01*
G02X4563410Y10904510I-100000J1D01*
G01X4544200Y10885300D01*
G01X4944200Y9485300D02*
X4966410Y9507510D01*
G02X5037120Y9536800I70711J-70710D01*
G01X5158340D01*
G03X5229050Y9566090I-1J100000D01*
G01X5294930Y9631970D01*
G03X5324220Y9702680I-70710J70711D01*
G01Y9723980D01*
G02X5353510Y9794690I100000J-1D01*
G01X5363510Y9804690D01*
G03X5392800Y9875400I-70710J70711D01*
G01Y10571380D01*
G02X5422090Y10642090I100000J-1D01*
G01X5866710Y11086710D01*
G03X5896000Y11157420I-70710J70711D01*
G01Y11519480D01*
G03X5866710Y11590190I-100000J-1D01*
G01X5728290Y11728610D01*
G02X5699000Y11799320I70710J70711D01*
G01Y12854580D01*
G02X5728290Y12925290I100000J-1D01*
G01X5871510Y13068510D01*
G03X5900800Y13139220I-70710J70711D01*
G01Y13419680D01*
G02X5930090Y13490390I100000J-1D01*
G01X6364350Y13924650D01*
G01X6707260Y13988160D02*
X6055290Y13336190D01*
G03X6026000Y13265480I70710J-70711D01*
G01Y13072420D01*
G02X5996710Y13001710I-100000J1D01*
G01X5866590Y12871590D01*
G03X5837300Y12800880I70710J-70711D01*
G01Y12324120D01*
G03X5866590Y12253410I100000J1D01*
G01X5998710Y12121290D01*
G02X6028000Y12050580I-70710J-70711D01*
G01Y11159420D01*
G02X5998710Y11088710I-100000J1D01*
G01X5564290Y10654290D01*
G03X5535000Y10583580I70710J-70711D01*
G01Y9640900D01*
G02X5456300Y9562200I-78700J0D01*
G01X5397880D01*
G03X5303900Y9468220I0J-93980D01*
G01Y9349620D01*
G02X5274610Y9278910I-100000J1D01*
G01X5107890Y9112190D01*
G02X5037180Y9082900I-70711J70710D01*
G01X4945000D01*
G01X5596000Y11378300D02*
X5517690Y11299990D01*
Y11292510D01*
X5501040Y11275860D01*
Y11275850D01*
X5443600Y11218410D01*
Y10982600D01*
X5257800Y10796800D01*
Y10331750D01*
X5186750Y10260700D01*
X4919600D01*
X4844200Y10185300D01*
G01X6535790Y13930980D02*
X5988290Y13383480D01*
G03X5959000Y13312770I70710J-70711D01*
G01Y13118390D01*
G02X5929710Y13047680I-100000J1D01*
G01X5803290Y12921260D01*
G03X5774000Y12850550I70710J-70711D01*
G01Y12234420D01*
G03X5803290Y12163710I100000J1D01*
G01X5950710Y12016290D01*
G02X5980000Y11945580I-70710J-70711D01*
G01Y11183420D01*
G02X5950710Y11112710I-100000J1D01*
G01X5498290Y10660290D01*
G03X5469000Y10589580I70710J-70711D01*
G01Y9784450D01*
G02X5439710Y9713740I-100000J1D01*
G01X5240560Y9514590D01*
G02X5169850Y9485300I-70711J70710D01*
G01X5144200D01*
G01X5659500Y9117700D02*
X5683710Y9141910D01*
G03X5713000Y9212620I-70710J70711D01*
G01Y9716130D01*
X5733950Y9737080D01*
Y9777720D01*
X5713000Y9798670D01*
Y10373720D01*
G02X5742290Y10444430I100000J-1D01*
G01X5976000Y10678140D01*
Y10703540D01*
X6422710Y11150250D01*
G03X6452000Y11220960I-70710J70711D01*
G01Y13081880D01*
G02X6481290Y13152590I100000J-1D01*
G01X7183500Y13854800D01*
G01X7202550Y14051650D02*
X6412290Y13261390D01*
G03X6383000Y13190680I70710J-70711D01*
G01Y11298190D01*
G02X6353710Y11227480I-100000J1D01*
G01X5968190Y10841960D01*
G03X5938900Y10771250I70710J-70711D01*
G01Y10743320D01*
G02X5909610Y10672610I-100000J1D01*
G01X5656290Y10419290D01*
G03X5627000Y10348580I70710J-70711D01*
G01Y9253620D01*
G02X5597710Y9182910I-100000J1D01*
G01X5583300Y9168500D01*
G01X5913500Y12838800D02*
Y12425920D01*
G03X5942790Y12355210I100000J1D01*
G01X6254160Y12043840D01*
G02X6283450Y11973130I-70710J-70711D01*
G01Y11276870D01*
G02X6254160Y11206160I-100000J1D01*
G01X5904690Y10856690D01*
G03X5875400Y10785980I70710J-70711D01*
G01Y10752820D01*
G02X5846110Y10682110I-100000J1D01*
G01X5612290Y10448290D01*
G03X5583000Y10377580I70710J-70711D01*
G01Y9574600D01*
G02X5493700Y9485300I-89300J0D01*
G01X5418900D01*
G01X5144200Y10185300D02*
X5194200Y10235300D01*
X5197280D01*
X5283200Y10321220D01*
Y10786270D01*
X5469000Y10972070D01*
Y11207880D01*
X5590370Y11329250D01*
X5616320D01*
X5625360Y11338290D01*
X5636010D01*
X5659500Y11314800D01*
G01X6319900Y8622400D02*
X6143290Y8445790D01*
G03X6114000Y8375080I70710J-70711D01*
G01Y7087220D01*
G03X6143290Y7016510I100000J1D01*
G01X6192900Y6966900D01*
G01X5950380Y10489300D02*
X5918580Y10457500D01*
Y10152830D01*
X6599300Y9472110D01*
Y7454000D01*
X6688200Y7365100D01*
Y7022200D01*
X6561200Y6895200D01*
Y6831130D01*
X6510970Y6780900D01*
G01X5856530Y10489300D02*
X5887880Y10457950D01*
Y10140110D01*
X6568600Y9459390D01*
Y7441280D01*
X6657500Y7352380D01*
Y7034920D01*
X6510400Y6887820D01*
Y6882500D01*
G01X6827900Y7441300D02*
X6795100Y7474100D01*
X6700880D01*
X6650100Y7524880D01*
Y9714600D01*
X6065910Y10298790D01*
Y10406920D01*
X6034330Y10438500D01*
G01X6128180D02*
X6096610Y10406930D01*
Y10311510D01*
X6680800Y9727320D01*
Y7537600D01*
X6713600Y7504800D01*
X6802500D01*
X6827900Y7530200D01*
G01X6034330Y10692500D02*
X6056040Y10670790D01*
X6080520D01*
X6107860Y10643450D01*
X6123060D01*
X6123070Y10643440D01*
X6148500D01*
X6156350Y10651300D01*
X6196000D01*
X6891400Y9955900D01*
Y8127100D01*
X7084550Y7933950D01*
X7325850D01*
X7361300Y7898500D01*
G01X6128180Y10692500D02*
Y10681750D01*
X6135780Y10674150D01*
X6143630Y10682000D01*
X6208720D01*
X6922100Y9968620D01*
Y8139820D01*
X7097270Y7964650D01*
X7325850D01*
X7361300Y8000100D01*
G01X6459400Y7466900D02*
X6311090Y7615210D01*
G02X6281800Y7685920I70710J70711D01*
G01Y8428580D01*
G02X6311090Y8499290I100000J-1D01*
G01X6345300Y8533500D01*
G01Y8444600D02*
Y7863720D01*
G03X6374590Y7793010I100000J1D01*
G01X6431740Y7735860D01*
G02X6461030Y7665150I-70710J-70711D01*
G01Y7643070D01*
G01X6418000Y8444600D02*
X6399990Y8426590D01*
G03X6370700Y8355880I70710J-70711D01*
G01Y7876420D01*
G03X6399990Y7805710I100000J1D01*
G01X6484320Y7721380D01*
G02X6510080Y7659190I-62180J-62186D01*
G01Y7622750D01*
X6485000Y7597670D01*
Y7570050D01*
G01X7488300Y7301600D02*
Y8453980D01*
G03X7459010Y8524690I-100000J-1D01*
G01X7374000Y8609700D01*
G01X7988550Y8444600D02*
X7983600D01*
X7932800Y8495400D01*
Y11302110D01*
X7510280Y11724630D01*
X7510270D01*
X7507180Y11727720D01*
X7371610D01*
X7365090Y11721200D01*
G01X7412100Y11657700D02*
X7451420Y11697020D01*
X7494470D01*
X7902100Y11289390D01*
Y8448300D01*
X7898400Y8444600D01*
X7894700D01*
G54D17*
X0Y3000000D03*
X1900000D03*
G54D18*
X233000Y3090000D03*
X1193000D03*
X2133000D03*
X3093000D03*
G54D19*
X425100Y7979200D03*
X525100Y9262200D03*
X425100Y9979200D03*
X525100Y11262200D03*
X8712500Y1090000D03*
Y1598000D03*
M02*
