G04 ================== begin FILE IDENTIFICATION RECORD ==================*
G04 Layout Name:  pc049a_toplevel_51.brd*
G04 Film Name:    PC049A_L3*
G04 File Format:  Gerber RS274X*
G04 File Origin:  Cadence Allegro 16.6-S014*
G04 Origin Date:  Mon Feb 23 12:27:37 2015*
G04 *
G04 Layer:  VIA CLASS/L3*
G04 Layer:  PIN/L3*
G04 Layer:  ETCH/L3*
G04 Layer:  BOARD GEOMETRY/CTEXT_TOP*
G04 *
G04 Offset:    (0.0000 0.0000)*
G04 Mirror:    No*
G04 Mode:      Positive*
G04 Rotation:  0*
G04 FullContactRelief:  No*
G04 UndefLineWidth:     0.1270*
G04 ================== end FILE IDENTIFICATION RECORD ====================*
%FSLAX25Y25*MOMM*%
%IR0*IPPOS*OFA0.00000B0.00000*MIA0B0*SFA1.00000B1.00000*%
%ADD14C,.6*%
%ADD22C,.8*%
%ADD23C,.6096*%
%ADD18C,1.*%
%ADD10C,5.*%
%ADD24C,1.6*%
%ADD19C,2.032*%
%ADD12C,1.7*%
%ADD21C,1.6002*%
%ADD13C,1.27*%
%ADD17C,1.55*%
%ADD20C,1.524*%
%ADD16C,1.65*%
%ADD15C,1.75*%
%ADD11C,6.604*%
%ADD25C,.101*%
%ADD26C,.5*%
%ADD27C,.18*%
%ADD28C,.127*%
%ADD29C,.254*%
%ADD30C,.7524*%
%ADD31C,.8544*%
%ADD32C,1.5244*%
G75*
%LPD*%
G75*
G36*
G01X-578850Y7199000D02*
X-657500D01*
X-658620Y7112880D01*
X-572500Y7114000D01*
Y7192650D01*
G03X-578850Y7199000I-6350J0D01*
G37*
G36*
G01X-572500Y7289350D02*
Y7368000D01*
X-658620Y7369120D01*
X-657500Y7283000D01*
X-578850D01*
G03X-572500Y7289350I0J6350D01*
G37*
G36*
G01X-578850Y7961000D02*
X-657500D01*
X-658620Y7874880D01*
X-572500Y7876000D01*
Y7954650D01*
G03X-578850Y7961000I-6350J0D01*
G37*
G36*
G01X-572500Y8051350D02*
Y8130000D01*
X-658620Y8131120D01*
X-657500Y8045000D01*
X-578850D01*
G03X-572500Y8051350I0J6350D01*
G37*
G36*
G01Y10083350D02*
Y10162000D01*
X-658620Y10163120D01*
X-657500Y10077000D01*
X-578850D01*
G03X-572500Y10083350I0J6350D01*
G37*
G36*
G01X-736150Y10331000D02*
X-657500D01*
X-656380Y10417120D01*
X-742500Y10416000D01*
Y10337350D01*
G03X-736150Y10331000I6350J0D01*
G37*
G36*
G01X-742500Y11002650D02*
Y10924000D01*
X-656380Y10922880D01*
X-657500Y11009000D01*
X-736150D01*
G03X-742500Y11002650I0J-6350D01*
G37*
G36*
G01X-578850Y11263000D02*
X-657500D01*
X-658620Y11176880D01*
X-572500Y11178000D01*
Y11256650D01*
G03X-578850Y11263000I-6350J0D01*
G37*
G36*
G01X-324850Y6691000D02*
X-403500D01*
X-404620Y6604880D01*
X-318500Y6606000D01*
Y6684650D01*
G03X-324850Y6691000I-6350J0D01*
G37*
G36*
G01X-70850Y6437000D02*
X-149500D01*
X-150620Y6350880D01*
X-64500Y6352000D01*
Y6430650D01*
G03X-70850Y6437000I-6350J0D01*
G37*
G36*
G01X-64500Y6527350D02*
Y6606000D01*
X-150620Y6607120D01*
X-149500Y6521000D01*
X-70850D01*
G03X-64500Y6527350I0J6350D01*
G37*
G36*
G01X-318500Y6781350D02*
Y6860000D01*
X-404620Y6861120D01*
X-403500Y6775000D01*
X-324850D01*
G03X-318500Y6781350I0J6350D01*
G37*
G36*
G01X-234500Y8716650D02*
Y8638000D01*
X-148380Y8636880D01*
X-149500Y8723000D01*
X-228150D01*
G03X-234500Y8716650I0J-6350D01*
G37*
G36*
G01X-70850Y8977000D02*
X-149500D01*
X-150620Y8890880D01*
X-64500Y8892000D01*
Y8970650D01*
G03X-70850Y8977000I-6350J0D01*
G37*
G36*
G01X-234500Y9478650D02*
Y9400000D01*
X-148380Y9398880D01*
X-149500Y9485000D01*
X-228150D01*
G03X-234500Y9478650I0J-6350D01*
G37*
G36*
G01X-70850Y9739000D02*
X-149500D01*
X-150620Y9652880D01*
X-64500Y9654000D01*
Y9732650D01*
G03X-70850Y9739000I-6350J0D01*
G37*
G36*
G01Y12533000D02*
X-149500D01*
X-150620Y12446880D01*
X-64500Y12448000D01*
Y12526650D01*
G03X-70850Y12533000I-6350J0D01*
G37*
G36*
G01X-64500Y12623350D02*
Y12702000D01*
X-150620Y12703120D01*
X-149500Y12617000D01*
X-70850D01*
G03X-64500Y12623350I0J6350D01*
G37*
G36*
G01X995810Y9944950D02*
Y9968600D01*
X964690Y9969720D01*
X965810Y9938600D01*
X989460D01*
G03X995810Y9944950I0J6350D01*
G37*
G36*
G01X950100Y9913660D02*
X924740Y9939000D01*
X901970Y9918120D01*
X922180Y9895040D01*
X947540Y9903120D01*
G03X950100Y9913660I-1930J6050D01*
G37*
G36*
G01X909540Y11192290D02*
X892800Y11209000D01*
X870010Y11187800D01*
X892800Y11166600D01*
X909540Y11183310D01*
G03Y11192290I-4490J4490D01*
G37*
G36*
G01X958750Y11167000D02*
X935100D01*
X933980Y11135880D01*
X965100Y11137000D01*
Y11160650D01*
G03X958750Y11167000I-6350J0D01*
G37*
G36*
G01X1129330Y14678510D02*
X1090800Y14717040D01*
X1043650Y14672150D01*
X1090800Y14627260D01*
X1129330Y14665790D01*
G03Y14678510I-6360J6360D01*
G37*
G36*
G01Y15084910D02*
X1090800Y15123440D01*
X1043650Y15078550D01*
X1090800Y15033660D01*
X1129330Y15072190D01*
G03Y15084910I-6360J6360D01*
G37*
G36*
G01X988750Y14811850D02*
X1045900D01*
X1047020Y14876470D01*
X982400Y14875350D01*
Y14818200D01*
G03X988750Y14811850I6350J0D01*
G37*
G36*
G01X1129330Y15694510D02*
X1090800Y15733040D01*
X1043650Y15688150D01*
X1090800Y15643260D01*
X1129330Y15681790D01*
G03Y15694510I-6360J6360D01*
G37*
G36*
G01X1126720Y15290730D02*
X1090790Y15326640D01*
X1042720Y15281750D01*
X1090790Y15236860D01*
X1126720Y15272770D01*
G03Y15290730I-8980J8980D01*
G37*
G36*
G01X1129330Y15491310D02*
X1090800Y15529840D01*
X1043650Y15484950D01*
X1090800Y15440060D01*
X1129330Y15478590D01*
G03Y15491310I-6360J6360D01*
G37*
G36*
G01Y16100910D02*
X1090800Y16139440D01*
X1043650Y16094550D01*
X1090800Y16049660D01*
X1129330Y16088190D01*
G03Y16100910I-6360J6360D01*
G37*
G36*
G01X1126720Y16306730D02*
X1090790Y16342640D01*
X1042720Y16297750D01*
X1090790Y16252860D01*
X1126720Y16288770D01*
G03Y16306730I-8980J8980D01*
G37*
G36*
G01X1129330Y15897710D02*
X1090800Y15936240D01*
X1043650Y15891350D01*
X1090800Y15846460D01*
X1129330Y15884990D01*
G03Y15897710I-6360J6360D01*
G37*
G36*
G01Y16710510D02*
X1090800Y16749040D01*
X1043650Y16704150D01*
X1090800Y16659260D01*
X1129330Y16697790D01*
G03Y16710510I-6360J6360D01*
G37*
G36*
G01X1126720Y17322730D02*
X1090790Y17358640D01*
X1042720Y17313750D01*
X1090790Y17268860D01*
X1126720Y17304770D01*
G03Y17322730I-8980J8980D01*
G37*
G36*
G01Y17525930D02*
X1090790Y17561840D01*
X1042720Y17516950D01*
X1090790Y17472060D01*
X1126720Y17507970D01*
G03Y17525930I-8980J8980D01*
G37*
G36*
G01X1129330Y17955110D02*
X1090800Y17993640D01*
X1043650Y17948750D01*
X1090800Y17903860D01*
X1129330Y17942390D01*
G03Y17955110I-6360J6360D01*
G37*
G36*
G01Y17726510D02*
X1090800Y17765040D01*
X1043650Y17720150D01*
X1090800Y17675260D01*
X1129330Y17713790D01*
G03Y17726510I-6360J6360D01*
G37*
G36*
G01Y18158310D02*
X1090800Y18196840D01*
X1043650Y18151950D01*
X1090800Y18107060D01*
X1129330Y18145590D01*
G03Y18158310I-6360J6360D01*
G37*
G36*
G01X934940Y18659890D02*
X918200Y18676600D01*
X895410Y18655400D01*
X918200Y18634200D01*
X934940Y18650910D01*
G03Y18659890I-4490J4490D01*
G37*
G36*
G01X1527250Y7419740D02*
X1503600Y7407040D01*
X1505730Y7376470D01*
X1536600Y7377800D01*
Y7414150D01*
G03X1527250Y7419740I-6346J0D01*
G37*
G36*
G01X1381140Y8121430D02*
X1364400Y8138140D01*
X1341610Y8116940D01*
X1364400Y8095740D01*
X1381140Y8112450D01*
G03Y8121430I-4490J4490D01*
G37*
G36*
G01X1430240Y10671590D02*
X1413500Y10688300D01*
X1390710Y10667100D01*
X1413500Y10645900D01*
X1430240Y10662610D01*
G03Y10671590I-4490J4490D01*
G37*
G36*
G01X1366740Y10722390D02*
X1350000Y10739100D01*
X1327210Y10717900D01*
X1350000Y10696700D01*
X1366740Y10713410D01*
G03Y10722390I-4490J4490D01*
G37*
G36*
G01X1717560Y13414790D02*
X1700820Y13431500D01*
X1678030Y13410300D01*
X1700820Y13389100D01*
X1717560Y13405810D01*
G03Y13414790I-4490J4490D01*
G37*
G36*
G01X1688130Y14576910D02*
X1649600Y14615440D01*
X1602450Y14570550D01*
X1649600Y14525660D01*
X1688130Y14564190D01*
G03Y14576910I-6360J6360D01*
G37*
G36*
G01Y15186510D02*
X1649600Y15225040D01*
X1602450Y15180150D01*
X1649600Y15135260D01*
X1688130Y15173790D01*
G03Y15186510I-6360J6360D01*
G37*
G36*
G01X1685520Y14985930D02*
X1649590Y15021840D01*
X1601520Y14976950D01*
X1649590Y14932060D01*
X1685520Y14967970D01*
G03Y14985930I-8980J8980D01*
G37*
G36*
G01X1690320Y14787210D02*
G02X1660120Y14804720I7463J47670D01*
G01X1601530Y14773520D01*
X1664050Y14751210D01*
G02X1691370Y14772920I41605J-24312D01*
G03X1690320Y14787210I-10981J6377D01*
G37*
G36*
G01X1674740Y15389710D02*
X1649600Y15414850D01*
X1602450Y15383350D01*
X1649600Y15351850D01*
X1674740Y15376990D01*
G03Y15389710I-6360J6360D01*
G37*
G36*
G01X1685520Y15595530D02*
X1649590Y15631440D01*
X1601520Y15586550D01*
X1649590Y15541660D01*
X1685520Y15577570D01*
G03Y15595530I-8980J8980D01*
G37*
G36*
G01X1688020Y15797190D02*
G02X1661390Y15818330I13039J43768D01*
G01X1602450Y15789690D01*
X1662900Y15764390D01*
G02X1688310Y15786980I40841J-20353D01*
G03X1688020Y15797190I-7551J4895D01*
G37*
G36*
G01X1688130Y16202510D02*
X1649600Y16241040D01*
X1602450Y16196150D01*
X1649600Y16151260D01*
X1688130Y16189790D01*
G03Y16202510I-6360J6360D01*
G37*
G36*
G01Y15999310D02*
X1649600Y16037840D01*
X1602450Y15992950D01*
X1649600Y15948060D01*
X1688130Y15986590D01*
G03Y15999310I-6360J6360D01*
G37*
G36*
G01Y16812110D02*
X1649600Y16850640D01*
X1602450Y16805750D01*
X1649600Y16760860D01*
X1688130Y16799390D01*
G03Y16812110I-6360J6360D01*
G37*
G36*
G01Y16608910D02*
X1649600Y16647440D01*
X1602450Y16602550D01*
X1649600Y16557660D01*
X1688130Y16596190D01*
G03Y16608910I-6360J6360D01*
G37*
G36*
G01Y16405710D02*
X1649600Y16444240D01*
X1602450Y16399350D01*
X1649600Y16354460D01*
X1688130Y16392990D01*
G03Y16405710I-6360J6360D01*
G37*
G36*
G01Y17828110D02*
X1649600Y17866640D01*
X1602450Y17821750D01*
X1649600Y17776860D01*
X1688130Y17815390D01*
G03Y17828110I-6360J6360D01*
G37*
G36*
G01Y17624910D02*
X1649600Y17663440D01*
X1602450Y17618550D01*
X1649600Y17573660D01*
X1688130Y17612190D01*
G03Y17624910I-6360J6360D01*
G37*
G36*
G01Y18259910D02*
X1649600Y18298440D01*
X1602450Y18253550D01*
X1649600Y18208660D01*
X1688130Y18247190D01*
G03Y18259910I-6360J6360D01*
G37*
G36*
G01X2268600Y8698600D02*
X2230500Y8736700D01*
Y8939900D01*
X2294000Y9003400D01*
X2827400D01*
X2979800Y9155800D01*
X3157600D01*
X3249880Y9248080D01*
X3251400Y9248380D01*
G03X3261890Y9318500I-7203J36922D01*
G01X3259200Y9319930D01*
Y9350670D01*
X3261890Y9352100D01*
G03Y9418500I-17690J33200D01*
G01X3259200Y9419930D01*
Y9450670D01*
X3261890Y9452100D01*
G03Y9518500I-17690J33200D01*
G01X3259200Y9519930D01*
Y9550670D01*
X3261890Y9552100D01*
G03Y9618500I-17690J33200D01*
G01X3259200Y9619930D01*
Y9650670D01*
X3261890Y9652100D01*
G03X3281810Y9684420I-17689J33201D01*
G01X3281860Y9686460D01*
X3289260Y9693860D01*
G02X3306600Y9686380I7183J-7187D01*
G03X3343760Y9722920I37604J-1077D01*
G02X3336450Y9740260I-124J10159D01*
G01X3343820Y9747630D01*
X3345800Y9747710D01*
G03X3381810Y9784420I-1601J37587D01*
G01X3381860Y9786460D01*
X3443040Y9847640D01*
X3445080Y9847690D01*
G03X3462400Y9918220I-883J37608D01*
G01Y10052380D01*
G03Y10118220I-18200J32920D01*
G01Y10352380D01*
G03Y10418220I-18200J32920D01*
G01Y10552380D01*
G03Y10618220I-18200J32920D01*
G01Y10752380D01*
G03X3445800Y10822890I-18201J32924D01*
G01X3443820Y10822970D01*
X3436450Y10830340D01*
G02X3443760Y10847680I7186J7181D01*
G03X3411350Y10866970I444J37618D01*
G02X3406910Y10859420I-4440J-2469D01*
G01X3397080D01*
X3380700Y10875800D01*
X3381190Y10878430D01*
G03X3345800Y10922890I-36989J6872D01*
G01X3343820Y10922970D01*
X3336450Y10930340D01*
G02X3343760Y10947680I7186J7181D01*
G03X3308250Y10974220I442J37618D01*
G02X3298540Y10961070I-9710J-2990D01*
G01X3295430D01*
X3280700Y10975800D01*
X3281190Y10978430D01*
G03X3264170Y11017180I-36988J6867D01*
G03X3253630Y11034330I-68477J-30270D01*
G02X3257820Y11050230I7866J6429D01*
G03X3208090Y11074740I-13621J35069D01*
G02X3198030Y11061730I-9751J-2855D01*
G03X3196770Y11061760I-2412J-74829D01*
G01X3194710Y11061790D01*
X3180700Y11075800D01*
X3181190Y11078430D01*
G03X3170300Y11112390I-36988J6865D01*
G01Y11158210D01*
G03X3171270Y11211420I-26101J27090D01*
G01Y11289400D01*
G03X3070120Y11403800I-115268J0D01*
G01X3068380Y11404020D01*
X3005200Y11467200D01*
Y12114900D01*
X3589400Y12699100D01*
X3691000D01*
X3716400Y12724500D01*
Y12813400D01*
X3398900Y13130900D01*
Y13664300D01*
X3509200Y13774600D01*
X3510270Y13774990D01*
G03X3555960Y13820680I-25970J71660D01*
G01X3556350Y13821750D01*
X3627500Y13892900D01*
X4770500D01*
X4973700Y13689700D01*
Y13541050D01*
G03X4948410Y13465210I101080J-75843D01*
G01Y12792400D01*
G02X4926840Y12740340I-73628J8D01*
G01X4349340Y12162840D01*
G03X4312330Y12073480I89362J-89355D01*
G01Y11880320D01*
G02X4299150Y11870620I-10160J1D01*
G03Y11798780I-11180J-35920D01*
G02X4312330Y11789080I3020J-9701D01*
G01Y11525500D01*
G02X4299140Y11515800I-10160J-2D01*
G03Y11444000I-11240J-35900D01*
G02X4312330Y11434300I3030J-9698D01*
G01Y11412620D01*
G02X4290760Y11360560I-73628J8D01*
G01X4254840Y11324640D01*
G03X4217830Y11235280I89362J-89355D01*
G01Y11212130D01*
G03X4270570I26370J-26830D01*
G01Y11235280D01*
G02X4292140Y11287340I73628J-8D01*
G01X4301730Y11296940D01*
X4307040Y11291640D01*
X4306790Y11289230D01*
G03X4351110Y11248320I37413J-3931D01*
G02X4363130Y11238330I1860J-9988D01*
G01Y11232270D01*
G02X4351110Y11222280I-10160J-2D01*
G03Y11148320I-6910J-36980D01*
G02X4363130Y11138330I1860J-9988D01*
G01Y11061770D01*
X4335520D01*
G02X4283460Y11083340I8J73628D01*
G01X4281870Y11084920D01*
X4281790Y11086900D01*
G03X4242600Y11047710I-37590J-1600D01*
G01X4244580Y11047630D01*
X4246160Y11046040D01*
G03X4302690Y11013370I89351J89365D01*
G02X4309440Y10999680I-2642J-9812D01*
G03X4371870Y10959810I34763J-14380D01*
G02X4389500Y10952930I7471J-6885D01*
G01Y10781400D01*
X4529200Y10641700D01*
Y10319930D01*
X4526510Y10318500D01*
G03Y10252100I17690J-33200D01*
G01X4529200Y10250670D01*
Y9841600D01*
X4414900Y9727300D01*
X4021200D01*
X3995800Y9701900D01*
Y9270100D01*
X4059300Y9206600D01*
Y8889100D01*
X3868800Y8698600D01*
X2268600D01*
G37*
G36*
G01X1850290Y10326110D02*
X1867000Y10342850D01*
X1845800Y10365640D01*
X1824600Y10342850D01*
X1841310Y10326110D01*
G03X1850290I4490J4490D01*
G37*
G36*
G01X1832940Y10266940D02*
X1816200Y10283650D01*
X1793410Y10262450D01*
X1816200Y10241250D01*
X1832940Y10257960D01*
G03Y10266940I-4490J4490D01*
G37*
G36*
G01X1900140Y11509790D02*
X1883400Y11526500D01*
X1860610Y11505300D01*
X1883400Y11484100D01*
X1900140Y11500810D01*
G03Y11509790I-4490J4490D01*
G37*
G36*
G01X1801960Y13452890D02*
X1785220Y13469600D01*
X1762430Y13448400D01*
X1785220Y13427200D01*
X1801960Y13443910D01*
G03Y13452890I-4490J4490D01*
G37*
G36*
G01X2604350Y9071500D02*
X2580700D01*
X2579580Y9040380D01*
X2610700Y9041500D01*
Y9065150D01*
G03X2604350Y9071500I-6350J0D01*
G37*
G36*
G01X2714200Y9408950D02*
Y9385300D01*
X2745320Y9384180D01*
X2744200Y9415300D01*
X2720550D01*
G03X2714200Y9408950I0J-6350D01*
G37*
G36*
G01X2571310Y9940960D02*
X2602990Y9909300D01*
X2625720Y9930030D01*
X2607130Y9953550D01*
X2575450Y9951790D01*
G03X2571310Y9940960I350J-6340D01*
G37*
G36*
G01X2662460Y9876960D02*
X2679200Y9860250D01*
X2701990Y9881450D01*
X2679200Y9902650D01*
X2662460Y9885940D01*
G03Y9876960I4490J-4490D01*
G37*
G36*
G01X2639710Y11123240D02*
X2623000Y11106500D01*
X2644200Y11083710D01*
X2665400Y11106500D01*
X2648690Y11123240D01*
G03X2639710I-4490J-4490D01*
G37*
G36*
G01X2387500Y11608650D02*
Y11632300D01*
X2356380Y11633420D01*
X2357500Y11602300D01*
X2381150D01*
G03X2387500Y11608650I0J6350D01*
G37*
G36*
G01X2499400Y15049010D02*
X2511650Y15036780D01*
X2536020Y15057990D01*
X2511650Y15079200D01*
X2499400Y15066970D01*
G03Y15049010I8980J-8980D01*
G37*
G36*
G01X2503690Y15572570D02*
X2518540Y15557720D01*
X2542000Y15578930D01*
X2518540Y15600140D01*
X2503690Y15585290D01*
G03Y15572570I6360J-6360D01*
G37*
G36*
G01X2549240Y15350510D02*
X2564090Y15335660D01*
X2587550Y15356870D01*
X2564090Y15378080D01*
X2549240Y15363230D01*
G03Y15350510I6360J-6360D01*
G37*
G36*
G01X2521000Y15443600D02*
X2538300D01*
X2540550Y15475850D01*
X2508300Y15473600D01*
Y15456300D01*
G03X2521000Y15443600I12700J0D01*
G37*
G36*
G01X2506010Y15714620D02*
X2518260Y15702390D01*
X2542640Y15723600D01*
X2518260Y15744810D01*
X2506010Y15732580D01*
G03Y15714620I8980J-8980D01*
G37*
G36*
G01X2542680Y16017240D02*
X2557530Y16002390D01*
X2580990Y16023600D01*
X2557530Y16044810D01*
X2542680Y16029960D01*
G03Y16017240I6360J-6360D01*
G37*
G36*
G01X2561380Y16214620D02*
X2573630Y16202390D01*
X2598000Y16223600D01*
X2573630Y16244810D01*
X2561380Y16232580D01*
G03Y16214620I8980J-8980D01*
G37*
G36*
G01X2510910Y16317830D02*
X2525760Y16302980D01*
X2549220Y16324190D01*
X2525760Y16345400D01*
X2510910Y16330550D01*
G03Y16317830I6360J-6360D01*
G37*
G36*
G01X2505700Y15917240D02*
X2520550Y15902390D01*
X2544010Y15923600D01*
X2520550Y15944810D01*
X2505700Y15929960D01*
G03Y15917240I6360J-6360D01*
G37*
G36*
G01X2517500Y16617750D02*
Y16596750D01*
X2549090Y16595160D01*
X2547500Y16626750D01*
X2526500D01*
G03X2517500Y16617750I0J-9000D01*
G37*
G36*
G01X2519410Y16513620D02*
Y16492620D01*
X2551000Y16491030D01*
X2549410Y16522620D01*
X2528410D01*
G03X2519410Y16513620I0J-9000D01*
G37*
G36*
G01X2554040Y17146420D02*
Y17125420D01*
X2585630Y17123830D01*
X2584040Y17155420D01*
X2563040D01*
G03X2554040Y17146420I0J-9000D01*
G37*
G36*
G01X2550400Y17312130D02*
Y17291130D01*
X2581990Y17289540D01*
X2580400Y17321130D01*
X2559400D01*
G03X2550400Y17312130I0J-9000D01*
G37*
G36*
G01X2551670Y16994600D02*
Y16973600D01*
X2583260Y16972010D01*
X2581670Y17003600D01*
X2560670D01*
G03X2551670Y16994600I0J-9000D01*
G37*
G36*
G01X3215170Y9447960D02*
G02X3241470Y9455430I22386J-28782D01*
G01X3245290Y9486450D01*
X3214540Y9480890D01*
G02X3208550Y9454210I-35908J-5951D01*
G03X3215170Y9447960I6348J93D01*
G37*
G36*
G01X2906260Y9380810D02*
X2923000Y9364100D01*
X2945790Y9385300D01*
X2923000Y9406500D01*
X2906260Y9389790D01*
G03Y9380810I4490J-4490D01*
G37*
G36*
G01X3120440Y9655390D02*
X3144090Y9655310D01*
X3145330Y9686420D01*
X3114210Y9685410D01*
X3114110Y9661760D01*
G03X3120440Y9655390I6350J-20D01*
G37*
G36*
G01X3314200Y10008950D02*
Y9985300D01*
X3345320Y9984180D01*
X3344200Y10015300D01*
X3320550D01*
G03X3314200Y10008950I0J-6350D01*
G37*
G36*
G01X3320550Y9855300D02*
X3344200D01*
X3345320Y9886420D01*
X3314200Y9885300D01*
Y9861650D01*
G03X3320550Y9855300I6350J0D01*
G37*
G36*
G01X3120550Y9555300D02*
X3144200D01*
X3145320Y9586420D01*
X3114200Y9585300D01*
Y9561650D01*
G03X3120550Y9555300I6350J0D01*
G37*
G36*
G01X3320550Y9755300D02*
X3344200D01*
X3345320Y9786420D01*
X3314200Y9785300D01*
Y9761650D01*
G03X3320550Y9755300I6350J0D01*
G37*
G36*
G01Y10355300D02*
X3344200D01*
X3345320Y10386420D01*
X3314200Y10385300D01*
Y10361650D01*
G03X3320550Y10355300I6350J0D01*
G37*
G36*
G01X3214200Y10408950D02*
Y10385300D01*
X3245320Y10384180D01*
X3244200Y10415300D01*
X3220550D01*
G03X3214200Y10408950I0J-6350D01*
G37*
G36*
G01X3114100Y10208920D02*
X3114210Y10185270D01*
X3145320Y10184180D01*
X3144200Y10215300D01*
X3120450D01*
G03X3114100Y10208920I0J-6350D01*
G37*
G36*
G01X3014200Y10208950D02*
Y10185300D01*
X3045320Y10184180D01*
X3044200Y10215300D01*
X3020550D01*
G03X3014200Y10208950I0J-6350D01*
G37*
G36*
G01X3314200Y10608950D02*
Y10585300D01*
X3345320Y10584180D01*
X3344200Y10615300D01*
X3320550D01*
G03X3314200Y10608950I0J-6350D01*
G37*
G36*
G01X3221490Y11025810D02*
G02X3219400Y11002170I-30573J-9209D01*
G01X3244840Y10983850D01*
X3248620Y11014960D01*
G02X3229820Y11029460I8625J30620D01*
G03X3221490Y11025810I-2388J-5881D01*
G37*
G36*
G01X3140410Y11223940D02*
X3123000Y11206510D01*
X3144170Y11183710D01*
X3165590Y11206310D01*
X3149580Y11223750D01*
G03X3140410Y11223940I-4676J-4299D01*
G37*
G36*
G01X3314200Y10708950D02*
Y10685300D01*
X3345320Y10684180D01*
X3344200Y10715300D01*
X3320550D01*
G03X3314200Y10708950I0J-6350D01*
G37*
G36*
G01Y10908950D02*
Y10885300D01*
X3345320Y10884180D01*
X3344200Y10915300D01*
X3320550D01*
G03X3314200Y10908950I0J-6350D01*
G37*
G36*
G01X3014200Y11108950D02*
Y11085300D01*
X3045320Y11084180D01*
X3044200Y11115300D01*
X3020550D01*
G03X3014200Y11108950I0J-6350D01*
G37*
G36*
G01X2994930Y14843600D02*
X3015930D01*
X3017520Y14875190D01*
X2985930Y14873600D01*
Y14852600D01*
G03X2994930Y14843600I9000J0D01*
G37*
G36*
G01Y15643600D02*
X3015930D01*
X3017520Y15675190D01*
X2985930Y15673600D01*
Y15652600D01*
G03X2994930Y15643600I9000J0D01*
G37*
G36*
G01X2990320Y15235700D02*
X3011320D01*
X3012910Y15267290D01*
X2981320Y15265700D01*
Y15244700D01*
G03X2990320Y15235700I9000J0D01*
G37*
G36*
G01X3055480Y15371870D02*
X3032520Y15394810D01*
X3008280Y15374520D01*
X3024390Y15348710D01*
X3047340Y15350220D01*
G03X3055480Y15371870I-841J12671D01*
G37*
G36*
G01X2960040Y15363250D02*
G02X2988200Y15354500I2444J-41824D01*
G01X3014490Y15373680D01*
X2987300Y15391560D01*
G02X2959600Y15381460I-27313J31874D01*
G03X2960040Y15363250I9069J-8891D01*
G37*
G36*
G01X2960050Y15743600D02*
X2981050D01*
X2982640Y15775190D01*
X2951050Y15773600D01*
Y15752600D01*
G03X2960050Y15743600I9000J0D01*
G37*
G36*
G01X2945210Y16167240D02*
X2960060Y16152390D01*
X2983520Y16173600D01*
X2960060Y16194810D01*
X2945210Y16179960D01*
G03Y16167240I6360J-6360D01*
G37*
G36*
G01X2968630Y15864460D02*
G02X2994560Y15853810I-565J-38267D01*
G01X3019340Y15873720D01*
X2992510Y15890770D01*
G02X2967920Y15877330I-29359J24501D01*
G03X2968630Y15864460I6629J-6089D01*
G37*
G36*
G01X2957950Y16347270D02*
X2972800Y16332420D01*
X2996260Y16353630D01*
X2972800Y16374840D01*
X2957950Y16359990D01*
G03Y16347270I6360J-6360D01*
G37*
G36*
G01X2979870Y16067240D02*
X2994720Y16052390D01*
X3018180Y16073600D01*
X2994720Y16094810D01*
X2979870Y16079960D01*
G03Y16067240I6360J-6360D01*
G37*
G36*
G01X2962170Y15943600D02*
X2983170D01*
X2984760Y15975190D01*
X2953170Y15973600D01*
Y15952600D01*
G03X2962170Y15943600I9000J0D01*
G37*
G36*
G01X2961970Y16454780D02*
X2974220Y16442550D01*
X2998600Y16463760D01*
X2974220Y16484970D01*
X2961970Y16472740D01*
G03Y16454780I8980J-8980D01*
G37*
G36*
G01X3175760Y16708260D02*
X3188010Y16696030D01*
X3212380Y16717240D01*
X3188010Y16738450D01*
X3175760Y16726220D01*
G03Y16708260I8980J-8980D01*
G37*
G36*
G01X2961950Y16975600D02*
Y16954600D01*
X2993540Y16953010D01*
X2991950Y16984600D01*
X2970950D01*
G03X2961950Y16975600I0J-9000D01*
G37*
G36*
G01X2956790Y17277130D02*
G02X2981380Y17263690I-4769J-37941D01*
G01X3008210Y17280740D01*
X2983430Y17300650D01*
G02X2957500Y17290000I-26495J27617D01*
G03X2956790Y17277130I5919J-6781D01*
G37*
G36*
G01X2926960Y17198430D02*
X2933290Y17177430D01*
X2964680Y17178650D01*
X2962900Y17210020D01*
X2935580D01*
G03X2926960Y17198430I0J-9001D01*
G37*
G36*
G01X2987670Y17383650D02*
X2975420Y17395880D01*
X2951040Y17374670D01*
X2975420Y17353460D01*
X2987670Y17365690D01*
G03Y17383650I-8980J8980D01*
G37*
G36*
G01X3618000Y8120780D02*
G02X3645010Y8123570I16957J-32021D01*
G01X3654170Y8153450D01*
X3622920Y8153170D01*
G02X3612570Y8128050I-36166J209D01*
G03X3618000Y8120780I6271J-979D01*
G37*
G36*
G01X3414200Y9908950D02*
Y9885300D01*
X3445320Y9884180D01*
X3444200Y9915300D01*
X3420550D01*
G03X3414200Y9908950I0J-6350D01*
G37*
G36*
G01Y10808950D02*
Y10785300D01*
X3445320Y10784180D01*
X3444200Y10815300D01*
X3420550D01*
G03X3414200Y10808950I0J-6350D01*
G37*
G36*
G01X3641770Y12786250D02*
Y12762600D01*
X3672890Y12761480D01*
X3671770Y12792600D01*
X3648120D01*
G03X3641770Y12786250I0J-6350D01*
G37*
G36*
G01X3573430Y12800540D02*
X3556720Y12783800D01*
X3577920Y12761010D01*
X3599120Y12783800D01*
X3582410Y12800540D01*
G03X3573430I-4490J-4490D01*
G37*
G36*
G01X4474200Y9061650D02*
Y9085300D01*
X4443080Y9086420D01*
X4444200Y9055300D01*
X4467850D01*
G03X4474200Y9061650I0J6350D01*
G37*
G36*
G01X4348690Y9047360D02*
X4365400Y9064100D01*
X4344200Y9086890D01*
X4323000Y9064100D01*
X4339710Y9047360D01*
G03X4348690I4490J4490D01*
G37*
G36*
G01X4379720Y9354070D02*
G02X4373850Y9380770I29986J20588D01*
G01X4343110Y9386460D01*
X4346810Y9355420D01*
G02X4373080Y9347850I3773J-36275D01*
G03X4379720Y9354070I292J6343D01*
G37*
G36*
G01X4321240Y9455990D02*
X4343510Y9456000D01*
X4345320Y9486420D01*
X4314900Y9484610D01*
X4314890Y9462340D01*
G03X4321240Y9455990I6350J0D01*
G37*
G36*
G01X4247740Y9046410D02*
X4265400Y9064090D01*
X4244240Y9086890D01*
X4222750Y9064360D01*
X4238510Y9046670D01*
G03X4247740Y9046410I4738J4229D01*
G37*
G36*
G01X4074200Y9661650D02*
Y9685300D01*
X4043080Y9686420D01*
X4044200Y9655300D01*
X4067850D01*
G03X4074200Y9661650I0J6350D01*
G37*
G36*
G01X4181650Y9656420D02*
G02X4174080Y9682690I28705J22497D01*
G01X4143040Y9686390D01*
X4148730Y9655650D01*
G02X4175430Y9649780I6112J-35856D01*
G03X4181650Y9656420I-123J6348D01*
G37*
G36*
G01X4473080Y11122750D02*
G02X4446810Y11115180I-22497J28705D01*
G01X4443110Y11084140D01*
X4473850Y11089830D01*
G02X4479720Y11116530I35856J6112D01*
G03X4473080Y11122750I-6348J-123D01*
G37*
G36*
G01X4281360Y11056010D02*
G02X4274050Y11082380I28886J22206D01*
G01X4243050Y11086400D01*
X4248400Y11055610D01*
G02X4275050Y11049430I5715J-35905D01*
G03X4281360Y11056010I-37J6351D01*
G37*
G36*
G01X4239710Y11223240D02*
X4223000Y11206500D01*
X4244200Y11183710D01*
X4265400Y11206500D01*
X4248690Y11223240D01*
G03X4239710I-4490J-4490D01*
G37*
G36*
G01X4573230Y11222640D02*
G02X4546930Y11215170I-22386J28782D01*
G01X4543110Y11184150D01*
X4573860Y11189710D01*
G02X4579850Y11216390I35908J5951D01*
G03X4573230Y11222640I-6348J-93D01*
G37*
G36*
G01X4200750Y14713800D02*
X4224400D01*
X4225520Y14744920D01*
X4194400Y14743800D01*
Y14720150D01*
G03X4200750Y14713800I6350J0D01*
G37*
G36*
G01X4844160Y7824910D02*
X4860900Y7808200D01*
X4883690Y7829400D01*
X4860900Y7850600D01*
X4844160Y7833890D01*
G03Y7824910I4490J-4490D01*
G37*
G36*
G01X4773830Y9861180D02*
X4774190Y9884830D01*
X4743100Y9886440D01*
X4743730Y9855310D01*
X4767380Y9854930D01*
G03X4773830Y9861180I100J6350D01*
G37*
G36*
G01X4874380Y10115300D02*
X4844200D01*
X4842950Y10084320D01*
X4873960Y10083610D01*
X4880500Y10107260D01*
G03X4874380Y10115300I-6120J1691D01*
G37*
G36*
G01X4982140Y9889790D02*
X4965400Y9906500D01*
X4942610Y9885300D01*
X4965400Y9864100D01*
X4982140Y9880810D01*
G03Y9889790I-4490J4490D01*
G37*
G36*
G01X4673820Y9761180D02*
X4674190Y9784830D01*
X4643100Y9786440D01*
X4643730Y9755310D01*
X4667370Y9754930D01*
G03X4673820Y9761180I100J6350D01*
G37*
G36*
G01X4982140Y9689790D02*
X4965400Y9706500D01*
X4942610Y9685300D01*
X4965400Y9664100D01*
X4982140Y9680810D01*
G03Y9689790I-4490J4490D01*
G37*
G36*
G01X4768800Y10115300D02*
X4744200D01*
X4743060Y10084200D01*
X4774180Y10085050D01*
X4775140Y10108700D01*
G03X4768800Y10115300I-6340J255D01*
G37*
G36*
G01X4867850Y10015300D02*
X4844200D01*
X4843080Y9984180D01*
X4874200Y9985300D01*
Y10008950D01*
G03X4867850Y10015300I-6350J0D01*
G37*
G36*
G01Y10515300D02*
X4844200D01*
X4843080Y10484180D01*
X4874200Y10485300D01*
Y10508950D01*
G03X4867850Y10515300I-6350J0D01*
G37*
G36*
G01X4882140Y10589790D02*
X4865400Y10606500D01*
X4842610Y10585300D01*
X4865400Y10564100D01*
X4882140Y10580810D01*
G03Y10589790I-4490J4490D01*
G37*
G36*
G01X4874200Y10341150D02*
Y10385300D01*
X4843450Y10386700D01*
X4840050Y10356860D01*
X4863690Y10336350D01*
G03X4874200Y10341150I4159J4800D01*
G37*
G36*
G01X4767850Y10615300D02*
X4744200D01*
X4743080Y10584180D01*
X4774200Y10585300D01*
Y10608950D01*
G03X4767850Y10615300I-6350J0D01*
G37*
G36*
G01Y10415300D02*
X4744200D01*
X4743080Y10384180D01*
X4774200Y10385300D01*
Y10408950D01*
G03X4767850Y10415300I-6350J0D01*
G37*
G36*
G01X4874200Y10961650D02*
Y10985300D01*
X4843080Y10986420D01*
X4844200Y10955300D01*
X4867850D01*
G03X4874200Y10961650I0J6350D01*
G37*
G36*
G01X4774200Y10861650D02*
Y10885300D01*
X4743080Y10886420D01*
X4744200Y10855300D01*
X4767850D01*
G03X4774200Y10861650I0J6350D01*
G37*
G36*
G01X4982140Y10989790D02*
X4965400Y11006500D01*
X4942610Y10985300D01*
X4965400Y10964100D01*
X4982140Y10980810D01*
G03Y10989790I-4490J4490D01*
G37*
G36*
G01X4868320Y10714930D02*
X4844670Y10715290D01*
X4843060Y10684200D01*
X4874190Y10684830D01*
X4874570Y10708480D01*
G03X4868320Y10714930I-6350J100D01*
G37*
G36*
G01X5075850Y13432300D02*
X5099500D01*
X5100620Y13463420D01*
X5069500Y13462300D01*
Y13438650D01*
G03X5075850Y13432300I6350J0D01*
G37*
G36*
G01X5032600Y13558100D02*
X5056250D01*
X5057370Y13589220D01*
X5026250Y13588100D01*
Y13564450D01*
G03X5032600Y13558100I6350J0D01*
G37*
G36*
G01X5621560Y9113210D02*
X5638300Y9096500D01*
X5661090Y9117700D01*
X5638300Y9138900D01*
X5621560Y9122190D01*
G03Y9113210I4490J-4490D01*
G37*
G36*
G01X5545360Y9164010D02*
X5562100Y9147300D01*
X5584890Y9168500D01*
X5562100Y9189700D01*
X5545360Y9172990D01*
G03Y9164010I4490J-4490D01*
G37*
G36*
G01X5182140Y9889790D02*
X5165400Y9906500D01*
X5142610Y9885300D01*
X5165400Y9864100D01*
X5182140Y9880810D01*
G03Y9889790I-4490J4490D01*
G37*
G36*
G01Y9689790D02*
X5165400Y9706500D01*
X5142610Y9685300D01*
X5165400Y9664100D01*
X5182140Y9680810D01*
G03Y9689790I-4490J4490D01*
G37*
G36*
G01Y9989790D02*
X5165400Y10006500D01*
X5142610Y9985300D01*
X5165400Y9964100D01*
X5182140Y9980810D01*
G03Y9989790I-4490J4490D01*
G37*
G36*
G01Y10489790D02*
X5165400Y10506500D01*
X5142610Y10485300D01*
X5165400Y10464100D01*
X5182140Y10480810D01*
G03Y10489790I-4490J4490D01*
G37*
G36*
G01X5167850Y11015300D02*
X5144200D01*
X5143080Y10984180D01*
X5174200Y10985300D01*
Y11008950D01*
G03X5167850Y11015300I-6350J0D01*
G37*
G36*
G01Y10715300D02*
X5144200D01*
X5143080Y10684180D01*
X5174200Y10685300D01*
Y10708950D01*
G03X5167850Y10715300I-6350J0D01*
G37*
G36*
G01X5498890Y13829560D02*
X5515600Y13846300D01*
X5494400Y13869090D01*
X5473200Y13846300D01*
X5489910Y13829560D01*
G03X5498890I4490J4490D01*
G37*
G36*
G01X5659660Y13697910D02*
X5676400Y13681200D01*
X5699190Y13702400D01*
X5676400Y13723600D01*
X5659660Y13706890D01*
G03Y13697910I4490J-4490D01*
G37*
G36*
G01X5926730Y10459300D02*
X5950380D01*
X5951500Y10490420D01*
X5920380Y10489300D01*
Y10465650D01*
G03X5926730Y10459300I6350J0D01*
G37*
G36*
G01X5886530Y10465650D02*
Y10489300D01*
X5855410Y10490420D01*
X5856530Y10459300D01*
X5880180D01*
G03X5886530Y10465650I0J6350D01*
G37*
G36*
G01X5937150Y12868800D02*
X5913500D01*
X5912380Y12837680D01*
X5943500Y12838800D01*
Y12862450D01*
G03X5937150Y12868800I-6350J0D01*
G37*
G36*
G01X5880440Y15670070D02*
X5863700Y15686780D01*
X5840910Y15665580D01*
X5863700Y15644380D01*
X5880440Y15661090D01*
G03Y15670070I-4490J4490D01*
G37*
G36*
G01X5897050Y15353910D02*
X5909300Y15341680D01*
X5933680Y15362890D01*
X5909300Y15384100D01*
X5897050Y15371870D01*
G03Y15353910I8980J-8980D01*
G37*
G36*
G01X5969150Y16454770D02*
X5945500D01*
X5944380Y16423650D01*
X5975500Y16424770D01*
Y16448420D01*
G03X5969150Y16454770I-6350J0D01*
G37*
G36*
G01X5926140Y17293110D02*
X5943440D01*
X5945690Y17325360D01*
X5913440Y17323110D01*
Y17305810D01*
G03X5926140Y17293110I12700J0D01*
G37*
G36*
G01X6447060Y8021010D02*
X6463800Y8004300D01*
X6486590Y8025500D01*
X6463800Y8046700D01*
X6447060Y8029990D01*
G03Y8021010I4490J-4490D01*
G37*
G36*
G01X6442530Y8110440D02*
X6459270Y8093730D01*
X6482060Y8114930D01*
X6459270Y8136130D01*
X6442530Y8119420D01*
G03Y8110440I4490J-4490D01*
G37*
G36*
G01X6307360Y8529010D02*
X6324100Y8512300D01*
X6346890Y8533500D01*
X6324100Y8554700D01*
X6307360Y8537990D01*
G03Y8529010I4490J-4490D01*
G37*
G36*
G01X6280470Y8648330D02*
G02X6289910Y8622820I-26762J-24405D01*
G01X6321140Y8621400D01*
X6313100Y8651610D01*
G02X6286170Y8655400I-8783J35165D01*
G03X6280470Y8648330I607J-6322D01*
G37*
G36*
G01X6307390Y8416680D02*
G02X6334010Y8416810I13471J-32872D01*
G01X6346660Y8445410D01*
X6315490Y8447840D01*
G02X6302740Y8424470I-35215J4049D01*
G03X6307390Y8416680I6140J-1618D01*
G37*
G36*
G01X6394350Y8414600D02*
X6418000D01*
X6419120Y8445720D01*
X6388000Y8444600D01*
Y8420950D01*
G03X6394350Y8414600I6350J0D01*
G37*
G36*
G01X7018560Y6789110D02*
X7035300Y6772400D01*
X7058090Y6793600D01*
X7035300Y6814800D01*
X7018560Y6798090D01*
G03Y6789110I4490J-4490D01*
G37*
G36*
G01Y6878010D02*
X7035300Y6861300D01*
X7058090Y6882500D01*
X7035300Y6903700D01*
X7018560Y6886990D01*
G03Y6878010I4490J-4490D01*
G37*
G36*
G01X7031260Y7436810D02*
X7048000Y7420100D01*
X7070790Y7441300D01*
X7048000Y7462500D01*
X7031260Y7445790D01*
G03Y7436810I4490J-4490D01*
G37*
G36*
G01X7032850Y7500200D02*
X7069200D01*
X7070530Y7531070D01*
X7039960Y7533200D01*
X7027260Y7509550D01*
G03X7032850Y7500200I5590J-3004D01*
G37*
G36*
G01X7344000Y8633350D02*
Y8609700D01*
X7375120Y8608580D01*
X7374000Y8639700D01*
X7350350D01*
G03X7344000Y8633350I0J-6350D01*
G37*
G36*
G01X7353090Y11666770D02*
X7386290Y11699990D01*
X7365590Y11722710D01*
X7342030Y11704440D01*
X7342250Y11671220D01*
G03X7353090Y11666770I6350J40D01*
G37*
G36*
G01X7106800Y11654430D02*
X7124470Y11636780D01*
X7147270Y11657940D01*
X7124740Y11679430D01*
X7107060Y11663660D01*
G03X7106800Y11654430I4229J-4738D01*
G37*
G36*
G01X7058250Y11703900D02*
X7081900D01*
X7083020Y11735020D01*
X7051900Y11733900D01*
Y11710250D01*
G03X7058250Y11703900I6350J0D01*
G37*
G36*
G01X7147150Y13227900D02*
X7170800D01*
X7171920Y13259020D01*
X7140800Y13257900D01*
Y13234250D01*
G03X7147150Y13227900I6350J0D01*
G37*
G36*
G01X6862500Y17840800D02*
Y17770950D01*
X6939820Y17769830D01*
X6938700Y17847150D01*
X6868850D01*
G03X6862500Y17840800I0J-6350D01*
G37*
G36*
G01X7804050Y8068200D02*
X7780400D01*
X7779280Y8037080D01*
X7810400Y8038200D01*
Y8061850D01*
G03X7804050Y8068200I-6350J0D01*
G37*
G36*
G01X7810400Y8116150D02*
Y8139800D01*
X7779280Y8140920D01*
X7780400Y8109800D01*
X7804050D01*
G03X7810400Y8116150I0J6350D01*
G37*
G36*
G01X7388450Y11627700D02*
X7412100D01*
X7413220Y11658820D01*
X7382100Y11657700D01*
Y11634050D01*
G03X7388450Y11627700I6350J0D01*
G37*
G36*
G01X7778500Y17830300D02*
Y17903950D01*
X7697380Y17905070D01*
X7698500Y17823950D01*
X7772150D01*
G03X7778500Y17830300I0J6350D01*
G37*
G36*
G01X7624850Y17569950D02*
X7698500D01*
X7699620Y17651070D01*
X7618500Y17649950D01*
Y17576300D01*
G03X7624850Y17569950I6350J0D01*
G37*
G36*
G01X9222500Y6521000D02*
X9282500D01*
X9286920Y6610420D01*
X9197500Y6606000D01*
Y6546000D01*
G03X9222500Y6521000I25000J0D01*
G37*
G36*
G01X9197500Y7192650D02*
Y7114000D01*
X9283620Y7112880D01*
X9282500Y7199000D01*
X9203850D01*
G03X9197500Y7192650I0J-6350D01*
G37*
G36*
G01X9203850Y7283000D02*
X9282500D01*
X9283620Y7369120D01*
X9197500Y7368000D01*
Y7289350D01*
G03X9203850Y7283000I6350J0D01*
G37*
G36*
G01X9278010Y7977610D02*
X9236520Y7936080D01*
X9282500Y7874410D01*
X9328480Y7936080D01*
X9286990Y7977610D01*
G03X9278010I-4490J-4490D01*
G37*
G36*
G01X9197500Y8208650D02*
Y8130000D01*
X9283620Y8128880D01*
X9282500Y8215000D01*
X9203850D01*
G03X9197500Y8208650I0J-6350D01*
G37*
G36*
G01X9278010Y8746550D02*
X9229580Y8698080D01*
X9282500Y8636410D01*
X9335420Y8698080D01*
X9286990Y8746550D01*
G03X9278010I-4490J-4490D01*
G37*
G36*
G01X9197500Y8970650D02*
Y8892000D01*
X9283620Y8890880D01*
X9282500Y8977000D01*
X9203850D01*
G03X9197500Y8970650I0J-6350D01*
G37*
G36*
G01Y9478650D02*
Y9400000D01*
X9283620Y9398880D01*
X9282500Y9485000D01*
X9203850D01*
G03X9197500Y9478650I0J-6350D01*
G37*
G36*
G01X9203850Y9569000D02*
X9282500D01*
X9283620Y9655120D01*
X9197500Y9654000D01*
Y9575350D01*
G03X9203850Y9569000I6350J0D01*
G37*
G36*
G01X9197500Y10240650D02*
Y10162000D01*
X9283620Y10160880D01*
X9282500Y10247000D01*
X9203850D01*
G03X9197500Y10240650I0J-6350D01*
G37*
G36*
G01X9203850Y10331000D02*
X9282500D01*
X9283620Y10417120D01*
X9197500Y10416000D01*
Y10337350D01*
G03X9203850Y10331000I6350J0D01*
G37*
G36*
G01X9197500Y11002650D02*
Y10924000D01*
X9283620Y10922880D01*
X9282500Y11009000D01*
X9203850D01*
G03X9197500Y11002650I0J-6350D01*
G37*
G36*
G01X9203850Y11093000D02*
X9282500D01*
X9283620Y11179120D01*
X9197500Y11178000D01*
Y11099350D01*
G03X9203850Y11093000I6350J0D01*
G37*
G36*
G01X9197500Y11764650D02*
Y11686000D01*
X9283620Y11684880D01*
X9282500Y11771000D01*
X9203850D01*
G03X9197500Y11764650I0J-6350D01*
G37*
G36*
G01X9203850Y11855000D02*
X9282500D01*
X9283620Y11941120D01*
X9197500Y11940000D01*
Y11861350D01*
G03X9203850Y11855000I6350J0D01*
G37*
G36*
G01X9197500Y12526650D02*
Y12448000D01*
X9283620Y12446880D01*
X9282500Y12533000D01*
X9203850D01*
G03X9197500Y12526650I0J-6350D01*
G37*
G36*
G01X9203850Y12617000D02*
X9282500D01*
X9283620Y12703120D01*
X9197500Y12702000D01*
Y12623350D01*
G03X9203850Y12617000I6350J0D01*
G37*
G36*
G01X9197500Y13288650D02*
Y13210000D01*
X9283620Y13208880D01*
X9282500Y13295000D01*
X9203850D01*
G03X9197500Y13288650I0J-6350D01*
G37*
G36*
G01X9203850Y13379000D02*
X9282500D01*
X9283620Y13465120D01*
X9197500Y13464000D01*
Y13385350D01*
G03X9203850Y13379000I6350J0D01*
G37*
%LPC*%
G75*
G36*
G01X3560250Y13380790D02*
G03X3550490Y13392990I-9952J2042D01*
G02X3593150Y13427110I813J42712D01*
G03X3602910Y13414910I9952J-2042D01*
G02X3560250Y13380790I-813J-42712D01*
G37*
G36*
G01X4081820Y11185740D02*
G02X4017830Y11212130I-37618J-440D01*
G01Y11956780D01*
G02X4054840Y12046140I126372J5D01*
G01X4481260Y12472560D01*
G03X4502830Y12524620I-52058J52068D01*
G01Y13368880D01*
G02X4539840Y13458240I126372J5D01*
G01X4549980Y13468370D01*
Y13473800D01*
G02X4592700Y13431080I42720J0D01*
G01X4587270D01*
X4577140Y13420940D01*
G03X4555570Y13368880I52058J-52068D01*
G01Y12524620D01*
G02X4555510Y12520830I-126369J105D01*
G03X4572850Y12513350I10155J-298D01*
G01X4722560Y12663060D01*
G03X4744130Y12715120I-52058J52068D01*
G01Y13140280D01*
G02X4781140Y13229640I126372J5D01*
G01X4798760Y13247260D01*
G03X4820330Y13299320I-52058J52068D01*
G01Y13541370D01*
X4817370Y13544340D01*
X4817320Y13544390D01*
G02X4876080I29380J31010D01*
G01X4876030Y13544340D01*
X4873070Y13541370D01*
Y13299320D01*
G02X4836060Y13209960I-126372J-5D01*
G01X4818440Y13192340D01*
G03X4796870Y13140280I52058J-52068D01*
G01Y12715120D01*
G02X4759860Y12625760I-126372J-5D01*
G01X4119940Y11985840D01*
G03X4098370Y11933780I52058J-52068D01*
G01Y11298920D01*
G03X4098380Y11298010I73628J354D01*
G01X4108300Y11296550D01*
G02X4143760Y11247680I35900J-11251D01*
G03X4136450Y11230340I-124J-10159D01*
G01X4143820Y11222970D01*
X4145800Y11222890D01*
G02X4106610Y11183700I-1600J-37590D01*
G01X4106530Y11185680D01*
X4099160Y11193050D01*
G03X4081820Y11185740I-7181J-7186D01*
G37*
G36*
G01X3581820Y11085730D02*
G02X3544360Y11122920I-37618J-431D01*
G03X3553300Y11135340I-54966J48992D01*
G03X3543230Y11150470I-8820J5046D01*
G02X3549840Y11223700I-4634J37332D01*
G03X3563030Y11233400I3030J9698D01*
G01Y11240870D01*
G03X3550860Y11250830I-10161J0D01*
G02X3552740Y11324140I-7464J36871D01*
G03X3558480Y11331450I1258J4921D01*
G03X3551700Y11340600I-34111J-18188D01*
G02X3524930Y11405230I64632J64630D01*
G01Y11598500D01*
G02X3561940Y11687860I126372J5D01*
G01X3757360Y11883280D01*
G03X3778930Y11935340I-52058J52068D01*
G01Y13217440D01*
G02X3815940Y13306800I126372J5D01*
G01X3823330Y13314180D01*
G03X3818940Y13331130I-7186J7182D01*
G02X3800500Y13402410I11762J41068D01*
G03X3795620Y13419490I-7185J7184D01*
G02X3790290Y13501090I9683J41607D01*
G01X3793580Y13502330D01*
Y13510930D01*
X3775830D01*
X3772860Y13507970D01*
X3772810Y13507920D01*
G02Y13566680I-31010J29380D01*
G01X3772860Y13566630D01*
X3775830Y13563670D01*
X3843400D01*
G02X3848090Y13563550I47J-89871D01*
G03X3858400Y13576460I533J10146D01*
G02X3868630Y13617630I41101J11643D01*
G03X3862730Y13634710I-7339J7024D01*
G02X3899670Y13647470I6066J42288D01*
G03X3905570Y13630390I7339J-7024D01*
G02X3915440Y13548460I-6065J-42290D01*
G03X3911530Y13532410I3789J-9424D01*
G02X3933270Y13473800I-68135J-58610D01*
G01Y13401880D01*
G02X3896260Y13312520I-126372J-5D01*
G01X3853240Y13269500D01*
G03X3831670Y13217440I52058J-52068D01*
G01Y12186300D01*
G03X3850330Y12180740I10158J-1D01*
G02X3866740Y12200940I105770J-69159D01*
G01X3998660Y12332860D01*
G03X4020230Y12384920I-52058J52068D01*
G01Y13261040D01*
G03X4002450Y13267750I-10159J-7D01*
G02X3960720Y13337610I-32047J28250D01*
G03X3965600Y13354690I-2305J9896D01*
G02X4007330Y13426040I30201J30214D01*
G03X4020230Y13435820I2742J9781D01*
G01Y13452470D01*
X4017270Y13455440D01*
X4017220Y13455490D01*
G02X4075980I29380J31010D01*
G01X4075930Y13455440D01*
X4072970Y13452470D01*
Y13409780D01*
G03X4086270Y13400120I10160J2D01*
G02X4105570Y13317210I13224J-40623D01*
G03X4104730Y13308470I44951J-8731D01*
G01Y13293900D01*
G03X4118850Y13284540I10160J-3D01*
G02Y13205860I16650J-39340D01*
G03X4104730Y13196500I-3960J-9357D01*
G01Y12353180D01*
G02X4067720Y12263820I-126372J-5D01*
G01X3942140Y12138240D01*
G03X3920570Y12086180I52058J-52068D01*
G01Y11276720D01*
G02X3883560Y11187360I-126372J-5D01*
G01X3836450Y11140260D01*
G03X3843760Y11122920I7186J-7181D01*
G02X3806580Y11085740I440J-37620D01*
G03X3789240Y11093050I-10159J124D01*
G01X3781870Y11085680D01*
X3781790Y11083700D01*
G02X3742600Y11122890I-37590J1600D01*
G01X3744580Y11122970D01*
X3751950Y11130340D01*
G03X3744640Y11147680I-7186J7181D01*
G02X3744530Y11222920I-440J37619D01*
G03X3766230Y11275120I-51931J52199D01*
G01Y11286080D01*
G02X3803240Y11375440I126372J5D01*
G01X3808160Y11380360D01*
G03X3829730Y11432420I-52058J52068D01*
G01Y11860620D01*
G03X3811070Y11866180I-10158J1D01*
G02X3794660Y11845980I-105770J69159D01*
G01X3599240Y11650560D01*
G03X3577670Y11598500I52058J-52068D01*
G01Y11405230D01*
G03X3589000Y11377900I38658J13D01*
G02X3614680Y11327360I-64630J-64633D01*
G03X3628860Y11319650I10037J1566D01*
G02X3662800Y11318000I15340J-34350D01*
G03X3677980Y11326830I5020J8833D01*
G01Y11475630D01*
G03X3656610Y11532370I-86029J-7D01*
G01X3649630Y11532380D01*
X3649040Y11532230D01*
G02X3676770Y11559960I-8840J36570D01*
G01X3676620Y11559370D01*
X3676630Y11551930D01*
X3677880Y11550500D01*
G02X3705920Y11475630I-85931J-74868D01*
G01Y11274470D01*
G02X3682510Y11205270I-113971J-4D01*
G03X3681250Y11191850I27198J-9323D01*
G02X3627310Y11151690I-37046J-6547D01*
G03X3612820Y11144790I-4564J-9080D01*
G02X3581820Y11085730I-123426J27119D01*
G37*
G54D30*
X2930700Y8939900D03*
X3081400Y8901800D03*
X3398900Y8990700D03*
X3444200Y9585300D03*
X3344200Y9485300D03*
X3444200Y9285300D03*
X3244200Y9085300D03*
X3444200Y9485300D03*
Y9385300D03*
Y9085300D03*
X3344200Y9385300D03*
Y9285300D03*
Y9085300D03*
Y9585300D03*
X3444200Y9685300D03*
Y10985300D03*
X3244200Y11285300D03*
X3444200Y11085300D03*
Y11185300D03*
X3344200D03*
X3244200D03*
X3444200Y11285300D03*
X3284600Y11594200D03*
X3386200D03*
X3348100Y11454500D03*
X3081400Y11581500D03*
X3386200Y11683100D03*
X3284600D03*
X3678300Y8800200D03*
X3868800Y8876400D03*
X3844200Y9585300D03*
X3644200Y9285300D03*
X3983100Y9092300D03*
X3744200Y9485300D03*
Y9585300D03*
Y9385300D03*
Y9285300D03*
X3644200Y9585300D03*
X3844200Y9285300D03*
Y9485300D03*
X3644200D03*
Y9385300D03*
X3544200Y9485300D03*
Y9385300D03*
Y9585300D03*
X3844200Y9385300D03*
X3644200Y9985300D03*
X3844200D03*
Y10185300D03*
X4044200Y10085300D03*
X3544200Y9785300D03*
X3844200Y10085300D03*
X4044200Y10185300D03*
X3644200D03*
X3744200D03*
X3644200Y9885300D03*
X3844200D03*
X3544200Y9985300D03*
X3744200Y9685300D03*
X3844200D03*
Y9785300D03*
X3644200Y9685300D03*
X3544200D03*
X4044200Y10585300D03*
Y10385300D03*
X3844200Y10485300D03*
X3744200Y10585300D03*
Y10385300D03*
X3644200Y10485300D03*
Y10285300D03*
Y10685300D03*
X3844200Y10585300D03*
Y10385300D03*
X4044200Y10485300D03*
X3644200Y10585300D03*
X3744200Y10485300D03*
X3644200Y10385300D03*
X3744200Y10685300D03*
X3544200D03*
X3944200D03*
X3844200Y10985300D03*
X3944200Y10885300D03*
Y10985300D03*
X4044200Y11085300D03*
X3844200Y10885300D03*
X3744200D03*
Y10985300D03*
X3644200Y10885300D03*
Y11085300D03*
X3544200Y10885300D03*
Y10985300D03*
X3644200D03*
X3844200Y10785300D03*
X4144200Y10185300D03*
X4244200Y9985300D03*
X4144200Y10085300D03*
X4344200D03*
X4444200Y9985300D03*
X4144200Y9885300D03*
X4244200Y10385300D03*
X4144200Y10485300D03*
Y10285300D03*
Y10385300D03*
X4244200Y10485300D03*
X4144200Y10585300D03*
X4444200Y10485300D03*
X4344200Y10385300D03*
X4144200Y10885300D03*
X4244200D03*
Y10985300D03*
X4144200Y11085300D03*
Y10985300D03*
G54D31*
X3284600Y12229200D03*
X3386200D03*
X3475100Y13550000D03*
X3694200Y12305400D03*
X3892900Y12624200D03*
X3607200Y13075000D03*
X3676550Y13740500D03*
X3602100Y13626200D03*
X4637150Y12997550D03*
X4414900Y13270600D03*
X4351400Y13181700D03*
X4199000Y13397600D03*
X4891150Y12972150D03*
X4745100Y13410300D03*
X4694300Y13283300D03*
G54D32*
X4313300Y13042000D03*
%LPD*%
G75*
G36*
G01X3767850Y11115300D02*
X3744200D01*
X3743080Y11084180D01*
X3774200Y11085300D01*
Y11108950D01*
G03X3767850Y11115300I-6350J0D01*
G37*
G36*
G01X3773210Y11222660D02*
G02X3746910Y11215170I-22414J28784D01*
G01X3743110Y11184150D01*
X3773860Y11189720D01*
G02X3779830Y11216410I35898J5983D01*
G03X3773210Y11222660I-6348J-93D01*
G37*
G36*
G01X3673080Y11222750D02*
G02X3646810Y11215180I-22497J28705D01*
G01X3643110Y11184140D01*
X3673850Y11189830D01*
G02X3679720Y11216530I35856J6112D01*
G03X3673080Y11222750I-6348J-123D01*
G37*
G36*
G01X3572470Y11123180D02*
G02X3546360Y11115210I-22891J28238D01*
G01X3543130Y11084130D01*
X3573770Y11090310D01*
G02X3579210Y11117060I35706J6667D01*
G03X3572470Y11123180I-6348J-220D01*
G37*
G36*
G01X3669010Y11546340D02*
X3669000Y11567610D01*
X3639080Y11569920D01*
X3641390Y11540000D01*
X3662660Y11539990D01*
G03X3669010Y11546340I0J6350D01*
G37*
G36*
G01X3779740Y13541790D02*
X3763000Y13558500D01*
X3740210Y13537300D01*
X3763000Y13516100D01*
X3779740Y13532810D01*
G03Y13541790I-4490J4490D01*
G37*
G36*
G01X4114200Y11208950D02*
Y11185300D01*
X4145320Y11184180D01*
X4144200Y11215300D01*
X4120550D01*
G03X4114200Y11208950I0J-6350D01*
G37*
G36*
G01X4039710Y11223240D02*
X4023000Y11206500D01*
X4044200Y11183710D01*
X4065400Y11206500D01*
X4048690Y11223240D01*
G03X4039710I-4490J-4490D01*
G37*
G36*
G01X4081600Y13316100D02*
G02X4103530Y13329780I27920J-20341D01*
G01X4100240Y13360900D01*
X4072630Y13346190D01*
G02X4073580Y13320360I-31570J-14094D01*
G03X4081600Y13316100I6092J1790D01*
G37*
G36*
G01X4051090Y13448560D02*
X4067800Y13465300D01*
X4046600Y13488090D01*
X4025400Y13465300D01*
X4042110Y13448560D01*
G03X4051090I4490J4490D01*
G37*
G36*
G01X4569050Y13443800D02*
X4592700D01*
X4593820Y13474920D01*
X4562700Y13473800D01*
Y13450150D01*
G03X4569050Y13443800I6350J0D01*
G37*
G36*
G01X4851190Y13537460D02*
X4867900Y13554200D01*
X4846700Y13576990D01*
X4825500Y13554200D01*
X4842210Y13537460D01*
G03X4851190I4490J4490D01*
G37*
G54D10*
X-911500Y5082000D03*
Y13972000D03*
X9536500Y5082000D03*
Y13972000D03*
G54D11*
X-687500Y90000D03*
X-187500Y4590000D03*
Y14090000D03*
X-687500Y19590000D03*
X8812500Y4590000D03*
Y14090000D03*
X9312500Y90000D03*
Y19590000D03*
G54D20*
X1194800Y14002900D03*
Y14202900D03*
X1394800Y14002900D03*
X1594800D03*
X1794800D03*
X1394800Y14202900D03*
X1594800D03*
X1794800D03*
X1994800Y14002900D03*
X2194800D03*
X1994800Y14202900D03*
X2194800D03*
X2394800Y14002900D03*
Y14202900D03*
X6938700Y14697550D03*
Y14951550D03*
Y15205550D03*
Y17262950D03*
Y17516950D03*
Y17770950D03*
G54D21*
X1388400Y19793200D03*
X7236700D03*
G54D12*
X-657500Y5590000D03*
Y6098000D03*
Y5844000D03*
Y6606000D03*
Y6352000D03*
Y7114000D03*
Y6860000D03*
Y7876000D03*
Y7622000D03*
Y7368000D03*
Y8384000D03*
Y8130000D03*
Y8892000D03*
Y8638000D03*
Y9400000D03*
Y9146000D03*
Y10162000D03*
Y9908000D03*
Y9654000D03*
Y10670000D03*
Y10416000D03*
Y11178000D03*
Y10924000D03*
Y11686000D03*
Y11432000D03*
Y12448000D03*
Y12194000D03*
Y11940000D03*
Y12956000D03*
Y12702000D03*
Y13464000D03*
Y13210000D03*
X-149500Y5590000D03*
X-403500D03*
X-149500Y6098000D03*
Y5844000D03*
X-403500Y6098000D03*
Y5844000D03*
X-149500Y6606000D03*
Y6352000D03*
X-403500Y6606000D03*
Y6352000D03*
X-149500Y7114000D03*
Y6860000D03*
X-403500Y7114000D03*
Y6860000D03*
X-149500Y7876000D03*
Y7622000D03*
Y7368000D03*
X-403500Y7876000D03*
Y7622000D03*
Y7368000D03*
X-149500Y8384000D03*
Y8130000D03*
X-403500Y8384000D03*
Y8130000D03*
X-149500Y8892000D03*
Y8638000D03*
X-403500Y8892000D03*
Y8638000D03*
X-149500Y9400000D03*
Y9146000D03*
X-403500Y9400000D03*
Y9146000D03*
X-149500Y10162000D03*
Y9908000D03*
Y9654000D03*
X-403500Y10162000D03*
Y9908000D03*
Y9654000D03*
X-149500Y10670000D03*
Y10416000D03*
X-403500Y10670000D03*
Y10416000D03*
X-149500Y11178000D03*
Y10924000D03*
X-403500Y11178000D03*
Y10924000D03*
X-149500Y11686000D03*
Y11432000D03*
X-403500Y11686000D03*
Y11432000D03*
X-149500Y12448000D03*
Y12194000D03*
Y11940000D03*
X-403500Y12448000D03*
Y12194000D03*
Y11940000D03*
X-149500Y12956000D03*
Y12702000D03*
X-403500Y12956000D03*
Y12702000D03*
X-149500Y13464000D03*
Y13210000D03*
X-403500Y13464000D03*
Y13210000D03*
X8774500Y5590000D03*
X9028500D03*
X8774500Y5844000D03*
Y6098000D03*
X9028500Y5844000D03*
Y6098000D03*
X8774500Y6352000D03*
Y6606000D03*
X9028500Y6352000D03*
Y6606000D03*
X8774500Y6860000D03*
Y7114000D03*
X9028500Y6860000D03*
Y7114000D03*
X8774500Y7368000D03*
Y7622000D03*
Y7876000D03*
X9028500Y7368000D03*
Y7622000D03*
Y7876000D03*
X8774500Y8130000D03*
Y8384000D03*
X9028500Y8130000D03*
Y8384000D03*
X8774500Y8638000D03*
Y8892000D03*
X9028500Y8638000D03*
Y8892000D03*
X8774500Y9146000D03*
Y9400000D03*
X9028500Y9146000D03*
Y9400000D03*
X8774500Y9654000D03*
Y9908000D03*
Y10162000D03*
X9028500Y9654000D03*
Y9908000D03*
Y10162000D03*
X8774500Y10416000D03*
Y10670000D03*
X9028500Y10416000D03*
Y10670000D03*
X8774500Y10924000D03*
Y11178000D03*
X9028500Y10924000D03*
Y11178000D03*
X8774500Y11432000D03*
Y11686000D03*
X9028500Y11432000D03*
Y11686000D03*
X8774500Y11940000D03*
Y12194000D03*
Y12448000D03*
X9028500Y11940000D03*
Y12194000D03*
Y12448000D03*
X8774500Y12702000D03*
Y12956000D03*
X9028500Y12702000D03*
Y12956000D03*
X8774500Y13210000D03*
Y13464000D03*
X9028500Y13210000D03*
Y13464000D03*
X9282500Y5590000D03*
Y5844000D03*
Y6098000D03*
Y6352000D03*
Y6606000D03*
Y6860000D03*
Y7114000D03*
Y7368000D03*
Y7622000D03*
Y7876000D03*
Y8130000D03*
Y8384000D03*
Y8638000D03*
Y8892000D03*
Y9146000D03*
Y9400000D03*
Y9654000D03*
Y9908000D03*
Y10162000D03*
Y10416000D03*
Y10670000D03*
Y10924000D03*
Y11178000D03*
Y11432000D03*
Y11686000D03*
Y11940000D03*
Y12194000D03*
Y12448000D03*
Y12702000D03*
Y12956000D03*
Y13210000D03*
Y13464000D03*
G54D13*
X-538900Y14787100D03*
X-157900Y14774400D03*
X1045900Y14672150D03*
Y15078550D03*
Y15281750D03*
Y14875350D03*
Y15484950D03*
Y15688150D03*
X766500D03*
X1045900Y16094550D03*
Y15891350D03*
Y16297750D03*
Y16704150D03*
Y16907350D03*
Y16500950D03*
Y17516950D03*
Y17313750D03*
Y17110550D03*
Y17720150D03*
Y17948750D03*
Y18151950D03*
Y18355150D03*
X1604700Y14570550D03*
Y14976950D03*
Y14773750D03*
Y15180150D03*
Y15383350D03*
Y15789750D03*
Y15586550D03*
Y16196150D03*
Y15992950D03*
Y16399350D03*
Y16602550D03*
Y16805750D03*
Y17008950D03*
Y17212150D03*
Y17415350D03*
Y17618550D03*
Y17821750D03*
Y18050350D03*
Y18253550D03*
Y18456750D03*
X1959000Y10467000D03*
X3281100Y14062550D03*
X3484300Y13846650D03*
X3627500Y1129400D03*
X3687500Y14062550D03*
X4313300Y13042000D03*
X6016840Y2130280D03*
X6029540Y4423900D03*
X6370700Y10298800D03*
X6586600Y10768700D03*
X6684700Y14410350D03*
X7548300Y14722950D03*
Y14926150D03*
Y15129350D03*
X7954700Y15230950D03*
Y14824550D03*
Y15027750D03*
X7548300Y15332550D03*
Y15738950D03*
Y15535750D03*
X7954700Y15434150D03*
Y15840550D03*
Y15637350D03*
X7548300Y16145350D03*
Y15942150D03*
Y16348550D03*
X7954700Y16043750D03*
Y16246950D03*
X7548300Y16754950D03*
Y16551750D03*
Y16958150D03*
X7954700Y16856550D03*
Y16450150D03*
Y16653350D03*
Y17059750D03*
G54D22*
X1887000Y10216000D03*
G54D23*
X2312500Y19138850D03*
X2249000Y19758850D03*
X2820500Y19138850D03*
X2693500D03*
X2566500D03*
X2439500D03*
X2884000Y19758850D03*
X2757000D03*
X2630000D03*
X2503000D03*
X2376000D03*
X3074500Y19138850D03*
X2947500D03*
X3011000Y19758850D03*
X3995000Y19138850D03*
X3868000D03*
X3741000D03*
X3614000D03*
X3931500Y19758850D03*
X3804500D03*
X3677500D03*
X3550500D03*
X4385000Y15707600D03*
X4559000Y15476600D03*
Y15957600D03*
X4503000Y19138850D03*
X4376000D03*
X4249000D03*
X4122000D03*
X4566500Y19758850D03*
X4439500D03*
X4312500D03*
X4185500D03*
X4058500D03*
X4986000Y15707600D03*
X5011000Y19138850D03*
X4884000D03*
X4757000D03*
X4630000D03*
X5074500Y19758850D03*
X4947500D03*
X4820500D03*
X4693500D03*
X5294000Y15303600D03*
X5677500Y19138850D03*
X5550500D03*
X5614000Y19758850D03*
X6185500Y19138850D03*
X6058500D03*
X5931500D03*
X5804500D03*
X6249000Y19758850D03*
X6122000D03*
X5995000D03*
X5868000D03*
X5741000D03*
X6439500Y19138850D03*
X6312500D03*
X6820500D03*
X6693500D03*
X6566500D03*
X6376000Y19758850D03*
X6757000D03*
X6630000D03*
X6503000D03*
X7074500Y19138850D03*
X6947500D03*
X7011000Y19758850D03*
X6884000D03*
G54D14*
X-754000Y15467700D03*
X-980800Y15310300D03*
Y16310300D03*
Y17310300D03*
Y18310300D03*
Y20310300D03*
X-487500Y15150400D03*
X-337500Y15467700D03*
X-360300Y16077300D03*
X-169800D03*
X-262500D03*
X19200Y16310300D03*
Y17310300D03*
Y18310300D03*
Y19310300D03*
Y20310300D03*
X598000Y3070000D03*
X373000Y2831200D03*
X533000D03*
X453000D03*
X613000D03*
X333000Y3351900D03*
X573000D03*
X409920Y3771000D03*
X496090D03*
X516000Y4208000D03*
X410200Y4601700D03*
Y4500100D03*
X312800Y5724500D03*
Y5804500D03*
Y5884500D03*
Y5964500D03*
X441420Y6528520D03*
X525420Y6612520D03*
X604800Y8254200D03*
X604900Y8635200D03*
X604800Y9016200D03*
X611400Y10254200D03*
Y10635200D03*
X494200Y12060300D03*
X269200Y13660300D03*
Y14260300D03*
X84200Y15480400D03*
X439800Y15797900D03*
X223900D03*
X439800Y15302600D03*
X849000Y3263000D03*
X1013000Y2831200D03*
X1093000D03*
X933000D03*
X773000D03*
X853000D03*
X693000D03*
X813000Y3351900D03*
X1053000D03*
X973200Y3804020D03*
X902080Y3776080D03*
X725300Y3898000D03*
X653000Y3351900D03*
X733000Y3353000D03*
X993070Y3886340D03*
X733000Y3351900D03*
X1156200Y3979400D03*
X1157600Y4444600D03*
X1151000Y4888600D03*
X972400Y4675100D03*
X743800D03*
X1146300Y5358500D03*
X1151000Y5129900D03*
X733650Y8597000D03*
X808100Y8571070D03*
X1025750Y8800200D03*
X1024000Y8876400D03*
X1074800Y9130400D03*
X858900Y10032100D03*
X717800Y9878300D03*
X780080Y9933120D03*
X965810Y9968600D03*
X903530Y9917800D03*
X846200Y10260700D03*
X1125600Y10667100D03*
X998600Y10654400D03*
X1062100Y10603600D03*
X1156200Y10443700D03*
X782700Y10184500D03*
X706500Y10806800D03*
X960500Y11251300D03*
X615060Y10786480D03*
Y10867760D03*
X871600Y11187800D03*
X935100Y11137000D03*
X1049400Y12368100D03*
X794200Y11935300D03*
X844200Y12685300D03*
X1062100Y12661000D03*
X973200Y12572100D03*
X922400Y12495900D03*
X1062100Y12876900D03*
Y12775300D03*
X844200Y13185300D03*
Y13660300D03*
Y14260300D03*
X897000Y18655400D03*
X894200Y18835300D03*
X1144200Y19085300D03*
X894200Y19335300D03*
X1144200Y19585300D03*
X894200Y20335300D03*
X1144200Y20085300D03*
X894200Y19835300D03*
X1532000Y4456800D03*
X1697100Y4228200D03*
X1196600Y4208000D03*
X1366900Y4672700D03*
X1646300Y5358500D03*
X1443100Y5282300D03*
X1747900Y5091800D03*
X1506600Y7377800D03*
X1582800Y8393200D03*
X1343200Y8116940D03*
X1700500Y8873000D03*
X1493900Y9346300D03*
X1303400Y9988920D03*
Y9854300D03*
X1493900D03*
X1491360Y9991460D03*
X1689760Y10026740D03*
X1693340Y9926740D03*
X1694940Y9826740D03*
X1519300Y10443700D03*
X1316100Y10629000D03*
X1303400Y10146400D03*
X1493900D03*
X1691000Y10193000D03*
X1684400Y10324200D03*
X1392300Y10667100D03*
X1544700Y10349600D03*
X1201800Y10341580D03*
X1684400Y10870300D03*
X1328800Y10717900D03*
X1417700Y11911700D03*
X1582800D03*
X1683600D03*
X1481200Y12292700D03*
X1226600Y12280000D03*
X1683600Y12254600D03*
X1595500Y12737200D03*
Y12508600D03*
X1711100Y12509900D03*
X1595600Y12623000D03*
X1711100D03*
X1341500Y12648000D03*
X1607400Y13257900D03*
X1228900Y13065700D03*
X1608200Y12991200D03*
X1679620Y13410300D03*
X1369200Y13660300D03*
X1379600Y16496400D03*
X1316100Y16907350D03*
X1392300Y17055200D03*
X1614000Y19157600D03*
X1394200Y18835300D03*
X1644200Y19035300D03*
X1550500Y19767200D03*
Y19411600D03*
X1674240Y19679020D03*
X1394200Y19335300D03*
X1614000Y20021200D03*
X1394200Y20335300D03*
X2273000Y2831200D03*
X2284000Y3874000D03*
X2233000Y3341700D03*
X2309430Y3778620D03*
X2268600Y4220700D03*
X2294000Y4355200D03*
X2167000Y4507600D03*
X2168600Y4610600D03*
X2217800Y4850500D03*
X1951100Y4952100D03*
X1874900Y5004650D03*
X2154300Y5396600D03*
X1887600Y5104500D03*
X2052700D03*
X1874900Y5218800D03*
X2268600Y5282300D03*
X2090800D03*
X1811400Y5155300D03*
X2012300Y5724500D03*
X2013100Y5804500D03*
X2009300Y5884500D03*
X2011000Y5964500D03*
X1824100Y6590300D03*
Y6680300D03*
X1874000Y7022200D03*
X2034000D03*
X1954000D03*
X1794000D03*
X1907580Y8399220D03*
X2154300Y8493200D03*
X2116200Y8793200D03*
X2154300Y8965300D03*
Y8587180D03*
X1874900Y9185300D03*
X2299800Y9359000D03*
X1849500Y9346300D03*
X1926000Y9669000D03*
X2221700Y9685300D03*
X2217800Y9867000D03*
X1798700Y9676500D03*
X1947000Y10016700D03*
X1798700Y10017000D03*
X2243200Y10298800D03*
Y10209900D03*
X2176500Y10635300D03*
X1975000Y10220000D03*
X2032000Y10345000D03*
X1845800Y10364050D03*
X1795000Y10262450D03*
X1887600Y11060800D03*
X2014600Y10819500D03*
X1862200Y11505300D03*
X1886800Y11911700D03*
X2026500D03*
X1760600D03*
X1959700Y12373000D03*
X2065400Y12749900D03*
X1811400Y12762600D03*
X2052200Y12598000D03*
X2103500Y12495900D03*
X2179700Y12775300D03*
X1912200Y13308700D03*
X2051900D03*
X1785200Y13257100D03*
Y13004700D03*
X1764020Y13448400D03*
X1975090Y14812470D03*
X1834490Y15038960D03*
X2257570Y14814330D03*
X2229450Y15136650D03*
X2116200Y15719160D03*
X2241380Y15348430D03*
X2253650Y15569950D03*
X2055540Y15425930D03*
X1889030Y15269950D03*
X2254030Y16134710D03*
X2032380Y16176360D03*
X2253080Y15991970D03*
X2249500Y16349990D03*
Y16519950D03*
Y16719950D03*
X2264410Y16953120D03*
X2266080Y17469950D03*
X2262710Y17277530D03*
X2151850Y17369950D03*
X2258540Y17147230D03*
X2044200Y18560300D03*
X1894200Y18835300D03*
X2144200Y19035300D03*
X2309240Y19679020D03*
X2182240D03*
X2055240D03*
X1928240D03*
X1925700Y19460580D03*
X2052700D03*
X2179700D03*
X2306700D03*
X1801240Y19679020D03*
X1798700Y19460580D03*
X2187320Y20052400D03*
X2314320D03*
X1894200Y20335300D03*
X2433000Y2526400D03*
X2564000Y3066000D03*
X2643000Y3060000D03*
X2435450Y3313000D03*
X2833000Y2831200D03*
X2673000D03*
X2753000D03*
X2353000D03*
X2593000D03*
X2513000D03*
X2833500Y3880000D03*
X2740000Y3334000D03*
X2876090Y3788780D03*
X2789920D03*
X2395600Y3778620D03*
X2553000Y3356900D03*
X2490600Y3898000D03*
X2725800D03*
X2633000Y3355800D03*
X2319400Y3992100D03*
X2509900Y4850500D03*
X2789300D03*
X2496400Y4687800D03*
X2725000D03*
X2802000Y5396600D03*
X2852800Y5041000D03*
X2789300Y5104500D03*
X2725800Y5155300D03*
X2509900D03*
X2535300Y5282300D03*
X2751200Y6476100D03*
X2543200Y7166700D03*
X2326300Y8876400D03*
X2844200Y9085300D03*
X2471800Y9435200D03*
X2408300Y9185300D03*
X2611500Y9371700D03*
X2580700Y9041500D03*
X2744200Y9485300D03*
Y9385300D03*
Y9285300D03*
X2611500Y9663800D03*
X2744200Y9985300D03*
X2624200Y9930500D03*
X2700400Y9881450D03*
X2744200Y9685300D03*
Y9585300D03*
X2463000Y9685300D03*
X2744200Y9785300D03*
X2484500Y9867000D03*
X2573400Y10603600D03*
X2644520Y10428340D03*
X2744200Y10285300D03*
X2509900Y10209900D03*
X2744200Y10585300D03*
X2444200Y10435300D03*
X2744200Y10685300D03*
X2414600Y10635300D03*
X2421000Y11060800D03*
X2844200Y11085300D03*
X2744200Y10785300D03*
Y11185300D03*
X2644200Y11085300D03*
X2744200Y10985300D03*
Y10885300D03*
X2421000Y10819500D03*
X2843400Y11487700D03*
X2357500Y11632300D03*
X2506100Y12187300D03*
X2382900Y12388100D03*
X2699600Y12213960D03*
X2870580Y12094580D03*
X2548400Y12711400D03*
X2388400Y12757100D03*
X2370200Y12495900D03*
X2548400Y12457800D03*
X2814700Y14553300D03*
X2564880Y15207430D03*
X2532850Y15057990D03*
X2539750Y15578930D03*
X2585300Y15356870D03*
X2538300Y15473600D03*
X2539460Y15723600D03*
X2578740Y16023600D03*
X2594830Y16223600D03*
X2546970Y16324190D03*
X2541760Y15923600D03*
X2547500Y16596750D03*
X2549410Y16492620D03*
X2584040Y17125420D03*
X2580400Y17291130D03*
X2581670Y16973600D03*
X2369200Y18060300D03*
X2436240Y19679020D03*
X2817240D03*
X2690240D03*
X2563240D03*
X2433700Y19460580D03*
X2687700D03*
X2814700D03*
X2560700D03*
X2441320Y20052400D03*
X2568320D03*
X2695320D03*
X2822320D03*
X2394200Y20335300D03*
X2993000Y2831200D03*
X2913000D03*
X2953000Y3353300D03*
X2894200Y4447400D03*
X2954400Y4220700D03*
X2906200Y4093700D03*
X3005200Y4990200D03*
X3094100Y5142600D03*
X3386200Y5930000D03*
X3437000Y6006200D03*
X3257450D03*
X3030600Y6222100D03*
X3322700Y6463400D03*
X3310700Y6717400D03*
X3183700D03*
X3056700D03*
X2929700D03*
X3437000Y6260200D03*
X3141300D03*
X3310700Y7758100D03*
X3183700D03*
X3056700Y7758800D03*
X2970200Y8187500D03*
X3050200Y8184800D03*
X3130200Y8188600D03*
X3210200Y8188800D03*
X3081400Y8901800D03*
X2930700Y8939900D03*
X3398900Y8990700D03*
X3244200Y9285300D03*
X2944200Y9485300D03*
X3344200D03*
X3044200Y9285300D03*
X3444200D03*
X3244200Y9385300D03*
Y9085300D03*
X3144200Y9285300D03*
X3244200Y9485300D03*
X3444200D03*
Y9385300D03*
Y9085300D03*
X3344200Y9385300D03*
Y9285300D03*
Y9085300D03*
X3044200Y9485300D03*
X2944200Y9385300D03*
Y9285300D03*
X3244200Y9785300D03*
X3144200Y10085300D03*
X3044200Y9685300D03*
X2944200Y9785300D03*
X3444200Y9585300D03*
X2944200D03*
X3344200Y9685300D03*
X3444200Y10085300D03*
X3044200Y9985300D03*
X3144200D03*
X3044200Y9785300D03*
X3144200D03*
X2944200Y9685300D03*
X3444200D03*
X3344200Y9585300D03*
X3244200Y9685300D03*
X3144200D03*
X3344200Y9985300D03*
Y9885300D03*
X3244200Y9585300D03*
X3144200D03*
X3044200D03*
X3444200Y9885300D03*
X3344200Y9785300D03*
X3244200Y10085300D03*
X3044200D03*
X3244200Y9885300D03*
Y9985300D03*
Y10585300D03*
X3044200D03*
Y10385300D03*
X2942600Y10286100D03*
X2944200Y10685300D03*
X3244200Y10185300D03*
X3444200Y10385300D03*
Y10585300D03*
X3344200Y10185300D03*
X3044200Y10485300D03*
X3144200D03*
X2944200Y10585300D03*
X3044200Y10685300D03*
X3144200D03*
X3344200Y10385300D03*
X3244200D03*
X3144200Y10185300D03*
X3044200D03*
X3344200Y10685300D03*
Y10585300D03*
X3144200D03*
Y10385300D03*
X2944200Y10485300D03*
X3444200Y10985300D03*
X3044200Y10785300D03*
X2944200Y10885300D03*
X3444200Y11085300D03*
Y11185300D03*
X3344200Y10985300D03*
Y11185300D03*
X3244200D03*
X3044200D03*
X3244200Y10885300D03*
Y11085300D03*
X2944200Y10785300D03*
X3244200Y10985300D03*
X3444200Y10885300D03*
X3144200Y11185300D03*
Y11085300D03*
X3044200Y10985300D03*
X3344200Y10885300D03*
Y10785300D03*
X2944200Y11185300D03*
X3044200Y11085300D03*
X3144200Y10985300D03*
X2944200D03*
X3044200Y10885300D03*
X3144200D03*
X3444200Y10785300D03*
X3144200D03*
X3344200Y11085300D03*
X3284600Y11594200D03*
X3386200D03*
X3244200Y11285300D03*
X3348100Y11454500D03*
X3081400Y11581500D03*
X3386200Y11683100D03*
X3284600D03*
X3444200Y11285300D03*
X3044200D03*
X3194200Y11423000D03*
X3284600Y12229200D03*
X3386200D03*
X3133950Y12355490D03*
X3144200Y12877600D03*
X3348100Y12699100D03*
X3233800Y12495900D03*
X3348100Y13372200D03*
X3271900Y13458930D03*
X3144200Y13308000D03*
X3271900Y13550000D03*
X3297300Y14680300D03*
X3290360Y15201090D03*
X3295130Y14872280D03*
X3355120Y14771910D03*
X3005200Y14769200D03*
X2951850Y14973600D03*
X3014500Y15075950D03*
X3015930Y14873600D03*
X3394500Y15675300D03*
X3287510Y15669950D03*
X3285500Y15527590D03*
X3328500Y15425950D03*
X3003470Y15559040D03*
X3015930Y15673600D03*
X3011320Y15265700D03*
Y15373600D03*
X2981050Y15773600D03*
X3285760Y16069950D03*
X2981270Y16173600D03*
X3017090Y15873600D03*
X2994010Y16353630D03*
X3015930Y16073600D03*
X3404720Y16166730D03*
X2983170Y15973600D03*
X3022190Y16619330D03*
X3128700Y16831150D03*
X2995420Y16463760D03*
X3209210Y16717240D03*
X3282920Y17369950D03*
X3056000Y17487000D03*
X3004910Y17073360D03*
X3282670Y17224470D03*
X3337330Y17122020D03*
X3398900Y17017100D03*
X3282920Y17019950D03*
X2991950Y16954600D03*
X3005960Y17280860D03*
X2962900Y17180020D03*
X3144900Y17487000D03*
X2954220Y17374670D03*
X3043300Y17652100D03*
X3369200Y17660300D03*
X3444200Y18835300D03*
X3344200Y19035300D03*
X3071240Y19679020D03*
X3068700Y19460580D03*
X3195700D03*
X3344200Y19785300D03*
X2944240Y19679020D03*
X2941700Y19460580D03*
X3344200Y19285300D03*
X3076320Y20052400D03*
X3394200Y20335300D03*
X3344200Y20085300D03*
X2949320Y20052400D03*
X2894200Y20335300D03*
X3686000Y625000D03*
X3767200Y1604500D03*
X3627500Y1650100D03*
X3923760Y2577200D03*
X3652900Y6069700D03*
X3602100Y5866500D03*
X3475100Y5777600D03*
X3884700Y5701400D03*
X3538610Y6107800D03*
X3538600Y6006200D03*
X3884700Y5984000D03*
X3957700Y6692000D03*
X3881500Y6615800D03*
X3792600Y6692000D03*
X3678300Y6311000D03*
X3919200Y6460300D03*
X3487800Y6387200D03*
X3589400Y6184000D03*
X3643200Y6831700D03*
X3881700Y7204380D03*
X3643200Y7174600D03*
X3780700Y7263500D03*
X3995800D03*
X3494200Y7714400D03*
X3941600Y7603000D03*
X3805000Y7644800D03*
X3856100Y8317600D03*
X3652900Y8152500D03*
X3678300Y8647800D03*
X3983100Y8749400D03*
X3678300Y8800200D03*
X3868800Y8876400D03*
X3983100Y9003400D03*
X3644200Y9285300D03*
X3983100Y9092300D03*
X3744200Y9485300D03*
Y9385300D03*
Y9285300D03*
X3844200D03*
Y9485300D03*
X3644200D03*
Y9385300D03*
X3544200Y9485300D03*
Y9385300D03*
X3844200D03*
X3644200Y9985300D03*
X3844200D03*
X3544200Y9785300D03*
X3844200Y9585300D03*
Y10085300D03*
X3644200Y9885300D03*
X3844200D03*
X3544200Y9985300D03*
X3744200Y9585300D03*
Y9685300D03*
X3844200D03*
Y9785300D03*
X3644200Y9585300D03*
Y9685300D03*
X3544200Y9585300D03*
Y9685300D03*
X3744200Y9885300D03*
X3844200Y10485300D03*
X3744200Y10585300D03*
Y10385300D03*
X3644200Y10485300D03*
Y10285300D03*
Y10685300D03*
X3844200Y10185300D03*
Y10585300D03*
Y10385300D03*
X3644200Y10585300D03*
X3744200Y10485300D03*
X3644200Y10385300D03*
Y10185300D03*
X3744200D03*
Y10685300D03*
X3544200D03*
X3944200D03*
X3844200Y10985300D03*
X3944200Y10885300D03*
Y10985300D03*
X3844200Y10885300D03*
Y11085300D03*
X3744200Y10885300D03*
Y10985300D03*
Y11085300D03*
Y11185300D03*
X3644200Y10885300D03*
Y11085300D03*
Y11185300D03*
X3544200Y10885300D03*
Y10985300D03*
Y11085300D03*
X3538600Y11187800D03*
X3644200Y10985300D03*
X3844200Y10785300D03*
X3644200Y11285300D03*
X3640200Y11568800D03*
X3543400Y11287700D03*
X3844200Y11285300D03*
X3475100Y11429100D03*
X3694200Y12305400D03*
X3892900Y12624200D03*
X3500500Y12673700D03*
X3671770Y12762600D03*
X3577920D03*
X3607200Y13075000D03*
X3995800Y13384900D03*
X3970400Y13296000D03*
X3830700Y13372200D03*
X3805300Y13461100D03*
X3741800Y13537300D03*
X3602100Y13372200D03*
X3551300Y13435700D03*
X3702500Y13256700D03*
X3892900Y13256600D03*
X3899500Y13588100D03*
X3868800Y13677000D03*
X3676550Y13740500D03*
X3602100Y13626200D03*
X3475100Y13550000D03*
X3576700Y14680300D03*
X3779900D03*
X3578920Y15138950D03*
X3869200Y14860300D03*
X3576700Y15442300D03*
X3687480Y15769950D03*
X3844200Y15485300D03*
X3580920Y15263950D03*
X3596250Y16064400D03*
X3690330Y15969950D03*
X3679250Y16269950D03*
X3488650Y16390550D03*
X3691000Y16521800D03*
X3869200Y16685300D03*
X3477020Y16604490D03*
X3476050Y16723180D03*
X3589120Y16449660D03*
X3894200Y16410300D03*
Y17185300D03*
X3729100Y17550500D03*
X3944200Y17560300D03*
X3617340Y19681560D03*
X3871340D03*
X3998340D03*
X3995800Y19463120D03*
X3744340Y19681560D03*
X3868800Y19463120D03*
X3741800D03*
X3617340Y20072720D03*
X3744340D03*
X3998340D03*
X3871340D03*
X3894200Y20335300D03*
X4135500Y354700D03*
X4134700Y252300D03*
X4427600Y530500D03*
X4035000Y579000D03*
X4022820Y2577200D03*
X4278960Y2484540D03*
X4582540Y2994300D03*
X4440300Y2945500D03*
X4351400Y4896220D03*
X4304880Y4791280D03*
X4284700Y5701400D03*
X4440300Y6724700D03*
X4033900Y6615800D03*
X4440300Y6978700D03*
X4414900Y7230600D03*
X4046600Y7200000D03*
X4326000Y7434800D03*
X4503800Y7415900D03*
X4351400Y7644800D03*
X4554600Y8292200D03*
X4338730Y8273640D03*
X4338700Y8358350D03*
X4194200Y8441000D03*
X4193930Y8961000D03*
X4444200Y8622400D03*
Y8952600D03*
X4351400Y8470000D03*
X4144200Y9285300D03*
X4544200D03*
Y9085300D03*
Y9385300D03*
Y9485300D03*
X4444200Y9085300D03*
X4244200Y9385300D03*
X4144200Y9485300D03*
X4244200D03*
X4344200Y9285300D03*
Y9085300D03*
Y9385300D03*
Y9485300D03*
X4244200Y9085300D03*
X4044200Y9385300D03*
X4244200Y9285300D03*
X4444200Y9385300D03*
Y9485300D03*
X4144200Y9385300D03*
X4044200Y9285300D03*
X4544200Y9785300D03*
X4044200Y10085300D03*
X4344200Y9585300D03*
X4044200Y9685300D03*
X4144200D03*
X4444200Y9585300D03*
X4244200Y9985300D03*
X4144200Y10085300D03*
X4344200D03*
X4444200Y9985300D03*
X4144200Y9885300D03*
X4344200Y9685300D03*
X4144200Y9585300D03*
X4544200D03*
X4044200D03*
X4244200Y9885300D03*
X4044200D03*
X4244200Y10385300D03*
X4144200Y10485300D03*
X4044200Y10585300D03*
Y10385300D03*
X4144200Y10185300D03*
Y10285300D03*
Y10385300D03*
X4244200Y10485300D03*
X4144200Y10585300D03*
X4044200Y10485300D03*
Y10185300D03*
X4544200Y10285300D03*
X4444200Y10485300D03*
X4344200Y10385300D03*
Y10985300D03*
X4144200Y10885300D03*
X4444200Y10985300D03*
Y11085300D03*
Y11185300D03*
X4344200D03*
X4244200Y10885300D03*
Y10985300D03*
Y11085300D03*
Y11185300D03*
X4144200Y11085300D03*
Y11185300D03*
X4044200Y11085300D03*
Y11185300D03*
X4544200Y11085300D03*
Y11185300D03*
X4444200Y10885300D03*
X4544200Y10985300D03*
X4144200D03*
X4446600Y10786100D03*
X4544200Y10885300D03*
X4344200Y11085300D03*
X4287970Y11834700D03*
X4144200Y11285300D03*
X4544200D03*
X4287900Y11479900D03*
X4444510Y11837000D03*
X4544060Y11838870D03*
X4344200Y11285300D03*
X4444310Y11597010D03*
X4544390Y11594050D03*
X4290590Y11599300D03*
X4414900Y13270600D03*
X4351400Y13181700D03*
X4199000Y13397600D03*
X4135500Y13245200D03*
X4099500Y13359500D03*
X4046600Y13486500D03*
X4448450Y14062550D03*
X4449500Y14678320D03*
X4544200Y15210300D03*
X4224400Y14743800D03*
X4097400Y16902800D03*
X4419200Y16410300D03*
Y17010300D03*
X4499500Y17713900D03*
X4419200Y17560300D03*
X4125340Y19681560D03*
X4249800Y19463120D03*
X4122800D03*
X4506340Y19681560D03*
X4503800Y19463120D03*
X4252340Y19681560D03*
X4379340D03*
X4376800Y19463120D03*
X4125340Y20072720D03*
X4379340D03*
X4252340D03*
X4506340D03*
X4344200Y20335300D03*
X4658060Y-115200D03*
X5039740Y2094300D03*
X5054980Y4172020D03*
X4814620Y4412020D03*
X4597780Y5072020D03*
X4748300Y5701400D03*
X5148300D03*
X4748300Y5984000D03*
X4969200Y6460300D03*
X4808600Y6724700D03*
X4841500Y7598900D03*
X5108200D03*
X4882100Y7829400D03*
X4994200Y8355700D03*
X4614800Y7946000D03*
X4844200Y8398000D03*
X4745100Y8660500D03*
Y8914500D03*
X4594200Y8622400D03*
Y8952600D03*
X4744200Y9085300D03*
X5144200Y9485300D03*
X4944200D03*
X4744200D03*
X4644200Y9085300D03*
Y9285300D03*
Y9385300D03*
X5049900Y9179600D03*
X4644200Y9485300D03*
X4844200Y9285300D03*
X4944200D03*
X4744200Y9385300D03*
X4845000Y9082900D03*
X4945000D03*
X4844200Y9385300D03*
X5144200D03*
X4744200Y9285300D03*
X4844200Y9485300D03*
X4644200Y9585300D03*
X4744200Y9785300D03*
X4944200Y9985300D03*
X4644200Y10085300D03*
X4944200Y9585300D03*
Y9785300D03*
X4644200Y9885300D03*
Y9685300D03*
X4744200Y9585300D03*
X5144200Y9885300D03*
Y9785300D03*
X4744200Y9885300D03*
X4844200Y9685300D03*
X5144200D03*
Y9585300D03*
X4844200Y10085300D03*
X5144200D03*
Y9985300D03*
X4844200Y9885300D03*
X4944200D03*
X4844200Y9785300D03*
X4644200D03*
X4744200Y9685300D03*
X4944200D03*
X4844200Y9585300D03*
X4744200Y10085300D03*
X4944200D03*
X4844200Y9985300D03*
X4744200D03*
X4944200Y10485300D03*
X4644200Y10585300D03*
X5144200Y10385300D03*
X4944200D03*
X5144200Y10485300D03*
X4844200D03*
X4944200Y10685300D03*
X4644200Y10385300D03*
X4944200Y10185300D03*
X5144200D03*
X4844200D03*
X5144200Y10685300D03*
X4844200Y10585300D03*
X4744200Y10485300D03*
X4844200Y10385300D03*
X4744200Y10185300D03*
X4844200Y10685300D03*
X4744200Y10585300D03*
X4644200Y10485300D03*
X4744200Y10385300D03*
X4644200Y10285300D03*
X4744200Y11085300D03*
X4746600Y10786100D03*
X4944200Y10885300D03*
X4744200Y11185300D03*
X4844200Y10885300D03*
Y10985300D03*
X4744200Y10885300D03*
X5144200Y10985300D03*
X4944200D03*
Y11085300D03*
X4646600Y10786100D03*
X4844200Y11085300D03*
X4840550Y11180850D03*
X4944200Y11485300D03*
X5044200D03*
X4744200Y11285300D03*
X4836000Y11605300D03*
Y11930700D03*
X4994200Y11937100D03*
X5100700Y12978500D03*
X4891150Y12972150D03*
X5099500Y13462300D03*
X4745100Y13410300D03*
X4694300Y13283300D03*
X4637150Y12997550D03*
X4592700Y13473800D03*
X4795900Y14083400D03*
X5056250Y13588100D03*
X4846700Y13575400D03*
X4913570Y15123920D03*
X5136990Y14995480D03*
X4969200Y14785300D03*
X4869200Y16060300D03*
Y16410300D03*
Y17010300D03*
Y17560300D03*
X5144200Y18835300D03*
X4760340Y19681560D03*
X4757800Y19463120D03*
X5014340Y19681560D03*
X5138800Y19463120D03*
X4887340Y19681560D03*
X5011800Y19463120D03*
X4884800D03*
X4633340Y19681560D03*
X4630800Y19463120D03*
X4760340Y20072720D03*
X4887340D03*
X5014340D03*
X4794200Y20335300D03*
X4633340Y20072720D03*
X5416780Y300500D03*
Y377260D03*
Y224860D03*
X5603060Y114220D03*
X5526300D03*
X5678700D03*
X5527420Y486780D03*
X5679820D03*
X5603060D03*
X5342000Y530500D03*
X5532500Y1424040D03*
Y1523100D03*
X5571720Y2764300D03*
Y2688660D03*
X5681240Y2578020D03*
X5571720Y2841060D03*
X5682360Y2950580D03*
X5496940Y2994300D03*
X5555360Y3697340D03*
Y3796400D03*
X5697600Y5028300D03*
X5696480Y4655740D03*
X5586960Y4842020D03*
Y4918780D03*
Y4766380D03*
X5512180Y5072020D03*
X5559640Y5991080D03*
Y6090140D03*
X5164200Y6722600D03*
X5544600Y6793600D03*
X5383300Y6768200D03*
X5278500Y7230600D03*
X5164200Y7232700D03*
X5253100Y7066300D03*
X5631500Y7555600D03*
X5541500D03*
X5294200Y8238400D03*
X5669200Y8241400D03*
X5494200Y8241200D03*
X5392800Y8838300D03*
Y8939900D03*
X5659500Y9117700D03*
X5583300Y9168500D03*
X5418900Y9485300D03*
X5684900Y9757400D03*
X5410200D03*
X5425700Y9630900D03*
X5678590Y10693720D03*
X5634100Y11085300D03*
X5586300Y10936800D03*
X5192650Y10895700D03*
X5319600Y10936800D03*
X5278500Y11086200D03*
X5352500Y11659900D03*
X5659500Y11314800D03*
X5596000Y11378300D03*
X5176870Y11933980D03*
X5612500Y11852020D03*
X5507100Y13270600D03*
X5443600Y13359500D03*
X5202300Y13397600D03*
X5596000Y13423000D03*
X5494400Y13867500D03*
X5299500Y13626200D03*
X5249500Y13702400D03*
X5697600D03*
X5696650Y14920610D03*
X5288900Y15131220D03*
X5172330Y14875920D03*
X5704250Y15472290D03*
X5390060Y16169950D03*
X5596540Y16036710D03*
X5704500Y16357510D03*
X5405500Y15953950D03*
X5709680Y16514290D03*
X5508640Y16688150D03*
X5409440Y16919950D03*
X5369200Y16410300D03*
X5240680Y17069950D03*
X5601400Y17119950D03*
X5498390Y17475640D03*
X5354500Y17258370D03*
X5244200Y19035300D03*
X5674740Y19679020D03*
X5294200Y19785300D03*
Y19285300D03*
X5672200Y20075260D03*
X5545200D03*
X5294200Y20335300D03*
Y20085300D03*
X6131140Y-399560D03*
X5789340Y376140D03*
Y223740D03*
Y300500D03*
X6171780Y1873740D03*
X5944280Y2687540D03*
Y2764300D03*
X5833640Y2578020D03*
X5758000D03*
X5944280Y2839940D03*
X5834760Y2950580D03*
X5758000D03*
X6187020Y4167360D03*
X5850000Y5028300D03*
X5848880Y4655740D03*
X5959520Y4917660D03*
Y4765260D03*
Y4842020D03*
X5773240Y5028300D03*
Y4655740D03*
X5844200Y6735300D03*
X6192900Y7161900D03*
X6015100D03*
X6192900Y6966900D03*
X6197600Y7661900D03*
X5994200Y7839500D03*
X6194200Y7836300D03*
X6010400Y7661900D03*
X5764300Y7596900D03*
X5926200Y8939900D03*
Y8851000D03*
X6244200Y8835300D03*
X6194200Y8583000D03*
X5772100Y9335300D03*
X5773100Y9485300D03*
X6056700Y10095600D03*
X5768600Y9630900D03*
X6218300Y10502000D03*
X6034330Y10438500D03*
X6128180D03*
X5950380Y10489300D03*
X5856530D03*
X6034330Y10692500D03*
X6128180D03*
X5773800Y10679800D03*
X5799200Y11264000D03*
X6218300Y11022700D03*
X5748400Y11530700D03*
X6234400Y11755900D03*
X6180200Y11327500D03*
X6090200Y11860900D03*
X6243700Y12755100D03*
X5913500Y12838800D03*
X6243700Y12628100D03*
Y13263100D03*
X6096380Y13097880D03*
X5761100Y13283300D03*
X6243700Y13390100D03*
X6167490Y14045290D03*
X5989700Y13664300D03*
X6152560Y14536850D03*
X6194200Y14260300D03*
X5968320Y15122750D03*
X5734570Y15219360D03*
X5967860Y14923600D03*
X5869690Y15244170D03*
X5860470Y15023700D03*
X5932840Y15573600D03*
X5932380Y15467020D03*
X5951370Y15754000D03*
X5842500Y15665580D03*
X5930500Y15362890D03*
X5899950Y15973600D03*
X5953070Y16223600D03*
X5868800Y16354310D03*
X5949500Y15869950D03*
X5950900Y16073600D03*
X5952320Y16874560D03*
X5944100Y16532580D03*
X5945500Y16424770D03*
X5949500Y16719950D03*
X5839640Y17375030D03*
X5756710Y17255380D03*
X5949500Y17119950D03*
X5950610Y17002340D03*
X5944500Y17474950D03*
X5943440Y17323110D03*
X5944330Y17602080D03*
X5799500Y17673500D03*
X5926200Y19460580D03*
X5928740Y19679020D03*
X6055740D03*
X6182740D03*
X6180200Y19460580D03*
X6053200D03*
X5801740Y19679020D03*
X5799200Y19460580D03*
X6180200Y20075260D03*
X6053200D03*
X5926200D03*
X5799200D03*
X5794200Y20335300D03*
X6766140Y-145560D03*
X6639140D03*
X6512140D03*
X6766140Y-18560D03*
X6639140D03*
X6766140Y108440D03*
X6639140D03*
X6766140Y235440D03*
X6639140D03*
X6766140Y362440D03*
X6639140D03*
X6766140Y489440D03*
X6639140D03*
X6766140Y616440D03*
X6639140D03*
X6766140Y743440D03*
X6639140D03*
X6766140Y870440D03*
X6639140D03*
Y997440D03*
X6766140D03*
Y1124440D03*
X6639140D03*
X6806780Y2127740D03*
X6679780D03*
X6552780D03*
X6806780Y2254740D03*
X6679780D03*
X6806780Y2381740D03*
X6679780D03*
X6806780Y2508740D03*
X6679780D03*
X6806780Y2635740D03*
X6679780D03*
X6806780Y2762740D03*
X6679780D03*
X6806780Y2889740D03*
X6679780D03*
X6806780Y3016740D03*
X6679780D03*
X6806780Y3143740D03*
X6679780D03*
Y3270740D03*
X6806780D03*
Y3397740D03*
X6679780D03*
X6695020Y4421360D03*
X6822020D03*
X6568020D03*
X6822020Y4548360D03*
X6695020D03*
X6822020Y4675360D03*
X6695020D03*
X6822020Y4802360D03*
X6695020D03*
X6822020Y4929360D03*
X6695020D03*
X6822020Y5183360D03*
X6695020D03*
X6822020Y5310360D03*
X6695020D03*
X6822020Y5437360D03*
X6695020D03*
Y5564360D03*
X6822020D03*
Y5056360D03*
X6695020D03*
Y5691360D03*
X6822020D03*
X6344200Y6735300D03*
X6840600Y6730220D03*
X6824300Y7285300D03*
X6510970Y6780900D03*
X6510400Y6882500D03*
X6815200Y7025800D03*
X6535800Y7294800D03*
X6827900Y7441300D03*
Y7530200D03*
X6815200Y7675800D03*
X6459400Y7466900D03*
X6461030Y7643070D03*
X6485000Y7570050D03*
X6777100Y7885300D03*
X6497700D03*
X6485000Y8025500D03*
X6480470Y8114930D03*
X6345300Y8533500D03*
X6319900Y8622400D03*
X6345300Y8444600D03*
X6418000D03*
X6456700Y10095600D03*
X6627100Y10110700D03*
X6757500Y11258200D03*
X6612000Y11276700D03*
X6502900Y11754100D03*
X6676600Y11950900D03*
X6319200Y12110300D03*
X6744200Y12885300D03*
Y12460300D03*
X6769200Y13185300D03*
X6535790Y13930980D03*
X6364350Y13924650D03*
X6544200Y13610300D03*
X6707260Y13988160D03*
X6297430Y14585630D03*
X6419620Y14778250D03*
X6736170Y15669950D03*
X6429660Y15745060D03*
X6373910Y15650770D03*
X6735500Y15940630D03*
Y16094550D03*
X6643830Y16348550D03*
X6731520Y15819950D03*
X6430760Y16158180D03*
X6355070Y16023600D03*
X6430780Y15923600D03*
Y16275890D03*
X6472300Y16483700D03*
X6355500Y16623320D03*
X6396970Y16824270D03*
X6725560Y17172460D03*
X6356500Y17023600D03*
X6396970Y17173600D03*
X6319200Y17885300D03*
X6794200Y18835300D03*
X6436740Y19679020D03*
X6434200Y19460580D03*
X6563740Y19679020D03*
X6690740D03*
X6817740D03*
X6561200Y19460580D03*
X6815200D03*
X6688200D03*
X6309740Y19679020D03*
X6307200Y19460580D03*
X6434200Y20075260D03*
X6815200D03*
X6688200D03*
X6561200D03*
X6794200Y20335300D03*
X6307200Y20075260D03*
X6294200Y20335300D03*
X7401140Y-272560D03*
X6966160Y-155720D03*
X6893140Y-272560D03*
X7020140Y235440D03*
Y362440D03*
X7147140Y108440D03*
X7020140Y489440D03*
X7147140D03*
X6893140Y108440D03*
Y235440D03*
Y362440D03*
Y489440D03*
X7401140D03*
X7403700Y238000D03*
X7279000Y240300D03*
X7401140Y362440D03*
X7274140D03*
X7020140Y616440D03*
Y743440D03*
Y870440D03*
Y997440D03*
X7147140Y616440D03*
Y743440D03*
Y870440D03*
Y997440D03*
X6893140Y616440D03*
Y743440D03*
Y870440D03*
Y997440D03*
X7401140Y616440D03*
Y743440D03*
Y870440D03*
Y997440D03*
X7110000Y1210000D03*
X7231000Y1276000D03*
X7110000Y1591000D03*
Y1464000D03*
X7231000Y1530000D03*
X7110000Y1337000D03*
X7231000Y1403000D03*
X7020140Y1124440D03*
X7147140D03*
X6893140D03*
X7360100Y1442060D03*
Y1541120D03*
X7401140Y1124440D03*
X7231000Y1784000D03*
Y1657000D03*
X7110000Y1718000D03*
X7006800Y2117580D03*
X6933780Y2000740D03*
X7060780Y2508740D03*
Y2635740D03*
Y2762740D03*
X7187780Y2381740D03*
Y2762740D03*
X6933780Y2381740D03*
Y2508740D03*
Y2635740D03*
Y2762740D03*
X7316040Y2510000D03*
X7314780Y2635740D03*
X7060780Y2889740D03*
X7187780D03*
X7060780Y3016740D03*
Y3143740D03*
Y3270740D03*
X7187780Y3016740D03*
Y3143740D03*
Y3270740D03*
X6933780Y2889740D03*
Y3016740D03*
Y3143740D03*
Y3270740D03*
X7101000Y3884000D03*
Y3757000D03*
Y3630000D03*
Y3503000D03*
X7222000Y3569000D03*
Y3696000D03*
Y3823000D03*
X7060780Y3397740D03*
X7187780D03*
X6933780D03*
X7398200Y3715360D03*
Y3814420D03*
X7101000Y4011000D03*
X7222000Y3950000D03*
Y4077000D03*
X7022040Y4411200D03*
X6946390Y4293440D03*
X6949020Y4675360D03*
Y4802360D03*
Y4929360D03*
X7076020Y4802360D03*
Y4929360D03*
X7203020Y4675360D03*
X7328660Y4801000D03*
X7330020Y4929360D03*
X6949020Y5183360D03*
Y5310360D03*
Y5437360D03*
X7076020Y5183360D03*
Y5310360D03*
Y5437360D03*
X7203020Y5183360D03*
Y5310360D03*
Y5437360D03*
X6949020Y5564360D03*
X7076020D03*
X7203020D03*
X6949020Y5056360D03*
X7076020D03*
X7203020D03*
X7209000Y6100000D03*
Y5973000D03*
Y5846000D03*
X7088000Y5780000D03*
Y5907000D03*
Y6034000D03*
Y6161000D03*
X6949020Y5691360D03*
X7076020D03*
X7203020D03*
X7414900Y6008320D03*
Y6107380D03*
X7209000Y6354000D03*
Y6227000D03*
X7088000Y6288000D03*
X6967600Y6730100D03*
X7069200Y7294800D03*
X6944200Y7160300D03*
X7056500Y6793600D03*
Y6882500D03*
X7394200Y7710300D03*
X7069200Y7441300D03*
Y7530200D03*
X7361300Y7898500D03*
Y8000100D03*
X7043800Y8152500D03*
Y8254100D03*
X7138500Y8476900D03*
X7374000Y8609700D03*
X7228500Y8476900D03*
X7269200Y9735300D03*
X6916800Y10095600D03*
X7269200Y11010300D03*
X7365090Y11721200D03*
X7412100Y11657700D03*
X7145680Y11657980D03*
X7081900Y11733900D03*
X7132700Y12295600D03*
X7119200Y11960300D03*
X7178300Y12755100D03*
X7165600Y12628100D03*
X7170800Y13257900D03*
X6894200Y13935300D03*
X7183500Y13854800D03*
X7202550Y14051650D03*
X7194200Y14260300D03*
X7319200Y17685300D03*
Y18285300D03*
X7294200Y18835300D03*
X7069200Y19460580D03*
X7071740Y19679020D03*
X7196200Y19460580D03*
X7294200Y19335300D03*
X6944740Y19679020D03*
X6942200Y19460580D03*
X7294200Y20335300D03*
Y20035300D03*
X6942200Y20075260D03*
X7763700Y-128000D03*
X7676000Y-49000D03*
X7528140Y489440D03*
X7655140D03*
X7789780Y168000D03*
X7790000Y-59000D03*
X7763680Y391840D03*
Y264840D03*
X7718640Y44940D03*
X7528140Y-18560D03*
X7763120Y745420D03*
Y618420D03*
X7761540Y964980D03*
X7528140Y616440D03*
Y743440D03*
Y870440D03*
Y997440D03*
X7655140Y616440D03*
Y743440D03*
Y870440D03*
Y997440D03*
X7528140Y1124440D03*
X7655140D03*
X7761540Y1091980D03*
X7815160Y2150600D03*
X7441780Y2000740D03*
X7717440Y2237560D03*
X7568780Y2762740D03*
X7695780D03*
X7441780D03*
X7851310Y2420410D03*
X7826580Y2250000D03*
X7454810Y2521770D03*
X7441780Y2635740D03*
X7804720Y2666780D03*
Y2539780D03*
X7759280Y2318240D03*
X7568780Y2254740D03*
X7804720Y3017300D03*
Y2890300D03*
X7568780Y2889740D03*
X7695780D03*
X7802180Y3240820D03*
X7568780Y3016740D03*
Y3143740D03*
Y3270740D03*
X7695780Y3016740D03*
Y3143740D03*
Y3270740D03*
X7441780Y2889740D03*
Y3016740D03*
Y3143740D03*
Y3270740D03*
X7568780Y3397740D03*
X7695780D03*
X7441780D03*
X7802180Y3367820D03*
X7830400Y4444220D03*
X7457020Y4294360D03*
X7774520Y4611860D03*
X7860000Y4741000D03*
X7811000Y4526000D03*
X7462000Y4807340D03*
X7457020Y4929360D03*
X7818500Y4960360D03*
Y4833360D03*
X7584020Y4548360D03*
X7818500Y5183360D03*
Y5310360D03*
X7584020Y5183360D03*
Y5310360D03*
Y5437360D03*
X7711020Y5183360D03*
Y5310360D03*
Y5437360D03*
X7818500Y5564360D03*
X7584020D03*
X7711020D03*
X7457020Y5183360D03*
Y5310360D03*
Y5437360D03*
Y5564360D03*
X7584020Y5056360D03*
X7711020D03*
X7457020D03*
X7584020Y5691360D03*
X7711020D03*
X7457020D03*
X7818500D03*
X7479200Y6644800D03*
X7767300Y7035300D03*
X7494200Y7160300D03*
X7488300Y7301600D03*
X7491900Y7025800D03*
X7755000Y7675800D03*
Y8275800D03*
X7780400Y8038200D03*
Y8139800D03*
X7767700Y8597000D03*
X7988550Y8444600D03*
X7894700D03*
X7744200Y9735300D03*
X7894200Y11610300D03*
X7819200Y12260300D03*
X7494200Y11960300D03*
X7536200Y12295600D03*
X7819200Y12960300D03*
X7501000Y12628100D03*
X7819200Y13485300D03*
X7494200Y13860300D03*
X7819200Y14235300D03*
X7694200Y18835300D03*
X7494200Y19085300D03*
X7694200Y19335300D03*
X7494200Y19585300D03*
X7694200Y20335300D03*
Y20035300D03*
Y19835300D03*
X8148700Y-282720D03*
X8025000Y-47000D03*
X8029000Y154000D03*
X8288400Y396240D03*
Y297180D03*
Y47360D03*
Y-51700D03*
X8285380Y749820D03*
Y650760D03*
X8283800Y997320D03*
X8288400Y1434200D03*
Y1548500D03*
X8283800Y1096380D03*
X8199500Y1990580D03*
X8050940Y2330940D03*
X8326980Y2671180D03*
Y2572120D03*
Y2320660D03*
Y2221600D03*
Y3021700D03*
Y2922640D03*
X8324440Y3273160D03*
X8329040Y3821800D03*
Y3707500D03*
X8324440Y3372220D03*
X8199500Y4284200D03*
X8108690Y4550050D03*
X8104500Y4704990D03*
X8340760Y4614760D03*
Y4515700D03*
Y4964760D03*
Y4865700D03*
Y5314760D03*
Y5215700D03*
Y5565700D03*
X8343200Y6114760D03*
Y6000460D03*
X8340760Y5664760D03*
X8034400Y6644800D03*
X8534400Y6654800D03*
X8293100Y6793600D03*
Y6896100D03*
X8481000Y6949100D03*
X8391200D03*
X8288400Y7428600D03*
X8287840Y7549740D03*
X8015900Y8285300D03*
X8288400D03*
X8034400Y7894800D03*
X8094200Y9885300D03*
X8369200Y10460300D03*
X8294200Y11460300D03*
X8194200Y11910300D03*
X8344200Y13485300D03*
X8094200Y13860300D03*
X8344200Y14235300D03*
X8194200Y14685300D03*
Y15285300D03*
Y16285300D03*
Y17285300D03*
Y18285300D03*
Y18985300D03*
X8019200Y20285300D03*
X8620200Y6569000D03*
X8819200Y15285300D03*
Y16285300D03*
Y17285300D03*
Y18285300D03*
Y19285300D03*
Y20285300D03*
X9478860Y2377340D03*
X9471240Y3286660D03*
X9619200Y14685300D03*
Y15285300D03*
Y16285300D03*
Y17285300D03*
Y18285300D03*
Y20285300D03*
G54D15*
X0Y0D03*
Y1000000D03*
Y2000000D03*
X568000D03*
X858000Y0D03*
X1108000Y2000000D03*
X1425000Y500000D03*
Y1500000D03*
Y2500000D03*
Y3500000D03*
X1900000Y0D03*
Y1000000D03*
Y2000000D03*
X2758000Y0D03*
X2468000Y2000000D03*
X3325000Y500000D03*
Y1500000D03*
X3008000Y2000000D03*
X3325000Y2500000D03*
Y3500000D03*
G54D24*
X7952500Y17903950D03*
X7698500D03*
X7952500Y17649950D03*
X7698500D03*
X7952500Y18157950D03*
X7698500D03*
G54D25*
G01X-990500Y3042840D02*
X-993330Y3025870D01*
X-989560Y3010790D01*
X-980370Y2998770D01*
X-969520Y2990750D01*
X-953030Y2988390D01*
X-938650Y2990990D01*
X-928980Y2998290D01*
X-921440Y3010550D01*
X-922620Y3025870D01*
X-928040Y3036950D01*
X-938650Y3047560D01*
G01X-928040Y3036950D02*
X-916730Y3034120D01*
X-903760Y3035300D01*
X-892920Y3041430D01*
X-886790Y3052270D01*
X-885620Y3065230D01*
X-891980Y3080080D01*
X-904000Y3089280D01*
X-920260Y3094220D01*
G01X2710870Y-1164700D02*
Y-1044700D01*
X2750870D01*
X2764200Y-1050700D01*
X2774200Y-1064700D01*
X2777530Y-1080700D01*
X2774200Y-1096700D01*
X2765870Y-1108700D01*
X2750870Y-1114700D01*
X2710870D01*
G01X2881870Y-1054700D02*
X2871870Y-1048700D01*
X2860200Y-1044700D01*
X2846870D01*
X2831860Y-1050700D01*
X2820200Y-1060700D01*
X2811870Y-1072700D01*
X2805200Y-1092700D01*
X2803530Y-1110700D01*
X2806870Y-1128700D01*
X2811870Y-1140700D01*
X2821870Y-1152700D01*
X2833530Y-1160700D01*
X2845200Y-1164700D01*
X2856870D01*
X2868530Y-1160700D01*
X2878530Y-1154700D01*
X2886870Y-1146700D01*
G01X2946200Y-1044700D02*
X2932860Y-1048700D01*
X2922870Y-1058700D01*
X2916200Y-1070700D01*
X2911200Y-1086700D01*
X2909530Y-1104700D01*
X2911200Y-1122700D01*
X2916200Y-1138700D01*
X2922870Y-1150700D01*
X2932860Y-1160700D01*
X2946200Y-1164700D01*
X2959530Y-1160700D01*
X2969530Y-1150700D01*
X2976200Y-1138700D01*
X2981200Y-1122700D01*
X2982870Y-1104700D01*
X2981200Y-1086700D01*
X2976200Y-1070700D01*
X2969530Y-1058700D01*
X2959530Y-1048700D01*
X2946200Y-1044700D01*
G01X3067200Y-1164700D02*
Y-1044700D01*
X3005530Y-1130700D01*
X3088870D01*
G01X3119870Y-1150700D02*
X3131530Y-1160700D01*
X3144870Y-1164700D01*
X3158200Y-1160700D01*
X3169870Y-1148700D01*
X3178200Y-1130700D01*
X3181530Y-1112700D01*
Y-1090700D01*
X3178200Y-1072700D01*
X3169870Y-1056700D01*
X3159870Y-1048700D01*
X3148200Y-1044700D01*
X3134860Y-1048700D01*
X3124870Y-1056700D01*
X3118200Y-1068700D01*
X3114870Y-1084700D01*
X3118200Y-1098700D01*
X3126530Y-1112700D01*
X3136530Y-1120700D01*
X3148200Y-1122700D01*
X3161530Y-1118700D01*
X3171530Y-1108700D01*
X3181530Y-1090700D01*
G01X3207530Y-1164700D02*
X3249200Y-1044700D01*
X3290870Y-1164700D01*
G01X3275870Y-1122700D02*
X3222530D01*
G01X3431200Y-1044700D02*
X3471200D01*
G01X3451200D02*
Y-1164700D01*
G01X3431200D02*
X3471200D01*
G01X3517200Y-1148700D02*
X3530530Y-1158700D01*
X3545530Y-1164700D01*
X3558870D01*
X3572200Y-1158700D01*
X3582200Y-1148700D01*
X3587200Y-1134700D01*
X3583870Y-1120700D01*
X3575530Y-1108700D01*
X3560530Y-1100700D01*
X3540530Y-1096700D01*
X3528870Y-1088700D01*
X3523870Y-1074700D01*
X3527200Y-1060700D01*
X3535530Y-1050700D01*
X3547200Y-1044700D01*
X3558870D01*
X3570530Y-1048700D01*
X3580530Y-1058700D01*
G01X3618200Y-1148700D02*
X3631530Y-1158700D01*
X3646530Y-1164700D01*
X3659870D01*
X3673200Y-1158700D01*
X3683200Y-1148700D01*
X3688200Y-1134700D01*
X3684870Y-1120700D01*
X3676530Y-1108700D01*
X3661530Y-1100700D01*
X3641530Y-1096700D01*
X3629870Y-1088700D01*
X3624870Y-1074700D01*
X3628200Y-1060700D01*
X3636530Y-1050700D01*
X3648200Y-1044700D01*
X3659870D01*
X3671530Y-1048700D01*
X3681530Y-1058700D01*
G01X3717530Y-1044700D02*
Y-1130700D01*
X3724200Y-1148700D01*
X3737530Y-1160700D01*
X3754200Y-1164700D01*
X3770870Y-1160700D01*
X3784200Y-1148700D01*
X3790870Y-1130700D01*
Y-1044700D01*
G01X3888530Y-1164700D02*
X3821870D01*
Y-1044700D01*
X3888530D01*
G01X3861870Y-1102700D02*
X3821870D01*
G01X4057200Y-1164700D02*
Y-1044700D01*
X4037200Y-1068700D01*
G01Y-1164700D02*
X4077200D01*
G01X4510870Y-1044700D02*
Y-1164700D01*
X4577530D01*
G01X4603530D02*
X4645200Y-1044700D01*
X4686870Y-1164700D01*
G01X4671870Y-1122700D02*
X4618530D01*
G01X4746200Y-1164700D02*
Y-1110700D01*
X4712870Y-1044700D01*
G01X4779530D02*
X4746200Y-1110700D01*
G01X4880530Y-1164700D02*
X4813870D01*
Y-1044700D01*
X4880530D01*
G01X4853870Y-1102700D02*
X4813870D01*
G01X4914870Y-1164700D02*
Y-1044700D01*
X4956530D01*
X4969870Y-1050700D01*
X4978200Y-1058700D01*
X4981530Y-1074700D01*
X4978200Y-1090700D01*
X4968200Y-1100700D01*
X4956530Y-1106700D01*
X4914870D01*
G01X4956530D02*
X4981530Y-1164700D01*
G01X5113530Y-1140700D02*
X5123530Y-1154700D01*
X5136860Y-1162700D01*
X5151870Y-1164700D01*
X5165200Y-1162700D01*
X5178530Y-1152700D01*
X5186870Y-1140700D01*
X5188530Y-1128700D01*
X5185200Y-1114700D01*
X5173530Y-1104700D01*
X5161870Y-1100700D01*
X5146870D01*
G01X5161870D02*
X5171870Y-1094700D01*
X5180200Y-1084700D01*
X5183530Y-1072700D01*
X5180200Y-1060700D01*
X5171870Y-1050700D01*
X5156870Y-1044700D01*
X5141870Y-1046700D01*
X5126870Y-1054700D01*
G01X5343870Y-1204700D02*
X5327200Y-1184700D01*
X5318870Y-1164700D01*
Y-1084700D01*
X5327200Y-1064700D01*
X5343870Y-1044700D01*
G01X5418200Y-1148700D02*
X5431530Y-1158700D01*
X5446530Y-1164700D01*
X5459870D01*
X5473200Y-1158700D01*
X5483200Y-1148700D01*
X5488200Y-1134700D01*
X5484870Y-1120700D01*
X5476530Y-1108700D01*
X5461530Y-1100700D01*
X5441530Y-1096700D01*
X5429870Y-1088700D01*
X5424870Y-1074700D01*
X5428200Y-1060700D01*
X5436530Y-1050700D01*
X5448200Y-1044700D01*
X5459870D01*
X5471530Y-1048700D01*
X5481530Y-1058700D01*
G01X5534200Y-1044700D02*
X5574200D01*
G01X5554200D02*
Y-1164700D01*
G01X5534200D02*
X5574200D01*
G01X5665200Y-1104700D02*
X5698530D01*
Y-1140700D01*
X5688530Y-1152700D01*
X5676870Y-1160700D01*
X5660200Y-1164700D01*
X5643530Y-1160700D01*
X5631870Y-1152700D01*
X5621870Y-1140700D01*
X5615200Y-1126700D01*
X5611870Y-1110700D01*
Y-1096700D01*
X5615200Y-1084700D01*
X5621870Y-1070700D01*
X5631870Y-1058700D01*
X5641860Y-1050700D01*
X5655200Y-1044700D01*
X5666870D01*
X5680200Y-1048700D01*
X5690200Y-1056700D01*
G01X5717870Y-1164700D02*
Y-1044700D01*
X5794530Y-1164700D01*
Y-1044700D01*
G01X5815530Y-1164700D02*
X5857200Y-1044700D01*
X5898870Y-1164700D01*
G01X5883870Y-1122700D02*
X5830530D01*
G01X5924870Y-1044700D02*
Y-1164700D01*
X5991530D01*
G01X6067530Y-1204700D02*
X6084200Y-1184700D01*
X6092530Y-1164700D01*
Y-1084700D01*
X6084200Y-1064700D01*
X6067530Y-1044700D01*
G54D16*
X0Y2750000D03*
Y2280000D03*
Y3250000D03*
X233000Y3710000D03*
X1193000D03*
X713000D03*
X1425000Y2750000D03*
Y2280000D03*
Y3250000D03*
X1900000Y2750000D03*
Y2280000D03*
Y3250000D03*
X2133000Y3710000D03*
X2613000D03*
X3325000Y2750000D03*
Y2280000D03*
Y3250000D03*
X3093000Y3710000D03*
G54D26*
G01X8620200Y6569000D02*
X8534400Y6654800D01*
G01X9282500Y6606000D02*
X9182790Y6506290D01*
G02X9112080Y6477000I-70711J70710D01*
G01X8753620D01*
G02X8682910Y6506290I1J100000D01*
G01X8620200Y6569000D01*
G54D17*
X0Y3000000D03*
X1900000D03*
G54D27*
G01X3015930Y15673600D02*
X2971840Y15629510D01*
X2971030D01*
X2650710Y15309190D01*
G02X2580000Y15279900I-70711J70710D01*
G01X2569530D01*
G03X2498820Y15250610I1J-100000D01*
G01X2483790Y15235580D01*
G02X2413080Y15206290I-70711J70710D01*
G01X2124810D01*
G03X2054100Y15177000I1J-100000D01*
G01X2038470Y15161370D01*
G02X1967760Y15132080I-70711J70710D01*
G01X1782800D01*
G03X1718190Y15105320I-3J-91370D01*
G01X1718180Y15105310D01*
G02X1653570Y15078550I-64607J64610D01*
G01X1045900D01*
G01Y14672150D02*
X2376350D01*
G03X2447060Y14701440I-1J100000D01*
G01X3011320Y15265700D01*
G01X1045900Y15688150D02*
X1660230D01*
G03X1730940Y15717440I-1J100000D01*
G01X1777450Y15763950D01*
G02X1848160Y15793240I70711J-70710D01*
G01X2832970D01*
G03X2903680Y15822530I-1J100000D01*
G01X2925460Y15844310D01*
G02X2996170Y15873600I70711J-70710D01*
G01X3017090D01*
G01X1045900Y15484950D02*
X1668380D01*
G03X1739090Y15514240I-1J100000D01*
G01X1756710Y15531860D01*
G02X1827420Y15561150I70711J-70710D01*
G01X2095630D01*
G02X2166340Y15531860I-1J-100000D01*
G01X2168600Y15529600D01*
G03X2239310Y15500310I70711J70710D01*
G01X2264440D01*
G03X2335150Y15529600I-1J100000D01*
G01X2430070Y15624520D01*
G02X2500780Y15653810I70711J-70710D01*
G01X2819840D01*
G03X2890550Y15683100I-1J100000D01*
G01X2981050Y15773600D01*
G01X1045900Y16094550D02*
X2000030D01*
G03X2070740Y16123840I-1J100000D01*
G01X2121960Y16175060D01*
G02X2192670Y16204350I70711J-70710D01*
G01X2241460D01*
G02X2312170Y16175060I-1J-100000D01*
G01X2359730Y16127500D01*
G03X2430440Y16098210I70711J70710D01*
G01X2784520D01*
X2809130Y16073600D01*
X3015930D01*
G01X1045900Y15891350D02*
X1661600D01*
G03X1700520Y15907470I2J55040D01*
G02X1739460Y15923600I38937J-38930D01*
G01X2541760D01*
G01X1045900Y16704150D02*
X1921180D01*
G02X1986170Y16677230I4J-91900D01*
G03X2051160Y16650310I64986J64980D01*
G01X2350300D01*
G02X2421010Y16621020I-1J-100000D01*
G01X2549410Y16492620D01*
G01X1045900Y17948750D02*
X2032130D01*
G02X2102840Y17919460I-1J-100000D01*
G01X2644720Y17377580D01*
G02X2671500Y17312930I-64640J-64647D01*
G03X2698290Y17248260I91450J0D01*
G01X2991950Y16954600D01*
G01X1045900Y17720150D02*
X1858720D01*
G02X1929430Y17690860I-1J-100000D01*
G01X2226450Y17393840D01*
G03X2297160Y17364550I70711J70710D01*
G01X2303490D01*
G02X2374200Y17335260I-1J-100000D01*
G01X2584040Y17125420D01*
G01X2962900Y17180020D02*
X2956580D01*
X2013940Y18122660D01*
G03X1943230Y18151950I-70711J-70710D01*
G01X1045900D01*
G01X1604700Y14570550D02*
X2671460D01*
G03X2742170Y14599840I-1J100000D01*
G01X3015930Y14873600D01*
G01X1604700Y15180150D02*
X1926930D01*
G03X1997640Y15209440I-1J100000D01*
G01X2015260Y15227060D01*
G02X2085970Y15256350I70711J-70710D01*
G01X2323310D01*
G03X2394020Y15285640I-1J100000D01*
G01X2435960Y15327580D01*
G02X2506670Y15356870I70711J-70710D01*
G01X2585300D01*
G01X1604700Y15383350D02*
X1668380D01*
G03X1739090Y15412640I-1J100000D01*
G01X1792730Y15466280D01*
G02X1863440Y15495570I70711J-70710D01*
G01X2084770D01*
G02X2132450Y15475820I4J-67420D01*
G03X2180130Y15456070I47676J47670D01*
G01X2297080D01*
G03X2367790Y15485360I-1J100000D01*
G01X2432070Y15549640D01*
G02X2502780Y15578930I70711J-70710D01*
G01X2539750D01*
G01X1604700Y16196150D02*
X1932240D01*
G03X1987990Y16219240I3J78840D01*
G02X2043780Y16242350I55787J-55780D01*
G01X2279080D01*
G02X2349790Y16213060I-1J-100000D01*
G01X2379600Y16183250D01*
G03X2450310Y16153960I70711J70710D01*
G01X2798500D01*
X2818140Y16173600D01*
X2981270D01*
G01X1604700Y15992950D02*
X2096680D01*
G03X2167390Y16022240I-1J100000D01*
G01X2180930Y16035780D01*
G02X2251640Y16065070I70711J-70710D01*
G01X2286580D01*
G02X2336630Y16044340I2J-70780D01*
G03X2386700Y16023600I50066J50060D01*
G01X2578740D01*
G01X1604700Y15789750D02*
X1660230D01*
G03X1730940Y15819040I-1J100000D01*
G01X1732610Y15820710D01*
G02X1803320Y15850000I70711J-70710D01*
G01X2817330D01*
G03X2888040Y15879290I-1J100000D01*
G01X2938260Y15929510D01*
X2939080D01*
X2983170Y15973600D01*
G01X1604700Y16805750D02*
X2297080D01*
G02X2367790Y16776460I-1J-100000D01*
G01X2547500Y16596750D01*
G01X1604700Y16602550D02*
X2269690D01*
G02X2340400Y16573260I-1J-100000D01*
G01X2485020Y16428640D01*
G03X2555730Y16399350I70711J70710D01*
G01X2589720D01*
G02X2644890Y16376500I3J-78020D01*
G03X2700100Y16353630I55208J55200D01*
G01X2994010D01*
G01X1604700Y16399350D02*
X2001900D01*
X2027300Y16424750D01*
X2299880D01*
G02X2370590Y16395460I-1J-100000D01*
G01X2412570Y16353480D01*
G03X2483280Y16324190I70711J70710D01*
G01X2546970D01*
G01X1604700Y17821750D02*
X2008360D01*
G02X2079070Y17792460I-1J-100000D01*
G01X2580400Y17291130D01*
G01X2581670Y16973600D02*
X2364260Y17191010D01*
G03X2293550Y17220300I-70711J-70710D01*
G01X2128400D01*
G02X2057690Y17249590I1J100000D01*
G01X1714130Y17593150D01*
Y17594320D01*
G03X1689900Y17618550I-24230J0D01*
G01X1604700D01*
G01Y18253550D02*
X1929510D01*
G02X2000220Y18224260I-1J-100000D01*
G01X2914330Y17310150D01*
G03X2985040Y17280860I70711J70710D01*
G01X3005960D01*
G54D18*
X233000Y3090000D03*
X1193000D03*
X2133000D03*
X3093000D03*
G54D28*
G01X6485000Y8025500D02*
X6421500D01*
X6396100Y8050900D01*
X1887600D01*
X1062350Y7225650D01*
X-545850D01*
X-657500Y7114000D01*
G01X6480470Y8114930D02*
X6429430D01*
X6396100Y8081600D01*
X1874880D01*
X1049630Y7256350D01*
X-545850D01*
X-657500Y7368000D01*
G01Y7876000D02*
X-545850Y7987650D01*
X-24530D01*
X350920Y8363100D01*
X770000D01*
X1659000Y9252100D01*
X2387980D01*
X2393280Y9257400D01*
X2424800D01*
X2583050Y9415650D01*
X2713850D01*
X2744200Y9385300D01*
G01X-657500Y8130000D02*
X-545850Y8018350D01*
X-37250D01*
X338200Y8393800D01*
X757280D01*
X1646280Y9282800D01*
X2414270D01*
X2572520Y9441050D01*
X2724380D01*
X2729330Y9436100D01*
X2767990D01*
X2818790Y9385300D01*
X2944200D01*
G01X-657500Y10162000D02*
X-545380Y10049880D01*
X46100D01*
X147700Y10151480D01*
X662270D01*
X693800Y10119950D01*
X1004970D01*
X1036720Y10088200D01*
X1602960D01*
X1662280Y10147520D01*
X1667110D01*
X1670680Y10143950D01*
X1711320D01*
X1714890Y10147520D01*
X2400710D01*
X2406010Y10142220D01*
X2763360D01*
X2865740Y10039840D01*
X2865750D01*
X2872590Y10033000D01*
X3296500D01*
X3344200Y9985300D01*
G01X-657500Y10416000D02*
X-779400Y10294100D01*
Y10108300D01*
X-690280Y10019180D01*
X58820D01*
X160420Y10120780D01*
X649550D01*
X681080Y10089250D01*
X992250D01*
X1006020Y10075480D01*
Y10075470D01*
X1023990Y10057500D01*
X1615680D01*
X1671430Y10113250D01*
X1724040D01*
X1727610Y10116820D01*
X2752830D01*
X2934350Y9935300D01*
X3394200D01*
X3444200Y9885300D01*
G01X3344200Y10885300D02*
X3294800Y10934700D01*
X2524870D01*
X2467470Y10992100D01*
X2394450D01*
X2389250Y10997300D01*
X2185020D01*
X1677020Y11505300D01*
X205880D01*
X20680Y11320100D01*
X-685200D01*
X-779400Y11225900D01*
Y11045900D01*
X-657500Y10924000D01*
G01Y11178000D02*
X-546100Y11289400D01*
X33400D01*
X218600Y11474600D01*
X1664300D01*
X2172300Y10966600D01*
X2387980D01*
X2388080Y10966700D01*
X2456940D01*
X2514340Y10909300D01*
X2648700D01*
X2724950Y10833050D01*
X3396450D01*
X3444200Y10785300D01*
G01X7069200Y7441300D02*
X7011020D01*
X6917720Y7348000D01*
X6008540D01*
X5559490Y6898950D01*
X392520D01*
X211220Y6717650D01*
X-291850D01*
X-403500Y6606000D01*
G01X-149500Y6352000D02*
X-44210Y6457290D01*
X-42420Y6455500D01*
X401650D01*
X408380Y6448770D01*
X474460D01*
X481190Y6455500D01*
X1954370D01*
X2034070Y6535200D01*
X5125500D01*
X5245850Y6655550D01*
X6608430D01*
X6626400Y6673520D01*
Y6673530D01*
X6771870Y6819000D01*
X6967500D01*
X6993000Y6793600D01*
X7056500D01*
G01Y6882500D02*
X7005700D01*
X6972900Y6849700D01*
X6759150D01*
X6595700Y6686250D01*
X5233130D01*
X5112780Y6565900D01*
X2021350D01*
X1941650Y6486200D01*
X468470D01*
X461740Y6479470D01*
X421100D01*
X414370Y6486200D01*
X-29700D01*
X-149500Y6606000D01*
G01X-403500Y6860000D02*
X-291850Y6748350D01*
X198500D01*
X379800Y6929650D01*
X5554250D01*
X6003300Y7378700D01*
X6905000D01*
X7056500Y7530200D01*
X7069200D01*
G01X-149500Y8638000D02*
X-255850Y8744350D01*
Y8936060D01*
X-193560Y8998350D01*
X-86570D01*
X480280Y9565200D01*
X2385430D01*
X2390880Y9559750D01*
X2647150D01*
X2721750Y9634350D01*
X3092880D01*
X3144200Y9685300D01*
G01X-149500Y8892000D02*
X498300Y9539800D01*
X2374900D01*
X2380350Y9534350D01*
X3093250D01*
X3144200Y9585300D01*
G01X3344200Y9885300D02*
X3295150Y9836250D01*
X2725780D01*
X2693930Y9804400D01*
X1778000D01*
X1719290Y9745690D01*
X224460D01*
X173100Y9797050D01*
X-180930D01*
X-261150Y9716830D01*
Y9511650D01*
X-149500Y9400000D01*
G01X3344200Y9785300D02*
X3295150Y9736250D01*
X2723880D01*
X2681130Y9779000D01*
X2406010D01*
X2400710Y9773700D01*
X1783230D01*
X1729820Y9720290D01*
X206440D01*
X160380Y9766350D01*
X-37150D01*
X-149500Y9654000D01*
G01Y12448000D02*
X-37200Y12560300D01*
X338090D01*
X1170440Y11727950D01*
X2072500D01*
X2644200Y11156250D01*
Y11085300D01*
G01X-149500Y12702000D02*
X-33200Y12585700D01*
X348620D01*
X1175670Y11758650D01*
X2085220D01*
X2402840Y11441030D01*
X2409060D01*
Y11441040D01*
X2715750Y11134350D01*
X2995150D01*
X3044200Y11085300D01*
G01X965810Y9968600D02*
X994540Y9939870D01*
X1604870D01*
X1642690Y9977690D01*
X1718710D01*
X1760600Y9935800D01*
X2162640D01*
X2176240Y9949400D01*
X2562280D01*
X2566230Y9945450D01*
X2609250D01*
X2624200Y9930500D01*
G01X903530Y9917800D02*
X912160Y9909170D01*
X1616830D01*
X1648310Y9877690D01*
X1733190D01*
X1760600Y9905100D01*
X2175360D01*
X2188960Y9918700D01*
X2387980D01*
X2393280Y9924000D01*
X2551750D01*
X2594300Y9881450D01*
X2700400D01*
G01X3344200Y10685300D02*
X3293600Y10735900D01*
X1976520D01*
X1519320Y11193100D01*
X947780D01*
X942480Y11187800D01*
X871600D01*
G01X3344200Y10585300D02*
X3294200Y10635300D01*
X2714100D01*
X2638900Y10710500D01*
X2418710D01*
X2413410Y10705200D01*
X1963790D01*
X1945820Y10723170D01*
Y10723180D01*
X1506600Y11162400D01*
X960500D01*
X935100Y11137000D01*
G01X1045900Y14875350D02*
X938990Y14768440D01*
G03X909700Y14697730I70710J-70711D01*
G01Y14566000D01*
G03X990000Y14485700I80300J0D01*
G01X3924880D01*
G03X3995590Y14514990I-1J100000D01*
G01X4224400Y14743800D01*
G01X897000Y18655400D02*
X6012830D01*
G02X6083540Y18626110I-1J-100000D01*
G01X6938700Y17770950D01*
G01X1506600Y7377800D02*
X1519300Y7390500D01*
Y7403200D01*
X1916210Y7800110D01*
G02X1986920Y7829400I70711J-70710D01*
G01X4882100D01*
G01X3652900Y8152500D02*
X3647490Y8147090D01*
G02X3576780Y8117800I-70711J70710D01*
G01X2970560D01*
G02X2899850Y8147090I1J100000D01*
G01X2849230Y8197710D01*
G03X2778520Y8227000I-70711J-70710D01*
G01X1877420D01*
G03X1806710Y8197710I1J-100000D01*
G01X1755230Y8146230D01*
G02X1684520Y8116940I-70711J70710D01*
G01X1343200D01*
G01X3344200Y10385300D02*
X3296330Y10337430D01*
X3120030D01*
X3091950Y10365510D01*
Y10405090D01*
X3063990Y10433050D01*
X2761990D01*
X2710940Y10484100D01*
X2390580D01*
X2386630Y10480150D01*
X2166420D01*
X2086370Y10560200D01*
X1608180D01*
X1594690Y10573690D01*
X1594680D01*
X1590200Y10578170D01*
Y10578180D01*
X1501280Y10667100D01*
X1392300D01*
G01X3244200Y10385300D02*
X3196450Y10433050D01*
X3119910D01*
X3091950Y10461010D01*
Y10505090D01*
X3063990Y10533050D01*
X2924410D01*
X2849810Y10458450D01*
X2772520D01*
X2721470Y10509500D01*
X2387980D01*
X2386630Y10510850D01*
X2179140D01*
X2099090Y10590900D01*
X1620900D01*
X1493900Y10717900D01*
X1328800D01*
G01X3577920Y12762600D02*
Y12849610D01*
X3422730Y13004800D01*
X2768850D01*
X2350650Y13423000D01*
X1807990D01*
X1784340Y13399350D01*
X1743700D01*
X1732750Y13410300D01*
X1679620D01*
G01X3144200Y10185300D02*
X3144100D01*
X2992500Y10336900D01*
X2408300D01*
X2344800Y10400400D01*
X2199780D01*
X2092530Y10293150D01*
X2014640D01*
X2000090Y10307700D01*
X1856550D01*
X1845800Y10318450D01*
Y10364050D01*
G01X3044200Y10185300D02*
X2994200Y10235300D01*
X2713100D01*
X2636900Y10311500D01*
X2382900D01*
X2324700Y10369700D01*
X2212500D01*
X2105250Y10262450D01*
X2001920D01*
X1987370Y10277000D01*
X1854990D01*
X1840440Y10262450D01*
X1795000D01*
G01X3244200Y10985300D02*
Y10986900D01*
G03X3195700Y11035400I-48500J0D01*
G01X2640220D01*
G02X2569510Y11064690I1J100000D01*
G01X2158190Y11476010D01*
G03X2087480Y11505300I-70711J-70710D01*
G01X1862200D01*
G01X1764020Y13448400D02*
X2361180D01*
X2779380Y13030200D01*
X3440750D01*
X3637070Y12833880D01*
Y12797300D01*
X3671770Y12762600D01*
G01X3244200Y9485300D02*
X3224990Y9466090D01*
G03X3195700Y9395380I70710J-70711D01*
G01Y9244700D01*
G02X3132200Y9181200I-63500J0D01*
G01X2761820D01*
G03X2691110Y9151910I1J-100000D01*
G01X2580700Y9041500D01*
G01X2357500Y11632300D02*
X2582210Y11407590D01*
G03X2652920Y11378300I70711J70710D01*
G01X3056000D01*
G02X3144900Y11289400I0J-88900D01*
G01Y11186000D01*
X3144200Y11185300D01*
G01X3744200Y11085300D02*
X3864910Y11206010D01*
G03X3894200Y11276720I-70710J70711D01*
G01Y12086180D01*
G02X3923490Y12156890I100000J-1D01*
G01X4049070Y12282470D01*
G03X4078360Y12353180I-70710J70711D01*
G01Y13308470D01*
G02X4099500Y13359500I72160J0D01*
G01X3744200Y11185300D02*
X3763310Y11204410D01*
G03X3792600Y11275120I-70710J70711D01*
G01Y11286080D01*
G02X3821890Y11356790I100000J-1D01*
G01X3826810Y11361710D01*
G03X3856100Y11432420I-70710J70711D01*
G01Y12111580D01*
G02X3885390Y12182290I100000J-1D01*
G01X4017310Y12314210D01*
G03X4046600Y12384920I-70710J70711D01*
G01Y13486500D01*
G01X3644200Y11185300D02*
X3662660Y11203760D01*
G03X3691950Y11274470I-70710J70711D01*
G01Y11475630D01*
G03X3662660Y11546340I-100000J-1D01*
G01X3640200Y11568800D01*
G01X3544200Y11085300D02*
X3560110Y11101210D01*
G03X3589400Y11171920I-70710J70711D01*
G01Y11313260D01*
G03X3570350Y11359250I-65030J4D01*
G02X3551300Y11405240I45980J45986D01*
G01Y11598500D01*
G02X3580590Y11669210I100000J-1D01*
G01X3776010Y11864630D01*
G03X3805300Y11935340I-70710J70711D01*
G01Y13217440D01*
G02X3834590Y13288150I100000J-1D01*
G01X3877610Y13331170D01*
G03X3906900Y13401880I-70710J70711D01*
G01Y13473800D01*
G03X3843400Y13537300I-63500J0D01*
G01X3741800D01*
G01X4344200Y9085300D02*
Y9013920D01*
G03X4373490Y8943210I100000J1D01*
G01X4449110Y8867590D01*
G03X4519820Y8838300I70711J70710D01*
G01X4817980D01*
G02X4888690Y8809010I-1J-100000D01*
G01X5134910Y8562790D01*
G03X5205620Y8533500I70711J70710D01*
G01X6345300D01*
G01X4344200Y9485300D02*
X4321240Y9462340D01*
G03X4291950Y9391630I70710J-70711D01*
G01Y9006720D01*
G03X4321240Y8936010I100000J1D01*
G01X4440460Y8816790D01*
G03X4511170Y8787500I70711J70710D01*
G01X4779880D01*
G02X4850590Y8758210I-1J-100000D01*
G01X5160310Y8448490D01*
G03X5231020Y8419200I70711J70710D01*
G01X6283980D01*
G03X6345300Y8444600I4J86710D01*
G01X4244200Y9085300D02*
X4243250Y9084350D01*
Y9000570D01*
G03X4272540Y8929860I100000J1D01*
G01X4411010Y8791390D01*
G03X4481720Y8762100I70711J70710D01*
G01X4754480D01*
G02X4825190Y8732810I-1J-100000D01*
G01X5149560Y8408440D01*
G03X5184910Y8393800I35351J35360D01*
G01X6346490D01*
G03X6381840Y8408440I-1J50000D01*
G01X6418000Y8444600D01*
G01X4044200Y9685300D02*
X4072570Y9656930D01*
G02X4096450Y9599280I-57640J-57647D01*
G01Y9565510D01*
G03X4128910Y9533050I32460J0D01*
G01X4977450D01*
G02X4999100Y9511400I0J-21650D01*
G01Y9425820D01*
G03X5028390Y9355110I100000J1D01*
G01X5236510Y9146990D01*
G03X5307220Y9117700I70711J70710D01*
G01X5659500D01*
G01X7374000Y8609700D02*
X7289760Y8693940D01*
G03X7219050Y8723230I-70711J-70710D01*
G01X5166740D01*
G02X5096030Y8752520I1J100000D01*
G01X4850590Y8997960D01*
G03X4779880Y9027250I-70711J-70710D01*
G01X4543670D01*
G02X4472960Y9056540I1J100000D01*
G01X4444200Y9085300D01*
G01X6319900Y8622400D02*
X6311090Y8631210D01*
G03X6240380Y8660500I-70711J-70710D01*
G01X5173780D01*
G02X5103070Y8689790I1J100000D01*
G01X4818750Y8974110D01*
G03X4748040Y9003400I-70711J-70710D01*
G01X4440300D01*
G02X4391950Y9051750I0J48350D01*
G01Y9296130D01*
G03X4362660Y9366840I-100000J-1D01*
G01X4344200Y9385300D01*
G01X4144200Y9685300D02*
X4162660Y9666840D01*
G03X4233370Y9637550I70711J70710D01*
G01X4999950D01*
G02X5037200Y9600300I0J-37250D01*
G01Y9438520D01*
G03X5066490Y9367810I100000J1D01*
G01X5236510Y9197790D01*
G03X5307220Y9168500I70711J70710D01*
G01X5583300D01*
G01X4444200Y11085300D02*
X4462660Y11103760D01*
G03X4491950Y11174470I-70710J70711D01*
G01Y11893070D01*
X4491100Y11893920D01*
Y12060780D01*
G02X4520390Y12131490I100000J-1D01*
G01X5249210Y12860310D01*
G03X5278500Y12931020I-70710J70711D01*
G01Y13406980D01*
G02X5307790Y13477690I100000J-1D01*
G01X5465110Y13635010D01*
G03X5494400Y13705720I-70710J70711D01*
G01Y13867500D01*
G01X5099500Y13462300D02*
X5053790Y13416590D01*
G03X5024500Y13345880I70710J-70711D01*
G01Y12759580D01*
G02X4995210Y12688870I-100000J1D01*
G01X4399730Y12093390D01*
G03X4370440Y12022680I70710J-70711D01*
G01Y11371960D01*
X4389500Y11352900D01*
Y11060800D01*
G02X4364100Y11035400I-25400J0D01*
G01X4335520D01*
G02X4264810Y11064690I1J100000D01*
G01X4244200Y11085300D01*
G01Y11185300D02*
Y11235280D01*
G02X4273490Y11305990I100000J-1D01*
G01X4309410Y11341910D01*
G03X4338700Y11412620I-70710J70711D01*
G01Y12073480D01*
G02X4367990Y12144190I100000J-1D01*
G01X4945490Y12721690D01*
G03X4974780Y12792400I-70710J70711D01*
G01Y13465210D01*
G02X5004070Y13535920I100000J-1D01*
G01X5056250Y13588100D01*
G01X4144200Y11185300D02*
X4101290Y11228210D01*
G02X4072000Y11298920I70710J70711D01*
G01Y11933780D01*
G02X4101290Y12004490I100000J-1D01*
G01X4741210Y12644410D01*
G03X4770500Y12715120I-70710J70711D01*
G01Y13140280D01*
G02X4799790Y13210990I100000J-1D01*
G01X4817410Y13228610D01*
G03X4846700Y13299320I-70710J70711D01*
G01Y13575400D01*
G01X4592700Y13473800D02*
X4558490Y13439590D01*
G03X4529200Y13368880I70710J-70711D01*
G01Y12524620D01*
G02X4499910Y12453910I-100000J1D01*
G01X4073490Y12027490D01*
G03X4044200Y11956780I70710J-70711D01*
G01Y11185300D01*
G01X5697600Y13702400D02*
X5637420D01*
G03X5566710Y13673110I1J-100000D01*
G01X5358590Y13464990D01*
G03X5329300Y13394280I70710J-70711D01*
G01Y12892920D01*
G02X5300010Y12822210I-100000J1D01*
G01X4621990Y12144190D01*
G03X4592700Y12073480I70710J-70711D01*
G01Y11275220D01*
G02X4563410Y11204510I-100000J1D01*
G01X4544200Y11185300D01*
G01X4250730Y12979430D02*
X4313300Y13042000D01*
G01D02*
X4375870Y13104570D01*
G01X9282500Y8638000D02*
Y8742060D01*
X9303740Y8763300D01*
X9304210D01*
X9388850Y8847940D01*
Y8936060D01*
X9320610Y9004300D01*
X9212820D01*
X9177470Y9039650D01*
X7718750D01*
X7183490Y9574910D01*
X5703190D01*
X5660490Y9617610D01*
X5609100Y9668990D01*
X5566770Y9711320D01*
Y9711330D01*
X5537200Y9740900D01*
Y9783360D01*
X5478060Y9842500D01*
X5163560D01*
X5162410Y9841350D01*
X5138090D01*
X5123260Y9826520D01*
X4965140D01*
X4962410Y9829250D01*
X4925990D01*
X4923260Y9826520D01*
X4865140D01*
X4862410Y9829250D01*
X4798520D01*
X4744200Y9885300D01*
G01X4844200Y10085300D02*
X4850730D01*
X4899780Y10134350D01*
X4974350D01*
X5074350Y10234350D01*
X5294200D01*
X5351150Y10177400D01*
X7173860D01*
X8032110Y11035650D01*
X9170850D01*
X9282500Y10924000D01*
G01Y9654000D02*
X9166200Y9537700D01*
X7752180D01*
X7355530Y9934350D01*
X5123880D01*
X5074830Y9885300D01*
X4944200D01*
G01X9282500Y8892000D02*
X9200900Y8973600D01*
X9200100D01*
X9164750Y9008950D01*
X7706030D01*
X7170770Y9544210D01*
X5690470D01*
X5638780Y9595900D01*
X5587390Y9647280D01*
X5536070Y9698600D01*
Y9698610D01*
X5504330Y9730350D01*
Y9780300D01*
X5467530Y9817100D01*
X5271400D01*
X5189600Y9735300D01*
X4692650D01*
X4644200Y9785300D01*
G01X4944200Y9685300D02*
X5044200D01*
X5095150Y9634350D01*
X5194200D01*
X5253100Y9575450D01*
Y9490710D01*
X5358510Y9385300D01*
X5538850D01*
X5540270Y9386720D01*
X6764380D01*
X7325500Y8825600D01*
X7937640D01*
X8522060Y8241180D01*
X9171320D01*
X9282500Y8130000D01*
G01Y11178000D02*
X9170850Y11066350D01*
X8019390D01*
X7161140Y10208100D01*
X5540340D01*
X5535040Y10202800D01*
X5361680D01*
X5304730Y10259750D01*
X5063820D01*
X5038420Y10234350D01*
X4923880D01*
X4894010Y10204480D01*
Y10164510D01*
X4864800Y10135300D01*
X4795150D01*
X4745150Y10085300D01*
X4744200D01*
G01X4844200Y9985300D02*
X4893250Y10034350D01*
X7350850D01*
X7620850Y10304350D01*
X9170850D01*
X9282500Y10416000D01*
G01X4844200Y10485300D02*
X4891950Y10533050D01*
X5171250D01*
X5271980Y10432320D01*
X5875410D01*
X5888110Y10445020D01*
Y10457720D01*
X5856530Y10489300D01*
G01X9282500Y12448000D02*
X9170850Y12559650D01*
X8644250D01*
X6684650Y10600050D01*
X5472780D01*
X5458030Y10585300D01*
X4844200D01*
G01X9282500Y11686000D02*
X9170850Y11797650D01*
X8332050D01*
X7018400Y10484000D01*
X6370720D01*
X6198220Y10311500D01*
X4897500D01*
X4844200Y10364800D01*
Y10385300D01*
G01X9282500Y12702000D02*
X9170850Y12590350D01*
X8656970D01*
X8656960Y12590360D01*
X8631540D01*
X6671930Y10630750D01*
X5479540D01*
X5477240Y10633050D01*
X4791950D01*
X4744200Y10585300D01*
G01X9282500Y11940000D02*
X9170850Y11828350D01*
X8319330D01*
X7005680Y10514700D01*
X6358000D01*
X6180200Y10336900D01*
X4923230D01*
X4895150Y10364980D01*
Y10405620D01*
X4865470Y10435300D01*
X4794200D01*
X4744200Y10385300D01*
G01X4844200Y10985300D02*
X4893160Y10936340D01*
X4983910D01*
X5061500Y10858750D01*
X5061490D01*
Y10852090D01*
X5080480Y10833100D01*
X5500010D01*
X5529810Y10862900D01*
X5799200D01*
X6459600Y11523300D01*
X7226900D01*
X7348600Y11645000D01*
Y11704710D01*
X7365090Y11721200D01*
G01X4744200Y10885300D02*
X4792050Y10837450D01*
X5040200D01*
X5069950Y10807700D01*
X5510540D01*
X5535040Y10832200D01*
X5811920D01*
X6472320Y11492600D01*
X7247000D01*
X7412100Y11657700D01*
G01X7081900Y11733900D02*
X7049100Y11701100D01*
X6360650D01*
X5850000Y11190450D01*
X5531710D01*
X5377560Y11036300D01*
X5159270D01*
X5158770Y11035800D01*
X5113800D01*
X5063300Y10985300D01*
X4944200D01*
G01X9282500Y13464000D02*
X9170850Y13352350D01*
X8509880D01*
X8509870Y13352360D01*
X8484450D01*
X8280400Y13148310D01*
Y12428080D01*
X7278770Y11426450D01*
X6483920D01*
X5858250Y10800780D01*
X5582210D01*
X5525630Y10744200D01*
X4904980D01*
X4844200Y10685300D01*
G01X5144200Y9685300D02*
X5194590D01*
X5278500Y9600730D01*
Y9501240D01*
X5369040Y9410700D01*
X5528320D01*
X5535040Y9417420D01*
X6777100D01*
X7343520Y8851000D01*
X7919620D01*
X7924930Y8856310D01*
X7950350D01*
X8534780Y8271880D01*
X9185020D01*
X9218040Y8238860D01*
X9342500D01*
X9390760Y8190600D01*
Y8081380D01*
X9282500Y7973120D01*
Y7876000D01*
G01Y9400000D02*
X9170200Y9512300D01*
X7741650D01*
X7348850Y9905100D01*
X5213060D01*
X5193260Y9885300D01*
X5144200D01*
G01Y9985300D02*
X5202300D01*
X5220650Y10003650D01*
X7338130D01*
X7338140Y10003640D01*
X7363560D01*
X7633570Y10273650D01*
X9170850D01*
X9282500Y10162000D01*
G01X5144200Y10485300D02*
X5183070D01*
X5261450Y10406920D01*
X5535040D01*
X5540340Y10401620D01*
X5888130D01*
X5918810Y10432300D01*
Y10457730D01*
X5950380Y10489300D01*
G01X7145680Y11657980D02*
X7145120D01*
X7144180Y11658920D01*
X7055280D01*
X7043800Y11670400D01*
X6373370D01*
X5862720Y11159750D01*
X5536940D01*
X5388090Y11010900D01*
X5169800D01*
X5144200Y10985300D01*
G01X9282500Y13210000D02*
X9170850Y13321650D01*
X8497160D01*
X8305800Y13130290D01*
Y12417550D01*
X7289300Y11401050D01*
X6494450D01*
X5868780Y10775380D01*
X5592740D01*
X5536160Y10718800D01*
X5177700D01*
X5144200Y10685300D01*
G01X5913500Y12838800D02*
X6062010Y12987310D01*
G02X6132720Y13016600I70711J-70710D01*
G01X6888080D01*
G03X6958790Y13045890I-1J100000D01*
G01X7170800Y13257900D01*
G01X7698500Y17903950D02*
X7801910Y17800540D01*
G02X7831200Y17729830I-70710J-70711D01*
G01Y17464920D01*
G02X7801910Y17394210I-100000J1D01*
G01X6102570Y15694870D01*
G02X6031860Y15665580I-70711J70710D01*
G01X5842500D01*
G01X7698500Y17649950D02*
X6625040Y16576490D01*
G02X6554330Y16547200I-70711J70710D01*
G01X6109350D01*
G03X6038640Y16517910I1J-100000D01*
G01X5945500Y16424770D01*
G01X7780400Y8038200D02*
X7818500Y8076300D01*
X8041780D01*
X8435500Y7682580D01*
Y7428580D01*
X8638430Y7225650D01*
X9170850D01*
X9282500Y7114000D01*
G01X7780400Y8139800D02*
X7813200Y8107000D01*
X8054500D01*
X8466210Y7695290D01*
Y7669870D01*
X8466200Y7669860D01*
Y7441300D01*
X8651150Y7256350D01*
X9170850D01*
X9282500Y7368000D01*
G54D19*
X425100Y7979200D03*
X525100Y9262200D03*
X425100Y9979200D03*
X525100Y11262200D03*
X8712500Y1090000D03*
Y1598000D03*
G54D29*
G01X2538300Y15473600D02*
X2505810Y15441110D01*
G02X2435100Y15411820I-70711J70710D01*
G01X2221120D01*
G03X2150410Y15382530I1J-100000D01*
G01X2140410Y15372530D01*
G02X2069700Y15343240I-70711J70710D01*
G01X1850280D01*
G03X1779570Y15313950I1J-100000D01*
G01X1776660Y15311040D01*
G02X1705950Y15281750I-70711J70710D01*
G01X1045900D01*
G01Y16297750D02*
X1994810D01*
X2004440Y16288120D01*
X2333860D01*
G02X2404570Y16258830I-1J-100000D01*
G01X2410510Y16252890D01*
G03X2481220Y16223600I70711J70710D01*
G01X2594830D01*
G01X2995420Y16463760D02*
X2812560D01*
G02X2741850Y16493050I1J100000D01*
G01X2396950Y16837950D01*
G03X2326240Y16867240I-70711J-70710D01*
G01X2200800D01*
G02X2130090Y16896530I1J100000D01*
G01X1742160Y17284460D01*
G03X1671450Y17313750I-70711J-70710D01*
G01X1045900D01*
G01X3209210Y16717240D02*
X2759740D01*
G02X2689030Y16746530I1J100000D01*
G01X2402030Y17033530D01*
G03X2331320Y17062820I-70711J-70710D01*
G01X2165240D01*
G02X2094530Y17092110I1J100000D01*
G01X1698980Y17487660D01*
G03X1628270Y17516950I-70711J-70710D01*
G01X1045900D01*
G01X2532850Y15057990D02*
X2398150D01*
G03X2327440Y15028700I1J-100000D01*
G01X2304980Y15006240D01*
G02X2234270Y14976950I-70711J70710D01*
G01X1604700D01*
G01X3011320Y15373600D02*
X2983000D01*
G03X2912290Y15344310I1J-100000D01*
G01X2488390Y14920410D01*
G02X2417680Y14891120I-70711J70710D01*
G01X1847740D01*
G03X1777030Y14861830I1J-100000D01*
G01X1718240Y14803040D01*
G02X1647530Y14773750I-70711J70710D01*
G01X1604700D01*
G01X2539460Y15723600D02*
X2446540D01*
G03X2375830Y15694310I1J-100000D01*
G01X2363930Y15682410D01*
G02X2293220Y15653120I-70711J70710D01*
G01X1827420D01*
G03X1756710Y15623830I1J-100000D01*
G01X1748720Y15615840D01*
G02X1678010Y15586550I-70711J70710D01*
G01X1604700D01*
G01X5930500Y15362890D02*
X3022030D01*
X3011320Y15373600D01*
G01X2954220Y17374670D02*
X3063410D01*
G02X3134120Y17345380I-1J-100000D01*
G01X3153710Y17325790D01*
G03X3224420Y17296500I70711J70710D01*
G01X4297280D01*
G02X4367990Y17267210I-1J-100000D01*
G01X4411010Y17224190D01*
G03X4481720Y17194900I70711J70710D01*
G01X5773810D01*
G03X5844520Y17224190I-1J100000D01*
G01X5943440Y17323110D01*
M02*
