G04 ================== begin FILE IDENTIFICATION RECORD ==================*
G04 Layout Name:  pc049a_toplevel_51.brd*
G04 Film Name:    PC049A_SM10*
G04 File Format:  Gerber RS274X*
G04 File Origin:  Cadence Allegro 16.6-S014*
G04 Origin Date:  Mon Feb 23 12:27:42 2015*
G04 *
G04 Layer:  VIA CLASS/SOLDERMASK_BOTTOM*
G04 Layer:  PIN/SOLDERMASK_BOTTOM*
G04 Layer:  PACKAGE GEOMETRY/SOLDERMASK_BOTTOM*
G04 Layer:  BOARD GEOMETRY/SOLDERMASK_BOTTOM*
G04 Layer:  BOARD GEOMETRY/CTEXT_BOTTOM*
G04 *
G04 Offset:    (0.0000 0.0000)*
G04 Mirror:    No*
G04 Mode:      Positive*
G04 Rotation:  0*
G04 FullContactRelief:  No*
G04 UndefLineWidth:     0.1270*
G04 ================== end FILE IDENTIFICATION RECORD ====================*
%FSLAX25Y25*MOMM*%
%IR0*IPPOS*OFA0.00000B0.00000*MIA0B0*SFA1.00000B1.00000*%
%ADD31R,1.15X.75*%
%ADD25R,.6604X1.7018*%
%ADD21R,.85X.85*%
%ADD27R,4.953X.889*%
%ADD23R,2.794X.889*%
%ADD14R,1.15X1.25*%
%ADD28R,1.25X1.15*%
%ADD10C,5.*%
%ADD32C,1.6*%
%ADD30R,2.45X1.45*%
%ADD12C,1.7*%
%ADD18C,1.55*%
%ADD11C,7.112*%
%ADD16C,1.65*%
%ADD13C,1.524*%
%ADD29R,2.45X3.85*%
%ADD24C,1.905*%
%ADD26C,1.1176*%
%ADD19C,2.286*%
%ADD17R,1.55X1.55*%
%ADD15R,1.75X1.75*%
%ADD20C,4.2672*%
%ADD22C,1.778*%
%ADD33C,.101*%
%ADD34C,.381*%
G75*
%LPD*%
G75*
G54D10*
X-911500Y5082000D03*
Y13972000D03*
X9536500Y5082000D03*
Y13972000D03*
G54D20*
X612500Y19590000D03*
X8012500D03*
G54D11*
X-687500Y90000D03*
X-187500Y4590000D03*
Y14090000D03*
X-687500Y19590000D03*
X8812500Y4590000D03*
Y14090000D03*
X9312500Y90000D03*
Y19590000D03*
G54D12*
X-657500Y5590000D03*
Y6098000D03*
Y5844000D03*
Y6606000D03*
Y6352000D03*
Y7114000D03*
Y6860000D03*
Y7876000D03*
Y7622000D03*
Y7368000D03*
Y8384000D03*
Y8130000D03*
Y8892000D03*
Y8638000D03*
Y9400000D03*
Y9146000D03*
Y10162000D03*
Y9908000D03*
Y9654000D03*
Y10670000D03*
Y10416000D03*
Y11178000D03*
Y10924000D03*
Y11686000D03*
Y11432000D03*
Y12448000D03*
Y12194000D03*
Y11940000D03*
Y12956000D03*
Y12702000D03*
Y13464000D03*
Y13210000D03*
X-149500Y5590000D03*
X-403500D03*
X-149500Y6098000D03*
Y5844000D03*
X-403500Y6098000D03*
Y5844000D03*
X-149500Y6606000D03*
Y6352000D03*
X-403500Y6606000D03*
Y6352000D03*
X-149500Y7114000D03*
Y6860000D03*
X-403500Y7114000D03*
Y6860000D03*
X-149500Y7876000D03*
Y7622000D03*
Y7368000D03*
X-403500Y7876000D03*
Y7622000D03*
Y7368000D03*
X-149500Y8384000D03*
Y8130000D03*
X-403500Y8384000D03*
Y8130000D03*
X-149500Y8892000D03*
Y8638000D03*
X-403500Y8892000D03*
Y8638000D03*
X-149500Y9400000D03*
Y9146000D03*
X-403500Y9400000D03*
Y9146000D03*
X-149500Y10162000D03*
Y9908000D03*
Y9654000D03*
X-403500Y10162000D03*
Y9908000D03*
Y9654000D03*
X-149500Y10670000D03*
Y10416000D03*
X-403500Y10670000D03*
Y10416000D03*
X-149500Y11178000D03*
Y10924000D03*
X-403500Y11178000D03*
Y10924000D03*
X-149500Y11686000D03*
Y11432000D03*
X-403500Y11686000D03*
Y11432000D03*
X-149500Y12448000D03*
Y12194000D03*
Y11940000D03*
X-403500Y12448000D03*
Y12194000D03*
Y11940000D03*
X-149500Y12956000D03*
Y12702000D03*
X-403500Y12956000D03*
Y12702000D03*
X-149500Y13464000D03*
Y13210000D03*
X-403500Y13464000D03*
Y13210000D03*
X8774500Y5590000D03*
X9028500D03*
X8774500Y5844000D03*
Y6098000D03*
X9028500Y5844000D03*
Y6098000D03*
X8774500Y6352000D03*
Y6606000D03*
X9028500Y6352000D03*
Y6606000D03*
X8774500Y6860000D03*
Y7114000D03*
X9028500Y6860000D03*
Y7114000D03*
X8774500Y7368000D03*
Y7622000D03*
Y7876000D03*
X9028500Y7368000D03*
Y7622000D03*
Y7876000D03*
X8774500Y8130000D03*
Y8384000D03*
X9028500Y8130000D03*
Y8384000D03*
X8774500Y8638000D03*
Y8892000D03*
X9028500Y8638000D03*
Y8892000D03*
X8774500Y9146000D03*
Y9400000D03*
X9028500Y9146000D03*
Y9400000D03*
X8774500Y9654000D03*
Y9908000D03*
Y10162000D03*
X9028500Y9654000D03*
Y9908000D03*
Y10162000D03*
X8774500Y10416000D03*
Y10670000D03*
X9028500Y10416000D03*
Y10670000D03*
X8774500Y10924000D03*
Y11178000D03*
X9028500Y10924000D03*
Y11178000D03*
X8774500Y11432000D03*
Y11686000D03*
X9028500Y11432000D03*
Y11686000D03*
X8774500Y11940000D03*
Y12194000D03*
Y12448000D03*
X9028500Y11940000D03*
Y12194000D03*
Y12448000D03*
X8774500Y12702000D03*
Y12956000D03*
X9028500Y12702000D03*
Y12956000D03*
X8774500Y13210000D03*
Y13464000D03*
X9028500Y13210000D03*
Y13464000D03*
X9282500Y5590000D03*
Y5844000D03*
Y6098000D03*
Y6352000D03*
Y6606000D03*
Y6860000D03*
Y7114000D03*
Y7368000D03*
Y7622000D03*
Y7876000D03*
Y8130000D03*
Y8384000D03*
Y8638000D03*
Y8892000D03*
Y9146000D03*
Y9400000D03*
Y9654000D03*
Y9908000D03*
Y10162000D03*
Y10416000D03*
Y10670000D03*
Y10924000D03*
Y11178000D03*
Y11432000D03*
Y11686000D03*
Y11940000D03*
Y12194000D03*
Y12448000D03*
Y12702000D03*
Y12956000D03*
Y13210000D03*
Y13464000D03*
G54D30*
X5179000Y15477600D03*
Y15707600D03*
Y15937600D03*
G54D21*
X742000Y3266000D03*
Y3176000D03*
X635000Y3267000D03*
Y3177000D03*
X1481800Y12380800D03*
X1571800D03*
X1683600Y12165100D03*
Y12075100D03*
X2274400Y10438500D03*
X1969000Y12602500D03*
Y12692500D03*
X2065090Y14900890D03*
X1975090D03*
X2644000Y3266000D03*
Y3176000D03*
X2535000Y3264000D03*
Y3174000D03*
X2611500Y9491800D03*
Y9581800D03*
X2427900Y10209900D03*
X2337900D03*
X2364400Y10438500D03*
X2847000Y10476600D03*
X2757000D03*
X2643800Y10679800D03*
X2553800D03*
X2444430Y14814330D03*
X2354430D03*
X2444430Y15056620D03*
X2354430D03*
X2444500Y15169950D03*
X2354500D03*
X2443390Y14935480D03*
X2353390D03*
X2444500Y15569950D03*
X2354500D03*
Y15269950D03*
X2444500D03*
Y15369950D03*
X2354500D03*
Y15469950D03*
X2444500D03*
X2354500Y15719950D03*
X2444500D03*
Y16319950D03*
X2354500D03*
Y16119950D03*
X2444500D03*
Y16219950D03*
X2354500D03*
X2444500Y16019950D03*
X2354500D03*
X2444500Y15919950D03*
X2354500D03*
X2444500Y15819950D03*
X2354500D03*
X2444500Y16519950D03*
X2354500D03*
X2444500Y16719950D03*
X2354500D03*
X2444500Y16619950D03*
X2354500D03*
X2444500Y16419950D03*
X2354500D03*
X2444500Y16969950D03*
X2354500D03*
X2445560Y17133020D03*
X2355560D03*
X2444500Y17269950D03*
X2354500D03*
X2444500Y17369950D03*
X2354500D03*
X2444500Y17469950D03*
X2354500D03*
X3139100Y9879700D03*
X3049100D03*
X2944200Y10080300D03*
Y9990300D03*
X3139100Y10286100D03*
X3049100D03*
X3244200Y10690300D03*
X3339200Y10285300D03*
X3249200D03*
Y10485300D03*
X3339200D03*
X3244200Y10780300D03*
X3050200Y11378300D03*
X2960200D03*
X3195700Y11511100D03*
Y11601100D03*
X3192460Y14771910D03*
X3102460D03*
X3104760Y15201090D03*
X3194760D03*
X3104500Y14974950D03*
X3194500D03*
X3104500Y15075950D03*
X3194500D03*
X3103610Y14872280D03*
X3193610D03*
X3400500Y15138950D03*
X3104760Y15426060D03*
X3194760D03*
Y15325690D03*
X3104760D03*
X3103610Y15527590D03*
X3193610D03*
X3104500Y15669950D03*
X3194500D03*
X3104500Y15769950D03*
X3194500D03*
X3402500Y15263950D03*
X3394500Y15769950D03*
X3304500D03*
X3194500Y16269950D03*
X3104500D03*
Y16169950D03*
X3194500D03*
X3104500Y16069950D03*
X3194500D03*
X3104500Y15969950D03*
X3194500D03*
X3304500Y16269950D03*
X3394500D03*
Y15969950D03*
X3304500D03*
X3193240Y16511650D03*
X3103240D03*
X3194760Y16390550D03*
X3104760D03*
X3387630Y16715760D03*
X3297630D03*
Y16611910D03*
X3387630D03*
X3296880Y16449660D03*
X3386880D03*
X3194500Y17369950D03*
X3104500D03*
X3105010Y17122020D03*
X3195010D03*
X3104250Y17224470D03*
X3194250D03*
X3104500Y17019950D03*
X3194500D03*
X3983100Y8921400D03*
Y8831400D03*
X3944200Y9280300D03*
Y9190300D03*
X3945000Y9885500D03*
Y9975500D03*
X3551000Y10077000D03*
X3641000D03*
X3944200Y10090300D03*
X3741800Y10077100D03*
Y9987100D03*
X3944200Y10180300D03*
X3945000Y10495100D03*
Y10585100D03*
X3749200Y10285300D03*
X3839200D03*
X3949200D03*
X3475100Y11511100D03*
Y11601100D03*
X3850300Y11378300D03*
X3760300D03*
X3490500Y15138950D03*
X3492500Y15263950D03*
X3504500Y15769950D03*
X3594500D03*
X3504500Y15969950D03*
X3594500D03*
X3596250Y16166730D03*
X3506250D03*
X3504500Y16269950D03*
X3594500D03*
X4503800Y7231200D03*
Y7321200D03*
X4244200Y9680300D03*
Y9590300D03*
Y10090300D03*
X4142400Y9981300D03*
X4052400D03*
X4549200Y10185300D03*
X4332900Y10590900D03*
X4242900D03*
X4339200Y10285300D03*
X4249200D03*
X4045000Y10685600D03*
X4244200Y10180300D03*
X4039200Y10285300D03*
X4045000Y10775600D03*
X4046600Y10978800D03*
Y10888800D03*
X4344500Y11378300D03*
X4434500D03*
X5010000Y7598900D03*
X4920000D03*
X4745100Y8832500D03*
Y8742500D03*
X5046100Y9388800D03*
Y9298800D03*
X4639200Y10185300D03*
X4946300Y10286900D03*
X5036300D03*
X5383300Y7021600D03*
Y6931600D03*
X5541500Y7459200D03*
X5631500D03*
X5501200Y9757400D03*
X5591200D03*
X5504500Y15869950D03*
X5594500D03*
X5504500Y16169950D03*
X5594500D03*
X5704500Y16269950D03*
Y16169950D03*
X5706640Y16037840D03*
X5708910Y15870290D03*
X5504500Y16919950D03*
X5594500D03*
X5503530Y16789370D03*
X5593530D03*
X5508640Y16608780D03*
X5598640D03*
X5704500Y16919950D03*
X5709680Y16608780D03*
X5704570Y16789370D03*
X5444500Y17069950D03*
X5354500D03*
Y17169950D03*
X5444500D03*
X5594780Y17475640D03*
X5684780D03*
X5704500Y17119950D03*
X5788350Y14793880D03*
X5878350D03*
X5735550Y15037930D03*
Y15127930D03*
X5785070Y14920610D03*
X5875070D03*
X5791320Y15319320D03*
Y15409320D03*
X5794500Y16269950D03*
Y16169950D03*
X5796640Y16037840D03*
X5798910Y15870290D03*
X5794500Y16919950D03*
X5799680Y16608780D03*
X5794570Y16789370D03*
X5794500Y17119950D03*
X5799500Y17474950D03*
Y17564950D03*
X6649200Y7285300D03*
X6739200D03*
X6599200Y7885300D03*
X6689200D03*
X6326500Y11754100D03*
X6416500D03*
X6297430Y14674050D03*
Y14764050D03*
X6554500Y15669950D03*
X6644500D03*
X6554530Y16179780D03*
X6644530D03*
X6553410Y15940630D03*
X6643410D03*
X6553410Y16059090D03*
X6643410D03*
X6554500Y15819950D03*
X6644500D03*
X6531340Y17172460D03*
X6621340D03*
X7259700Y7904300D03*
Y7994300D03*
X7138500Y8266800D03*
X7228500D03*
X7138500Y8139800D03*
X7228500D03*
Y8393800D03*
X7138500D03*
X7264700Y12628100D03*
X7354700D03*
X7894620Y2330940D03*
X7984620D03*
X7599200Y7035300D03*
X7689200D03*
X8194200Y6790300D03*
Y6880300D03*
Y7440300D03*
Y7530300D03*
X8189200Y8285300D03*
X8099200D03*
G54D22*
X1194800Y14002900D03*
Y14202900D03*
X1394800Y14002900D03*
X1594800D03*
X1794800D03*
X1394800Y14202900D03*
X1594800D03*
X1794800D03*
X1994800Y14002900D03*
X2194800D03*
X1994800Y14202900D03*
X2194800D03*
X2394800Y14002900D03*
Y14202900D03*
X6938700Y14697550D03*
Y14951550D03*
Y15205550D03*
Y17262950D03*
Y17516950D03*
Y17770950D03*
G54D13*
X-538900Y14787100D03*
X-157900Y14774400D03*
X1045900Y14672150D03*
Y15078550D03*
Y15281750D03*
Y14875350D03*
Y15484950D03*
Y15688150D03*
X766500D03*
X1045900Y16094550D03*
Y15891350D03*
Y16297750D03*
Y16704150D03*
Y16907350D03*
Y16500950D03*
Y17516950D03*
Y17313750D03*
Y17110550D03*
Y17720150D03*
Y17948750D03*
Y18151950D03*
Y18355150D03*
X1604700Y14570550D03*
Y14976950D03*
Y14773750D03*
Y15180150D03*
Y15383350D03*
Y15789750D03*
Y15586550D03*
Y16196150D03*
Y15992950D03*
Y16399350D03*
Y16602550D03*
Y16805750D03*
Y17008950D03*
Y17212150D03*
Y17415350D03*
Y17618550D03*
Y17821750D03*
Y18050350D03*
Y18253550D03*
Y18456750D03*
X1959000Y10467000D03*
X3281100Y14062550D03*
X3484300Y13846650D03*
X3627500Y1129400D03*
X3687500Y14062550D03*
X4313300Y13042000D03*
X6016840Y2130280D03*
X6029540Y4423900D03*
X6370700Y10298800D03*
X6586600Y10768700D03*
X6684700Y14410350D03*
X7548300Y14722950D03*
Y14926150D03*
Y15129350D03*
X7954700Y15230950D03*
Y14824550D03*
Y15027750D03*
X7548300Y15332550D03*
Y15738950D03*
Y15535750D03*
X7954700Y15434150D03*
Y15840550D03*
Y15637350D03*
X7548300Y16145350D03*
Y15942150D03*
Y16348550D03*
X7954700Y16043750D03*
Y16246950D03*
X7548300Y16754950D03*
Y16551750D03*
Y16958150D03*
X7954700Y16856550D03*
Y16450150D03*
Y16653350D03*
Y17059750D03*
G54D31*
X5285500Y14873950D03*
X5545500D03*
G54D32*
X7952500Y17903950D03*
X7698500D03*
X7952500Y17649950D03*
X7698500D03*
X7952500Y18157950D03*
X7698500D03*
G54D14*
X-651200Y15467700D03*
X-31300D03*
X-181300D03*
X-501200D03*
X-486100Y15289900D03*
X-336100D03*
X2098300Y15038960D03*
X1948300D03*
X2755700Y8471000D03*
X3293800Y8321000D03*
X3443800D03*
X2905700Y8471000D03*
X3443800D03*
X3055700D03*
X3205700D03*
X3590600Y8317600D03*
X3740600D03*
X3593800Y8471000D03*
X4915400Y6722600D03*
X5065400D03*
X5166990Y15123920D03*
X5016990D03*
X5420210Y15051050D03*
X5570210D03*
X6788600Y-267600D03*
X6638600D03*
X6839400Y2005700D03*
X6689400D03*
X6852100Y4304400D03*
X6702100D03*
X7526000Y-130000D03*
X7676000D03*
X7677600Y-280300D03*
X7527600D03*
X7823980Y57640D03*
X7973980D03*
X7567440Y2150600D03*
X7717440D03*
X7718000Y2000000D03*
X7568000D03*
X7578400Y4444100D03*
X7728400D03*
Y4291700D03*
X7578400D03*
X7879060Y4625040D03*
X8029060D03*
G54D23*
X1467900Y19590000D03*
X3157100D03*
X3467900D03*
X5157100D03*
X5467900D03*
X7157100D03*
G54D33*
G01X4679200Y-1148700D02*
X4665870Y-1158700D01*
X4650870Y-1164700D01*
X4637530D01*
X4624200Y-1158700D01*
X4614200Y-1148700D01*
X4609200Y-1134700D01*
X4612530Y-1120700D01*
X4620870Y-1108700D01*
X4635870Y-1100700D01*
X4655870Y-1096700D01*
X4667530Y-1088700D01*
X4672530Y-1074700D01*
X4669200Y-1060700D01*
X4660870Y-1050700D01*
X4649200Y-1044700D01*
X4637530D01*
X4625870Y-1048700D01*
X4615870Y-1058700D01*
G01X4543200Y-1164700D02*
X4556540Y-1162700D01*
X4568200Y-1154700D01*
X4578200Y-1142700D01*
X4584870Y-1128700D01*
X4588200Y-1112700D01*
Y-1096700D01*
X4584870Y-1080700D01*
X4578200Y-1066700D01*
X4568200Y-1054700D01*
X4556540Y-1046700D01*
X4543200Y-1044700D01*
X4529870Y-1046700D01*
X4518200Y-1054700D01*
X4508200Y-1066700D01*
X4501530Y-1080700D01*
X4498200Y-1096700D01*
Y-1112700D01*
X4501530Y-1128700D01*
X4508200Y-1142700D01*
X4518200Y-1154700D01*
X4529870Y-1162700D01*
X4543200Y-1164700D01*
G01X4475530Y-1044700D02*
Y-1164700D01*
X4408870D01*
G01X4377870D02*
Y-1044700D01*
X4344530D01*
X4331200Y-1050700D01*
X4321200Y-1058700D01*
X4312870Y-1070700D01*
X4306200Y-1084700D01*
X4304530Y-1104700D01*
X4306200Y-1124700D01*
X4312870Y-1138700D01*
X4321200Y-1150700D01*
X4331200Y-1158700D01*
X4344530Y-1164700D01*
X4377870D01*
G01X4206870D02*
X4273530D01*
Y-1044700D01*
X4206870D01*
G01X4233530Y-1102700D02*
X4273530D01*
G01X4172530Y-1164700D02*
Y-1044700D01*
X4130870D01*
X4117530Y-1050700D01*
X4109200Y-1058700D01*
X4105870Y-1074700D01*
X4109200Y-1090700D01*
X4119200Y-1100700D01*
X4130870Y-1106700D01*
X4172530D01*
G01X4130870D02*
X4105870Y-1164700D01*
G01X4081530D02*
Y-1044700D01*
X4038200Y-1144700D01*
X3994870Y-1044700D01*
Y-1164700D01*
G01X3978870D02*
X3937200Y-1044700D01*
X3895530Y-1164700D01*
G01X3910530Y-1122700D02*
X3963870D01*
G01X3871200Y-1148700D02*
X3857870Y-1158700D01*
X3842870Y-1164700D01*
X3829530D01*
X3816200Y-1158700D01*
X3806200Y-1148700D01*
X3801200Y-1134700D01*
X3804530Y-1120700D01*
X3812870Y-1108700D01*
X3827870Y-1100700D01*
X3847870Y-1096700D01*
X3859530Y-1088700D01*
X3864530Y-1074700D01*
X3861200Y-1060700D01*
X3852870Y-1050700D01*
X3841200Y-1044700D01*
X3829530D01*
X3817870Y-1048700D01*
X3807870Y-1058700D01*
G01X3771870Y-1164700D02*
Y-1044700D01*
G01X3708530D02*
X3771870Y-1118700D01*
G01X3698530Y-1164700D02*
X3743530Y-1084700D01*
G01X3541530Y-1204700D02*
X3558200Y-1184700D01*
X3566530Y-1164700D01*
Y-1084700D01*
X3558200Y-1064700D01*
X3541530Y-1044700D01*
G01X3418870Y-1100700D02*
X3412200Y-1094700D01*
X3407200Y-1084700D01*
X3403870Y-1070700D01*
X3407200Y-1058700D01*
X3413870Y-1050700D01*
X3425530Y-1044700D01*
X3470530D01*
Y-1164700D01*
X3415530D01*
X3403870Y-1156700D01*
X3397200Y-1144700D01*
X3393870Y-1130700D01*
X3397200Y-1116700D01*
X3407200Y-1104700D01*
X3418870Y-1100700D01*
X3470530D01*
G01X3331200Y-1164700D02*
X3344540Y-1162700D01*
X3356200Y-1154700D01*
X3366200Y-1142700D01*
X3372870Y-1128700D01*
X3376200Y-1112700D01*
Y-1096700D01*
X3372870Y-1080700D01*
X3366200Y-1066700D01*
X3356200Y-1054700D01*
X3344540Y-1046700D01*
X3331200Y-1044700D01*
X3317870Y-1046700D01*
X3306200Y-1054700D01*
X3296200Y-1066700D01*
X3289530Y-1080700D01*
X3286200Y-1096700D01*
Y-1112700D01*
X3289530Y-1128700D01*
X3296200Y-1142700D01*
X3306200Y-1154700D01*
X3317870Y-1162700D01*
X3331200Y-1164700D01*
G01X3230200Y-1044700D02*
Y-1164700D01*
G01X3268530Y-1044700D02*
X3191870D01*
G01X3129200D02*
Y-1164700D01*
G01X3167530Y-1044700D02*
X3090870D01*
G01X3028200Y-1164700D02*
X3041540Y-1162700D01*
X3053200Y-1154700D01*
X3063200Y-1142700D01*
X3069870Y-1128700D01*
X3073200Y-1112700D01*
Y-1096700D01*
X3069870Y-1080700D01*
X3063200Y-1066700D01*
X3053200Y-1054700D01*
X3041540Y-1046700D01*
X3028200Y-1044700D01*
X3014870Y-1046700D01*
X3003200Y-1054700D01*
X2993200Y-1066700D01*
X2986530Y-1080700D01*
X2983200Y-1096700D01*
Y-1112700D01*
X2986530Y-1128700D01*
X2993200Y-1142700D01*
X3003200Y-1154700D01*
X3014870Y-1162700D01*
X3028200Y-1164700D01*
G01X2970530D02*
Y-1044700D01*
X2927200Y-1144700D01*
X2883870Y-1044700D01*
Y-1164700D01*
G01X2817870Y-1204700D02*
X2801200Y-1184700D01*
X2792870Y-1164700D01*
Y-1084700D01*
X2801200Y-1064700D01*
X2817870Y-1044700D01*
G01X6277530Y-1164700D02*
Y-1044700D01*
X6237530D01*
X6224200Y-1050700D01*
X6214200Y-1064700D01*
X6210870Y-1080700D01*
X6214200Y-1096700D01*
X6222530Y-1108700D01*
X6237530Y-1114700D01*
X6277530D01*
G01X6106530Y-1054700D02*
X6116530Y-1048700D01*
X6128200Y-1044700D01*
X6141530D01*
X6156540Y-1050700D01*
X6168200Y-1060700D01*
X6176530Y-1072700D01*
X6183200Y-1092700D01*
X6184870Y-1110700D01*
X6181530Y-1128700D01*
X6176530Y-1140700D01*
X6166530Y-1152700D01*
X6154870Y-1160700D01*
X6143200Y-1164700D01*
X6131530D01*
X6119870Y-1160700D01*
X6109870Y-1154700D01*
X6101530Y-1146700D01*
G01X6042200Y-1044700D02*
X6055540Y-1048700D01*
X6065530Y-1058700D01*
X6072200Y-1070700D01*
X6077200Y-1086700D01*
X6078870Y-1104700D01*
X6077200Y-1122700D01*
X6072200Y-1138700D01*
X6065530Y-1150700D01*
X6055540Y-1160700D01*
X6042200Y-1164700D01*
X6028870Y-1160700D01*
X6018870Y-1150700D01*
X6012200Y-1138700D01*
X6007200Y-1122700D01*
X6005530Y-1104700D01*
X6007200Y-1086700D01*
X6012200Y-1070700D01*
X6018870Y-1058700D01*
X6028870Y-1048700D01*
X6042200Y-1044700D01*
G01X5921200Y-1164700D02*
Y-1044700D01*
X5982870Y-1130700D01*
X5899530D01*
G01X5868530Y-1150700D02*
X5856870Y-1160700D01*
X5843530Y-1164700D01*
X5830200Y-1160700D01*
X5818530Y-1148700D01*
X5810200Y-1130700D01*
X5806870Y-1112700D01*
Y-1090700D01*
X5810200Y-1072700D01*
X5818530Y-1056700D01*
X5828530Y-1048700D01*
X5840200Y-1044700D01*
X5853540Y-1048700D01*
X5863530Y-1056700D01*
X5870200Y-1068700D01*
X5873530Y-1084700D01*
X5870200Y-1098700D01*
X5861870Y-1112700D01*
X5851870Y-1120700D01*
X5840200Y-1122700D01*
X5826870Y-1118700D01*
X5816870Y-1108700D01*
X5806870Y-1090700D01*
G01X5780870Y-1164700D02*
X5739200Y-1044700D01*
X5697530Y-1164700D01*
G01X5712530Y-1122700D02*
X5765870D01*
G01X5557200Y-1044700D02*
X5517200D01*
G01X5537200D02*
Y-1164700D01*
G01X5557200D02*
X5517200D01*
G01X5471200Y-1148700D02*
X5457870Y-1158700D01*
X5442870Y-1164700D01*
X5429530D01*
X5416200Y-1158700D01*
X5406200Y-1148700D01*
X5401200Y-1134700D01*
X5404530Y-1120700D01*
X5412870Y-1108700D01*
X5427870Y-1100700D01*
X5447870Y-1096700D01*
X5459530Y-1088700D01*
X5464530Y-1074700D01*
X5461200Y-1060700D01*
X5452870Y-1050700D01*
X5441200Y-1044700D01*
X5429530D01*
X5417870Y-1048700D01*
X5407870Y-1058700D01*
G01X5370200Y-1148700D02*
X5356870Y-1158700D01*
X5341870Y-1164700D01*
X5328530D01*
X5315200Y-1158700D01*
X5305200Y-1148700D01*
X5300200Y-1134700D01*
X5303530Y-1120700D01*
X5311870Y-1108700D01*
X5326870Y-1100700D01*
X5346870Y-1096700D01*
X5358530Y-1088700D01*
X5363530Y-1074700D01*
X5360200Y-1060700D01*
X5351870Y-1050700D01*
X5340200Y-1044700D01*
X5328530D01*
X5316870Y-1048700D01*
X5306870Y-1058700D01*
G01X5270870Y-1044700D02*
Y-1130700D01*
X5264200Y-1148700D01*
X5250870Y-1160700D01*
X5234200Y-1164700D01*
X5217530Y-1160700D01*
X5204200Y-1148700D01*
X5197530Y-1130700D01*
Y-1044700D01*
G01X5099870Y-1164700D02*
X5166530D01*
Y-1044700D01*
X5099870D01*
G01X5126530Y-1102700D02*
X5166530D01*
G01X4931200Y-1164700D02*
Y-1044700D01*
X4951200Y-1068700D01*
G01Y-1164700D02*
X4911200D01*
G54D15*
X0Y0D03*
Y1000000D03*
Y2000000D03*
X568000D03*
X858000Y0D03*
X1108000Y2000000D03*
X1425000Y500000D03*
Y1500000D03*
Y2500000D03*
Y3500000D03*
X1900000Y0D03*
Y1000000D03*
Y2000000D03*
X2758000Y0D03*
X2468000Y2000000D03*
X3325000Y500000D03*
Y1500000D03*
X3008000Y2000000D03*
X3325000Y2500000D03*
Y3500000D03*
G54D24*
X1388400Y19793200D03*
X7236700D03*
G54D34*
G01X-1187500Y-610000D02*
X9812500D01*
Y20490000D01*
X-1187500D01*
Y-610000D01*
G54D16*
X0Y2750000D03*
Y2280000D03*
Y3250000D03*
X233000Y3710000D03*
X1193000D03*
X713000D03*
X1425000Y2750000D03*
Y2280000D03*
Y3250000D03*
X1900000Y2750000D03*
Y2280000D03*
Y3250000D03*
X2133000Y3710000D03*
X2613000D03*
X3325000Y2750000D03*
Y2280000D03*
Y3250000D03*
X3093000Y3710000D03*
G54D25*
X1550500Y19281600D03*
X1614000D03*
X1677500D03*
X1550500Y19898600D03*
X1614000D03*
X1677500D03*
X1741000Y19281600D03*
X1804500D03*
X1868000D03*
X1931500D03*
X1995000D03*
X2058500D03*
X2122000D03*
X2185500D03*
X2249000D03*
X1741000Y19898600D03*
X1804500D03*
X1868000D03*
X1931500D03*
X1995000D03*
X2058500D03*
X2122000D03*
X2185500D03*
X2249000D03*
X2312500Y19281600D03*
X2376000D03*
X2439500D03*
X2503000D03*
X2566500D03*
X2630000D03*
X2693500D03*
X2757000D03*
X2820500D03*
X2312500Y19898600D03*
X2376000D03*
X2439500D03*
X2503000D03*
X2566500D03*
X2630000D03*
X2693500D03*
X2757000D03*
X2820500D03*
X2884000Y19281600D03*
X2947500D03*
X3011000D03*
X3074500D03*
X2884000Y19898600D03*
X2947500D03*
X3011000D03*
X3074500D03*
X3550500Y19281600D03*
X3614000D03*
X3677500D03*
X3741000D03*
X3804500D03*
X3868000D03*
X3931500D03*
X3995000D03*
X3550500Y19898600D03*
X3614000D03*
X3677500D03*
X3741000D03*
X3804500D03*
X3868000D03*
X3931500D03*
X3995000D03*
X4058500Y19281600D03*
X4122000D03*
X4185500D03*
X4249000D03*
X4312500D03*
X4376000D03*
X4439500D03*
X4503000D03*
X4566500D03*
X4058500Y19898600D03*
X4122000D03*
X4185500D03*
X4249000D03*
X4312500D03*
X4376000D03*
X4439500D03*
X4503000D03*
X4566500D03*
X4630000Y19281600D03*
X4693500D03*
X4757000D03*
X4820500D03*
X4884000D03*
X4947500D03*
X5011000D03*
X5074500D03*
X4630000Y19898600D03*
X4693500D03*
X4757000D03*
X4820500D03*
X4884000D03*
X4947500D03*
X5011000D03*
X5074500D03*
X5550500Y19281600D03*
X5614000D03*
X5677500D03*
X5550500Y19898600D03*
X5614000D03*
X5677500D03*
X5741000Y19281600D03*
X5804500D03*
X5868000D03*
X5931500D03*
X5995000D03*
X6058500D03*
X6122000D03*
X6185500D03*
X6249000D03*
X5741000Y19898600D03*
X5804500D03*
X5868000D03*
X5931500D03*
X5995000D03*
X6058500D03*
X6122000D03*
X6185500D03*
X6249000D03*
X6312500Y19281600D03*
X6376000D03*
X6439500D03*
X6503000D03*
X6566500D03*
X6630000D03*
X6693500D03*
X6757000D03*
X6820500D03*
X6312500Y19898600D03*
X6376000D03*
X6439500D03*
X6503000D03*
X6566500D03*
X6630000D03*
X6693500D03*
X6757000D03*
X6820500D03*
X6884000Y19281600D03*
X6947500D03*
X7011000D03*
X7074500D03*
X6884000Y19898600D03*
X6947500D03*
X7011000D03*
X7074500D03*
G54D17*
X0Y3000000D03*
X1900000D03*
G54D26*
X2312500Y19138850D03*
X2249000Y19758850D03*
X2820500Y19138850D03*
X2693500D03*
X2566500D03*
X2439500D03*
X2884000Y19758850D03*
X2757000D03*
X2630000D03*
X2503000D03*
X2376000D03*
X3074500Y19138850D03*
X2947500D03*
X3011000Y19758850D03*
X3995000Y19138850D03*
X3868000D03*
X3741000D03*
X3614000D03*
X3931500Y19758850D03*
X3804500D03*
X3677500D03*
X3550500D03*
X4385000Y15707600D03*
X4559000Y15476600D03*
Y15957600D03*
X4503000Y19138850D03*
X4376000D03*
X4249000D03*
X4122000D03*
X4566500Y19758850D03*
X4439500D03*
X4312500D03*
X4185500D03*
X4058500D03*
X4986000Y15707600D03*
X5011000Y19138850D03*
X4884000D03*
X4757000D03*
X4630000D03*
X5074500Y19758850D03*
X4947500D03*
X4820500D03*
X4693500D03*
X5294000Y15303600D03*
X5677500Y19138850D03*
X5550500D03*
X5614000Y19758850D03*
X6185500Y19138850D03*
X6058500D03*
X5931500D03*
X5804500D03*
X6249000Y19758850D03*
X6122000D03*
X5995000D03*
X5868000D03*
X5741000D03*
X6439500Y19138850D03*
X6312500D03*
X6820500D03*
X6693500D03*
X6566500D03*
X6376000Y19758850D03*
X6757000D03*
X6630000D03*
X6503000D03*
X7074500Y19138850D03*
X6947500D03*
X7011000Y19758850D03*
X6884000D03*
G54D18*
X233000Y3090000D03*
X1193000D03*
X2133000D03*
X3093000D03*
G54D27*
X1995000Y19590000D03*
X2630000D03*
X3995000D03*
X4630000D03*
X5995000D03*
X6630000D03*
G54D19*
X425100Y7979200D03*
X525100Y9262200D03*
X425100Y9979200D03*
X525100Y11262200D03*
X8712500Y1090000D03*
Y1598000D03*
G54D28*
X2780700Y8796000D03*
Y8646000D03*
X2580700Y8946000D03*
Y8796000D03*
X2930700D03*
Y8646000D03*
X3418800Y8796000D03*
Y8646000D03*
X3268800Y8796000D03*
Y8646000D03*
X3080700Y8796000D03*
Y8646000D03*
X3881500Y6109000D03*
Y6259000D03*
X3568800Y8796000D03*
Y8646000D03*
X3542000Y10362000D03*
Y10212000D03*
X4745100Y6109000D03*
Y6259000D03*
X5415500Y15478950D03*
Y15328950D03*
X6152560Y14640270D03*
Y14790270D03*
X7170800Y-190200D03*
X7020140Y-37680D03*
Y112320D03*
X7170800Y-40200D03*
X7220800Y2085760D03*
Y2235760D03*
X7060780Y2235620D03*
Y2385620D03*
X7236040Y4379380D03*
X7076020Y4529240D03*
Y4679240D03*
X7236040Y4529380D03*
X7589100Y89320D03*
Y239320D03*
X7629740Y2362620D03*
Y2512620D03*
X7644980Y4656240D03*
Y4806240D03*
G54D29*
X4559000Y15707600D03*
M02*
