G04 ================== begin FILE IDENTIFICATION RECORD ==================*
G04 Layout Name:  pc049a_toplevel_48.brd*
G04 Film Name:    PC049A_L3*
G04 File Format:  Gerber RS274X*
G04 File Origin:  Cadence Allegro 16.6-S014*
G04 Origin Date:  Wed Feb 11 18:23:25 2015*
G04 *
G04 Layer:  VIA CLASS/L3*
G04 Layer:  PIN/L3*
G04 Layer:  ETCH/L3*
G04 Layer:  BOARD GEOMETRY/CTEXT_TOP*
G04 *
G04 Offset:    (0.0000 0.0000)*
G04 Mirror:    No*
G04 Mode:      Positive*
G04 Rotation:  0*
G04 FullContactRelief:  No*
G04 UndefLineWidth:     0.1270*
G04 ================== end FILE IDENTIFICATION RECORD ====================*
%FSLAX25Y25*MOMM*%
%IR0*IPPOS*OFA0.00000B0.00000*MIA0B0*SFA1.00000B1.00000*%
%ADD14C,.6*%
%ADD22C,.8*%
%ADD23C,.6096*%
%ADD18C,1.*%
%ADD10C,5.*%
%ADD24C,1.6*%
%ADD19C,2.032*%
%ADD12C,1.7*%
%ADD21C,1.6002*%
%ADD13C,1.27*%
%ADD17C,1.55*%
%ADD20C,1.524*%
%ADD16C,1.65*%
%ADD15C,1.75*%
%ADD11C,6.604*%
%ADD25C,.101*%
%ADD26C,.18*%
%ADD27C,.127*%
%ADD28C,.254*%
%ADD29C,.7524*%
%ADD30C,.8544*%
%ADD31C,1.5244*%
G75*
%LPD*%
G75*
G36*
G01X2268600Y8698600D02*
X2230500Y8736700D01*
Y8939900D01*
X2294000Y9003400D01*
X2827400D01*
X2979800Y9155800D01*
X3157600D01*
X3249880Y9248080D01*
X3251400Y9248380D01*
G03X3261890Y9318500I-7203J36922D01*
G01X3259200Y9319930D01*
Y9350670D01*
X3261890Y9352100D01*
G03Y9418500I-17690J33200D01*
G01X3259200Y9419930D01*
Y9450670D01*
X3261890Y9452100D01*
G03Y9518500I-17690J33200D01*
G01X3259200Y9519930D01*
Y9550670D01*
X3261890Y9552100D01*
G03Y9618500I-17690J33200D01*
G01X3259200Y9619930D01*
Y9650670D01*
X3261890Y9652100D01*
G03X3281810Y9684420I-17689J33201D01*
G01X3281860Y9686460D01*
X3289260Y9693860D01*
G02X3306600Y9686380I7183J-7187D01*
G03X3343760Y9722920I37604J-1077D01*
G02X3336450Y9740260I-124J10159D01*
G01X3343820Y9747630D01*
X3345800Y9747710D01*
G03X3381810Y9784420I-1601J37587D01*
G01X3381860Y9786460D01*
X3443040Y9847640D01*
X3445080Y9847690D01*
G03X3462400Y9918220I-883J37608D01*
G01Y10052380D01*
G03Y10118220I-18200J32920D01*
G01Y10352380D01*
G03Y10418220I-18200J32920D01*
G01Y10552380D01*
G03Y10618220I-18200J32920D01*
G01Y10752380D01*
G03X3445800Y10822890I-18201J32924D01*
G01X3443820Y10822970D01*
X3436450Y10830340D01*
G02X3443760Y10847680I7186J7181D01*
G03X3411350Y10866970I444J37618D01*
G02X3406910Y10859420I-4440J-2469D01*
G01X3397080D01*
X3380700Y10875800D01*
X3381190Y10878430D01*
G03X3345800Y10922890I-36989J6872D01*
G01X3343820Y10922970D01*
X3336450Y10930340D01*
G02X3343760Y10947680I7186J7181D01*
G03X3308250Y10974220I442J37618D01*
G02X3298540Y10961070I-9710J-2990D01*
G01X3295430D01*
X3280700Y10975800D01*
X3281190Y10978430D01*
G03X3247300Y11022790I-36988J6868D01*
G01X3245450Y11022950D01*
X3238050Y11030350D01*
G02X3245010Y11047690I7182J7184D01*
G03X3208080Y11074770I-814J37612D01*
G02X3198330Y11061770I-9753J-2842D01*
G01X3194730D01*
X3180700Y11075800D01*
X3181190Y11078430D01*
G03X3170300Y11112390I-36988J6865D01*
G01Y11158210D01*
G03X3171270Y11211420I-26101J27090D01*
G01Y11300320D01*
X3170300Y11301290D01*
Y11302100D01*
X3005200Y11467200D01*
Y12114900D01*
X3589400Y12699100D01*
X3691000D01*
X3716400Y12724500D01*
Y12813400D01*
X3398900Y13130900D01*
Y13664300D01*
X3509200Y13774600D01*
X3510270Y13774990D01*
G03X3555960Y13820680I-25970J71660D01*
G01X3556350Y13821750D01*
X3627500Y13892900D01*
X4770500D01*
X4973700Y13689700D01*
Y13542840D01*
X4948410Y13517550D01*
Y12761900D01*
X4312330Y12125820D01*
Y11880320D01*
G02X4299150Y11870620I-10160J1D01*
G03Y11798780I-11180J-35920D01*
G02X4312330Y11789080I3020J-9701D01*
G01Y11525500D01*
G02X4299140Y11515800I-10160J-2D01*
G03Y11444000I-11240J-35900D01*
G02X4312330Y11434300I3030J-9698D01*
G01Y11382120D01*
X4217830Y11287620D01*
Y11212130D01*
G03X4270570I26370J-26830D01*
G01Y11265780D01*
X4289820Y11285030D01*
G02X4307040Y11279430I7184J-7184D01*
G03X4351110Y11248320I37159J5870D01*
G02X4363130Y11238330I1860J-9988D01*
G01Y11232270D01*
G02X4351110Y11222280I-10160J-2D01*
G03Y11148320I-6910J-36980D01*
G02X4363130Y11138330I1860J-9988D01*
G01Y11071720D01*
X4353180Y11061770D01*
X4305020D01*
X4281870Y11084920D01*
X4281790Y11086900D01*
G03X4242600Y11047710I-37590J-1600D01*
G01X4244580Y11047630D01*
X4251950Y11040260D01*
G02X4244640Y11022920I-7186J-7181D01*
G03X4280270Y10995980I-443J-37618D01*
G02X4290010Y11009030I9741J2890D01*
G01X4298390D01*
G02X4308130Y10995980I-1J-10160D01*
G03X4371870Y10959810I36072J-10680D01*
G02X4389500Y10952930I7471J-6885D01*
G01Y10781400D01*
X4529200Y10641700D01*
Y10319930D01*
X4526510Y10318500D01*
G03Y10252100I17690J-33200D01*
G01X4529200Y10250670D01*
Y9841600D01*
X4414900Y9727300D01*
X4021200D01*
X3995800Y9701900D01*
Y9270100D01*
X4059300Y9206600D01*
Y8889100D01*
X3868800Y8698600D01*
X2268600D01*
G37*
%LPC*%
G75*
G36*
G01X3560250Y13380790D02*
G03X3550490Y13392990I-9952J2042D01*
G02X3593150Y13427110I813J42712D01*
G03X3602910Y13414910I9952J-2042D01*
G02X3560250Y13380790I-813J-42712D01*
G37*
G36*
G01X4081820Y11185740D02*
G02X4017830Y11212130I-37618J-440D01*
G01Y12009120D01*
X4502830Y12494120D01*
Y13421220D01*
X4550230Y13468620D01*
X4550080Y13470930D01*
G02X4589830Y13431180I42620J2870D01*
G01X4587520Y13431330D01*
X4555570Y13399380D01*
Y12520590D01*
G03X4572910Y12513410I10158J4D01*
G01X4744130Y12684620D01*
Y13192620D01*
X4820330Y13268820D01*
Y13541790D01*
G02X4873070I26370J33610D01*
G01Y13246980D01*
X4796870Y13170780D01*
Y12662780D01*
X4098370Y11964280D01*
Y11317090D01*
G03X4116110Y11310330I10158J1D01*
G02X4143760Y11247680I28087J-25030D01*
G03X4136450Y11230340I-124J-10159D01*
G01X4143820Y11222970D01*
X4145800Y11222890D01*
G02X4106610Y11183700I-1600J-37590D01*
G01X4106530Y11185680D01*
X4099160Y11193050D01*
G03X4081820Y11185740I-7181J-7186D01*
G37*
G36*
G01X3581870Y11085680D02*
X3581790Y11083700D01*
G02X3542600Y11122890I-37590J1600D01*
G01X3544580Y11122970D01*
X3563030Y11141420D01*
Y11154820D01*
X3556730D01*
X3555650Y11154260D01*
G02X3549840Y11223700I-17048J33537D01*
G03X3563030Y11233400I3030J9698D01*
G01Y11240870D01*
G03X3550860Y11250830I-10161J0D01*
G02X3542670Y11325310I-7471J36869D01*
G03X3549650Y11342650I-204J10157D01*
G01X3524930Y11367380D01*
Y11650840D01*
X3778930Y11904840D01*
Y13269780D01*
X3823330Y13314180D01*
G03X3818940Y13331130I-7186J7182D01*
G02X3800500Y13402410I11762J41068D01*
G03X3795620Y13419490I-7185J7184D01*
G02X3790290Y13501090I9683J41607D01*
G01X3793580Y13502330D01*
Y13510930D01*
X3775410D01*
G02Y13563670I-33610J26370D01*
G01X3848580D01*
G03X3858360Y13576570I-1J10158D01*
G02X3868630Y13617630I41138J11525D01*
G03X3862730Y13634710I-7339J7024D01*
G02X3899670Y13647470I6066J42288D01*
G03X3905570Y13630390I7339J-7024D01*
G02X3897550Y13545420I-6070J-42291D01*
G03X3889900Y13528090I-465J-10148D01*
G01X3933270Y13484720D01*
Y13349540D01*
X3831670Y13247940D01*
Y12190390D01*
G03X3849010Y12183210I10158J4D01*
G01X4020230Y12354420D01*
Y13261040D01*
G03X4002450Y13267750I-10159J-7D01*
G02X3960720Y13337610I-32047J28250D01*
G03X3965600Y13354690I-2305J9896D01*
G02X4007330Y13426040I30201J30214D01*
G03X4020230Y13435820I2742J9781D01*
G01Y13452890D01*
G02X4072970I26370J33610D01*
G01Y13409780D01*
G03X4086270Y13400120I10160J2D01*
G02X4108710Y13317790I13229J-40617D01*
G01X4104730Y13316910D01*
Y13293900D01*
G03X4118850Y13284540I10160J-3D01*
G02Y13205860I16650J-39340D01*
G03X4104730Y13196500I-3960J-9357D01*
G01Y12300840D01*
X3920570Y12116680D01*
Y11224380D01*
X3836450Y11140260D01*
G03X3843760Y11122920I7186J-7181D01*
G02X3806580Y11085740I440J-37620D01*
G03X3789240Y11093050I-10159J124D01*
G01X3781870Y11085680D01*
X3781790Y11083700D01*
G02X3742600Y11122890I-37590J1600D01*
G01X3744580Y11122970D01*
X3751950Y11130340D01*
G03X3744640Y11147680I-7186J7181D01*
G02X3742600Y11222890I-440J37621D01*
G01X3744580Y11222970D01*
X3766230Y11244620D01*
Y11338420D01*
X3829730Y11401920D01*
Y11856530D01*
G03X3812390Y11863710I-10158J-4D01*
G01X3577670Y11629000D01*
Y11389220D01*
X3615770Y11351120D01*
Y11329450D01*
G03X3629810Y11320060I10159J-1D01*
G02X3662800Y11318000I14389J-34760D01*
G03X3677980Y11326830I5020J8833D01*
G01Y11511260D01*
X3655120Y11534120D01*
X3652140Y11533120D01*
G02X3675880Y11556860I-11940J35680D01*
G01X3674880Y11553880D01*
X3705920Y11522840D01*
Y11227260D01*
X3678880Y11200220D01*
X3679880Y11197240D01*
G02X3629810Y11150540I-35677J-11940D01*
G03X3615770Y11141150I-3881J-9389D01*
G01Y11129450D01*
G03X3629810Y11120060I10159J-1D01*
G02X3606580Y11085740I14389J-34761D01*
G03X3589240Y11093050I-10159J124D01*
G01X3581870Y11085680D01*
G37*
G54D29*
X2930700Y8939900D03*
X3081400Y8901800D03*
X3398900Y8990700D03*
X3444200Y9585300D03*
X3344200Y9485300D03*
X3444200Y9285300D03*
X3244200Y9085300D03*
X3444200Y9485300D03*
Y9385300D03*
Y9085300D03*
X3344200Y9385300D03*
Y9285300D03*
Y9085300D03*
Y9585300D03*
X3444200Y9685300D03*
Y10985300D03*
X3244200Y11285300D03*
X3444200Y11085300D03*
Y11185300D03*
X3344200D03*
X3244200D03*
X3444200Y11285300D03*
X3284600Y11594200D03*
X3386200D03*
X3348100Y11454500D03*
X3081400Y11581500D03*
X3284600Y11683100D03*
X3386200D03*
X3678300Y8800200D03*
X3868800Y8876400D03*
X3844200Y9585300D03*
X3644200Y9285300D03*
X3983100Y9092300D03*
X3744200Y9485300D03*
Y9585300D03*
Y9385300D03*
Y9285300D03*
X3644200Y9585300D03*
X3844200Y9285300D03*
Y9485300D03*
X3644200D03*
Y9385300D03*
X3544200Y9485300D03*
Y9385300D03*
Y9585300D03*
X3844200Y9385300D03*
X3644200Y9985300D03*
X3844200D03*
Y10185300D03*
X4044200Y10085300D03*
X3544200Y9785300D03*
X3844200Y10085300D03*
X4044200Y10185300D03*
X3644200D03*
X3744200D03*
X3644200Y9885300D03*
X3544200Y9985300D03*
X3844200Y9885300D03*
X3744200Y9685300D03*
X3844200D03*
Y9785300D03*
X3644200Y9685300D03*
X3544200D03*
X4044200Y10585300D03*
Y10385300D03*
X3844200Y10485300D03*
X3744200Y10585300D03*
Y10385300D03*
X3644200Y10485300D03*
Y10285300D03*
Y10685300D03*
X3844200Y10585300D03*
Y10385300D03*
X4044200Y10485300D03*
X3644200Y10585300D03*
X3744200Y10485300D03*
X3644200Y10385300D03*
X3944200Y10685300D03*
X3544200D03*
X3744200D03*
X3844200Y10985300D03*
X3944200Y10885300D03*
Y10985300D03*
X4044200Y11085300D03*
X3844200Y10885300D03*
X3744200D03*
Y10985300D03*
X3644200Y10885300D03*
X3544200D03*
Y10985300D03*
X3844200Y10785300D03*
X3644200Y10985300D03*
X4144200Y10185300D03*
X4244200Y9985300D03*
X4144200Y10085300D03*
Y9885300D03*
X4444200Y9985300D03*
X4344200Y10085300D03*
X4244200Y10385300D03*
X4144200Y10485300D03*
Y10285300D03*
Y10385300D03*
X4244200Y10485300D03*
X4144200Y10585300D03*
X4344200Y10385300D03*
X4444200Y10485300D03*
X4144200Y10885300D03*
X4244200D03*
X4144200Y11085300D03*
Y10985300D03*
G54D30*
X3284600Y12229200D03*
X3386200D03*
X3475100Y13550000D03*
X3694200Y12305400D03*
X3892900Y12624200D03*
X3607200Y13075000D03*
X3676550Y13740500D03*
X3602100Y13626200D03*
X4637150Y12997550D03*
X4414900Y13270600D03*
X4351400Y13181700D03*
X4199000Y13397600D03*
X4891150Y12972150D03*
X4745100Y13410300D03*
X4694300Y13283300D03*
G54D31*
X4313300Y13042000D03*
%LPD*%
G75*
G54D10*
X-911500Y5082000D03*
Y13972000D03*
X9536500Y5082000D03*
Y13972000D03*
G54D11*
X-687500Y90000D03*
X-187500Y4590000D03*
Y14090000D03*
X-687500Y19590000D03*
X8812500Y4590000D03*
Y14090000D03*
X9312500Y90000D03*
Y19590000D03*
G54D20*
X1194800Y14002900D03*
Y14202900D03*
X1394800Y14002900D03*
Y14202900D03*
X1594800Y14002900D03*
Y14202900D03*
X1794800Y14002900D03*
Y14202900D03*
X1994800Y14002900D03*
Y14202900D03*
X2194800Y14002900D03*
Y14202900D03*
X2394800Y14002900D03*
Y14202900D03*
X6938700Y14697550D03*
Y14951550D03*
Y15205550D03*
Y17262950D03*
Y17516950D03*
Y17770950D03*
G54D21*
X1388400Y19793200D03*
X7236700D03*
G54D12*
X-657500Y5590000D03*
Y6098000D03*
Y5844000D03*
Y6606000D03*
Y6352000D03*
Y7368000D03*
Y7114000D03*
Y6860000D03*
Y7876000D03*
Y7622000D03*
Y8384000D03*
Y8130000D03*
Y8892000D03*
Y8638000D03*
Y9654000D03*
Y9400000D03*
Y9146000D03*
Y10162000D03*
Y9908000D03*
Y10670000D03*
Y10416000D03*
Y11178000D03*
Y10924000D03*
Y11940000D03*
Y11686000D03*
Y11432000D03*
Y12448000D03*
Y12194000D03*
Y12956000D03*
Y12702000D03*
Y13464000D03*
Y13210000D03*
X-149500Y5590000D03*
X-403500D03*
X-149500Y6098000D03*
Y5844000D03*
X-403500Y6098000D03*
Y5844000D03*
X-149500Y6606000D03*
Y6352000D03*
X-403500Y6606000D03*
Y6352000D03*
X-149500Y7368000D03*
Y7114000D03*
Y6860000D03*
X-403500Y7368000D03*
Y7114000D03*
Y6860000D03*
X-149500Y7876000D03*
Y7622000D03*
X-403500Y7876000D03*
Y7622000D03*
X-149500Y8384000D03*
Y8130000D03*
X-403500Y8384000D03*
Y8130000D03*
X-149500Y8892000D03*
Y8638000D03*
X-403500Y8892000D03*
Y8638000D03*
X-149500Y9654000D03*
Y9400000D03*
Y9146000D03*
X-403500Y9654000D03*
Y9400000D03*
Y9146000D03*
X-149500Y10162000D03*
Y9908000D03*
X-403500Y10162000D03*
Y9908000D03*
X-149500Y10670000D03*
Y10416000D03*
X-403500Y10670000D03*
Y10416000D03*
X-149500Y11178000D03*
Y10924000D03*
X-403500Y11178000D03*
Y10924000D03*
X-149500Y11940000D03*
Y11686000D03*
Y11432000D03*
X-403500Y11940000D03*
Y11686000D03*
Y11432000D03*
X-149500Y12448000D03*
Y12194000D03*
X-403500Y12448000D03*
Y12194000D03*
X-149500Y12956000D03*
Y12702000D03*
X-403500Y12956000D03*
Y12702000D03*
X-149500Y13464000D03*
Y13210000D03*
X-403500Y13464000D03*
Y13210000D03*
X8774500Y5590000D03*
X9028500D03*
X8774500Y5844000D03*
Y6098000D03*
X9028500Y5844000D03*
Y6098000D03*
X8774500Y6352000D03*
Y6606000D03*
X9028500Y6352000D03*
Y6606000D03*
X8774500Y6860000D03*
Y7114000D03*
Y7368000D03*
X9028500Y6860000D03*
Y7114000D03*
Y7368000D03*
X8774500Y7622000D03*
Y7876000D03*
X9028500Y7622000D03*
Y7876000D03*
X8774500Y8130000D03*
Y8384000D03*
X9028500Y8130000D03*
Y8384000D03*
X8774500Y8638000D03*
Y8892000D03*
X9028500Y8638000D03*
Y8892000D03*
X8774500Y9146000D03*
Y9400000D03*
Y9654000D03*
X9028500Y9146000D03*
Y9400000D03*
Y9654000D03*
X8774500Y9908000D03*
Y10162000D03*
X9028500Y9908000D03*
Y10162000D03*
X8774500Y10416000D03*
Y10670000D03*
X9028500Y10416000D03*
Y10670000D03*
X8774500Y10924000D03*
Y11178000D03*
X9028500Y10924000D03*
Y11178000D03*
X8774500Y11432000D03*
Y11686000D03*
Y11940000D03*
X9028500Y11432000D03*
Y11686000D03*
Y11940000D03*
X8774500Y12194000D03*
Y12448000D03*
X9028500Y12194000D03*
Y12448000D03*
X8774500Y12702000D03*
Y12956000D03*
X9028500Y12702000D03*
Y12956000D03*
X8774500Y13210000D03*
Y13464000D03*
X9028500Y13210000D03*
Y13464000D03*
X9282500Y5590000D03*
Y5844000D03*
Y6098000D03*
Y6352000D03*
Y6606000D03*
Y6860000D03*
Y7114000D03*
Y7368000D03*
Y7622000D03*
Y7876000D03*
Y8130000D03*
Y8384000D03*
Y8638000D03*
Y8892000D03*
Y9146000D03*
Y9400000D03*
Y9654000D03*
Y9908000D03*
Y10162000D03*
Y10416000D03*
Y10670000D03*
Y10924000D03*
Y11178000D03*
Y11432000D03*
Y11686000D03*
Y11940000D03*
Y12194000D03*
Y12448000D03*
Y12702000D03*
Y12956000D03*
Y13210000D03*
Y13464000D03*
G54D13*
X-538900Y14787100D03*
X-157900Y14774400D03*
X1045900Y14672150D03*
Y15078550D03*
Y15281750D03*
Y14875350D03*
Y15891350D03*
Y15484950D03*
Y15688150D03*
X766500D03*
X1045900Y16094550D03*
Y16297750D03*
Y16704150D03*
Y16907350D03*
Y16500950D03*
Y17516950D03*
Y17313750D03*
Y17110550D03*
Y17720150D03*
Y18151950D03*
Y17948750D03*
Y18355150D03*
X1604700Y14570550D03*
Y14773750D03*
Y14976950D03*
Y15180150D03*
Y15383350D03*
Y15789750D03*
Y15586550D03*
Y16196150D03*
Y15992950D03*
Y16399350D03*
Y16602550D03*
Y16805750D03*
Y17008950D03*
Y17212150D03*
Y17415350D03*
Y17618550D03*
Y17821750D03*
Y18050350D03*
Y18253550D03*
Y18456750D03*
X1959000Y10467000D03*
X3281100Y14062550D03*
X3484300Y13846650D03*
X3627500Y1129400D03*
X3687500Y14062550D03*
X4313300Y13042000D03*
X6016840Y2130280D03*
X6029540Y4423900D03*
X6370700Y10298800D03*
X6586600Y10768700D03*
X7548300Y14722950D03*
Y15332550D03*
Y14926150D03*
Y15129350D03*
Y15738950D03*
Y15535750D03*
Y16145350D03*
Y15942150D03*
Y16348550D03*
Y16754950D03*
Y16551750D03*
Y16958150D03*
X7954700Y14621350D03*
Y15230950D03*
Y14824550D03*
Y15027750D03*
Y15434150D03*
Y15840550D03*
Y15637350D03*
Y16043750D03*
Y16246950D03*
Y16450150D03*
Y16856550D03*
Y16653350D03*
Y17059750D03*
G54D22*
X1887000Y10216000D03*
G54D23*
X2312500Y19138850D03*
X2376000Y19758850D03*
X2249000D03*
X2947500Y19138850D03*
X2820500D03*
X2693500D03*
X2566500D03*
X2439500D03*
X2884000Y19758850D03*
X2757000D03*
X2630000D03*
X2503000D03*
X3074500Y19138850D03*
X3011000Y19758850D03*
X3995000Y19138850D03*
X3868000D03*
X3741000D03*
X3614000D03*
X4058500Y19758850D03*
X3931500D03*
X3804500D03*
X3677500D03*
X3550500D03*
X4385000Y15707600D03*
X4559000Y15476600D03*
Y15957600D03*
X4630000Y19138850D03*
X4503000D03*
X4376000D03*
X4249000D03*
X4122000D03*
X4566500Y19758850D03*
X4439500D03*
X4312500D03*
X4185500D03*
X4986000Y15707600D03*
X5011000Y19138850D03*
X4884000D03*
X4757000D03*
X5074500Y19758850D03*
X4947500D03*
X4820500D03*
X4693500D03*
X5294000Y15303600D03*
X5677500Y19138850D03*
X5550500D03*
X5741000Y19758850D03*
X5614000D03*
X6312500Y19138850D03*
X6185500D03*
X6058500D03*
X5931500D03*
X5804500D03*
X6249000Y19758850D03*
X6122000D03*
X5995000D03*
X5868000D03*
X6439500Y19138850D03*
X6820500D03*
X6693500D03*
X6566500D03*
X6376000Y19758850D03*
X6884000D03*
X6757000D03*
X6630000D03*
X6503000D03*
X7074500Y19138850D03*
X6947500D03*
X7011000Y19758850D03*
G54D14*
X-487500Y15150400D03*
X-754000Y15467700D03*
X-980800Y15310300D03*
Y16310300D03*
Y17310300D03*
Y18310300D03*
Y20310300D03*
X84200Y15480400D03*
X-337500Y15467700D03*
X-360300Y16077300D03*
X-169800D03*
X-262500D03*
X19200Y16310300D03*
Y17310300D03*
Y18310300D03*
Y19310300D03*
Y20310300D03*
X373000Y2831200D03*
X333000Y3351900D03*
X573000D03*
X533000Y2831200D03*
X453000D03*
X653000Y3351900D03*
X613000Y2831200D03*
X409920Y3771000D03*
X496090D03*
X562600Y3979400D03*
X516000Y4208000D03*
X410200Y4601700D03*
Y4500100D03*
X312800Y5724500D03*
Y5804500D03*
Y5884500D03*
Y5964500D03*
X604800Y8254200D03*
X604900Y8635200D03*
X604800Y9016200D03*
X611400Y10254200D03*
Y10635200D03*
X615060Y10786480D03*
Y10867760D03*
X494200Y12060300D03*
X269200Y13660300D03*
Y14260300D03*
X439800Y15302600D03*
Y15797900D03*
X223900D03*
X1013000Y2831200D03*
X1093000D03*
X813000Y3351900D03*
X1053000D03*
X933000Y2831200D03*
X773000D03*
X853000D03*
X733000Y3351900D03*
X693000Y2831200D03*
X973200Y3804020D03*
X902080Y3776080D03*
X725300Y3898000D03*
X993070Y3886340D03*
X1156200Y3979400D03*
X1196600Y4208000D03*
X1157600Y4444600D03*
X1145800Y4081000D03*
X1151000Y4888600D03*
X972400Y4675100D03*
X743800D03*
X1146300Y5358500D03*
X1151000Y5129900D03*
X733650Y8597000D03*
X808100Y8571070D03*
X1025750Y8800200D03*
X1024000Y8876400D03*
X1074800Y9130400D03*
X858900Y10032100D03*
X717800Y9878300D03*
X780080Y9933120D03*
X965810Y9968600D03*
X903530Y9917800D03*
X782700Y10184500D03*
X846200Y10260700D03*
X1125600Y10667100D03*
X998600Y10654400D03*
X1062100Y10603600D03*
X1201800Y10341580D03*
X1156200Y10443700D03*
X706500Y10806800D03*
X960500Y11251300D03*
X871600Y11187800D03*
X935100Y11137000D03*
X1049400Y12368100D03*
X794200Y11935300D03*
X1226600Y12280000D03*
X844200Y12685300D03*
X1062100Y12661000D03*
X973200Y12572100D03*
X922400Y12495900D03*
X1062100Y12876900D03*
Y12775300D03*
X844200Y13185300D03*
X1228900Y13065700D03*
X844200Y13660300D03*
Y14260300D03*
X897000Y18655400D03*
X894200Y18835300D03*
X1144200Y19085300D03*
X894200Y19335300D03*
Y19835300D03*
X1144200Y19585300D03*
X894200Y20335300D03*
X1144200Y20085300D03*
X1532000Y4456800D03*
X1697100Y4228200D03*
X1366900Y4672700D03*
X1646300Y5358500D03*
X1443100Y5282300D03*
X1747900Y5091800D03*
X1794000Y7022200D03*
X1506600Y7377800D03*
X1582800Y8393200D03*
X1343200Y8116940D03*
X1700500Y8873000D03*
X1493900Y9346300D03*
X1303400Y10146400D03*
X1493900D03*
X1303400Y9988920D03*
Y9854300D03*
X1493900D03*
X1491360Y9991460D03*
X1798700Y9676500D03*
X1689760Y10026740D03*
X1693340Y9926740D03*
X1694940Y9826740D03*
X1798700Y10017000D03*
X1519300Y10443700D03*
X1316100Y10629000D03*
X1691000Y10193000D03*
X1684400Y10324200D03*
X1392300Y10667100D03*
X1328800Y10717900D03*
X1795000Y10262450D03*
X1544700Y10349600D03*
X1684400Y10870300D03*
X1417700Y11911700D03*
X1582800D03*
X1760600D03*
X1683600D03*
X1481200Y12292700D03*
X1683600Y12254600D03*
X1595500Y12737200D03*
Y12508600D03*
X1711100Y12509900D03*
X1595600Y12623000D03*
X1711100D03*
X1341500Y12648000D03*
X1608200Y12991200D03*
X1785200Y13004700D03*
X1607400Y13257900D03*
X1785200Y13257100D03*
X1764020Y13448400D03*
X1679620Y13410300D03*
X1369200Y13660300D03*
X1379600Y16496400D03*
X1316100Y16907350D03*
X1392300Y17055200D03*
X1614000Y19157600D03*
X1394200Y18835300D03*
X1644200Y19035300D03*
X1550500Y19767200D03*
Y19411600D03*
X1674240Y19679020D03*
X1801240D03*
X1798700Y19460580D03*
X1394200Y19335300D03*
X1614000Y20021200D03*
X1394200Y20335300D03*
X2273000Y2831200D03*
X2233000Y3341700D03*
X2353000Y2831200D03*
X2309430Y3778620D03*
X2319400Y3992100D03*
X2268600Y4220700D03*
X2294000Y4355200D03*
X2167000Y4507600D03*
X2168600Y4610600D03*
X2217800Y4850500D03*
X1951100Y4952100D03*
X1874900Y5004650D03*
X2154300Y5396600D03*
X1887600Y5104500D03*
X2052700D03*
X1874900Y5218800D03*
X2268600Y5282300D03*
X2090800D03*
X1811400Y5155300D03*
X2012300Y5724500D03*
X2013100Y5804500D03*
X2009300Y5884500D03*
X2011000Y5964500D03*
X1824100Y6590300D03*
Y6680300D03*
X1874000Y7022200D03*
X2034000D03*
X1954000D03*
X1907580Y8399220D03*
X2154300Y8493200D03*
X2116200Y8793200D03*
X2154300Y8965300D03*
Y8587180D03*
X2326300Y8876400D03*
X1874900Y9185300D03*
X2299800Y9359000D03*
X1849500Y9346300D03*
X1926000Y9669000D03*
X2221700Y9685300D03*
X2217800Y9867000D03*
X1947000Y10016700D03*
X2128900Y10019400D03*
X2243200Y10298800D03*
Y10209900D03*
X2176500Y10635300D03*
X1975000Y10220000D03*
X2032000Y10345000D03*
X1845800Y10364050D03*
X1887600Y11060800D03*
X2014600Y10819500D03*
X1862200Y11505300D03*
X2357500Y11632300D03*
X1886800Y11911700D03*
X2026500D03*
X1959700Y12373000D03*
X2065400Y12749900D03*
X2370200Y12495900D03*
X1811400Y12762600D03*
X2052200Y12598000D03*
X2103500Y12495900D03*
X2179700Y12775300D03*
X1912200Y13308700D03*
X2051900D03*
X1975090Y14812470D03*
X1834490Y15038960D03*
X2257570Y14814330D03*
X2229450Y15136650D03*
X1889030Y15269950D03*
X2116200Y15719160D03*
X2241380Y15348430D03*
X2253650Y15569950D03*
X2055540Y15425930D03*
X2254030Y16134710D03*
X2032380Y16176360D03*
X2253080Y15991970D03*
X2249500Y16349990D03*
Y16519950D03*
Y16719950D03*
X2264410Y16953120D03*
X2266080Y17469950D03*
X2262710Y17277530D03*
X2151850Y17369950D03*
X2258540Y17147230D03*
X2369200Y18060300D03*
X2044200Y18560300D03*
X1894200Y18835300D03*
X2144200Y19035300D03*
X2309240Y19679020D03*
X2182240D03*
X2055240D03*
X1928240D03*
X1925700Y19460580D03*
X2052700D03*
X2179700D03*
X2306700D03*
X2187320Y20052400D03*
X2314320D03*
X1894200Y20335300D03*
X2433000Y2526400D03*
X2913000Y2831200D03*
X2548000Y3250300D03*
X2636900D03*
X2833000Y2831200D03*
X2673000D03*
X2753000D03*
X2553000Y3356900D03*
X2633000Y3355800D03*
X2593000Y2831200D03*
X2513000D03*
X2876090Y3788780D03*
X2789920D03*
X2395600Y3778620D03*
X2490600Y3898000D03*
X2725800D03*
X2894200Y4447400D03*
X2906200Y4093700D03*
Y3992100D03*
X2509900Y4850500D03*
X2789300D03*
X2852800Y5041000D03*
X2496400Y4687800D03*
X2725000D03*
X2802000Y5396600D03*
X2789300Y5104500D03*
X2725800Y5155300D03*
X2509900D03*
X2535300Y5282300D03*
X2751200Y6476100D03*
X2929700Y6717400D03*
X2543200Y7166700D03*
X2930700Y8939900D03*
X2580700Y9041500D03*
X2944200Y9585300D03*
X2844200Y9085300D03*
X2471800Y9435200D03*
X2408300Y9185300D03*
X2611500Y9371700D03*
X2944200Y9485300D03*
X2744200Y9585300D03*
Y9485300D03*
Y9385300D03*
Y9285300D03*
X2944200Y9385300D03*
Y9285300D03*
Y9785300D03*
X2611500Y9663800D03*
X2744200Y9985300D03*
X2624200Y9930500D03*
X2700400Y9881450D03*
X2744200Y9685300D03*
X2944200D03*
X2463000D03*
X2744200Y9785300D03*
X2484500Y9867000D03*
Y10019400D03*
X2573400Y10603600D03*
X2942600Y10286100D03*
X2644520Y10428340D03*
X2744200Y10285300D03*
X2944200Y10685300D03*
X2509900Y10209900D03*
X2744200Y10585300D03*
X2944200D03*
Y10485300D03*
X2444200Y10435300D03*
X2744200Y10685300D03*
X2414600Y10635300D03*
X2944200Y10885300D03*
X2421000Y11060800D03*
X2844200Y11085300D03*
X2744200Y10785300D03*
X2944200D03*
X2744200Y11185300D03*
X2644200Y11085300D03*
X2744200Y10985300D03*
Y10885300D03*
X2944200Y11185300D03*
Y10985300D03*
X2421000Y10819500D03*
X2843400Y11487700D03*
X2506100Y12187300D03*
X2382900Y12388100D03*
X2699600Y12213960D03*
X2548400Y12457800D03*
X2870580Y12094580D03*
X2548400Y12711400D03*
X2388400Y12757100D03*
X2814700Y14553300D03*
X2564880Y15207430D03*
X2532850Y15057990D03*
X2539750Y15578930D03*
X2585300Y15356870D03*
X2538300Y15473600D03*
X2539460Y15723600D03*
X2578740Y16023600D03*
X2594830Y16223600D03*
X2546970Y16324190D03*
X2541760Y15923600D03*
X2547500Y16596750D03*
X2549410Y16492620D03*
X2581670Y16973600D03*
X2584040Y17125420D03*
X2580400Y17291130D03*
X2436240Y19679020D03*
X2944240D03*
X2817240D03*
X2690240D03*
X2563240D03*
X2433700Y19460580D03*
X2687700D03*
X2814700D03*
X2941700D03*
X2560700D03*
X2441320Y20052400D03*
X2568320D03*
X2695320D03*
X2822320D03*
X2394200Y20335300D03*
X2894200D03*
X2993000Y2831200D03*
X2953000Y3353300D03*
X2954400Y4220700D03*
X3005200Y4990200D03*
X3094100Y5142600D03*
X3475100Y5777600D03*
X3386200Y5930000D03*
X3437000Y6006200D03*
X3257450D03*
X3030600Y6222100D03*
X3487800Y6387200D03*
X3322700Y6463400D03*
X3310700Y6717400D03*
X3183700D03*
X3056700D03*
X3437000Y6260200D03*
X3141300D03*
X3494200Y7714400D03*
X3310700Y7758100D03*
X3183700D03*
X3056700Y7758800D03*
X2970200Y8187500D03*
X3050200Y8184800D03*
X3130200Y8188600D03*
X3210200Y8188800D03*
X3081400Y8901800D03*
X3398900Y8990700D03*
X3444200Y9585300D03*
X3244200Y9285300D03*
X3344200Y9485300D03*
X3044200Y9285300D03*
X3444200D03*
X3244200Y9385300D03*
Y9085300D03*
X3144200Y9285300D03*
X3244200Y9485300D03*
X3444200D03*
Y9385300D03*
Y9085300D03*
X3344200Y9385300D03*
Y9285300D03*
Y9085300D03*
Y9585300D03*
X3244200D03*
X3144200D03*
X3044200D03*
Y9485300D03*
X3244200Y10185300D03*
Y9785300D03*
X3144200Y10085300D03*
X3044200Y9685300D03*
X3344200D03*
X3444200Y10085300D03*
X3344200Y10185300D03*
X3044200Y9985300D03*
X3144200D03*
X3044200Y9785300D03*
X3144200D03*
Y10185300D03*
X3044200D03*
X3444200Y9685300D03*
X3244200D03*
X3144200D03*
X3344200Y9985300D03*
Y9885300D03*
X3444200D03*
X3344200Y9785300D03*
X3244200Y10085300D03*
X3044200D03*
X3244200Y9885300D03*
Y9985300D03*
Y10585300D03*
X3044200D03*
Y10385300D03*
X3444200D03*
Y10585300D03*
X3044200Y10485300D03*
X3144200D03*
X3044200Y10685300D03*
X3144200D03*
X3344200Y10385300D03*
X3244200D03*
X3344200Y10685300D03*
Y10585300D03*
X3144200D03*
Y10385300D03*
X3444200Y10985300D03*
X3244200Y11285300D03*
X3044200Y10785300D03*
X3444200Y11085300D03*
Y11185300D03*
X3344200Y10985300D03*
Y11185300D03*
X3244200D03*
X3044200D03*
X3244200Y10885300D03*
Y11085300D03*
X3444200Y11285300D03*
X3044200D03*
X3244200Y10985300D03*
X3444200Y10885300D03*
X3144200Y11185300D03*
Y11085300D03*
X3044200Y10985300D03*
X3344200Y10885300D03*
Y10785300D03*
X3044200Y11085300D03*
X3144200Y10985300D03*
X3044200Y10885300D03*
X3144200D03*
X3444200Y10785300D03*
X3144200D03*
X3344200Y11085300D03*
X3284600Y11594200D03*
X3386200D03*
X3348100Y11454500D03*
X3081400Y11581500D03*
X3386200Y11683100D03*
X3284600D03*
X3475100Y11429100D03*
X3194200Y11423000D03*
X3284600Y12229200D03*
X3386200D03*
X3133950Y12355490D03*
X3144200Y12877600D03*
X3500500Y12673700D03*
X3348100Y12699100D03*
X3233800Y12495900D03*
X3475100Y13550000D03*
X3348100Y13372200D03*
X3271900Y13458930D03*
Y13550000D03*
X3144200Y13308000D03*
X3297300Y14680300D03*
X3290360Y15201090D03*
X3295130Y14872280D03*
X3355120Y14771910D03*
X3005200Y14769200D03*
X2951850Y14973600D03*
X3014500Y15075950D03*
X3015930Y14873600D03*
X3011320Y15265700D03*
X3394500Y15675300D03*
X3287510Y15669950D03*
X3285500Y15527590D03*
X3328500Y15425950D03*
X3003470Y15559040D03*
X3015930Y15673600D03*
X3017090Y15873600D03*
X3011320Y15373600D03*
X2981050Y15773600D03*
X3488650Y16390550D03*
X3285760Y16069950D03*
X2981270Y16173600D03*
X2994010Y16353630D03*
X3015930Y16073600D03*
X3404720Y16166730D03*
X2983170Y15973600D03*
X3022190Y16619330D03*
X3477020Y16604490D03*
X3476050Y16723180D03*
X2991950Y16954600D03*
X3128700Y16831150D03*
X2995420Y16463760D03*
X3209210Y16717240D03*
X3282920Y17369950D03*
X3056000Y17487000D03*
X3004910Y17073360D03*
X3282670Y17224470D03*
X3337330Y17122020D03*
X3398900Y17017100D03*
X3282920Y17019950D03*
X3005960Y17280860D03*
X2962900Y17180020D03*
X3144900Y17487000D03*
X2954220Y17374670D03*
X3043300Y17652100D03*
X3369200Y17660300D03*
X3444200Y18835300D03*
X3344200Y19285300D03*
Y19035300D03*
X3071240Y19679020D03*
X3068700Y19460580D03*
X3195700D03*
X3344200Y19785300D03*
X3076320Y20052400D03*
X3394200Y20335300D03*
X3344200Y20085300D03*
X2949320Y20052400D03*
X3686000Y625000D03*
X4035000Y579000D03*
X3627500Y1650100D03*
X3767200Y1604500D03*
X4022820Y2577200D03*
X3923760D03*
X3652900Y6069700D03*
X3602100Y5866500D03*
X3884700Y5701400D03*
X3538610Y6107800D03*
X3589400Y6184000D03*
X3538600Y6006200D03*
X3884700Y5984000D03*
X4033900Y6615800D03*
X3957700Y6692000D03*
X3881500Y6615800D03*
X3792600Y6692000D03*
X3678300Y6311000D03*
X3919200Y6460300D03*
X3643200Y6831700D03*
X3881700Y7204380D03*
X3643200Y7174600D03*
X3780700Y7263500D03*
X3995800D03*
X4046600Y7200000D03*
X3941600Y7603000D03*
X3805000Y7644800D03*
X3856100Y8317600D03*
X3652900Y8152500D03*
X3678300Y8647800D03*
X3983100Y8749400D03*
X3678300Y8800200D03*
X3868800Y8876400D03*
X3983100Y9003400D03*
X3844200Y9585300D03*
X3644200Y9285300D03*
X3983100Y9092300D03*
X3744200Y9485300D03*
Y9585300D03*
Y9385300D03*
Y9285300D03*
X3644200Y9585300D03*
X4044200D03*
X3844200Y9285300D03*
Y9485300D03*
X4044200Y9385300D03*
Y9285300D03*
X3644200Y9485300D03*
Y9385300D03*
X3544200Y9485300D03*
Y9385300D03*
Y9585300D03*
X3844200Y9385300D03*
X3644200Y9985300D03*
X3844200D03*
Y10185300D03*
X4044200Y10085300D03*
X3544200Y9785300D03*
X4044200Y9685300D03*
X3844200Y10085300D03*
X4044200Y10185300D03*
X3644200D03*
X3744200D03*
X3644200Y9885300D03*
X3844200D03*
X3544200Y9985300D03*
X3744200Y9685300D03*
X3844200D03*
Y9785300D03*
X3644200Y9685300D03*
X3544200D03*
X4044200Y9885300D03*
X3744200D03*
X4044200Y10585300D03*
Y10385300D03*
X3844200Y10485300D03*
X3744200Y10585300D03*
Y10385300D03*
X3644200Y10485300D03*
Y10285300D03*
Y10685300D03*
X3844200Y10585300D03*
Y10385300D03*
X4044200Y10485300D03*
X3644200Y10585300D03*
X3744200Y10485300D03*
X3644200Y10385300D03*
X3744200Y10685300D03*
X3544200D03*
X3944200D03*
X3844200Y10985300D03*
X3644200Y11285300D03*
X3944200Y10885300D03*
Y10985300D03*
X4044200Y11085300D03*
Y11185300D03*
X3844200Y10885300D03*
Y11085300D03*
X3744200Y10885300D03*
Y10985300D03*
Y11085300D03*
Y11185300D03*
X3644200Y10885300D03*
Y11085300D03*
Y11185300D03*
X3544200Y10885300D03*
Y10985300D03*
Y11085300D03*
X3538600Y11187800D03*
X3543400Y11287700D03*
X3644200Y10985300D03*
X3844200Y10785300D03*
Y11285300D03*
X3640200Y11568800D03*
X3694200Y12305400D03*
X3892900Y12624200D03*
X3671770Y12762600D03*
X3577920D03*
X3607200Y13075000D03*
X4046600Y13486500D03*
X3995800Y13384900D03*
X3970400Y13296000D03*
X3899500Y13588100D03*
X3830700Y13372200D03*
X3805300Y13461100D03*
X3741800Y13537300D03*
X3602100Y13372200D03*
X3551300Y13435700D03*
X3702500Y13256700D03*
X3892900Y13256600D03*
X3868800Y13677000D03*
X3676550Y13740500D03*
X3602100Y13626200D03*
X3576700Y14680300D03*
X3779900D03*
X3578920Y15138950D03*
X3580920Y15263950D03*
X3869200Y14860300D03*
X3576700Y15442300D03*
X3687480Y15769950D03*
X3844200Y15485300D03*
X3596250Y16064400D03*
X3690330Y15969950D03*
X3679250Y16269950D03*
X3894200Y16410300D03*
X3691000Y16521800D03*
X3869200Y16685300D03*
X3589120Y16449660D03*
X3729100Y17550500D03*
X3944200Y17560300D03*
X3894200Y17185300D03*
X3617340Y19681560D03*
X3871340D03*
X3998340D03*
X3995800Y19463120D03*
X3744340Y19681560D03*
X3868800Y19463120D03*
X3741800D03*
X3617340Y20072720D03*
X3744340D03*
X3998340D03*
X3871340D03*
X3894200Y20335300D03*
X4135500Y354700D03*
X4134700Y252300D03*
X4427600Y530500D03*
X4278960Y2484540D03*
X4582540Y2994300D03*
X4440300Y2945500D03*
X4351400Y4896220D03*
X4304880Y4791280D03*
X4597780Y5072020D03*
X4284700Y5701400D03*
X4440300Y6724700D03*
Y6978700D03*
X4414900Y7230600D03*
X4326000Y7434800D03*
X4503800Y7415900D03*
X4351400Y7644800D03*
X4194200Y8441000D03*
X4554600Y8292200D03*
X4614800Y7946000D03*
X4338730Y8273640D03*
X4338700Y8358350D03*
X4351400Y8470000D03*
X4193930Y8961000D03*
X4444200Y8622400D03*
X4594200D03*
X4444200Y8952600D03*
X4594200D03*
X4644200Y9085300D03*
Y9285300D03*
Y9385300D03*
Y9585300D03*
X4344200D03*
X4144200Y9285300D03*
X4644200Y9485300D03*
X4544200Y9285300D03*
Y9085300D03*
Y9385300D03*
Y9485300D03*
X4444200Y9085300D03*
Y9585300D03*
X4244200Y9385300D03*
X4144200Y9585300D03*
Y9485300D03*
X4244200D03*
X4344200Y9285300D03*
X4544200Y9585300D03*
X4344200Y9085300D03*
Y9385300D03*
Y9485300D03*
X4244200Y9085300D03*
Y9285300D03*
X4444200Y9385300D03*
Y9485300D03*
X4144200Y9385300D03*
Y10185300D03*
X4644200Y10085300D03*
X4544200Y9785300D03*
X4144200Y9685300D03*
X4244200Y9985300D03*
X4144200Y10085300D03*
X4644200Y9885300D03*
Y9685300D03*
X4344200Y10085300D03*
X4444200Y9985300D03*
X4144200Y9885300D03*
X4344200Y9685300D03*
X4644200Y9785300D03*
X4244200Y9885300D03*
Y10385300D03*
X4144200Y10485300D03*
X4644200Y10585300D03*
X4144200Y10285300D03*
Y10385300D03*
X4244200Y10485300D03*
X4144200Y10585300D03*
X4644200Y10385300D03*
X4544200Y10285300D03*
X4444200Y10485300D03*
X4344200Y10385300D03*
X4644200Y10485300D03*
Y10285300D03*
X4344200Y10985300D03*
X4144200Y11285300D03*
Y10885300D03*
X4544200Y11285300D03*
X4444200Y10985300D03*
Y11085300D03*
Y11185300D03*
X4344200D03*
X4244200Y10885300D03*
Y10985300D03*
Y11085300D03*
Y11185300D03*
X4144200Y11085300D03*
Y11185300D03*
X4544200Y11085300D03*
Y11185300D03*
X4444200Y10885300D03*
X4544200Y10985300D03*
X4646600Y10786100D03*
X4344200Y11285300D03*
X4144200Y10985300D03*
X4446600Y10786100D03*
X4544200Y10885300D03*
X4344200Y11085300D03*
X4287970Y11834700D03*
X4287900Y11479900D03*
X4444510Y11837000D03*
X4544060Y11838870D03*
X4444310Y11597010D03*
X4544390Y11594050D03*
X4290590Y11599300D03*
X4637150Y12997550D03*
X4592700Y13473800D03*
X4414900Y13270600D03*
X4351400Y13181700D03*
X4199000Y13397600D03*
X4135500Y13245200D03*
X4099500Y13359500D03*
X4448450Y14062550D03*
X4449500Y14678320D03*
X4544200Y15210300D03*
X4224400Y14743800D03*
X4419200Y16410300D03*
X4097400Y16902800D03*
X4419200Y17010300D03*
Y17560300D03*
X4499500Y17713900D03*
X4125340Y19681560D03*
X4249800Y19463120D03*
X4122800D03*
X4506340Y19681560D03*
X4633340D03*
X4503800Y19463120D03*
X4630800D03*
X4252340Y19681560D03*
X4379340D03*
X4376800Y19463120D03*
X4125340Y20072720D03*
X4379340D03*
X4252340D03*
X4633340D03*
X4506340D03*
X4344200Y20335300D03*
X4658060Y-115200D03*
X5039740Y2094300D03*
X5054980Y4172020D03*
X4814620Y4412020D03*
X4748300Y5701400D03*
X5148300D03*
X4748300Y5984000D03*
X4969200Y6460300D03*
X4808600Y6724700D03*
X5164200Y6722600D03*
Y7232700D03*
X4841500Y7598900D03*
X5108200D03*
X4882100Y7829400D03*
X4994200Y8355700D03*
X4844200Y8398000D03*
X4745100Y8660500D03*
Y8914500D03*
X4744200Y9085300D03*
X5144200Y9485300D03*
X4944200D03*
X4744200D03*
X5049900Y9179600D03*
X4944200Y9585300D03*
X4844200Y9285300D03*
X4944200D03*
X4744200Y9385300D03*
X4845000Y9082900D03*
X4945000D03*
X4844200Y9385300D03*
X4744200Y9585300D03*
X5144200Y9385300D03*
X4744200Y9285300D03*
X5144200Y9585300D03*
X4844200D03*
Y9485300D03*
X4744200Y9785300D03*
X4944200Y9985300D03*
Y10185300D03*
Y9785300D03*
X5144200Y10185300D03*
X4844200D03*
X5144200Y9885300D03*
Y9785300D03*
X4744200Y9885300D03*
X4844200Y9685300D03*
X5144200D03*
X4744200Y10185300D03*
X4844200Y10085300D03*
X5144200D03*
Y9985300D03*
X4844200Y9885300D03*
X4944200D03*
X4844200Y9785300D03*
X4744200Y9685300D03*
X4944200D03*
X4744200Y10085300D03*
X4944200D03*
X4844200Y9985300D03*
X4744200D03*
X4944200Y10485300D03*
X5144200Y10385300D03*
X4944200D03*
X5144200Y10485300D03*
X4844200D03*
X4944200Y10685300D03*
X5144200D03*
X4844200Y10585300D03*
X4744200Y10485300D03*
X4844200Y10385300D03*
Y10685300D03*
X4744200Y10585300D03*
Y10385300D03*
Y11085300D03*
X4746600Y10786100D03*
X4944200Y10885300D03*
X4744200Y11185300D03*
X5192650Y10895700D03*
X4844200Y10885300D03*
Y10985300D03*
X4744200Y10885300D03*
X5144200Y10985300D03*
X4944200D03*
X4744200Y11285300D03*
X4944200Y11085300D03*
X4844200D03*
X4840550Y11180850D03*
X4944200Y11485300D03*
X5044200D03*
X4836000Y11605300D03*
Y11930700D03*
X4994200Y11937100D03*
X5176870Y11933980D03*
X5100700Y12978500D03*
X4891150Y12972150D03*
X5202300Y13397600D03*
X5099500Y13462300D03*
X5056250Y13588100D03*
X4846700Y13575400D03*
X4745100Y13410300D03*
X4694300Y13283300D03*
X4795900Y14083400D03*
X5172330Y14875920D03*
X4913570Y15123920D03*
X5136990Y14995480D03*
X4969200Y14785300D03*
X4869200Y16060300D03*
Y16410300D03*
Y17010300D03*
Y17560300D03*
X5144200Y18835300D03*
X4760340Y19681560D03*
X4757800Y19463120D03*
X5014340Y19681560D03*
X5138800Y19463120D03*
X4887340Y19681560D03*
X5011800Y19463120D03*
X4884800D03*
X4760340Y20072720D03*
X4887340D03*
X5014340D03*
X4794200Y20335300D03*
X5789340Y376140D03*
Y223740D03*
Y300500D03*
X5416780D03*
Y377260D03*
Y224860D03*
X5603060Y114220D03*
X5526300D03*
X5678700D03*
X5527420Y486780D03*
X5679820D03*
X5603060D03*
X5342000Y530500D03*
X5532500Y1424040D03*
Y1523100D03*
X5571720Y2764300D03*
Y2688660D03*
X5758000Y2578020D03*
X5681240D03*
X5571720Y2841060D03*
X5682360Y2950580D03*
X5758000D03*
X5496940Y2994300D03*
X5555360Y3697340D03*
Y3796400D03*
X5773240Y5028300D03*
X5697600D03*
X5773240Y4655740D03*
X5696480D03*
X5586960Y4842020D03*
Y4918780D03*
Y4766380D03*
X5512180Y5072020D03*
X5559640Y5991080D03*
Y6090140D03*
X5383300Y6768200D03*
X5544600Y6793600D03*
X5278500Y7230600D03*
X5253100Y7066300D03*
X5631500Y7555600D03*
X5541500D03*
X5764300Y7596900D03*
X5294200Y8238400D03*
X5669200Y8241400D03*
X5494200Y8241200D03*
X5392800Y8838300D03*
Y8939900D03*
X5659500Y9117700D03*
X5583300Y9168500D03*
X5772100Y9335300D03*
X5773100Y9485300D03*
X5418900D03*
X5684900Y9757400D03*
X5768600Y9630900D03*
X5410200Y9757400D03*
X5425700Y9630900D03*
X5773800Y10679800D03*
X5678590Y10693720D03*
X5634100Y11085300D03*
X5586300Y10936800D03*
X5319600D03*
X5659500Y11314800D03*
X5278500Y11086200D03*
X5352500Y11659900D03*
X5748400Y11530700D03*
X5612500Y11852020D03*
X5596000Y11378300D03*
X5507100Y13270600D03*
X5443600Y13359500D03*
X5761100Y13283300D03*
X5596000Y13423000D03*
X5494400Y13867500D03*
X5299500Y13626200D03*
X5249500Y13702400D03*
X5697600D03*
X5696650Y14920610D03*
X5734570Y15219360D03*
X5288900Y15131220D03*
X5704250Y15472290D03*
X5390060Y16169950D03*
X5596540Y16036710D03*
X5704500Y16357510D03*
X5405500Y15953950D03*
X5369200Y16410300D03*
X5709680Y16514290D03*
X5508640Y16688150D03*
X5409440Y16919950D03*
X5240680Y17069950D03*
X5601400Y17119950D03*
X5756710Y17255380D03*
X5498390Y17475640D03*
X5354500Y17258370D03*
X5294200Y19285300D03*
X5244200Y19035300D03*
X5674740Y19679020D03*
X5294200Y19785300D03*
X5672200Y20075260D03*
X5545200D03*
X5294200Y20335300D03*
Y20085300D03*
X6131140Y-399560D03*
X6171780Y1873740D03*
X5944280Y2687540D03*
Y2764300D03*
X5833640Y2578020D03*
X5944280Y2839940D03*
X5834760Y2950580D03*
X6187020Y4167360D03*
X5850000Y5028300D03*
X5848880Y4655740D03*
X5959520Y4917660D03*
Y4765260D03*
Y4842020D03*
X6344200Y6735300D03*
X5844200D03*
X6192900Y7161900D03*
X6015100D03*
X6192900Y6966900D03*
X6197600Y7661900D03*
X5994200Y7839500D03*
X6194200Y7836300D03*
X6010400Y7661900D03*
X6345300Y8444600D03*
X5926200Y8939900D03*
Y8851000D03*
X6244200Y8835300D03*
X6194200Y8583000D03*
X6345300Y8533500D03*
X6319900Y8622400D03*
X6056700Y10095600D03*
X6218300Y10502000D03*
X6034330Y10438500D03*
X6128180D03*
X5950380Y10489300D03*
X5856530D03*
X6034330Y10692500D03*
X6128180D03*
X5799200Y11264000D03*
X6218300Y11022700D03*
X6090200Y11860900D03*
X6234400Y11755900D03*
X6180200Y11327500D03*
X6319200Y12110300D03*
X6243700Y12755100D03*
X5913500Y12838800D03*
X6243700Y12628100D03*
Y13263100D03*
X6096380Y13097880D03*
X6243700Y13390100D03*
X6167490Y14045290D03*
X5989700Y13664300D03*
X6152560Y14536850D03*
X6194200Y14260300D03*
X6297430Y14585630D03*
X5968320Y15122750D03*
X5967860Y14923600D03*
X5869690Y15244170D03*
X5860470Y15023700D03*
X5932840Y15573600D03*
X5932380Y15467020D03*
X5951370Y15754000D03*
X5842500Y15665580D03*
X5930500Y15362890D03*
X5949500Y15869950D03*
X5899950Y15973600D03*
X5953070Y16223600D03*
X5868800Y16354310D03*
X5945500Y16424770D03*
X6355070Y16023600D03*
X5950900Y16073600D03*
X5952320Y16874560D03*
X6355500Y16623320D03*
X5944100Y16532580D03*
X5950610Y17002340D03*
X5949500Y16719950D03*
X5839640Y17375030D03*
X6356500Y17023600D03*
X5949500Y17119950D03*
X5944500Y17474950D03*
X5943440Y17323110D03*
X5944330Y17602080D03*
X6319200Y17885300D03*
X5799500Y17673500D03*
X5926200Y19460580D03*
X5928740Y19679020D03*
X6055740D03*
X6182740D03*
X6309740D03*
X6307200Y19460580D03*
X6180200D03*
X6053200D03*
X5801740Y19679020D03*
X5799200Y19460580D03*
X6307200Y20075260D03*
X6180200D03*
X6053200D03*
X5926200D03*
X6294200Y20335300D03*
X5799200Y20075260D03*
X5794200Y20335300D03*
X6766140Y-145560D03*
X6639140D03*
X6512140D03*
X6893140Y-272560D03*
X6766140Y-18560D03*
X6639140D03*
X6766140Y108440D03*
X6639140D03*
X6766140Y235440D03*
X6639140D03*
X6766140Y362440D03*
X6639140D03*
X6893140Y108440D03*
Y235440D03*
Y362440D03*
X6766140Y489440D03*
X6639140D03*
X6893140D03*
X6766140Y616440D03*
X6639140D03*
X6766140Y743440D03*
X6639140D03*
X6766140Y870440D03*
X6639140D03*
Y997440D03*
X6766140D03*
X6893140Y616440D03*
Y743440D03*
Y870440D03*
Y997440D03*
X6766140Y1124440D03*
X6639140D03*
X6893140D03*
X6806780Y2127740D03*
X6679780D03*
X6621480Y1745440D03*
X6720540D03*
X6552780Y2127740D03*
X6806780Y2254740D03*
X6679780D03*
X6806780Y2381740D03*
X6679780D03*
X6806780Y2508740D03*
X6679780D03*
X6806780Y2635740D03*
X6679780D03*
X6806780Y2762740D03*
X6679780D03*
X6806780Y2889740D03*
X6679780D03*
X6806780Y3016740D03*
X6679780D03*
X6806780Y3143740D03*
X6679780D03*
Y3270740D03*
X6806780D03*
Y3397740D03*
X6679780D03*
X6695020Y4421360D03*
X6822020D03*
X6659580Y4021280D03*
X6758640D03*
X6568020Y4421360D03*
X6822020Y4548360D03*
X6695020D03*
X6822020Y4675360D03*
X6695020D03*
X6822020Y4802360D03*
X6695020D03*
X6822020Y4929360D03*
X6695020D03*
X6822020Y5056360D03*
X6695020D03*
X6822020Y5183360D03*
X6695020D03*
X6822020Y5310360D03*
X6695020D03*
X6822020Y5437360D03*
X6695020D03*
Y5564360D03*
X6822020D03*
X6695020Y5691360D03*
X6822020D03*
X6772140Y6319420D03*
X6673080D03*
X6840600Y6730220D03*
X6824300Y7285300D03*
X6510970Y6780900D03*
X6510400Y6882500D03*
X6815200Y7025800D03*
X6535800Y7294800D03*
X6827900Y7441300D03*
Y7530200D03*
X6815200Y7675800D03*
X6777100Y7885300D03*
X6497700D03*
X6459400Y7466900D03*
X6461030Y7643070D03*
X6485000Y7570050D03*
X6418000Y8444600D03*
X6485000Y8025500D03*
X6480470Y8114930D03*
X6456700Y10095600D03*
X6627100Y10110700D03*
X6916800Y10095600D03*
X6757500Y11258200D03*
X6612000Y11276700D03*
X6502900Y11754100D03*
X6676600Y11950900D03*
X6744200Y12460300D03*
Y12885300D03*
X6769200Y13185300D03*
X6535790Y13930980D03*
X6364350Y13924650D03*
X6894200Y13935300D03*
X6544200Y13610300D03*
X6707260Y13988160D03*
X6419620Y14778250D03*
X6736170Y15669950D03*
X6731520Y15819950D03*
X6429660Y15745060D03*
X6373910Y15650770D03*
X6735500Y15940630D03*
Y16094550D03*
X6643830Y16348550D03*
X6430760Y16158180D03*
X6430780Y15923600D03*
Y16275890D03*
X6472300Y16483700D03*
X6396970Y16824270D03*
X6725560Y17172460D03*
X6396970Y17173600D03*
X6794200Y18835300D03*
X6436740Y19679020D03*
X6434200Y19460580D03*
X6563740Y19679020D03*
X6690740D03*
X6817740D03*
X6561200Y19460580D03*
X6815200D03*
X6688200D03*
X6434200Y20075260D03*
X6815200D03*
X6688200D03*
X6561200D03*
X6794200Y20335300D03*
X7401140Y-272560D03*
X6966160Y-155720D03*
X7020140Y235440D03*
Y362440D03*
X7147140Y108440D03*
X7020140Y489440D03*
X7147140D03*
X7401140D03*
Y362440D03*
X7274140D03*
X7020140Y616440D03*
Y743440D03*
Y870440D03*
Y997440D03*
X7147140Y616440D03*
Y743440D03*
Y870440D03*
Y997440D03*
X7401140Y616440D03*
Y743440D03*
Y870440D03*
Y997440D03*
X7020140Y1124440D03*
X7147140D03*
X7360100Y1442060D03*
Y1541120D03*
X7401140Y1124440D03*
X7020260Y1745440D03*
X7119320D03*
X7441780Y2000740D03*
X7006800Y2117580D03*
X6933780Y2000740D03*
X7060780Y2508740D03*
Y2635740D03*
Y2762740D03*
X7187780Y2381740D03*
Y2762740D03*
X6933780Y2381740D03*
Y2508740D03*
Y2635740D03*
Y2762740D03*
X7441780D03*
X7314780Y2635740D03*
X7441780D03*
X7060780Y2889740D03*
X7187780D03*
X7060780Y3016740D03*
Y3143740D03*
Y3270740D03*
X7187780Y3016740D03*
Y3143740D03*
Y3270740D03*
X6933780Y2889740D03*
Y3016740D03*
Y3143740D03*
Y3270740D03*
X7441780Y2889740D03*
Y3016740D03*
Y3143740D03*
Y3270740D03*
X7060780Y3397740D03*
X7187780D03*
X6933780D03*
X7441780D03*
X7398200Y3715360D03*
Y3814420D03*
X7060900Y4021280D03*
X7159960D03*
X7457020Y4294360D03*
X7022040Y4411200D03*
X6946390Y4293440D03*
X6949020Y4675360D03*
Y4802360D03*
Y4929360D03*
Y5056360D03*
X7076020Y4802360D03*
Y4929360D03*
Y5056360D03*
X7203020Y4675360D03*
Y5056360D03*
X7457020D03*
X7330020Y4929360D03*
X7457020D03*
X6949020Y5183360D03*
Y5310360D03*
Y5437360D03*
X7076020Y5183360D03*
Y5310360D03*
Y5437360D03*
X7203020Y5183360D03*
Y5310360D03*
Y5437360D03*
X6949020Y5564360D03*
X7076020D03*
X7203020D03*
X7457020Y5183360D03*
Y5310360D03*
Y5437360D03*
Y5564360D03*
X6949020Y5691360D03*
X7076020D03*
X7203020D03*
X7457020D03*
X7414900Y6008320D03*
Y6107380D03*
X7178540Y6319420D03*
X7079480D03*
X6967600Y6730100D03*
X7479200Y6644800D03*
X7069200Y7294800D03*
X7494200Y7160300D03*
X6944200D03*
X7056500Y6793600D03*
Y6882500D03*
X7488300Y7301600D03*
X7491900Y7025800D03*
X7394200Y7710300D03*
X7069200Y7441300D03*
Y7530200D03*
X7361300Y7898500D03*
X7138500Y8476900D03*
X7361300Y8000100D03*
X7228500Y8476900D03*
X7043800Y8152500D03*
Y8254100D03*
X7374000Y8609700D03*
X7269200Y9735300D03*
Y11010300D03*
X7365090Y11721200D03*
X7412100Y11657700D03*
X7145680Y11657980D03*
X7081900Y11733900D03*
X7132700Y12295600D03*
X7494200Y11960300D03*
X7119200D03*
X7178300Y12755100D03*
X7165600Y12628100D03*
X7170800Y13257900D03*
X7494200Y13860300D03*
X7183500Y13854800D03*
X7202550Y14051650D03*
X7194200Y14260300D03*
X7319200Y17685300D03*
Y18285300D03*
X7294200Y18835300D03*
X7494200Y19085300D03*
X7069200Y19460580D03*
X7071740Y19679020D03*
X7196200Y19460580D03*
X7294200Y19335300D03*
X7494200Y19585300D03*
X6944740Y19679020D03*
X6942200Y19460580D03*
X7294200Y20335300D03*
Y20035300D03*
X6942200Y20075260D03*
X7763700Y-128000D03*
X7528140Y489440D03*
X7655140D03*
X7763680Y391840D03*
Y264840D03*
X7718640Y44940D03*
X7528140Y-18560D03*
X7763120Y745420D03*
Y618420D03*
X7761540Y964980D03*
X7528140Y616440D03*
Y743440D03*
Y870440D03*
Y997440D03*
X7655140Y616440D03*
Y743440D03*
Y870440D03*
Y997440D03*
X7528140Y1124440D03*
X7655140D03*
X7761540Y1091980D03*
X7815160Y2150600D03*
X7568780Y2762740D03*
X7695780D03*
X7804720Y2666780D03*
Y2539780D03*
X7759280Y2318240D03*
X7568780Y2254740D03*
X7804720Y3017300D03*
Y2890300D03*
X7568780Y2889740D03*
X7695780D03*
X7802180Y3240820D03*
X7568780Y3016740D03*
Y3143740D03*
Y3270740D03*
X7695780Y3016740D03*
Y3143740D03*
Y3270740D03*
X7568780Y3397740D03*
X7695780D03*
X7802180Y3367820D03*
X7830400Y4444220D03*
X7584020Y5056360D03*
X7711020D03*
X7774520Y4611860D03*
X7818500Y4960360D03*
Y4833360D03*
X7584020Y4548360D03*
X7818500Y5183360D03*
Y5310360D03*
X7584020Y5183360D03*
Y5310360D03*
Y5437360D03*
X7711020Y5183360D03*
Y5310360D03*
Y5437360D03*
X7818500Y5564360D03*
X7584020D03*
X7711020D03*
X7584020Y5691360D03*
X7711020D03*
X7818500D03*
X8034400Y6644800D03*
X7767300Y7035300D03*
X7755000Y7675800D03*
X8034400Y7894800D03*
X7755000Y8275800D03*
X8015900Y8285300D03*
X7988550Y8444600D03*
X7894700D03*
X7780400Y8038200D03*
Y8139800D03*
X7767700Y8597000D03*
X7744200Y9735300D03*
X7894200Y11610300D03*
X7819200Y12260300D03*
X7536200Y12295600D03*
X7819200Y12960300D03*
X7501000Y12628100D03*
X7819200Y13485300D03*
Y14235300D03*
X7694200Y18835300D03*
Y19835300D03*
Y19335300D03*
Y20335300D03*
Y20035300D03*
X8019200Y20285300D03*
X8148700Y-282720D03*
X8288400Y396240D03*
Y297180D03*
Y47360D03*
Y-51700D03*
X8285380Y749820D03*
Y650760D03*
X8283800Y997320D03*
X8288400Y1434200D03*
Y1548500D03*
X8283800Y1096380D03*
X8326980Y2221600D03*
X8199500Y1990580D03*
X8326980Y2671180D03*
Y2572120D03*
Y2320660D03*
Y3021700D03*
Y2922640D03*
X8324440Y3273160D03*
X8329040Y3821800D03*
Y3707500D03*
X8324440Y3372220D03*
X8199500Y4284200D03*
X8340760Y4614760D03*
Y4515700D03*
Y4964760D03*
Y4865700D03*
Y5314760D03*
Y5215700D03*
Y5565700D03*
X8343200Y6114760D03*
Y6000460D03*
X8340760Y5664760D03*
X8534400Y6654800D03*
X8293100Y6793600D03*
Y6896100D03*
X8420100Y6946900D03*
X8288400Y7428600D03*
X8287840Y7549740D03*
X8288400Y8285300D03*
X8094200Y9885300D03*
X8369200Y10460300D03*
X8294200Y11460300D03*
X8194200Y11910300D03*
X8344200Y13485300D03*
X8094200Y13860300D03*
X8344200Y14235300D03*
X8194200Y14685300D03*
Y15285300D03*
Y16285300D03*
Y17285300D03*
Y18285300D03*
Y18985300D03*
X8819200Y15285300D03*
Y16285300D03*
Y17285300D03*
Y18285300D03*
Y19285300D03*
Y20285300D03*
X9478860Y2377340D03*
X9471240Y3286660D03*
X9619200Y14685300D03*
Y15285300D03*
Y16285300D03*
Y17285300D03*
Y18285300D03*
Y20285300D03*
G54D15*
X0Y0D03*
Y1000000D03*
Y2000000D03*
X568000D03*
X858000Y0D03*
X1108000Y2000000D03*
X1425000Y500000D03*
Y1500000D03*
Y2500000D03*
Y3500000D03*
X1900000Y0D03*
Y1000000D03*
Y2000000D03*
X2758000Y0D03*
X2468000Y2000000D03*
X3325000Y500000D03*
Y1500000D03*
X3008000Y2000000D03*
X3325000Y2500000D03*
Y3500000D03*
G54D24*
X7952500Y18157950D03*
X7698500D03*
X7952500Y17903950D03*
X7698500D03*
X7952500Y17649950D03*
X7698500D03*
G54D25*
G01X-990500Y3042840D02*
X-993330Y3025870D01*
X-989560Y3010790D01*
X-980370Y2998770D01*
X-969520Y2990750D01*
X-953030Y2988390D01*
X-938650Y2990990D01*
X-928980Y2998290D01*
X-921440Y3010550D01*
X-922620Y3025870D01*
X-928040Y3036950D01*
X-938650Y3047560D01*
G01X-928040Y3036950D02*
X-916730Y3034120D01*
X-903760Y3035300D01*
X-892920Y3041430D01*
X-886790Y3052270D01*
X-885620Y3065230D01*
X-891980Y3080080D01*
X-904000Y3089280D01*
X-920260Y3094220D01*
G01X2710870Y-1164700D02*
Y-1044700D01*
X2750870D01*
X2764200Y-1050700D01*
X2774200Y-1064700D01*
X2777530Y-1080700D01*
X2774200Y-1096700D01*
X2765870Y-1108700D01*
X2750870Y-1114700D01*
X2710870D01*
G01X2881870Y-1054700D02*
X2871870Y-1048700D01*
X2860200Y-1044700D01*
X2846870D01*
X2831860Y-1050700D01*
X2820200Y-1060700D01*
X2811870Y-1072700D01*
X2805200Y-1092700D01*
X2803530Y-1110700D01*
X2806870Y-1128700D01*
X2811870Y-1140700D01*
X2821870Y-1152700D01*
X2833530Y-1160700D01*
X2845200Y-1164700D01*
X2856870D01*
X2868530Y-1160700D01*
X2878530Y-1154700D01*
X2886870Y-1146700D01*
G01X2946200Y-1044700D02*
X2932860Y-1048700D01*
X2922870Y-1058700D01*
X2916200Y-1070700D01*
X2911200Y-1086700D01*
X2909530Y-1104700D01*
X2911200Y-1122700D01*
X2916200Y-1138700D01*
X2922870Y-1150700D01*
X2932860Y-1160700D01*
X2946200Y-1164700D01*
X2959530Y-1160700D01*
X2969530Y-1150700D01*
X2976200Y-1138700D01*
X2981200Y-1122700D01*
X2982870Y-1104700D01*
X2981200Y-1086700D01*
X2976200Y-1070700D01*
X2969530Y-1058700D01*
X2959530Y-1048700D01*
X2946200Y-1044700D01*
G01X3067200Y-1164700D02*
Y-1044700D01*
X3005530Y-1130700D01*
X3088870D01*
G01X3119870Y-1150700D02*
X3131530Y-1160700D01*
X3144870Y-1164700D01*
X3158200Y-1160700D01*
X3169870Y-1148700D01*
X3178200Y-1130700D01*
X3181530Y-1112700D01*
Y-1090700D01*
X3178200Y-1072700D01*
X3169870Y-1056700D01*
X3159870Y-1048700D01*
X3148200Y-1044700D01*
X3134860Y-1048700D01*
X3124870Y-1056700D01*
X3118200Y-1068700D01*
X3114870Y-1084700D01*
X3118200Y-1098700D01*
X3126530Y-1112700D01*
X3136530Y-1120700D01*
X3148200Y-1122700D01*
X3161530Y-1118700D01*
X3171530Y-1108700D01*
X3181530Y-1090700D01*
G01X3207530Y-1164700D02*
X3249200Y-1044700D01*
X3290870Y-1164700D01*
G01X3275870Y-1122700D02*
X3222530D01*
G01X3431200Y-1044700D02*
X3471200D01*
G01X3451200D02*
Y-1164700D01*
G01X3431200D02*
X3471200D01*
G01X3517200Y-1148700D02*
X3530530Y-1158700D01*
X3545530Y-1164700D01*
X3558870D01*
X3572200Y-1158700D01*
X3582200Y-1148700D01*
X3587200Y-1134700D01*
X3583870Y-1120700D01*
X3575530Y-1108700D01*
X3560530Y-1100700D01*
X3540530Y-1096700D01*
X3528870Y-1088700D01*
X3523870Y-1074700D01*
X3527200Y-1060700D01*
X3535530Y-1050700D01*
X3547200Y-1044700D01*
X3558870D01*
X3570530Y-1048700D01*
X3580530Y-1058700D01*
G01X3618200Y-1148700D02*
X3631530Y-1158700D01*
X3646530Y-1164700D01*
X3659870D01*
X3673200Y-1158700D01*
X3683200Y-1148700D01*
X3688200Y-1134700D01*
X3684870Y-1120700D01*
X3676530Y-1108700D01*
X3661530Y-1100700D01*
X3641530Y-1096700D01*
X3629870Y-1088700D01*
X3624870Y-1074700D01*
X3628200Y-1060700D01*
X3636530Y-1050700D01*
X3648200Y-1044700D01*
X3659870D01*
X3671530Y-1048700D01*
X3681530Y-1058700D01*
G01X3717530Y-1044700D02*
Y-1130700D01*
X3724200Y-1148700D01*
X3737530Y-1160700D01*
X3754200Y-1164700D01*
X3770870Y-1160700D01*
X3784200Y-1148700D01*
X3790870Y-1130700D01*
Y-1044700D01*
G01X3888530Y-1164700D02*
X3821870D01*
Y-1044700D01*
X3888530D01*
G01X3861870Y-1102700D02*
X3821870D01*
G01X4057200Y-1164700D02*
Y-1044700D01*
X4037200Y-1068700D01*
G01Y-1164700D02*
X4077200D01*
G01X4510870Y-1044700D02*
Y-1164700D01*
X4577530D01*
G01X4603530D02*
X4645200Y-1044700D01*
X4686870Y-1164700D01*
G01X4671870Y-1122700D02*
X4618530D01*
G01X4746200Y-1164700D02*
Y-1110700D01*
X4712870Y-1044700D01*
G01X4779530D02*
X4746200Y-1110700D01*
G01X4880530Y-1164700D02*
X4813870D01*
Y-1044700D01*
X4880530D01*
G01X4853870Y-1102700D02*
X4813870D01*
G01X4914870Y-1164700D02*
Y-1044700D01*
X4956530D01*
X4969870Y-1050700D01*
X4978200Y-1058700D01*
X4981530Y-1074700D01*
X4978200Y-1090700D01*
X4968200Y-1100700D01*
X4956530Y-1106700D01*
X4914870D01*
G01X4956530D02*
X4981530Y-1164700D01*
G01X5113530Y-1140700D02*
X5123530Y-1154700D01*
X5136860Y-1162700D01*
X5151870Y-1164700D01*
X5165200Y-1162700D01*
X5178530Y-1152700D01*
X5186870Y-1140700D01*
X5188530Y-1128700D01*
X5185200Y-1114700D01*
X5173530Y-1104700D01*
X5161870Y-1100700D01*
X5146870D01*
G01X5161870D02*
X5171870Y-1094700D01*
X5180200Y-1084700D01*
X5183530Y-1072700D01*
X5180200Y-1060700D01*
X5171870Y-1050700D01*
X5156870Y-1044700D01*
X5141870Y-1046700D01*
X5126870Y-1054700D01*
G01X5343870Y-1204700D02*
X5327200Y-1184700D01*
X5318870Y-1164700D01*
Y-1084700D01*
X5327200Y-1064700D01*
X5343870Y-1044700D01*
G01X5418200Y-1148700D02*
X5431530Y-1158700D01*
X5446530Y-1164700D01*
X5459870D01*
X5473200Y-1158700D01*
X5483200Y-1148700D01*
X5488200Y-1134700D01*
X5484870Y-1120700D01*
X5476530Y-1108700D01*
X5461530Y-1100700D01*
X5441530Y-1096700D01*
X5429870Y-1088700D01*
X5424870Y-1074700D01*
X5428200Y-1060700D01*
X5436530Y-1050700D01*
X5448200Y-1044700D01*
X5459870D01*
X5471530Y-1048700D01*
X5481530Y-1058700D01*
G01X5534200Y-1044700D02*
X5574200D01*
G01X5554200D02*
Y-1164700D01*
G01X5534200D02*
X5574200D01*
G01X5665200Y-1104700D02*
X5698530D01*
Y-1140700D01*
X5688530Y-1152700D01*
X5676870Y-1160700D01*
X5660200Y-1164700D01*
X5643530Y-1160700D01*
X5631870Y-1152700D01*
X5621870Y-1140700D01*
X5615200Y-1126700D01*
X5611870Y-1110700D01*
Y-1096700D01*
X5615200Y-1084700D01*
X5621870Y-1070700D01*
X5631870Y-1058700D01*
X5641860Y-1050700D01*
X5655200Y-1044700D01*
X5666870D01*
X5680200Y-1048700D01*
X5690200Y-1056700D01*
G01X5717870Y-1164700D02*
Y-1044700D01*
X5794530Y-1164700D01*
Y-1044700D01*
G01X5815530Y-1164700D02*
X5857200Y-1044700D01*
X5898870Y-1164700D01*
G01X5883870Y-1122700D02*
X5830530D01*
G01X5924870Y-1044700D02*
Y-1164700D01*
X5991530D01*
G01X6067530Y-1204700D02*
X6084200Y-1184700D01*
X6092530Y-1164700D01*
Y-1084700D01*
X6084200Y-1064700D01*
X6067530Y-1044700D01*
G54D16*
X0Y2750000D03*
Y2280000D03*
Y3250000D03*
X713000Y3710000D03*
X233000D03*
X1193000D03*
X1425000Y2750000D03*
Y2280000D03*
Y3250000D03*
X1900000Y2750000D03*
Y2280000D03*
Y3250000D03*
X2133000Y3710000D03*
X2613000D03*
X3325000Y2750000D03*
Y2280000D03*
Y3250000D03*
X3093000Y3710000D03*
G54D26*
G01X1045900Y14672150D02*
X2417770D01*
X3011320Y15265700D01*
G01X3015930Y15673600D02*
X2971840Y15629510D01*
X2971030D01*
X2621420Y15279900D01*
X2528110D01*
X2454500Y15206290D01*
X2083390D01*
X2009180Y15132080D01*
X1744950D01*
X1691420Y15078550D01*
X1045900D01*
G01Y15688150D02*
X1701650D01*
X1806740Y15793240D01*
X2874390D01*
X2954750Y15873600D01*
X3017090D01*
G01X1045900Y15484950D02*
X1709800D01*
X1786000Y15561150D01*
X2137050D01*
X2197890Y15500310D01*
X2305860D01*
X2459360Y15653810D01*
X2861260D01*
X2981050Y15773600D01*
G01X1045900Y16094550D02*
X2041450D01*
X2151250Y16204350D01*
X2282880D01*
X2389020Y16098210D01*
X2784520D01*
X2809130Y16073600D01*
X3015930D01*
G01X1045900Y15891350D02*
X1684400D01*
X1716650Y15923600D01*
X2541760D01*
G01X1045900Y16704150D02*
X1959250D01*
X2013090Y16650310D01*
X2391720D01*
X2549410Y16492620D01*
G01X1045900Y17948750D02*
X2073550D01*
X2671500Y17350800D01*
Y17275050D01*
X2991950Y16954600D01*
G01X1045900Y17720150D02*
X1900140D01*
X2255740Y17364550D01*
X2344910D01*
X2584040Y17125420D01*
G01X2962900Y17180020D02*
X2956580D01*
X1984650Y18151950D01*
X1045900D01*
G01X1604700Y14570550D02*
X2712880D01*
X3015930Y14873600D01*
G01X1604700Y15180150D02*
X1968350D01*
X2044550Y15256350D01*
X2364730D01*
X2465250Y15356870D01*
X2585300D01*
G01X1604700Y15383350D02*
X1709800D01*
X1822020Y15495570D01*
X2112700D01*
X2152200Y15456070D01*
X2338500D01*
X2461360Y15578930D01*
X2539750D01*
G01X1604700Y15789750D02*
X1701650D01*
X1761900Y15850000D01*
X2858750D01*
X2938260Y15929510D01*
X2939080D01*
X2983170Y15973600D01*
G01X1604700Y16196150D02*
X1964900D01*
X2011100Y16242350D01*
X2320500D01*
X2408890Y16153960D01*
X2798500D01*
X2818140Y16173600D01*
X2981270D01*
G01X1604700Y15992950D02*
X2138100D01*
X2210220Y16065070D01*
X2315900D01*
X2357370Y16023600D01*
X2578740D01*
G01X1604700Y16399350D02*
X2001900D01*
X2027300Y16424750D01*
X2341300D01*
X2441860Y16324190D01*
X2546970D01*
G01X1604700Y16805750D02*
X2338500D01*
X2547500Y16596750D01*
G01X1604700Y16602550D02*
X2311110D01*
X2514310Y16399350D01*
X2622040D01*
X2667760Y16353630D01*
X2994010D01*
G01X2581670Y16973600D02*
X2334970Y17220300D01*
X2086980D01*
X1714130Y17593150D01*
Y17594320D01*
X1689900Y17618550D01*
X1604700D01*
G01Y17821750D02*
X2049780D01*
X2580400Y17291130D01*
G01X1604700Y18253550D02*
X1970930D01*
X2943620Y17280860D01*
X3005960D01*
G54D17*
X0Y3000000D03*
X1900000D03*
G54D27*
G01X6485000Y8025500D02*
X6421500D01*
X6396100Y8050900D01*
X1887600D01*
X1062350Y7225650D01*
X-545850D01*
X-657500Y7114000D01*
G01X6480470Y8114930D02*
X6429430D01*
X6396100Y8081600D01*
X1874880D01*
X1049630Y7256350D01*
X-545850D01*
X-657500Y7368000D01*
G01Y7876000D02*
X-545850Y7987650D01*
X-24530D01*
X350920Y8363100D01*
X770000D01*
X1659000Y9252100D01*
X2387980D01*
X2393280Y9257400D01*
X2424800D01*
X2583050Y9415650D01*
X2713850D01*
X2744200Y9385300D01*
G01X-657500Y8130000D02*
X-545850Y8018350D01*
X-37250D01*
X338200Y8393800D01*
X757280D01*
X1646280Y9282800D01*
X2414270D01*
X2572520Y9441050D01*
X2724380D01*
X2729330Y9436100D01*
X2767990D01*
X2818790Y9385300D01*
X2944200D01*
G01X-657500Y10162000D02*
X-545380Y10049880D01*
X46100D01*
X147700Y10151480D01*
X662270D01*
X693800Y10119950D01*
X1004970D01*
X1036720Y10088200D01*
X1602960D01*
X1662280Y10147520D01*
X1667110D01*
X1670680Y10143950D01*
X1711320D01*
X1714890Y10147520D01*
X2400710D01*
X2406010Y10142220D01*
X2763360D01*
X2865740Y10039840D01*
X2865750D01*
X2872590Y10033000D01*
X3296500D01*
X3344200Y9985300D01*
G01X-657500Y10416000D02*
X-779400Y10294100D01*
Y10108300D01*
X-690280Y10019180D01*
X58820D01*
X160420Y10120780D01*
X649550D01*
X681080Y10089250D01*
X992250D01*
X1006020Y10075480D01*
Y10075470D01*
X1023990Y10057500D01*
X1615680D01*
X1671430Y10113250D01*
X1724040D01*
X1727610Y10116820D01*
X2752830D01*
X2934350Y9935300D01*
X3394200D01*
X3444200Y9885300D01*
G01X3344200Y10885300D02*
X3294800Y10934700D01*
X2524870D01*
X2467470Y10992100D01*
X2394450D01*
X2389250Y10997300D01*
X2185020D01*
X1677020Y11505300D01*
X205880D01*
X20680Y11320100D01*
X-685200D01*
X-779400Y11225900D01*
Y11045900D01*
X-657500Y10924000D01*
G01Y11178000D02*
X-546100Y11289400D01*
X33400D01*
X218600Y11474600D01*
X1664300D01*
X2172300Y10966600D01*
X2387980D01*
X2388080Y10966700D01*
X2456940D01*
X2514340Y10909300D01*
X2648700D01*
X2724950Y10833050D01*
X3396450D01*
X3444200Y10785300D01*
G01X7069200Y7441300D02*
X7011020D01*
X6917720Y7348000D01*
X6008540D01*
X5559490Y6898950D01*
X392520D01*
X211220Y6717650D01*
X-291850D01*
X-403500Y6606000D01*
G01X-149500Y6352000D02*
X-40460Y6461040D01*
Y6461030D01*
X-40230Y6460800D01*
X1952180D01*
X2031880Y6540500D01*
X5130800D01*
X5251150Y6660850D01*
X6613720D01*
X6771870Y6819000D01*
X6967500D01*
X6993000Y6793600D01*
X7056500D01*
G01X-149500Y6606000D02*
X-29700Y6486200D01*
X1941650D01*
X2021350Y6565900D01*
X5112780D01*
X5233130Y6686250D01*
X6595700D01*
X6759150Y6849700D01*
X6972900D01*
X7005700Y6882500D01*
X7056500D01*
G01X-403500Y6860000D02*
X-291850Y6748350D01*
X198500D01*
X379800Y6929650D01*
X5554250D01*
X6003300Y7378700D01*
X6905000D01*
X7056500Y7530200D01*
X7069200D01*
G01X-149500Y8638000D02*
X-255850Y8744350D01*
Y8936060D01*
X-193560Y8998350D01*
X-86570D01*
X480280Y9565200D01*
X2385430D01*
X2390880Y9559750D01*
X2647150D01*
X2721750Y9634350D01*
X3092880D01*
X3144200Y9685300D01*
G01X-149500Y8892000D02*
X498300Y9539800D01*
X2374900D01*
X2380350Y9534350D01*
X3093250D01*
X3144200Y9585300D01*
G01X3344200Y9885300D02*
X3295150Y9836250D01*
X2725780D01*
X2693930Y9804400D01*
X1778000D01*
X1719290Y9745690D01*
X224460D01*
X173100Y9797050D01*
X-180930D01*
X-261150Y9716830D01*
Y9511650D01*
X-149500Y9400000D01*
G01X3344200Y9785300D02*
X3295150Y9736250D01*
X2723880D01*
X2681130Y9779000D01*
X2406010D01*
X2400710Y9773700D01*
X1783230D01*
X1729820Y9720290D01*
X206440D01*
X160380Y9766350D01*
X-37150D01*
X-149500Y9654000D01*
G01Y12448000D02*
X-37200Y12560300D01*
X338090D01*
X1170440Y11727950D01*
X2072500D01*
X2644200Y11156250D01*
Y11085300D01*
G01X-149500Y12702000D02*
X-33200Y12585700D01*
X348620D01*
X1175670Y11758650D01*
X2085220D01*
X2402840Y11441030D01*
X2409060D01*
Y11441040D01*
X2715750Y11134350D01*
X2995150D01*
X3044200Y11085300D01*
G01X965810Y9968600D02*
X994540Y9939870D01*
X1604870D01*
X1642690Y9977690D01*
X1718710D01*
X1760600Y9935800D01*
X2162640D01*
X2176240Y9949400D01*
X2562280D01*
X2566230Y9945450D01*
X2609250D01*
X2624200Y9930500D01*
G01X903530Y9917800D02*
X912160Y9909170D01*
X1616830D01*
X1648310Y9877690D01*
X1733190D01*
X1760600Y9905100D01*
X2175360D01*
X2188960Y9918700D01*
X2387980D01*
X2393280Y9924000D01*
X2551750D01*
X2594300Y9881450D01*
X2700400D01*
G01X3344200Y10685300D02*
X3293600Y10735900D01*
X1976520D01*
X1519320Y11193100D01*
X947780D01*
X942480Y11187800D01*
X871600D01*
G01X3344200Y10585300D02*
X3294200Y10635300D01*
X2714100D01*
X2638900Y10710500D01*
X2418710D01*
X2413410Y10705200D01*
X1963790D01*
X1945820Y10723170D01*
Y10723180D01*
X1506600Y11162400D01*
X960500D01*
X935100Y11137000D01*
G01X1045900Y14875350D02*
X909700Y14739150D01*
Y14566000D01*
X990000Y14485700D01*
X3966300D01*
X4224400Y14743800D01*
G01X897000Y18655400D02*
X6054250D01*
X6938700Y17770950D01*
G01X1506600Y7377800D02*
X1519300Y7390500D01*
Y7403200D01*
X1945500Y7829400D01*
X4882100D01*
G01X1343200Y8116940D02*
X3617340D01*
X3652900Y8152500D01*
G01X3344200Y10385300D02*
X3296330Y10337430D01*
X3120030D01*
X3091950Y10365510D01*
Y10405090D01*
X3063990Y10433050D01*
X2761990D01*
X2710940Y10484100D01*
X2390580D01*
X2386630Y10480150D01*
X2166420D01*
X2086370Y10560200D01*
X1608180D01*
X1594690Y10573690D01*
X1594680D01*
X1590200Y10578170D01*
Y10578180D01*
X1501280Y10667100D01*
X1392300D01*
G01X3244200Y10385300D02*
X3196450Y10433050D01*
X3119910D01*
X3091950Y10461010D01*
Y10505090D01*
X3063990Y10533050D01*
X2924410D01*
X2849810Y10458450D01*
X2772520D01*
X2721470Y10509500D01*
X2387980D01*
X2386630Y10510850D01*
X2179140D01*
X2099090Y10590900D01*
X1620900D01*
X1493900Y10717900D01*
X1328800D01*
G01X1764020Y13448400D02*
X2361180D01*
X2779380Y13030200D01*
X3440750D01*
X3637070Y12833880D01*
Y12797300D01*
X3671770Y12762600D01*
G01X3577920D02*
Y12849610D01*
X3422730Y13004800D01*
X2768850D01*
X2350650Y13423000D01*
X1807990D01*
X1784340Y13399350D01*
X1743700D01*
X1732750Y13410300D01*
X1679620D01*
G01X3144200Y10185300D02*
X3144100D01*
X2992500Y10336900D01*
X2408300D01*
X2344800Y10400400D01*
X2199780D01*
X2092530Y10293150D01*
X2014640D01*
X2000090Y10307700D01*
X1856550D01*
X1845800Y10318450D01*
Y10364050D01*
G01X3044200Y10185300D02*
X2994200Y10235300D01*
X2713100D01*
X2636900Y10311500D01*
X2382900D01*
X2324700Y10369700D01*
X2212500D01*
X2105250Y10262450D01*
X2001920D01*
X1987370Y10277000D01*
X1854990D01*
X1840440Y10262450D01*
X1795000D01*
G01X3244200Y10985300D02*
Y10986900D01*
X3195700Y11035400D01*
X2598800D01*
X2128900Y11505300D01*
X1862200D01*
G01X3244200Y9485300D02*
X3195700Y9436800D01*
Y9244700D01*
X3132200Y9181200D01*
X2720400D01*
X2580700Y9041500D01*
G01X2357500Y11632300D02*
X2611500Y11378300D01*
X3056000D01*
X3144900Y11289400D01*
Y11186000D01*
X3144200Y11185300D01*
G01X4044200Y9685300D02*
X4096450Y9633050D01*
Y9565510D01*
X4128910Y9533050D01*
X4977450D01*
X4999100Y9511400D01*
Y9384400D01*
X5265800Y9117700D01*
X5659500D01*
G01X4592700Y13473800D02*
X4529200Y13410300D01*
Y12483200D01*
X4044200Y11998200D01*
Y11185300D01*
G01X3744200Y11085300D02*
X3894200Y11235300D01*
Y12127600D01*
X4078360Y12311760D01*
Y13338360D01*
X4099500Y13359500D01*
G01X3744200Y11185300D02*
X3792600Y11233700D01*
Y11327500D01*
X3856100Y11391000D01*
Y12153000D01*
X4046600Y12343500D01*
Y13486500D01*
G01X3644200Y11185300D02*
X3691950Y11233050D01*
Y11517050D01*
X3640200Y11568800D01*
G01X3544200Y11085300D02*
X3589400Y11130500D01*
Y11340200D01*
X3551300Y11378300D01*
Y11639920D01*
X3805300Y11893920D01*
Y13258860D01*
X3906900Y13360460D01*
Y13473800D01*
X3843400Y13537300D01*
X3741800D01*
G01X4344200Y9085300D02*
Y8972500D01*
X4478400Y8838300D01*
X4859400D01*
X5164200Y8533500D01*
X6345300D01*
G01X6319900Y8622400D02*
X6281800Y8660500D01*
X5132360D01*
X4789460Y9003400D01*
X4440300D01*
X4391950Y9051750D01*
Y9337550D01*
X4344200Y9385300D01*
G01Y9485300D02*
X4291950Y9433050D01*
Y8965300D01*
X4469750Y8787500D01*
X4821300D01*
X5189600Y8419200D01*
X6319900D01*
X6345300Y8444600D01*
G01X4244200Y9085300D02*
X4243250Y9084350D01*
Y8959150D01*
X4440300Y8762100D01*
X4795900D01*
X5164200Y8393800D01*
X6367200D01*
X6418000Y8444600D01*
G01X7374000Y8609700D02*
X7260470Y8723230D01*
X5125320D01*
X4821300Y9027250D01*
X4502250D01*
X4444200Y9085300D01*
G01X4144200Y9685300D02*
X4191950Y9637550D01*
X4999950D01*
X5037200Y9600300D01*
Y9397100D01*
X5265800Y9168500D01*
X5583300D01*
G01X4444200Y11085300D02*
X4491950Y11133050D01*
Y11893070D01*
X4491100Y11893920D01*
Y12102200D01*
X5278500Y12889600D01*
Y13448400D01*
X5494400Y13664300D01*
Y13867500D01*
G01X5099500Y13462300D02*
X5024500Y13387300D01*
Y12718160D01*
X4370440Y12064100D01*
Y11371960D01*
X4389500Y11352900D01*
Y11060800D01*
X4364100Y11035400D01*
X4294100D01*
X4244200Y11085300D01*
G01Y11185300D02*
Y11276700D01*
X4338700Y11371200D01*
Y12114900D01*
X4974780Y12750980D01*
Y13506630D01*
X5056250Y13588100D01*
G01X4144200Y11185300D02*
X4072000Y11257500D01*
Y11975200D01*
X4770500Y12673700D01*
Y13181700D01*
X4846700Y13257900D01*
Y13575400D01*
G01X5697600Y13702400D02*
X5596000D01*
X5329300Y13435700D01*
Y12851500D01*
X4592700Y12114900D01*
Y11233800D01*
X4544200Y11185300D01*
G01X4250730Y12979430D02*
X4313300Y13042000D01*
G01D02*
X4375870Y13104570D01*
G01X9282500Y9400000D02*
X9170200Y9512300D01*
X7741650D01*
X7348850Y9905100D01*
X5213060D01*
X5193260Y9885300D01*
X5144200D01*
G01X9282500Y8638000D02*
Y8742060D01*
X9303740Y8763300D01*
X9304210D01*
X9388850Y8847940D01*
Y8936060D01*
X9320610Y9004300D01*
X9212820D01*
X9177470Y9039650D01*
X7718750D01*
X7183490Y9574910D01*
X5703190D01*
X5660490Y9617610D01*
X5609100Y9668990D01*
X5566770Y9711320D01*
Y9711330D01*
X5537200Y9740900D01*
Y9783360D01*
X5478060Y9842500D01*
X5163560D01*
X5162410Y9841350D01*
X5138090D01*
X5123260Y9826520D01*
X4965140D01*
X4962410Y9829250D01*
X4925990D01*
X4923260Y9826520D01*
X4865140D01*
X4862410Y9829250D01*
X4798520D01*
X4744200Y9885300D01*
G01X5144200Y9685300D02*
X5194590D01*
X5278500Y9600730D01*
Y9501240D01*
X5369040Y9410700D01*
X5528320D01*
X5535040Y9417420D01*
X6777100D01*
X7343520Y8851000D01*
X7919620D01*
X7924930Y8856310D01*
X7950350D01*
X8534780Y8271880D01*
X9185020D01*
X9218040Y8238860D01*
X9342500D01*
X9390760Y8190600D01*
Y8081380D01*
X9282500Y7973120D01*
Y7876000D01*
G01X4844200Y10085300D02*
X4850730D01*
X4899780Y10134350D01*
X4974350D01*
X5074350Y10234350D01*
X5294200D01*
X5351150Y10177400D01*
X7173860D01*
X8032110Y11035650D01*
X9170850D01*
X9282500Y10924000D01*
G01X5144200Y9985300D02*
X5202300D01*
X5220650Y10003650D01*
X7338130D01*
X7338140Y10003640D01*
X7363560D01*
X7633570Y10273650D01*
X9170850D01*
X9282500Y10162000D01*
G01Y9654000D02*
X9166200Y9537700D01*
X7752180D01*
X7355530Y9934350D01*
X5123880D01*
X5074830Y9885300D01*
X4944200D01*
G01X9282500Y8892000D02*
X9200900Y8973600D01*
X9200100D01*
X9164750Y9008950D01*
X7706030D01*
X7170770Y9544210D01*
X5690470D01*
X5638780Y9595900D01*
X5587390Y9647280D01*
X5536070Y9698600D01*
Y9698610D01*
X5504330Y9730350D01*
Y9780300D01*
X5467530Y9817100D01*
X5271400D01*
X5189600Y9735300D01*
X4692650D01*
X4644200Y9785300D01*
G01X4944200Y9685300D02*
X5044200D01*
X5095150Y9634350D01*
X5194200D01*
X5253100Y9575450D01*
Y9490710D01*
X5358510Y9385300D01*
X5538850D01*
X5540270Y9386720D01*
X6764380D01*
X7325500Y8825600D01*
X7937640D01*
X8522060Y8241180D01*
X9171320D01*
X9282500Y8130000D01*
G01Y11178000D02*
X9170850Y11066350D01*
X8019390D01*
X7161140Y10208100D01*
X5540340D01*
X5535040Y10202800D01*
X5361680D01*
X5304730Y10259750D01*
X5063820D01*
X5038420Y10234350D01*
X4923880D01*
X4894010Y10204480D01*
Y10164510D01*
X4864800Y10135300D01*
X4795150D01*
X4745150Y10085300D01*
X4744200D01*
G01X4844200Y9985300D02*
X4893250Y10034350D01*
X7350850D01*
X7620850Y10304350D01*
X9170850D01*
X9282500Y10416000D01*
G01X5144200Y10485300D02*
X5183070D01*
X5261450Y10406920D01*
X5535040D01*
X5540340Y10401620D01*
X5888130D01*
X5918810Y10432300D01*
Y10457730D01*
X5950380Y10489300D01*
G01X4844200Y10485300D02*
X4891950Y10533050D01*
X5171250D01*
X5271980Y10432320D01*
X5875410D01*
X5888110Y10445020D01*
Y10457720D01*
X5856530Y10489300D01*
G01X9282500Y13210000D02*
X9170850Y13321650D01*
X8497160D01*
X8305800Y13130290D01*
Y12417550D01*
X7289300Y11401050D01*
X6494450D01*
X5868780Y10775380D01*
X5592740D01*
X5536160Y10718800D01*
X5177700D01*
X5144200Y10685300D01*
G01X9282500Y12448000D02*
X9170850Y12559650D01*
X8644250D01*
X6684650Y10600050D01*
X5472780D01*
X5458030Y10585300D01*
X4844200D01*
G01X9282500Y11686000D02*
X9170850Y11797650D01*
X8332050D01*
X7018400Y10484000D01*
X6370720D01*
X6198220Y10311500D01*
X4897500D01*
X4844200Y10364800D01*
Y10385300D01*
G01X9282500Y13464000D02*
X9170850Y13352350D01*
X8509880D01*
X8509870Y13352360D01*
X8484450D01*
X8280400Y13148310D01*
Y12428080D01*
X7278770Y11426450D01*
X6483920D01*
X5858250Y10800780D01*
X5582210D01*
X5525630Y10744200D01*
X4904980D01*
X4844200Y10685300D01*
G01X9282500Y12702000D02*
X9170850Y12590350D01*
X8656970D01*
X8656960Y12590360D01*
X8631540D01*
X6671930Y10630750D01*
X5479540D01*
X5477240Y10633050D01*
X4791950D01*
X4744200Y10585300D01*
G01X9282500Y11940000D02*
X9170850Y11828350D01*
X8319330D01*
X7005680Y10514700D01*
X6358000D01*
X6180200Y10336900D01*
X4923230D01*
X4895150Y10364980D01*
Y10405620D01*
X4865470Y10435300D01*
X4794200D01*
X4744200Y10385300D01*
G01X4844200Y10985300D02*
X4893160Y10936340D01*
X4983910D01*
X5061500Y10858750D01*
X5061490D01*
Y10852090D01*
X5080480Y10833100D01*
X5500010D01*
X5529810Y10862900D01*
X5799200D01*
X6459600Y11523300D01*
X7226900D01*
X7348600Y11645000D01*
Y11704710D01*
X7365090Y11721200D01*
G01X4744200Y10885300D02*
X4792050Y10837450D01*
X5040200D01*
X5069950Y10807700D01*
X5510540D01*
X5535040Y10832200D01*
X5811920D01*
X6472320Y11492600D01*
X7247000D01*
X7412100Y11657700D01*
G01X7145680Y11657980D02*
X7145120D01*
X7144180Y11658920D01*
X7055280D01*
X7043800Y11670400D01*
X6373370D01*
X5862720Y11159750D01*
X5536940D01*
X5388090Y11010900D01*
X5169800D01*
X5144200Y10985300D01*
G01X7081900Y11733900D02*
X7049100Y11701100D01*
X6360650D01*
X5850000Y11190450D01*
X5531710D01*
X5377560Y11036300D01*
X5159270D01*
X5158770Y11035800D01*
X5113800D01*
X5063300Y10985300D01*
X4944200D01*
G01X5913500Y12838800D02*
X6091300Y13016600D01*
X6929500D01*
X7170800Y13257900D01*
G01X7698500Y17903950D02*
X7831200Y17771250D01*
Y17423500D01*
X6073280Y15665580D01*
X5842500D01*
G01X7698500Y17649950D02*
X6595750Y16547200D01*
X6067930D01*
X5945500Y16424770D01*
G01X7780400Y8038200D02*
X7818500Y8076300D01*
X8041780D01*
X8435500Y7682580D01*
Y7428580D01*
X8638430Y7225650D01*
X9170850D01*
X9282500Y7114000D01*
G01X7780400Y8139800D02*
X7813200Y8107000D01*
X8054500D01*
X8466210Y7695290D01*
Y7669870D01*
X8466200Y7669860D01*
Y7441300D01*
X8651150Y7256350D01*
X9170850D01*
X9282500Y7368000D01*
G01Y6606000D02*
X9152600Y6476100D01*
X8713100D01*
X8534400Y6654800D01*
G54D18*
X233000Y3090000D03*
X1193000D03*
X2133000D03*
X3093000D03*
G54D28*
G01X2538300Y15473600D02*
X2476520Y15411820D01*
X2179700D01*
X2111120Y15343240D01*
X1808860D01*
X1747370Y15281750D01*
X1045900D01*
G01Y16297750D02*
X1994810D01*
X2004440Y16288120D01*
X2375280D01*
X2439800Y16223600D01*
X2594830D01*
G01X2995420Y16463760D02*
X2771140D01*
X2367660Y16867240D01*
X2159380D01*
X1712870Y17313750D01*
X1045900D01*
G01X3209210Y16717240D02*
X2718320D01*
X2372740Y17062820D01*
X2123820D01*
X1669690Y17516950D01*
X1045900D01*
G01X2532850Y15057990D02*
X2356730D01*
X2275690Y14976950D01*
X1604700D01*
G01X3011320Y15373600D02*
X2941580D01*
X2459100Y14891120D01*
X1806320D01*
X1688950Y14773750D01*
X1604700D01*
G01X2539460Y15723600D02*
X2405120D01*
X2334640Y15653120D01*
X1786000D01*
X1719430Y15586550D01*
X1604700D01*
G01X5930500Y15362890D02*
X3022030D01*
X3011320Y15373600D01*
G01X2954220Y17374670D02*
X3104830D01*
X3183000Y17296500D01*
X4338700D01*
X4440300Y17194900D01*
X5815230D01*
X5943440Y17323110D01*
G54D19*
X425100Y7979200D03*
X525100Y9262200D03*
X425100Y9979200D03*
X525100Y11262200D03*
X8712500Y1090000D03*
Y1598000D03*
M02*
