M48
METRIC
T01C.3
T02C.3302
T03C.4
T04C.8128
T05C.85
T06C.9
T07C.9144
T08C.95
T09C1.
T10C1.016
T11C1.05
T12C1.35
T13C1.4986
T14C2.8
T15C3.556
T16C1.55
T17C4.2672
;LEADER: 12 
;HEADER: 
;CODE  : ASCII 
;FILE  : pc049a_toplevel_48-1-10.drl for  ... layers TOP and BOTTOM
;T01 Holesize 1. = 0.300000 Tolerance = +0.000000/-0.000000 PLATED MM Quantity = 1670
;T02 Holesize 2. = 0.330200 Tolerance = +0.000000/-0.000000 PLATED MM Quantity = 69
;T03 Holesize 3. = 0.400000 Tolerance = +0.000000/-0.000000 PLATED MM Quantity = 1
;T04 Holesize 4. = 0.812800 Tolerance = +0.000000/-0.000000 PLATED MM Quantity = 77
;T05 Holesize 5. = 0.850000 Tolerance = +0.000000/-0.000000 PLATED MM Quantity = 2
;T06 Holesize 6. = 0.900000 Tolerance = +0.000000/-0.000000 PLATED MM Quantity = 6
;T07 Holesize 7. = 0.914400 Tolerance = +0.000000/-0.000000 PLATED MM Quantity = 20
;T08 Holesize 8. = 0.950000 Tolerance = +0.000000/-0.000000 PLATED MM Quantity = 18
;T09 Holesize 9. = 1.000000 Tolerance = +0.000000/-0.000000 PLATED MM Quantity = 192
;T10 Holesize 10. = 1.016000 Tolerance = +0.000000/-0.000000 PLATED MM Quantity = 2
;T11 Holesize 11. = 1.050000 Tolerance = +0.000000/-0.000000 PLATED MM Quantity = 20
;T12 Holesize 12. = 1.350000 Tolerance = +0.000000/-0.000000 PLATED MM Quantity = 4
;T13 Holesize 13. = 1.498600 Tolerance = +0.000000/-0.000000 PLATED MM Quantity = 2
;T14 Holesize 14. = 2.800000 Tolerance = +0.000000/-0.000000 PLATED MM Quantity = 4
;T15 Holesize 15. = 3.556000 Tolerance = +0.000000/-0.000000 PLATED MM Quantity = 8
;T16 Holesize 16. = 1.550000 Tolerance = +0.000000/-0.000000 NON_PLATED MM Quantity = 4
;T17 Holesize 17. = 4.267200 Tolerance = +0.000000/-0.000000 NON_PLATED MM Quantity = 2
%
G90
T01
X08534400Y06654800
X-00337500Y15467700
X06946390Y04293440
X06933780Y02000740
X06893140Y-00272560
X06512140Y-00145560
X-00487500Y15150400
X02326300Y08876400
X03983100Y09003400
X03744200Y09885300
X04044200Y09885300
X04244200Y09885300
X03344200Y11085300
X04344200Y11085300
X03194200Y11423000
X03475100Y11429100
X04290590Y11599300
X03892900Y13256600
X03702500Y13256700
X03844200Y09385300
X05164200Y06722600
X04544200Y10885300
X04544390Y11594050
X04444310Y11597010
X04446600Y10786100
X03544200Y09685300
X04748300Y05984000
X03544200Y09585300
X03884700Y05984000
X05425700Y09630900
X04844200Y09485300
X06180200Y11327500
X06243700Y12628100
X05418900Y09485300
X05913500Y12838800
X07170800Y13257900
X04836000Y11605300
X04840550Y11180850
X03398900Y08990700
X03544200Y09385300
X01343200Y08116940
X03652900Y08152500
X03544200Y09485300
X03644200Y09385300
X03056700Y07758800
X03644200Y09485300
X03183700Y07758100
X03310700Y07758100
X03644200Y09685300
X04844200Y11085300
X05278500Y11086200
X03244200Y09985300
X02484500Y10019400
X04351400Y08470000
X02513000Y02831200
X04044200Y09285300
X02535300Y05282300
X02593000Y02831200
X00613000Y02831200
X01811400Y05155300
X02509900Y05155300
X03868800Y08876400
X04144200Y09385300
X02725800Y05155300
X01747900Y05091800
X00693000Y02831200
X02128900Y10019400
X02484500Y09867000
X02744200Y09785300
X02463000Y09685300
X03244200Y09885300
X03044200Y10085300
X03244200Y10085300
X02414600Y10635300
X02744200Y10685300
X02444200Y10435300
X02944200Y10485300
X03144200Y10385300
X03144200Y10585300
X02421000Y10819500
X04744200Y09985300
X04844200Y09985300
X04944200Y10085300
X04744200Y10085300
X04644200Y10285300
X04744200Y10385300
X04644200Y10485300
X04744200Y10585300
X05678590Y10693720
X04844200Y09585300
X04944200Y09685300
X04744200Y09685300
X04644200Y09785300
X04844200Y09785300
X04944200Y09885300
X04844200Y10685300
X04844200Y09885300
X05144200Y09985300
X05144200Y10085300
X04844200Y10085300
X04744200Y10185300
X04844200Y10385300
X04744200Y10485300
X04844200Y10585300
X05773800Y10679800
X05144200Y09585300
X05144200Y09685300
X04844200Y09685300
X04744200Y09885300
X05144200Y09785300
X05144200Y09885300
X05144200Y10685300
X04844200Y10185300
X05596000Y11378300
X05144200Y10185300
X05659500Y11314800
X03344200Y09785300
X03444200Y09885300
X03144200Y10785300
X03444200Y10785300
X03144200Y10885300
X03044200Y10885300
X02944200Y10985300
X03144200Y10985300
X03044200Y11085300
X02944200Y09285300
X02944200Y09385300
X03044200Y09485300
X03044200Y09585300
X03144200Y09585300
X03244200Y09585300
X02944200Y11185300
X03344200Y09885300
X03344200Y09985300
X03344200Y10785300
X03344200Y10885300
X03044200Y10985300
X02744200Y10885300
X02744200Y10985300
X03144200Y11085300
X02644200Y11085300
X02744200Y09285300
R03Y00100000
X03144200Y09685300
X03244200Y09685300
X02744200Y11185300
X00935100Y11137000
X03344200Y10585300
X00871600Y11187800
X03344200Y10685300
X02154300Y08587180
X04351400Y07644800
X04046600Y07200000
X04594200Y08952600
X04444200Y09485300
X04444200Y08952600
X04444200Y09385300
X03805000Y07644800
X03995800Y07263500
X03344200Y09585300
X00312800Y05964500
X03257450Y06006200
X00312800Y05884500
X03437000Y06006200
X03344200Y09085300
X00312800Y05804500
X03386200Y05930000
X03344200Y09285300
X00312800Y05724500
X03538600Y06006200
X03344200Y09385300
X02011000Y05964500
X03444200Y09685300
X03141300Y06260200
X03444200Y09085300
X02009300Y05884500
X03437000Y06260200
X02013100Y05804500
X03589400Y06184000
X03444200Y09385300
X02012300Y05724500
X03538610Y06107800
X03444200Y09485300
X03244200Y09485300
X02580700Y09041500
X02930700Y08939900
X00897000Y18655400
X01700500Y08873000
X07022040Y04411200
X07584020Y04548360
X07457020Y04294360
X07006800Y02117580
X07568780Y02254740
X07441780Y02000740
X07818500Y04833360
X07818500Y04960360
X07457020Y04929360
X07330020Y04929360
X07774520Y04611860
X04814620Y04412020
X06916800Y10095600
X07759280Y02318240
X07804720Y02539780
X07804720Y02666780
X07441780Y02635740
X07314780Y02635740
X04035000Y00579000
X00439800Y15302600
X06568020Y04421360
X06480470Y08114930
X06485000Y08025500
X07780400Y08139800
X07043800Y08254100
X07780400Y08038200
X07043800Y08152500
X03144200Y11185300
X02357500Y11632300
X03444200Y10885300
X03244200Y10985300
X01862200Y11505300
X02870580Y12094580
X03081400Y08901800
X03144200Y09285300
X03244200Y09085300
X03244200Y09385300
X04808600Y06724700
X04882100Y07829400
X01506600Y07377800
X02179700Y12775300
X01683600Y12254600
X01959700Y12373000
X02103500Y12495900
X05253100Y07066300
X05764300Y07596900
X04244200Y09285300
X03941600Y07603000
X04338700Y08358350
X04044200Y09385300
X04338730Y08273640
X03844200Y09485300
X04414900Y07230600
X05541500Y07555600
X06485000Y07570050
X06418000Y08444600
X04244200Y09085300
X06461030Y07643070
X06345300Y08444600
X04344200Y09485300
X06319900Y08622400
X06192900Y06966900
X04344200Y09385300
X04344200Y09085300
X06345300Y08533500
X06459400Y07466900
X00743800Y04675100
X00972400Y04675100
X02725000Y04687800
X02496400Y04687800
X03884700Y05701400
X04284700Y05701400
X05148300Y05701400
X04748300Y05701400
X01824100Y06680300
X02929700Y06717400
R03X00127000
X06840600Y06730220
X03780700Y07263500
X03643200Y07174600
X06535800Y07294800
X06815200Y07025800
X07491900Y07025800
X08420100Y06946900
X06497700Y07885300
X06777100Y07885300
X06815200Y07675800
X08034400Y07894800
X07755000Y07675800
X01907580Y08399220
X04844200Y08398000
X08288400Y08285300
X03678300Y08800200
X04594200Y08622400
X04444200Y08622400
X04193930Y08961000
X04745100Y08914500
X06194200Y08583000
X03444200Y09285300
X03044200Y09285300
X03344200Y09485300
X03844200Y09285300
X04044200Y09585300
X03644200Y09585300
X04544200Y09585300
X04344200Y09285300
X04744200Y09285300
X00782700Y10184500
X03844200Y09785300
X01156200Y10443700
X01201800Y10341580
X01544700Y10349600
X05612500Y11852020
X06234400Y11755900
X06090200Y11860900
X07165600Y12628100
X03044200Y10185300
X01795000Y10262450
X01062100Y12775300
X03144200Y10185300
X01845800Y10364050
X01062100Y12876900
X03244200Y10385300
X01328800Y10717900
X00922400Y12495900
X03344200Y10385300
X01392300Y10667100
X00973200Y12572100
X01679620Y13410300
X03577920Y12762600
X01764020Y13448400
X03671770Y12762600
X04440300Y06978700
X05164200Y07232700
X05278500Y07230600
X06015100Y07161900
X05108200Y07598900
X06010400Y07661900
X04614800Y07946000
X05494200Y08241200
X05669200Y08241400
X05294200Y08238400
X01226600Y12280000
X01481200Y12292700
X02548400Y12457800
X02699600Y12213960
X01785200Y13004700
X01608200Y12991200
X01341500Y12648000
X02052200Y12598000
X01228900Y13065700
X06966160Y-00155720
X07528140Y-00018560
X07401140Y-00272560
X01074800Y09130400
X04278960Y02484540
X07718640Y00044940
X07763680Y00264840
X07763680Y00391840
X07274140Y00362440
X07401140Y00362440
X02633000Y03355800
X02725800Y03898000
X02490600Y03898000
X02553000Y03356900
X00733000Y03351900
X00993070Y03886340
X00653000Y03351900
X00725300Y03898000
X02395600Y03778620
X02944200Y09685300
X02309430Y03778620
X02744200Y09685300
X02353000Y02831200
X03844200Y09685300
X03744200Y09685300
X02433000Y02526400
X02789920Y03788780
X03144200Y09785300
X02876090Y03788780
X03044200Y09785300
X04244200Y09485300
X02753000Y02831200
X02673000Y02831200
X03744200Y09285300
X02833000Y02831200
X04144200Y09485300
X00496090Y03771000
X02944200Y10785300
X00409920Y03771000
X02744200Y10785300
X03744200Y09385300
X02090800Y05282300
X01443100Y05282300
X00453000Y02831200
X03744200Y09585300
X02268600Y05282300
X01874900Y05218800
X00533000Y02831200
X00902080Y03776080
X03144200Y10685300
X00973200Y03804020
X03044200Y10685300
X00853000Y02831200
X01874900Y05004650
X02789300Y05104500
X04144200Y09585300
X03744200Y09485300
X02052700Y05104500
X00773000Y02831200
X01887600Y05104500
X00933000Y02831200
X01951100Y04952100
X02852800Y05041000
X04244200Y09385300
X01062100Y10603600
X02944200Y10585300
X00998600Y10654400
X02744200Y10585300
X00615060Y10867760
X03144200Y10485300
X00615060Y10786480
X03044200Y10485300
X01024000Y08876400
X00903530Y09917800
X02700400Y09881450
X01025750Y08800200
X00965810Y09968600
X02624200Y09930500
X03144200Y09985300
X00808100Y08571070
X00780080Y09933120
X03044200Y09985300
X00733650Y08597000
X00717800Y09878300
X05392800Y08939900
X05392800Y08838300
X02944200Y09485300
X02611500Y09371700
X02408300Y09185300
X05144200Y09385300
X04744200Y09585300
X05773100Y09485300
X05772100Y09335300
X03344200Y10185300
X03444200Y10085300
X03344200Y09685300
X03544200Y09985300
X03844200Y09885300
X04344200Y09685300
X04144200Y09885300
X04444200Y09985300
X04344200Y10085300
X04644200Y09685300
X04644200Y09885300
X04944200Y09785300
X04944200Y10185300
X05410200Y09757400
X05768600Y09630900
X02509900Y10209900
X03444200Y10585300
X03444200Y10385300
X03944200Y10685300
X03544200Y10685300
X03744200Y10685300
X04344200Y10385300
X04444200Y10485300
X04544200Y10285300
X04644200Y10385300
X04944200Y10685300
X02844200Y11085300
X02421000Y11060800
X03044200Y11285300
X03444200Y11285300
X03244200Y11085300
X03244200Y10885300
X03844200Y11285300
X03844200Y10785300
X03644200Y10985300
X04144200Y10985300
X04344200Y11285300
X04646600Y10786100
X04544200Y10985300
X04944200Y11085300
X04744200Y11285300
X05319600Y10936800
X06218300Y11022700
X03284600Y11683100
X03386200Y11683100
X04544060Y11838870
X04444510Y11837000
X05748400Y11530700
X05176870Y11933980
X04994200Y11937100
X07536200Y12295600
X06243700Y12755100
X07178300Y12755100
X03144200Y13308000
X06243700Y13390100
X06552780Y02127740
X02471800Y09435200
X01798700Y10017000
X01694940Y09826740
X01693340Y09926740
X01689760Y10026740
X01947000Y10016700
X03644200Y09885300
X03744200Y10185300
X03644200Y10185300
X04044200Y10185300
X03844200Y10085300
X04144200Y10085300
X04244200Y09985300
X07228500Y08476900
X01684400Y10324200
X02032000Y10345000
X03644200Y10385300
X03744200Y10485300
X03644200Y10585300
X04044200Y10485300
X03844200Y10385300
X03844200Y10585300
X04144200Y10585300
X04244200Y10485300
X04144200Y10385300
X04144200Y10285300
X01691000Y10193000
X01975000Y10220000
X04444200Y09585300
X05799200Y11264000
X06128180Y10692500
X07361300Y08000100
X06034330Y10692500
X07361300Y07898500
X06510400Y06882500
X05856530Y10489300
X04844200Y10485300
X06510970Y06780900
X05950380Y10489300
X05144200Y10485300
X08293100Y06896100
X04944200Y10985300
X07081900Y11733900
X08293100Y06793600
X05144200Y10985300
X07145680Y11657980
X07894700Y08444600
X07412100Y11657700
X04744200Y10885300
X07988550Y08444600
X07365090Y11721200
X04844200Y10985300
X04944200Y10385300
X06128180Y10438500
X06827900Y07530200
X05144200Y10385300
X06034330Y10438500
X06827900Y07441300
X08287840Y07549740
X04844200Y10885300
X08288400Y07428600
X05192650Y10895700
X07479200Y06644800
X07767700Y08597000
X07488300Y07301600
X07374000Y08609700
X04444200Y09085300
X06373910Y15650770
X02983170Y15973600
X02581670Y16973600
X02981050Y15773600
X02541760Y15923600
X05950900Y16073600
X02546970Y16324190
X05860470Y15023700
X05869690Y15244170
X02580400Y17291130
X03209210Y16717240
X02539460Y15723600
X05949500Y16719950
X05943440Y17323110
X02954220Y17374670
X05944500Y17474950
X05950610Y17002340
X05949500Y15869950
X02594830Y16223600
X03404720Y16166730
X06430780Y16275890
X02538300Y15473600
X03011320Y15373600
X05930500Y15362890
X02995420Y16463760
X06396970Y16824270
X05967860Y14923600
X02532850Y15057990
X02584040Y17125420
X05949500Y17119950
X02578740Y16023600
X06429660Y15745060
X03015930Y16073600
X06430780Y15923600
X03011320Y15265700
X02585300Y15356870
X02994010Y16353630
X06396970Y17173600
X06355070Y16023600
X02539750Y15578930
X03015930Y14873600
X03014500Y15075950
X02951850Y14973600
X04444200Y10885300
X05596000Y13423000
X04544200Y11185300
X05697600Y13702400
X04544200Y11085300
X05761100Y13283300
X03005200Y14769200
X02814700Y14553300
X03081400Y11581500
X03044200Y11185300
X03244200Y11185300
X03133950Y12355490
X03233800Y12495900
X03348100Y11454500
X03271900Y13550000
X03344200Y11185300
X03344200Y10985300
X03271900Y13458930
X03348100Y12699100
X03348100Y13372200
X03475100Y13550000
X03444200Y11185300
X03444200Y11085300
X03551300Y13435700
X03500500Y12673700
X03602100Y13372200
X03543400Y11287700
X03602100Y13626200
X03676550Y13740500
X03538600Y11187800
X03544200Y11085300
X03741800Y13537300
X03544200Y10985300
X03805300Y13461100
X03544200Y10885300
X03830700Y13372200
X03694200Y12305400
X03868800Y13677000
X03644200Y11185300
X03899500Y13588100
X03640200Y11568800
X03644200Y11085300
X03970400Y13296000
X03644200Y10885300
X03995800Y13384900
X03744200Y11185300
X04046600Y13486500
X03744200Y11085300
X04099500Y13359500
X03744200Y10985300
X04135500Y13245200
X03744200Y10885300
X04199000Y13397600
X03844200Y11085300
X04351400Y13181700
X03844200Y10885300
X04414900Y13270600
X04744200Y11185300
X05989700Y13664300
X04044200Y11185300
X04592700Y13473800
X04044200Y11085300
X04637150Y12997550
X03944200Y10985300
X04694300Y13283300
X03944200Y10885300
X04745100Y13410300
X04144200Y11185300
X04846700Y13575400
X04144200Y11085300
X04891150Y12972150
X04244200Y11185300
X05056250Y13588100
X05099500Y13462300
X04244200Y11085300
X04244200Y10985300
X05100700Y12978500
X04244200Y10885300
X05202300Y13397600
X04287900Y11479900
X05249500Y13702400
X05299500Y13626200
X04344200Y11185300
X04444200Y11185300
X05443600Y13359500
X04444200Y11085300
X05494400Y13867500
X04444200Y10985300
X05507100Y13270600
X04844200Y09385300
X04224400Y14743800
X04544200Y09485300
X03144900Y17487000
X04795900Y14083400
X04945000Y09082900
X06707260Y13988160
X04845000Y09082900
X03128700Y16831150
X03017090Y15873600
X04544200Y09385300
X06167490Y14045290
X04544200Y09085300
X02564880Y15207430
X07401140Y00489440
X07655140Y00489440
X07528140Y00489440
X07401140Y00997440
R03Y-00127000
X07655140Y00997440
R03Y-00127000
X07528140Y00997440
R03Y-00127000
X07761540Y01091980
X07761540Y00964980
X07763120Y00618420
X07763120Y00745420
X07401140Y01124440
X07360100Y01541120
X07360100Y01442060
X07655140Y01124440
X07528140Y01124440
X07441780Y02762740
X07695780Y02762740
X07568780Y02762740
X09478860Y02377340
X07441780Y03270740
R03Y-00127000
X07695780Y03270740
R02Y-00127000
X07568780Y03270740
R02Y-00127000
X07802180Y03367820
X07802180Y03240820
X07695780Y02889740
X07568780Y02889740
X07804720Y02890300
X07804720Y03017300
X07398200Y03814420
X07398200Y03715360
X07441780Y03397740
X07695780Y03397740
X07568780Y03397740
X07457020Y05056360
X07711020Y05056360
X07584020Y05056360
X07457020Y05564360
R03Y-00127000
X07711020Y05564360
X07584020Y05564360
X07818500Y05691360
X07818500Y05564360
X07711020Y05437360
R02Y-00127000
X07584020Y05437360
R02Y-00127000
X07818500Y05310360
X07818500Y05183360
X07414900Y06107380
X07414900Y06008320
X07457020Y05691360
X07711020Y05691360
X07584020Y05691360
X05945500Y16424770
X05842500Y15665580
X04744200Y09385300
X04448450Y14062550
X05583300Y09168500
X04144200Y09685300
X07202550Y14051650
X05659500Y09117700
X04044200Y09685300
X07183500Y13854800
X07056500Y06882500
X07056500Y06793600
X07069200Y07530200
X07069200Y07441300
X02549410Y16492620
X06430760Y16158180
X05868800Y16354310
X03015930Y15673600
X02962900Y17180020
X02547500Y16596750
X03005960Y17280860
X02991950Y16954600
X04944200Y09285300
X01316100Y16907350
X04844200Y09285300
X01392300Y17055200
X02981270Y16173600
X04658060Y-00115200
X04134700Y00252300
X04135500Y00354700
X03686000Y00625000
X05342000Y00530500
X04427600Y00530500
X03767200Y01604500
X03627500Y01650100
X05039740Y02094300
X03923760Y02577200
X04022820Y02577200
X00573000Y03351900
X00333000Y03351900
X00373000Y02831200
X01053000Y03351900
X00813000Y03351900
X01093000Y02831200
X01013000Y02831200
X02233000Y03341700
X02273000Y02831200
X02636900Y03250300
X02953000Y03353300
X02548000Y03250300
X02913000Y02831200
X02993000Y02831200
X04440300Y02945500
X04582540Y02994300
X05496940Y02994300
X00516000Y04208000
X00410200Y04500100
X00562600Y03979400
X01145800Y04081000
X01157600Y04444600
X01196600Y04208000
X01156200Y03979400
X01697100Y04228200
X01532000Y04456800
X02294000Y04355200
X02268600Y04220700
X02319400Y03992100
X02906200Y03992100
X02906200Y04093700
X02954400Y04220700
X02894200Y04447400
X05054980Y04172020
X00410200Y04601700
X01151000Y04888600
X01366900Y04672700
X02217800Y04850500
X02168600Y04610600
X02167000Y04507600
X02789300Y04850500
X02509900Y04850500
X03005200Y04990200
X04304880Y04791280
X04597780Y05072020
X05512180Y05072020
X04351400Y04896220
X01151000Y05129900
X01146300Y05358500
X01646300Y05358500
X02154300Y05396600
X02802000Y05396600
X03094100Y05142600
X03475100Y05777600
X03602100Y05866500
X03652900Y06069700
X01824100Y06590300
X02751200Y06476100
X03322700Y06463400
X03487800Y06387200
X03030600Y06222100
X03919200Y06460300
X03678300Y06311000
X03792600Y06692000
X03881500Y06615800
X03957700Y06692000
X04033900Y06615800
X04440300Y06724700
X04969200Y06460300
X05383300Y06768200
X05844200Y06735300
X06344200Y06735300
X06967600Y06730100
X08034400Y06644800
X01794000Y07022200
X01954000Y07022200
X02034000Y07022200
X01874000Y07022200
X02543200Y07166700
X03881700Y07204380
X03643200Y06831700
X05544600Y06793600
X06192900Y07161900
X06944200Y07160300
X06824300Y07285300
X07494200Y07160300
X07069200Y07294800
X07767300Y07035300
X03494200Y07714400
X04503800Y07415900
X04326000Y07434800
X04841500Y07598900
X05631500Y07555600
X06194200Y07836300
X05994200Y07839500
X06197600Y07661900
X07394200Y07710300
X00604800Y08254200
X01582800Y08393200
X03210200Y08188800
X03130200Y08188600
X03050200Y08184800
X02970200Y08187500
X03856100Y08317600
X04554600Y08292200
X04194200Y08441000
X04994200Y08355700
X07138500Y08476900
X08015900Y08285300
X07755000Y08275800
X00604800Y09016200
X00604900Y08635200
X02154300Y08965300
X02116200Y08793200
X02154300Y08493200
X03983100Y08749400
X03678300Y08647800
X04745100Y08660500
X06244200Y08835300
X05926200Y08851000
X05926200Y08939900
X01493900Y09346300
X01849500Y09346300
X02299800Y09359000
X01874900Y09185300
X02844200Y09085300
X02944200Y09585300
X03244200Y09285300
X03444200Y09585300
X03983100Y09092300
X03644200Y09285300
X03844200Y09585300
X04544200Y09285300
X04644200Y09485300
X04144200Y09285300
X04344200Y09585300
X04944200Y09585300
X05049900Y09179600
X00858900Y10032100
X01798700Y09676500
X01491360Y09991460
X01493900Y09854300
X01303400Y09854300
X01303400Y09988920
X01493900Y10146400
X01303400Y10146400
X02217800Y09867000
X02221700Y09685300
X02744200Y09985300
X02611500Y09663800
X02944200Y09785300
X03044200Y09685300
X03144200Y10085300
X03244200Y09785300
X03244200Y10185300
X03544200Y09785300
X04044200Y10085300
X03844200Y10185300
X03844200Y09985300
X03644200Y09985300
X04544200Y09785300
X04644200Y10085300
X04144200Y10185300
X04944200Y09985300
X04744200Y09785300
X05684900Y09757400
X06056700Y10095600
X06218300Y10502000
X06627100Y10110700
X06456700Y10095600
X07269200Y09735300
X07744200Y09735300
X08094200Y09885300
X00611400Y10635200
X00611400Y10254200
X01125600Y10667100
X00846200Y10260700
X01316100Y10629000
X01519300Y10443700
X02176500Y10635300
X02243200Y10209900
X02243200Y10298800
X02944200Y10685300
X02744200Y10285300
X02644520Y10428340
X02942600Y10286100
X02573400Y10603600
X03044200Y10385300
X03044200Y10585300
X03244200Y10585300
X03644200Y10685300
X03644200Y10285300
X03644200Y10485300
X03744200Y10385300
X03744200Y10585300
X03844200Y10485300
X04044200Y10385300
X04044200Y10585300
X04644200Y10585300
X04144200Y10485300
X04244200Y10385300
X04944200Y10485300
X08369200Y10460300
X00960500Y11251300
X00706500Y10806800
X01684400Y10870300
X02014600Y10819500
X01887600Y11060800
X02944200Y10885300
X03044200Y10785300
X03244200Y11285300
X03444200Y10985300
X03644200Y11285300
X03844200Y10985300
X04544200Y11285300
X04144200Y10885300
X04144200Y11285300
X04344200Y10985300
X04944200Y10885300
X04746600Y10786100
X04744200Y11085300
X05586300Y10936800
X05634100Y11085300
X06612000Y11276700
X06757500Y11258200
X07269200Y11010300
X02843400Y11487700
X03386200Y11594200
X03284600Y11594200
X04287970Y11834700
X05044200Y11485300
X04944200Y11485300
X05352500Y11659900
X06502900Y11754100
X07894200Y11610300
X08294200Y11460300
X00494200Y12060300
X00794200Y11935300
X01049400Y12368100
X01683600Y11911700
X01760600Y11911700
X01582800Y11911700
X01417700Y11911700
X02382900Y12388100
X02026500Y11911700
X01886800Y11911700
X02506100Y12187300
X03386200Y12229200
X03284600Y12229200
X04836000Y11930700
X06319200Y12110300
X06744200Y12460300
X06676600Y11950900
X07119200Y11960300
X07494200Y11960300
X07132700Y12295600
X07819200Y12260300
X08194200Y11910300
X01062100Y12661000
X00844200Y12685300
X01811400Y12762600
X01711100Y12623000
X01595600Y12623000
X01711100Y12509900
X01595500Y12508600
X01595500Y12737200
X02370200Y12495900
X02388400Y12757100
X02065400Y12749900
X02548400Y12711400
X03144200Y12877600
X03892900Y12624200
X06744200Y12885300
X07501000Y12628100
X07819200Y12960300
X00844200Y13185300
X01785200Y13257100
X01607400Y13257900
X02051900Y13308700
X01912200Y13308700
X03607200Y13075000
X06096380Y13097880
X06243700Y13263100
X06544200Y13610300
X06769200Y13185300
X07819200Y13485300
X08344200Y13485300
X00269200Y13660300
X00844200Y13660300
X01369200Y13660300
X06894200Y13935300
X07494200Y13860300
X08094200Y13860300
X00269200Y14260300
X00844200Y14260300
X03297300Y14680300
X03779900Y14680300
X03576700Y14680300
X04449500Y14678320
X06297430Y14585630
X06194200Y14260300
X06152560Y14536850
X07194200Y14260300
X07819200Y14235300
X08194200Y14685300
X08344200Y14235300
X09619200Y14685300
X-00980800Y15310300
X01889030Y15269950
X02229450Y15136650
X02257570Y14814330
X01834490Y15038960
X03355120Y14771910
X03295130Y14872280
X03290360Y15201090
X03869200Y14860300
X03580920Y15263950
X04544200Y15210300
X04969200Y14785300
X05136990Y14995480
X04913570Y15123920
X05172330Y14875920
X05288900Y15131220
X05734570Y15219360
X05696650Y14920610
X05968320Y15122750
X06419620Y14778250
X08194200Y15285300
X08819200Y15285300
X09619200Y15285300
X-00754000Y15467700
X00223900Y15797900
X00439800Y15797900
X02055540Y15425930
X02253650Y15569950
X02241380Y15348430
X02116200Y15719160
X03003470Y15559040
X03328500Y15425950
X03285500Y15527590
X03287510Y15669950
X03844200Y15485300
X03687480Y15769950
X05704250Y15472290
X05951370Y15754000
X05932380Y15467020
X05932840Y15573600
X06731520Y15819950
X06736170Y15669950
X-00980800Y16310300
X00019200Y16310300
X-00262500Y16077300
X-00169800Y16077300
X-00360300Y16077300
X02249500Y16349990
X02253080Y15991970
X02032380Y16176360
X03285760Y16069950
X03894200Y16410300
X03589120Y16449660
X03679250Y16269950
X03690330Y15969950
X04419200Y16410300
X04869200Y16410300
X04869200Y16060300
X05369200Y16410300
X05405500Y15953950
X05704500Y16357510
X05596540Y16036710
X05953070Y16223600
X05899950Y15973600
X06643830Y16348550
X06735500Y16094550
X06735500Y15940630
X08194200Y16285300
X08819200Y16285300
X09619200Y16285300
X02264410Y16953120
X02249500Y16719950
X02249500Y16519950
X03476050Y16723180
X03282920Y17019950
X03477020Y16604490
X03022190Y16619330
X03398900Y17017100
X03869200Y16685300
X03691000Y16521800
X04419200Y17010300
X04869200Y17010300
X05409440Y16919950
X05508640Y16688150
X05709680Y16514290
X05944100Y16532580
X06356500Y17023600
X06355500Y16623320
X05952320Y16874560
X-00980800Y17310300
X00019200Y17310300
X02258540Y17147230
X02151850Y17369950
X02262710Y17277530
X02266080Y17469950
X03337330Y17122020
X03282670Y17224470
X03004910Y17073360
X03056000Y17487000
X03894200Y17185300
X03944200Y17560300
X04419200Y17560300
X04869200Y17560300
X05354500Y17258370
X05498390Y17475640
X05756710Y17255380
X05601400Y17119950
X05240680Y17069950
X05839640Y17375030
X06725560Y17172460
X08194200Y17285300
X08819200Y17285300
X09619200Y17285300
X02369200Y18060300
X03369200Y17660300
X03043300Y17652100
X04499500Y17713900
X05799500Y17673500
X06319200Y17885300
X05944330Y17602080
X07319200Y17685300
X-00980800Y18310300
X00019200Y18310300
X02044200Y18560300
X07319200Y18285300
X08194200Y18285300
X08819200Y18285300
X09619200Y18285300
X01144200Y19085300
X00894200Y18835300
X01644200Y19035300
X01394200Y18835300
X02144200Y19035300
X01894200Y18835300
X03344200Y19035300
X03344200Y19285300
X03444200Y18835300
X05144200Y18835300
X05244200Y19035300
X05294200Y19285300
X06794200Y18835300
X07494200Y19085300
X07294200Y18835300
X07694200Y18835300
X08194200Y18985300
X08819200Y19285300
X00019200Y19310300
X01144200Y19585300
X00894200Y19835300
X00894200Y19335300
X01394200Y19335300
X01798700Y19460580
X01801240Y19679020
X01674240Y19679020
X02306700Y19460580
R03X-00127000
X01928240Y19679020
R03X00127000
X02560700Y19460580
X02941700Y19460580
X02814700Y19460580
X02687700Y19460580
X02433700Y19460580
X02563240Y19679020
R03X00127000
X02436240Y19679020
X03344200Y19785300
X03195700Y19460580
X03068700Y19460580
X03071240Y19679020
X03741800Y19463120
X03868800Y19463120
X03744340Y19681560
X03995800Y19463120
X03998340Y19681560
X03871340Y19681560
X03617340Y19681560
X04376800Y19463120
X04379340Y19681560
X04252340Y19681560
X04630800Y19463120
X04503800Y19463120
X04633340Y19681560
X04506340Y19681560
X04122800Y19463120
X04249800Y19463120
X04125340Y19681560
X04884800Y19463120
X05011800Y19463120
X04887340Y19681560
X05138800Y19463120
X05014340Y19681560
X04757800Y19463120
X04760340Y19681560
X05294200Y19785300
X05799200Y19460580
X05801740Y19679020
X05674740Y19679020
X06053200Y19460580
R02X00127000
X06309740Y19679020
R03X-00127000
X05926200Y19460580
X06688200Y19460580
X06815200Y19460580
X06942200Y19460580
X06561200Y19460580
X06944740Y19679020
R03X-00127000
X06434200Y19460580
X06436740Y19679020
X07494200Y19585300
X07294200Y19335300
X07196200Y19460580
X07071740Y19679020
X07069200Y19460580
X07694200Y19335300
X07694200Y19835300
X-00980800Y20310300
X00019200Y20310300
X01144200Y20085300
X00894200Y20335300
R02X00500000
X02314320Y20052400
X02187320Y20052400
X02894200Y20335300
X02394200Y20335300
X02949320Y20052400
R04X-00127000
X03344200Y20085300
X03394200Y20335300
X03076320Y20052400
X03894200Y20335300
X03871340Y20072720
X03998340Y20072720
X03744340Y20072720
X03617340Y20072720
X04344200Y20335300
X04506340Y20072720
X04633340Y20072720
X04252340Y20072720
X04379340Y20072720
X04125340Y20072720
X04794200Y20335300
X05014340Y20072720
R02X-00127000
X05294200Y20085300
X05794200Y20335300
X05294200Y20335300
X05545200Y20075260
X05799200Y20075260
X05672200Y20075260
X06294200Y20335300
X05926200Y20075260
R03X00127000
X06794200Y20335300
X06561200Y20075260
X06688200Y20075260
X06942200Y20075260
X06815200Y20075260
X06434200Y20075260
X07294200Y20035300
X07294200Y20335300
X08019200Y20285300
X07694200Y20035300
X07694200Y20335300
X08819200Y20285300
X09619200Y20285300
X01926000Y09669000
X04644200Y09585300
X06472300Y16483700
X04644200Y09385300
X03729100Y17550500
X04644200Y09285300
X01379600Y16496400
X06131140Y-00399560
X06639140Y-00145560
X06766140Y-00145560
X07763700Y-00128000
X08288400Y-00051700
X08288400Y00047360
X08148700Y-00282720
X05603060Y00486780
X05679820Y00486780
X05527420Y00486780
X05678700Y00114220
X05526300Y00114220
X05603060Y00114220
X05416780Y00224860
X05416780Y00377260
X05416780Y00300500
X05789340Y00300500
X05789340Y00223740
X05789340Y00376140
X06893140Y00489440
X06639140Y00489440
X06766140Y00489440
X06893140Y00362440
R02Y-00127000
X06639140Y00362440
X06766140Y00362440
X06639140Y00235440
X06766140Y00235440
X06639140Y00108440
X06766140Y00108440
X06639140Y-00018560
X06766140Y-00018560
X07147140Y00489440
X07020140Y00489440
X07147140Y00108440
X07020140Y00362440
X07020140Y00235440
X08288400Y00297180
X08288400Y00396240
X06893140Y00997440
R03Y-00127000
X06766140Y00997440
X06639140Y00997440
X06639140Y00870440
X06766140Y00870440
X06639140Y00743440
X06766140Y00743440
X06639140Y00616440
X06766140Y00616440
X07147140Y00997440
R03Y-00127000
X07020140Y00997440
R03Y-00127000
X08283800Y00997320
X08283800Y01096380
X08285380Y00650760
X08285380Y00749820
X05532500Y01523100
X05532500Y01424040
X06893140Y01124440
X06639140Y01124440
X06766140Y01124440
X07147140Y01124440
X07020140Y01124440
X08288400Y01548500
X08288400Y01434200
X06171780Y01873740
X06720540Y01745440
X06621480Y01745440
X06679780Y02127740
X06806780Y02127740
X07119320Y01745440
X07020260Y01745440
X07815160Y02150600
X08199500Y01990580
X08326980Y02221600
X08326980Y02320660
X05681240Y02578020
X05758000Y02578020
X05571720Y02688660
X05571720Y02764300
X05833640Y02578020
X05944280Y02764300
X05944280Y02687540
X06933780Y02762740
R03Y-00127000
X06679780Y02762740
X06806780Y02762740
X06679780Y02635740
X06806780Y02635740
X06679780Y02508740
X06806780Y02508740
X06679780Y02381740
X06806780Y02381740
X06679780Y02254740
X06806780Y02254740
X07187780Y02762740
X07187780Y02381740
X07060780Y02762740
R02Y-00127000
X08326980Y02572120
X08326980Y02671180
X05758000Y02950580
X05682360Y02950580
X05571720Y02841060
X05834760Y02950580
X05944280Y02839940
X06933780Y03270740
R02Y-00127000
X06806780Y03270740
X06679780Y03270740
X06679780Y03143740
X06806780Y03143740
X06679780Y03016740
X06806780Y03016740
X06933780Y02889740
X06679780Y02889740
X06806780Y02889740
X07187780Y03270740
R02Y-00127000
X07060780Y03270740
R02Y-00127000
X07187780Y02889740
X07060780Y02889740
X08324440Y03273160
X08324440Y03372220
X08326980Y02922640
X08326980Y03021700
X09471240Y03286660
X05555360Y03796400
X05555360Y03697340
X06933780Y03397740
X06679780Y03397740
X06806780Y03397740
X07187780Y03397740
X07060780Y03397740
X08329040Y03707500
X08329040Y03821800
X06187020Y04167360
X06758640Y04021280
X06659580Y04021280
X06822020Y04421360
X06695020Y04421360
X07159960Y04021280
X07060900Y04021280
X07830400Y04444220
X08199500Y04284200
X05586960Y04766380
X05586960Y04918780
X05586960Y04842020
X05696480Y04655740
X05773240Y04655740
X05697600Y05028300
X05773240Y05028300
X05959520Y04842020
X05959520Y04765260
X05959520Y04917660
X05848880Y04655740
X05850000Y05028300
X06695020Y05056360
X06822020Y05056360
X06695020Y04929360
X06822020Y04929360
X06695020Y04802360
X06822020Y04802360
X06695020Y04675360
X06822020Y04675360
X06695020Y04548360
X06822020Y04548360
X07203020Y05056360
X07203020Y04675360
X07076020Y05056360
R02Y-00127000
X06949020Y05056360
R03Y-00127000
X08340760Y04865700
X08340760Y04964760
X08340760Y04515700
X08340760Y04614760
X06822020Y05564360
X06695020Y05564360
X06695020Y05437360
X06822020Y05437360
X06695020Y05310360
X06822020Y05310360
X06695020Y05183360
X06822020Y05183360
X07203020Y05564360
R02X-00127000
X07203020Y05437360
R02Y-00127000
X07076020Y05437360
R02Y-00127000
X06949020Y05437360
R02Y-00127000
X08340760Y05565700
X08340760Y05664760
X08340760Y05215700
X08340760Y05314760
X05559640Y06090140
X05559640Y05991080
X06822020Y05691360
X06695020Y05691360
X07203020Y05691360
R02X-00127000
X08343200Y06000460
X08343200Y06114760
X06673080Y06319420
X06772140Y06319420
X07079480Y06319420
X07178540Y06319420
X04644200Y09085300
X04744200Y09485300
X04097400Y16902800
X04944200Y09485300
X06364350Y13924650
X05144200Y09485300
X06535790Y13930980
X01975090Y14812470
X03578920Y15138950
X00084200Y15480400
X03394500Y15675300
X03576700Y15442300
X02254030Y16134710
X03488650Y16390550
X03596250Y16064400
X05390060Y16169950
X03282920Y17369950
X01614000Y19157600
X01550500Y19411600
X01550500Y19767200
X01614000Y20021200
X04744200Y09085300
T02
X05294000Y15303600
X04559000Y15476600
X04385000Y15707600
X04559000Y15957600
X04986000Y15707600
X06503000Y19758850
X06566500Y19138850
X06630000Y19758850
X06693500Y19138850
X02249000Y19758850
X02312500Y19138850
X02376000Y19758850
X02439500Y19138850
X06757000Y19758850
X02503000Y19758850
X02566500Y19138850
X02630000Y19758850
X02693500Y19138850
X02757000Y19758850
X02820500Y19138850
X02884000Y19758850
X02947500Y19138850
X03011000Y19758850
X03074500Y19138850
X06820500Y19138850
X03550500Y19758850
X03614000Y19138850
X03677500Y19758850
X03741000Y19138850
X03804500Y19758850
X03868000Y19138850
X03931500Y19758850
X03995000Y19138850
X04058500Y19758850
X04122000Y19138850
X06884000Y19758850
X04185500Y19758850
X04249000Y19138850
X04312500Y19758850
X04376000Y19138850
X04439500Y19758850
X04503000Y19138850
X04566500Y19758850
X04630000Y19138850
X04693500Y19758850
X04757000Y19138850
X06947500Y19138850
X04820500Y19758850
X04884000Y19138850
X04947500Y19758850
X05011000Y19138850
X05074500Y19758850
X05550500Y19138850
X05614000Y19758850
X05677500Y19138850
X05741000Y19758850
X05804500Y19138850
X07011000Y19758850
X05868000Y19758850
X05931500Y19138850
X05995000Y19758850
X06058500Y19138850
X06122000Y19758850
X06185500Y19138850
X06249000Y19758850
X06312500Y19138850
X06376000Y19758850
X06439500Y19138850
X07074500Y19138850
T03
X01887000Y10216000
T04
X06016840Y02130280
X07548300Y16145350
X01045900Y16297750
X01604700Y15586550
X07954700Y15637350
X01045900Y15281750
X01604700Y14773750
X01604700Y17821750
X01045900Y15484950
X01604700Y17618550
X01604700Y15789750
X07954700Y14824550
X06029540Y04423900
X01604700Y16399350
X07548300Y15942150
X01045900Y16704150
X07954700Y15434150
X01045900Y15891350
X01604700Y16196150
X07954700Y14621350
X01045900Y15688150
X07954700Y15230950
X07548300Y15129350
X01604700Y14976950
X06586600Y10768700
X00766500Y15688150
X01045900Y17948750
X01604700Y16602550
X01604700Y15180150
X07954700Y16043750
X01604700Y18253550
X01045900Y16094550
X01045900Y14672150
X07954700Y16246950
X01045900Y18151950
X01045900Y17313750
X01959000Y10467000
X07548300Y15535750
X07954700Y16856550
X01045900Y17720150
X01604700Y16805750
X01045900Y15078550
X07954700Y15840550
X07548300Y16754950
X01604700Y14570550
X01604700Y15383350
X07548300Y15738950
X07954700Y17059750
X06370700Y10298800
X01604700Y15992950
X07548300Y14926150
X07954700Y15027750
X01604700Y17008950
X03281100Y14062550
X03484300Y13846650
X03687500Y14062550
X01604700Y18050350
X07548300Y16348550
X01045900Y14875350
X07954700Y16653350
X04313300Y13042000
X01604700Y18456750
X01604700Y17415350
X01045900Y17110550
X07548300Y15332550
X01604700Y17212150
X01045900Y16907350
X01045900Y18355150
X01045900Y16500950
X07548300Y14722950
X07548300Y16958150
X03627500Y01129400
X07548300Y16551750
X-00157900Y14774400
X01045900Y17516950
X-00538900Y14787100
X07954700Y16450150
T05
X01900000Y03000000
X00000000Y03000000
T06
X07698500Y17649950
X07952500Y17649950
X07698500Y17903950
X07952500Y17903950
X07698500Y18157950
X07952500Y18157950
T07
X06938700Y15205550
R02Y-00254000
X06938700Y17770950
R02Y-00254000
X02394800Y14202900
X02394800Y14002900
X02194800Y14202900
X02194800Y14002900
X01994800Y14202900
X01994800Y14002900
X01794800Y14202900
X01794800Y14002900
X01594800Y14202900
X01594800Y14002900
X01394800Y14202900
X01394800Y14002900
X01194800Y14202900
X01194800Y14002900
T08
X01900000Y02280000
X01900000Y02750000
X01900000Y03250000
X03325000Y02280000
X03325000Y02750000
X03325000Y03250000
X02133000Y03710000
R02X00480000
X00000000Y02280000
X00000000Y02750000
X00000000Y03250000
X01425000Y02280000
X01425000Y02750000
X01425000Y03250000
X00233000Y03710000
R02X00480000
T09
X09282500Y13464000
R31Y-00254000
X09028500Y13464000
R31Y-00254000
X08774500Y13464000
R31Y-00254000
X-00657500Y05590000
R31Y00254000
X-00403500Y05590000
R31Y00254000
X-00149500Y05590000
R31Y00254000
T10
X07236700Y19793200
X01388400Y19793200
T11
X01900000Y00000000
R02Y01000000
X03325000Y00500000
R03Y01000000
X02758000Y00000000
X02468000Y02000000
X03008000Y02000000
X00000000Y00000000
R02Y01000000
X01425000Y00500000
R03Y01000000
X00858000Y00000000
X00568000Y02000000
X01108000Y02000000
T12
X00525100Y09262200
X00425100Y07979200
X00525100Y11262200
X00425100Y09979200
T13
X08712500Y01090000
X08712500Y01598000
T14
X09536500Y13972000
X09536500Y05082000
X-00911500Y05082000
X-00911500Y13972000
T15
X09312500Y00090000
X-00687500Y00090000
X08812500Y04590000
X-00187500Y04590000
X08812500Y14090000
X-00187500Y14090000
X09312500Y19590000
X-00687500Y19590000
T16
X00233000Y03090000
X01193000Y03090000
X02133000Y03090000
X03093000Y03090000
T17
X08012500Y19590000
X00612500Y19590000
M30
