G04 ================== begin FILE IDENTIFICATION RECORD ==================*
G04 Layout Name:  pc049a_toplevel_48.brd*
G04 Film Name:    PC049A_L6*
G04 File Format:  Gerber RS274X*
G04 File Origin:  Cadence Allegro 16.6-S014*
G04 Origin Date:  Wed Feb 11 18:23:26 2015*
G04 *
G04 Layer:  VIA CLASS/L6*
G04 Layer:  PIN/L6*
G04 Layer:  ETCH/L6*
G04 Layer:  BOARD GEOMETRY/CTEXT_TOP*
G04 *
G04 Offset:    (0.0000 0.0000)*
G04 Mirror:    No*
G04 Mode:      Positive*
G04 Rotation:  0*
G04 FullContactRelief:  No*
G04 UndefLineWidth:     0.1270*
G04 ================== end FILE IDENTIFICATION RECORD ====================*
%FSLAX25Y25*MOMM*%
%IR0*IPPOS*OFA0.00000B0.00000*MIA0B0*SFA1.00000B1.00000*%
%ADD14C,.6*%
%ADD22C,.8*%
%ADD23C,.6096*%
%ADD18C,1.*%
%ADD10C,5.*%
%ADD24C,1.6*%
%ADD19C,2.032*%
%ADD12C,1.7*%
%ADD21C,1.6002*%
%ADD13C,1.27*%
%ADD17C,1.55*%
%ADD20C,1.524*%
%ADD16C,1.65*%
%ADD15C,1.75*%
%ADD11C,6.604*%
%ADD25C,.101*%
%ADD26C,.13*%
%ADD27C,.127*%
%ADD28C,.254*%
G75*
%LPD*%
G75*
G54D10*
X-911500Y5082000D03*
Y13972000D03*
X9536500Y5082000D03*
Y13972000D03*
G54D11*
X-687500Y90000D03*
X-187500Y4590000D03*
Y14090000D03*
X-687500Y19590000D03*
X8812500Y4590000D03*
Y14090000D03*
X9312500Y90000D03*
Y19590000D03*
G54D20*
X1194800Y14002900D03*
Y14202900D03*
X1394800Y14002900D03*
Y14202900D03*
X1594800Y14002900D03*
Y14202900D03*
X1794800Y14002900D03*
Y14202900D03*
X1994800Y14002900D03*
Y14202900D03*
X2194800Y14002900D03*
Y14202900D03*
X2394800Y14002900D03*
Y14202900D03*
X6938700Y14697550D03*
Y14951550D03*
Y15205550D03*
Y17262950D03*
Y17516950D03*
Y17770950D03*
G54D21*
X1388400Y19793200D03*
X7236700D03*
G54D12*
X-657500Y5590000D03*
Y6098000D03*
Y5844000D03*
Y6606000D03*
Y6352000D03*
Y7368000D03*
Y7114000D03*
Y6860000D03*
Y7876000D03*
Y7622000D03*
Y8384000D03*
Y8130000D03*
Y8892000D03*
Y8638000D03*
Y9654000D03*
Y9400000D03*
Y9146000D03*
Y10162000D03*
Y9908000D03*
Y10670000D03*
Y10416000D03*
Y11178000D03*
Y10924000D03*
Y11940000D03*
Y11686000D03*
Y11432000D03*
Y12448000D03*
Y12194000D03*
Y12956000D03*
Y12702000D03*
Y13464000D03*
Y13210000D03*
X-149500Y5590000D03*
X-403500D03*
X-149500Y6098000D03*
Y5844000D03*
X-403500Y6098000D03*
Y5844000D03*
X-149500Y6606000D03*
Y6352000D03*
X-403500Y6606000D03*
Y6352000D03*
X-149500Y7368000D03*
Y7114000D03*
Y6860000D03*
X-403500Y7368000D03*
Y7114000D03*
Y6860000D03*
X-149500Y7876000D03*
Y7622000D03*
X-403500Y7876000D03*
Y7622000D03*
X-149500Y8384000D03*
Y8130000D03*
X-403500Y8384000D03*
Y8130000D03*
X-149500Y8892000D03*
Y8638000D03*
X-403500Y8892000D03*
Y8638000D03*
X-149500Y9654000D03*
Y9400000D03*
Y9146000D03*
X-403500Y9654000D03*
Y9400000D03*
Y9146000D03*
X-149500Y10162000D03*
Y9908000D03*
X-403500Y10162000D03*
Y9908000D03*
X-149500Y10670000D03*
Y10416000D03*
X-403500Y10670000D03*
Y10416000D03*
X-149500Y11178000D03*
Y10924000D03*
X-403500Y11178000D03*
Y10924000D03*
X-149500Y11940000D03*
Y11686000D03*
Y11432000D03*
X-403500Y11940000D03*
Y11686000D03*
Y11432000D03*
X-149500Y12448000D03*
Y12194000D03*
X-403500Y12448000D03*
Y12194000D03*
X-149500Y12956000D03*
Y12702000D03*
X-403500Y12956000D03*
Y12702000D03*
X-149500Y13464000D03*
Y13210000D03*
X-403500Y13464000D03*
Y13210000D03*
X8774500Y5590000D03*
X9028500D03*
X8774500Y5844000D03*
Y6098000D03*
X9028500Y5844000D03*
Y6098000D03*
X8774500Y6352000D03*
Y6606000D03*
X9028500Y6352000D03*
Y6606000D03*
X8774500Y6860000D03*
Y7114000D03*
Y7368000D03*
X9028500Y6860000D03*
Y7114000D03*
Y7368000D03*
X8774500Y7622000D03*
Y7876000D03*
X9028500Y7622000D03*
Y7876000D03*
X8774500Y8130000D03*
Y8384000D03*
X9028500Y8130000D03*
Y8384000D03*
X8774500Y8638000D03*
Y8892000D03*
X9028500Y8638000D03*
Y8892000D03*
X8774500Y9146000D03*
Y9400000D03*
Y9654000D03*
X9028500Y9146000D03*
Y9400000D03*
Y9654000D03*
X8774500Y9908000D03*
Y10162000D03*
X9028500Y9908000D03*
Y10162000D03*
X8774500Y10416000D03*
Y10670000D03*
X9028500Y10416000D03*
Y10670000D03*
X8774500Y10924000D03*
Y11178000D03*
X9028500Y10924000D03*
Y11178000D03*
X8774500Y11432000D03*
Y11686000D03*
Y11940000D03*
X9028500Y11432000D03*
Y11686000D03*
Y11940000D03*
X8774500Y12194000D03*
Y12448000D03*
X9028500Y12194000D03*
Y12448000D03*
X8774500Y12702000D03*
Y12956000D03*
X9028500Y12702000D03*
Y12956000D03*
X8774500Y13210000D03*
Y13464000D03*
X9028500Y13210000D03*
Y13464000D03*
X9282500Y5590000D03*
Y5844000D03*
Y6098000D03*
Y6352000D03*
Y6606000D03*
Y6860000D03*
Y7114000D03*
Y7368000D03*
Y7622000D03*
Y7876000D03*
Y8130000D03*
Y8384000D03*
Y8638000D03*
Y8892000D03*
Y9146000D03*
Y9400000D03*
Y9654000D03*
Y9908000D03*
Y10162000D03*
Y10416000D03*
Y10670000D03*
Y10924000D03*
Y11178000D03*
Y11432000D03*
Y11686000D03*
Y11940000D03*
Y12194000D03*
Y12448000D03*
Y12702000D03*
Y12956000D03*
Y13210000D03*
Y13464000D03*
G54D13*
X-538900Y14787100D03*
X-157900Y14774400D03*
X1045900Y14672150D03*
Y15078550D03*
Y15281750D03*
Y14875350D03*
Y15891350D03*
Y15484950D03*
Y15688150D03*
X766500D03*
X1045900Y16094550D03*
Y16297750D03*
Y16704150D03*
Y16907350D03*
Y16500950D03*
Y17516950D03*
Y17313750D03*
Y17110550D03*
Y17720150D03*
Y18151950D03*
Y17948750D03*
Y18355150D03*
X1604700Y14570550D03*
Y14773750D03*
Y14976950D03*
Y15180150D03*
Y15383350D03*
Y15789750D03*
Y15586550D03*
Y16196150D03*
Y15992950D03*
Y16399350D03*
Y16602550D03*
Y16805750D03*
Y17008950D03*
Y17212150D03*
Y17415350D03*
Y17618550D03*
Y17821750D03*
Y18050350D03*
Y18253550D03*
Y18456750D03*
X1959000Y10467000D03*
X3281100Y14062550D03*
X3484300Y13846650D03*
X3627500Y1129400D03*
X3687500Y14062550D03*
X4313300Y13042000D03*
X6016840Y2130280D03*
X6029540Y4423900D03*
X6370700Y10298800D03*
X6586600Y10768700D03*
X7548300Y14722950D03*
Y15332550D03*
Y14926150D03*
Y15129350D03*
Y15738950D03*
Y15535750D03*
Y16145350D03*
Y15942150D03*
Y16348550D03*
Y16754950D03*
Y16551750D03*
Y16958150D03*
X7954700Y14621350D03*
Y15230950D03*
Y14824550D03*
Y15027750D03*
Y15434150D03*
Y15840550D03*
Y15637350D03*
Y16043750D03*
Y16246950D03*
Y16450150D03*
Y16856550D03*
Y16653350D03*
Y17059750D03*
G54D22*
X1887000Y10216000D03*
G54D23*
X2312500Y19138850D03*
X2376000Y19758850D03*
X2249000D03*
X2947500Y19138850D03*
X2820500D03*
X2693500D03*
X2566500D03*
X2439500D03*
X2884000Y19758850D03*
X2757000D03*
X2630000D03*
X2503000D03*
X3074500Y19138850D03*
X3011000Y19758850D03*
X3995000Y19138850D03*
X3868000D03*
X3741000D03*
X3614000D03*
X4058500Y19758850D03*
X3931500D03*
X3804500D03*
X3677500D03*
X3550500D03*
X4385000Y15707600D03*
X4559000Y15476600D03*
Y15957600D03*
X4630000Y19138850D03*
X4503000D03*
X4376000D03*
X4249000D03*
X4122000D03*
X4566500Y19758850D03*
X4439500D03*
X4312500D03*
X4185500D03*
X4986000Y15707600D03*
X5011000Y19138850D03*
X4884000D03*
X4757000D03*
X5074500Y19758850D03*
X4947500D03*
X4820500D03*
X4693500D03*
X5294000Y15303600D03*
X5677500Y19138850D03*
X5550500D03*
X5741000Y19758850D03*
X5614000D03*
X6312500Y19138850D03*
X6185500D03*
X6058500D03*
X5931500D03*
X5804500D03*
X6249000Y19758850D03*
X6122000D03*
X5995000D03*
X5868000D03*
X6439500Y19138850D03*
X6820500D03*
X6693500D03*
X6566500D03*
X6376000Y19758850D03*
X6884000D03*
X6757000D03*
X6630000D03*
X6503000D03*
X7074500Y19138850D03*
X6947500D03*
X7011000Y19758850D03*
G54D14*
X-487500Y15150400D03*
X-754000Y15467700D03*
X-980800Y15310300D03*
Y16310300D03*
Y17310300D03*
Y18310300D03*
Y20310300D03*
X84200Y15480400D03*
X-337500Y15467700D03*
X-360300Y16077300D03*
X-169800D03*
X-262500D03*
X19200Y16310300D03*
Y17310300D03*
Y18310300D03*
Y19310300D03*
Y20310300D03*
X373000Y2831200D03*
X333000Y3351900D03*
X573000D03*
X533000Y2831200D03*
X453000D03*
X653000Y3351900D03*
X613000Y2831200D03*
X409920Y3771000D03*
X496090D03*
X562600Y3979400D03*
X516000Y4208000D03*
X410200Y4601700D03*
Y4500100D03*
X312800Y5724500D03*
Y5804500D03*
Y5884500D03*
Y5964500D03*
X604800Y8254200D03*
X604900Y8635200D03*
X604800Y9016200D03*
X611400Y10254200D03*
Y10635200D03*
X615060Y10786480D03*
Y10867760D03*
X494200Y12060300D03*
X269200Y13660300D03*
Y14260300D03*
X439800Y15302600D03*
Y15797900D03*
X223900D03*
X1013000Y2831200D03*
X1093000D03*
X813000Y3351900D03*
X1053000D03*
X933000Y2831200D03*
X773000D03*
X853000D03*
X733000Y3351900D03*
X693000Y2831200D03*
X973200Y3804020D03*
X902080Y3776080D03*
X725300Y3898000D03*
X993070Y3886340D03*
X1156200Y3979400D03*
X1196600Y4208000D03*
X1157600Y4444600D03*
X1145800Y4081000D03*
X1151000Y4888600D03*
X972400Y4675100D03*
X743800D03*
X1146300Y5358500D03*
X1151000Y5129900D03*
X733650Y8597000D03*
X808100Y8571070D03*
X1025750Y8800200D03*
X1024000Y8876400D03*
X1074800Y9130400D03*
X858900Y10032100D03*
X717800Y9878300D03*
X780080Y9933120D03*
X965810Y9968600D03*
X903530Y9917800D03*
X782700Y10184500D03*
X846200Y10260700D03*
X1125600Y10667100D03*
X998600Y10654400D03*
X1062100Y10603600D03*
X1201800Y10341580D03*
X1156200Y10443700D03*
X706500Y10806800D03*
X960500Y11251300D03*
X871600Y11187800D03*
X935100Y11137000D03*
X1049400Y12368100D03*
X794200Y11935300D03*
X1226600Y12280000D03*
X844200Y12685300D03*
X1062100Y12661000D03*
X973200Y12572100D03*
X922400Y12495900D03*
X1062100Y12876900D03*
Y12775300D03*
X844200Y13185300D03*
X1228900Y13065700D03*
X844200Y13660300D03*
Y14260300D03*
X897000Y18655400D03*
X894200Y18835300D03*
X1144200Y19085300D03*
X894200Y19335300D03*
Y19835300D03*
X1144200Y19585300D03*
X894200Y20335300D03*
X1144200Y20085300D03*
X1532000Y4456800D03*
X1697100Y4228200D03*
X1366900Y4672700D03*
X1646300Y5358500D03*
X1443100Y5282300D03*
X1747900Y5091800D03*
X1794000Y7022200D03*
X1506600Y7377800D03*
X1582800Y8393200D03*
X1343200Y8116940D03*
X1700500Y8873000D03*
X1493900Y9346300D03*
X1303400Y10146400D03*
X1493900D03*
X1303400Y9988920D03*
Y9854300D03*
X1493900D03*
X1491360Y9991460D03*
X1798700Y9676500D03*
X1689760Y10026740D03*
X1693340Y9926740D03*
X1694940Y9826740D03*
X1798700Y10017000D03*
X1519300Y10443700D03*
X1316100Y10629000D03*
X1691000Y10193000D03*
X1684400Y10324200D03*
X1392300Y10667100D03*
X1328800Y10717900D03*
X1795000Y10262450D03*
X1544700Y10349600D03*
X1684400Y10870300D03*
X1417700Y11911700D03*
X1582800D03*
X1760600D03*
X1683600D03*
X1481200Y12292700D03*
X1683600Y12254600D03*
X1595500Y12737200D03*
Y12508600D03*
X1711100Y12509900D03*
X1595600Y12623000D03*
X1711100D03*
X1341500Y12648000D03*
X1608200Y12991200D03*
X1785200Y13004700D03*
X1607400Y13257900D03*
X1785200Y13257100D03*
X1764020Y13448400D03*
X1679620Y13410300D03*
X1369200Y13660300D03*
X1379600Y16496400D03*
X1316100Y16907350D03*
X1392300Y17055200D03*
X1614000Y19157600D03*
X1394200Y18835300D03*
X1644200Y19035300D03*
X1550500Y19767200D03*
Y19411600D03*
X1674240Y19679020D03*
X1801240D03*
X1798700Y19460580D03*
X1394200Y19335300D03*
X1614000Y20021200D03*
X1394200Y20335300D03*
X2273000Y2831200D03*
X2233000Y3341700D03*
X2353000Y2831200D03*
X2309430Y3778620D03*
X2319400Y3992100D03*
X2268600Y4220700D03*
X2294000Y4355200D03*
X2167000Y4507600D03*
X2168600Y4610600D03*
X2217800Y4850500D03*
X1951100Y4952100D03*
X1874900Y5004650D03*
X2154300Y5396600D03*
X1887600Y5104500D03*
X2052700D03*
X1874900Y5218800D03*
X2268600Y5282300D03*
X2090800D03*
X1811400Y5155300D03*
X2012300Y5724500D03*
X2013100Y5804500D03*
X2009300Y5884500D03*
X2011000Y5964500D03*
X1824100Y6590300D03*
Y6680300D03*
X1874000Y7022200D03*
X2034000D03*
X1954000D03*
X1907580Y8399220D03*
X2154300Y8493200D03*
X2116200Y8793200D03*
X2154300Y8965300D03*
Y8587180D03*
X2326300Y8876400D03*
X1874900Y9185300D03*
X2299800Y9359000D03*
X1849500Y9346300D03*
X1926000Y9669000D03*
X2221700Y9685300D03*
X2217800Y9867000D03*
X1947000Y10016700D03*
X2128900Y10019400D03*
X2243200Y10298800D03*
Y10209900D03*
X2176500Y10635300D03*
X1975000Y10220000D03*
X2032000Y10345000D03*
X1845800Y10364050D03*
X1887600Y11060800D03*
X2014600Y10819500D03*
X1862200Y11505300D03*
X2357500Y11632300D03*
X1886800Y11911700D03*
X2026500D03*
X1959700Y12373000D03*
X2065400Y12749900D03*
X2370200Y12495900D03*
X1811400Y12762600D03*
X2052200Y12598000D03*
X2103500Y12495900D03*
X2179700Y12775300D03*
X1912200Y13308700D03*
X2051900D03*
X1975090Y14812470D03*
X1834490Y15038960D03*
X2257570Y14814330D03*
X2229450Y15136650D03*
X1889030Y15269950D03*
X2116200Y15719160D03*
X2241380Y15348430D03*
X2253650Y15569950D03*
X2055540Y15425930D03*
X2254030Y16134710D03*
X2032380Y16176360D03*
X2253080Y15991970D03*
X2249500Y16349990D03*
Y16519950D03*
Y16719950D03*
X2264410Y16953120D03*
X2266080Y17469950D03*
X2262710Y17277530D03*
X2151850Y17369950D03*
X2258540Y17147230D03*
X2369200Y18060300D03*
X2044200Y18560300D03*
X1894200Y18835300D03*
X2144200Y19035300D03*
X2309240Y19679020D03*
X2182240D03*
X2055240D03*
X1928240D03*
X1925700Y19460580D03*
X2052700D03*
X2179700D03*
X2306700D03*
X2187320Y20052400D03*
X2314320D03*
X1894200Y20335300D03*
X2433000Y2526400D03*
X2913000Y2831200D03*
X2548000Y3250300D03*
X2636900D03*
X2833000Y2831200D03*
X2673000D03*
X2753000D03*
X2553000Y3356900D03*
X2633000Y3355800D03*
X2593000Y2831200D03*
X2513000D03*
X2876090Y3788780D03*
X2789920D03*
X2395600Y3778620D03*
X2490600Y3898000D03*
X2725800D03*
X2894200Y4447400D03*
X2906200Y4093700D03*
Y3992100D03*
X2509900Y4850500D03*
X2789300D03*
X2852800Y5041000D03*
X2496400Y4687800D03*
X2725000D03*
X2802000Y5396600D03*
X2789300Y5104500D03*
X2725800Y5155300D03*
X2509900D03*
X2535300Y5282300D03*
X2751200Y6476100D03*
X2929700Y6717400D03*
X2543200Y7166700D03*
X2930700Y8939900D03*
X2580700Y9041500D03*
X2944200Y9585300D03*
X2844200Y9085300D03*
X2471800Y9435200D03*
X2408300Y9185300D03*
X2611500Y9371700D03*
X2944200Y9485300D03*
X2744200Y9585300D03*
Y9485300D03*
Y9385300D03*
Y9285300D03*
X2944200Y9385300D03*
Y9285300D03*
Y9785300D03*
X2611500Y9663800D03*
X2744200Y9985300D03*
X2624200Y9930500D03*
X2700400Y9881450D03*
X2744200Y9685300D03*
X2944200D03*
X2463000D03*
X2744200Y9785300D03*
X2484500Y9867000D03*
Y10019400D03*
X2573400Y10603600D03*
X2942600Y10286100D03*
X2644520Y10428340D03*
X2744200Y10285300D03*
X2944200Y10685300D03*
X2509900Y10209900D03*
X2744200Y10585300D03*
X2944200D03*
Y10485300D03*
X2444200Y10435300D03*
X2744200Y10685300D03*
X2414600Y10635300D03*
X2944200Y10885300D03*
X2421000Y11060800D03*
X2844200Y11085300D03*
X2744200Y10785300D03*
X2944200D03*
X2744200Y11185300D03*
X2644200Y11085300D03*
X2744200Y10985300D03*
Y10885300D03*
X2944200Y11185300D03*
Y10985300D03*
X2421000Y10819500D03*
X2843400Y11487700D03*
X2506100Y12187300D03*
X2382900Y12388100D03*
X2699600Y12213960D03*
X2548400Y12457800D03*
X2870580Y12094580D03*
X2548400Y12711400D03*
X2388400Y12757100D03*
X2814700Y14553300D03*
X2564880Y15207430D03*
X2532850Y15057990D03*
X2539750Y15578930D03*
X2585300Y15356870D03*
X2538300Y15473600D03*
X2539460Y15723600D03*
X2578740Y16023600D03*
X2594830Y16223600D03*
X2546970Y16324190D03*
X2541760Y15923600D03*
X2547500Y16596750D03*
X2549410Y16492620D03*
X2581670Y16973600D03*
X2584040Y17125420D03*
X2580400Y17291130D03*
X2436240Y19679020D03*
X2944240D03*
X2817240D03*
X2690240D03*
X2563240D03*
X2433700Y19460580D03*
X2687700D03*
X2814700D03*
X2941700D03*
X2560700D03*
X2441320Y20052400D03*
X2568320D03*
X2695320D03*
X2822320D03*
X2394200Y20335300D03*
X2894200D03*
X2993000Y2831200D03*
X2953000Y3353300D03*
X2954400Y4220700D03*
X3005200Y4990200D03*
X3094100Y5142600D03*
X3475100Y5777600D03*
X3386200Y5930000D03*
X3437000Y6006200D03*
X3257450D03*
X3030600Y6222100D03*
X3487800Y6387200D03*
X3322700Y6463400D03*
X3310700Y6717400D03*
X3183700D03*
X3056700D03*
X3437000Y6260200D03*
X3141300D03*
X3494200Y7714400D03*
X3310700Y7758100D03*
X3183700D03*
X3056700Y7758800D03*
X2970200Y8187500D03*
X3050200Y8184800D03*
X3130200Y8188600D03*
X3210200Y8188800D03*
X3081400Y8901800D03*
X3398900Y8990700D03*
X3444200Y9585300D03*
X3244200Y9285300D03*
X3344200Y9485300D03*
X3044200Y9285300D03*
X3444200D03*
X3244200Y9385300D03*
Y9085300D03*
X3144200Y9285300D03*
X3244200Y9485300D03*
X3444200D03*
Y9385300D03*
Y9085300D03*
X3344200Y9385300D03*
Y9285300D03*
Y9085300D03*
Y9585300D03*
X3244200D03*
X3144200D03*
X3044200D03*
Y9485300D03*
X3244200Y10185300D03*
Y9785300D03*
X3144200Y10085300D03*
X3044200Y9685300D03*
X3344200D03*
X3444200Y10085300D03*
X3344200Y10185300D03*
X3044200Y9985300D03*
X3144200D03*
X3044200Y9785300D03*
X3144200D03*
Y10185300D03*
X3044200D03*
X3444200Y9685300D03*
X3244200D03*
X3144200D03*
X3344200Y9985300D03*
Y9885300D03*
X3444200D03*
X3344200Y9785300D03*
X3244200Y10085300D03*
X3044200D03*
X3244200Y9885300D03*
Y9985300D03*
Y10585300D03*
X3044200D03*
Y10385300D03*
X3444200D03*
Y10585300D03*
X3044200Y10485300D03*
X3144200D03*
X3044200Y10685300D03*
X3144200D03*
X3344200Y10385300D03*
X3244200D03*
X3344200Y10685300D03*
Y10585300D03*
X3144200D03*
Y10385300D03*
X3444200Y10985300D03*
X3244200Y11285300D03*
X3044200Y10785300D03*
X3444200Y11085300D03*
Y11185300D03*
X3344200Y10985300D03*
Y11185300D03*
X3244200D03*
X3044200D03*
X3244200Y10885300D03*
Y11085300D03*
X3444200Y11285300D03*
X3044200D03*
X3244200Y10985300D03*
X3444200Y10885300D03*
X3144200Y11185300D03*
Y11085300D03*
X3044200Y10985300D03*
X3344200Y10885300D03*
Y10785300D03*
X3044200Y11085300D03*
X3144200Y10985300D03*
X3044200Y10885300D03*
X3144200D03*
X3444200Y10785300D03*
X3144200D03*
X3344200Y11085300D03*
X3284600Y11594200D03*
X3386200D03*
X3348100Y11454500D03*
X3081400Y11581500D03*
X3386200Y11683100D03*
X3284600D03*
X3475100Y11429100D03*
X3194200Y11423000D03*
X3284600Y12229200D03*
X3386200D03*
X3133950Y12355490D03*
X3144200Y12877600D03*
X3500500Y12673700D03*
X3348100Y12699100D03*
X3233800Y12495900D03*
X3475100Y13550000D03*
X3348100Y13372200D03*
X3271900Y13458930D03*
Y13550000D03*
X3144200Y13308000D03*
X3297300Y14680300D03*
X3290360Y15201090D03*
X3295130Y14872280D03*
X3355120Y14771910D03*
X3005200Y14769200D03*
X2951850Y14973600D03*
X3014500Y15075950D03*
X3015930Y14873600D03*
X3011320Y15265700D03*
X3394500Y15675300D03*
X3287510Y15669950D03*
X3285500Y15527590D03*
X3328500Y15425950D03*
X3003470Y15559040D03*
X3015930Y15673600D03*
X3017090Y15873600D03*
X3011320Y15373600D03*
X2981050Y15773600D03*
X3488650Y16390550D03*
X3285760Y16069950D03*
X2981270Y16173600D03*
X2994010Y16353630D03*
X3015930Y16073600D03*
X3404720Y16166730D03*
X2983170Y15973600D03*
X3022190Y16619330D03*
X3477020Y16604490D03*
X3476050Y16723180D03*
X2991950Y16954600D03*
X3128700Y16831150D03*
X2995420Y16463760D03*
X3209210Y16717240D03*
X3282920Y17369950D03*
X3056000Y17487000D03*
X3004910Y17073360D03*
X3282670Y17224470D03*
X3337330Y17122020D03*
X3398900Y17017100D03*
X3282920Y17019950D03*
X3005960Y17280860D03*
X2962900Y17180020D03*
X3144900Y17487000D03*
X2954220Y17374670D03*
X3043300Y17652100D03*
X3369200Y17660300D03*
X3444200Y18835300D03*
X3344200Y19285300D03*
Y19035300D03*
X3071240Y19679020D03*
X3068700Y19460580D03*
X3195700D03*
X3344200Y19785300D03*
X3076320Y20052400D03*
X3394200Y20335300D03*
X3344200Y20085300D03*
X2949320Y20052400D03*
X3686000Y625000D03*
X4035000Y579000D03*
X3627500Y1650100D03*
X3767200Y1604500D03*
X4022820Y2577200D03*
X3923760D03*
X3652900Y6069700D03*
X3602100Y5866500D03*
X3884700Y5701400D03*
X3538610Y6107800D03*
X3589400Y6184000D03*
X3538600Y6006200D03*
X3884700Y5984000D03*
X4033900Y6615800D03*
X3957700Y6692000D03*
X3881500Y6615800D03*
X3792600Y6692000D03*
X3678300Y6311000D03*
X3919200Y6460300D03*
X3643200Y6831700D03*
X3881700Y7204380D03*
X3643200Y7174600D03*
X3780700Y7263500D03*
X3995800D03*
X4046600Y7200000D03*
X3941600Y7603000D03*
X3805000Y7644800D03*
X3856100Y8317600D03*
X3652900Y8152500D03*
X3678300Y8647800D03*
X3983100Y8749400D03*
X3678300Y8800200D03*
X3868800Y8876400D03*
X3983100Y9003400D03*
X3844200Y9585300D03*
X3644200Y9285300D03*
X3983100Y9092300D03*
X3744200Y9485300D03*
Y9585300D03*
Y9385300D03*
Y9285300D03*
X3644200Y9585300D03*
X4044200D03*
X3844200Y9285300D03*
Y9485300D03*
X4044200Y9385300D03*
Y9285300D03*
X3644200Y9485300D03*
Y9385300D03*
X3544200Y9485300D03*
Y9385300D03*
Y9585300D03*
X3844200Y9385300D03*
X3644200Y9985300D03*
X3844200D03*
Y10185300D03*
X4044200Y10085300D03*
X3544200Y9785300D03*
X4044200Y9685300D03*
X3844200Y10085300D03*
X4044200Y10185300D03*
X3644200D03*
X3744200D03*
X3644200Y9885300D03*
X3844200D03*
X3544200Y9985300D03*
X3744200Y9685300D03*
X3844200D03*
Y9785300D03*
X3644200Y9685300D03*
X3544200D03*
X4044200Y9885300D03*
X3744200D03*
X4044200Y10585300D03*
Y10385300D03*
X3844200Y10485300D03*
X3744200Y10585300D03*
Y10385300D03*
X3644200Y10485300D03*
Y10285300D03*
Y10685300D03*
X3844200Y10585300D03*
Y10385300D03*
X4044200Y10485300D03*
X3644200Y10585300D03*
X3744200Y10485300D03*
X3644200Y10385300D03*
X3744200Y10685300D03*
X3544200D03*
X3944200D03*
X3844200Y10985300D03*
X3644200Y11285300D03*
X3944200Y10885300D03*
Y10985300D03*
X4044200Y11085300D03*
Y11185300D03*
X3844200Y10885300D03*
Y11085300D03*
X3744200Y10885300D03*
Y10985300D03*
Y11085300D03*
Y11185300D03*
X3644200Y10885300D03*
Y11085300D03*
Y11185300D03*
X3544200Y10885300D03*
Y10985300D03*
Y11085300D03*
X3538600Y11187800D03*
X3543400Y11287700D03*
X3644200Y10985300D03*
X3844200Y10785300D03*
Y11285300D03*
X3640200Y11568800D03*
X3694200Y12305400D03*
X3892900Y12624200D03*
X3671770Y12762600D03*
X3577920D03*
X3607200Y13075000D03*
X4046600Y13486500D03*
X3995800Y13384900D03*
X3970400Y13296000D03*
X3899500Y13588100D03*
X3830700Y13372200D03*
X3805300Y13461100D03*
X3741800Y13537300D03*
X3602100Y13372200D03*
X3551300Y13435700D03*
X3702500Y13256700D03*
X3892900Y13256600D03*
X3868800Y13677000D03*
X3676550Y13740500D03*
X3602100Y13626200D03*
X3576700Y14680300D03*
X3779900D03*
X3578920Y15138950D03*
X3580920Y15263950D03*
X3869200Y14860300D03*
X3576700Y15442300D03*
X3687480Y15769950D03*
X3844200Y15485300D03*
X3596250Y16064400D03*
X3690330Y15969950D03*
X3679250Y16269950D03*
X3894200Y16410300D03*
X3691000Y16521800D03*
X3869200Y16685300D03*
X3589120Y16449660D03*
X3729100Y17550500D03*
X3944200Y17560300D03*
X3894200Y17185300D03*
X3617340Y19681560D03*
X3871340D03*
X3998340D03*
X3995800Y19463120D03*
X3744340Y19681560D03*
X3868800Y19463120D03*
X3741800D03*
X3617340Y20072720D03*
X3744340D03*
X3998340D03*
X3871340D03*
X3894200Y20335300D03*
X4135500Y354700D03*
X4134700Y252300D03*
X4427600Y530500D03*
X4278960Y2484540D03*
X4582540Y2994300D03*
X4440300Y2945500D03*
X4351400Y4896220D03*
X4304880Y4791280D03*
X4597780Y5072020D03*
X4284700Y5701400D03*
X4440300Y6724700D03*
Y6978700D03*
X4414900Y7230600D03*
X4326000Y7434800D03*
X4503800Y7415900D03*
X4351400Y7644800D03*
X4194200Y8441000D03*
X4554600Y8292200D03*
X4614800Y7946000D03*
X4338730Y8273640D03*
X4338700Y8358350D03*
X4351400Y8470000D03*
X4193930Y8961000D03*
X4444200Y8622400D03*
X4594200D03*
X4444200Y8952600D03*
X4594200D03*
X4644200Y9085300D03*
Y9285300D03*
Y9385300D03*
Y9585300D03*
X4344200D03*
X4144200Y9285300D03*
X4644200Y9485300D03*
X4544200Y9285300D03*
Y9085300D03*
Y9385300D03*
Y9485300D03*
X4444200Y9085300D03*
Y9585300D03*
X4244200Y9385300D03*
X4144200Y9585300D03*
Y9485300D03*
X4244200D03*
X4344200Y9285300D03*
X4544200Y9585300D03*
X4344200Y9085300D03*
Y9385300D03*
Y9485300D03*
X4244200Y9085300D03*
Y9285300D03*
X4444200Y9385300D03*
Y9485300D03*
X4144200Y9385300D03*
Y10185300D03*
X4644200Y10085300D03*
X4544200Y9785300D03*
X4144200Y9685300D03*
X4244200Y9985300D03*
X4144200Y10085300D03*
X4644200Y9885300D03*
Y9685300D03*
X4344200Y10085300D03*
X4444200Y9985300D03*
X4144200Y9885300D03*
X4344200Y9685300D03*
X4644200Y9785300D03*
X4244200Y9885300D03*
Y10385300D03*
X4144200Y10485300D03*
X4644200Y10585300D03*
X4144200Y10285300D03*
Y10385300D03*
X4244200Y10485300D03*
X4144200Y10585300D03*
X4644200Y10385300D03*
X4544200Y10285300D03*
X4444200Y10485300D03*
X4344200Y10385300D03*
X4644200Y10485300D03*
Y10285300D03*
X4344200Y10985300D03*
X4144200Y11285300D03*
Y10885300D03*
X4544200Y11285300D03*
X4444200Y10985300D03*
Y11085300D03*
Y11185300D03*
X4344200D03*
X4244200Y10885300D03*
Y10985300D03*
Y11085300D03*
Y11185300D03*
X4144200Y11085300D03*
Y11185300D03*
X4544200Y11085300D03*
Y11185300D03*
X4444200Y10885300D03*
X4544200Y10985300D03*
X4646600Y10786100D03*
X4344200Y11285300D03*
X4144200Y10985300D03*
X4446600Y10786100D03*
X4544200Y10885300D03*
X4344200Y11085300D03*
X4287970Y11834700D03*
X4287900Y11479900D03*
X4444510Y11837000D03*
X4544060Y11838870D03*
X4444310Y11597010D03*
X4544390Y11594050D03*
X4290590Y11599300D03*
X4637150Y12997550D03*
X4592700Y13473800D03*
X4414900Y13270600D03*
X4351400Y13181700D03*
X4199000Y13397600D03*
X4135500Y13245200D03*
X4099500Y13359500D03*
X4448450Y14062550D03*
X4449500Y14678320D03*
X4544200Y15210300D03*
X4224400Y14743800D03*
X4419200Y16410300D03*
X4097400Y16902800D03*
X4419200Y17010300D03*
Y17560300D03*
X4499500Y17713900D03*
X4125340Y19681560D03*
X4249800Y19463120D03*
X4122800D03*
X4506340Y19681560D03*
X4633340D03*
X4503800Y19463120D03*
X4630800D03*
X4252340Y19681560D03*
X4379340D03*
X4376800Y19463120D03*
X4125340Y20072720D03*
X4379340D03*
X4252340D03*
X4633340D03*
X4506340D03*
X4344200Y20335300D03*
X4658060Y-115200D03*
X5039740Y2094300D03*
X5054980Y4172020D03*
X4814620Y4412020D03*
X4748300Y5701400D03*
X5148300D03*
X4748300Y5984000D03*
X4969200Y6460300D03*
X4808600Y6724700D03*
X5164200Y6722600D03*
Y7232700D03*
X4841500Y7598900D03*
X5108200D03*
X4882100Y7829400D03*
X4994200Y8355700D03*
X4844200Y8398000D03*
X4745100Y8660500D03*
Y8914500D03*
X4744200Y9085300D03*
X5144200Y9485300D03*
X4944200D03*
X4744200D03*
X5049900Y9179600D03*
X4944200Y9585300D03*
X4844200Y9285300D03*
X4944200D03*
X4744200Y9385300D03*
X4845000Y9082900D03*
X4945000D03*
X4844200Y9385300D03*
X4744200Y9585300D03*
X5144200Y9385300D03*
X4744200Y9285300D03*
X5144200Y9585300D03*
X4844200D03*
Y9485300D03*
X4744200Y9785300D03*
X4944200Y9985300D03*
Y10185300D03*
Y9785300D03*
X5144200Y10185300D03*
X4844200D03*
X5144200Y9885300D03*
Y9785300D03*
X4744200Y9885300D03*
X4844200Y9685300D03*
X5144200D03*
X4744200Y10185300D03*
X4844200Y10085300D03*
X5144200D03*
Y9985300D03*
X4844200Y9885300D03*
X4944200D03*
X4844200Y9785300D03*
X4744200Y9685300D03*
X4944200D03*
X4744200Y10085300D03*
X4944200D03*
X4844200Y9985300D03*
X4744200D03*
X4944200Y10485300D03*
X5144200Y10385300D03*
X4944200D03*
X5144200Y10485300D03*
X4844200D03*
X4944200Y10685300D03*
X5144200D03*
X4844200Y10585300D03*
X4744200Y10485300D03*
X4844200Y10385300D03*
Y10685300D03*
X4744200Y10585300D03*
Y10385300D03*
Y11085300D03*
X4746600Y10786100D03*
X4944200Y10885300D03*
X4744200Y11185300D03*
X5192650Y10895700D03*
X4844200Y10885300D03*
Y10985300D03*
X4744200Y10885300D03*
X5144200Y10985300D03*
X4944200D03*
X4744200Y11285300D03*
X4944200Y11085300D03*
X4844200D03*
X4840550Y11180850D03*
X4944200Y11485300D03*
X5044200D03*
X4836000Y11605300D03*
Y11930700D03*
X4994200Y11937100D03*
X5176870Y11933980D03*
X5100700Y12978500D03*
X4891150Y12972150D03*
X5202300Y13397600D03*
X5099500Y13462300D03*
X5056250Y13588100D03*
X4846700Y13575400D03*
X4745100Y13410300D03*
X4694300Y13283300D03*
X4795900Y14083400D03*
X5172330Y14875920D03*
X4913570Y15123920D03*
X5136990Y14995480D03*
X4969200Y14785300D03*
X4869200Y16060300D03*
Y16410300D03*
Y17010300D03*
Y17560300D03*
X5144200Y18835300D03*
X4760340Y19681560D03*
X4757800Y19463120D03*
X5014340Y19681560D03*
X5138800Y19463120D03*
X4887340Y19681560D03*
X5011800Y19463120D03*
X4884800D03*
X4760340Y20072720D03*
X4887340D03*
X5014340D03*
X4794200Y20335300D03*
X5789340Y376140D03*
Y223740D03*
Y300500D03*
X5416780D03*
Y377260D03*
Y224860D03*
X5603060Y114220D03*
X5526300D03*
X5678700D03*
X5527420Y486780D03*
X5679820D03*
X5603060D03*
X5342000Y530500D03*
X5532500Y1424040D03*
Y1523100D03*
X5571720Y2764300D03*
Y2688660D03*
X5758000Y2578020D03*
X5681240D03*
X5571720Y2841060D03*
X5682360Y2950580D03*
X5758000D03*
X5496940Y2994300D03*
X5555360Y3697340D03*
Y3796400D03*
X5773240Y5028300D03*
X5697600D03*
X5773240Y4655740D03*
X5696480D03*
X5586960Y4842020D03*
Y4918780D03*
Y4766380D03*
X5512180Y5072020D03*
X5559640Y5991080D03*
Y6090140D03*
X5383300Y6768200D03*
X5544600Y6793600D03*
X5278500Y7230600D03*
X5253100Y7066300D03*
X5631500Y7555600D03*
X5541500D03*
X5764300Y7596900D03*
X5294200Y8238400D03*
X5669200Y8241400D03*
X5494200Y8241200D03*
X5392800Y8838300D03*
Y8939900D03*
X5659500Y9117700D03*
X5583300Y9168500D03*
X5772100Y9335300D03*
X5773100Y9485300D03*
X5418900D03*
X5684900Y9757400D03*
X5768600Y9630900D03*
X5410200Y9757400D03*
X5425700Y9630900D03*
X5773800Y10679800D03*
X5678590Y10693720D03*
X5634100Y11085300D03*
X5586300Y10936800D03*
X5319600D03*
X5659500Y11314800D03*
X5278500Y11086200D03*
X5352500Y11659900D03*
X5748400Y11530700D03*
X5612500Y11852020D03*
X5596000Y11378300D03*
X5507100Y13270600D03*
X5443600Y13359500D03*
X5761100Y13283300D03*
X5596000Y13423000D03*
X5494400Y13867500D03*
X5299500Y13626200D03*
X5249500Y13702400D03*
X5697600D03*
X5696650Y14920610D03*
X5734570Y15219360D03*
X5288900Y15131220D03*
X5704250Y15472290D03*
X5390060Y16169950D03*
X5596540Y16036710D03*
X5704500Y16357510D03*
X5405500Y15953950D03*
X5369200Y16410300D03*
X5709680Y16514290D03*
X5508640Y16688150D03*
X5409440Y16919950D03*
X5240680Y17069950D03*
X5601400Y17119950D03*
X5756710Y17255380D03*
X5498390Y17475640D03*
X5354500Y17258370D03*
X5294200Y19285300D03*
X5244200Y19035300D03*
X5674740Y19679020D03*
X5294200Y19785300D03*
X5672200Y20075260D03*
X5545200D03*
X5294200Y20335300D03*
Y20085300D03*
X6131140Y-399560D03*
X6171780Y1873740D03*
X5944280Y2687540D03*
Y2764300D03*
X5833640Y2578020D03*
X5944280Y2839940D03*
X5834760Y2950580D03*
X6187020Y4167360D03*
X5850000Y5028300D03*
X5848880Y4655740D03*
X5959520Y4917660D03*
Y4765260D03*
Y4842020D03*
X6344200Y6735300D03*
X5844200D03*
X6192900Y7161900D03*
X6015100D03*
X6192900Y6966900D03*
X6197600Y7661900D03*
X5994200Y7839500D03*
X6194200Y7836300D03*
X6010400Y7661900D03*
X6345300Y8444600D03*
X5926200Y8939900D03*
Y8851000D03*
X6244200Y8835300D03*
X6194200Y8583000D03*
X6345300Y8533500D03*
X6319900Y8622400D03*
X6056700Y10095600D03*
X6218300Y10502000D03*
X6034330Y10438500D03*
X6128180D03*
X5950380Y10489300D03*
X5856530D03*
X6034330Y10692500D03*
X6128180D03*
X5799200Y11264000D03*
X6218300Y11022700D03*
X6090200Y11860900D03*
X6234400Y11755900D03*
X6180200Y11327500D03*
X6319200Y12110300D03*
X6243700Y12755100D03*
X5913500Y12838800D03*
X6243700Y12628100D03*
Y13263100D03*
X6096380Y13097880D03*
X6243700Y13390100D03*
X6167490Y14045290D03*
X5989700Y13664300D03*
X6152560Y14536850D03*
X6194200Y14260300D03*
X6297430Y14585630D03*
X5968320Y15122750D03*
X5967860Y14923600D03*
X5869690Y15244170D03*
X5860470Y15023700D03*
X5932840Y15573600D03*
X5932380Y15467020D03*
X5951370Y15754000D03*
X5842500Y15665580D03*
X5930500Y15362890D03*
X5949500Y15869950D03*
X5899950Y15973600D03*
X5953070Y16223600D03*
X5868800Y16354310D03*
X5945500Y16424770D03*
X6355070Y16023600D03*
X5950900Y16073600D03*
X5952320Y16874560D03*
X6355500Y16623320D03*
X5944100Y16532580D03*
X5950610Y17002340D03*
X5949500Y16719950D03*
X5839640Y17375030D03*
X6356500Y17023600D03*
X5949500Y17119950D03*
X5944500Y17474950D03*
X5943440Y17323110D03*
X5944330Y17602080D03*
X6319200Y17885300D03*
X5799500Y17673500D03*
X5926200Y19460580D03*
X5928740Y19679020D03*
X6055740D03*
X6182740D03*
X6309740D03*
X6307200Y19460580D03*
X6180200D03*
X6053200D03*
X5801740Y19679020D03*
X5799200Y19460580D03*
X6307200Y20075260D03*
X6180200D03*
X6053200D03*
X5926200D03*
X6294200Y20335300D03*
X5799200Y20075260D03*
X5794200Y20335300D03*
X6766140Y-145560D03*
X6639140D03*
X6512140D03*
X6893140Y-272560D03*
X6766140Y-18560D03*
X6639140D03*
X6766140Y108440D03*
X6639140D03*
X6766140Y235440D03*
X6639140D03*
X6766140Y362440D03*
X6639140D03*
X6893140Y108440D03*
Y235440D03*
Y362440D03*
X6766140Y489440D03*
X6639140D03*
X6893140D03*
X6766140Y616440D03*
X6639140D03*
X6766140Y743440D03*
X6639140D03*
X6766140Y870440D03*
X6639140D03*
Y997440D03*
X6766140D03*
X6893140Y616440D03*
Y743440D03*
Y870440D03*
Y997440D03*
X6766140Y1124440D03*
X6639140D03*
X6893140D03*
X6806780Y2127740D03*
X6679780D03*
X6621480Y1745440D03*
X6720540D03*
X6552780Y2127740D03*
X6806780Y2254740D03*
X6679780D03*
X6806780Y2381740D03*
X6679780D03*
X6806780Y2508740D03*
X6679780D03*
X6806780Y2635740D03*
X6679780D03*
X6806780Y2762740D03*
X6679780D03*
X6806780Y2889740D03*
X6679780D03*
X6806780Y3016740D03*
X6679780D03*
X6806780Y3143740D03*
X6679780D03*
Y3270740D03*
X6806780D03*
Y3397740D03*
X6679780D03*
X6695020Y4421360D03*
X6822020D03*
X6659580Y4021280D03*
X6758640D03*
X6568020Y4421360D03*
X6822020Y4548360D03*
X6695020D03*
X6822020Y4675360D03*
X6695020D03*
X6822020Y4802360D03*
X6695020D03*
X6822020Y4929360D03*
X6695020D03*
X6822020Y5056360D03*
X6695020D03*
X6822020Y5183360D03*
X6695020D03*
X6822020Y5310360D03*
X6695020D03*
X6822020Y5437360D03*
X6695020D03*
Y5564360D03*
X6822020D03*
X6695020Y5691360D03*
X6822020D03*
X6772140Y6319420D03*
X6673080D03*
X6840600Y6730220D03*
X6824300Y7285300D03*
X6510970Y6780900D03*
X6510400Y6882500D03*
X6815200Y7025800D03*
X6535800Y7294800D03*
X6827900Y7441300D03*
Y7530200D03*
X6815200Y7675800D03*
X6777100Y7885300D03*
X6497700D03*
X6459400Y7466900D03*
X6461030Y7643070D03*
X6485000Y7570050D03*
X6418000Y8444600D03*
X6485000Y8025500D03*
X6480470Y8114930D03*
X6456700Y10095600D03*
X6627100Y10110700D03*
X6916800Y10095600D03*
X6757500Y11258200D03*
X6612000Y11276700D03*
X6502900Y11754100D03*
X6676600Y11950900D03*
X6744200Y12460300D03*
Y12885300D03*
X6769200Y13185300D03*
X6535790Y13930980D03*
X6364350Y13924650D03*
X6894200Y13935300D03*
X6544200Y13610300D03*
X6707260Y13988160D03*
X6419620Y14778250D03*
X6736170Y15669950D03*
X6731520Y15819950D03*
X6429660Y15745060D03*
X6373910Y15650770D03*
X6735500Y15940630D03*
Y16094550D03*
X6643830Y16348550D03*
X6430760Y16158180D03*
X6430780Y15923600D03*
Y16275890D03*
X6472300Y16483700D03*
X6396970Y16824270D03*
X6725560Y17172460D03*
X6396970Y17173600D03*
X6794200Y18835300D03*
X6436740Y19679020D03*
X6434200Y19460580D03*
X6563740Y19679020D03*
X6690740D03*
X6817740D03*
X6561200Y19460580D03*
X6815200D03*
X6688200D03*
X6434200Y20075260D03*
X6815200D03*
X6688200D03*
X6561200D03*
X6794200Y20335300D03*
X7401140Y-272560D03*
X6966160Y-155720D03*
X7020140Y235440D03*
Y362440D03*
X7147140Y108440D03*
X7020140Y489440D03*
X7147140D03*
X7401140D03*
Y362440D03*
X7274140D03*
X7020140Y616440D03*
Y743440D03*
Y870440D03*
Y997440D03*
X7147140Y616440D03*
Y743440D03*
Y870440D03*
Y997440D03*
X7401140Y616440D03*
Y743440D03*
Y870440D03*
Y997440D03*
X7020140Y1124440D03*
X7147140D03*
X7360100Y1442060D03*
Y1541120D03*
X7401140Y1124440D03*
X7020260Y1745440D03*
X7119320D03*
X7441780Y2000740D03*
X7006800Y2117580D03*
X6933780Y2000740D03*
X7060780Y2508740D03*
Y2635740D03*
Y2762740D03*
X7187780Y2381740D03*
Y2762740D03*
X6933780Y2381740D03*
Y2508740D03*
Y2635740D03*
Y2762740D03*
X7441780D03*
X7314780Y2635740D03*
X7441780D03*
X7060780Y2889740D03*
X7187780D03*
X7060780Y3016740D03*
Y3143740D03*
Y3270740D03*
X7187780Y3016740D03*
Y3143740D03*
Y3270740D03*
X6933780Y2889740D03*
Y3016740D03*
Y3143740D03*
Y3270740D03*
X7441780Y2889740D03*
Y3016740D03*
Y3143740D03*
Y3270740D03*
X7060780Y3397740D03*
X7187780D03*
X6933780D03*
X7441780D03*
X7398200Y3715360D03*
Y3814420D03*
X7060900Y4021280D03*
X7159960D03*
X7457020Y4294360D03*
X7022040Y4411200D03*
X6946390Y4293440D03*
X6949020Y4675360D03*
Y4802360D03*
Y4929360D03*
Y5056360D03*
X7076020Y4802360D03*
Y4929360D03*
Y5056360D03*
X7203020Y4675360D03*
Y5056360D03*
X7457020D03*
X7330020Y4929360D03*
X7457020D03*
X6949020Y5183360D03*
Y5310360D03*
Y5437360D03*
X7076020Y5183360D03*
Y5310360D03*
Y5437360D03*
X7203020Y5183360D03*
Y5310360D03*
Y5437360D03*
X6949020Y5564360D03*
X7076020D03*
X7203020D03*
X7457020Y5183360D03*
Y5310360D03*
Y5437360D03*
Y5564360D03*
X6949020Y5691360D03*
X7076020D03*
X7203020D03*
X7457020D03*
X7414900Y6008320D03*
Y6107380D03*
X7178540Y6319420D03*
X7079480D03*
X6967600Y6730100D03*
X7479200Y6644800D03*
X7069200Y7294800D03*
X7494200Y7160300D03*
X6944200D03*
X7056500Y6793600D03*
Y6882500D03*
X7488300Y7301600D03*
X7491900Y7025800D03*
X7394200Y7710300D03*
X7069200Y7441300D03*
Y7530200D03*
X7361300Y7898500D03*
X7138500Y8476900D03*
X7361300Y8000100D03*
X7228500Y8476900D03*
X7043800Y8152500D03*
Y8254100D03*
X7374000Y8609700D03*
X7269200Y9735300D03*
Y11010300D03*
X7365090Y11721200D03*
X7412100Y11657700D03*
X7145680Y11657980D03*
X7081900Y11733900D03*
X7132700Y12295600D03*
X7494200Y11960300D03*
X7119200D03*
X7178300Y12755100D03*
X7165600Y12628100D03*
X7170800Y13257900D03*
X7494200Y13860300D03*
X7183500Y13854800D03*
X7202550Y14051650D03*
X7194200Y14260300D03*
X7319200Y17685300D03*
Y18285300D03*
X7294200Y18835300D03*
X7494200Y19085300D03*
X7069200Y19460580D03*
X7071740Y19679020D03*
X7196200Y19460580D03*
X7294200Y19335300D03*
X7494200Y19585300D03*
X6944740Y19679020D03*
X6942200Y19460580D03*
X7294200Y20335300D03*
Y20035300D03*
X6942200Y20075260D03*
X7763700Y-128000D03*
X7528140Y489440D03*
X7655140D03*
X7763680Y391840D03*
Y264840D03*
X7718640Y44940D03*
X7528140Y-18560D03*
X7763120Y745420D03*
Y618420D03*
X7761540Y964980D03*
X7528140Y616440D03*
Y743440D03*
Y870440D03*
Y997440D03*
X7655140Y616440D03*
Y743440D03*
Y870440D03*
Y997440D03*
X7528140Y1124440D03*
X7655140D03*
X7761540Y1091980D03*
X7815160Y2150600D03*
X7568780Y2762740D03*
X7695780D03*
X7804720Y2666780D03*
Y2539780D03*
X7759280Y2318240D03*
X7568780Y2254740D03*
X7804720Y3017300D03*
Y2890300D03*
X7568780Y2889740D03*
X7695780D03*
X7802180Y3240820D03*
X7568780Y3016740D03*
Y3143740D03*
Y3270740D03*
X7695780Y3016740D03*
Y3143740D03*
Y3270740D03*
X7568780Y3397740D03*
X7695780D03*
X7802180Y3367820D03*
X7830400Y4444220D03*
X7584020Y5056360D03*
X7711020D03*
X7774520Y4611860D03*
X7818500Y4960360D03*
Y4833360D03*
X7584020Y4548360D03*
X7818500Y5183360D03*
Y5310360D03*
X7584020Y5183360D03*
Y5310360D03*
Y5437360D03*
X7711020Y5183360D03*
Y5310360D03*
Y5437360D03*
X7818500Y5564360D03*
X7584020D03*
X7711020D03*
X7584020Y5691360D03*
X7711020D03*
X7818500D03*
X8034400Y6644800D03*
X7767300Y7035300D03*
X7755000Y7675800D03*
X8034400Y7894800D03*
X7755000Y8275800D03*
X8015900Y8285300D03*
X7988550Y8444600D03*
X7894700D03*
X7780400Y8038200D03*
Y8139800D03*
X7767700Y8597000D03*
X7744200Y9735300D03*
X7894200Y11610300D03*
X7819200Y12260300D03*
X7536200Y12295600D03*
X7819200Y12960300D03*
X7501000Y12628100D03*
X7819200Y13485300D03*
Y14235300D03*
X7694200Y18835300D03*
Y19835300D03*
Y19335300D03*
Y20335300D03*
Y20035300D03*
X8019200Y20285300D03*
X8148700Y-282720D03*
X8288400Y396240D03*
Y297180D03*
Y47360D03*
Y-51700D03*
X8285380Y749820D03*
Y650760D03*
X8283800Y997320D03*
X8288400Y1434200D03*
Y1548500D03*
X8283800Y1096380D03*
X8326980Y2221600D03*
X8199500Y1990580D03*
X8326980Y2671180D03*
Y2572120D03*
Y2320660D03*
Y3021700D03*
Y2922640D03*
X8324440Y3273160D03*
X8329040Y3821800D03*
Y3707500D03*
X8324440Y3372220D03*
X8199500Y4284200D03*
X8340760Y4614760D03*
Y4515700D03*
Y4964760D03*
Y4865700D03*
Y5314760D03*
Y5215700D03*
Y5565700D03*
X8343200Y6114760D03*
Y6000460D03*
X8340760Y5664760D03*
X8534400Y6654800D03*
X8293100Y6793600D03*
Y6896100D03*
X8420100Y6946900D03*
X8288400Y7428600D03*
X8287840Y7549740D03*
X8288400Y8285300D03*
X8094200Y9885300D03*
X8369200Y10460300D03*
X8294200Y11460300D03*
X8194200Y11910300D03*
X8344200Y13485300D03*
X8094200Y13860300D03*
X8344200Y14235300D03*
X8194200Y14685300D03*
Y15285300D03*
Y16285300D03*
Y17285300D03*
Y18285300D03*
Y18985300D03*
X8819200Y15285300D03*
Y16285300D03*
Y17285300D03*
Y18285300D03*
Y19285300D03*
Y20285300D03*
X9478860Y2377340D03*
X9471240Y3286660D03*
X9619200Y14685300D03*
Y15285300D03*
Y16285300D03*
Y17285300D03*
Y18285300D03*
Y20285300D03*
G54D15*
X0Y0D03*
Y1000000D03*
Y2000000D03*
X568000D03*
X858000Y0D03*
X1108000Y2000000D03*
X1425000Y500000D03*
Y1500000D03*
Y2500000D03*
Y3500000D03*
X1900000Y0D03*
Y1000000D03*
Y2000000D03*
X2758000Y0D03*
X2468000Y2000000D03*
X3325000Y500000D03*
Y1500000D03*
X3008000Y2000000D03*
X3325000Y2500000D03*
Y3500000D03*
G54D24*
X7952500Y18157950D03*
X7698500D03*
X7952500Y17903950D03*
X7698500D03*
X7952500Y17649950D03*
X7698500D03*
G54D25*
G01X-968580Y2457690D02*
X-950430Y2459340D01*
X-937700Y2457930D01*
X-925450Y2451330D01*
X-920030Y2440250D01*
X-919790Y2428700D01*
X-923560Y2415500D01*
X-932280Y2404420D01*
X-941950Y2397110D01*
X-955150Y2393340D01*
X-969290Y2393350D01*
X-980370Y2398770D01*
X-986970Y2411020D01*
X-986730Y2427750D01*
X-978720Y2445200D01*
X-965750Y2460520D01*
X-945010Y2476550D01*
X-931570Y2482910D01*
X-915790Y2486920D01*
X-900460Y2485740D01*
X-890800Y2478910D01*
X-885380Y2467830D01*
X-886560Y2454860D01*
G01X2710870Y-1164700D02*
Y-1044700D01*
X2750870D01*
X2764200Y-1050700D01*
X2774200Y-1064700D01*
X2777530Y-1080700D01*
X2774200Y-1096700D01*
X2765870Y-1108700D01*
X2750870Y-1114700D01*
X2710870D01*
G01X2881870Y-1054700D02*
X2871870Y-1048700D01*
X2860200Y-1044700D01*
X2846870D01*
X2831860Y-1050700D01*
X2820200Y-1060700D01*
X2811870Y-1072700D01*
X2805200Y-1092700D01*
X2803530Y-1110700D01*
X2806870Y-1128700D01*
X2811870Y-1140700D01*
X2821870Y-1152700D01*
X2833530Y-1160700D01*
X2845200Y-1164700D01*
X2856870D01*
X2868530Y-1160700D01*
X2878530Y-1154700D01*
X2886870Y-1146700D01*
G01X2946200Y-1044700D02*
X2932860Y-1048700D01*
X2922870Y-1058700D01*
X2916200Y-1070700D01*
X2911200Y-1086700D01*
X2909530Y-1104700D01*
X2911200Y-1122700D01*
X2916200Y-1138700D01*
X2922870Y-1150700D01*
X2932860Y-1160700D01*
X2946200Y-1164700D01*
X2959530Y-1160700D01*
X2969530Y-1150700D01*
X2976200Y-1138700D01*
X2981200Y-1122700D01*
X2982870Y-1104700D01*
X2981200Y-1086700D01*
X2976200Y-1070700D01*
X2969530Y-1058700D01*
X2959530Y-1048700D01*
X2946200Y-1044700D01*
G01X3067200Y-1164700D02*
Y-1044700D01*
X3005530Y-1130700D01*
X3088870D01*
G01X3119870Y-1150700D02*
X3131530Y-1160700D01*
X3144870Y-1164700D01*
X3158200Y-1160700D01*
X3169870Y-1148700D01*
X3178200Y-1130700D01*
X3181530Y-1112700D01*
Y-1090700D01*
X3178200Y-1072700D01*
X3169870Y-1056700D01*
X3159870Y-1048700D01*
X3148200Y-1044700D01*
X3134860Y-1048700D01*
X3124870Y-1056700D01*
X3118200Y-1068700D01*
X3114870Y-1084700D01*
X3118200Y-1098700D01*
X3126530Y-1112700D01*
X3136530Y-1120700D01*
X3148200Y-1122700D01*
X3161530Y-1118700D01*
X3171530Y-1108700D01*
X3181530Y-1090700D01*
G01X3207530Y-1164700D02*
X3249200Y-1044700D01*
X3290870Y-1164700D01*
G01X3275870Y-1122700D02*
X3222530D01*
G01X3431200Y-1044700D02*
X3471200D01*
G01X3451200D02*
Y-1164700D01*
G01X3431200D02*
X3471200D01*
G01X3517200Y-1148700D02*
X3530530Y-1158700D01*
X3545530Y-1164700D01*
X3558870D01*
X3572200Y-1158700D01*
X3582200Y-1148700D01*
X3587200Y-1134700D01*
X3583870Y-1120700D01*
X3575530Y-1108700D01*
X3560530Y-1100700D01*
X3540530Y-1096700D01*
X3528870Y-1088700D01*
X3523870Y-1074700D01*
X3527200Y-1060700D01*
X3535530Y-1050700D01*
X3547200Y-1044700D01*
X3558870D01*
X3570530Y-1048700D01*
X3580530Y-1058700D01*
G01X3618200Y-1148700D02*
X3631530Y-1158700D01*
X3646530Y-1164700D01*
X3659870D01*
X3673200Y-1158700D01*
X3683200Y-1148700D01*
X3688200Y-1134700D01*
X3684870Y-1120700D01*
X3676530Y-1108700D01*
X3661530Y-1100700D01*
X3641530Y-1096700D01*
X3629870Y-1088700D01*
X3624870Y-1074700D01*
X3628200Y-1060700D01*
X3636530Y-1050700D01*
X3648200Y-1044700D01*
X3659870D01*
X3671530Y-1048700D01*
X3681530Y-1058700D01*
G01X3717530Y-1044700D02*
Y-1130700D01*
X3724200Y-1148700D01*
X3737530Y-1160700D01*
X3754200Y-1164700D01*
X3770870Y-1160700D01*
X3784200Y-1148700D01*
X3790870Y-1130700D01*
Y-1044700D01*
G01X3888530Y-1164700D02*
X3821870D01*
Y-1044700D01*
X3888530D01*
G01X3861870Y-1102700D02*
X3821870D01*
G01X4057200Y-1164700D02*
Y-1044700D01*
X4037200Y-1068700D01*
G01Y-1164700D02*
X4077200D01*
G01X4510870Y-1044700D02*
Y-1164700D01*
X4577530D01*
G01X4603530D02*
X4645200Y-1044700D01*
X4686870Y-1164700D01*
G01X4671870Y-1122700D02*
X4618530D01*
G01X4746200Y-1164700D02*
Y-1110700D01*
X4712870Y-1044700D01*
G01X4779530D02*
X4746200Y-1110700D01*
G01X4880530Y-1164700D02*
X4813870D01*
Y-1044700D01*
X4880530D01*
G01X4853870Y-1102700D02*
X4813870D01*
G01X4914870Y-1164700D02*
Y-1044700D01*
X4956530D01*
X4969870Y-1050700D01*
X4978200Y-1058700D01*
X4981530Y-1074700D01*
X4978200Y-1090700D01*
X4968200Y-1100700D01*
X4956530Y-1106700D01*
X4914870D01*
G01X4956530D02*
X4981530Y-1164700D01*
G01X5118530Y-1114700D02*
X5130200Y-1100700D01*
X5140200Y-1092700D01*
X5153530Y-1088700D01*
X5165200Y-1092700D01*
X5173530Y-1100700D01*
X5180200Y-1112700D01*
X5181870Y-1126700D01*
X5180200Y-1138700D01*
X5173530Y-1150700D01*
X5163530Y-1160700D01*
X5151870Y-1164700D01*
X5138530Y-1160700D01*
X5126870Y-1148700D01*
X5120200Y-1130700D01*
X5118530Y-1110700D01*
X5121870Y-1084700D01*
X5126870Y-1070700D01*
X5135200Y-1056700D01*
X5146870Y-1046700D01*
X5158530Y-1044700D01*
X5170200Y-1048700D01*
X5178530Y-1058700D01*
G01X5343870Y-1204700D02*
X5327200Y-1184700D01*
X5318870Y-1164700D01*
Y-1084700D01*
X5327200Y-1064700D01*
X5343870Y-1044700D01*
G01X5418200Y-1148700D02*
X5431530Y-1158700D01*
X5446530Y-1164700D01*
X5459870D01*
X5473200Y-1158700D01*
X5483200Y-1148700D01*
X5488200Y-1134700D01*
X5484870Y-1120700D01*
X5476530Y-1108700D01*
X5461530Y-1100700D01*
X5441530Y-1096700D01*
X5429870Y-1088700D01*
X5424870Y-1074700D01*
X5428200Y-1060700D01*
X5436530Y-1050700D01*
X5448200Y-1044700D01*
X5459870D01*
X5471530Y-1048700D01*
X5481530Y-1058700D01*
G01X5534200Y-1044700D02*
X5574200D01*
G01X5554200D02*
Y-1164700D01*
G01X5534200D02*
X5574200D01*
G01X5665200Y-1104700D02*
X5698530D01*
Y-1140700D01*
X5688530Y-1152700D01*
X5676870Y-1160700D01*
X5660200Y-1164700D01*
X5643530Y-1160700D01*
X5631870Y-1152700D01*
X5621870Y-1140700D01*
X5615200Y-1126700D01*
X5611870Y-1110700D01*
Y-1096700D01*
X5615200Y-1084700D01*
X5621870Y-1070700D01*
X5631870Y-1058700D01*
X5641860Y-1050700D01*
X5655200Y-1044700D01*
X5666870D01*
X5680200Y-1048700D01*
X5690200Y-1056700D01*
G01X5717870Y-1164700D02*
Y-1044700D01*
X5794530Y-1164700D01*
Y-1044700D01*
G01X5815530Y-1164700D02*
X5857200Y-1044700D01*
X5898870Y-1164700D01*
G01X5883870Y-1122700D02*
X5830530D01*
G01X5924870Y-1044700D02*
Y-1164700D01*
X5991530D01*
G01X6067530Y-1204700D02*
X6084200Y-1184700D01*
X6092530Y-1164700D01*
Y-1084700D01*
X6084200Y-1064700D01*
X6067530Y-1044700D01*
G54D16*
X0Y2750000D03*
Y2280000D03*
Y3250000D03*
X713000Y3710000D03*
X233000D03*
X1193000D03*
X1425000Y2750000D03*
Y2280000D03*
Y3250000D03*
X1900000Y2750000D03*
Y2280000D03*
Y3250000D03*
X2133000Y3710000D03*
X2613000D03*
X3325000Y2750000D03*
Y2280000D03*
Y3250000D03*
X3093000Y3710000D03*
G54D26*
G01X3281100Y14062550D02*
X3030600Y13812050D01*
Y12267300D01*
X3183000Y12114900D01*
Y11533240D01*
X3291950Y11424290D01*
Y10850250D01*
X3309150Y10833050D01*
X3363990D01*
X3391950Y10805090D01*
Y10285430D01*
X3639830Y10037550D01*
X3878590D01*
X3906900Y10009240D01*
Y8990700D01*
X3995800Y8901800D01*
X4643500D01*
X4744200Y9002500D01*
Y9085300D01*
G54D17*
X0Y3000000D03*
X1900000D03*
G54D27*
G01X2744200Y9585300D02*
X2695140D01*
X2622140Y9512300D01*
X486180D01*
X12840Y9038960D01*
X-693040D01*
X-769150Y8962850D01*
Y8749650D01*
X-657500Y8638000D01*
G01X3044200Y9585300D02*
X2991670Y9534350D01*
X2680130D01*
X2632680Y9486900D01*
X2632670D01*
X2632660Y9486890D01*
X2611620D01*
X2611610Y9486900D01*
X2406010D01*
X2400710Y9481600D01*
X498900D01*
X25550Y9008250D01*
X130D01*
X120Y9008260D01*
X-541240D01*
X-657500Y8892000D01*
G01X3244200Y9685300D02*
X3194200Y9735300D01*
X2613630D01*
X2493080Y9614750D01*
X2387980D01*
X2386460Y9613230D01*
X223670D01*
X35250Y9801650D01*
X-679650D01*
X-766700Y9714600D01*
Y9509200D01*
X-657500Y9400000D01*
G01Y9654000D02*
X-540550Y9770950D01*
X22530D01*
X210950Y9582530D01*
X2599600D01*
X2652520Y9635450D01*
X3062120D01*
X3062230Y9635560D01*
X3193960D01*
X3209500Y9620020D01*
Y9620000D01*
X3244200Y9585300D01*
G01X2744200Y10885300D02*
X2735400Y10895700D01*
X2390300D01*
X2376700Y10909300D01*
X1774760D01*
X1145710Y11538350D01*
X-458850D01*
X-606500Y11686000D01*
X-657500D01*
G01X3044200Y10885300D02*
X2994200Y10935300D01*
X2394130D01*
X2389430Y10940000D01*
X1779990D01*
X1156240Y11563750D01*
X-448320D01*
X-551150Y11666580D01*
Y11833650D01*
X-657500Y11940000D01*
G01X3144200Y11085300D02*
X3096450Y11133050D01*
X2734290D01*
X2692240Y11175100D01*
X2393280D01*
X2387980Y11180400D01*
X1836820D01*
X681120Y12336100D01*
X-761730D01*
X-794550Y12368920D01*
Y12546950D01*
X-781850Y12559650D01*
X-769150D01*
X-657500Y12448000D01*
G01X3144200Y10985300D02*
X3096450Y11033050D01*
X2798360D01*
X2681710Y11149700D01*
X1824100D01*
X668400Y12305400D01*
X-774450D01*
X-825250Y12356200D01*
Y12559670D01*
X-794570Y12590350D01*
X-769150D01*
X-657500Y12702000D01*
G01Y13210000D02*
X-536850Y13330650D01*
X148850D01*
X594200Y12885300D01*
Y12501520D01*
X1868920Y11226800D01*
X2703840D01*
X2744200Y11185300D01*
G01X-657500Y13464000D02*
X-549550Y13356050D01*
X159380D01*
X619600Y12895830D01*
Y12512050D01*
X1879450Y11252200D01*
X2877990D01*
X2944200Y11185300D01*
G01X-149500Y7114000D02*
X-271400Y7235900D01*
Y7415900D01*
X-182500Y7504800D01*
X427100D01*
X2014600Y9092300D01*
X2390500D01*
X2390550Y9092250D01*
X2426920D01*
X2597620Y9262950D01*
X2705950D01*
X2728300Y9285300D01*
X2744200D01*
G01Y9485300D02*
X2659250Y9400350D01*
Y9351910D01*
X2628240Y9320900D01*
X2388860D01*
X2344260Y9276300D01*
X1766800D01*
X998600Y8508100D01*
X541400D01*
X305380Y8272080D01*
X-202630D01*
X-220600Y8254110D01*
Y8254100D01*
X-271400Y8203300D01*
Y7997900D01*
X-149500Y7876000D01*
G01Y7368000D02*
X-50800Y7466700D01*
X432420D01*
X2027320Y9061600D01*
X2389250D01*
X2394500Y9066850D01*
X2437450D01*
X2608150Y9237550D01*
X2761830D01*
X2809580Y9285300D01*
X2944200D01*
G01X3044200Y9485300D02*
Y9400540D01*
X2979800Y9336140D01*
X2727510D01*
X2686870Y9295500D01*
X2399400D01*
X2349500Y9245600D01*
X1779520D01*
X1011320Y8477400D01*
X554120D01*
X318100Y8241380D01*
X-38120D01*
X-149500Y8130000D01*
G01Y10162000D02*
X-37850Y10273650D01*
X351150D01*
X414400Y10336900D01*
X922380D01*
X1214480Y10044800D01*
X1595500D01*
X1653750Y10103050D01*
X2300040D01*
X2419090Y10222100D01*
Y10229590D01*
X2457700Y10268200D01*
X2680200D01*
X2715350Y10233050D01*
X2985660D01*
X3064110Y10311500D01*
X3181580D01*
X3207830Y10337750D01*
X3209250D01*
X3209300Y10337800D01*
X3264240D01*
X3291950Y10365510D01*
Y10599710D01*
X3225650Y10666010D01*
Y10734680D01*
X3276270Y10785300D01*
X3344200D01*
G01X-149500Y10416000D02*
X-37850Y10304350D01*
X338430D01*
X401680Y10367600D01*
X935100D01*
X1227200Y10075500D01*
X1582780D01*
X1641030Y10133750D01*
X2287320D01*
X2447170Y10293600D01*
X2669800D01*
X2710050Y10333850D01*
X3050530D01*
X3053580Y10336900D01*
X3171050D01*
X3200250Y10366100D01*
Y10403510D01*
X3238500Y10441760D01*
Y10492910D01*
X3200250Y10531150D01*
Y10729250D01*
X3144200Y10785300D01*
G01X-149500Y10924000D02*
X-45000Y10819500D01*
X236600D01*
X401700Y10984600D01*
X1481200D01*
X1675990Y10789810D01*
Y10789800D01*
X1702950Y10762840D01*
X2461030D01*
X2501090Y10802900D01*
X2665750D01*
X2700400Y10837550D01*
X3067880D01*
X3091950Y10861620D01*
Y10937550D01*
X3044200Y10985300D01*
G01X-149500Y11178000D02*
X-255850Y11071650D01*
Y10879940D01*
X-164710Y10788800D01*
X249320D01*
X414420Y10953900D01*
X1468480D01*
X1645290Y10777090D01*
Y10777080D01*
X1690230Y10732140D01*
X2400710D01*
X2406010Y10737440D01*
X2471560D01*
X2511620Y10777500D01*
X2676280D01*
X2676400Y10777620D01*
X2676620Y10777630D01*
X2716700Y10737550D01*
X3063990D01*
X3091950Y10765510D01*
Y10819890D01*
X3144200Y10872140D01*
Y10885300D01*
G01X2744200Y10985300D02*
X1841950D01*
X1033300Y11793950D01*
X-41550D01*
X-149500Y11686000D01*
G01X2944200Y10985300D02*
X2814000D01*
X2764000Y11035300D01*
X2721630D01*
X2697030Y11010700D01*
X1852480D01*
X1038530Y11824650D01*
X499230D01*
X498540Y11825340D01*
X-34840D01*
X-149500Y11940000D01*
G01X312800Y5724500D02*
X490600D01*
X716900Y5498200D01*
X3030600D01*
X3538600Y6006200D01*
G01X312800Y5804500D02*
X489100D01*
X744600Y5549000D01*
X3005200D01*
X3386200Y5930000D01*
G01X312800Y5884500D02*
X490600D01*
X775300Y5599800D01*
X2941700D01*
X3348100Y6006200D01*
X3437000D01*
G01X312800Y5964500D02*
X317240D01*
X320840Y5968100D01*
X342640D01*
X346240Y5964500D01*
X494200D01*
X808100Y5650600D01*
X2901850D01*
X3257450Y6006200D01*
G01X717800Y9878300D02*
X784100D01*
X928050Y9734350D01*
X2382680D01*
X2387980Y9739650D01*
X2499930D01*
X2565690Y9805410D01*
Y9953530D01*
X2651760Y10039600D01*
X2882190D01*
X2914140Y10007650D01*
X3021850D01*
X3044200Y9985300D01*
G01X3144200D02*
X3096450Y10033050D01*
X2924670D01*
X2892720Y10065000D01*
X2641230D01*
X2540290Y9964060D01*
Y9815940D01*
X2489400Y9765050D01*
X940770D01*
X796820Y9909000D01*
Y9916380D01*
X780080Y9933120D01*
G01X4644200Y9085300D02*
X4568900Y9010000D01*
X4126010D01*
X4072000Y9064010D01*
Y9079600D01*
X3932300Y9219300D01*
Y10095600D01*
X3895560Y10132340D01*
X3608540D01*
X3494850Y10246030D01*
Y10802190D01*
X3463990Y10833050D01*
X3423450D01*
X3396450Y10860050D01*
Y11429190D01*
X3462400Y11495140D01*
Y12508600D01*
X3398900Y12572100D01*
Y13448400D01*
X3348100Y13499200D01*
Y13916130D01*
X3398900Y13966930D01*
Y14146900D01*
X3195700Y14350100D01*
X1341500D01*
X1151000Y14540600D01*
Y17596650D01*
X1604700Y18050350D01*
G01X4544200Y9085300D02*
X4495850Y9036950D01*
X4165450D01*
X3957700Y9244700D01*
Y10171800D01*
X3894200Y10235300D01*
X3614800D01*
X3591950Y10258150D01*
Y10753450D01*
X3491950Y10853450D01*
Y11331650D01*
X3538600Y11378300D01*
Y12566230D01*
X3451450Y12653380D01*
Y13448400D01*
X3373500Y13526350D01*
Y13905600D01*
X3424300Y13956400D01*
Y14159600D01*
X3208400Y14375500D01*
X1366900D01*
X1189100Y14553300D01*
Y16999750D01*
X1604700Y17415350D01*
G01X2090800Y5282300D02*
X1443100D01*
G01X2725800Y5155300D02*
X2624200Y5053700D01*
X1786000D01*
X1747900Y5091800D01*
G01X4644200Y9285300D02*
X4590900Y9232000D01*
X4313300D01*
X4291950Y9253350D01*
Y10177350D01*
X4196450Y10272850D01*
Y10413100D01*
X4172000Y10437550D01*
X4024410D01*
X3995800Y10466160D01*
Y10730600D01*
X3894200Y10832200D01*
Y12546700D01*
X3995800Y12648300D01*
Y13156300D01*
X4046600Y13207100D01*
Y13410300D01*
X3983100Y13473800D01*
Y14019900D01*
X3525900Y14477100D01*
X1468500D01*
X1341500Y14604100D01*
Y16458300D01*
X1379600Y16496400D01*
G01X4844200Y9285300D02*
X4765500Y9206600D01*
X4237100D01*
X4196450Y9247250D01*
Y10212450D01*
X4173600Y10235300D01*
X4110100D01*
X3894200Y10451200D01*
Y10654400D01*
X3796450Y10752150D01*
Y11497680D01*
X3805300Y11506530D01*
Y13257900D01*
X3906900Y13359500D01*
Y13473800D01*
X3805300Y13575400D01*
Y13791300D01*
X3500500Y14096100D01*
Y14197700D01*
X3246500Y14451700D01*
X1443100D01*
X1303400Y14591400D01*
Y16775800D01*
X1392300Y16864700D01*
Y17055200D01*
G01X4944200Y9285300D02*
X4840100Y9181200D01*
X4160900D01*
X4096450Y9245650D01*
Y9705090D01*
X4097400Y9706040D01*
Y9764560D01*
X4096450Y9765510D01*
Y10205090D01*
X3863990Y10437550D01*
X3818950D01*
X3792600Y10463900D01*
Y10715360D01*
X3691950Y10816010D01*
Y11492600D01*
X3767200Y11567850D01*
Y12505690D01*
X3776950Y12515440D01*
Y13415000D01*
X3692750Y13499200D01*
Y13615250D01*
X3754500Y13677000D01*
Y13791300D01*
X3475100Y14070700D01*
Y14185000D01*
X3233800Y14426300D01*
X1417700D01*
X1265300Y14578700D01*
Y16856550D01*
X1316100Y16907350D01*
G01X1604700Y17008950D02*
X1494950Y17118700D01*
X1354200D01*
X1227200Y16991700D01*
Y14566000D01*
X1392300Y14400900D01*
X3221100D01*
X3449700Y14172300D01*
Y14045300D01*
X3602100Y13892900D01*
Y13715100D01*
X3656230Y13660970D01*
Y13483170D01*
X3751550Y13387850D01*
Y12543750D01*
X3592450Y12384650D01*
Y11289900D01*
X3591950Y11289400D01*
Y10829650D01*
X3691950Y10729650D01*
Y10348650D01*
X3716400Y10324200D01*
X3856100D01*
X3991950Y10188350D01*
Y9261250D01*
X4097400Y9155800D01*
X4772100D01*
X4845000Y9082900D01*
G01X1951100Y4952100D02*
X2763900D01*
X2852800Y5041000D01*
G01X1874900Y5004650D02*
X2689450D01*
X2789300Y5104500D01*
G01X1887600D02*
X2052700D01*
G01X2268600Y5282300D02*
X2205100Y5218800D01*
X1874900D01*
G01X2509900Y5155300D02*
X1811400D01*
G01X2012300Y5724500D02*
X2875900D01*
X3259200Y6107800D01*
X3538610D01*
G01X2013100Y5804500D02*
X2867000D01*
X3246500Y6184000D01*
X3589400D01*
G01X2009300Y5884500D02*
X2858100D01*
X3233800Y6260200D01*
X3437000D01*
G01X3141300D02*
X2845600Y5964500D01*
X2011000D01*
G01X3244200Y9985300D02*
X3195700Y10033800D01*
Y10108300D01*
X3170300Y10133700D01*
X2598800D01*
X2484500Y10019400D01*
G01X3544200Y9585300D02*
X3491950Y9533050D01*
Y8008650D01*
X3721100Y7779500D01*
Y6382500D01*
X3884700Y6218900D01*
Y5984000D01*
G01X3544200Y9685300D02*
Y9683600D01*
X3591950Y9635850D01*
Y9102450D01*
X3741800Y8952600D01*
Y8584300D01*
X4199000Y8127100D01*
Y6533300D01*
X4748300Y5984000D01*
G01X3844200Y9385300D02*
X3809500Y9350600D01*
Y9350500D01*
X3796000Y9337000D01*
Y9223000D01*
X3769550Y9196550D01*
Y8670850D01*
X4478400Y7962000D01*
Y7682600D01*
X5164200Y6996800D01*
Y6722600D01*
G01X4097400Y16902800D02*
Y14185000D01*
X4294240Y13988160D01*
Y13226140D01*
X4084700Y13016600D01*
Y12551780D01*
X3995800Y12462880D01*
Y11060800D01*
X4059300Y10997300D01*
Y10773780D01*
X4391950Y10441130D01*
Y10279420D01*
X4491950Y10179420D01*
Y9470020D01*
X4528920Y9433050D01*
X4691950D01*
X4744200Y9485300D01*
G01X3729100Y17550500D02*
X4033900Y17245700D01*
Y14185000D01*
X4262980Y13955920D01*
Y13244730D01*
X4038840Y13020590D01*
Y12592570D01*
X3962780Y12516510D01*
Y11055720D01*
X4021200Y10997300D01*
Y10781400D01*
X4296450Y10506150D01*
Y10315650D01*
X4391950Y10220150D01*
Y9356550D01*
X4414900Y9333600D01*
X4592500D01*
X4644200Y9385300D01*
G01X3543400Y11287700D02*
Y11345000D01*
X3564000Y11365600D01*
Y12699100D01*
X3525900Y12737200D01*
Y13194400D01*
X3665600Y13334100D01*
Y13423000D01*
X3602100Y13486500D01*
Y13626200D01*
G01X4448450Y14062550D02*
Y13374390D01*
X4488560Y13334280D01*
Y12853680D01*
X4096450Y12461570D01*
Y10770500D01*
X4491950Y10375000D01*
Y10242070D01*
X4592700Y10141320D01*
Y9562200D01*
X4618100Y9536800D01*
X4770500D01*
X4795900Y9511400D01*
Y9437000D01*
X4744200Y9385300D01*
G01X4224400Y14743800D02*
X4529200Y14439000D01*
Y12768590D01*
X4194350Y12433740D01*
Y10841930D01*
X4591950Y10444330D01*
Y10236050D01*
X4694300Y10133700D01*
Y9663800D01*
X4720550Y9637550D01*
X4771350D01*
X4791950Y9616950D01*
Y9566150D01*
X4821300Y9536800D01*
X4859400D01*
X4891950Y9504250D01*
Y9433050D01*
X4844200Y9385300D01*
G01X4344200Y11185300D02*
X4395850Y11236950D01*
Y11915510D01*
X5352160Y12871820D01*
Y13573540D01*
X5299500Y13626200D01*
G01X4444310Y11597010D02*
X4444200Y11463300D01*
X4491950Y11415550D01*
Y10831450D01*
X4446600Y10786100D01*
G01X4287900Y11479900D02*
X4237100Y11530700D01*
Y11921860D01*
X5293740Y12978500D01*
Y13476340D01*
X5249500Y13520580D01*
Y13702400D01*
G01X5144200Y9585300D02*
X5156080Y9573420D01*
X5450680D01*
X5465640Y9558460D01*
X5481580Y9543570D01*
X5504100Y9522530D01*
X5524710Y9503270D01*
X5525760D01*
X5525770Y9503260D01*
X5525780D01*
X5553010Y9476030D01*
Y9476020D01*
X5556740Y9472290D01*
Y9468620D01*
X6062650Y8962710D01*
X7757590D01*
X8433400Y8286900D01*
Y7720720D01*
X8644020Y7510100D01*
X8816600D01*
X8898850Y7427850D01*
Y7238350D01*
X8774500Y7114000D01*
G01X4844200Y9585300D02*
X4859400D01*
X4911650Y9533050D01*
X5455610D01*
X5464230Y9525000D01*
X5486750Y9503960D01*
X5504330Y9487540D01*
Y9481290D01*
X5531300Y9454320D01*
X5535100D01*
X5536940Y9452480D01*
Y9452490D01*
X6052120Y8937310D01*
X7739570D01*
X8402700Y8274180D01*
Y7708000D01*
X8631300Y7479400D01*
X8803880D01*
X8824110Y7459170D01*
Y7417610D01*
X8774500Y7368000D01*
G01X5144200Y9785300D02*
X5190620Y9831720D01*
X5530950D01*
X5533770Y9828900D01*
X6104000D01*
X6624700Y9308200D01*
X7856600D01*
X8415150Y8749650D01*
X8662850D01*
X8774500Y8638000D01*
G01X4844200Y9685300D02*
X4893250Y9734350D01*
X5250560D01*
X5271460Y9713450D01*
X5514860D01*
X5661030Y9567280D01*
X6025770D01*
X6043800Y9549250D01*
X6051270D01*
X6051280Y9549260D01*
X6053440D01*
X6454300Y9148400D01*
X7762400D01*
X8638920Y8271880D01*
X8796340D01*
X8885300Y8182920D01*
Y8055220D01*
X8774500Y7944420D01*
Y7876000D01*
G01X5144200Y10085300D02*
X5218900Y10160000D01*
X8454170D01*
X8576820Y10282650D01*
X8653850D01*
X8774500Y10162000D01*
G01X4844200Y9885300D02*
X4896450Y9937550D01*
X4963990D01*
X5008640Y9982200D01*
X5079760D01*
X5124410Y9937550D01*
X5163990D01*
X5233140Y10006700D01*
X5533720D01*
X5533770Y10006650D01*
X6256450D01*
X6751450Y9511650D01*
X8662850D01*
X8774500Y9400000D01*
G01X4844200Y9785300D02*
X4896450Y9837550D01*
X5160520D01*
X5180090Y9857120D01*
X5531920D01*
X5534400Y9859600D01*
X6111400D01*
X6637400Y9333600D01*
X7874850D01*
X8428100Y8780350D01*
X8662850D01*
X8774500Y8892000D01*
G01X4744200Y9685300D02*
X4774400D01*
X4823450Y9636250D01*
X5264520D01*
X5316320Y9688050D01*
X5496840D01*
X5648310Y9536580D01*
X6020530D01*
X6023180Y9533930D01*
X6023190D01*
X6033270Y9523850D01*
X6040750D01*
X6446900Y9117700D01*
X7749680D01*
X8626200Y8241180D01*
X8663320D01*
X8774500Y8130000D01*
G01X4944200Y10085300D02*
X5091950Y10233050D01*
X5202300D01*
X5249950Y10185400D01*
X8436150D01*
X8564100Y10313350D01*
X8671850D01*
X8774500Y10416000D01*
G01Y9654000D02*
X8662850Y9542350D01*
X6771550D01*
X6276550Y10037350D01*
X5523270D01*
X5523070Y10037550D01*
X5108710D01*
X5078760Y10007600D01*
X4998110D01*
X4968160Y10037550D01*
X4796450D01*
X4744200Y9985300D01*
G01X5144200Y10385300D02*
Y10379360D01*
X5180770Y10342790D01*
X5517010D01*
X5522310Y10348090D01*
X5970240D01*
X6003670Y10381520D01*
X6053210D01*
X6065910Y10394220D01*
Y10406920D01*
X6034330Y10438500D01*
G01X4944200Y10385300D02*
X5005530D01*
X5073440Y10317390D01*
X5982960D01*
X6016390Y10350820D01*
X6065930D01*
X6096610Y10381500D01*
Y10406930D01*
X6128180Y10438500D01*
G01X8774500Y11686000D02*
X8733710Y11726790D01*
Y11733090D01*
X8674700Y11792100D01*
X8537100D01*
X8478900Y11733900D01*
Y11137000D01*
X7904400Y10562500D01*
X5535040D01*
X5529740Y10567800D01*
X5099880D01*
X4969630Y10437550D01*
X4791950D01*
X4744200Y10485300D01*
G01Y10185300D02*
X4821400Y10262500D01*
X5524510D01*
X5527110Y10259900D01*
X6188520D01*
X6338170Y10409550D01*
X7941720D01*
X8576820Y11044650D01*
X8653850D01*
X8774500Y10924000D01*
G01Y11940000D02*
X8657300Y11822800D01*
X8524380D01*
X8448200Y11746620D01*
Y11149720D01*
X7891680Y10593200D01*
X5089350D01*
X5029200Y10533050D01*
X4691950D01*
X4644200Y10485300D01*
G01Y10285300D02*
X4808270D01*
X4810870Y10287900D01*
X5535040D01*
X5537640Y10285300D01*
X6170500D01*
X6325450Y10440250D01*
X7929000D01*
X8564100Y11075350D01*
X8671850D01*
X8774500Y11178000D01*
G01X4744200Y11185300D02*
X4681600Y11247900D01*
Y11970120D01*
X5989700Y13278220D01*
Y13664300D01*
G01X5773800Y10679800D02*
X5739100Y10714500D01*
Y10755600D01*
X6108700Y11125200D01*
Y11468100D01*
X7085700Y12445100D01*
X7640700D01*
X7755250Y12559650D01*
X8662850D01*
X8774500Y12448000D01*
G01X5678590Y10693720D02*
X5713700Y10728830D01*
Y10766130D01*
X6078000Y11130430D01*
Y11480820D01*
X7072980Y12475800D01*
X7627980D01*
X7742530Y12590350D01*
X8662850D01*
X8774500Y12702000D01*
G01X5659500Y11314800D02*
Y11315360D01*
X5702630Y11358490D01*
X5857130D01*
X5943690Y11445050D01*
Y11478870D01*
X5943700Y11478880D01*
Y11965760D01*
X6681840Y12703900D01*
X6939620D01*
X7557370Y13321650D01*
X8662850D01*
X8774500Y13210000D01*
G01X5596000Y11378300D02*
X5606890Y11389190D01*
X5844410D01*
X5912990Y11457770D01*
Y11491590D01*
X5913000Y11491600D01*
Y11978480D01*
X6669120Y12734600D01*
X6926900D01*
X7544660Y13352360D01*
X7570080D01*
X7570090Y13352350D01*
X8662850D01*
X8774500Y13464000D01*
G54D18*
X233000Y3090000D03*
X1193000D03*
X2133000D03*
X3093000D03*
G54D28*
G01X7401140Y362440D02*
X7554340D01*
G01X7274140D02*
X7401140D01*
G01X7441780Y2635740D02*
X7600060D01*
G01X7441780D02*
X7314780D01*
G01X7457020Y4929360D02*
X7614360D01*
G01X7457020D02*
X7330020D01*
G01X7554340Y362440D02*
X7583740Y391840D01*
X7763680D01*
G01Y264840D02*
X7590860D01*
X7554340Y301360D01*
Y362440D01*
G01X7600060Y2635740D02*
X7631100Y2666780D01*
X7804720D01*
G01Y2539780D02*
X7631900D01*
X7600060Y2571620D01*
Y2635740D01*
G01X7614360Y4929360D02*
X7645360Y4960360D01*
X7818500D01*
G01Y4833360D02*
X7645680D01*
X7614360Y4864680D01*
Y4929360D01*
G54D19*
X425100Y7979200D03*
X525100Y9262200D03*
X425100Y9979200D03*
X525100Y11262200D03*
X8712500Y1090000D03*
Y1598000D03*
M02*
