M48
METRIC
T01C.3302
T02C.8128
T03C1.016
T04C3.556
T05C4.24
;LEADER: 12 
;HEADER: 
;CODE  : ASCII 
;FILE  : pc049a_lemo_db_12-1-2.drl for  ... layers TOP and BOTTOM
;T01 Holesize 1. = 0.330200 Tolerance = +0.000000/-0.000000 PLATED MM Quantity = 176
;T02 Holesize 2. = 0.812800 Tolerance = +0.000000/-0.000000 PLATED MM Quantity = 320
;T03 Holesize 3. = 1.016000 Tolerance = +0.000000/-0.000000 PLATED MM Quantity = 2
;T04 Holesize 4. = 3.556000 Tolerance = +0.000000/-0.000000 PLATED MM Quantity = 16
;T05 Holesize 5. = 4.240000 Tolerance = +0.000000/-0.000000 NON_PLATED MM Quantity = 2
%
G90
T01
X01238000Y00095000
X-00698500Y00095000
X-02635000Y00095500
X01301910Y-00102230
X-00761590Y-00092230
X-01301090Y-00098730
X-01428090Y-00108730
X-01555090Y-00091730
X-01682090Y-00094730
X-01809090Y-00097730
X-01936090Y-00093730
X-02100000Y-00480000
X-02190090Y-00106730
X-02317500Y-00467500
X-02444090Y-00092730
X-02571500Y-00461500
X-02634590Y-00102230
X-01880000Y-07720000
X-02040000Y-07720000
X-01960000Y-07810000
X-02120000Y-07810000
X02120000Y-07720000
X01960000Y-07720000
X02040000Y-07810000
X01880000Y-07810000
X-02000000Y-07090000
X-02000000Y-07350000
X02000000Y-07090000
X02000000Y-07350000
X-05880000Y-06720000
X-06040000Y-06720000
X-05960000Y-06810000
X-06120000Y-06810000
X-06000000Y-06090000
X-06000000Y-06350000
X05960000Y-06720000
X06040000Y-06810000
X05880000Y-06810000
X06120000Y-06720000
X06000000Y-06090000
X06000000Y-06350000
X-01880000Y-03720000
X-02040000Y-03720000
X-01960000Y-03810000
X-02120000Y-03810000
X-02000000Y-03090000
X-02000000Y-03350000
X02000000Y-03090000
X02000000Y-03350000
X02120000Y-03720000
X01960000Y-03720000
X02040000Y-03810000
X01880000Y-03810000
X-06720000Y-02120000
X-06720000Y-01960000
X-06810000Y-02040000
X-06810000Y-01880000
X-06090000Y-02000000
X-06350000Y-02000000
X06720000Y-01880000
X06720000Y-02040000
X06810000Y-01960000
X06810000Y-02120000
X06090000Y-02000000
X06350000Y-02000000
X-06720000Y01880000
X-06720000Y02040000
X-06810000Y01960000
X-06810000Y02120000
X-06090000Y02000000
X-06350000Y02000000
X06720000Y02120000
X06720000Y01960000
X06810000Y02040000
X06810000Y01880000
X06090000Y02000000
X06350000Y02000000
X-02120000Y03720000
X-01960000Y03720000
X-01880000Y03810000
X-02040000Y03810000
X-02000000Y03090000
X-02000000Y03350000
X01880000Y03720000
X02040000Y03720000
X02120000Y03810000
X01960000Y03810000
X02000000Y03090000
X02000000Y03350000
X-06000000Y06090000
X-06000000Y06350000
X06000000Y06090000
X06000000Y06350000
X-06120000Y06720000
X-05960000Y06720000
X-06040000Y06810000
X-05880000Y06810000
X05880000Y06720000
X06040000Y06720000
X05960000Y06810000
X06120000Y06810000
X-02000000Y07090000
X-02000000Y07350000
X02000000Y07090000
X02000000Y07350000
X-02120000Y07720000
X-01960000Y07720000
X-02040000Y07810000
X-01880000Y07810000
X01880000Y07720000
X02040000Y07720000
X01960000Y07810000
X02120000Y07810000
X-00507590Y-00092230
X-00634590Y-00092230
X-00380590Y-00092230
R09X00127000
X01428910Y-00102230
R10X00127000
X-02508000Y00095500
R10X00127000
X-00571500Y00095000
R10X00127000
X01365000Y00095000
R11X00127000
X02889000Y00115000
X02889000Y-00115000
X00984000Y00095000
X00984000Y-00095000
X-02826000Y00095000
X-02826000Y-00095000
T02
X02999400Y08000700
X03253400Y07746700
X02745400Y07746700
X02745400Y08254700
X03253400Y08254700
X00999400Y06000700
X01253400Y05746700
X00745400Y05746700
X00745400Y06254700
X01253400Y06254700
X-01000600Y06000700
X-00746600Y05746700
X-01254600Y05746700
X-01254600Y06254700
X-00746600Y06254700
X-03000600Y06000700
X-02746600Y05746700
X-03254600Y05746700
X-03254600Y06254700
X-02746600Y06254700
X06999400Y05000700
X07253400Y04746700
X06745400Y04746700
X06745400Y05254700
X07253400Y05254700
X04999400Y05000700
X05253400Y04746700
X04745400Y04746700
X04745400Y05254700
X05253400Y05254700
X-05000600Y05000700
X-04746600Y04746700
X-05254600Y04746700
X-05254600Y05254700
X-04746600Y05254700
X-07000600Y05000700
X-06746600Y04746700
X-07254600Y04746700
X-07254600Y05254700
X-06746600Y05254700
X02999400Y04000700
X03253400Y03746700
X02745400Y03746700
X02745400Y04254700
X03253400Y04254700
X00999400Y04000700
X01253400Y03746700
X00745400Y03746700
X00745400Y04254700
X01253400Y04254700
X-01000600Y04000700
X-00746600Y03746700
X-01254600Y03746700
X-01254600Y04254700
X-00746600Y04254700
X00999400Y08000700
X01253400Y07746700
X00745400Y07746700
X00745400Y08254700
X01253400Y08254700
X-03000600Y04000700
X-02746600Y03746700
X-03254600Y03746700
X-03254600Y04254700
X-02746600Y04254700
X07000700Y03000600
X06746700Y02746600
X06746700Y03254600
X07254700Y03254600
X07254700Y02746600
X05000700Y03000600
X04746700Y02746600
X04746700Y03254600
X05254700Y03254600
X05254700Y02746600
X-05000700Y02999400
X-04746700Y03253400
X-04746700Y02745400
X-05254700Y02745400
X-05254700Y03253400
X-07000700Y02999400
X-06746700Y03253400
X-06746700Y02745400
X-07254700Y02745400
X-07254700Y03253400
X02999400Y02000700
X03253400Y01746700
X02745400Y01746700
X02745400Y02254700
X03253400Y02254700
X00999400Y02000700
X01253400Y01746700
X00745400Y01746700
X00745400Y02254700
X01253400Y02254700
X-01000600Y02000700
X-00746600Y01746700
X-01254600Y01746700
X-01254600Y02254700
X-00746600Y02254700
X-03000600Y02000700
X-02746600Y01746700
X-03254600Y01746700
X-03254600Y02254700
X-02746600Y02254700
X07000700Y01000600
X06746700Y00746600
X06746700Y01254600
X07254700Y01254600
X07254700Y00746600
X-01000600Y08000700
X-00746600Y07746700
X-01254600Y07746700
X-01254600Y08254700
X-00746600Y08254700
X05000700Y01000600
X04746700Y00746600
X04746700Y01254600
X05254700Y01254600
X05254700Y00746600
X-05000700Y00999400
X-04746700Y01253400
X-04746700Y00745400
X-05254700Y00745400
X-05254700Y01253400
X-07000700Y00999400
X-06746700Y01253400
X-06746700Y00745400
X-07254700Y00745400
X-07254700Y01253400
X07000700Y-00999400
X06746700Y-01253400
X06746700Y-00745400
X07254700Y-00745400
X07254700Y-01253400
X05000700Y-00999400
X04746700Y-01253400
X04746700Y-00745400
X05254700Y-00745400
X05254700Y-01253400
X-05000700Y-01000600
X-04746700Y-00746600
X-04746700Y-01254600
X-05254700Y-01254600
X-05254700Y-00746600
X-07000700Y-01000600
X-06746700Y-00746600
X-06746700Y-01254600
X-07254700Y-01254600
X-07254700Y-00746600
X03000600Y-02000700
X02746600Y-01746700
X03254600Y-01746700
X03254600Y-02254700
X02746600Y-02254700
X01000600Y-02000700
X00746600Y-01746700
X01254600Y-01746700
X01254600Y-02254700
X00746600Y-02254700
X-00999400Y-02000700
X-01253400Y-01746700
X-00745400Y-01746700
X-00745400Y-02254700
X-01253400Y-02254700
X-03000600Y08000700
X-02746600Y07746700
X-03254600Y07746700
X-03254600Y08254700
X-02746600Y08254700
X-02999400Y-02000700
X-03253400Y-01746700
X-02745400Y-01746700
X-02745400Y-02254700
X-03253400Y-02254700
X07000700Y-02999400
X06746700Y-03253400
X06746700Y-02745400
X07254700Y-02745400
X07254700Y-03253400
X05000700Y-02999400
X04746700Y-03253400
X04746700Y-02745400
X05254700Y-02745400
X05254700Y-03253400
X-05000700Y-03000600
X-04746700Y-02746600
X-04746700Y-03254600
X-05254700Y-03254600
X-05254700Y-02746600
X-07000700Y-03000600
X-06746700Y-02746600
X-06746700Y-03254600
X-07254700Y-03254600
X-07254700Y-02746600
X03000600Y-04000700
X02746600Y-03746700
X03254600Y-03746700
X03254600Y-04254700
X02746600Y-04254700
X01000600Y-04000700
X00746600Y-03746700
X01254600Y-03746700
X01254600Y-04254700
X00746600Y-04254700
X-00999400Y-04000700
X-01253400Y-03746700
X-00745400Y-03746700
X-00745400Y-04254700
X-01253400Y-04254700
X-02999400Y-04000700
X-03253400Y-03746700
X-02745400Y-03746700
X-02745400Y-04254700
X-03253400Y-04254700
X07000600Y-05000700
X06746600Y-04746700
X07254600Y-04746700
X07254600Y-05254700
X06746600Y-05254700
X06999400Y07000700
X07253400Y06746700
X06745400Y06746700
X06745400Y07254700
X07253400Y07254700
X05000600Y-05000700
X04746600Y-04746700
X05254600Y-04746700
X05254600Y-05254700
X04746600Y-05254700
X-04999400Y-05000700
X-05253400Y-04746700
X-04745400Y-04746700
X-04745400Y-05254700
X-05253400Y-05254700
X-06999400Y-05000700
X-07253400Y-04746700
X-06745400Y-04746700
X-06745400Y-05254700
X-07253400Y-05254700
X03000600Y-06000700
X02746600Y-05746700
X03254600Y-05746700
X03254600Y-06254700
X02746600Y-06254700
X01000600Y-06000700
X00746600Y-05746700
X01254600Y-05746700
X01254600Y-06254700
X00746600Y-06254700
X-00999400Y-06000700
X-01253400Y-05746700
X-00745400Y-05746700
X-00745400Y-06254700
X-01253400Y-06254700
X-02999400Y-06000700
X-03253400Y-05746700
X-02745400Y-05746700
X-02745400Y-06254700
X-03253400Y-06254700
X07000600Y-07000700
X06746600Y-06746700
X07254600Y-06746700
X07254600Y-07254700
X06746600Y-07254700
X05000600Y-07000700
X04746600Y-06746700
X05254600Y-06746700
X05254600Y-07254700
X04746600Y-07254700
X-04999400Y-07000700
X-05253400Y-06746700
X-04745400Y-06746700
X-04745400Y-07254700
X-05253400Y-07254700
X04999400Y07000700
X05253400Y06746700
X04745400Y06746700
X04745400Y07254700
X05253400Y07254700
X-06999400Y-07000700
X-07253400Y-06746700
X-06745400Y-06746700
X-06745400Y-07254700
X-07253400Y-07254700
X03000600Y-08000700
X02746600Y-07746700
X03254600Y-07746700
X03254600Y-08254700
X02746600Y-08254700
X01000600Y-08000700
X00746600Y-07746700
X01254600Y-07746700
X01254600Y-08254700
X00746600Y-08254700
X-00999400Y-08000700
X-01253400Y-07746700
X-00745400Y-07746700
X-00745400Y-08254700
X-01253400Y-08254700
X-02999400Y-08000700
X-03253400Y-07746700
X-02745400Y-07746700
X-02745400Y-08254700
X-03253400Y-08254700
X-05000600Y07000700
X-04746600Y06746700
X-05254600Y06746700
X-05254600Y07254700
X-04746600Y07254700
X-07000600Y07000700
X-06746600Y06746700
X-07254600Y06746700
X-07254600Y07254700
X-06746600Y07254700
X02999400Y06000700
X03253400Y05746700
X02745400Y05746700
X02745400Y06254700
X03253400Y06254700
T03
X03000000Y-00265000
X-03000000Y-00265000
T04
X-05000000Y00000000
X05000000Y00000000
X-08000000Y00000000
X00000000Y-03000000
X00000000Y03000000
X00000000Y-07000000
X00000000Y07000000
X-06000000Y-04000000
X06000000Y-04000000
X06000000Y04000000
X-06000000Y04000000
X-08000000Y-08000000
X-08000000Y08000000
X08000000Y00000000
X08000000Y-08000000
X08000000Y08000000
T05
X03700000Y00000000
X-03700000Y00000000
M30
