G04 ================== begin FILE IDENTIFICATION RECORD ==================*
G04 Layout Name:  pc049a_lemo_db_12.brd*
G04 Film Name:    pc049a_lemo_db_SOLDERMASK_BOTTOM*
G04 File Format:  Gerber RS274X*
G04 File Origin:  Cadence Allegro 16.6-S014*
G04 Origin Date:  Wed Mar  4 14:04:12 2015*
G04 *
G04 Layer:  PIN/SOLDERMASK_BOTTOM*
G04 Layer:  PACKAGE GEOMETRY/SOLDERMASK_BOTTOM*
G04 Layer:  BOARD GEOMETRY/SOLDERMASK_BOTTOM*
G04 *
G04 Offset:    (0.0000 0.0000)*
G04 Mirror:    No*
G04 Mode:      Positive*
G04 Rotation:  0*
G04 FullContactRelief:  No*
G04 UndefLineWidth:     0.0000*
G04 ================== end FILE IDENTIFICATION RECORD ====================*
%FSLAX35Y35*MOMM*%
%IR0*IPPOS*OFA0.00000B0.00000*MIA0B0*SFA1.00000B1.00000*%
%ADD10C,7.112*%
%ADD11C,1.651*%
%ADD13C,1.905*%
%ADD12C,4.2672*%
%LPD*%
G75*
G54D10*
X-8000000Y-8000000D03*
Y0D03*
Y8000000D03*
X-6000000Y-4000000D03*
Y4000000D03*
X-5000000Y0D03*
X0Y-7000000D03*
Y-3000000D03*
Y3000000D03*
Y7000000D03*
X5000000Y0D03*
X6000000Y-4000000D03*
Y4000000D03*
X8000000Y-8000000D03*
Y0D03*
Y8000000D03*
G54D11*
X-7253400Y-7254700D03*
X-6999400Y-7000700D03*
X-7253400Y-6746700D03*
Y-5254700D03*
Y-4746700D03*
X-6999400Y-5000700D03*
X-7254700Y-3254600D03*
Y-2746600D03*
X-7000700Y-3000600D03*
X-7254700Y-1254600D03*
Y-746600D03*
X-7000700Y-1000600D03*
X-7254700Y745400D03*
Y1253400D03*
X-7000700Y999400D03*
X-7254700Y2745400D03*
X-7000700Y2999400D03*
X-7254700Y3253400D03*
X-7254600Y5254700D03*
Y4746700D03*
X-7000600Y5000700D03*
X-7254600Y6746700D03*
Y7254700D03*
X-7000600Y7000700D03*
X-6745400Y-7254700D03*
Y-6746700D03*
Y-5254700D03*
Y-4746700D03*
X-6746700Y-3254600D03*
Y-2746600D03*
Y-1254600D03*
Y-746600D03*
Y745400D03*
Y1253400D03*
Y2745400D03*
Y3253400D03*
X-6746600Y5254700D03*
Y4746700D03*
Y6746700D03*
Y7254700D03*
X-4745400Y-7254700D03*
X-5253400D03*
X-4999400Y-7000700D03*
X-4745400Y-6746700D03*
X-5253400D03*
X-4745400Y-5254700D03*
Y-4746700D03*
X-5253400Y-5254700D03*
Y-4746700D03*
X-4999400Y-5000700D03*
X-5254700Y-3254600D03*
X-4746700D03*
X-5254700Y-2746600D03*
X-4746700D03*
X-5000700Y-3000600D03*
X-5254700Y-1254600D03*
X-4746700D03*
X-5254700Y-746600D03*
X-4746700D03*
X-5000700Y-1000600D03*
X-5254700Y745400D03*
X-4746700D03*
X-5254700Y1253400D03*
X-4746700D03*
X-5000700Y999400D03*
X-5254700Y2745400D03*
X-4746700D03*
X-5000700Y2999400D03*
X-5254700Y3253400D03*
X-4746700D03*
X-5254600Y5254700D03*
Y4746700D03*
X-4746600Y5254700D03*
Y4746700D03*
X-5000600Y5000700D03*
X-5254600Y6746700D03*
X-4746600D03*
X-5254600Y7254700D03*
X-4746600D03*
X-5000600Y7000700D03*
X-3253400Y-8254700D03*
Y-7746700D03*
Y-6254700D03*
Y-5746700D03*
Y-4254700D03*
Y-3746700D03*
Y-2254700D03*
Y-1746700D03*
X-3254600Y2254700D03*
Y1746700D03*
Y3746700D03*
Y4254700D03*
Y5746700D03*
Y6254700D03*
Y8254700D03*
Y7746700D03*
X-2745400Y-8254700D03*
Y-7746700D03*
X-2999400Y-8000700D03*
X-2745400Y-6254700D03*
Y-5746700D03*
X-2999400Y-6000700D03*
X-2745400Y-4254700D03*
X-2999400Y-4000700D03*
X-2745400Y-3746700D03*
Y-2254700D03*
Y-1746700D03*
X-2999400Y-2000700D03*
X-2746600Y2254700D03*
Y1746700D03*
X-3000600Y2000700D03*
X-2746600Y3746700D03*
Y4254700D03*
X-3000600Y4000700D03*
X-2746600Y5746700D03*
X-3000600Y6000700D03*
X-2746600Y6254700D03*
Y8254700D03*
Y7746700D03*
X-3000600Y8000700D03*
X-1253400Y-8254700D03*
Y-7746700D03*
X-999400Y-8000700D03*
X-1253400Y-6254700D03*
Y-5746700D03*
X-999400Y-6000700D03*
X-1253400Y-4254700D03*
X-999400Y-4000700D03*
X-1253400Y-3746700D03*
Y-2254700D03*
Y-1746700D03*
X-999400Y-2000700D03*
X-1254600Y2254700D03*
Y1746700D03*
X-1000600Y2000700D03*
X-1254600Y3746700D03*
Y4254700D03*
X-1000600Y4000700D03*
X-1254600Y5746700D03*
X-1000600Y6000700D03*
X-1254600Y6254700D03*
Y8254700D03*
Y7746700D03*
X-1000600Y8000700D03*
X-745400Y-8254700D03*
Y-7746700D03*
Y-6254700D03*
Y-5746700D03*
Y-4254700D03*
Y-3746700D03*
Y-2254700D03*
Y-1746700D03*
X-746600Y2254700D03*
Y1746700D03*
Y3746700D03*
Y4254700D03*
Y5746700D03*
Y6254700D03*
Y8254700D03*
Y7746700D03*
X746600Y-8254700D03*
Y-7746700D03*
Y-6254700D03*
Y-5746700D03*
Y-4254700D03*
Y-3746700D03*
Y-2254700D03*
Y-1746700D03*
X745400Y2254700D03*
Y1746700D03*
Y3746700D03*
Y4254700D03*
Y5746700D03*
Y6254700D03*
Y8254700D03*
Y7746700D03*
X1254600Y-8254700D03*
Y-7746700D03*
X1000600Y-8000700D03*
X1254600Y-6254700D03*
Y-5746700D03*
X1000600Y-6000700D03*
X1254600Y-4254700D03*
X1000600Y-4000700D03*
X1254600Y-3746700D03*
Y-2254700D03*
Y-1746700D03*
X1000600Y-2000700D03*
X1253400Y2254700D03*
Y1746700D03*
X999400Y2000700D03*
X1253400Y3746700D03*
Y4254700D03*
X999400Y4000700D03*
X1253400Y5746700D03*
X999400Y6000700D03*
X1253400Y6254700D03*
Y8254700D03*
Y7746700D03*
X999400Y8000700D03*
X2746600Y-8254700D03*
Y-7746700D03*
X3000600Y-8000700D03*
X2746600Y-6254700D03*
Y-5746700D03*
X3000600Y-6000700D03*
X2746600Y-4254700D03*
X3000600Y-4000700D03*
X2746600Y-3746700D03*
Y-2254700D03*
Y-1746700D03*
X3000600Y-2000700D03*
X2745400Y2254700D03*
Y1746700D03*
X2999400Y2000700D03*
X2745400Y3746700D03*
Y4254700D03*
X2999400Y4000700D03*
X2745400Y5746700D03*
X2999400Y6000700D03*
X2745400Y6254700D03*
Y8254700D03*
Y7746700D03*
X2999400Y8000700D03*
X3254600Y-8254700D03*
Y-7746700D03*
Y-6254700D03*
Y-5746700D03*
Y-4254700D03*
Y-3746700D03*
Y-2254700D03*
Y-1746700D03*
X3253400Y2254700D03*
Y1746700D03*
Y3746700D03*
Y4254700D03*
Y5746700D03*
Y6254700D03*
Y8254700D03*
Y7746700D03*
X5254600Y-7254700D03*
X4746600D03*
X5000600Y-7000700D03*
X5254600Y-6746700D03*
X4746600D03*
X5254600Y-5254700D03*
Y-4746700D03*
X4746600Y-5254700D03*
Y-4746700D03*
X5000600Y-5000700D03*
X5254700Y-3253400D03*
X4746700D03*
X5254700Y-2745400D03*
X4746700D03*
X5000700Y-2999400D03*
X5254700Y-745400D03*
X4746700D03*
X5254700Y-1253400D03*
X4746700D03*
X5000700Y-999400D03*
X5254700Y746600D03*
X4746700D03*
X5254700Y1254600D03*
X4746700D03*
X5000700Y1000600D03*
X5254700Y2746600D03*
X4746700D03*
X5000700Y3000600D03*
X5254700Y3254600D03*
X4746700D03*
X4745400Y5254700D03*
Y4746700D03*
X5253400Y5254700D03*
Y4746700D03*
X4999400Y5000700D03*
X4745400Y6746700D03*
X5253400D03*
X4745400Y7254700D03*
X5253400D03*
X4999400Y7000700D03*
X6746600Y-7254700D03*
Y-6746700D03*
Y-5254700D03*
Y-4746700D03*
X6746700Y-3253400D03*
Y-2745400D03*
Y-745400D03*
Y-1253400D03*
Y746600D03*
Y1254600D03*
Y2746600D03*
Y3254600D03*
X6745400Y5254700D03*
Y4746700D03*
Y6746700D03*
Y7254700D03*
X7254600Y-7254700D03*
X7000600Y-7000700D03*
X7254600Y-6746700D03*
Y-5254700D03*
Y-4746700D03*
X7000600Y-5000700D03*
X7254700Y-3253400D03*
Y-2745400D03*
X7000700Y-2999400D03*
X7254700Y-745400D03*
Y-1253400D03*
X7000700Y-999400D03*
X7254700Y746600D03*
Y1254600D03*
X7000700Y1000600D03*
X7254700Y2746600D03*
X7000700Y3000600D03*
X7254700Y3254600D03*
X7253400Y5254700D03*
Y4746700D03*
X6999400Y5000700D03*
X7253400Y6746700D03*
Y7254700D03*
X6999400Y7000700D03*
G54D12*
X-3700000Y0D03*
X3700000D03*
G54D13*
X-3000000Y-265000D03*
X3000000D03*
M02*
