G04 ================== begin FILE IDENTIFICATION RECORD ==================*
G04 Layout Name:  pc049a_lemo_db_12.brd*
G04 Film Name:    pc049a_lemo_db_PASTEMASK_TOP*
G04 File Format:  Gerber RS274X*
G04 File Origin:  Cadence Allegro 16.6-S014*
G04 Origin Date:  Wed Mar  4 14:55:25 2015*
G04 *
G04 Layer:  PIN/PASTEMASK_TOP*
G04 Layer:  PACKAGE GEOMETRY/PASTEMASK_TOP*
G04 *
G04 Offset:    (0.0000 0.0000)*
G04 Mirror:    No*
G04 Mode:      Positive*
G04 Rotation:  0*
G04 FullContactRelief:  No*
G04 UndefLineWidth:     0.0000*
G04 ================== end FILE IDENTIFICATION RECORD ====================*
%FSLAX35Y35*MOMM*%
%IR0*IPPOS*OFA0.00000B0.00000*MIA0B0*SFA1.00000B1.00000*%
%ADD18R,.3X2.286*%
%ADD20R,2.794X.4318*%
%ADD19R,4.699X.4318*%
%ADD15R,.2X.7*%
%ADD12R,.7X.2*%
%ADD14R,.4X.7*%
%ADD11R,.7X.4*%
%ADD16R,.35X.8*%
%ADD17R,.8X.35*%
%ADD10R,.8128X.508*%
%ADD13R,.508X.8128*%
%LPD*%
G75*
G54D10*
X-6469500Y-1880000D03*
X-6620000D03*
X-6469500Y-1960000D03*
X-6620000D03*
X-6469500Y-2040000D03*
X-6620000D03*
X-6469500Y-2120000D03*
X-6620000D03*
X-6469500Y2120000D03*
X-6620000D03*
X-6469500Y2040000D03*
X-6620000D03*
X-6469500Y1960000D03*
X-6620000D03*
X-6469500Y1880000D03*
X-6620000D03*
X6469500Y-2120000D03*
X6620000D03*
X6469500Y-2040000D03*
X6620000D03*
X6469500Y-1960000D03*
X6620000D03*
X6469500Y-1880000D03*
X6620000D03*
X6469500Y1880000D03*
X6620000D03*
X6469500Y1960000D03*
X6620000D03*
X6469500Y2040000D03*
X6620000D03*
X6469500Y2120000D03*
X6620000D03*
G54D11*
X-6176200Y-2000000D03*
X-6263700D03*
X-6176200Y2000000D03*
X-6263700D03*
X6176200Y-2000000D03*
X6263700D03*
X6176200Y2000000D03*
X6263700D03*
G54D20*
X-2806500Y0D03*
X-1193500D03*
X-806500D03*
X806500D03*
X1193500D03*
X2806500D03*
G54D12*
X-6176200Y-2100000D03*
Y-2050000D03*
Y-1950000D03*
Y-1900000D03*
X-6263700Y-2100000D03*
Y-2050000D03*
Y-1950000D03*
Y-1900000D03*
X-6176200Y1900000D03*
Y1950000D03*
Y2050000D03*
Y2100000D03*
X-6263700Y1900000D03*
Y1950000D03*
Y2050000D03*
Y2100000D03*
X6176200Y-1900000D03*
Y-1950000D03*
Y-2050000D03*
Y-2100000D03*
X6263700Y-1900000D03*
Y-1950000D03*
Y-2050000D03*
Y-2100000D03*
X6176200Y2100000D03*
Y2050000D03*
Y1950000D03*
Y1900000D03*
X6263700Y2100000D03*
Y2050000D03*
Y1950000D03*
Y1900000D03*
G54D13*
X-6120000Y-6469500D03*
Y-6620000D03*
X-6040000Y-6469500D03*
Y-6620000D03*
X-5960000Y-6469500D03*
Y-6620000D03*
X-5880000Y-6469500D03*
Y-6620000D03*
Y6469500D03*
Y6620000D03*
X-5960000Y6469500D03*
Y6620000D03*
X-6040000Y6469500D03*
Y6620000D03*
X-6120000Y6469500D03*
Y6620000D03*
X-2120000Y-7469500D03*
Y-7620000D03*
X-2040000Y-7469500D03*
Y-7620000D03*
X-1960000Y-7469500D03*
Y-7620000D03*
X-1880000Y-7469500D03*
Y-7620000D03*
X-2120000Y-3469500D03*
Y-3620000D03*
X-2040000Y-3469500D03*
Y-3620000D03*
X-1960000Y-3469500D03*
Y-3620000D03*
X-1880000Y-3469500D03*
Y-3620000D03*
Y3469500D03*
Y3620000D03*
X-1960000Y3469500D03*
Y3620000D03*
X-2040000Y3469500D03*
Y3620000D03*
X-2120000Y3469500D03*
Y3620000D03*
X-1880000Y7469500D03*
X-1960000D03*
X-2040000D03*
X-2120000D03*
X-1880000Y7620000D03*
X-1960000D03*
X-2040000D03*
X-2120000D03*
X1880000Y-7469500D03*
Y-7620000D03*
X1960000Y-7469500D03*
Y-7620000D03*
X2040000Y-7469500D03*
Y-7620000D03*
X2120000Y-7469500D03*
Y-7620000D03*
X1880000Y-3469500D03*
Y-3620000D03*
X1960000Y-3469500D03*
Y-3620000D03*
X2040000Y-3469500D03*
Y-3620000D03*
X2120000Y-3469500D03*
Y-3620000D03*
Y3469500D03*
Y3620000D03*
X2040000Y3469500D03*
Y3620000D03*
X1960000Y3469500D03*
Y3620000D03*
X1880000Y3469500D03*
Y3620000D03*
X2120000Y7469500D03*
X2040000D03*
X1960000D03*
X1880000D03*
X2120000Y7620000D03*
X2040000D03*
X1960000D03*
X1880000D03*
X5880000Y-6469500D03*
Y-6620000D03*
X5960000Y-6469500D03*
Y-6620000D03*
Y6469500D03*
Y6620000D03*
X5880000Y6469500D03*
Y6620000D03*
X6040000Y-6469500D03*
Y-6620000D03*
X6120000Y-6469500D03*
Y-6620000D03*
Y6469500D03*
Y6620000D03*
X6040000Y6469500D03*
Y6620000D03*
G54D14*
X-6000000Y-6176200D03*
Y-6263700D03*
Y6176200D03*
Y6263700D03*
X-2000000Y-7176200D03*
Y-7263700D03*
Y-3176200D03*
Y-3263700D03*
Y3176200D03*
Y3263700D03*
Y7176200D03*
Y7263700D03*
X2000000Y-7176200D03*
Y-7263700D03*
Y-3176200D03*
Y-3263700D03*
Y3176200D03*
Y3263700D03*
Y7176200D03*
Y7263700D03*
X6000000Y-6176200D03*
Y-6263700D03*
Y6176200D03*
Y6263700D03*
G54D15*
X-5900000Y-6176200D03*
X-5950000D03*
X-6050000D03*
X-6100000D03*
X-5900000Y-6263700D03*
X-5950000D03*
X-6050000D03*
X-6100000D03*
Y6176200D03*
X-6050000D03*
X-5950000D03*
X-5900000D03*
X-6100000Y6263700D03*
X-6050000D03*
X-5950000D03*
X-5900000D03*
X-1900000Y-7176200D03*
X-1950000D03*
X-2050000D03*
X-2100000D03*
X-1900000Y-7263700D03*
X-1950000D03*
X-2050000D03*
X-2100000D03*
X-1900000Y-3176200D03*
X-1950000D03*
X-2050000D03*
X-2100000D03*
X-1900000Y-3263700D03*
X-1950000D03*
X-2050000D03*
X-2100000D03*
Y3176200D03*
X-2050000D03*
X-1950000D03*
X-1900000D03*
X-2100000Y3263700D03*
X-2050000D03*
X-1950000D03*
X-1900000D03*
X-2100000Y7176200D03*
X-2050000D03*
X-1950000D03*
X-1900000D03*
X-2100000Y7263700D03*
X-2050000D03*
X-1950000D03*
X-1900000D03*
X2100000Y-7176200D03*
X2050000D03*
X1950000D03*
X1900000D03*
X2100000Y-7263700D03*
X2050000D03*
X1950000D03*
X1900000D03*
X2100000Y-3176200D03*
X2050000D03*
X1950000D03*
X1900000D03*
X2100000Y-3263700D03*
X2050000D03*
X1950000D03*
X1900000D03*
Y3176200D03*
X1950000D03*
X2050000D03*
X2100000D03*
X1900000Y3263700D03*
X1950000D03*
X2050000D03*
X2100000D03*
X1900000Y7176200D03*
X1950000D03*
X2050000D03*
X2100000D03*
X1900000Y7263700D03*
X1950000D03*
X2050000D03*
X2100000D03*
X5950000Y-6176200D03*
X5900000D03*
X5950000Y-6263700D03*
X5900000D03*
Y6176200D03*
X5950000D03*
X5900000Y6263700D03*
X5950000D03*
X6100000Y-6176200D03*
X6050000D03*
X6100000Y-6263700D03*
X6050000D03*
Y6176200D03*
X6100000D03*
X6050000Y6263700D03*
X6100000D03*
G54D16*
X-5880000Y-5790000D03*
Y-5970000D03*
X-5960000Y-5790000D03*
Y-5970000D03*
X-6040000Y-5790000D03*
Y-5970000D03*
X-6120000Y-5790000D03*
Y-5970000D03*
Y5790000D03*
Y5970000D03*
X-6040000Y5790000D03*
Y5970000D03*
X-5960000Y5790000D03*
Y5970000D03*
X-5880000Y5790000D03*
Y5970000D03*
X-1880000Y-6970000D03*
X-1960000D03*
X-2040000D03*
X-2120000D03*
X-1880000Y-6790000D03*
X-1960000D03*
X-2040000D03*
X-2120000D03*
X-1880000Y-2790000D03*
Y-2970000D03*
X-1960000Y-2790000D03*
Y-2970000D03*
X-2040000Y-2790000D03*
Y-2970000D03*
X-2120000Y-2790000D03*
Y-2970000D03*
Y2790000D03*
Y2970000D03*
X-2040000Y2790000D03*
Y2970000D03*
X-1960000Y2790000D03*
Y2970000D03*
X-1880000Y2790000D03*
Y2970000D03*
X-2120000Y6790000D03*
X-2040000D03*
X-1960000D03*
X-1880000D03*
X-2120000Y6970000D03*
X-2040000D03*
X-1960000D03*
X-1880000D03*
X2120000Y-6970000D03*
X2040000D03*
X1960000D03*
X1880000D03*
X2120000Y-6790000D03*
X2040000D03*
X1960000D03*
X1880000D03*
X2120000Y-2790000D03*
Y-2970000D03*
X2040000Y-2790000D03*
Y-2970000D03*
X1960000Y-2790000D03*
Y-2970000D03*
X1880000Y-2790000D03*
Y-2970000D03*
Y2790000D03*
Y2970000D03*
X1960000Y2790000D03*
Y2970000D03*
X2040000Y2790000D03*
Y2970000D03*
X2120000Y2790000D03*
Y2970000D03*
X1880000Y6790000D03*
X1960000D03*
X2040000D03*
X2120000D03*
X1880000Y6970000D03*
X1960000D03*
X2040000D03*
X2120000D03*
X5960000Y-5790000D03*
Y-5970000D03*
X5880000Y-5790000D03*
Y-5970000D03*
Y5790000D03*
Y5970000D03*
X5960000Y5790000D03*
Y5970000D03*
X6120000Y-5790000D03*
Y-5970000D03*
X6040000Y-5790000D03*
Y-5970000D03*
Y5790000D03*
Y5970000D03*
X6120000Y5790000D03*
Y5970000D03*
G54D17*
X-5790000Y-2120000D03*
X-5970000D03*
X-5790000Y-2040000D03*
X-5970000D03*
X-5790000Y-1960000D03*
X-5970000D03*
X-5790000Y-1880000D03*
X-5970000D03*
X-5790000Y1880000D03*
X-5970000D03*
X-5790000Y1960000D03*
X-5970000D03*
X-5790000Y2040000D03*
X-5970000D03*
X-5790000Y2120000D03*
X-5970000D03*
X5790000Y-1880000D03*
X5970000D03*
X5790000Y-1960000D03*
X5970000D03*
X5790000Y-2040000D03*
X5970000D03*
X5790000Y-2120000D03*
X5970000D03*
X5790000Y2120000D03*
X5970000D03*
X5790000Y2040000D03*
X5970000D03*
X5790000Y1960000D03*
X5970000D03*
X5790000Y1880000D03*
X5970000D03*
G54D18*
X-2762000Y-285000D03*
X-2698500D03*
X-2635000D03*
X-2571500D03*
X-2508000D03*
X-2444500D03*
X-2381000D03*
X-2762000Y285000D03*
X-2698500D03*
X-2635000D03*
X-2571500D03*
X-2508000D03*
X-2444500D03*
X-2381000D03*
X-2317500Y-285000D03*
X-2254000D03*
X-2190500D03*
X-2127000D03*
X-2063500D03*
X-2000000D03*
X-1936500D03*
X-1873000D03*
X-1809500D03*
X-1746000D03*
X-1682500D03*
X-1619000D03*
X-2317500Y285000D03*
X-2254000D03*
X-2190500D03*
X-2127000D03*
X-2063500D03*
X-2000000D03*
X-1936500D03*
X-1873000D03*
X-1809500D03*
X-1746000D03*
X-1682500D03*
X-1619000D03*
X-1555500Y-285000D03*
X-1492000D03*
X-1428500D03*
X-1365000D03*
X-1301500D03*
X-1238000D03*
X-1555500Y285000D03*
X-1492000D03*
X-1428500D03*
X-1365000D03*
X-1301500D03*
X-1238000D03*
X-762000Y-285000D03*
X-698500D03*
X-635000D03*
X-571500D03*
X-508000D03*
X-444500D03*
X-381000D03*
X-317500D03*
X-254000D03*
X-190500D03*
X-127000D03*
X-63500D03*
X-762000Y285000D03*
X-698500D03*
X-635000D03*
X-571500D03*
X-508000D03*
X-444500D03*
X-381000D03*
X-317500D03*
X-254000D03*
X-190500D03*
X-127000D03*
X-63500D03*
X0Y-285000D03*
X63500D03*
X127000D03*
X190500D03*
X254000D03*
X317500D03*
X381000D03*
X444500D03*
X508000D03*
X571500D03*
X635000D03*
X698500D03*
X0Y285000D03*
X63500D03*
X127000D03*
X190500D03*
X254000D03*
X317500D03*
X381000D03*
X444500D03*
X508000D03*
X571500D03*
X635000D03*
X698500D03*
X762000Y-285000D03*
X1238000D03*
X1301500D03*
X1365000D03*
X1428500D03*
X762000Y285000D03*
X1238000D03*
X1301500D03*
X1365000D03*
X1428500D03*
X1492000Y-285000D03*
X1555500D03*
X1619000D03*
X1682500D03*
X1746000D03*
X1809500D03*
X1873000D03*
X1936500D03*
X2000000D03*
X2063500D03*
X2127000D03*
X2190500D03*
X1492000Y285000D03*
X1555500D03*
X1619000D03*
X1682500D03*
X1746000D03*
X1809500D03*
X1873000D03*
X1936500D03*
X2000000D03*
X2063500D03*
X2127000D03*
X2190500D03*
X2254000Y-285000D03*
X2317500D03*
X2381000D03*
X2444500D03*
X2508000D03*
X2571500D03*
X2635000D03*
X2698500D03*
X2762000D03*
X2254000Y285000D03*
X2317500D03*
X2381000D03*
X2444500D03*
X2508000D03*
X2571500D03*
X2635000D03*
X2698500D03*
X2762000D03*
G54D19*
X-2317500Y0D03*
X-1682500D03*
X-317500D03*
X317500D03*
X2317500D03*
X1682500D03*
M02*
