G04 ================== begin FILE IDENTIFICATION RECORD ==================*
G04 Layout Name:  pc049a_lemo_db_4l_13.brd*
G04 Film Name:    pc049a_lemo_db_4l_BOTTOM*
G04 File Format:  Gerber RS274X*
G04 File Origin:  Cadence Allegro 16.6-2015-S055*
G04 Origin Date:  Wed Mar 16 12:12:19 2016*
G04 *
G04 Layer:  ETCH/BOTTOM*
G04 Layer:  PIN/BOTTOM*
G04 Layer:  VIA CLASS/BOTTOM*
G04 *
G04 Offset:    (0.0000 0.0000)*
G04 Mirror:    No*
G04 Mode:      Positive*
G04 Rotation:  0*
G04 FullContactRelief:  No*
G04 UndefLineWidth:     0.0000*
G04 ================== end FILE IDENTIFICATION RECORD ====================*
%FSLAX35Y35*MOMM*%
%IR0*IPPOS*OFA0.00000B0.00000*MIA0B0*SFA1.00000B1.00000*%
%ADD12C,.6096*%
%ADD13C,5.*%
%ADD14C,1.6002*%
%ADD10C,6.604*%
%ADD11C,1.397*%
%ADD15C,.2257*%
%ADD17C,2.1514*%
%ADD19C,2.3546*%
%ADD18C,5.7544*%
%ADD16C,7.3584*%
G75*
%LPD*%
G75*
G36*
G01X-8900000Y8900000D02*
X8900000D01*
Y-8900000D01*
X-8900000D01*
Y8900000D01*
G37*
%LPC*%
G75*
G54D17*
X-7253400Y-7254700D03*
X-6999400Y-7000700D03*
X-7253400Y-6746700D03*
Y-5254700D03*
Y-4746700D03*
X-6999400Y-5000700D03*
X-7254700Y-3254600D03*
Y-2746600D03*
X-7000700Y-3000600D03*
X-7254700Y-1254600D03*
Y-746600D03*
X-7000700Y-1000600D03*
X-7254700Y745400D03*
Y1253400D03*
X-7000700Y999400D03*
X-7254700Y2745400D03*
X-7000700Y2999400D03*
X-7254700Y3253400D03*
X-7254600Y5254700D03*
Y4746700D03*
X-7000600Y5000700D03*
X-7254600Y6746700D03*
Y7254700D03*
X-7000600Y7000700D03*
X-6745400Y-7254700D03*
Y-6746700D03*
Y-5254700D03*
Y-4746700D03*
X-6746700Y-3254600D03*
Y-2746600D03*
Y-1254600D03*
Y-746600D03*
Y745400D03*
Y1253400D03*
Y2745400D03*
Y3253400D03*
X-6746600Y5254700D03*
Y4746700D03*
Y6746700D03*
Y7254700D03*
X-4745400Y-7254700D03*
X-5253400D03*
X-4999400Y-7000700D03*
X-4745400Y-6746700D03*
X-5253400D03*
X-4745400Y-5254700D03*
Y-4746700D03*
X-5253400Y-5254700D03*
Y-4746700D03*
X-4999400Y-5000700D03*
X-5254700Y-3254600D03*
X-4746700D03*
X-5254700Y-2746600D03*
X-4746700D03*
X-5000700Y-3000600D03*
X-5254700Y-1254600D03*
X-4746700D03*
X-5254700Y-746600D03*
X-4746700D03*
X-5000700Y-1000600D03*
X-5254700Y745400D03*
X-4746700D03*
X-5254700Y1253400D03*
X-4746700D03*
X-5000700Y999400D03*
X-5254700Y2745400D03*
X-4746700D03*
X-5000700Y2999400D03*
X-5254700Y3253400D03*
X-4746700D03*
X-5254600Y5254700D03*
Y4746700D03*
X-4746600Y5254700D03*
Y4746700D03*
X-5000600Y5000700D03*
X-5254600Y6746700D03*
X-4746600D03*
X-5254600Y7254700D03*
X-4746600D03*
X-5000600Y7000700D03*
X-3253400Y-8254700D03*
Y-7746700D03*
Y-6254700D03*
Y-5746700D03*
Y-4254700D03*
Y-3746700D03*
Y-2254700D03*
Y-1746700D03*
X-3254600Y2254700D03*
Y1746700D03*
Y3746700D03*
Y4254700D03*
Y5746700D03*
Y6254700D03*
Y8254700D03*
Y7746700D03*
X-2745400Y-8254700D03*
Y-7746700D03*
X-2999400Y-8000700D03*
X-2745400Y-6254700D03*
Y-5746700D03*
X-2999400Y-6000700D03*
X-2745400Y-4254700D03*
X-2999400Y-4000700D03*
X-2745400Y-3746700D03*
Y-2254700D03*
Y-1746700D03*
X-2999400Y-2000700D03*
X-2746600Y2254700D03*
Y1746700D03*
X-3000600Y2000700D03*
X-2746600Y3746700D03*
Y4254700D03*
X-3000600Y4000700D03*
X-2746600Y5746700D03*
X-3000600Y6000700D03*
X-2746600Y6254700D03*
Y8254700D03*
Y7746700D03*
X-3000600Y8000700D03*
X-1253400Y-8254700D03*
Y-7746700D03*
X-999400Y-8000700D03*
X-1253400Y-6254700D03*
Y-5746700D03*
X-999400Y-6000700D03*
X-1253400Y-4254700D03*
X-999400Y-4000700D03*
X-1253400Y-3746700D03*
Y-2254700D03*
Y-1746700D03*
X-999400Y-2000700D03*
X-1254600Y2254700D03*
Y1746700D03*
X-1000600Y2000700D03*
X-1254600Y3746700D03*
Y4254700D03*
X-1000600Y4000700D03*
X-1254600Y5746700D03*
X-1000600Y6000700D03*
X-1254600Y6254700D03*
Y8254700D03*
Y7746700D03*
X-1000600Y8000700D03*
X-745400Y-8254700D03*
Y-7746700D03*
Y-6254700D03*
Y-5746700D03*
Y-4254700D03*
Y-3746700D03*
Y-2254700D03*
Y-1746700D03*
X-746600Y2254700D03*
Y1746700D03*
Y3746700D03*
Y4254700D03*
Y5746700D03*
Y6254700D03*
Y8254700D03*
Y7746700D03*
X746600Y-8254700D03*
Y-7746700D03*
Y-6254700D03*
Y-5746700D03*
Y-4254700D03*
Y-3746700D03*
Y-2254700D03*
Y-1746700D03*
X745400Y2254700D03*
Y1746700D03*
Y3746700D03*
Y4254700D03*
Y5746700D03*
Y6254700D03*
Y8254700D03*
Y7746700D03*
X1254600Y-8254700D03*
Y-7746700D03*
X1000600Y-8000700D03*
X1254600Y-6254700D03*
Y-5746700D03*
X1000600Y-6000700D03*
X1254600Y-4254700D03*
X1000600Y-4000700D03*
X1254600Y-3746700D03*
Y-2254700D03*
Y-1746700D03*
X1000600Y-2000700D03*
X1253400Y2254700D03*
Y1746700D03*
X999400Y2000700D03*
X1253400Y3746700D03*
Y4254700D03*
X999400Y4000700D03*
X1253400Y5746700D03*
X999400Y6000700D03*
X1253400Y6254700D03*
Y8254700D03*
Y7746700D03*
X999400Y8000700D03*
X2746600Y-8254700D03*
Y-7746700D03*
X3000600Y-8000700D03*
X2746600Y-6254700D03*
Y-5746700D03*
X3000600Y-6000700D03*
X2746600Y-4254700D03*
X3000600Y-4000700D03*
X2746600Y-3746700D03*
Y-2254700D03*
Y-1746700D03*
X3000600Y-2000700D03*
X2745400Y2254700D03*
Y1746700D03*
X2999400Y2000700D03*
X2745400Y3746700D03*
Y4254700D03*
X2999400Y4000700D03*
X2745400Y5746700D03*
X2999400Y6000700D03*
X2745400Y6254700D03*
Y8254700D03*
Y7746700D03*
X2999400Y8000700D03*
X3254600Y-8254700D03*
Y-7746700D03*
Y-6254700D03*
Y-5746700D03*
Y-4254700D03*
Y-3746700D03*
Y-2254700D03*
Y-1746700D03*
X3253400Y2254700D03*
Y1746700D03*
Y3746700D03*
Y4254700D03*
Y5746700D03*
Y6254700D03*
Y8254700D03*
Y7746700D03*
X5254600Y-7254700D03*
X4746600D03*
X5000600Y-7000700D03*
X5254600Y-6746700D03*
X4746600D03*
X5254600Y-5254700D03*
Y-4746700D03*
X4746600Y-5254700D03*
Y-4746700D03*
X5000600Y-5000700D03*
X5254700Y-3253400D03*
X4746700D03*
X5254700Y-2745400D03*
X4746700D03*
X5000700Y-2999400D03*
X5254700Y-745400D03*
X4746700D03*
X5254700Y-1253400D03*
X4746700D03*
X5000700Y-999400D03*
X5254700Y746600D03*
X4746700D03*
X5254700Y1254600D03*
X4746700D03*
X5000700Y1000600D03*
X5254700Y2746600D03*
X4746700D03*
X5000700Y3000600D03*
X5254700Y3254600D03*
X4746700D03*
X4745400Y5254700D03*
Y4746700D03*
X5253400Y5254700D03*
Y4746700D03*
X4999400Y5000700D03*
X4745400Y6746700D03*
X5253400D03*
X4745400Y7254700D03*
X5253400D03*
X4999400Y7000700D03*
X6746600Y-7254700D03*
Y-6746700D03*
Y-5254700D03*
Y-4746700D03*
X6746700Y-3253400D03*
Y-2745400D03*
Y-745400D03*
Y-1253400D03*
Y746600D03*
Y1254600D03*
Y2746600D03*
Y3254600D03*
X6745400Y5254700D03*
Y4746700D03*
Y6746700D03*
Y7254700D03*
X7254600Y-7254700D03*
X7000600Y-7000700D03*
X7254600Y-6746700D03*
Y-5254700D03*
Y-4746700D03*
X7000600Y-5000700D03*
X7254700Y-3253400D03*
Y-2745400D03*
X7000700Y-2999400D03*
X7254700Y-745400D03*
Y-1253400D03*
X7000700Y-999400D03*
X7254700Y746600D03*
Y1254600D03*
X7000700Y1000600D03*
X7254700Y2746600D03*
X7000700Y3000600D03*
X7254700Y3254600D03*
X7253400Y5254700D03*
Y4746700D03*
X6999400Y5000700D03*
X7253400Y6746700D03*
Y7254700D03*
X6999400Y7000700D03*
G54D19*
X-3000000Y-265000D03*
X3000000D03*
G54D18*
X-3700000Y0D03*
X3700000D03*
G54D16*
X-8000000Y-8000000D03*
Y0D03*
Y8000000D03*
X-6000000Y-4000000D03*
Y4000000D03*
X-5000000Y0D03*
X0Y-7000000D03*
Y-3000000D03*
Y3000000D03*
Y7000000D03*
X5000000Y0D03*
X6000000Y-4000000D03*
Y4000000D03*
X8000000Y-8000000D03*
Y0D03*
Y8000000D03*
%LPD*%
G75*
G54D10*
X-8000000Y-8000000D03*
Y0D03*
Y8000000D03*
X-6000000Y-4000000D03*
Y4000000D03*
X-5000000Y0D03*
X0Y-7000000D03*
Y-3000000D03*
Y3000000D03*
Y7000000D03*
X5000000Y0D03*
X6000000Y-4000000D03*
Y4000000D03*
X8000000Y-8000000D03*
Y0D03*
Y8000000D03*
G54D11*
X-7253400Y-7254700D03*
X-6999400Y-7000700D03*
X-7253400Y-6746700D03*
Y-5254700D03*
Y-4746700D03*
X-6999400Y-5000700D03*
X-7254700Y-3254600D03*
Y-2746600D03*
X-7000700Y-3000600D03*
X-7254700Y-1254600D03*
Y-746600D03*
X-7000700Y-1000600D03*
X-7254700Y745400D03*
Y1253400D03*
X-7000700Y999400D03*
X-7254700Y2745400D03*
X-7000700Y2999400D03*
X-7254700Y3253400D03*
X-7254600Y5254700D03*
Y4746700D03*
X-7000600Y5000700D03*
X-7254600Y6746700D03*
Y7254700D03*
X-7000600Y7000700D03*
X-6745400Y-7254700D03*
Y-6746700D03*
Y-5254700D03*
Y-4746700D03*
X-6746700Y-3254600D03*
Y-2746600D03*
Y-1254600D03*
Y-746600D03*
Y745400D03*
Y1253400D03*
Y2745400D03*
Y3253400D03*
X-6746600Y5254700D03*
Y4746700D03*
Y6746700D03*
Y7254700D03*
X-4745400Y-7254700D03*
X-5253400D03*
X-4999400Y-7000700D03*
X-4745400Y-6746700D03*
X-5253400D03*
X-4745400Y-5254700D03*
Y-4746700D03*
X-5253400Y-5254700D03*
Y-4746700D03*
X-4999400Y-5000700D03*
X-5254700Y-3254600D03*
X-4746700D03*
X-5254700Y-2746600D03*
X-4746700D03*
X-5000700Y-3000600D03*
X-5254700Y-1254600D03*
X-4746700D03*
X-5254700Y-746600D03*
X-4746700D03*
X-5000700Y-1000600D03*
X-5254700Y745400D03*
X-4746700D03*
X-5254700Y1253400D03*
X-4746700D03*
X-5000700Y999400D03*
X-5254700Y2745400D03*
X-4746700D03*
X-5000700Y2999400D03*
X-5254700Y3253400D03*
X-4746700D03*
X-5254600Y5254700D03*
Y4746700D03*
X-4746600Y5254700D03*
Y4746700D03*
X-5000600Y5000700D03*
X-5254600Y6746700D03*
X-4746600D03*
X-5254600Y7254700D03*
X-4746600D03*
X-5000600Y7000700D03*
X-3253400Y-8254700D03*
Y-7746700D03*
Y-6254700D03*
Y-5746700D03*
Y-4254700D03*
Y-3746700D03*
Y-2254700D03*
Y-1746700D03*
X-3254600Y2254700D03*
Y1746700D03*
Y3746700D03*
Y4254700D03*
Y5746700D03*
Y6254700D03*
Y8254700D03*
Y7746700D03*
X-2745400Y-8254700D03*
Y-7746700D03*
X-2999400Y-8000700D03*
X-2745400Y-6254700D03*
Y-5746700D03*
X-2999400Y-6000700D03*
X-2745400Y-4254700D03*
X-2999400Y-4000700D03*
X-2745400Y-3746700D03*
Y-2254700D03*
Y-1746700D03*
X-2999400Y-2000700D03*
X-2746600Y2254700D03*
Y1746700D03*
X-3000600Y2000700D03*
X-2746600Y3746700D03*
Y4254700D03*
X-3000600Y4000700D03*
X-2746600Y5746700D03*
X-3000600Y6000700D03*
X-2746600Y6254700D03*
Y8254700D03*
Y7746700D03*
X-3000600Y8000700D03*
X-1253400Y-8254700D03*
Y-7746700D03*
X-999400Y-8000700D03*
X-1253400Y-6254700D03*
Y-5746700D03*
X-999400Y-6000700D03*
X-1253400Y-4254700D03*
X-999400Y-4000700D03*
X-1253400Y-3746700D03*
Y-2254700D03*
Y-1746700D03*
X-999400Y-2000700D03*
X-1254600Y2254700D03*
Y1746700D03*
X-1000600Y2000700D03*
X-1254600Y3746700D03*
Y4254700D03*
X-1000600Y4000700D03*
X-1254600Y5746700D03*
X-1000600Y6000700D03*
X-1254600Y6254700D03*
Y8254700D03*
Y7746700D03*
X-1000600Y8000700D03*
X-745400Y-8254700D03*
Y-7746700D03*
Y-6254700D03*
Y-5746700D03*
Y-4254700D03*
Y-3746700D03*
Y-2254700D03*
Y-1746700D03*
X-746600Y2254700D03*
Y1746700D03*
Y3746700D03*
Y4254700D03*
Y5746700D03*
Y6254700D03*
Y8254700D03*
Y7746700D03*
X746600Y-8254700D03*
Y-7746700D03*
Y-6254700D03*
Y-5746700D03*
Y-4254700D03*
Y-3746700D03*
Y-2254700D03*
Y-1746700D03*
X745400Y2254700D03*
Y1746700D03*
Y3746700D03*
Y4254700D03*
Y5746700D03*
Y6254700D03*
Y8254700D03*
Y7746700D03*
X1254600Y-8254700D03*
Y-7746700D03*
X1000600Y-8000700D03*
X1254600Y-6254700D03*
Y-5746700D03*
X1000600Y-6000700D03*
X1254600Y-4254700D03*
X1000600Y-4000700D03*
X1254600Y-3746700D03*
Y-2254700D03*
Y-1746700D03*
X1000600Y-2000700D03*
X1253400Y2254700D03*
Y1746700D03*
X999400Y2000700D03*
X1253400Y3746700D03*
Y4254700D03*
X999400Y4000700D03*
X1253400Y5746700D03*
X999400Y6000700D03*
X1253400Y6254700D03*
Y8254700D03*
Y7746700D03*
X999400Y8000700D03*
X2746600Y-8254700D03*
Y-7746700D03*
X3000600Y-8000700D03*
X2746600Y-6254700D03*
Y-5746700D03*
X3000600Y-6000700D03*
X2746600Y-4254700D03*
X3000600Y-4000700D03*
X2746600Y-3746700D03*
Y-2254700D03*
Y-1746700D03*
X3000600Y-2000700D03*
X2745400Y2254700D03*
Y1746700D03*
X2999400Y2000700D03*
X2745400Y3746700D03*
Y4254700D03*
X2999400Y4000700D03*
X2745400Y5746700D03*
X2999400Y6000700D03*
X2745400Y6254700D03*
Y8254700D03*
Y7746700D03*
X2999400Y8000700D03*
X3254600Y-8254700D03*
Y-7746700D03*
Y-6254700D03*
Y-5746700D03*
Y-4254700D03*
Y-3746700D03*
Y-2254700D03*
Y-1746700D03*
X3253400Y2254700D03*
Y1746700D03*
Y3746700D03*
Y4254700D03*
Y5746700D03*
Y6254700D03*
Y8254700D03*
Y7746700D03*
X5254600Y-7254700D03*
X4746600D03*
X5000600Y-7000700D03*
X5254600Y-6746700D03*
X4746600D03*
X5254600Y-5254700D03*
Y-4746700D03*
X4746600Y-5254700D03*
Y-4746700D03*
X5000600Y-5000700D03*
X5254700Y-3253400D03*
X4746700D03*
X5254700Y-2745400D03*
X4746700D03*
X5000700Y-2999400D03*
X5254700Y-745400D03*
X4746700D03*
X5254700Y-1253400D03*
X4746700D03*
X5000700Y-999400D03*
X5254700Y746600D03*
X4746700D03*
X5254700Y1254600D03*
X4746700D03*
X5000700Y1000600D03*
X5254700Y2746600D03*
X4746700D03*
X5000700Y3000600D03*
X5254700Y3254600D03*
X4746700D03*
X4745400Y5254700D03*
Y4746700D03*
X5253400Y5254700D03*
Y4746700D03*
X4999400Y5000700D03*
X4745400Y6746700D03*
X5253400D03*
X4745400Y7254700D03*
X5253400D03*
X4999400Y7000700D03*
X6746600Y-7254700D03*
Y-6746700D03*
Y-5254700D03*
Y-4746700D03*
X6746700Y-3253400D03*
Y-2745400D03*
Y-745400D03*
Y-1253400D03*
Y746600D03*
Y1254600D03*
Y2746600D03*
Y3254600D03*
X6745400Y5254700D03*
Y4746700D03*
Y6746700D03*
Y7254700D03*
X7254600Y-7254700D03*
X7000600Y-7000700D03*
X7254600Y-6746700D03*
Y-5254700D03*
Y-4746700D03*
X7000600Y-5000700D03*
X7254700Y-3253400D03*
Y-2745400D03*
X7000700Y-2999400D03*
X7254700Y-745400D03*
Y-1253400D03*
X7000700Y-999400D03*
X7254700Y746600D03*
Y1254600D03*
X7000700Y1000600D03*
X7254700Y2746600D03*
X7000700Y3000600D03*
X7254700Y3254600D03*
X7253400Y5254700D03*
Y4746700D03*
X6999400Y5000700D03*
X7253400Y6746700D03*
Y7254700D03*
X6999400Y7000700D03*
G54D12*
X-6350000Y-2000000D03*
X-6810000Y-1880000D03*
Y-2040000D03*
X-6720000Y-1960000D03*
Y-2120000D03*
X-6350000Y2000000D03*
X-6810000Y2120000D03*
Y1960000D03*
X-6720000Y2040000D03*
Y1880000D03*
X-6000000Y-6350000D03*
X-6120000Y-6810000D03*
X-5960000D03*
X-6040000Y-6720000D03*
X-5880000D03*
X-6000000Y-6090000D03*
X-6090000Y-2000000D03*
Y2000000D03*
X-6000000Y6090000D03*
X-5880000Y6810000D03*
X-6040000D03*
X-5960000Y6720000D03*
X-6120000D03*
X-6000000Y6350000D03*
X-2826000Y-95000D03*
X-2634590Y-102230D03*
X-2571500Y-461500D03*
X-2444090Y-92730D03*
X-2826000Y95000D03*
X-2381000Y95500D03*
X-2508000D03*
X-2635000D03*
X-2120000Y-7810000D03*
X-1960000D03*
X-2040000Y-7720000D03*
X-1880000D03*
X-2000000Y-7350000D03*
Y-7090000D03*
Y-3350000D03*
Y-3090000D03*
X-2120000Y-3810000D03*
X-1960000D03*
X-2040000Y-3720000D03*
X-1880000D03*
X-2317500Y-467500D03*
X-2190090Y-106730D03*
X-2100000Y-480000D03*
X-1936090Y-93730D03*
X-1809090Y-97730D03*
X-1682090Y-94730D03*
X-1619000Y95500D03*
X-1746000D03*
X-1873000D03*
X-2000000D03*
X-2127000D03*
X-2254000D03*
X-2000000Y3350000D03*
Y3090000D03*
X-1960000Y3720000D03*
X-2120000D03*
X-2040000Y3810000D03*
X-1880000D03*
X-2000000Y7350000D03*
Y7090000D03*
X-1880000Y7810000D03*
X-2040000D03*
X-1960000Y7720000D03*
X-2120000D03*
X-1555090Y-91730D03*
X-1428090Y-108730D03*
X-1301090Y-98730D03*
X-1238000Y95500D03*
X-1365000D03*
X-1492000D03*
X-126590Y-92230D03*
X-253590D03*
X-380590D03*
X-634590D03*
X-507590D03*
X-761590D03*
X-63500Y95000D03*
X-190500D03*
X-317500D03*
X-444500D03*
X-571500D03*
X-698500D03*
X635410Y-92230D03*
X508410D03*
X381410D03*
X254410D03*
X127410D03*
X410D03*
X698500Y95000D03*
X571500D03*
X444500D03*
X317500D03*
X190500D03*
X63500D03*
X984000Y-95000D03*
X1428910Y-102230D03*
X762410Y-92230D03*
X1301910Y-102230D03*
X984000Y95000D03*
X1365000D03*
X1238000D03*
X1880000Y-7810000D03*
X2040000D03*
X1960000Y-7720000D03*
X2120000D03*
X2000000Y-7350000D03*
Y-7090000D03*
X1880000Y-3810000D03*
X2040000D03*
X1960000Y-3720000D03*
X2120000D03*
X2000000Y-3350000D03*
Y-3090000D03*
X2190910Y-102230D03*
X2063910D03*
X1936910D03*
X1809910D03*
X1682910D03*
X1555910D03*
X2127000Y95000D03*
X2000000D03*
X1873000D03*
X1746000D03*
X1619000D03*
X1492000D03*
X2000000Y3350000D03*
Y3090000D03*
X2040000Y3720000D03*
X1880000D03*
X1960000Y3810000D03*
X2120000D03*
X2000000Y7350000D03*
Y7090000D03*
X2120000Y7810000D03*
X1960000D03*
X2040000Y7720000D03*
X1880000D03*
X2889000Y-115000D03*
X2698910Y-102230D03*
X2571910D03*
X2444910D03*
X2317910D03*
X2889000Y115000D03*
X2762000Y95000D03*
X2635000D03*
X2508000D03*
X2381000D03*
X2254000D03*
X6000000Y-6350000D03*
X5880000Y-6810000D03*
X6040000D03*
X5960000Y-6720000D03*
X6000000Y-6090000D03*
Y6090000D03*
X5960000Y6810000D03*
X6040000Y6720000D03*
X5880000D03*
X6000000Y6350000D03*
X6120000Y-6720000D03*
X6350000Y-2000000D03*
X6090000D03*
X6810000Y-2120000D03*
Y-1960000D03*
X6720000Y-2040000D03*
Y-1880000D03*
X6350000Y2000000D03*
X6090000D03*
X6810000Y1880000D03*
Y2040000D03*
X6720000Y1960000D03*
Y2120000D03*
X6120000Y6810000D03*
G54D13*
X-3700000Y0D03*
X3700000D03*
G54D14*
X-3000000Y-265000D03*
X3000000D03*
G54D15*
G01X-7253400Y-7367350D02*
Y-7254700D01*
G01D02*
Y-7142050D01*
G01X-7366050Y-7254700D02*
X-7253400D01*
G01D02*
X-7140750D01*
G01X-7253400Y-6859350D02*
Y-6746700D01*
G01D02*
Y-6634050D01*
G01X-7366050Y-6746700D02*
X-7253400D01*
G01D02*
X-7140750D01*
G01X-7253400Y-4859350D02*
Y-4746700D01*
G01D02*
Y-4634050D01*
G01X-7366050Y-4746700D02*
X-7253400D01*
G01D02*
X-7140750D01*
G01X-7253400Y-5367350D02*
Y-5254700D01*
G01D02*
Y-5142050D01*
G01X-7366050Y-5254700D02*
X-7253400D01*
G01D02*
X-7140750D01*
G01X-7254700Y-3367250D02*
Y-3254600D01*
G01D02*
Y-3141950D01*
G01X-7367350Y-3254600D02*
X-7254700D01*
G01D02*
X-7142050D01*
G01X-7254700Y-2859250D02*
Y-2746600D01*
G01D02*
Y-2633950D01*
G01X-7367350Y-2746600D02*
X-7254700D01*
G01D02*
X-7142050D01*
G01X-7254700Y-859250D02*
Y-746600D01*
G01Y-1367250D02*
Y-1254600D01*
G01D02*
Y-1141950D01*
G01X-7367350Y-1254600D02*
X-7254700D01*
G01D02*
X-7142050D01*
G01X-7254700Y-746600D02*
Y-633950D01*
G01X-7367350Y-746600D02*
X-7254700D01*
G01D02*
X-7142050D01*
G01X-7254700Y632750D02*
Y745400D01*
G01Y1140750D02*
Y1253400D01*
G01D02*
Y1366050D01*
G01X-7367350Y1253400D02*
X-7254700D01*
G01D02*
X-7142050D01*
G01X-7254700Y745400D02*
Y858050D01*
G01X-7367350Y745400D02*
X-7254700D01*
G01D02*
X-7142050D01*
G01X-7254700Y2632750D02*
Y2745400D01*
G01D02*
Y2858050D01*
G01X-7367350Y2745400D02*
X-7254700D01*
G01D02*
X-7142050D01*
G01X-7254700Y3140750D02*
Y3253400D01*
G01D02*
Y3366050D01*
G01X-7367350Y3253400D02*
X-7254700D01*
G01D02*
X-7142050D01*
G01X-7254600Y4634050D02*
Y4746700D01*
G01D02*
Y4859350D01*
G01X-7367250Y4746700D02*
X-7254600D01*
G01D02*
X-7141950D01*
G01X-7254600Y5142050D02*
Y5254700D01*
G01D02*
Y5367350D01*
G01X-7367250Y5254700D02*
X-7254600D01*
G01D02*
X-7141950D01*
G01X-7254600Y6634050D02*
Y6746700D01*
G01D02*
Y6859350D01*
G01X-7367250Y6746700D02*
X-7254600D01*
G01D02*
X-7141950D01*
G01X-7254600Y7142050D02*
Y7254700D01*
G01D02*
Y7367350D01*
G01X-7367250Y7254700D02*
X-7254600D01*
G01D02*
X-7141950D01*
G01X-6745400Y-7367350D02*
Y-7254700D01*
G01D02*
Y-7142050D01*
G01X-6858050Y-7254700D02*
X-6745400D01*
G01D02*
X-6632750D01*
G01X-6745400Y-6859350D02*
Y-6746700D01*
G01D02*
Y-6634050D01*
G01X-6858050Y-6746700D02*
X-6745400D01*
G01D02*
X-6632750D01*
G01X-6745400Y-4859350D02*
Y-4746700D01*
G01D02*
Y-4634050D01*
G01X-6858050Y-4746700D02*
X-6745400D01*
G01D02*
X-6632750D01*
G01X-6745400Y-5367350D02*
Y-5254700D01*
G01D02*
Y-5142050D01*
G01X-6858050Y-5254700D02*
X-6745400D01*
G01D02*
X-6632750D01*
G01X-6746700Y-3367250D02*
Y-3254600D01*
G01D02*
Y-3141950D01*
G01X-6859350Y-3254600D02*
X-6746700D01*
G01D02*
X-6634050D01*
G01X-6746700Y-2859250D02*
Y-2746600D01*
G01D02*
Y-2633950D01*
G01X-6859350Y-2746600D02*
X-6746700D01*
G01D02*
X-6634050D01*
G01X-6746700Y-859250D02*
Y-746600D01*
G01Y-1367250D02*
Y-1254600D01*
G01D02*
Y-1141950D01*
G01X-6859350Y-1254600D02*
X-6746700D01*
G01D02*
X-6634050D01*
G01X-6746700Y-746600D02*
Y-633950D01*
G01X-6859350Y-746600D02*
X-6746700D01*
G01D02*
X-6634050D01*
G01X-6746700Y632750D02*
Y745400D01*
G01Y1140750D02*
Y1253400D01*
G01D02*
Y1366050D01*
G01X-6859350Y1253400D02*
X-6746700D01*
G01D02*
X-6634050D01*
G01X-6746700Y745400D02*
Y858050D01*
G01X-6859350Y745400D02*
X-6746700D01*
G01D02*
X-6634050D01*
G01X-6746700Y2632750D02*
Y2745400D01*
G01D02*
Y2858050D01*
G01X-6859350Y2745400D02*
X-6746700D01*
G01D02*
X-6634050D01*
G01X-6746700Y3140750D02*
Y3253400D01*
G01D02*
Y3366050D01*
G01X-6859350Y3253400D02*
X-6746700D01*
G01D02*
X-6634050D01*
G01X-6746600Y4634050D02*
Y4746700D01*
G01D02*
Y4859350D01*
G01X-6859250Y4746700D02*
X-6746600D01*
G01D02*
X-6633950D01*
G01X-6746600Y5142050D02*
Y5254700D01*
G01D02*
Y5367350D01*
G01X-6859250Y5254700D02*
X-6746600D01*
G01D02*
X-6633950D01*
G01X-6746600Y6634050D02*
Y6746700D01*
G01D02*
Y6859350D01*
G01X-6859250Y6746700D02*
X-6746600D01*
G01D02*
X-6633950D01*
G01X-6746600Y7142050D02*
Y7254700D01*
G01D02*
Y7367350D01*
G01X-6859250Y7254700D02*
X-6746600D01*
G01D02*
X-6633950D01*
G01X-5253400Y-7367350D02*
Y-7254700D01*
G01D02*
Y-7142050D01*
G01X-5366050Y-7254700D02*
X-5253400D01*
G01D02*
X-5140750D01*
G01X-4745400Y-7367350D02*
Y-7254700D01*
G01D02*
Y-7142050D01*
G01X-4858050Y-7254700D02*
X-4745400D01*
G01D02*
X-4632750D01*
G01X-5253400Y-6859350D02*
Y-6746700D01*
G01D02*
Y-6634050D01*
G01X-5366050Y-6746700D02*
X-5253400D01*
G01D02*
X-5140750D01*
G01X-4745400Y-6859350D02*
Y-6746700D01*
G01D02*
Y-6634050D01*
G01X-4858050Y-6746700D02*
X-4745400D01*
G01D02*
X-4632750D01*
G01X-5253400Y-4859350D02*
Y-4746700D01*
G01D02*
Y-4634050D01*
G01X-5366050Y-4746700D02*
X-5253400D01*
G01D02*
X-5140750D01*
G01X-5253400Y-5367350D02*
Y-5254700D01*
G01D02*
Y-5142050D01*
G01X-5366050Y-5254700D02*
X-5253400D01*
G01D02*
X-5140750D01*
G01X-4745400Y-4859350D02*
Y-4746700D01*
G01D02*
Y-4634050D01*
G01X-4858050Y-4746700D02*
X-4745400D01*
G01D02*
X-4632750D01*
G01X-4745400Y-5367350D02*
Y-5254700D01*
G01D02*
Y-5142050D01*
G01X-4858050Y-5254700D02*
X-4745400D01*
G01D02*
X-4632750D01*
G01X-4746700Y-3367250D02*
Y-3254600D01*
G01D02*
Y-3141950D01*
G01X-4859350Y-3254600D02*
X-4746700D01*
G01D02*
X-4634050D01*
G01X-5254700Y-3367250D02*
Y-3254600D01*
G01D02*
Y-3141950D01*
G01X-5367350Y-3254600D02*
X-5254700D01*
G01D02*
X-5142050D01*
G01X-4746700Y-2859250D02*
Y-2746600D01*
G01D02*
Y-2633950D01*
G01X-4859350Y-2746600D02*
X-4746700D01*
G01D02*
X-4634050D01*
G01X-5254700Y-2859250D02*
Y-2746600D01*
G01D02*
Y-2633950D01*
G01X-5367350Y-2746600D02*
X-5254700D01*
G01D02*
X-5142050D01*
G01X-4746700Y-859250D02*
Y-746600D01*
G01X-5254700Y-859250D02*
Y-746600D01*
G01X-4746700Y-1367250D02*
Y-1254600D01*
G01D02*
Y-1141950D01*
G01X-4859350Y-1254600D02*
X-4746700D01*
G01D02*
X-4634050D01*
G01X-5254700Y-1367250D02*
Y-1254600D01*
G01D02*
Y-1141950D01*
G01X-5367350Y-1254600D02*
X-5254700D01*
G01D02*
X-5142050D01*
G01X-4746700Y-746600D02*
Y-633950D01*
G01X-4859350Y-746600D02*
X-4746700D01*
G01D02*
X-4634050D01*
G01X-5254700D02*
Y-633950D01*
G01X-5367350Y-746600D02*
X-5254700D01*
G01D02*
X-5142050D01*
G01X-4746700Y632750D02*
Y745400D01*
G01X-5254700Y632750D02*
Y745400D01*
G01X-4746700Y1140750D02*
Y1253400D01*
G01D02*
Y1366050D01*
G01X-4859350Y1253400D02*
X-4746700D01*
G01D02*
X-4634050D01*
G01X-5254700Y1140750D02*
Y1253400D01*
G01D02*
Y1366050D01*
G01X-5367350Y1253400D02*
X-5254700D01*
G01D02*
X-5142050D01*
G01X-4746700Y745400D02*
Y858050D01*
G01X-4859350Y745400D02*
X-4746700D01*
G01D02*
X-4634050D01*
G01X-5254700D02*
Y858050D01*
G01X-5367350Y745400D02*
X-5254700D01*
G01D02*
X-5142050D01*
G01X-4746700Y2632750D02*
Y2745400D01*
G01D02*
Y2858050D01*
G01X-4859350Y2745400D02*
X-4746700D01*
G01D02*
X-4634050D01*
G01X-5254700Y2632750D02*
Y2745400D01*
G01D02*
Y2858050D01*
G01X-5367350Y2745400D02*
X-5254700D01*
G01D02*
X-5142050D01*
G01X-4746700Y3140750D02*
Y3253400D01*
G01D02*
Y3366050D01*
G01X-4859350Y3253400D02*
X-4746700D01*
G01D02*
X-4634050D01*
G01X-5254700Y3140750D02*
Y3253400D01*
G01D02*
Y3366050D01*
G01X-5367350Y3253400D02*
X-5254700D01*
G01D02*
X-5142050D01*
G01X-4746600Y4634050D02*
Y4746700D01*
G01D02*
Y4859350D01*
G01X-4859250Y4746700D02*
X-4746600D01*
G01D02*
X-4633950D01*
G01X-4746600Y5142050D02*
Y5254700D01*
G01D02*
Y5367350D01*
G01X-4859250Y5254700D02*
X-4746600D01*
G01D02*
X-4633950D01*
G01X-5254600Y4634050D02*
Y4746700D01*
G01D02*
Y4859350D01*
G01X-5367250Y4746700D02*
X-5254600D01*
G01D02*
X-5141950D01*
G01X-5254600Y5142050D02*
Y5254700D01*
G01D02*
Y5367350D01*
G01X-5367250Y5254700D02*
X-5254600D01*
G01D02*
X-5141950D01*
G01X-4746600Y6634050D02*
Y6746700D01*
G01D02*
Y6859350D01*
G01X-4859250Y6746700D02*
X-4746600D01*
G01D02*
X-4633950D01*
G01X-5254600Y6634050D02*
Y6746700D01*
G01D02*
Y6859350D01*
G01X-5367250Y6746700D02*
X-5254600D01*
G01D02*
X-5141950D01*
G01X-4746600Y7142050D02*
Y7254700D01*
G01D02*
Y7367350D01*
G01X-4859250Y7254700D02*
X-4746600D01*
G01D02*
X-4633950D01*
G01X-5254600Y7142050D02*
Y7254700D01*
G01D02*
Y7367350D01*
G01X-5367250Y7254700D02*
X-5254600D01*
G01D02*
X-5141950D01*
G01X-3253400Y-7859350D02*
Y-7746700D01*
G01D02*
Y-7634050D01*
G01X-3366050Y-7746700D02*
X-3253400D01*
G01D02*
X-3140750D01*
G01X-3253400Y-8367350D02*
Y-8254700D01*
G01D02*
Y-8142050D01*
G01X-3366050Y-8254700D02*
X-3253400D01*
G01D02*
X-3140750D01*
G01X-3253400Y-6367350D02*
Y-6254700D01*
G01D02*
Y-6142050D01*
G01X-3366050Y-6254700D02*
X-3253400D01*
G01D02*
X-3140750D01*
G01X-3253400Y-5859350D02*
Y-5746700D01*
G01D02*
Y-5634050D01*
G01X-3366050Y-5746700D02*
X-3253400D01*
G01D02*
X-3140750D01*
G01X-3253400Y-4367350D02*
Y-4254700D01*
G01D02*
Y-4142050D01*
G01X-3366050Y-4254700D02*
X-3253400D01*
G01D02*
X-3140750D01*
G01X-3253400Y-3859350D02*
Y-3746700D01*
G01D02*
Y-3634050D01*
G01X-3366050Y-3746700D02*
X-3253400D01*
G01D02*
X-3140750D01*
G01X-3253400Y-2367350D02*
Y-2254700D01*
G01Y-1859350D02*
Y-1746700D01*
G01D02*
Y-1634050D01*
G01X-3366050Y-1746700D02*
X-3253400D01*
G01D02*
X-3140750D01*
G01X-3253400Y-2254700D02*
Y-2142050D01*
G01X-3366050Y-2254700D02*
X-3253400D01*
G01D02*
X-3140750D01*
G01X-3254600Y1634050D02*
Y1746700D01*
G01D02*
Y1859350D01*
G01X-3367250Y1746700D02*
X-3254600D01*
G01D02*
X-3141950D01*
G01X-3254600Y2142050D02*
Y2254700D01*
G01D02*
Y2367350D01*
G01X-3367250Y2254700D02*
X-3254600D01*
G01D02*
X-3141950D01*
G01X-3254600Y3634050D02*
Y3746700D01*
G01D02*
Y3859350D01*
G01X-3367250Y3746700D02*
X-3254600D01*
G01D02*
X-3141950D01*
G01X-3254600Y4142050D02*
Y4254700D01*
G01D02*
Y4367350D01*
G01X-3367250Y4254700D02*
X-3254600D01*
G01D02*
X-3141950D01*
G01X-3254600Y5634050D02*
Y5746700D01*
G01D02*
Y5859350D01*
G01X-3367250Y5746700D02*
X-3254600D01*
G01D02*
X-3141950D01*
G01X-3254600Y6142050D02*
Y6254700D01*
G01D02*
Y6367350D01*
G01X-3367250Y6254700D02*
X-3254600D01*
G01D02*
X-3141950D01*
G01X-3254600Y7634050D02*
Y7746700D01*
G01D02*
Y7859350D01*
G01X-3367250Y7746700D02*
X-3254600D01*
G01D02*
X-3141950D01*
G01X-3254600Y8142050D02*
Y8254700D01*
G01D02*
Y8367350D01*
G01X-3367250Y8254700D02*
X-3254600D01*
G01D02*
X-3141950D01*
G01X-2745400Y-7859350D02*
Y-7746700D01*
G01D02*
Y-7634050D01*
G01X-2858050Y-7746700D02*
X-2745400D01*
G01D02*
X-2632750D01*
G01X-2745400Y-8367350D02*
Y-8254700D01*
G01D02*
Y-8142050D01*
G01X-2858050Y-8254700D02*
X-2745400D01*
G01D02*
X-2632750D01*
G01X-2745400Y-6367350D02*
Y-6254700D01*
G01D02*
Y-6142050D01*
G01X-2858050Y-6254700D02*
X-2745400D01*
G01D02*
X-2632750D01*
G01X-2745400Y-5859350D02*
Y-5746700D01*
G01D02*
Y-5634050D01*
G01X-2858050Y-5746700D02*
X-2745400D01*
G01D02*
X-2632750D01*
G01X-2745400Y-4367350D02*
Y-4254700D01*
G01D02*
Y-4142050D01*
G01X-2858050Y-4254700D02*
X-2745400D01*
G01D02*
X-2632750D01*
G01X-2745400Y-3859350D02*
Y-3746700D01*
G01D02*
Y-3634050D01*
G01X-2858050Y-3746700D02*
X-2745400D01*
G01D02*
X-2632750D01*
G01X-2745400Y-2367350D02*
Y-2254700D01*
G01Y-1859350D02*
Y-1746700D01*
G01D02*
Y-1634050D01*
G01X-2858050Y-1746700D02*
X-2745400D01*
G01D02*
X-2632750D01*
G01X-2745400Y-2254700D02*
Y-2142050D01*
G01X-2858050Y-2254700D02*
X-2745400D01*
G01D02*
X-2632750D01*
G01X-2746600Y1634050D02*
Y1746700D01*
G01D02*
Y1859350D01*
G01X-2859250Y1746700D02*
X-2746600D01*
G01D02*
X-2633950D01*
G01X-2746600Y2142050D02*
Y2254700D01*
G01D02*
Y2367350D01*
G01X-2859250Y2254700D02*
X-2746600D01*
G01D02*
X-2633950D01*
G01X-2746600Y3634050D02*
Y3746700D01*
G01D02*
Y3859350D01*
G01X-2859250Y3746700D02*
X-2746600D01*
G01D02*
X-2633950D01*
G01X-2746600Y4142050D02*
Y4254700D01*
G01D02*
Y4367350D01*
G01X-2859250Y4254700D02*
X-2746600D01*
G01D02*
X-2633950D01*
G01X-2746600Y5634050D02*
Y5746700D01*
G01D02*
Y5859350D01*
G01X-2859250Y5746700D02*
X-2746600D01*
G01D02*
X-2633950D01*
G01X-2746600Y6142050D02*
Y6254700D01*
G01D02*
Y6367350D01*
G01X-2859250Y6254700D02*
X-2746600D01*
G01D02*
X-2633950D01*
G01X-2746600Y7634050D02*
Y7746700D01*
G01D02*
Y7859350D01*
G01X-2859250Y7746700D02*
X-2746600D01*
G01D02*
X-2633950D01*
G01X-2746600Y8142050D02*
Y8254700D01*
G01D02*
Y8367350D01*
G01X-2859250Y8254700D02*
X-2746600D01*
G01D02*
X-2633950D01*
G01X-858050Y-7746700D02*
X-745400D01*
G01X-858050Y-8254700D02*
X-745400D01*
G01X-1253400Y-7859350D02*
Y-7746700D01*
G01D02*
Y-7634050D01*
G01X-1366050Y-7746700D02*
X-1253400D01*
G01D02*
X-1140750D01*
G01X-1253400Y-8367350D02*
Y-8254700D01*
G01D02*
Y-8142050D01*
G01X-1366050Y-8254700D02*
X-1253400D01*
G01D02*
X-1140750D01*
G01X-858050Y-6254700D02*
X-745400D01*
G01X-1253400Y-6367350D02*
Y-6254700D01*
G01D02*
Y-6142050D01*
G01X-1366050Y-6254700D02*
X-1253400D01*
G01D02*
X-1140750D01*
G01X-858050Y-5746700D02*
X-745400D01*
G01X-1253400Y-5859350D02*
Y-5746700D01*
G01D02*
Y-5634050D01*
G01X-1366050Y-5746700D02*
X-1253400D01*
G01D02*
X-1140750D01*
G01X-858050Y-4254700D02*
X-745400D01*
G01X-1253400Y-4367350D02*
Y-4254700D01*
G01D02*
Y-4142050D01*
G01X-1366050Y-4254700D02*
X-1253400D01*
G01D02*
X-1140750D01*
G01X-858050Y-3746700D02*
X-745400D01*
G01X-1253400Y-3859350D02*
Y-3746700D01*
G01D02*
Y-3634050D01*
G01X-1366050Y-3746700D02*
X-1253400D01*
G01D02*
X-1140750D01*
G01X-1253400Y-2367350D02*
Y-2254700D01*
G01X-858050Y-1746700D02*
X-745400D01*
G01X-858050Y-2254700D02*
X-745400D01*
G01X-1253400Y-1859350D02*
Y-1746700D01*
G01D02*
Y-1634050D01*
G01X-1366050Y-1746700D02*
X-1253400D01*
G01D02*
X-1140750D01*
G01X-1253400Y-2254700D02*
Y-2142050D01*
G01X-1366050Y-2254700D02*
X-1253400D01*
G01D02*
X-1140750D01*
G01X-859250Y1746700D02*
X-746600D01*
G01X-1254600Y1634050D02*
Y1746700D01*
G01D02*
Y1859350D01*
G01X-1367250Y1746700D02*
X-1254600D01*
G01D02*
X-1141950D01*
G01X-1254600Y2142050D02*
Y2254700D01*
G01X-859250D02*
X-746600D01*
G01X-1254600D02*
Y2367350D01*
G01X-1367250Y2254700D02*
X-1254600D01*
G01D02*
X-1141950D01*
G01X-859250Y3746700D02*
X-746600D01*
G01X-1254600Y3634050D02*
Y3746700D01*
G01D02*
Y3859350D01*
G01X-1367250Y3746700D02*
X-1254600D01*
G01D02*
X-1141950D01*
G01X-859250Y4254700D02*
X-746600D01*
G01X-1254600Y4142050D02*
Y4254700D01*
G01D02*
Y4367350D01*
G01X-1367250Y4254700D02*
X-1254600D01*
G01D02*
X-1141950D01*
G01X-859250Y5746700D02*
X-746600D01*
G01X-1254600Y5634050D02*
Y5746700D01*
G01D02*
Y5859350D01*
G01X-1367250Y5746700D02*
X-1254600D01*
G01D02*
X-1141950D01*
G01X-859250Y6254700D02*
X-746600D01*
G01X-1254600Y6142050D02*
Y6254700D01*
G01D02*
Y6367350D01*
G01X-1367250Y6254700D02*
X-1254600D01*
G01D02*
X-1141950D01*
G01X-859250Y7746700D02*
X-746600D01*
G01X-859250Y8254700D02*
X-746600D01*
G01X-1254600Y7634050D02*
Y7746700D01*
G01D02*
Y7859350D01*
G01X-1367250Y7746700D02*
X-1254600D01*
G01D02*
X-1141950D01*
G01X-1254600Y8142050D02*
Y8254700D01*
G01D02*
Y8367350D01*
G01X-1367250Y8254700D02*
X-1254600D01*
G01D02*
X-1141950D01*
G01X-745400Y-7859350D02*
Y-7746700D01*
G01D02*
Y-7634050D01*
G01Y-7746700D02*
X-632750D01*
G01X-745400Y-8367350D02*
Y-8254700D01*
G01D02*
Y-8142050D01*
G01Y-8254700D02*
X-632750D01*
G01X-745400Y-6367350D02*
Y-6254700D01*
G01D02*
Y-6142050D01*
G01Y-6254700D02*
X-632750D01*
G01X-745400Y-5859350D02*
Y-5746700D01*
G01D02*
Y-5634050D01*
G01Y-5746700D02*
X-632750D01*
G01X-745400Y-4367350D02*
Y-4254700D01*
G01D02*
Y-4142050D01*
G01Y-4254700D02*
X-632750D01*
G01X-745400Y-3859350D02*
Y-3746700D01*
G01D02*
Y-3634050D01*
G01Y-3746700D02*
X-632750D01*
G01X-745400Y-2367350D02*
Y-2254700D01*
G01Y-1859350D02*
Y-1746700D01*
G01D02*
Y-1634050D01*
G01Y-1746700D02*
X-632750D01*
G01X-745400Y-2254700D02*
Y-2142050D01*
G01Y-2254700D02*
X-632750D01*
G01X-746600Y1634050D02*
Y1746700D01*
G01D02*
Y1859350D01*
G01Y1746700D02*
X-633950D01*
G01X-746600Y2142050D02*
Y2254700D01*
G01D02*
Y2367350D01*
G01Y2254700D02*
X-633950D01*
G01X-746600Y3634050D02*
Y3746700D01*
G01D02*
Y3859350D01*
G01Y3746700D02*
X-633950D01*
G01X-746600Y4142050D02*
Y4254700D01*
G01D02*
Y4367350D01*
G01Y4254700D02*
X-633950D01*
G01X-746600Y5634050D02*
Y5746700D01*
G01D02*
Y5859350D01*
G01Y5746700D02*
X-633950D01*
G01X-746600Y6142050D02*
Y6254700D01*
G01D02*
Y6367350D01*
G01Y6254700D02*
X-633950D01*
G01X-746600Y7634050D02*
Y7746700D01*
G01D02*
Y7859350D01*
G01Y7746700D02*
X-633950D01*
G01X-746600Y8142050D02*
Y8254700D01*
G01D02*
Y8367350D01*
G01Y8254700D02*
X-633950D01*
G01X633950Y-7746700D02*
X746600D01*
G01X633950Y-8254700D02*
X746600D01*
G01X633950Y-6254700D02*
X746600D01*
G01X633950Y-5746700D02*
X746600D01*
G01X633950Y-4254700D02*
X746600D01*
G01X633950Y-3746700D02*
X746600D01*
G01X633950Y-1746700D02*
X746600D01*
G01X633950Y-2254700D02*
X746600D01*
G01X632750Y1746700D02*
X745400D01*
G01X632750Y2254700D02*
X745400D01*
G01X632750Y3746700D02*
X745400D01*
G01X632750Y4254700D02*
X745400D01*
G01X632750Y5746700D02*
X745400D01*
G01X632750Y6254700D02*
X745400D01*
G01X632750Y7746700D02*
X745400D01*
G01X632750Y8254700D02*
X745400D01*
G01X1254600Y-7859350D02*
Y-7746700D01*
G01D02*
Y-7634050D01*
G01X1141950Y-7746700D02*
X1254600D01*
G01D02*
X1367250D01*
G01X1254600Y-8367350D02*
Y-8254700D01*
G01D02*
Y-8142050D01*
G01X1141950Y-8254700D02*
X1254600D01*
G01D02*
X1367250D01*
G01X746600Y-7859350D02*
Y-7746700D01*
G01D02*
Y-7634050D01*
G01Y-7746700D02*
X859250D01*
G01X746600Y-8367350D02*
Y-8254700D01*
G01D02*
Y-8142050D01*
G01Y-8254700D02*
X859250D01*
G01X1254600Y-6367350D02*
Y-6254700D01*
G01D02*
Y-6142050D01*
G01X1141950Y-6254700D02*
X1254600D01*
G01D02*
X1367250D01*
G01X746600Y-6367350D02*
Y-6254700D01*
G01D02*
Y-6142050D01*
G01Y-6254700D02*
X859250D01*
G01X1254600Y-5859350D02*
Y-5746700D01*
G01D02*
Y-5634050D01*
G01X1141950Y-5746700D02*
X1254600D01*
G01D02*
X1367250D01*
G01X746600Y-5859350D02*
Y-5746700D01*
G01D02*
Y-5634050D01*
G01Y-5746700D02*
X859250D01*
G01X1254600Y-4367350D02*
Y-4254700D01*
G01D02*
Y-4142050D01*
G01X1141950Y-4254700D02*
X1254600D01*
G01D02*
X1367250D01*
G01X746600Y-4367350D02*
Y-4254700D01*
G01D02*
Y-4142050D01*
G01Y-4254700D02*
X859250D01*
G01X1254600Y-3859350D02*
Y-3746700D01*
G01D02*
Y-3634050D01*
G01X1141950Y-3746700D02*
X1254600D01*
G01D02*
X1367250D01*
G01X746600Y-3859350D02*
Y-3746700D01*
G01D02*
Y-3634050D01*
G01Y-3746700D02*
X859250D01*
G01X1254600Y-2367350D02*
Y-2254700D01*
G01X746600Y-2367350D02*
Y-2254700D01*
G01X1254600Y-1859350D02*
Y-1746700D01*
G01D02*
Y-1634050D01*
G01X1141950Y-1746700D02*
X1254600D01*
G01D02*
X1367250D01*
G01X1254600Y-2254700D02*
Y-2142050D01*
G01X1141950Y-2254700D02*
X1254600D01*
G01D02*
X1367250D01*
G01X746600Y-1859350D02*
Y-1746700D01*
G01D02*
Y-1634050D01*
G01Y-1746700D02*
X859250D01*
G01X746600Y-2254700D02*
Y-2142050D01*
G01Y-2254700D02*
X859250D01*
G01X1253400Y1634050D02*
Y1746700D01*
G01D02*
Y1859350D01*
G01X1140750Y1746700D02*
X1253400D01*
G01D02*
X1366050D01*
G01X1253400Y2142050D02*
Y2254700D01*
G01X745400Y1634050D02*
Y1746700D01*
G01D02*
Y1859350D01*
G01Y1746700D02*
X858050D01*
G01X745400Y2142050D02*
Y2254700D01*
G01X1253400D02*
Y2367350D01*
G01X1140750Y2254700D02*
X1253400D01*
G01D02*
X1366050D01*
G01X745400D02*
Y2367350D01*
G01Y2254700D02*
X858050D01*
G01X1253400Y3634050D02*
Y3746700D01*
G01D02*
Y3859350D01*
G01X1140750Y3746700D02*
X1253400D01*
G01D02*
X1366050D01*
G01X745400Y3634050D02*
Y3746700D01*
G01D02*
Y3859350D01*
G01Y3746700D02*
X858050D01*
G01X1253400Y4142050D02*
Y4254700D01*
G01D02*
Y4367350D01*
G01X1140750Y4254700D02*
X1253400D01*
G01D02*
X1366050D01*
G01X745400Y4142050D02*
Y4254700D01*
G01D02*
Y4367350D01*
G01Y4254700D02*
X858050D01*
G01X1253400Y5634050D02*
Y5746700D01*
G01D02*
Y5859350D01*
G01X1140750Y5746700D02*
X1253400D01*
G01D02*
X1366050D01*
G01X745400Y5634050D02*
Y5746700D01*
G01D02*
Y5859350D01*
G01Y5746700D02*
X858050D01*
G01X1253400Y6142050D02*
Y6254700D01*
G01D02*
Y6367350D01*
G01X1140750Y6254700D02*
X1253400D01*
G01D02*
X1366050D01*
G01X745400Y6142050D02*
Y6254700D01*
G01D02*
Y6367350D01*
G01Y6254700D02*
X858050D01*
G01X1253400Y7634050D02*
Y7746700D01*
G01D02*
Y7859350D01*
G01X1140750Y7746700D02*
X1253400D01*
G01D02*
X1366050D01*
G01X1253400Y8142050D02*
Y8254700D01*
G01D02*
Y8367350D01*
G01X1140750Y8254700D02*
X1253400D01*
G01D02*
X1366050D01*
G01X745400Y7634050D02*
Y7746700D01*
G01D02*
Y7859350D01*
G01Y7746700D02*
X858050D01*
G01X745400Y8142050D02*
Y8254700D01*
G01D02*
Y8367350D01*
G01Y8254700D02*
X858050D01*
G01X2746600Y-7859350D02*
Y-7746700D01*
G01D02*
Y-7634050D01*
G01X2633950Y-7746700D02*
X2746600D01*
G01D02*
X2859250D01*
G01X2746600Y-8367350D02*
Y-8254700D01*
G01D02*
Y-8142050D01*
G01X2633950Y-8254700D02*
X2746600D01*
G01D02*
X2859250D01*
G01X2746600Y-6367350D02*
Y-6254700D01*
G01D02*
Y-6142050D01*
G01X2633950Y-6254700D02*
X2746600D01*
G01D02*
X2859250D01*
G01X2746600Y-5859350D02*
Y-5746700D01*
G01D02*
Y-5634050D01*
G01X2633950Y-5746700D02*
X2746600D01*
G01D02*
X2859250D01*
G01X2746600Y-4367350D02*
Y-4254700D01*
G01D02*
Y-4142050D01*
G01X2633950Y-4254700D02*
X2746600D01*
G01D02*
X2859250D01*
G01X2746600Y-3859350D02*
Y-3746700D01*
G01D02*
Y-3634050D01*
G01X2633950Y-3746700D02*
X2746600D01*
G01D02*
X2859250D01*
G01X2746600Y-2367350D02*
Y-2254700D01*
G01Y-1859350D02*
Y-1746700D01*
G01D02*
Y-1634050D01*
G01X2633950Y-1746700D02*
X2746600D01*
G01D02*
X2859250D01*
G01X2746600Y-2254700D02*
Y-2142050D01*
G01X2633950Y-2254700D02*
X2746600D01*
G01D02*
X2859250D01*
G01X2745400Y1634050D02*
Y1746700D01*
G01D02*
Y1859350D01*
G01X2632750Y1746700D02*
X2745400D01*
G01D02*
X2858050D01*
G01X2745400Y2142050D02*
Y2254700D01*
G01D02*
Y2367350D01*
G01X2632750Y2254700D02*
X2745400D01*
G01D02*
X2858050D01*
G01X2745400Y3634050D02*
Y3746700D01*
G01D02*
Y3859350D01*
G01X2632750Y3746700D02*
X2745400D01*
G01D02*
X2858050D01*
G01X2745400Y4142050D02*
Y4254700D01*
G01D02*
Y4367350D01*
G01X2632750Y4254700D02*
X2745400D01*
G01D02*
X2858050D01*
G01X2745400Y5634050D02*
Y5746700D01*
G01D02*
Y5859350D01*
G01X2632750Y5746700D02*
X2745400D01*
G01D02*
X2858050D01*
G01X2745400Y6142050D02*
Y6254700D01*
G01D02*
Y6367350D01*
G01X2632750Y6254700D02*
X2745400D01*
G01D02*
X2858050D01*
G01X2745400Y7634050D02*
Y7746700D01*
G01D02*
Y7859350D01*
G01X2632750Y7746700D02*
X2745400D01*
G01D02*
X2858050D01*
G01X2745400Y8142050D02*
Y8254700D01*
G01D02*
Y8367350D01*
G01X2632750Y8254700D02*
X2745400D01*
G01D02*
X2858050D01*
G01X3254600Y-7859350D02*
Y-7746700D01*
G01D02*
Y-7634050D01*
G01X3141950Y-7746700D02*
X3254600D01*
G01D02*
X3367250D01*
G01X3254600Y-8367350D02*
Y-8254700D01*
G01D02*
Y-8142050D01*
G01X3141950Y-8254700D02*
X3254600D01*
G01D02*
X3367250D01*
G01X3254600Y-6367350D02*
Y-6254700D01*
G01D02*
Y-6142050D01*
G01X3141950Y-6254700D02*
X3254600D01*
G01D02*
X3367250D01*
G01X3254600Y-5859350D02*
Y-5746700D01*
G01D02*
Y-5634050D01*
G01X3141950Y-5746700D02*
X3254600D01*
G01D02*
X3367250D01*
G01X3254600Y-4367350D02*
Y-4254700D01*
G01D02*
Y-4142050D01*
G01X3141950Y-4254700D02*
X3254600D01*
G01D02*
X3367250D01*
G01X3254600Y-3859350D02*
Y-3746700D01*
G01D02*
Y-3634050D01*
G01X3141950Y-3746700D02*
X3254600D01*
G01D02*
X3367250D01*
G01X3254600Y-2367350D02*
Y-2254700D01*
G01Y-1859350D02*
Y-1746700D01*
G01D02*
Y-1634050D01*
G01X3141950Y-1746700D02*
X3254600D01*
G01D02*
X3367250D01*
G01X3254600Y-2254700D02*
Y-2142050D01*
G01X3141950Y-2254700D02*
X3254600D01*
G01D02*
X3367250D01*
G01X3253400Y1634050D02*
Y1746700D01*
G01D02*
Y1859350D01*
G01X3140750Y1746700D02*
X3253400D01*
G01D02*
X3366050D01*
G01X3253400Y2142050D02*
Y2254700D01*
G01D02*
Y2367350D01*
G01X3140750Y2254700D02*
X3253400D01*
G01D02*
X3366050D01*
G01X3253400Y3634050D02*
Y3746700D01*
G01D02*
Y3859350D01*
G01X3140750Y3746700D02*
X3253400D01*
G01D02*
X3366050D01*
G01X3253400Y4142050D02*
Y4254700D01*
G01D02*
Y4367350D01*
G01X3140750Y4254700D02*
X3253400D01*
G01D02*
X3366050D01*
G01X3253400Y5634050D02*
Y5746700D01*
G01D02*
Y5859350D01*
G01X3140750Y5746700D02*
X3253400D01*
G01D02*
X3366050D01*
G01X3253400Y6142050D02*
Y6254700D01*
G01D02*
Y6367350D01*
G01X3140750Y6254700D02*
X3253400D01*
G01D02*
X3366050D01*
G01X3253400Y7634050D02*
Y7746700D01*
G01D02*
Y7859350D01*
G01X3140750Y7746700D02*
X3253400D01*
G01D02*
X3366050D01*
G01X3253400Y8142050D02*
Y8254700D01*
G01D02*
Y8367350D01*
G01X3140750Y8254700D02*
X3253400D01*
G01D02*
X3366050D01*
G01X4746600Y-7367350D02*
Y-7254700D01*
G01D02*
Y-7142050D01*
G01X4633950Y-7254700D02*
X4746600D01*
G01D02*
X4859250D01*
G01X5141950D02*
X5254600D01*
G01X4746600Y-6859350D02*
Y-6746700D01*
G01D02*
Y-6634050D01*
G01X4633950Y-6746700D02*
X4746600D01*
G01D02*
X4859250D01*
G01X5141950D02*
X5254600D01*
G01X4746600Y-4859350D02*
Y-4746700D01*
G01D02*
Y-4634050D01*
G01X4633950Y-4746700D02*
X4746600D01*
G01D02*
X4859250D01*
G01X4746600Y-5367350D02*
Y-5254700D01*
G01D02*
Y-5142050D01*
G01X4633950Y-5254700D02*
X4746600D01*
G01D02*
X4859250D01*
G01X5141950Y-4746700D02*
X5254600D01*
G01X5141950Y-5254700D02*
X5254600D01*
G01X4746700Y-3366050D02*
Y-3253400D01*
G01D02*
Y-3140750D01*
G01X4634050Y-3253400D02*
X4746700D01*
G01D02*
X4859350D01*
G01X5142050D02*
X5254700D01*
G01X4746700Y-2858050D02*
Y-2745400D01*
G01D02*
Y-2632750D01*
G01X4634050Y-2745400D02*
X4746700D01*
G01D02*
X4859350D01*
G01X5142050D02*
X5254700D01*
G01X4746700Y-1366050D02*
Y-1253400D01*
G01D02*
Y-1140750D01*
G01X4634050Y-1253400D02*
X4746700D01*
G01D02*
X4859350D01*
G01X5142050D02*
X5254700D01*
G01X4746700Y-858050D02*
Y-745400D01*
G01D02*
Y-632750D01*
G01X4634050Y-745400D02*
X4746700D01*
G01D02*
X4859350D01*
G01X5142050D02*
X5254700D01*
G01X4746700Y633950D02*
Y746600D01*
G01Y1141950D02*
Y1254600D01*
G01D02*
Y1367250D01*
G01X4634050Y1254600D02*
X4746700D01*
G01D02*
X4859350D01*
G01X5142050D02*
X5254700D01*
G01X4746700Y746600D02*
Y859250D01*
G01X4634050Y746600D02*
X4746700D01*
G01D02*
X4859350D01*
G01X5142050D02*
X5254700D01*
G01X4746700Y2633950D02*
Y2746600D01*
G01D02*
Y2859250D01*
G01X4634050Y2746600D02*
X4746700D01*
G01D02*
X4859350D01*
G01X5142050D02*
X5254700D01*
G01X4746700Y3141950D02*
Y3254600D01*
G01D02*
Y3367250D01*
G01X4634050Y3254600D02*
X4746700D01*
G01D02*
X4859350D01*
G01X5142050D02*
X5254700D01*
G01X5140750Y4746700D02*
X5253400D01*
G01X5140750Y5254700D02*
X5253400D01*
G01X4745400Y4634050D02*
Y4746700D01*
G01D02*
Y4859350D01*
G01X4632750Y4746700D02*
X4745400D01*
G01D02*
X4858050D01*
G01X4745400Y5142050D02*
Y5254700D01*
G01D02*
Y5367350D01*
G01X4632750Y5254700D02*
X4745400D01*
G01D02*
X4858050D01*
G01X5140750Y6746700D02*
X5253400D01*
G01X4745400Y6634050D02*
Y6746700D01*
G01D02*
Y6859350D01*
G01X4632750Y6746700D02*
X4745400D01*
G01D02*
X4858050D01*
G01X5140750Y7254700D02*
X5253400D01*
G01X4745400Y7142050D02*
Y7254700D01*
G01D02*
Y7367350D01*
G01X4632750Y7254700D02*
X4745400D01*
G01D02*
X4858050D01*
G01X5254600Y-7367350D02*
Y-7254700D01*
G01D02*
Y-7142050D01*
G01Y-7254700D02*
X5367250D01*
G01X5254600Y-6859350D02*
Y-6746700D01*
G01D02*
Y-6634050D01*
G01Y-6746700D02*
X5367250D01*
G01X5254600Y-4859350D02*
Y-4746700D01*
G01D02*
Y-4634050D01*
G01Y-4746700D02*
X5367250D01*
G01X5254600Y-5367350D02*
Y-5254700D01*
G01D02*
Y-5142050D01*
G01Y-5254700D02*
X5367250D01*
G01X5254700Y-3366050D02*
Y-3253400D01*
G01D02*
Y-3140750D01*
G01Y-3253400D02*
X5367350D01*
G01X5254700Y-2858050D02*
Y-2745400D01*
G01D02*
Y-2632750D01*
G01Y-2745400D02*
X5367350D01*
G01X5254700Y-1366050D02*
Y-1253400D01*
G01D02*
Y-1140750D01*
G01Y-1253400D02*
X5367350D01*
G01X5254700Y-858050D02*
Y-745400D01*
G01D02*
Y-632750D01*
G01Y-745400D02*
X5367350D01*
G01X5254700Y633950D02*
Y746600D01*
G01Y1141950D02*
Y1254600D01*
G01D02*
Y1367250D01*
G01Y1254600D02*
X5367350D01*
G01X5254700Y746600D02*
Y859250D01*
G01Y746600D02*
X5367350D01*
G01X5254700Y2633950D02*
Y2746600D01*
G01D02*
Y2859250D01*
G01Y2746600D02*
X5367350D01*
G01X5254700Y3141950D02*
Y3254600D01*
G01D02*
Y3367250D01*
G01Y3254600D02*
X5367350D01*
G01X5253400Y4634050D02*
Y4746700D01*
G01D02*
Y4859350D01*
G01Y4746700D02*
X5366050D01*
G01X5253400Y5142050D02*
Y5254700D01*
G01D02*
Y5367350D01*
G01Y5254700D02*
X5366050D01*
G01X5253400Y6634050D02*
Y6746700D01*
G01D02*
Y6859350D01*
G01Y6746700D02*
X5366050D01*
G01X5253400Y7142050D02*
Y7254700D01*
G01D02*
Y7367350D01*
G01Y7254700D02*
X5366050D01*
G01X6746600Y-7367350D02*
Y-7254700D01*
G01D02*
Y-7142050D01*
G01X6633950Y-7254700D02*
X6746600D01*
G01D02*
X6859250D01*
G01X6746600Y-6859350D02*
Y-6746700D01*
G01D02*
Y-6634050D01*
G01X6633950Y-6746700D02*
X6746600D01*
G01D02*
X6859250D01*
G01X6746600Y-4859350D02*
Y-4746700D01*
G01D02*
Y-4634050D01*
G01X6633950Y-4746700D02*
X6746600D01*
G01D02*
X6859250D01*
G01X6746600Y-5367350D02*
Y-5254700D01*
G01D02*
Y-5142050D01*
G01X6633950Y-5254700D02*
X6746600D01*
G01D02*
X6859250D01*
G01X6746700Y-3366050D02*
Y-3253400D01*
G01D02*
Y-3140750D01*
G01X6634050Y-3253400D02*
X6746700D01*
G01D02*
X6859350D01*
G01X6746700Y-2858050D02*
Y-2745400D01*
G01D02*
Y-2632750D01*
G01X6634050Y-2745400D02*
X6746700D01*
G01D02*
X6859350D01*
G01X6746700Y-1366050D02*
Y-1253400D01*
G01D02*
Y-1140750D01*
G01X6634050Y-1253400D02*
X6746700D01*
G01D02*
X6859350D01*
G01X6746700Y-858050D02*
Y-745400D01*
G01D02*
Y-632750D01*
G01X6634050Y-745400D02*
X6746700D01*
G01D02*
X6859350D01*
G01X6746700Y633950D02*
Y746600D01*
G01Y1141950D02*
Y1254600D01*
G01D02*
Y1367250D01*
G01X6634050Y1254600D02*
X6746700D01*
G01D02*
X6859350D01*
G01X6746700Y746600D02*
Y859250D01*
G01X6634050Y746600D02*
X6746700D01*
G01D02*
X6859350D01*
G01X6746700Y2633950D02*
Y2746600D01*
G01D02*
Y2859250D01*
G01X6634050Y2746600D02*
X6746700D01*
G01D02*
X6859350D01*
G01X6746700Y3141950D02*
Y3254600D01*
G01D02*
Y3367250D01*
G01X6634050Y3254600D02*
X6746700D01*
G01D02*
X6859350D01*
G01X6745400Y4634050D02*
Y4746700D01*
G01D02*
Y4859350D01*
G01X6632750Y4746700D02*
X6745400D01*
G01D02*
X6858050D01*
G01X6745400Y5142050D02*
Y5254700D01*
G01D02*
Y5367350D01*
G01X6632750Y5254700D02*
X6745400D01*
G01D02*
X6858050D01*
G01X6745400Y6634050D02*
Y6746700D01*
G01D02*
Y6859350D01*
G01X6632750Y6746700D02*
X6745400D01*
G01D02*
X6858050D01*
G01X6745400Y7142050D02*
Y7254700D01*
G01D02*
Y7367350D01*
G01X6632750Y7254700D02*
X6745400D01*
G01D02*
X6858050D01*
G01X7254600Y-7367350D02*
Y-7254700D01*
G01D02*
Y-7142050D01*
G01X7141950Y-7254700D02*
X7254600D01*
G01D02*
X7367250D01*
G01X7254600Y-6859350D02*
Y-6746700D01*
G01D02*
Y-6634050D01*
G01X7141950Y-6746700D02*
X7254600D01*
G01D02*
X7367250D01*
G01X7254600Y-4859350D02*
Y-4746700D01*
G01D02*
Y-4634050D01*
G01X7141950Y-4746700D02*
X7254600D01*
G01D02*
X7367250D01*
G01X7254600Y-5367350D02*
Y-5254700D01*
G01D02*
Y-5142050D01*
G01X7141950Y-5254700D02*
X7254600D01*
G01D02*
X7367250D01*
G01X7254700Y-3366050D02*
Y-3253400D01*
G01D02*
Y-3140750D01*
G01X7142050Y-3253400D02*
X7254700D01*
G01D02*
X7367350D01*
G01X7254700Y-2858050D02*
Y-2745400D01*
G01D02*
Y-2632750D01*
G01X7142050Y-2745400D02*
X7254700D01*
G01D02*
X7367350D01*
G01X7254700Y-1366050D02*
Y-1253400D01*
G01D02*
Y-1140750D01*
G01X7142050Y-1253400D02*
X7254700D01*
G01D02*
X7367350D01*
G01X7254700Y-858050D02*
Y-745400D01*
G01D02*
Y-632750D01*
G01X7142050Y-745400D02*
X7254700D01*
G01D02*
X7367350D01*
G01X7254700Y633950D02*
Y746600D01*
G01Y1141950D02*
Y1254600D01*
G01D02*
Y1367250D01*
G01X7142050Y1254600D02*
X7254700D01*
G01D02*
X7367350D01*
G01X7254700Y746600D02*
Y859250D01*
G01X7142050Y746600D02*
X7254700D01*
G01D02*
X7367350D01*
G01X7254700Y2633950D02*
Y2746600D01*
G01D02*
Y2859250D01*
G01X7142050Y2746600D02*
X7254700D01*
G01D02*
X7367350D01*
G01X7254700Y3141950D02*
Y3254600D01*
G01D02*
Y3367250D01*
G01X7142050Y3254600D02*
X7254700D01*
G01D02*
X7367350D01*
G01X7253400Y4634050D02*
Y4746700D01*
G01D02*
Y4859350D01*
G01X7140750Y4746700D02*
X7253400D01*
G01D02*
X7366050D01*
G01X7253400Y5142050D02*
Y5254700D01*
G01D02*
Y5367350D01*
G01X7140750Y5254700D02*
X7253400D01*
G01D02*
X7366050D01*
G01X7253400Y6634050D02*
Y6746700D01*
G01D02*
Y6859350D01*
G01X7140750Y6746700D02*
X7253400D01*
G01D02*
X7366050D01*
G01X7253400Y7142050D02*
Y7254700D01*
G01D02*
Y7367350D01*
G01X7140750Y7254700D02*
X7253400D01*
G01D02*
X7366050D01*
M02*
