G04 ================== begin FILE IDENTIFICATION RECORD ==================*
G04 Layout Name:  pc049a_toplevel_51.brd*
G04 Film Name:    PC049A_L8*
G04 File Format:  Gerber RS274X*
G04 File Origin:  Cadence Allegro 16.6-S014*
G04 Origin Date:  Mon Feb 23 12:27:37 2015*
G04 *
G04 Layer:  VIA CLASS/L8*
G04 Layer:  PIN/L8*
G04 Layer:  ETCH/L8*
G04 Layer:  BOARD GEOMETRY/CTEXT_TOP*
G04 *
G04 Offset:    (0.0000 0.0000)*
G04 Mirror:    No*
G04 Mode:      Positive*
G04 Rotation:  0*
G04 FullContactRelief:  No*
G04 UndefLineWidth:     0.1270*
G04 ================== end FILE IDENTIFICATION RECORD ====================*
%FSLAX25Y25*MOMM*%
%IR0*IPPOS*OFA0.00000B0.00000*MIA0B0*SFA1.00000B1.00000*%
%ADD14C,.6*%
%ADD22C,.8*%
%ADD23C,.6096*%
%ADD18C,1.*%
%ADD10C,5.*%
%ADD24C,1.6*%
%ADD19C,2.032*%
%ADD12C,1.7*%
%ADD21C,1.6002*%
%ADD13C,1.27*%
%ADD17C,1.55*%
%ADD20C,1.524*%
%ADD16C,1.65*%
%ADD15C,1.75*%
%ADD11C,6.604*%
%ADD25C,.101*%
%ADD26C,.127*%
%ADD27C,.254*%
%ADD44C,.7524*%
%ADD42C,.864*%
%ADD38C,.8544*%
%ADD35C,1.0064*%
%ADD32C,2.2108*%
%ADD34C,1.1084*%
%ADD33C,2.5404*%
%ADD37C,1.5244*%
%ADD28C,2.2084*%
%ADD31C,2.0584*%
%ADD30C,2.1584*%
%ADD40C,4.674*%
%ADD29C,2.2584*%
%ADD43C,1.8544*%
%ADD41C,1.8546*%
%ADD36C,1.7784*%
%ADD39C,6.8584*%
G75*
%LPD*%
G75*
G36*
G01X566800Y-178700D02*
Y1612000D01*
X-207900D01*
Y3986900D01*
X350900D01*
Y5684250D01*
G03X354380Y5761140I-38099J40248D01*
G02Y5767860I3810J3360D01*
G03Y5841140I-41580J36640D01*
G02Y5847860I3810J3360D01*
G03Y5921140I-41580J36640D01*
G02Y5927860I3810J3360D01*
G03X350900Y6004750I-41579J36642D01*
G01Y6653900D01*
X-50010D01*
G03X-248990I-99490J-47900D01*
G01X-304010D01*
G03X-502990I-99490J-47900D01*
G01X-558010D01*
G03X-756990I-99490J-47900D01*
G01X-1087490D01*
Y13739500D01*
G02X-1071430Y13747770I10159J0D01*
G03Y14196230I159930J224230D01*
G02X-1087490Y14204500I-5901J8270D01*
G01Y14362800D01*
X-442090D01*
G02X-435020Y14345350I-1J-10158D01*
G03X60020I247520J-255350D01*
G02X67090Y14362800I7071J7292D01*
G01X6534830D01*
Y14315320D01*
G02X6516980Y14272240I-60928J7D01*
G01X6105660Y13860920D01*
G03X6064930Y13762580I98342J-98335D01*
G01Y13337420D01*
G02X6047080Y13294340I-60928J7D01*
G01X5811100Y13058350D01*
G02X5794190Y13068480I-7186J7183D01*
G03X5800170Y13108820I-133090J40342D01*
G01Y13243990D01*
G03X5722030I-39070J39310D01*
G01Y13108820D01*
G02X5704180Y13065740I-60928J7D01*
G01X5563030Y12924590D01*
G02X5545720Y12932590I-7183J7184D01*
G03X5546170Y12943720I-138619J11179D01*
G01Y13231290D01*
G03X5505220Y13325990I-39068J39310D01*
G02X5495390Y13339760I-339J10152D01*
G03X5404530Y13320190I-51789J19738D01*
G01Y12956420D01*
G02X5386680Y12913340I-60928J7D01*
G01X4638810Y12165470D01*
G03X4598080Y12067130I98342J-98335D01*
G01Y11880510D01*
G02X4580550Y11873520I-10160J2D01*
G03X4502110Y11866660I-36490J-34650D01*
G02X4485390Y11866350I-8467J5612D01*
G03X4418570Y11880120I-40877J-29349D01*
G02X4403170Y11888820I-5241J8703D01*
G01Y12200480D01*
G02X4421020Y12243560I60928J-7D01*
G01X5100500Y12923040D01*
X5102500Y12923110D01*
G03X5045310Y12980300I-1800J55390D01*
G01X5045240Y12978300D01*
X4941150Y12874200D01*
G02X4924240Y12884330I-7186J7183D01*
G03X4930220Y12924670I-133090J40342D01*
G01Y12932790D01*
X4931590Y12934260D01*
G03X4850710I-40440J37890D01*
G01X4852080Y12932790D01*
Y12924670D01*
G02X4834230Y12881590I-60928J7D01*
G01X4687150Y12734500D01*
G02X4670240Y12744630I-7186J7183D01*
G03X4676220Y12784970I-133090J40342D01*
G01Y12958240D01*
G03X4598080I-39070J39310D01*
G01Y12784970D01*
G02X4580230Y12741890I-60928J7D01*
G01X4099060Y12260720D01*
G03X4058330Y12162380I98342J-98335D01*
G01Y11910100D01*
X4057380Y11909150D01*
Y11245700D01*
G02X4046710Y11235560I-10159J6D01*
G03X4015890Y11143700I-2510J-50258D01*
G02Y11126900I-5716J-8400D01*
G03X4085800Y11056990I28310J-41600D01*
G02X4102600I8400J-5716D01*
G03X4115890Y11043700I41600J28310D01*
G02Y11026900I-5716J-8400D01*
G03X4185800Y10956990I28310J-41600D01*
G02X4202600I8400J-5716D01*
G03X4215890Y10943700I41600J28310D01*
G02Y10926900I-5716J-8400D01*
G03X4272510I28310J-41600D01*
G02Y10943700I5716J8400D01*
G03X4294270Y10980280I-28309J41602D01*
G03X4324800Y11033350I-102325J94182D01*
G02X4330990Y11036750I4854J-1503D01*
G03X4385800Y11056990I13213J48552D01*
G02X4402600I8400J-5716D01*
G03X4415890Y11043700I41600J28310D01*
G02Y11026900I-5716J-8400D01*
G03Y10943700I28310J-41600D01*
G02Y10926900I-5716J-8400D01*
G03X4416430Y10843340I28311J-41599D01*
G02X4416830Y10826670I-5605J-8474D01*
G03X4476650Y10745740I29769J-40569D01*
G02X4492860Y10737060I6063J-8154D01*
G03X4492670Y10729820I138880J-7267D01*
G01Y10532100D01*
G02X4476070Y10524240I-10160J-2D01*
G03Y10446360I-31870J-38940D01*
G02X4492670Y10438500I6440J-7858D01*
G01Y10416420D01*
G02X4474820Y10373340I-60928J7D01*
G01X4205860Y10104380D01*
G02X4189530Y10107150I-7181J7184D01*
G03X4161690Y10132480I-45326J-21854D01*
G01X4158380Y10133710D01*
Y10236890D01*
X4161690Y10238120D01*
G03X4172510Y10326900I-17491J47181D01*
G02Y10343700I5716J8400D01*
G03X4161690Y10432480I-28311J41599D01*
G01X4158380Y10433710D01*
Y10536890D01*
X4161690Y10538120D01*
G03Y10632480I-17490J47180D01*
G01X4158380Y10633710D01*
Y10756550D01*
X4014130Y10900800D01*
X3992200D01*
X3990920Y10903990D01*
G03X3972510Y10926900I-46720J-18691D01*
G02Y10943700I5716J8400D01*
G03X3915890I-28310J41600D01*
G02Y10926900I-5716J-8400D01*
G03X3902600Y10913610I28310J-41600D01*
G02X3885800I-8400J5716D01*
G03X3802600I-41600J-28310D01*
G02X3785800I-8400J5716D01*
G03X3772510Y10926900I-41600J-28310D01*
G02Y10943700I5716J8400D01*
G03X3794260Y10980230I-28313J41597D01*
G03X3825220Y11033260I-101655J94901D01*
G02X3831360Y11036650I4847J-1524D01*
G03X3894250Y11080130I12839J48652D01*
G03X3933270Y11176720I-100049J96594D01*
G01Y12136980D01*
G02X3951120Y12180060I60928J-7D01*
G01X4425940Y12654880D01*
G03X4466670Y12753220I-98342J98335D01*
G01Y13064080D01*
G03X4425940Y13162420I-139072J5D01*
G01X4406860Y13181500D01*
X4406790Y13183500D01*
G03X4403190Y13201440I-55393J-1784D01*
G02X4413020Y13215210I9491J3618D01*
G03X4363110Y13250860I1877J55390D01*
G02X4353280Y13237090I-9491J-3618D01*
G03X4308450Y13146680I-1879J-55388D01*
G02X4301880Y13130180I-7875J-6422D01*
G03X4371700Y12974940I11422J-88184D01*
G02X4388530Y12967280I6672J-7660D01*
G01Y12753220D01*
G02X4370680Y12710140I-60928J7D01*
G01X4191430Y12530890D01*
G02X4174120Y12538890I-7183J7184D01*
G03X4174570Y12550020I-138619J11179D01*
G01Y13205890D01*
G03X4141770Y13300260I-39069J39306D01*
G02X4136200Y13317970I1156J10094D01*
G03X4153100Y13345420I-36703J41524D01*
G02X4168520Y13351320I9828J-2584D01*
G03X4145400Y13411680I30480J46283D01*
G02X4129980Y13405780I-9828J2584D01*
G03X4063340Y13401500I-30485J-46281D01*
G02X4047280Y13405430I-6627J7699D01*
G03X4042050Y13415440I-51481J-20526D01*
G02X4049920Y13431180I8476J5599D01*
G03X4000350Y13455960I-3324J55321D01*
G02X3992480Y13440220I-8476J-5599D01*
G03X3960800Y13427870I3319J-55321D01*
G02X3944220Y13435740I-6420J7874D01*
G01Y13443170D01*
X3945970Y13444920D01*
Y13557900D01*
G03X3923040Y13638270I-46470J30198D01*
G02X3918280Y13652040I4314J9199D01*
G03X3813430Y13674750I-49478J24963D01*
G03X3791630Y13607150I93919J-67603D01*
G03X3792920Y13589940I115719J21D01*
G02X3776510Y13580510I-10046J-1511D01*
G03X3740780Y13481890I-34707J-43208D01*
G02X3750610Y13470080I-194J-10157D01*
G03X3751260Y13448790I54689J-8985D01*
G03X3742580Y13404010I111121J-44771D01*
G01Y13315060D01*
G02X3727790Y13306020I-10158J0D01*
G03Y13207380I-25290J-49320D01*
G02X3742580Y13198340I4632J-9040D01*
G01Y12588120D01*
G02X3724730Y12545040I-60928J7D01*
G01X3594110Y12414420D01*
G03X3586610Y12406290I98388J-98288D01*
G02X3577660Y12409580I-3870J3291D01*
G01Y12479710D01*
X3603070Y12505120D01*
Y12663190D01*
G03X3595950Y12704890I-125779J-18D01*
G02X3598830Y12711280I4796J1683D01*
G03X3617580Y12723890I-20903J51326D01*
G02X3632110I7265J-7102D01*
G03Y12801310I39660J38710D01*
G02X3617580I-7265J7102D01*
G03X3564830Y12816450I-39658J-38711D01*
G02X3552270Y12826320I-2400J9873D01*
G01Y13319980D01*
G02X3568580Y13328070I10161J1D01*
G03X3610880Y13426920I33523J44131D01*
G02X3606610Y13432250I801J5017D01*
G03X3528510Y13486220I-55312J3452D01*
G02X3514170Y13495480I-4181J9259D01*
G01Y13510640D01*
X3515540Y13512110D01*
G03X3436030Y13510690I-40444J37890D01*
G01Y13228520D01*
G02X3423350Y13197900I-43301J-4D01*
G03X3387770Y13112020I85859J-85882D01*
G01Y12757660D01*
G02X3373040Y12748590I-10160J4D01*
G03X3325310Y12749620I-24944J-49490D01*
G02X3310970Y12758880I-4181J9259D01*
G01Y13312420D01*
G02X3325310Y13321680I10159J1D01*
G03X3373250Y13421590I22790J50521D01*
G02X3371960Y13429710I2301J4528D01*
G01X3374470Y13432220D01*
Y13502680D01*
X3327360Y13549800D01*
X3327290Y13551800D01*
G03X3232020Y13511520I-55390J-1798D01*
G02Y13497410I-7314J-7055D01*
G03X3222610Y13484270I39871J-38492D01*
G03X3182030Y13410300I47127J-73970D01*
G01Y13367460D01*
G02X3167580Y13358250I-10159J-2D01*
G03X3112440Y13353420I-23380J-50249D01*
G01X2983820D01*
G02X2945230Y13369410I7J54578D01*
G01X2456210Y13858430D01*
G02X2440220Y13897020I38588J38597D01*
G01Y13904620D01*
X2465370Y13929780D01*
X2465400Y13929810D01*
G03X2440210Y14093810I-70600J73091D01*
G02Y14111990I4537J9090D01*
G03X2303890Y14248310I-45410J90910D01*
G02X2285710I-9090J4537D01*
G03X2103890I-90910J-45410D01*
G02X2085710I-9090J4537D01*
G03X1903890I-90910J-45410D01*
G02X1885710I-9090J4537D01*
G03X1703890I-90910J-45410D01*
G02X1685710I-9090J4537D01*
G03X1503890I-90910J-45410D01*
G02X1485710I-9090J4537D01*
G03X1303890I-90910J-45410D01*
G02X1285710I-9090J4537D01*
G03X1149390Y14111990I-90910J-45410D01*
G02Y14093810I-4537J-9090D01*
G03X1285710Y13957490I45410J-90910D01*
G02X1303890I9090J-4537D01*
G03X1485710I90910J45410D01*
G02X1503890I9090J-4537D01*
G03X1685710I90910J45410D01*
G02X1703890I9090J-4537D01*
G03X1756460Y13908790I90910J45410D01*
G03X1796460Y13824640I138345J14180D01*
G01X2747620Y12873480D01*
G02X2765470Y12830400I-43078J-43087D01*
G01Y12717550D01*
G02X2748130Y12710360I-10160J-2D01*
G01X2236130Y13222360D01*
X1186010D01*
X1100180Y13136530D01*
Y12936240D01*
G02X1085690Y12927050I-10159J0D01*
G03X1027050Y12833970I-23592J-50148D01*
G02Y12818230I-6424J-7870D01*
G03X1085690Y12725150I35048J-42932D01*
G02X1100180Y12715960I4331J-9190D01*
G01Y12228650D01*
X1213950Y12114880D01*
X2060870D01*
X2123290Y12177300D01*
G02X2140630Y12170110I7180J-7188D01*
G01Y11280020D01*
G02X2122780Y11236940I-60928J7D01*
G01X1406660Y10520820D01*
G03X1365930Y10422480I98342J-98335D01*
G01Y8511420D01*
G03X1406660Y8413080I139072J-5D01*
G01X1449680Y8370060D01*
G02X1467530Y8326980I-43078J-43087D01*
G01Y7417110D01*
G03X1545670I39070J-39310D01*
G01Y8326980D01*
G03X1504940Y8425320I-139072J5D01*
G01X1461920Y8468340D01*
G02X1444070Y8511420I43078J43087D01*
G01Y10422480D01*
G02X1461920Y10465560I60928J-7D01*
G01X2178040Y11181680D01*
G03X2183510Y11187480I-98398J98279D01*
G02X2192380Y11184100I3790J-3382D01*
G01Y9907090D01*
X2412660Y9686810D01*
X2412680Y9684740D01*
G03X2510270Y9668060I50316J562D01*
G01X2511490Y9671400D01*
X2695710D01*
X2696930Y9668060D01*
G03X2715890Y9643700I47274J17236D01*
G02Y9626900I-5716J-8400D01*
G03Y9543700I28310J-41600D01*
G02Y9526900I-5716J-8400D01*
G03Y9443700I28310J-41600D01*
G02Y9426900I-5716J-8400D01*
G03Y9343700I28310J-41600D01*
G02Y9326900I-5716J-8400D01*
G03X2772510I28310J-41600D01*
G02Y9343700I5716J8400D01*
G03Y9426900I-28310J41600D01*
G02Y9443700I5716J8400D01*
G03Y9526900I-28310J41600D01*
G02Y9543700I5716J8400D01*
G03Y9626900I-28310J41600D01*
G02Y9643700I5716J8400D01*
G03X2791470Y9668060I-28314J41596D01*
G01X2792690Y9671400D01*
X2895710D01*
X2896930Y9668060D01*
G03X2991470I47270J17240D01*
G01X2992690Y9671400D01*
X3095710D01*
X3096930Y9668060D01*
G03X3115890Y9643700I47274J17236D01*
G02Y9626900I-5716J-8400D01*
G03X3102600Y9613610I28310J-41600D01*
G02X3085800I-8400J5716D01*
G03X3015890Y9543700I-41600J-28310D01*
G02Y9526900I-5716J-8400D01*
G03X3002600Y9513610I28310J-41600D01*
G02X2985800I-8400J5716D01*
G03X2915890Y9443700I-41600J-28310D01*
G02Y9426900I-5716J-8400D01*
G03Y9343700I28310J-41600D01*
G02Y9326900I-5716J-8400D01*
G03X2985800Y9256990I28310J-41600D01*
G02X3002600I8400J-5716D01*
G03X3085800I41600J28310D01*
G02X3102600I8400J-5716D01*
G03Y9313610I41600J28310D01*
G02X3085800I-8400J5716D01*
G03X3002600I-41600J-28310D01*
G02X2985800I-8400J5716D01*
G03X2972510Y9326900I-41600J-28310D01*
G02Y9343700I5716J8400D01*
G03Y9426900I-28310J41600D01*
G02Y9443700I5716J8400D01*
G03X2985800Y9456990I-28310J41600D01*
G02X3002600I8400J-5716D01*
G03X3072510Y9526900I41600J28310D01*
G02Y9543700I5716J8400D01*
G03X3085800Y9556990I-28310J41600D01*
G02X3102600I8400J-5716D01*
G03X3185800I41600J28310D01*
G02X3202600I8400J-5716D01*
G03X3215890Y9543700I41600J28310D01*
G02Y9526900I-5716J-8400D01*
G03Y9443700I28310J-41600D01*
G02Y9426900I-5716J-8400D01*
G03X3285800Y9356990I28310J-41600D01*
G02X3302600I8400J-5716D01*
G03X3315890Y9343700I41600J28310D01*
G02Y9326900I-5716J-8400D01*
G03X3385800Y9256990I28310J-41600D01*
G02X3402600I8400J-5716D01*
G03X3442970Y9235000I41597J28313D01*
G02X3452880Y9224840I-251J-10158D01*
G01Y9145760D01*
G02X3442970Y9135600I-10161J-2D01*
G03X3402600Y9113610I1227J-50303D01*
G02X3385800I-8400J5716D01*
G03X3302600I-41600J-28310D01*
G02X3285800I-8400J5716D01*
G03Y9056990I-41600J-28310D01*
G02X3302600I8400J-5716D01*
G03X3348280Y9035150I41597J28312D01*
G02X3357470Y9019250I824J-10129D01*
G03X3443320Y8967050I41431J-28557D01*
G01X3444750Y8969740D01*
X3452880D01*
Y8955920D01*
G02X3435030Y8912840I-60928J7D01*
G01X2217660Y7695470D01*
G03X2176930Y7597130I98342J-98335D01*
G01Y5880720D01*
G02X2159080Y5837640I-60928J7D01*
G01X2074480Y5753040D01*
G02X2058780Y5754690I-7182J7182D01*
G03X2054240Y5760730I-46469J-30203D01*
G02X2054310Y5767440I3847J3315D01*
G03X2052850Y5843110I-41210J37054D01*
G02X2052540Y5849830I3649J3535D01*
G03X2051640Y5920260I-43239J34668D01*
G02X2051780Y5926980I3881J3281D01*
G03X1968660Y5928740I-40784J37521D01*
G02X1968520Y5922020I-3881J-3281D01*
G03X1969550Y5845890I40782J-37520D01*
G02X1969860Y5839170I-3649J-3535D01*
G03X1971160Y5768270I43239J-34669D01*
G02X1971090Y5761560I-3847J-3315D01*
G03X1982110Y5678020I41208J-37061D01*
G02X1983760Y5662320I-5532J-8518D01*
G01X1954510Y5633070D01*
G03X1913780Y5534730I98342J-98335D01*
G01Y5277760D01*
G02X1899170Y5268620I-10161J-5D01*
G03X1835590Y5257870I-24275J-49821D01*
G01X1738520D01*
G03X1640180Y5217140I-5J-139072D01*
G01X1533660Y5110620D01*
G03X1492930Y5012280I98342J-98335D01*
G01Y4663320D01*
G02X1492280Y4654410I-60933J-34D01*
G01X1491630Y4650070D01*
X1482170D01*
Y5242990D01*
G03X1404030I-39070J39310D01*
G01Y4637920D01*
G02X1386180Y4594840I-60928J7D01*
G01X1203460Y4412120D01*
G02X1160380Y4394270I-43087J43078D01*
G01X1019620D01*
G03X921280Y4353540I-5J-139072D01*
G01X801660Y4233920D01*
G03X760930Y4135580I98342J-98335D01*
G01Y3958430D01*
G02X746820Y3949070I-10160J1D01*
G03Y3846930I-21520J-51070D01*
G02X760930Y3837570I3950J-9361D01*
G01Y3821880D01*
G02X747520Y3812250I-10160J-4D01*
G03X680650Y3607040I-34520J-102251D01*
G02X684790Y3590170I-3045J-9690D01*
G01X643140Y3548520D01*
G02X600060Y3530670I-43087J43078D01*
G01X537590D01*
G03X413930Y3407010I0J-123660D01*
G01Y2870510D01*
G03X489640Y2789620I39069J-39309D01*
G02X496360I3360J-3810D01*
G03X569640I36640J41580D01*
G02X576360I3360J-3810D01*
G03X649640I36640J41580D01*
G02X656360I3360J-3810D01*
G03X729640I36640J41580D01*
G02X736360I3360J-3810D01*
G03X809640I36640J41580D01*
G02X816360I3360J-3810D01*
G03X889640I36640J41580D01*
G02X896360I3360J-3810D01*
G03X972070Y2870510I36641J41581D01*
G01Y2965480D01*
G02X989920Y3008560I60928J-7D01*
G01X1065790Y3084440D01*
G02X1083080Y3078330I7186J-7184D01*
G03X1204670Y3199920I109920J11670D01*
G02X1198560Y3217210I1074J10104D01*
G01X1238240Y3256880D01*
G03X1278970Y3355220I-98342J98335D01*
G01Y3496740D01*
G02X1296820Y3539820I60928J-7D01*
G01X1300090Y3543100D01*
G02X1316990Y3532950I7184J-7183D01*
G03X1392050Y3608010I108010J-32950D01*
G02X1381900Y3624910I-2967J9716D01*
G01X1856770Y4099780D01*
G02X1874100Y4092090I7183J-7186D01*
G03X1873930Y4085180I138901J-6874D01*
G01Y3568420D01*
G03X1914660Y3470080I139072J-5D01*
G01X2170810Y3213930D01*
G02X2161050Y3196920I-7183J-7184D01*
G03X2159820Y2982760I-28049J-106922D01*
G02X2169470Y2965720I2467J-9855D01*
G01X2107660Y2903920D01*
G03X2066930Y2805580I98342J-98335D01*
G01Y2738520D01*
G03X2107660Y2640180I139072J-5D01*
G01X2219780Y2528060D01*
G03X2318120Y2487330I98335J98342D01*
G01X2393690D01*
G03Y2565470I39310J39070D01*
G01X2318120D01*
G02X2275040Y2583320I7J60928D01*
G01X2162920Y2695440D01*
G02X2145070Y2738520I43078J43087D01*
G01Y2805580D01*
G02X2162920Y2848660I60928J-7D01*
G01X2180030Y2865770D01*
X2185220Y2860570D01*
X2185100Y2858300D01*
G03X2184880Y2850540I138848J-7820D01*
G01Y2807750D01*
G03X2302100Y2690530I117220J0D01*
G01X2636900D01*
G03X2712070Y2765700I0J75170D01*
G01Y2773290D01*
G02X2727000Y2782260I10160J-1D01*
G03X2789640Y2789620I26002J48941D01*
G02X2796360I3360J-3810D01*
G03X2872070Y2870510I36641J41581D01*
G01Y3005680D01*
G02X2889920Y3048760I60928J-7D01*
G01X2969100Y3127950D01*
G02X2986110Y3118180I7185J-7183D01*
G03X3044430Y3189300I106889J-28180D01*
G01X3038610Y3197450D01*
X3054340Y3213180D01*
G03X3095070Y3311520I-98342J98335D01*
G01Y3378930D01*
G02X3112920Y3422010I60928J-7D01*
G01X3194780Y3503880D01*
G02X3212120Y3496970I7183J-7185D01*
G03X3328030Y3612880I112880J3030D01*
G02X3321120Y3630220I275J10157D01*
G01X3355650Y3664740D01*
G02X3398730Y3682590I43087J-43078D01*
G01X3406240D01*
G03X3504580Y3723320I5J139072D01*
G01X4077960Y4296700D01*
G03X4118690Y4395040I-98342J98335D01*
G01Y6109560D01*
G02X4136540Y6152640I60928J-7D01*
G01X4227820Y6243920D01*
G03X4268550Y6342260I-98342J98335D01*
G01Y6884370D01*
G02X4285890Y6891560I10160J2D01*
G01X4340690Y6836760D01*
X5898810D01*
X6126880Y7064830D01*
Y8457850D01*
X5194290Y9390440D01*
X5194050Y9392140D01*
G03X5172510Y9426900I-49852J-6838D01*
G02Y9443700I5716J8400D01*
G03Y9526900I-28310J41600D01*
G02Y9543700I5716J8400D01*
G03Y9626900I-28310J41600D01*
G02Y9643700I5716J8400D01*
G03Y9726900I-28310J41600D01*
G02Y9743700I5716J8400D01*
G03Y9826900I-28310J41600D01*
G02Y9843700I5716J8400D01*
G03X5194500Y9884070I-28313J41597D01*
G02X5204660Y9893980I10158J-251D01*
G01X5508040D01*
G03X5535040Y9885080I27004J36519D01*
G01X6634080D01*
G02X6672670Y9869090I-7J-54578D01*
G01X7167090Y9374670D01*
G02X7183080Y9336080I-38588J-38597D01*
G01Y8508660D01*
G03X7273920I45420J-31760D01*
G01Y9336080D01*
G03X7231330Y9438910I-145422J4D01*
G01X6736910Y9933330D01*
G03X6634080Y9975920I-102826J-102832D01*
G01X5535040D01*
G03X5517750Y9972500I0J-45415D01*
G01X5516830Y9972120D01*
X5204600D01*
G02X5194460Y9982790I6J10159D01*
G03X5172510Y10026900I-50258J2507D01*
G02Y10043700I5716J8400D01*
G03Y10126900I-28310J41600D01*
G02Y10143700I5716J8400D01*
G03X5115890I-28310J41600D01*
G02Y10126900I-5716J-8400D01*
G03Y10043700I28310J-41600D01*
G02Y10026900I-5716J-8400D01*
G03X5093940Y9982790I28308J-41603D01*
G02X5083800Y9972120I-10146J-511D01*
G01X4904600D01*
G02X4894460Y9982790I6J10159D01*
G03X4872510Y10026900I-50258J2507D01*
G02Y10043700I5716J8400D01*
G03X4885800Y10056990I-28310J41600D01*
G02X4902600I8400J-5716D01*
G03X4972510Y10126900I41600J28310D01*
G02Y10143700I5716J8400D01*
G03X4902600Y10213610I-28310J41600D01*
G02X4885800I-8400J5716D01*
G03X4802600I-41600J-28310D01*
G02X4785800I-8400J5716D01*
G03X4715890Y10143700I-41600J-28310D01*
G02Y10126900I-5716J-8400D01*
G03Y10043700I28310J-41600D01*
G02Y10026900I-5716J-8400D01*
G03X4704820Y10016630I28302J-41607D01*
G02X4689690Y10015770I-7949J6323D01*
G01X4672480Y10032980D01*
G03X4574140Y10073710I-98335J-98342D01*
G01X4404660D01*
G02X4394510Y10084110I5J10158D01*
G03X4363570Y10131740I-50307J1185D01*
G02X4360300Y10148300I3912J9375D01*
G01X4481200Y10269200D01*
G02X4497760Y10265930I7185J-7182D01*
G03X4585800Y10256990I46441J19371D01*
G02X4602600I8400J-5716D01*
G03X4672510Y10326900I41600J28310D01*
G02Y10343700I5716J8400D01*
G03X4685800Y10356990I-28310J41600D01*
G02X4702600I8400J-5716D01*
G03X4785800I41600J28310D01*
G02X4802600I8400J-5716D01*
G03X4885800I41600J28310D01*
G02X4902600I8400J-5716D01*
G03Y10413610I41600J28310D01*
G02X4885800I-8400J5716D01*
G03X4872510Y10426900I-41600J-28310D01*
G02Y10443700I5716J8400D01*
G03Y10526900I-28310J41600D01*
G02Y10543700I5716J8400D01*
G03Y10626900I-28310J41600D01*
G02Y10643700I5716J8400D01*
G03X4885800Y10656990I-28310J41600D01*
G02X4902600I8400J-5716D01*
G03Y10713610I41600J28310D01*
G02X4885800I-8400J5716D01*
G03X4815890Y10643700I-41600J-28310D01*
G02Y10626900I-5716J-8400D01*
G03X4802600Y10613610I28310J-41600D01*
G02X4785800I-8400J5716D01*
G03X4715890Y10543700I-41600J-28310D01*
G02Y10526900I-5716J-8400D01*
G03X4702600Y10513610I28310J-41600D01*
G02X4685800I-8400J5716D01*
G03X4615890Y10443700I-41600J-28310D01*
G02Y10426900I-5716J-8400D01*
G03Y10343700I28310J-41600D01*
G02Y10326900I-5716J-8400D01*
G03X4602600Y10313610I28310J-41600D01*
G02X4585800I-8400J5716D01*
G03X4558810Y10333450I-41599J-28312D01*
G02X4552910Y10348160I2950J9721D01*
G03X4570810Y10416420I-121172J68252D01*
G01Y10729820D01*
G02X4588660Y10772900I60928J-7D01*
G01X4593440Y10777690D01*
X4597950Y10773180D01*
X4598320Y10771930D01*
G03X4667220Y10832000I48282J14170D01*
G02X4664200Y10848450I4167J9267D01*
G01X4682350Y10866600D01*
G02X4698720Y10863770I7188J-7182D01*
G03X4785800Y10856990I45480J21531D01*
G02X4802600I8400J-5716D01*
G03X4894050Y10878440I41600J28311D01*
G01X4894280Y10880130D01*
X4908880Y10894730D01*
X5142130D01*
X5142630Y10890200D01*
G03X5185790Y10845850I50019J5501D01*
G01X5187480Y10845620D01*
X5260120Y10772980D01*
X5310040D01*
X5326190Y10756830D01*
X5532380D01*
X5532880Y10756730D01*
G03X5540730Y10755930I7866J38268D01*
G01X5638700D01*
G02X5644880Y10737710I-4J-10159D01*
G03X5713370Y10650570I33710J-43990D01*
G02X5728120Y10648420I6379J-7907D01*
G03X5739020Y10722950I45680J31381D01*
G02X5724270Y10725100I-6379J7907D01*
G03X5690580Y10747830I-45683J-31378D01*
G02X5685590Y10764930I2197J9919D01*
G01X5764590Y10843930D01*
X6511880D01*
G02X6519540Y10827100I0J-10158D01*
G03X6653660I67060J-58400D01*
G02X6661320Y10843930I7660J6672D01*
G01X6849820D01*
X8109630Y9584120D01*
Y7514020D01*
X8189170Y7434480D01*
X8226950D01*
X8232940Y7428550D01*
X8233020Y7426540D01*
G03X8325900Y7387790I55382J2059D01*
G02X8342930Y7380310I6871J-7482D01*
G01Y7191680D01*
X8254030Y7102780D01*
Y6935410D01*
G03X8258520Y6852790I39069J-39309D01*
G02Y6836910I-6336J-7940D01*
G03X8348490Y6791800I34579J-43309D01*
G01X8348560Y6793800D01*
X8381220Y6826470D01*
Y6883520D01*
G02X8391350Y6893680I10160J0D01*
G03X8429140Y6908710I-157J55418D01*
G02X8443060I6960J-7408D01*
G03Y6989490I37940J40390D01*
G02X8429140I-6960J7408D01*
G03X8391350Y7004520I-37947J-40388D01*
G02X8381220Y7014680I30J10160D01*
G01Y7081370D01*
X8446470Y7146620D01*
Y9827120D01*
X8060770Y10212820D01*
Y10772180D01*
X7201100Y11631850D01*
Y11657980D01*
G03X7146510Y11713390I-55416J0D01*
G02X7136630Y11725160I151J10159D01*
G03X7042830Y11694590I-54729J8738D01*
G01Y11636200D01*
X7951930Y10727100D01*
Y10175230D01*
X8342930Y9784230D01*
Y8333590D01*
G02X8325900Y8326110I-10159J2D01*
G03Y8244490I-37500J-40810D01*
G02X8342930Y8237010I6871J-7482D01*
G01Y7597510D01*
G02X8325810Y7590110I-10159J0D01*
G03X8232820Y7556370I-37968J-40370D01*
G01X8232610Y7554630D01*
X8227780Y7549800D01*
X8218470Y7559100D01*
Y9629200D01*
X6894900Y10952770D01*
X5719510D01*
X5631510Y10864770D01*
X5519320D01*
X5514920Y10860370D01*
X5369080D01*
X5348430Y10881030D01*
G02X5349560Y10896370I7183J7183D01*
G03X5279170Y10966760I-29960J40430D01*
G02X5263830Y10965630I-8157J6053D01*
G01X5246930Y10982520D01*
X5194680D01*
X5194480Y10987390D01*
G03X5093920Y10983410I-50276J-2090D01*
G02X5083760Y10972870I-10154J-379D01*
G01X5004640D01*
G02X4994480Y10983410I-6J10161D01*
G03X4972510Y11026900I-50283J1893D01*
G02Y11043700I5716J8400D01*
G03X4902600Y11113610I-28310J41600D01*
G02X4885800I-8400J5716D01*
G03X4873480Y11126230I-41611J-28298D01*
G02X4872860Y11142280I5908J8265D01*
G03X4801870Y11213030I-32310J38570D01*
G02X4785680Y11213780I-7811J6501D01*
G03X4772510Y11226900I-41487J-28475D01*
G02Y11243700I5716J8400D01*
G03X4762000Y11332370I-28309J41602D01*
G02X4758410Y11349050I3594J9500D01*
G01X4921240Y11511880D01*
G03X4961970Y11610220I-98342J98335D01*
G01Y11875350D01*
G02X4975550Y11884910I10159J-6D01*
G03Y11989290I18650J52190D01*
G02X4961970Y11998850I-3421J9566D01*
G01Y12073480D01*
G02X4979820Y12116560I60928J-7D01*
G01X6102340Y13239080D01*
G03X6143070Y13337420I-98342J98335D01*
G01Y13762580D01*
G02X6160920Y13805660I60928J-7D01*
G01X6291750Y13936500D01*
G02X6309070Y13928590I7186J-7183D01*
G03X6360410Y13979930I55280J-3940D01*
G02X6352500Y13997250I-727J10134D01*
G01X6572240Y14216980D01*
G03X6612970Y14315320I-98342J98335D01*
G01Y14332720D01*
G02X6629440Y14340680I10158J1D01*
G03X6759840Y14362800I55258J69668D01*
G01X8557910D01*
G02X8564980Y14345350I-1J-10158D01*
G03X9060020I247520J-255350D01*
G02X9067090Y14362800I7071J7292D01*
G01X9712490D01*
Y14204500D01*
G02X9696430Y14196230I-10159J0D01*
G03Y13747770I-159930J-224230D01*
G02X9712490Y13739500I5901J-8270D01*
G01Y6082400D01*
X9402960D01*
G02X9392810Y6093020I-2J10159D01*
G03X9172190I-110310J4980D01*
G02X9162040Y6082400I-10148J-461D01*
G01X9148960D01*
G02X9138810Y6093020I-2J10159D01*
G03X8918190I-110310J4980D01*
G02X8908040Y6082400I-10148J-461D01*
G01X8894960D01*
G02X8884810Y6093020I-2J10159D01*
G03X8664190I-110310J4980D01*
G02X8654040Y6082400I-10148J-461D01*
G01X8517000D01*
Y6589620D01*
G02X8528280Y6599720I10160J2D01*
G03X8491520Y6619700I6126J55078D01*
G02X8483650Y6603100I-7862J-6438D01*
G01X7536700D01*
G02X7527790Y6618150I-4J10160D01*
G03X7430610I-48590J26650D01*
G02X7421700Y6603100I-8906J-4890D01*
G01X5227700D01*
Y-178700D01*
X566800D01*
G37*
G36*
G01X-1096840Y14566000D02*
X-1087490Y20384910D01*
Y20389990D01*
X9710800D01*
Y14566000D01*
X6600270D01*
Y16251780D01*
G03X6563260Y16341140I-126372J5D01*
G01X6532940Y16371460D01*
G02X6511370Y16423520I52058J52068D01*
G01Y16466390D01*
X6511760Y16467330D01*
G03X6442750Y16452840I-39463J16367D01*
G01X6442800Y16452810D01*
X6458630Y16436960D01*
Y16423520D01*
G03X6495640Y16334160I126372J-5D01*
G01X6525960Y16303840D01*
G02X6547530Y16251780I-52058J-52068D01*
G01Y14566000D01*
X6349450D01*
G02X6339460Y14577980I5J10160D01*
G03X6255400I-42030J7650D01*
G02X6245410Y14566000I-9995J-1820D01*
G01X6183790D01*
G03X6121330I-31230J-29150D01*
G01X2875620D01*
G02X2868440Y14583340I4J10158D01*
G01X3012110Y14727010D01*
X3013610Y14727320D01*
G03X2962480Y14769200I-8413J41880D01*
G01Y14751970D01*
X2805560Y14595050D01*
X2804210Y14594710D01*
G03X2775050Y14569190I10493J-41409D01*
G01X2773770Y14566000D01*
X1680950D01*
X1680920Y14571050D01*
G03X1528480I-76220J-500D01*
G01X1528450Y14566000D01*
X-1096840D01*
G37*
G36*
G01X572070Y2953470D02*
Y3262240D01*
G03X543390Y3331460I-97879J-3D01*
G02X537620Y3345400I13941J13934D01*
G01Y3382750D01*
G02X569300Y3414430I31680J0D01*
G01X609050D01*
G03X704540Y3453980I8J135032D01*
G01X840590Y3590030D01*
G03X881320Y3688370I-98342J98335D01*
G01Y3711360D01*
G02X893120Y3721390I10160J3D01*
G03X952320Y3752680I8962J54691D01*
G03X972340Y3748610I20862J51344D01*
G02X981900Y3735500I-161J-10158D01*
G03X975930Y3695180I133101J-40310D01*
G01Y3520420D01*
G02X958080Y3477340I-60928J7D01*
G01X944660Y3463920D01*
G03X903930Y3365580I98342J-98335D01*
G01Y3294420D01*
G02X886080Y3251340I-60928J7D01*
G01X614660Y2979920D01*
G03X591130Y2948580I98341J-98337D01*
G02X572070Y2953470I-8902J4895D01*
G37*
G36*
G01X528510Y2869140D02*
X511800Y2852400D01*
X533000Y2829610D01*
X554200Y2852400D01*
X537490Y2869140D01*
G03X528510I-4490J-4490D01*
G37*
G36*
G01X448510D02*
X431800Y2852400D01*
X453000Y2829610D01*
X474200Y2852400D01*
X457490Y2869140D01*
G03X448510I-4490J-4490D01*
G37*
G36*
G01X928510D02*
X911800Y2852400D01*
X933000Y2829610D01*
X954200Y2852400D01*
X937490Y2869140D01*
G03X928510I-4490J-4490D01*
G37*
G36*
G01X768510D02*
X751800Y2852400D01*
X773000Y2829610D01*
X794200Y2852400D01*
X777490Y2869140D01*
G03X768510I-4490J-4490D01*
G37*
G36*
G01X848510D02*
X831800Y2852400D01*
X853000Y2829610D01*
X874200Y2852400D01*
X857490Y2869140D01*
G03X848510I-4490J-4490D01*
G37*
G36*
G01X688510D02*
X671800Y2852400D01*
X693000Y2829610D01*
X714200Y2852400D01*
X697490Y2869140D01*
G03X688510I-4490J-4490D01*
G37*
G36*
G01X608510D02*
X591800Y2852400D01*
X613000Y2829610D01*
X634200Y2852400D01*
X617490Y2869140D01*
G03X608510I-4490J-4490D01*
G37*
G36*
G01X1073140Y3386150D02*
G03X1113870Y3484490I-98342J98335D01*
G01Y3614160D01*
G02X1129960Y3622400I10158J-6D01*
G03X1168540Y3604890I63025J87606D01*
G01X1169950Y3604560D01*
X1174570Y3599940D01*
X1165360Y3590740D01*
G03X1124630Y3492400I98342J-98335D01*
G01Y3406020D01*
G02X1106780Y3362940I-60928J7D01*
G01X1060360Y3316520D01*
G02X1043020Y3323700I-7182J7184D01*
G01Y3356040D01*
X1073140Y3386150D01*
G37*
G36*
G01X1592030Y4470520D02*
G02X1574180Y4427440I-60928J7D01*
G01X1305570Y4158830D01*
G03X1267120Y4065990I92842J-92833D01*
G02X1251550Y4028410I-53148J5D01*
G01X1042120Y3818970D01*
G02X1025370Y3822720I-7187J7182D01*
G03X1020780Y3832440I-52173J-18693D01*
G02X1022450Y3839350I4362J2603D01*
G03X945490Y3857920I-29382J46990D01*
G02X943820Y3851010I-4362J-2603D01*
G03X922960Y3827420I29376J-46994D01*
G03X893120Y3830770I-20872J-51340D01*
G02X881320Y3840800I-1640J10027D01*
G01Y4058000D01*
G02X899170Y4101080I60928J-7D01*
G01X1056170Y4258080D01*
G02X1099250Y4275930I43087J-43078D01*
G01X1183680D01*
G03X1282020Y4316660I5J139072D01*
G01X1530340Y4564980D01*
G03X1571070Y4663320I-98342J98335D01*
G01Y5012280D01*
G02X1588920Y5055360I60928J-7D01*
G01X1593510Y5059960D01*
X1599280Y5054190D01*
X1598360Y5051260D01*
G03X1592030Y5009780I132740J-41480D01*
G01Y4470520D01*
G37*
G36*
G01X4356480Y6874880D02*
X4275200Y6956160D01*
Y7400970D01*
G02X4293170Y7407470I10161J0D01*
G03Y7462130I32830J27330D01*
G02X4275200Y7468630I-7809J6500D01*
G01Y7817220D01*
X4493640Y8035660D01*
Y8510640D01*
X4464070Y8540210D01*
X4463860Y8540490D01*
G03X4452520Y8553500I-100712J-76337D01*
G01X4445380Y8560630D01*
Y8579460D01*
X4449790Y8580050D01*
G03Y8664750I-5590J42350D01*
G01X4445380Y8665340D01*
Y8914740D01*
X4449720Y8915390D01*
G03Y8989810I-5520J37210D01*
G01X4445380Y8990460D01*
Y9047440D01*
X4449720Y9048090D01*
G03Y9122510I-5520J37210D01*
G01X4445380Y9123160D01*
Y9202330D01*
X4448890Y9205840D01*
Y9339440D01*
X4444980Y9343350D01*
X4449680Y9348050D01*
X4451220Y9348340D01*
G03X4431150Y9420590I-7033J36959D01*
G01X4428100Y9419460D01*
X4419720Y9427840D01*
X4419370Y9429130D01*
G03X4388510Y9459990I-42570J-11710D01*
G01X4387220Y9460340D01*
X4378360Y9469200D01*
X4379490Y9472250D01*
G03X4331150Y9520590I-35290J13050D01*
G01X4328100Y9519460D01*
X4309990Y9537570D01*
G03X4294150Y9553540I-47484J-31257D01*
G01X4293740Y9553820D01*
X4239640Y9607920D01*
X4174260D01*
G03X4114140I-30060J-22620D01*
G01X4074260D01*
G03X4014140I-30060J-22620D01*
G01X3957700D01*
X3890940Y9674680D01*
X3890760Y9674900D01*
G03X3881820Y9684970I-98837J-78742D01*
G03X3815410Y9709520I-37620J332D01*
G01X3772990D01*
G03X3715410I-28790J-24220D01*
G01X3672990D01*
G03X3615410I-28790J-24220D01*
G01X3572990D01*
G03X3515410I-28790J-24220D01*
G01X3472990D01*
G03X3415410I-28790J-24220D01*
G01X3372990D01*
G03X3315410I-28790J-24220D01*
G01X3272990D01*
G03X3215410I-28790J-24220D01*
G01X3172990D01*
G03X3115410I-28790J-24220D01*
G01X3072990D01*
G03X3015410I-28790J-24220D01*
G01X2972990D01*
G03X2915410I-28790J-24220D01*
G01X2772990D01*
G03X2715410I-28790J-24220D01*
G01X2491790D01*
G03X2442360Y9716750I-28786J-24220D01*
G01X2438900Y9714480D01*
X2230500Y9922880D01*
Y10157080D01*
G02X2241150Y10167230I10160J2D01*
G03X2266340Y10245810I2050J42671D01*
G02Y10262890I5504J8540D01*
G03X2241150Y10341470I-23140J35909D01*
G02X2230500Y10351620I-490J10148D01*
G01Y12813400D01*
X2210180Y12833720D01*
X2146680D01*
X2126360Y12813400D01*
Y12547230D01*
G02X2113760Y12537370I-10160J2D01*
G03Y12454430I-10260J-41470D01*
G02X2126360Y12444570I2440J-9862D01*
G01Y12234280D01*
X2045080Y12153000D01*
X1229740D01*
X1138300Y12244440D01*
Y13120740D01*
X1201800Y13184240D01*
X2220340D01*
X2766440Y12638140D01*
Y11711040D01*
X3038220Y11439260D01*
Y11322650D01*
X3034460Y11321640D01*
G03Y11248960I9740J-36340D01*
G01X3038220Y11247950D01*
Y11222650D01*
X3034460Y11221640D01*
G03Y11148960I9740J-36340D01*
G01X3038220Y11147950D01*
Y11122650D01*
X3034460Y11121640D01*
G03Y11048960I9740J-36340D01*
G01X3038220Y11047950D01*
Y11022650D01*
X3034460Y11021640D01*
G03X3056390Y10949710I9751J-36335D01*
G01X3059380Y10950740D01*
X3072900Y10937220D01*
X3073270Y10936520D01*
G03X3094280Y10915510I43690J22680D01*
G01X3094980Y10915140D01*
X3109640Y10900480D01*
X3108610Y10897490D01*
G03X3174260Y10862680I35590J-12190D01*
G01X3214140D01*
G03X3274260I30060J22620D01*
G01X3314140D01*
G03X3374260I30060J22620D01*
G01X3414140D01*
G03X3474260I30060J22620D01*
G01X3514140D01*
G03X3574260I30060J22620D01*
G01X3614140D01*
G03X3674260I30060J22620D01*
G01X3714140D01*
G03X3774260I30060J22620D01*
G01X3814140D01*
G03X3874260I30060J22620D01*
G01X3914140D01*
G03X3974260I30060J22620D01*
G01X3998340D01*
X4120260Y10740760D01*
Y10614320D01*
G03Y10556280I23940J-29020D01*
G01Y10514320D01*
G03Y10456280I23940J-29020D01*
G01Y10414320D01*
G03Y10356280I23940J-29020D01*
G01Y10314320D01*
G03Y10256280I23940J-29020D01*
G01Y10214320D01*
G03Y10156280I23940J-29020D01*
G01Y10114320D01*
G03Y10056280I23940J-29020D01*
G01Y9988920D01*
X4181310Y9927870D01*
G03X4183290Y9925890I43610J41630D01*
G01X4199000Y9910180D01*
G02X4208410Y9896890I-256J-10158D01*
G03X4280230Y9896130I35791J-11589D01*
G02X4289960Y9909210I9730J2921D01*
G01X4512390D01*
X4613800Y9807800D01*
X4611800Y9804410D01*
G03X4615560Y9760910I32401J-19112D01*
G01Y9709690D01*
G03Y9660910I28640J-24390D01*
G01Y9609690D01*
G03X4665920Y9554580I28641J-24393D01*
G01X4722480D01*
G03X4765920I21720J30720D01*
G01X4822480D01*
G03X4865920I21720J30720D01*
G01X4922480D01*
G03X4964700Y9553760I21715J30720D01*
G01X4965970Y9554580D01*
X4976240D01*
X5114810Y9416010D01*
G02X5115140Y9409190I-3592J-3592D01*
G03X5168090Y9356240I29060J-23890D01*
G02X5174910Y9355910I3228J-3922D01*
G01X6088760Y8442060D01*
Y7080620D01*
X5883020Y6874880D01*
X4356480D01*
G37*
G36*
G01X1736170Y4999580D02*
G02X1748540Y5036380I60930J-2D01*
G03X1753440Y5036660I-709J55416D01*
G02X1763750Y5022470I1007J-10109D01*
G03X1752030Y4966580I127352J-55879D01*
G01Y4285780D01*
G02X1741000Y4259160I-37648J4D01*
G01X1707080Y4225230D01*
Y4218220D01*
X1700070D01*
X1325110Y3843270D01*
G03X1290560Y3785910I98350J-98325D01*
G02X1273290Y3782110I-9711J2992D01*
G03X1210880Y3816430I-80294J-72108D01*
G02X1205380Y3833630I1687J10019D01*
G01X1695440Y4323680D01*
G03X1736170Y4422020I-98342J98335D01*
G01Y4999580D01*
G37*
G36*
G01X1447590Y5244360D02*
X1464300Y5261100D01*
X1443100Y5283890D01*
X1421900Y5261100D01*
X1438610Y5244360D01*
G03X1447590I4490J4490D01*
G37*
G36*
G01X1502110Y7415740D02*
X1485400Y7399000D01*
X1506600Y7376210D01*
X1527800Y7399000D01*
X1511090Y7415740D01*
G03X1502110I-4490J-4490D01*
G37*
G36*
G01X1685710Y14048310D02*
G03X1640210Y14093810I-90910J-45410D01*
G02Y14111990I4537J9090D01*
G03X1685710Y14157490I-45410J90910D01*
G02X1703890I9090J-4537D01*
G03X1749390Y14111990I90910J45410D01*
G02Y14093810I-4537J-9090D01*
G03X1703890Y14048310I45410J-90910D01*
G02X1685710I-9090J4537D01*
G37*
G36*
G01X1485710D02*
G03X1440210Y14093810I-90910J-45410D01*
G02Y14111990I4537J9090D01*
G03X1485710Y14157490I-45410J90910D01*
G02X1503890I9090J-4537D01*
G03X1549390Y14111990I90910J45410D01*
G02Y14093810I-4537J-9090D01*
G03X1503890Y14048310I45410J-90910D01*
G02X1485710I-9090J4537D01*
G37*
G36*
G01X1285710D02*
G03X1240210Y14093810I-90910J-45410D01*
G02Y14111990I4537J9090D01*
G03X1285710Y14157490I-45410J90910D01*
G02X1303890I9090J-4537D01*
G03X1349390Y14111990I90910J45410D01*
G02Y14093810I-4537J-9090D01*
G03X1303890Y14048310I45410J-90910D01*
G02X1285710I-9090J4537D01*
G37*
G36*
G01X2217650Y3619530D02*
G03X2257560Y3536280I138251J15086D01*
G01X2296080Y3497760D01*
G02X2313930Y3454680I-43078J-43087D01*
G01Y3271180D01*
G02X2296590Y3264000I-10158J4D01*
G01X2046120Y3514470D01*
G02X2028270Y3557550I43078J43087D01*
G01Y3639290D01*
G02X2046570Y3645380I10161J7D01*
G03X2201140Y3626310I86434J64620D01*
G02X2217650Y3619530I6411J-7880D01*
G37*
G36*
G01X2302100Y2768670D02*
G02X2263020Y2807750I0J39080D01*
G01Y2850540D01*
G02X2280870Y2893620I60928J-7D01*
G01X2296590Y2909340D01*
G02X2313930Y2902160I7182J-7184D01*
G01Y2870510D01*
G03X2319640Y2786940I39068J-39311D01*
G02X2313530Y2768670I-6115J-8112D01*
G01X2302100D01*
G37*
G36*
G01X2386360Y2786940D02*
G03X2392070Y2870510I-33358J44259D01*
G01Y3454680D01*
G03X2351340Y3553020I-139072J5D01*
G01X2312820Y3591540D01*
G02X2294970Y3634620I43078J43087D01*
G01Y3713180D01*
G02X2305800Y3723320I10160J2D01*
G03X2348900Y3739710I3636J55302D01*
G02X2356130I3615J-3563D01*
G03Y3817530I39470J38910D01*
G02X2348900I-3615J3563D01*
G03X2292150Y3831280I-39468J-38909D01*
G02X2285820Y3834290I-1586J4825D01*
G03X2254240Y3883020I-129925J-49602D01*
G01X2236620Y3900640D01*
G02X2218770Y3943720I43078J43087D01*
G01Y4339180D01*
G02X2236620Y4382260I60928J-7D01*
G01X2317740Y4463380D01*
G03X2358470Y4561720I-98342J98335D01*
G01Y5698080D01*
G02X2376320Y5741160I60928J-7D01*
G01X2430470Y5795310D01*
G02X2447650Y5786320I7183J-7183D01*
G03X2445430Y5761580I136850J-24750D01*
G01Y5215320D01*
X2468420Y5192320D01*
X2465750Y5188790D01*
G03X2548970Y5194610I44156J-33490D01*
G01Y5228470D01*
X2552480Y5229610D01*
G03X2574370Y5321610I-17179J52692D01*
G01Y5761580D01*
G02X2592220Y5804660I60928J-7D01*
G01X3190090Y6402530D01*
G02X3207430Y6395350I7182J-7184D01*
G01Y6314320D01*
G02X3204320Y6295090I-60931J-12D01*
G02X3186410Y6292400I-9639J3211D01*
G03X3112990Y6212560I-45108J-32198D01*
G02X3114980Y6196640I-5190J-8733D01*
G01X2905260Y5986920D01*
G03X2864530Y5888580I98342J-98335D01*
G01Y5374520D01*
G02X2846680Y5331440I-60928J7D01*
G01X2726000Y5210760D01*
X2724000Y5210690D01*
G03X2729250Y5099990I1800J-55389D01*
G02X2734580Y5095720I313J-5071D01*
G03X2787570Y5049110I54719J8782D01*
G02X2797410Y5039270I-318J-10158D01*
G03X2908190Y5039200I55391J1730D01*
G01X2908260Y5041200D01*
X3028940Y5161880D01*
G03X3069670Y5260220I-98342J98335D01*
G01Y5901280D01*
G02X3087520Y5944360I60928J-7D01*
G01X3321040Y6177880D01*
G03X3361770Y6276220I-98342J98335D01*
G01Y6279740D01*
G02X3379620Y6322820I60928J-7D01*
G01X3944610Y6887810D01*
G03X3985340Y6986150I-98342J98335D01*
G01Y7158900D01*
G02X4003420Y7165260I10160J-3D01*
G03X4067250Y7148570I43181J34740D01*
G02X4081200Y7139140I3791J-9426D01*
G01Y6426090D01*
G02X4063350Y6383010I-60928J7D01*
G01X3727260Y6046920D01*
G03X3686530Y5948580I98342J-98335D01*
G01Y4558220D01*
G02X3668680Y4515140I-60928J7D01*
G01X2947650Y3794100D01*
G02X2930490Y3799350I-7185J7186D01*
G03X2836620Y3827690I-54404J-10568D01*
G02X2829390I-3615J3563D01*
G03Y3749870I-39470J-38910D01*
G02X2836620I3615J-3563D01*
G03X2865520Y3734380I39459J38915D01*
G02X2870770Y3717220I-1936J-9975D01*
G01X2765560Y3612020D01*
G02X2722480Y3594170I-43087J43078D01*
G01X2682330D01*
G03X2583990Y3553440I-5J-139072D01*
G01X2486160Y3455610D01*
G03X2445430Y3357270I98342J-98335D01*
G01Y3034320D01*
X2473930Y3005820D01*
Y2870510D01*
G03X2479640Y2786940I39068J-39311D01*
G02X2473530Y2768670I-6115J-8112D01*
G01X2392470D01*
G02X2386360Y2786940I5J10158D01*
G37*
G36*
G01X2028270Y3780710D02*
Y4072480D01*
G02X2046120Y4115560I60928J-7D01*
G01X2114540Y4183980D01*
G03X2122690Y4192880I-98393J98283D01*
G02X2140630Y4186340I7780J-6535D01*
G01Y3943720D01*
G03X2181360Y3845380I139072J-5D01*
G01X2198980Y3827760D01*
G02X2211330Y3809980I-43070J-43096D01*
G02X2196140Y3797520I-9242J-4222D01*
G03X2046570Y3774620I-63138J-87521D01*
G02X2028270Y3780710I-8139J6083D01*
G37*
G36*
G01X2155270Y4435160D02*
Y5164680D01*
G02X2173120Y5207760I60928J-7D01*
G01X2211870Y5246520D01*
G02X2226730Y5245990I7183J-7185D01*
G03X2269930Y5226900I41865J36313D01*
G02X2280330Y5216740I239J-10158D01*
G01Y4561720D01*
G02X2262480Y4518640I-60928J7D01*
G01X2181360Y4437520D01*
G03X2173210Y4428620I98393J-98283D01*
G02X2155270Y4435160I-7780J6535D01*
G37*
G36*
G01X1955590Y4914160D02*
X1972300Y4930900D01*
X1951100Y4953690D01*
X1929900Y4930900D01*
X1946610Y4914160D01*
G03X1955590I4490J4490D01*
G37*
G36*
G01X1875590Y4962910D02*
X1896100Y4983440D01*
X1875060Y5006230D01*
X1852810Y4984550D01*
X1865730Y4964020D01*
G03X1875590Y4962910I5373J3381D01*
G37*
G36*
G01X2141100Y5305570D02*
G03X2129870Y5321610I-50302J-23266D01*
G01Y5583780D01*
G02X2147720Y5626860I60928J-7D01*
G01X2161390Y5640530D01*
G02X2178730Y5633350I7182J-7184D01*
G01Y5349120D01*
G02X2160880Y5306040I-60928J7D01*
G01X2157500Y5302650D01*
G02X2141100Y5305570I-7180J7188D01*
G37*
G36*
G01X2024840Y5126010D02*
X2024850Y5106640D01*
X2053820Y5103380D01*
X2050560Y5132350D01*
X2031190Y5132360D01*
G03X2024840Y5126010I0J-6350D01*
G37*
G36*
G01X1863950Y5074500D02*
X1887600D01*
X1888720Y5105620D01*
X1857600Y5104500D01*
Y5080850D01*
G03X1863950Y5074500I6350J0D01*
G37*
G36*
G01X2264110Y5320240D02*
X2247400Y5303500D01*
X2268600Y5280710D01*
X2289800Y5303500D01*
X2273090Y5320240D01*
G03X2264110I-4490J-4490D01*
G37*
G36*
G01X1836960Y5214310D02*
X1853700Y5197600D01*
X1876490Y5218800D01*
X1853700Y5240000D01*
X1836960Y5223290D01*
G03Y5214310I4490J-4490D01*
G37*
G36*
G01X2086310Y5320240D02*
X2069600Y5303500D01*
X2090800Y5280710D01*
X2112000Y5303500D01*
X2095290Y5320240D01*
G03X2086310I-4490J-4490D01*
G37*
G36*
G01X1726390Y5063940D02*
X1745760Y5063950D01*
X1749020Y5092920D01*
X1720050Y5089660D01*
X1720040Y5070290D01*
G03X1726390Y5063940I6350J0D01*
G37*
G36*
G01X1773460Y5150810D02*
X1790200Y5134100D01*
X1812990Y5155300D01*
X1790200Y5176500D01*
X1773460Y5159790D01*
G03Y5150810I4490J-4490D01*
G37*
G36*
G01X2184190Y12737360D02*
X2200900Y12754100D01*
X2179700Y12776890D01*
X2158500Y12754100D01*
X2175210Y12737360D01*
G03X2184190I4490J4490D01*
G37*
G36*
G01X3182030Y13248540D02*
Y12684210D01*
G02X3168070Y12650530I-47638J12D01*
G03X3131230Y12561590I88942J-88940D01*
G01Y12459330D01*
G03X3137340Y12424210I104099J19D01*
G02X3128730Y12410660I-9565J-3433D01*
G03X3155260Y12304330I5217J-55173D01*
G02X3169330Y12294950I3911J-9377D01*
G01Y11570330D01*
G03X3199830Y11496720I104099J9D01*
G02X3207430Y11478370I-18361J-18353D01*
G01Y11472720D01*
X3201970D01*
X3201600Y11472770D01*
G03X3173050Y11377340I-7398J-49772D01*
G02X3176900Y11362020I-4270J-9217D01*
G03X3149080Y11278710I110832J-83310D01*
G01Y11240700D01*
G02X3144020Y11235620I-5080J0D01*
G03X3143480Y11235610I662J-50311D01*
G02X3133170Y11245770I-149J10160D01*
G01Y11385140D01*
G03X3092440Y11483480I-139072J5D01*
G01X2861460Y11714460D01*
G02X2843610Y11757540I43078J43087D01*
G01Y12031190D01*
G02X2856370Y12041010I10159J0D01*
G03X2909650Y12133890I14213J53568D01*
G01Y12959940D01*
G03X2868920Y13058280I-139072J5D01*
G01X2051720Y13875480D01*
G02X2034570Y13909380I43081J43083D01*
G03X2085710Y13957490I-39774J93515D01*
G02X2103890I9090J-4537D01*
G03X2285710I90910J45410D01*
G02X2303890I9090J-4537D01*
G03X2324200Y13929810I90908J45412D01*
G01X2324230Y13929780D01*
X2349380Y13904620D01*
Y13897020D01*
G03X2391970Y13794190I145422J-4D01*
G01X2880990Y13305170D01*
G03X2983820Y13262580I102826J102832D01*
G01X3112440D01*
G03X3167580Y13257750I31760J45419D01*
G02X3182030Y13248540I4291J-9208D01*
G37*
G36*
G01X2085710Y14048310D02*
G03X2040210Y14093810I-90910J-45410D01*
G02Y14111990I4537J9090D01*
G03X2085710Y14157490I-45410J90910D01*
G02X2103890I9090J-4537D01*
G03X2149390Y14111990I90910J45410D01*
G02Y14093810I-4537J-9090D01*
G03X2103890Y14048310I45410J-90910D01*
G02X2085710I-9090J4537D01*
G37*
G36*
G01X1885710D02*
G03X1840210Y14093810I-90910J-45410D01*
G02Y14111990I4537J9090D01*
G03X1885710Y14157490I-45410J90910D01*
G02X1903890I9090J-4537D01*
G03X1949390Y14111990I90910J45410D01*
G02Y14093810I-4537J-9090D01*
G03X1903890Y14048310I45410J-90910D01*
G02X1885710I-9090J4537D01*
G37*
G36*
G01X1999290Y13914070D02*
X2034230Y13949030D01*
X1994800Y14004490D01*
X1955370Y13949030D01*
X1990310Y13914070D01*
G03X1999290I4490J4490D01*
G37*
G36*
G01X1799290Y13918490D02*
X1829810Y13949030D01*
X1794800Y14004490D01*
X1759790Y13949030D01*
X1790310Y13918490D01*
G03X1799290I4490J4490D01*
G37*
G36*
G01X2395060Y2521910D02*
X2411800Y2505200D01*
X2434590Y2526400D01*
X2411800Y2547600D01*
X2395060Y2530890D01*
G03Y2521910I4490J-4490D01*
G37*
G36*
G01X2629640Y2872780D02*
G03X2567000Y2880140I-36638J-41581D01*
G02X2552070Y2889110I-4770J8971D01*
G01Y3038180D01*
X2523570Y3066680D01*
Y3294220D01*
G02X2536720Y3303930I10161J-2D01*
G03X2589070Y3314820I16288J52972D01*
G02X2595790Y3314730I3309J-3853D01*
G03X2596930Y3397880I37209J41073D01*
G02X2590210Y3397970I-3309J3853D01*
G03X2571040Y3409300I-37208J-41072D01*
G02X2567160Y3426090I3303J9607D01*
G01X2639250Y3498180D01*
G02X2682330Y3516030I43087J-43078D01*
G01X2722480D01*
G03X2820820Y3556760I5J139072D01*
G01X2968430Y3704380D01*
G02X2985720Y3698300I7188J-7183D01*
G03X3056600Y3608400I107284J11694D01*
G02X3055940Y3589070I-3434J-9559D01*
G03X2997500Y3554760I36708J-129449D01*
G01X2754660Y3311920D01*
G03X2713930Y3213580I98342J-98335D01*
G01Y2889110D01*
G02X2699000Y2880140I-10160J1D01*
G03X2636360Y2872780I-26002J-48941D01*
G02X2629640I-3360J3810D01*
G37*
G36*
G01X2792070Y3077570D02*
Y3213580D01*
G02X2809920Y3256660I60928J-7D01*
G01X3052760Y3499500D01*
G02X3082380Y3515090I39900J-39875D01*
G01X3085010Y3515570D01*
X3090490Y3510090D01*
X3057660Y3477270D01*
G03X3016930Y3378930I98342J-98335D01*
G01Y3311520D01*
G02X2999080Y3268440I-60928J7D01*
G01X2834660Y3104020D01*
G03X2811130Y3072680I98341J-98337D01*
G02X2792070Y3077570I-8902J4895D01*
G37*
G36*
G01X2828510Y2869140D02*
X2811800Y2852400D01*
X2833000Y2829610D01*
X2854200Y2852400D01*
X2837490Y2869140D01*
G03X2828510I-4490J-4490D01*
G37*
G36*
G01X2677490Y2793260D02*
X2694200Y2810000D01*
X2673000Y2832790D01*
X2651800Y2810000D01*
X2668510Y2793260D01*
G03X2677490I4490J4490D01*
G37*
G36*
G01X2748510Y2869140D02*
X2731800Y2852400D01*
X2753000Y2829610D01*
X2774200Y2852400D01*
X2757490Y2869140D01*
G03X2748510I-4490J-4490D01*
G37*
G36*
G01X2348510D02*
X2331800Y2852400D01*
X2353000Y2829610D01*
X2374200Y2852400D01*
X2357490Y2869140D01*
G03X2348510I-4490J-4490D01*
G37*
G36*
G01X2508510D02*
X2491800Y2852400D01*
X2513000Y2829610D01*
X2534200Y2852400D01*
X2517490Y2869140D01*
G03X2508510I-4490J-4490D01*
G37*
G36*
G01X2812950Y5134500D02*
X2789300D01*
X2788180Y5103380D01*
X2819300Y5104500D01*
Y5128150D01*
G03X2812950Y5134500I-6350J0D01*
G37*
G36*
G01X2749450Y5185300D02*
X2725800D01*
X2724680Y5154180D01*
X2755800Y5155300D01*
Y5178950D01*
G03X2749450Y5185300I-6350J0D01*
G37*
G36*
G01X2505410Y5193240D02*
X2488700Y5176500D01*
X2509900Y5153710D01*
X2531100Y5176500D01*
X2514390Y5193240D01*
G03X2505410I-4490J-4490D01*
G37*
G36*
G01X2530810Y5320240D02*
X2514100Y5303500D01*
X2535300Y5280710D01*
X2556500Y5303500D01*
X2539790Y5320240D01*
G03X2530810I-4490J-4490D01*
G37*
G36*
G01X2476070Y6090250D02*
Y7758780D01*
G02X2493920Y7801860I60928J-7D01*
G01X2601590Y7909530D01*
G02X2618930Y7902350I7182J-7184D01*
G01Y6233820D01*
G02X2601080Y6190740I-60928J7D01*
G01X2493410Y6083070D01*
G02X2476070Y6090250I-7182J7184D01*
G37*
G36*
G01X2714410Y6265970D02*
G02X2697070Y6273150I-7182J7184D01*
G01Y7928980D01*
G02X2714920Y7972060I60928J-7D01*
G01X3691590Y8948730D01*
G03X3696290Y8953670I-98376J98302D01*
G02X3705130Y8950260I3761J-3414D01*
G01Y8858340D01*
G02X3692170Y8848570I-10160J-4D01*
G03Y8751830I-13870J-48370D01*
G02X3705130Y8742060I2800J-9766D01*
G01Y8612880D01*
G02X3687280Y8569800I-60928J7D01*
G01X2994160Y7876680D01*
G03X2953430Y7778340I98342J-98335D01*
G01Y6781560D01*
G02X2941170Y6771620I-10160J0D01*
G03X2910920Y6665260I-11467J-54220D01*
G02X2917450Y6653780I-3445J-9557D01*
G03X2917270Y6651860I9980J-1904D01*
G01Y6493350D01*
G03X2920250Y6486170I10157J7D01*
G02Y6471800I-7185J-7185D01*
G01X2714410Y6265970D01*
G37*
G36*
G01X2403780Y13904120D02*
X2448670Y13949030D01*
X2394800Y14006080D01*
X2340930Y13949030D01*
X2385820Y13904120D01*
G03X2403780I8980J8980D01*
G37*
G36*
G01X2835180Y14596050D02*
X2811540Y14582450D01*
X2813850Y14551960D01*
X2844700Y14553300D01*
Y14590550D01*
G03X2835180Y14596050I-6349J0D01*
G37*
G36*
G01X3911230Y6032660D02*
G03Y5935340I-26530J-48660D01*
G02X3926250Y5926420I4861J-8920D01*
G01Y5758980D01*
G02X3911230Y5750060I-10159J0D01*
G03Y5652740I-26530J-48660D01*
G02X3926250Y5643820I4861J-8920D01*
G01Y4429640D01*
G02X3908400Y4386560I-60928J7D01*
G01X3218080Y3696230D01*
G02X3200750Y3703980I-7185J7185D01*
G03X3104700Y3817280I-107750J6018D01*
G02X3098620Y3834570I1103J10102D01*
G01X3723940Y4459880D01*
G03X3764670Y4558220I-98342J98335D01*
G01Y5948580D01*
G02X3782520Y5991660I60928J-7D01*
G01X3911890Y6121040D01*
G02X3929030Y6111830I7184J-7185D01*
G03X3926250Y6084160I136290J-27668D01*
G01Y6041580D01*
G02X3911230Y6032660I-10159J0D01*
G37*
G36*
G01X2876450Y5071000D02*
X2852800D01*
X2851680Y5039880D01*
X2882800Y5041000D01*
Y5064650D01*
G03X2876450Y5071000I-6350J0D01*
G37*
G36*
G01X3285570Y6417150D02*
Y6421980D01*
G02X3303420Y6465060I60928J-7D01*
G01X3492470Y6654110D01*
G03X3533200Y6752450I-98342J98335D01*
G01Y7208160D01*
G02X3551050Y7251240I60928J-7D01*
G01X3633430Y7333620D01*
G03X3674160Y7431960I-98342J98335D01*
G01Y7891680D01*
G02X3677620Y7911920I60930J0D01*
G01X3678810Y7915310D01*
X3687490D01*
Y7230600D01*
G02X3672040Y7221920I-10161J-4D01*
G03Y7127280I-28840J-47320D01*
G02X3687490Y7118600I5289J-8676D01*
G01Y6819780D01*
G02X3669640Y6776700I-60928J7D01*
G01X3302910Y6409970D01*
G02X3285570Y6417150I-7182J7184D01*
G37*
G36*
G01X3452880Y9617150D02*
Y9545760D01*
G02X3442970Y9535600I-10161J-2D01*
G03X3402600Y9513610I1227J-50303D01*
G02X3385800I-8400J5716D01*
G03X3372510Y9526900I-41600J-28310D01*
G02Y9543700I5716J8400D01*
G03Y9626900I-28310J41600D01*
G02Y9643700I5716J8400D01*
G03X3385800Y9656990I-28310J41600D01*
G02X3402600I8400J-5716D01*
G03X3443320Y9634990I41599J28311D01*
G02X3453240Y9623710I-177J-10158D01*
G03X3452880Y9617150I59111J-6534D01*
G37*
G36*
G01X3393220Y10973950D02*
G03X3372510Y11026900I-49022J11352D01*
G02Y11043700I5716J8400D01*
G03X3385800Y11056990I-28310J41600D01*
G02X3402600I8400J-5716D01*
G03X3485800I41600J28310D01*
G02X3502600I8400J-5716D01*
G03X3515890Y11043700I41600J28310D01*
G02Y11026900I-5716J-8400D01*
G03Y10943700I28310J-41600D01*
G02Y10926900I-5716J-8400D01*
G03X3502600Y10913610I28310J-41600D01*
G02X3485800I-8400J5716D01*
G03X3449400Y10935350I-41600J-28310D01*
G03X3396540Y10968000I-97666J-99006D01*
G02X3393220Y10973950I1630J4811D01*
G37*
G36*
G01X3408680Y11216530D02*
G02X3414550Y11189830I-29986J-20588D01*
G01X3445290Y11184140D01*
X3441590Y11215180D01*
G02X3415320Y11222750I-3773J36275D01*
G03X3408680Y11216530I-292J-6343D01*
G37*
G36*
G01X3314200Y11008950D02*
Y10985300D01*
X3345320Y10984180D01*
X3344200Y11015300D01*
X3320550D01*
G03X3314200Y11008950I0J-6350D01*
G37*
G36*
G01X3308680Y11216530D02*
G02X3314550Y11189830I-29986J-20588D01*
G01X3345290Y11184140D01*
X3341590Y11215180D01*
G02X3315320Y11222750I-3773J36275D01*
G03X3308680Y11216530I-292J-6343D01*
G37*
G36*
G01X3387770Y12640540D02*
Y12598280D01*
G03X3428500Y12499940I139072J-5D01*
G01X3443580Y12484860D01*
G02X3461430Y12441780I-43078J-43087D01*
G01Y11597520D01*
G02X3443580Y11554440I-60928J7D01*
G01X3398110Y11508970D01*
G03X3386060Y11495210I98373J-98304D01*
G02X3378910Y11494280I-4037J3087D01*
G03X3364490Y11502080I-30831J-39769D01*
G02X3359110Y11516960I3304J9607D01*
G03X3374470Y11571780I-90189J54832D01*
G01Y11622640D01*
G02X3384890Y11632800I10161J3D01*
G03Y11733400I1310J50300D01*
G02X3374470Y11743560I-259J10157D01*
G01Y12543380D01*
G03X3346040Y12627640I-139071J3D01*
G02X3353190Y12643910I8080J6155D01*
G03X3373040Y12649610I-5103J55186D01*
G02X3387770Y12640540I4570J-9074D01*
G37*
G36*
G01X3263510Y11542450D02*
G03X3255070Y11551980I-82006J-64124D01*
G02X3247470Y11570330I18361J18353D01*
G01Y11628970D01*
G02X3262160Y11638060I10160J-3D01*
G03X3285910Y11632800I22433J45042D01*
G02X3296330Y11622640I259J-10157D01*
G01Y11571780D01*
G02X3288300Y11552410I-27408J13D01*
G01X3288290Y11552400D01*
G03X3279540Y11542470I74663J-74611D01*
G02X3263510Y11542450I-8023J6231D01*
G37*
G36*
G01X3262160Y11728140D02*
G02X3247470Y11737230I-4530J9093D01*
G01Y12367370D01*
G03X3230140Y12424880I-104101J-3D01*
G02X3237860Y12440630I8465J5618D01*
G03X3278060Y12462540I-4054J55273D01*
G02X3296330Y12456430I8112J-6115D01*
G01Y11743560D01*
G02X3285910Y11733400I-10161J-3D01*
G03X3262160Y11728140I-1317J-50302D01*
G37*
G36*
G01X2866090Y12132520D02*
X2849380Y12115780D01*
X2870580Y12092990D01*
X2891780Y12115780D01*
X2875070Y12132520D01*
G03X2866090I-4490J-4490D01*
G37*
G36*
G01X3231100Y13436720D02*
G02X3254730Y13434340I8847J-30657D01*
G01X3273360Y13459550D01*
X3242300Y13463730D01*
G02X3227560Y13445100I-30546J9022D01*
G03X3231100Y13436720I5852J-2466D01*
G37*
G36*
G01X3110750Y13299020D02*
X3123000Y13286790D01*
X3147380Y13308000D01*
X3123000Y13329210D01*
X3110750Y13316980D01*
G03Y13299020I8980J-8980D01*
G37*
G36*
G01X3301900Y13526350D02*
Y13550000D01*
X3270780Y13551120D01*
X3271900Y13520000D01*
X3295550D01*
G03X3301900Y13526350I0J6350D01*
G37*
G36*
G01X2984390Y14728070D02*
X3008030Y14739880D01*
X3006080Y14770520D01*
X2975200Y14769200D01*
Y14733750D01*
G03X2984390Y14728070I6350J0D01*
G37*
G36*
G01X3782970Y6836690D02*
G02X3765630Y6843870I-7182J7184D01*
G01Y7198100D01*
G02X3776550Y7208240I10161J7D01*
G03Y7318760I4150J55260D01*
G02X3765630Y7328900I-759J10133D01*
G01Y7586080D01*
G02X3780310Y7595180I10159J3D01*
G03Y7694420I24690J49620D01*
G02X3765630Y7703520I-4521J9097D01*
G01Y7920580D01*
G02X3783480Y7963660I60928J-7D01*
G01X3997810Y8177990D01*
G02X4015150Y8170810I7182J-7184D01*
G01Y7609720D01*
G02X3997300Y7566640I-60928J7D01*
G01X3989410Y7558750D01*
X3982650Y7565500D01*
X3985400Y7569040D01*
G03X3953030Y7548770I-43798J33961D01*
G02X3962310Y7531650I2096J-9939D01*
G01X3947930Y7517270D01*
G03X3907200Y7418930I98342J-98335D01*
G01Y6986150D01*
G02X3889350Y6943070I-60928J7D01*
G01X3782970Y6836690D01*
G37*
G36*
G01X3461640Y7457710D02*
G02X3444300Y7464890I-7182J7184D01*
G01Y7985330D01*
G02X3462150Y8028410I60928J-7D01*
G01X3581270Y8147540D01*
G02X3598440Y8142240I7185J-7185D01*
G03X3659340Y8097460I54459J10262D01*
G02X3667710Y8080180I1186J-10092D01*
G01X3584780Y7997260D01*
G03X3544050Y7898920I98342J-98335D01*
G01Y7565350D01*
G02X3526200Y7522270I-60928J7D01*
G01X3461640Y7457710D01*
G37*
G36*
G01X3707940Y8146060D02*
G03X3663160Y8206960I-55042J6441D01*
G02X3657860Y8224130I1885J9985D01*
G01X3867140Y8433400D01*
G03X3907870Y8531740I-98342J98335D01*
G01Y8844690D01*
G03X3860840Y8926090I-39070J31713D01*
G02X3849070Y8936120I-1611J10030D01*
G01Y9057830D01*
G02X3866920Y9100910I60928J-7D01*
G01X3890290Y9124280D01*
G03X3931020Y9222620I-98342J98335D01*
G01Y9568430D01*
G02X3939690Y9572020I5080J-4D01*
G01X3941910Y9569800D01*
X3996200D01*
X3997480Y9566610D01*
G03X4048200Y9535140I46720J18690D01*
G02X4058950Y9522960I801J-10127D01*
G03X4056080Y9494830I136202J-28108D01*
G01Y9464980D01*
G03X4058200Y9448160I67800J2D01*
G02X4047660Y9435500I-9842J-2524D01*
G03X4015890Y9343700I-3459J-50200D01*
G02Y9326900I-5716J-8400D01*
G03X4005130Y9253590I28311J-41600D01*
G01Y9062700D01*
G02X3992980Y9052740I-10160J3D01*
G03Y8954060I-9880J-49340D01*
G02X4005130Y8944100I1990J-9963D01*
G01Y8442840D01*
G02X3987280Y8399760I-60928J7D01*
G01X3725220Y8137690D01*
G02X3707940Y8146060I-7188J7184D01*
G37*
G36*
G01X3873290Y8838460D02*
X3890000Y8855200D01*
X3868800Y8877990D01*
X3847600Y8855200D01*
X3864310Y8838460D01*
G03X3873290I4490J4490D01*
G37*
G36*
G01X3631020Y9030330D02*
Y9324900D01*
G02X3641690Y9335040I10159J-6D01*
G03X3646940Y9335050I2529J50260D01*
G02X3657410Y9322730I548J-10143D01*
G03X3654180Y9292930I135840J-29799D01*
G01Y9047070D01*
G02X3650770Y9026980I-60929J8D01*
G02X3631020Y9030330I-9591J3349D01*
G37*
G36*
G01X3720550Y9455300D02*
X3744200D01*
X3745320Y9486420D01*
X3714200Y9485300D01*
Y9461650D01*
G03X3720550Y9455300I6350J0D01*
G37*
G36*
G01X3722540Y9357290D02*
X3742210Y9357300D01*
X3745320Y9386420D01*
X3716200Y9383310D01*
X3716190Y9363640D01*
G03X3722540Y9357290I6350J0D01*
G37*
G36*
G01X3748690Y9247360D02*
X3765400Y9264100D01*
X3744200Y9286890D01*
X3723000Y9264100D01*
X3739710Y9247360D01*
G03X3748690I4490J4490D01*
G37*
G36*
G01X3842970Y9535600D02*
G03X3829650Y9533470I1214J-50303D01*
G03X3795640Y9589120I-132361J-42674D01*
G01X3794280Y9590470D01*
X3794050Y9592160D01*
G03X3772510Y9626900I-49850J-6861D01*
G02Y9643700I5716J8400D01*
G03X3785800Y9656990I-28310J41600D01*
G02X3802600I8400J-5716D01*
G03X3838630Y9635290I41600J28310D01*
G02X3852880Y9596130I-46680J-39159D01*
G01Y9545760D01*
G02X3842970Y9535600I-10161J-2D01*
G37*
G36*
G01X3774200Y9561650D02*
Y9585300D01*
X3743080Y9586420D01*
X3744200Y9555300D01*
X3767850D01*
G03X3774200Y9561650I0J6350D01*
G37*
G36*
G01X3712970Y9649780D02*
G02X3739670Y9655650I20588J-29986D01*
G01X3745360Y9686390D01*
X3714320Y9682690D01*
G02X3706750Y9656420I-36275J-3773D01*
G03X3712970Y9649780I6343J-292D01*
G37*
G36*
G01X3879720Y9654070D02*
G02X3873850Y9680770I29986J20588D01*
G01X3843110Y9686460D01*
X3846810Y9655420D01*
G02X3873080Y9647850I3773J-36275D01*
G03X3879720Y9654070I292J6343D01*
G37*
G36*
G01X3631520Y11245730D02*
Y11508340D01*
G02X3641430Y11518500I10161J2D01*
G03X3642300Y11518520I-721J50314D01*
G02X3652880Y11508370I422J-10150D01*
G01Y11245760D01*
G02X3642970Y11235600I-10161J-2D01*
G03X3642100Y11235580I721J-50314D01*
G02X3631520Y11245730I-422J10150D01*
G37*
G36*
G01X3873510Y11122450D02*
G02X3847130Y11115150I-22187J28862D01*
G01X3843100Y11084150D01*
X3873900Y11089490D01*
G02X3880080Y11116140I35905J5715D01*
G03X3873510Y11122450I-6351J-38D01*
G37*
G36*
G01X3773210Y11022660D02*
G02X3746910Y11015170I-22414J28784D01*
G01X3743110Y10984150D01*
X3773860Y10989720D01*
G02X3779830Y11016410I35898J5983D01*
G03X3773210Y11022660I-6348J-93D01*
G37*
G36*
G01X3673080Y11122750D02*
G02X3646810Y11115180I-22497J28705D01*
G01X3643110Y11084140D01*
X3673850Y11089830D01*
G02X3679720Y11116530I35856J6112D01*
G03X3673080Y11122750I-6348J-123D01*
G37*
G36*
G01X3573180Y11022680D02*
G02X3546890Y11015170I-22429J28746D01*
G01X3543110Y10984140D01*
X3573860Y10989750D01*
G02X3579810Y11016440I35903J6004D01*
G03X3573180Y11022680I-6348J-103D01*
G37*
G36*
G01X3473190Y11122670D02*
G02X3446900Y11115170I-22407J28715D01*
G01X3443110Y11084150D01*
X3473860Y11089740D01*
G02X3479810Y11116430I35903J6004D01*
G03X3473190Y11122670I-6348J-103D01*
G37*
G36*
G01X3416100Y10907050D02*
X3416110Y10887200D01*
X3445320Y10884180D01*
X3442300Y10913390D01*
X3422450Y10913400D01*
G03X3416100Y10907050I0J-6350D01*
G37*
G36*
G01X3635710Y11606740D02*
X3619000Y11590000D01*
X3640200Y11567210D01*
X3661400Y11590000D01*
X3644690Y11606740D01*
G03X3635710I-4490J-4490D01*
G37*
G36*
G01X3717850Y12335400D02*
X3694200D01*
X3693080Y12304280D01*
X3724200Y12305400D01*
Y12329050D01*
G03X3717850Y12335400I-6350J0D01*
G37*
G36*
G01X3931330Y12473820D02*
G02X3913480Y12430740I-60928J7D01*
G01X3887090Y12404340D01*
X3881840Y12409590D01*
X3882030Y12411930D01*
G03X3882470Y12423020I-138631J11054D01*
G01Y13191020D01*
G02X3892670Y13201180I10160J1D01*
G03X3916790Y13206590I236J55421D01*
G02X3931330Y13197430I4381J-9165D01*
G01Y12473820D01*
G37*
G36*
G01X3974890Y13258060D02*
X3991600Y13274800D01*
X3970400Y13297590D01*
X3949200Y13274800D01*
X3965910Y13258060D01*
G03X3974890I4490J4490D01*
G37*
G36*
G01X3785980Y13418220D02*
G02X3808830Y13431320I27661J-21771D01*
G01X3806090Y13462480D01*
X3777830Y13449060D01*
G02X3778100Y13422730I-32335J-13498D01*
G03X3785980Y13418220I6147J1601D01*
G37*
G36*
G01X3525370Y13396270D02*
G02X3550880Y13405710I24405J-26762D01*
G01X3552300Y13436940D01*
X3522090Y13428900D01*
G02X3518300Y13401970I-35165J-8783D01*
G03X3525370Y13396270I6322J607D01*
G37*
G36*
G01X3912820Y13544960D02*
X3922130Y13569100D01*
X3899220Y13589660D01*
X3878300Y13566890D01*
X3902410Y13542760D01*
G03X3912820Y13544960I4488J4491D01*
G37*
G36*
G01X3841230Y13638700D02*
G02X3866210Y13647120I22883J-26624D01*
G01X3869850Y13678190D01*
X3839500Y13670590D01*
G02X3834370Y13644730I-34506J-6594D01*
G03X3841230Y13638700I6342J298D01*
G37*
G36*
G01X3479590Y13512060D02*
X3496300Y13528800D01*
X3475100Y13551590D01*
X3453900Y13528800D01*
X3470610Y13512060D01*
G03X3479590I4490J4490D01*
G37*
G36*
G01X4202070Y8375930D02*
G02X4184730Y8383110I-7182J7184D01*
G01Y8436350D01*
X4184220Y8436860D01*
Y8669210D01*
X4184730Y8669720D01*
Y8900530D01*
G02X4194730Y8910690I10161J0D01*
G03X4235380Y8932470I-797J50312D01*
G02X4253910Y8926710I8370J-5759D01*
G01Y8663820D01*
G03X4294640Y8565480I139072J-5D01*
G01X4326020Y8534110D01*
G02X4323880Y8518100I-7183J-7188D01*
G03X4296010Y8471800I27519J-48103D01*
G01X4295940Y8469800D01*
X4202070Y8375930D01*
G37*
G36*
G01X4327750Y8440000D02*
X4351400D01*
X4352520Y8471120D01*
X4321400Y8470000D01*
Y8446350D01*
G03X4327750Y8440000I6350J0D01*
G37*
G36*
G01X4274200Y9348570D02*
Y9385300D01*
X4243340Y9386630D01*
X4241130Y9356100D01*
X4264780Y9343010D01*
G03X4274200Y9348570I3069J5560D01*
G37*
G36*
G01X4166410Y9513860D02*
X4145640Y9513850D01*
X4143080Y9484180D01*
X4172750Y9486740D01*
X4172760Y9507510D01*
G03X4166410Y9513860I-6350J0D01*
G37*
G36*
G01X4265200Y9443560D02*
G02X4268770Y9468100I32199J7845D01*
G01X4243630Y9486780D01*
X4237570Y9456050D01*
G02X4256710Y9440280I-9969J-31599D01*
G03X4265200Y9443560I2649J5770D01*
G37*
G36*
G01X4122540Y9357290D02*
X4142210Y9357300D01*
X4145320Y9386420D01*
X4116200Y9383310D01*
X4116190Y9363640D01*
G03X4122540Y9357290I6350J0D01*
G37*
G36*
G01X4048690Y9247360D02*
X4065400Y9264100D01*
X4044200Y9286890D01*
X4023000Y9264100D01*
X4039710Y9247360D01*
G03X4048690I4490J4490D01*
G37*
G36*
G01X4275140Y10021080D02*
G02X4248480Y10014980I-20843J29785D01*
G01X4243050Y9984200D01*
X4274050Y9988150D01*
G02X4281430Y10014490I36122J4083D01*
G03X4275140Y10021080I-6347J239D01*
G37*
G36*
G01X4115060Y9548030D02*
G02X4141390Y9555440I22304J-28769D01*
G01X4145290Y9586450D01*
X4114520Y9580980D01*
G02X4108460Y9554310I-35880J-5871D01*
G03X4115060Y9548030I6351J67D01*
G37*
G36*
G01X4575290Y11224860D02*
G03X4541690Y11235560I-31101J-39557D01*
G02X4531020Y11245700I-511J10146D01*
G01Y11337730D01*
G02X4548870Y11380810I60928J-7D01*
G01X4574870Y11406810D01*
G02X4592180Y11398810I7183J-7184D01*
G03X4591730Y11387680I138619J-11179D01*
G01Y11232850D01*
G02X4575290Y11224860I-10161J0D01*
G37*
G36*
G01X4135520Y11240580D02*
Y11876790D01*
X4136470Y11877740D01*
Y12162380D01*
G02X4154320Y12205460I60928J-7D01*
G01X4162910Y12214050D01*
X4169080Y12207880D01*
X4167450Y12204600D01*
G03X4152880Y12142630I124500J-61970D01*
G01Y11245760D01*
G02X4142970Y11235600I-10161J-2D01*
G03X4140930Y11235510I1197J-50303D01*
G02X4135520Y11240580I-329J5070D01*
G37*
G36*
G01X4473080Y11022750D02*
G02X4446810Y11015180I-22497J28705D01*
G01X4443110Y10984140D01*
X4473850Y10989830D01*
G02X4479720Y11016530I35856J6112D01*
G03X4473080Y11022750I-6348J-123D01*
G37*
G36*
G01X4439710Y11223240D02*
X4423000Y11206500D01*
X4444200Y11183710D01*
X4465400Y11206500D01*
X4448690Y11223240D01*
G03X4439710I-4490J-4490D01*
G37*
G36*
G01X4273080Y11022750D02*
G02X4246810Y11015180I-22497J28705D01*
G01X4243110Y10984140D01*
X4273850Y10989830D01*
G02X4279720Y11016530I35856J6112D01*
G03X4273080Y11022750I-6348J-123D01*
G37*
G36*
G01X4173080Y11122750D02*
G02X4146810Y11115180I-22497J28705D01*
G01X4143110Y11084140D01*
X4173850Y11089830D01*
G02X4179720Y11116530I35856J6112D01*
G03X4173080Y11122750I-6348J-123D01*
G37*
G36*
G01X4067160Y11114610D02*
X4044890Y11114600D01*
X4043080Y11084180D01*
X4073500Y11085990D01*
X4073510Y11108260D01*
G03X4067160Y11114610I-6350J0D01*
G37*
G36*
G01X4567850Y11115300D02*
X4544200D01*
X4543080Y11084180D01*
X4574200Y11085300D01*
Y11108950D01*
G03X4567850Y11115300I-6350J0D01*
G37*
G36*
G01X4381400Y13158050D02*
Y13181700D01*
X4350280Y13182820D01*
X4351400Y13151700D01*
X4375050D01*
G03X4381400Y13158050I0J6350D01*
G37*
G36*
G01X4139990Y13207260D02*
X4156700Y13224000D01*
X4135500Y13246790D01*
X4114300Y13224000D01*
X4131010Y13207260D01*
G03X4139990I4490J4490D01*
G37*
G36*
G01X4667550Y9615000D02*
X4644500Y9614990D01*
X4643080Y9584180D01*
X4673890Y9585600D01*
X4673900Y9608650D01*
G03X4667550Y9615000I-6350J0D01*
G37*
G36*
G01X4735910Y9745750D02*
Y9824850D01*
G02X4745760Y9835000I10158J-4D01*
G03X4785800Y9856990I-1565J50297D01*
G02X4802600I8400J-5716D01*
G03X4815890Y9843700I41600J28310D01*
G02Y9826900I-5716J-8400D01*
G03Y9743700I28310J-41600D01*
G02Y9726900I-5716J-8400D01*
G03X4802600Y9713610I28310J-41600D01*
G02X4785800I-8400J5716D01*
G03X4745760Y9735600I-41605J-28307D01*
G02X4735910Y9745750I308J10154D01*
G37*
G36*
G01X4733370Y10975220D02*
Y11124820D01*
G02X4743640Y11134980I10159J2D01*
G03X4782880Y11153120I552J50317D01*
G02X4799070Y11152370I7811J-6501D01*
G03X4811270Y11139920I41498J28462D01*
G02X4811890Y11123870I-5908J-8265D01*
G03X4815890Y11043700I32312J-38573D01*
G02Y11026900I-5716J-8400D01*
G03Y10943700I28310J-41600D01*
G02Y10926900I-5716J-8400D01*
G03X4802600Y10913610I28310J-41600D01*
G02X4785800I-8400J5716D01*
G03X4741180Y10935530I-41601J-28309D01*
G02X4730620Y10947680I-603J10140D01*
G03X4733370Y10975220I-136322J27520D01*
G37*
G36*
G01X4867850Y10915300D02*
X4844200D01*
X4843080Y10884180D01*
X4874200Y10885300D01*
Y10908950D01*
G03X4867850Y10915300I-6350J0D01*
G37*
G36*
G01X4784170Y11649130D02*
Y12009980D01*
G02X4802020Y12053060I60928J-7D01*
G01X4872900Y12123950D01*
G02X4889810Y12113820I7186J-7183D01*
G03X4883830Y12073480I133090J-40342D01*
G01Y11652620D01*
G02X4867340Y11644670I-10159J-4D01*
G03X4801330Y11641770I-31339J-39370D01*
G02X4784170Y11649130I-7000J7363D01*
G37*
G36*
G01X4895640Y12934210D02*
X4912350Y12950950D01*
X4891150Y12973740D01*
X4869950Y12950950D01*
X4886660Y12934210D01*
G03X4895640I4490J4490D01*
G37*
G36*
G01X5077050Y12948500D02*
X5100700D01*
X5101820Y12979620D01*
X5070700Y12978500D01*
Y12954850D01*
G03X5077050Y12948500I6350J0D01*
G37*
G36*
G01X4641640Y12959610D02*
X4658350Y12976350D01*
X4637150Y12999140D01*
X4615950Y12976350D01*
X4632660Y12959610D01*
G03X4641640I4490J4490D01*
G37*
G36*
G01X5222650Y10872050D02*
Y10895700D01*
X5191530Y10896820D01*
X5192650Y10865700D01*
X5216300D01*
G03X5222650Y10872050I0J6350D01*
G37*
G36*
G01X5511590Y13232660D02*
X5528300Y13249400D01*
X5507100Y13272190D01*
X5485900Y13249400D01*
X5502610Y13232660D01*
G03X5511590I4490J4490D01*
G37*
G36*
G01X5448090Y13321560D02*
X5464800Y13338300D01*
X5443600Y13361090D01*
X5422400Y13338300D01*
X5439110Y13321560D01*
G03X5448090I4490J4490D01*
G37*
G36*
G01X5765590Y13245360D02*
X5782300Y13262100D01*
X5761100Y13284890D01*
X5739900Y13262100D01*
X5756610Y13245360D01*
G03X5765590I4490J4490D01*
G37*
G36*
G01X6491290Y16436690D02*
X6495300Y16466120D01*
X6471880Y16485230D01*
X6451100Y16462490D01*
X6480510Y16433060D01*
G03X6491290Y16436690I4489J4490D01*
G37*
G36*
G01X7219520Y8510350D02*
X7207290Y8498100D01*
X7228500Y8473720D01*
X7249710Y8498100D01*
X7237480Y8510350D01*
G03X7219520I-8980J-8980D01*
G37*
G36*
G01X7175680Y11608370D02*
Y11657980D01*
X7145000Y11659410D01*
X7145680Y11632020D01*
X7169330Y11608370D01*
X7175680D01*
G37*
G36*
G01X7086390Y11695960D02*
X7103100Y11712700D01*
X7081900Y11735490D01*
X7060700Y11712700D01*
X7077410Y11695960D01*
G03X7086390I4490J4490D01*
G37*
G36*
G01X8316750Y6823600D02*
X8293100D01*
X8291980Y6792480D01*
X8323100Y6793600D01*
Y6817250D01*
G03X8316750Y6823600I-6350J0D01*
G37*
G36*
G01X8288610Y6934040D02*
X8271900Y6917300D01*
X8293100Y6894510D01*
X8314300Y6917300D01*
X8297590Y6934040D01*
G03X8288610I-4490J-4490D01*
G37*
G36*
G01X8258290Y7452110D02*
X8258410Y7428460D01*
X8289530Y7427480D01*
X8288260Y7458590D01*
X8264610Y7458490D01*
G03X8258290Y7452110I30J-6350D01*
G37*
G36*
G01X8264330Y7519630D02*
X8287980Y7519750D01*
X8288960Y7550870D01*
X8257850Y7549600D01*
X8257950Y7525950D01*
G03X8264330Y7519630I6350J30D01*
G37*
%LPC*%
G75*
G36*
G01X5245050Y13636530D02*
G03X5237310Y13648340I-9981J1900D01*
G02X5303950Y13692070I12192J54062D01*
G03X5311690Y13680260I9981J-1900D01*
G02X5245050Y13636530I-12192J-54062D01*
G37*
G36*
G01X1744510Y13396530D02*
G03X1731430Y13390630I-3581J-9509D01*
G02X1699130Y13462170I-51811J19669D01*
G03X1712210Y13468070I3581J9509D01*
G02X1744510Y13396530I51811J-19669D01*
G37*
G36*
G01X984740Y12517900D02*
G03X976870Y12506090I2119J-9940D01*
G02X910860Y12550100I-54471J-10192D01*
G03X918730Y12561910I-2119J9940D01*
G02X984740Y12517900I54471J10192D01*
G37*
G36*
G01X7357350Y11666320D02*
G02X7419840Y11712580I7742J54879D01*
G02X7357350Y11666320I-7742J-54879D01*
G37*
G36*
G01X5604110Y11313070D02*
G03X5594270Y11322910I-10157J-317D01*
G02X5651390Y11380030I1730J55390D01*
G03X5661230Y11370190I10157J317D01*
G02X5604110Y11313070I-1730J-55390D01*
G37*
G36*
G01X880380Y11128220D02*
G03X875050Y11132490I-5017J-801D01*
G02X926320Y11196580I-3449J55312D01*
G03X931650Y11192310I5017J801D01*
G02X880380Y11128220I3449J-55312D01*
G37*
G36*
G01X656110Y10830530D02*
G03Y10823710I3768J-3410D01*
G02X574010I-41050J-37230D01*
G03Y10830530I-3768J3410D01*
G02X656110I41050J37230D01*
G37*
G36*
G01X6088520Y10653790D02*
G03X6073990I-7265J-7102D01*
G02Y10731210I-39660J38710D01*
G03X6088520I7265J7102D01*
G02Y10653790I39660J-38710D01*
G37*
G36*
G01X1337580Y10658320D02*
G03X1332250Y10662590I-5017J-801D01*
G02X1383520Y10726680I-3449J55312D01*
G03X1388850Y10722410I5017J801D01*
G02X1337580Y10658320I3449J-55312D01*
G37*
G36*
G01X1007380Y10594820D02*
G03X1002050Y10599090I-5017J-801D01*
G02X1053320Y10663180I-3449J55312D01*
G03X1058650Y10658910I5017J801D01*
G02X1007380Y10594820I3449J-55312D01*
G37*
G36*
G01X5896190Y10528010D02*
G03X5910720I7265J7102D01*
G02X6004890Y10499300I39660J-38710D01*
G03X6017900Y10491430I9993J1831D01*
G02X6073990Y10477210I16429J-52929D01*
G03X6088520I7265J7102D01*
G02Y10399790I39660J-38710D01*
G03X6073990I-7265J-7102D01*
G02X5979820Y10428500I-39660J38710D01*
G03X5966810Y10436370I-9993J-1831D01*
G02X5910720Y10450590I-16429J52929D01*
G03X5896190I-7265J-7102D01*
G02Y10528010I-39660J38710D01*
G37*
G36*
G01X5172510Y10443700D02*
G03Y10426900I5716J-8400D01*
G02X5115890I-28310J-41600D01*
G03Y10443700I-5716J8400D01*
G02X5172510I28310J41600D01*
G37*
G36*
G01X963470Y9913230D02*
G03X958240Y9908960I-214J-5076D01*
G02X905870Y9973170I-54710J8840D01*
G03X911100Y9977440I214J5076D01*
G02X963470Y9913230I54710J-8840D01*
G37*
G36*
G01X719670Y9933690D02*
G03X724900Y9938290I174J5076D01*
G02X778210Y9877730I55179J-5170D01*
G03X772980Y9873130I-174J-5076D01*
G02X719670Y9933690I-55179J5170D01*
G37*
G36*
G01X1658410Y9868420D02*
G03X1658170Y9883910I-6692J7643D01*
G02X1656020Y9967710I35170J42830D01*
G03X1655470Y9983200I-6840J7512D01*
G02X1738520Y10053090I34294J43537D01*
G03X1755390Y10051580I8935J4832D01*
G02X1749940Y9990650I43309J-34583D01*
G03X1733070Y9992160I-8935J-4832D01*
G02X1727080Y9985770I-43302J34589D01*
G03X1727630Y9970280I6840J-7512D01*
G02X1729870Y9885060I-34289J-43541D01*
G03X1730110Y9869570I6692J-7643D01*
G02X1658410Y9868420I-35172J-42830D01*
G37*
G36*
G01X5637500Y9180040D02*
G03X5649310Y9172170I9940J2119D01*
G02X5605300Y9106160I10192J-54471D01*
G03X5593490Y9114030I-9940J-2119D01*
G02X5637500Y9180040I-10192J54471D01*
G37*
G36*
G01X1065100Y8839220D02*
G02X984650Y8837380I-39354J-39021D01*
G02X1065100Y8839220I39354J39021D01*
G37*
G36*
G01X783690Y8620820D02*
G02X758060Y8547250I24410J-49753D01*
G02X783690Y8620820I-24410J49753D01*
G37*
G36*
G01X7948890Y8405890D02*
G03X7934360I-7265J-7102D01*
G02Y8483310I-39660J38710D01*
G03X7948890I7265J7102D01*
G02Y8405890I39660J-38710D01*
G37*
G36*
G01X6408010Y8499110D02*
G02X6381650Y8402770I9992J-54510D01*
G02X6304550Y8482160I-36344J41838D01*
G03Y8495940I-7467J6890D01*
G02X6296770Y8560260I40750J37560D01*
G03X6292840Y8574040I-8894J4914D01*
G02X6368430Y8595640I27062J48362D01*
G03X6372360Y8581860I8894J-4914D01*
G02X6396740Y8512880I-27060J-48362D01*
G03X6408010Y8499110I9433J-3777D01*
G37*
G36*
G01X7078850Y8211170D02*
G03Y8195430I6424J-7870D01*
G02X7008750I-35050J-42930D01*
G03Y8211170I-6424J7870D01*
G02X7078850I35050J42930D01*
G37*
G36*
G01X7815450Y8096870D02*
G03Y8081130I6424J-7870D01*
G02X7745350I-35050J-42930D01*
G03Y8096870I-6424J7870D01*
G02X7815450I35050J42930D01*
G37*
G36*
G01X6522830Y8079190D02*
G03X6523530Y8065340I7763J-6550D01*
G02X6442640Y8061240I-38530J-39838D01*
G03X6441940Y8075090I-7763J6550D01*
G02X6522830Y8079190I38530J39838D01*
G37*
G36*
G01X7396350Y7957170D02*
G03Y7941430I6424J-7870D01*
G02X7326250I-35050J-42930D01*
G03Y7957170I-6424J7870D01*
G02X7396350I35050J42930D01*
G37*
G36*
G01X6438700Y7518310D02*
G03X6442660Y7534290I-3799J9422D01*
G02X6435070Y7594100I42340J35760D01*
G02X6510960Y7619020I25957J48968D01*
G02X6505700Y7518640I-25957J-48968D01*
G03X6501740Y7502660I3799J-9422D01*
G02X6438700Y7518310I-42340J-35760D01*
G37*
G36*
G01X7109950Y7492640D02*
G03Y7478860I7467J-6890D01*
G02X7028450I-40750J-37560D01*
G03Y7492640I-7467J6890D01*
G02X7109950I40750J37560D01*
G37*
G36*
G01X6868650D02*
G03Y7478860I7467J-6890D01*
G02X6787150I-40750J-37560D01*
G03Y7492640I-7467J6890D01*
G02X6868650I40750J37560D01*
G37*
G36*
G01X7097250Y6844940D02*
G03Y6831160I7467J-6890D01*
G02X7015750I-40750J-37560D01*
G03Y6844940I-7467J6890D01*
G02X7097250I40750J37560D01*
G37*
G36*
G01X6475680Y6823630D02*
G03X6475590Y6839370I-6468J7833D01*
G02X6545690Y6839770I34805J43129D01*
G03X6545780Y6824030I6468J-7833D01*
G02X6475680Y6823630I-34805J-43129D01*
G37*
G36*
G01X8649890Y6615800D02*
G03X8665370Y6622830I5440J8579D01*
G02X8684870Y6541510I109130J-16829D01*
G03X8667880Y6540750I-8247J-5934D01*
G02X8649890Y6615800I-47680J28252D01*
G37*
G36*
G01X449390Y3809910D02*
G03X456620I3615J3563D01*
G02Y3732090I39470J-38910D01*
G03X449390I-3615J-3563D01*
G02Y3809910I-39470J38910D01*
G37*
G36*
G01X3279870Y2378030D02*
G03X3279700Y2396570I-4246J9232D01*
G02X3370300I45300J103430D01*
G03X3370130Y2378030I4076J-9308D01*
G02X3279870I-45130J-98030D01*
G37*
G36*
G01X1379870D02*
G03X1379700Y2396570I-4246J9232D01*
G02X1470300I45300J103430D01*
G03X1470130Y2378030I4076J-9308D01*
G02X1379870I-45130J-98030D01*
G37*
G36*
G01X1208970Y10396530D02*
G02X1156100Y10372930I-7173J-54952D01*
G03X1149030Y10388750I-8382J5744D01*
G02X1201900Y10412350I7173J54952D01*
G03X1208970Y10396530I8382J-5744D01*
G37*
G36*
G01X1841250Y10292990D02*
G02X1791680Y10317770I-46246J-30541D01*
G03X1799550Y10333510I-606J10141D01*
G02X1865490Y10415850I46248J30537D01*
G03X1878320Y10429620I3610J9499D01*
G02X2031780Y10415910I80682J37380D01*
G03X2038840Y10400000I8318J-5830D01*
G02X1980300Y10364970I-6840J-54998D01*
G03X1969610Y10378720I-9477J3662D01*
G02X1914150Y10390220I-10616J88282D01*
G03X1899240Y10378750I-5116J-8776D01*
G02X1849120Y10308730I-53437J-14698D01*
G03X1841250Y10292990I606J-10141D01*
G37*
G36*
G01X493520Y6547400D02*
G02X460300Y6580620I-52100J-18880D01*
G03X473320Y6593640I3467J9553D01*
G02X506540Y6560420I52100J18880D01*
G03X493520Y6547400I-3467J-9553D01*
G37*
G36*
G01X3091910Y17463860D02*
G02Y17510140I-35910J23140D01*
G03X3108990I8540J5504D01*
G02Y17463860I35910J-23140D01*
G03X3091910I-8540J-5504D01*
G37*
G36*
G01X-225060Y16056740D02*
G02Y16097860I-37440J20560D01*
G03X-207240I8910J4895D01*
G02Y16056740I37440J-20560D01*
G03X-225060I-8910J-4895D01*
G37*
G36*
G01X696360Y3310320D02*
G03X689640I-3360J-3810D01*
G02X689070Y3393980I-36639J41582D01*
G03X695790Y3394070I3309J3853D01*
G02X788420Y3352450I37212J-41070D01*
G02X696360Y3310320I-55418J-550D01*
G37*
G36*
G01X5577850Y7533160D02*
G02Y7578040I-36350J22440D01*
G03X5595150I8650J5332D01*
G02Y7533160I36350J-22440D01*
G03X5577850I-8650J-5332D01*
G37*
G36*
G01X3600950Y6129800D02*
G03X3593080Y6117990I2119J-9939D01*
G02X3573650Y6064870I-54472J-10189D01*
G03Y6049130I6427J-7870D01*
G02X3495670Y5971150I-35050J-42930D01*
G03X3479930I-7870J-6424D01*
G02X3448540Y5952000I-42923J35055D01*
G03X3440670Y5940190I2119J-9940D01*
G02X3374660Y5984200I-54471J-10192D01*
G03X3382530Y5996010I-2119J9940D01*
G02X3479930Y6041250I54474J10189D01*
G03X3495670I7870J6424D01*
G02X3503560Y6049130I42908J-35072D01*
G03Y6064870I-6427J7870D01*
G02X3527060Y6162000I35050J42928D01*
G03X3534930Y6173810I-2119J9939D01*
G02X3600950Y6129800I54472J10191D01*
G37*
G54D44*
X2944200Y9785300D03*
X2744200Y9985300D03*
X2624200Y9930500D03*
X2700400Y9881450D03*
X2744200Y9785300D03*
X2484500Y9867000D03*
X2573400Y10603600D03*
X2942600Y10286100D03*
X2644520Y10428340D03*
X2744200Y10285300D03*
X2944200Y10685300D03*
X2509900Y10209900D03*
X2744200Y10585300D03*
X2944200D03*
Y10485300D03*
X2444200Y10435300D03*
X2744200Y10685300D03*
X2414600Y10635300D03*
X2944200Y10885300D03*
X2421000Y11060800D03*
X2844200Y11085300D03*
X2744200Y10785300D03*
X2944200D03*
X2744200Y11185300D03*
X2644200Y11085300D03*
X2744200Y10985300D03*
Y10885300D03*
X2944200Y11185300D03*
Y10985300D03*
X2421000Y10819500D03*
X2843400Y11487700D03*
X3244200Y10185300D03*
Y9785300D03*
X3144200Y10085300D03*
X3444200D03*
X3344200Y10185300D03*
X3044200Y9985300D03*
X3144200D03*
X3044200Y9785300D03*
X3144200D03*
Y10185300D03*
X3044200D03*
X3344200Y9985300D03*
Y9885300D03*
X3444200D03*
X3344200Y9785300D03*
X3244200Y10085300D03*
X3044200D03*
X3244200Y9885300D03*
Y9985300D03*
Y10585300D03*
X3044200D03*
Y10385300D03*
X3444200D03*
Y10585300D03*
X3044200Y10485300D03*
X3144200D03*
X3044200Y10685300D03*
X3144200D03*
X3344200Y10385300D03*
X3244200D03*
X3344200Y10685300D03*
Y10585300D03*
X3144200D03*
Y10385300D03*
X3044200Y10785300D03*
X3344200D03*
X3044200Y10885300D03*
X3444200Y10785300D03*
X3144200D03*
X3644200Y9985300D03*
X3844200D03*
Y10185300D03*
X4044200Y10085300D03*
X3544200Y9785300D03*
X4044200Y9685300D03*
X3844200Y10085300D03*
X4044200Y10185300D03*
X3644200D03*
X3744200D03*
X3644200Y9885300D03*
X3844200D03*
X3544200Y9985300D03*
X3844200Y9785300D03*
X4044200Y9885300D03*
X3744200D03*
X4044200Y10585300D03*
Y10385300D03*
X3844200Y10485300D03*
X3744200Y10585300D03*
Y10385300D03*
X3644200Y10485300D03*
Y10285300D03*
Y10685300D03*
X3844200Y10585300D03*
Y10385300D03*
X4044200Y10485300D03*
X3644200Y10585300D03*
X3744200Y10485300D03*
X3644200Y10385300D03*
X3744200Y10685300D03*
X3544200D03*
X3944200D03*
X3844200Y10785300D03*
X4594200Y8952600D03*
X4644200Y9085300D03*
Y9285300D03*
Y9385300D03*
X4344200Y9585300D03*
X4644200Y9485300D03*
X4544200Y9285300D03*
Y9085300D03*
Y9385300D03*
Y9485300D03*
X4444200Y9585300D03*
X4544200D03*
X4444200Y9485300D03*
X4544200Y9785300D03*
X4144200Y9685300D03*
Y9885300D03*
X4344200Y9685300D03*
X4745100Y8914500D03*
X4744200Y9085300D03*
X4944200Y9485300D03*
X4744200D03*
X5049900Y9179600D03*
X4844200Y9285300D03*
X4944200D03*
X4744200Y9385300D03*
X4845000Y9082900D03*
X4945000D03*
X4844200Y9385300D03*
X4744200Y9285300D03*
X4844200Y9485300D03*
X5392800Y8838300D03*
Y8939900D03*
G54D42*
X2312500Y19138850D03*
X2376000Y19758850D03*
X2249000D03*
X2947500Y19138850D03*
X2820500D03*
X2693500D03*
X2566500D03*
X2439500D03*
X2884000Y19758850D03*
X2757000D03*
X2630000D03*
X2503000D03*
X3074500Y19138850D03*
X3011000Y19758850D03*
X3995000Y19138850D03*
X3868000D03*
X3741000D03*
X3614000D03*
X4058500Y19758850D03*
X3931500D03*
X3804500D03*
X3677500D03*
X3550500D03*
X4385000Y15707600D03*
X4559000Y15476600D03*
Y15957600D03*
X4630000Y19138850D03*
X4503000D03*
X4376000D03*
X4249000D03*
X4122000D03*
X4566500Y19758850D03*
X4439500D03*
X4312500D03*
X4185500D03*
X4986000Y15707600D03*
X5011000Y19138850D03*
X4884000D03*
X4757000D03*
X5074500Y19758850D03*
X4947500D03*
X4820500D03*
X4693500D03*
X5294000Y15303600D03*
X5677500Y19138850D03*
X5550500D03*
X5741000Y19758850D03*
X5614000D03*
X6312500Y19138850D03*
X6185500D03*
X6058500D03*
X5931500D03*
X5804500D03*
X6249000Y19758850D03*
X6122000D03*
X5995000D03*
X5868000D03*
X6439500Y19138850D03*
X6820500D03*
X6693500D03*
X6566500D03*
X6376000Y19758850D03*
X6884000D03*
X6757000D03*
X6630000D03*
X6503000D03*
X7074500Y19138850D03*
X6947500D03*
X7011000Y19758850D03*
G54D38*
X-487500Y15150400D03*
X-754000Y15467700D03*
X-980800Y15310300D03*
Y16310300D03*
Y17310300D03*
Y18310300D03*
Y20310300D03*
X-337500Y15467700D03*
X-360300Y16077300D03*
X19200Y16310300D03*
Y17310300D03*
Y18310300D03*
Y19310300D03*
Y20310300D03*
X439800Y15302600D03*
Y15797900D03*
X223900D03*
X897000Y18655400D03*
X894200Y18835300D03*
X1144200Y19085300D03*
X894200Y19335300D03*
Y19835300D03*
X1144200Y19585300D03*
X894200Y20335300D03*
X1144200Y20085300D03*
X1379600Y16496400D03*
X1316100Y16907350D03*
X1392300Y17055200D03*
X1394200Y18835300D03*
X1644200Y19035300D03*
X1674240Y19679020D03*
X1801240D03*
X1798700Y19460580D03*
X1394200Y19335300D03*
Y20335300D03*
X1834490Y15038960D03*
X2257570Y14814330D03*
X2229450Y15136650D03*
X1889030Y15269950D03*
X2116200Y15719160D03*
X2241380Y15348430D03*
X2253650Y15569950D03*
X2055540Y15425930D03*
X2032380Y16176360D03*
X2253080Y15991970D03*
X2249500Y16349990D03*
Y16519950D03*
Y16719950D03*
X2264410Y16953120D03*
X2266080Y17469950D03*
X2262710Y17277530D03*
X2151850Y17369950D03*
X2258540Y17147230D03*
X2369200Y18060300D03*
X2044200Y18560300D03*
X1894200Y18835300D03*
X2144200Y19035300D03*
X2309240Y19679020D03*
X2182240D03*
X2055240D03*
X1928240D03*
X1925700Y19460580D03*
X2052700D03*
X2179700D03*
X2306700D03*
X2187320Y20052400D03*
X2314320D03*
X1894200Y20335300D03*
X2564880Y15207430D03*
X2532850Y15057990D03*
X2539750Y15578930D03*
X2585300Y15356870D03*
X2538300Y15473600D03*
X2539460Y15723600D03*
X2578740Y16023600D03*
X2594830Y16223600D03*
X2546970Y16324190D03*
X2541760Y15923600D03*
X2547500Y16596750D03*
X2549410Y16492620D03*
X2581670Y16973600D03*
X2584040Y17125420D03*
X2580400Y17291130D03*
X2436240Y19679020D03*
X2944240D03*
X2817240D03*
X2690240D03*
X2563240D03*
X2433700Y19460580D03*
X2687700D03*
X2814700D03*
X2941700D03*
X2560700D03*
X2441320Y20052400D03*
X2568320D03*
X2695320D03*
X2822320D03*
X2394200Y20335300D03*
X2894200D03*
X3297300Y14680300D03*
X3290360Y15201090D03*
X3295130Y14872280D03*
X3355120Y14771910D03*
X2951850Y14973600D03*
X3014500Y15075950D03*
X3015930Y14873600D03*
X3011320Y15265700D03*
X3287510Y15669950D03*
X3285500Y15527590D03*
X3328500Y15425950D03*
X3003470Y15559040D03*
X3015930Y15673600D03*
X3017090Y15873600D03*
X3011320Y15373600D03*
X2981050Y15773600D03*
X3285760Y16069950D03*
X2981270Y16173600D03*
X2994010Y16353630D03*
X3015930Y16073600D03*
X3404720Y16166730D03*
X2983170Y15973600D03*
X3022190Y16619330D03*
X3477020Y16604490D03*
X3476050Y16723180D03*
X2991950Y16954600D03*
X3128700Y16831150D03*
X2995420Y16463760D03*
X3209210Y16717240D03*
X3004910Y17073360D03*
X3282670Y17224470D03*
X3337330Y17122020D03*
X3398900Y17017100D03*
X3282920Y17019950D03*
X3005960Y17280860D03*
X2962900Y17180020D03*
X2954220Y17374670D03*
X3043300Y17652100D03*
X3369200Y17660300D03*
X3444200Y18835300D03*
X3344200Y19285300D03*
Y19035300D03*
X3071240Y19679020D03*
X3068700Y19460580D03*
X3195700D03*
X3344200Y19785300D03*
X3076320Y20052400D03*
X3394200Y20335300D03*
X3344200Y20085300D03*
X2949320Y20052400D03*
X3576700Y14680300D03*
X3779900D03*
X3580920Y15263950D03*
X3869200Y14860300D03*
X3687480Y15769950D03*
X3844200Y15485300D03*
X3690330Y15969950D03*
X3679250Y16269950D03*
X3894200Y16410300D03*
X3691000Y16521800D03*
X3869200Y16685300D03*
X3589120Y16449660D03*
X3729100Y17550500D03*
X3944200Y17560300D03*
X3894200Y17185300D03*
X3617340Y19681560D03*
X3871340D03*
X3998340D03*
X3995800Y19463120D03*
X3744340Y19681560D03*
X3868800Y19463120D03*
X3741800D03*
X3617340Y20072720D03*
X3744340D03*
X3998340D03*
X3871340D03*
X3894200Y20335300D03*
X4449500Y14678320D03*
X4544200Y15210300D03*
X4224400Y14743800D03*
X4419200Y16410300D03*
X4097400Y16902800D03*
X4419200Y17010300D03*
Y17560300D03*
X4499500Y17713900D03*
X4125340Y19681560D03*
X4249800Y19463120D03*
X4122800D03*
X4506340Y19681560D03*
X4633340D03*
X4503800Y19463120D03*
X4630800D03*
X4252340Y19681560D03*
X4379340D03*
X4376800Y19463120D03*
X4125340Y20072720D03*
X4379340D03*
X4252340D03*
X4633340D03*
X4506340D03*
X4344200Y20335300D03*
X5172330Y14875920D03*
X4913570Y15123920D03*
X5136990Y14995480D03*
X4969200Y14785300D03*
X4869200Y16060300D03*
Y16410300D03*
Y17010300D03*
Y17560300D03*
X5144200Y18835300D03*
X4760340Y19681560D03*
X4757800Y19463120D03*
X5014340Y19681560D03*
X5138800Y19463120D03*
X4887340Y19681560D03*
X5011800Y19463120D03*
X4884800D03*
X4760340Y20072720D03*
X4887340D03*
X5014340D03*
X4794200Y20335300D03*
X5696650Y14920610D03*
X5734570Y15219360D03*
X5288900Y15131220D03*
X5704250Y15472290D03*
X5596540Y16036710D03*
X5704500Y16357510D03*
X5405500Y15953950D03*
X5369200Y16410300D03*
X5709680Y16514290D03*
X5508640Y16688150D03*
X5409440Y16919950D03*
X5240680Y17069950D03*
X5601400Y17119950D03*
X5756710Y17255380D03*
X5498390Y17475640D03*
X5354500Y17258370D03*
X5294200Y19285300D03*
X5244200Y19035300D03*
X5674740Y19679020D03*
X5294200Y19785300D03*
X5672200Y20075260D03*
X5545200D03*
X5294200Y20335300D03*
Y20085300D03*
X5968320Y15122750D03*
X5967860Y14923600D03*
X5869690Y15244170D03*
X5860470Y15023700D03*
X5932840Y15573600D03*
X5932380Y15467020D03*
X5951370Y15754000D03*
X5842500Y15665580D03*
X5930500Y15362890D03*
X5949500Y15869950D03*
X5899950Y15973600D03*
X5953070Y16223600D03*
X5868800Y16354310D03*
X5945500Y16424770D03*
X6355070Y16023600D03*
X5950900Y16073600D03*
X5952320Y16874560D03*
X6355500Y16623320D03*
X5944100Y16532580D03*
X5950610Y17002340D03*
X5949500Y16719950D03*
X5839640Y17375030D03*
X6356500Y17023600D03*
X5949500Y17119950D03*
X5944500Y17474950D03*
X5943440Y17323110D03*
X5944330Y17602080D03*
X6319200Y17885300D03*
X5799500Y17673500D03*
X5926200Y19460580D03*
X5928740Y19679020D03*
X6055740D03*
X6182740D03*
X6309740D03*
X6307200Y19460580D03*
X6180200D03*
X6053200D03*
X5801740Y19679020D03*
X5799200Y19460580D03*
X6307200Y20075260D03*
X6180200D03*
X6053200D03*
X5926200D03*
X6294200Y20335300D03*
X5799200Y20075260D03*
X5794200Y20335300D03*
X6419620Y14778250D03*
X6736170Y15669950D03*
X6731520Y15819950D03*
X6429660Y15745060D03*
X6373910Y15650770D03*
X6735500Y15940630D03*
Y16094550D03*
X6643830Y16348550D03*
X6430760Y16158180D03*
X6430780Y15923600D03*
Y16275890D03*
X6396970Y16824270D03*
X6725560Y17172460D03*
X6396970Y17173600D03*
X6794200Y18835300D03*
X6436740Y19679020D03*
X6434200Y19460580D03*
X6563740Y19679020D03*
X6690740D03*
X6817740D03*
X6561200Y19460580D03*
X6815200D03*
X6688200D03*
X6434200Y20075260D03*
X6815200D03*
X6688200D03*
X6561200D03*
X6794200Y20335300D03*
X7319200Y17685300D03*
Y18285300D03*
X7294200Y18835300D03*
X7494200Y19085300D03*
X7069200Y19460580D03*
X7071740Y19679020D03*
X7196200Y19460580D03*
X7294200Y19335300D03*
X7494200Y19585300D03*
X6944740Y19679020D03*
X6942200Y19460580D03*
X7294200Y20335300D03*
Y20035300D03*
X6942200Y20075260D03*
X7694200Y18835300D03*
Y19835300D03*
Y19335300D03*
Y20335300D03*
Y20035300D03*
X8019200Y20285300D03*
X8194200Y14685300D03*
Y15285300D03*
Y16285300D03*
Y17285300D03*
Y18285300D03*
Y18985300D03*
X8819200Y15285300D03*
Y16285300D03*
Y17285300D03*
Y18285300D03*
Y19285300D03*
Y20285300D03*
X9619200Y14685300D03*
Y15285300D03*
Y16285300D03*
Y17285300D03*
Y18285300D03*
Y20285300D03*
X1683600Y12254600D03*
X1595500Y12737200D03*
Y12508600D03*
X1711100Y12509900D03*
X1595600Y12623000D03*
X1711100D03*
X2357500Y11632300D03*
X1959700Y12373000D03*
X2065400Y12749900D03*
X2370200Y12495900D03*
X1811400Y12762600D03*
X2506100Y12187300D03*
X2382900Y12388100D03*
X2548400Y12711400D03*
X2388400Y12757100D03*
X4414900Y7230600D03*
X4503800Y7415900D03*
X4351400Y7644800D03*
X4554600Y8292200D03*
X4594200Y8622400D03*
X4841500Y7598900D03*
X4882100Y7829400D03*
X4994200Y8355700D03*
X4844200Y8398000D03*
X4745100Y8660500D03*
X5253100Y7066300D03*
X5764300Y7596900D03*
X5994200Y7839500D03*
G54D35*
X2471800Y9435200D03*
X2408300Y9185300D03*
X2611500Y9371700D03*
X2580700Y9041500D03*
X3081400Y8901800D03*
X2930700Y8939900D03*
X4244200Y10485300D03*
X4344200Y10385300D03*
X5144200Y10685300D03*
X5418900Y9485300D03*
X5410200Y9757400D03*
X5425700Y9630900D03*
X5278500Y11086200D03*
X3081400Y11581500D03*
G54D32*
X233000Y3090000D03*
G54D34*
X972400Y4675100D03*
X743800D03*
X1074800Y9130400D03*
X782700Y10184500D03*
X1343200Y8116940D03*
X1700500Y8873000D03*
X1691000Y10193000D03*
X1684400Y10324200D03*
X1544700Y10349600D03*
X1824100Y6680300D03*
X1907580Y8399220D03*
X2154300Y8587180D03*
X1947000Y10016700D03*
X1975000Y10220000D03*
X1862200Y11505300D03*
X2326300Y8876400D03*
X3676550Y13740500D03*
X3602100Y13626200D03*
X4035000Y579000D03*
X4278960Y2484540D03*
X4284700Y5701400D03*
X4448450Y14062550D03*
X4814620Y4412020D03*
X4748300Y5701400D03*
X5148300D03*
X4748300Y5984000D03*
X4808600Y6724700D03*
X5099500Y13462300D03*
X4745100Y13410300D03*
X4694300Y13283300D03*
X4592700Y13473800D03*
X4795900Y14083400D03*
X5056250Y13588100D03*
X4846700Y13575400D03*
X5164200Y6722600D03*
X5176870Y11933980D03*
X5612500Y11852020D03*
X5202300Y13397600D03*
X5596000Y13423000D03*
X5494400Y13867500D03*
X5697600Y13702400D03*
X6192900Y6966900D03*
X6194200Y8583000D03*
X5772100Y9335300D03*
X5773100Y9485300D03*
X5768600Y9630900D03*
X5799200Y11264000D03*
X6218300Y11022700D03*
X5748400Y11530700D03*
X6234400Y11755900D03*
X6180200Y11327500D03*
X6090200Y11860900D03*
X6243700Y12755100D03*
X5913500Y12838800D03*
X6243700Y12628100D03*
Y13390100D03*
X6167490Y14045290D03*
X5989700Y13664300D03*
X6840600Y6730220D03*
X6815200Y7025800D03*
X6535800Y7294800D03*
X6815200Y7675800D03*
X6777100Y7885300D03*
X6497700D03*
X6535790Y13930980D03*
X6707260Y13988160D03*
X7374000Y8609700D03*
X6916800Y10095600D03*
X7178300Y12755100D03*
X7165600Y12628100D03*
X7170800Y13257900D03*
X7183500Y13854800D03*
X7202550Y14051650D03*
X7488300Y7301600D03*
X7491900Y7025800D03*
X7755000Y7675800D03*
X7767700Y8597000D03*
X7536200Y12295600D03*
X8034400Y7894800D03*
X2490600Y3898000D03*
X2725800D03*
X2496400Y4687800D03*
X2725000D03*
X3257450Y6006200D03*
X3437000Y6260200D03*
G54D33*
X425100Y7979200D03*
X525100Y9262200D03*
X425100Y9979200D03*
X525100Y11262200D03*
G54D37*
X-538900Y14787100D03*
X-157900Y14774400D03*
X1045900Y14672150D03*
Y15078550D03*
Y15281750D03*
Y14875350D03*
Y15891350D03*
Y15484950D03*
Y15688150D03*
X766500D03*
X1045900Y16094550D03*
Y16297750D03*
Y16704150D03*
Y16907350D03*
Y16500950D03*
Y17516950D03*
Y17313750D03*
Y17110550D03*
Y17720150D03*
Y18151950D03*
Y17948750D03*
Y18355150D03*
X1604700Y14773750D03*
Y14976950D03*
Y15180150D03*
Y15383350D03*
Y15789750D03*
Y15586550D03*
Y16196150D03*
Y15992950D03*
Y16399350D03*
Y16602550D03*
Y16805750D03*
Y17008950D03*
Y17212150D03*
Y17415350D03*
Y17618550D03*
Y17821750D03*
Y18050350D03*
Y18253550D03*
Y18456750D03*
X7548300Y14722950D03*
Y15332550D03*
Y14926150D03*
Y15129350D03*
Y15738950D03*
Y15535750D03*
Y16145350D03*
Y15942150D03*
Y16348550D03*
Y16754950D03*
Y16551750D03*
Y16958150D03*
X7954700Y15230950D03*
Y14824550D03*
Y15027750D03*
Y15434150D03*
Y15840550D03*
Y15637350D03*
Y16043750D03*
Y16246950D03*
Y16450150D03*
Y16856550D03*
Y16653350D03*
Y17059750D03*
G54D28*
X-657500Y7114000D03*
Y6860000D03*
Y7876000D03*
Y7622000D03*
Y7368000D03*
Y8384000D03*
Y8130000D03*
Y8892000D03*
Y8638000D03*
Y9400000D03*
Y9146000D03*
Y10162000D03*
Y9908000D03*
Y9654000D03*
Y10670000D03*
Y10416000D03*
Y11178000D03*
Y10924000D03*
Y11686000D03*
Y11432000D03*
Y12448000D03*
Y12194000D03*
Y11940000D03*
Y12956000D03*
Y12702000D03*
Y13464000D03*
Y13210000D03*
X-149500Y7114000D03*
Y6860000D03*
X-403500Y7114000D03*
Y6860000D03*
X-149500Y7876000D03*
Y7622000D03*
Y7368000D03*
X-403500Y7876000D03*
Y7622000D03*
Y7368000D03*
X-149500Y8384000D03*
Y8130000D03*
X-403500Y8384000D03*
Y8130000D03*
X-149500Y8892000D03*
Y8638000D03*
X-403500Y8892000D03*
Y8638000D03*
X-149500Y9400000D03*
Y9146000D03*
X-403500Y9400000D03*
Y9146000D03*
X-149500Y10162000D03*
Y9908000D03*
Y9654000D03*
X-403500Y10162000D03*
Y9908000D03*
Y9654000D03*
X-149500Y10670000D03*
Y10416000D03*
X-403500Y10670000D03*
Y10416000D03*
X-149500Y11178000D03*
Y10924000D03*
X-403500Y11178000D03*
Y10924000D03*
X-149500Y11686000D03*
Y11432000D03*
X-403500Y11686000D03*
Y11432000D03*
X-149500Y12448000D03*
Y12194000D03*
Y11940000D03*
X-403500Y12448000D03*
Y12194000D03*
Y11940000D03*
X-149500Y12956000D03*
Y12702000D03*
X-403500Y12956000D03*
Y12702000D03*
X-149500Y13464000D03*
Y13210000D03*
X-403500Y13464000D03*
Y13210000D03*
X8774500Y6352000D03*
X9028500D03*
Y6606000D03*
X8774500Y6860000D03*
Y7114000D03*
X9028500Y6860000D03*
Y7114000D03*
X8774500Y7368000D03*
Y7622000D03*
Y7876000D03*
X9028500Y7368000D03*
Y7622000D03*
Y7876000D03*
X8774500Y8130000D03*
Y8384000D03*
X9028500Y8130000D03*
Y8384000D03*
X8774500Y8638000D03*
Y8892000D03*
X9028500Y8638000D03*
Y8892000D03*
X8774500Y9146000D03*
Y9400000D03*
X9028500Y9146000D03*
Y9400000D03*
X8774500Y9654000D03*
Y9908000D03*
Y10162000D03*
X9028500Y9654000D03*
Y9908000D03*
Y10162000D03*
X8774500Y10416000D03*
Y10670000D03*
X9028500Y10416000D03*
Y10670000D03*
X8774500Y10924000D03*
Y11178000D03*
X9028500Y10924000D03*
Y11178000D03*
X8774500Y11432000D03*
Y11686000D03*
X9028500Y11432000D03*
Y11686000D03*
X8774500Y11940000D03*
Y12194000D03*
Y12448000D03*
X9028500Y11940000D03*
Y12194000D03*
Y12448000D03*
X8774500Y12702000D03*
Y12956000D03*
X9028500Y12702000D03*
Y12956000D03*
X8774500Y13210000D03*
Y13464000D03*
X9028500Y13210000D03*
Y13464000D03*
X9282500Y6352000D03*
Y6606000D03*
Y6860000D03*
Y7114000D03*
Y7368000D03*
Y7622000D03*
Y7876000D03*
Y8130000D03*
Y8384000D03*
Y8638000D03*
Y8892000D03*
Y9146000D03*
Y9400000D03*
Y9654000D03*
Y9908000D03*
Y10162000D03*
Y10416000D03*
Y10670000D03*
Y10924000D03*
Y11178000D03*
Y11432000D03*
Y11686000D03*
Y11940000D03*
Y12194000D03*
Y12448000D03*
Y12702000D03*
Y12956000D03*
Y13210000D03*
Y13464000D03*
G54D31*
X0Y3000000D03*
X1900000D03*
G54D30*
X0Y2750000D03*
Y2280000D03*
Y3250000D03*
X233000Y3710000D03*
X1425000Y2750000D03*
Y3250000D03*
X1900000Y2750000D03*
Y2280000D03*
Y3250000D03*
X3325000Y2750000D03*
Y3250000D03*
X2613000Y3710000D03*
G54D40*
X612500Y19590000D03*
X8012500D03*
G54D29*
X0Y2000000D03*
X568000D03*
X858000Y0D03*
X1108000Y2000000D03*
X1425000Y500000D03*
Y1500000D03*
X1900000Y0D03*
Y1000000D03*
Y2000000D03*
X2758000Y0D03*
X2468000Y2000000D03*
X3325000Y500000D03*
Y1500000D03*
X3008000Y2000000D03*
G54D43*
X7952500Y18157950D03*
X7698500D03*
X7952500Y17903950D03*
X7698500D03*
X7952500Y17649950D03*
X7698500D03*
G54D41*
X1388400Y19793200D03*
X7236700D03*
G54D36*
X3281100Y14062550D03*
X3484300Y13846650D03*
X3627500Y1129400D03*
X3687500Y14062550D03*
X6370700Y10298800D03*
X6938700Y14697550D03*
Y14951550D03*
Y15205550D03*
Y17262950D03*
Y17516950D03*
Y17770950D03*
G54D39*
X-687500Y19590000D03*
X9312500D03*
%LPD*%
G75*
G54D10*
X-911500Y5082000D03*
Y13972000D03*
X9536500Y5082000D03*
Y13972000D03*
G54D11*
X-687500Y90000D03*
X-187500Y4590000D03*
Y14090000D03*
X-687500Y19590000D03*
X8812500Y4590000D03*
Y14090000D03*
X9312500Y90000D03*
Y19590000D03*
G54D20*
X1194800Y14002900D03*
Y14202900D03*
X1394800Y14002900D03*
X1594800D03*
X1794800D03*
X1394800Y14202900D03*
X1594800D03*
X1794800D03*
X1994800Y14002900D03*
X2194800D03*
X1994800Y14202900D03*
X2194800D03*
X2394800Y14002900D03*
Y14202900D03*
X6938700Y14697550D03*
Y14951550D03*
Y15205550D03*
Y17262950D03*
Y17516950D03*
Y17770950D03*
G54D21*
X1388400Y19793200D03*
X7236700D03*
G54D12*
X-657500Y5590000D03*
Y6098000D03*
Y5844000D03*
Y6606000D03*
Y6352000D03*
Y7114000D03*
Y6860000D03*
Y7876000D03*
Y7622000D03*
Y7368000D03*
Y8384000D03*
Y8130000D03*
Y8892000D03*
Y8638000D03*
Y9400000D03*
Y9146000D03*
Y10162000D03*
Y9908000D03*
Y9654000D03*
Y10670000D03*
Y10416000D03*
Y11178000D03*
Y10924000D03*
Y11686000D03*
Y11432000D03*
Y12448000D03*
Y12194000D03*
Y11940000D03*
Y12956000D03*
Y12702000D03*
Y13464000D03*
Y13210000D03*
X-149500Y5590000D03*
X-403500D03*
X-149500Y6098000D03*
Y5844000D03*
X-403500Y6098000D03*
Y5844000D03*
X-149500Y6606000D03*
Y6352000D03*
X-403500Y6606000D03*
Y6352000D03*
X-149500Y7114000D03*
Y6860000D03*
X-403500Y7114000D03*
Y6860000D03*
X-149500Y7876000D03*
Y7622000D03*
Y7368000D03*
X-403500Y7876000D03*
Y7622000D03*
Y7368000D03*
X-149500Y8384000D03*
Y8130000D03*
X-403500Y8384000D03*
Y8130000D03*
X-149500Y8892000D03*
Y8638000D03*
X-403500Y8892000D03*
Y8638000D03*
X-149500Y9400000D03*
Y9146000D03*
X-403500Y9400000D03*
Y9146000D03*
X-149500Y10162000D03*
Y9908000D03*
Y9654000D03*
X-403500Y10162000D03*
Y9908000D03*
Y9654000D03*
X-149500Y10670000D03*
Y10416000D03*
X-403500Y10670000D03*
Y10416000D03*
X-149500Y11178000D03*
Y10924000D03*
X-403500Y11178000D03*
Y10924000D03*
X-149500Y11686000D03*
Y11432000D03*
X-403500Y11686000D03*
Y11432000D03*
X-149500Y12448000D03*
Y12194000D03*
Y11940000D03*
X-403500Y12448000D03*
Y12194000D03*
Y11940000D03*
X-149500Y12956000D03*
Y12702000D03*
X-403500Y12956000D03*
Y12702000D03*
X-149500Y13464000D03*
Y13210000D03*
X-403500Y13464000D03*
Y13210000D03*
X8774500Y5590000D03*
X9028500D03*
X8774500Y5844000D03*
Y6098000D03*
X9028500Y5844000D03*
Y6098000D03*
X8774500Y6352000D03*
Y6606000D03*
X9028500Y6352000D03*
Y6606000D03*
X8774500Y6860000D03*
Y7114000D03*
X9028500Y6860000D03*
Y7114000D03*
X8774500Y7368000D03*
Y7622000D03*
Y7876000D03*
X9028500Y7368000D03*
Y7622000D03*
Y7876000D03*
X8774500Y8130000D03*
Y8384000D03*
X9028500Y8130000D03*
Y8384000D03*
X8774500Y8638000D03*
Y8892000D03*
X9028500Y8638000D03*
Y8892000D03*
X8774500Y9146000D03*
Y9400000D03*
X9028500Y9146000D03*
Y9400000D03*
X8774500Y9654000D03*
Y9908000D03*
Y10162000D03*
X9028500Y9654000D03*
Y9908000D03*
Y10162000D03*
X8774500Y10416000D03*
Y10670000D03*
X9028500Y10416000D03*
Y10670000D03*
X8774500Y10924000D03*
Y11178000D03*
X9028500Y10924000D03*
Y11178000D03*
X8774500Y11432000D03*
Y11686000D03*
X9028500Y11432000D03*
Y11686000D03*
X8774500Y11940000D03*
Y12194000D03*
Y12448000D03*
X9028500Y11940000D03*
Y12194000D03*
Y12448000D03*
X8774500Y12702000D03*
Y12956000D03*
X9028500Y12702000D03*
Y12956000D03*
X8774500Y13210000D03*
Y13464000D03*
X9028500Y13210000D03*
Y13464000D03*
X9282500Y5590000D03*
Y5844000D03*
Y6098000D03*
Y6352000D03*
Y6606000D03*
Y6860000D03*
Y7114000D03*
Y7368000D03*
Y7622000D03*
Y7876000D03*
Y8130000D03*
Y8384000D03*
Y8638000D03*
Y8892000D03*
Y9146000D03*
Y9400000D03*
Y9654000D03*
Y9908000D03*
Y10162000D03*
Y10416000D03*
Y10670000D03*
Y10924000D03*
Y11178000D03*
Y11432000D03*
Y11686000D03*
Y11940000D03*
Y12194000D03*
Y12448000D03*
Y12702000D03*
Y12956000D03*
Y13210000D03*
Y13464000D03*
G54D13*
X-538900Y14787100D03*
X-157900Y14774400D03*
X1045900Y14672150D03*
Y15078550D03*
Y15281750D03*
Y14875350D03*
Y15484950D03*
Y15688150D03*
X766500D03*
X1045900Y16094550D03*
Y15891350D03*
Y16297750D03*
Y16704150D03*
Y16907350D03*
Y16500950D03*
Y17516950D03*
Y17313750D03*
Y17110550D03*
Y17720150D03*
Y17948750D03*
Y18151950D03*
Y18355150D03*
X1604700Y14570550D03*
Y14976950D03*
Y14773750D03*
Y15180150D03*
Y15383350D03*
Y15789750D03*
Y15586550D03*
Y16196150D03*
Y15992950D03*
Y16399350D03*
Y16602550D03*
Y16805750D03*
Y17008950D03*
Y17212150D03*
Y17415350D03*
Y17618550D03*
Y17821750D03*
Y18050350D03*
Y18253550D03*
Y18456750D03*
X1959000Y10467000D03*
X3281100Y14062550D03*
X3484300Y13846650D03*
X3627500Y1129400D03*
X3687500Y14062550D03*
X4313300Y13042000D03*
X6016840Y2130280D03*
X6029540Y4423900D03*
X6370700Y10298800D03*
X6586600Y10768700D03*
X6684700Y14410350D03*
X7548300Y14722950D03*
Y14926150D03*
Y15129350D03*
X7954700Y15230950D03*
Y14824550D03*
Y15027750D03*
X7548300Y15332550D03*
Y15738950D03*
Y15535750D03*
X7954700Y15434150D03*
Y15840550D03*
Y15637350D03*
X7548300Y16145350D03*
Y15942150D03*
Y16348550D03*
X7954700Y16043750D03*
Y16246950D03*
X7548300Y16754950D03*
Y16551750D03*
Y16958150D03*
X7954700Y16856550D03*
Y16450150D03*
Y16653350D03*
Y17059750D03*
G54D22*
X1887000Y10216000D03*
G54D23*
X2312500Y19138850D03*
X2249000Y19758850D03*
X2820500Y19138850D03*
X2693500D03*
X2566500D03*
X2439500D03*
X2884000Y19758850D03*
X2757000D03*
X2630000D03*
X2503000D03*
X2376000D03*
X3074500Y19138850D03*
X2947500D03*
X3011000Y19758850D03*
X3995000Y19138850D03*
X3868000D03*
X3741000D03*
X3614000D03*
X3931500Y19758850D03*
X3804500D03*
X3677500D03*
X3550500D03*
X4385000Y15707600D03*
X4559000Y15476600D03*
Y15957600D03*
X4503000Y19138850D03*
X4376000D03*
X4249000D03*
X4122000D03*
X4566500Y19758850D03*
X4439500D03*
X4312500D03*
X4185500D03*
X4058500D03*
X4986000Y15707600D03*
X5011000Y19138850D03*
X4884000D03*
X4757000D03*
X4630000D03*
X5074500Y19758850D03*
X4947500D03*
X4820500D03*
X4693500D03*
X5294000Y15303600D03*
X5677500Y19138850D03*
X5550500D03*
X5614000Y19758850D03*
X6185500Y19138850D03*
X6058500D03*
X5931500D03*
X5804500D03*
X6249000Y19758850D03*
X6122000D03*
X5995000D03*
X5868000D03*
X5741000D03*
X6439500Y19138850D03*
X6312500D03*
X6820500D03*
X6693500D03*
X6566500D03*
X6376000Y19758850D03*
X6757000D03*
X6630000D03*
X6503000D03*
X7074500Y19138850D03*
X6947500D03*
X7011000Y19758850D03*
X6884000D03*
G54D14*
X-754000Y15467700D03*
X-980800Y15310300D03*
Y16310300D03*
Y17310300D03*
Y18310300D03*
Y20310300D03*
X-487500Y15150400D03*
X-337500Y15467700D03*
X-360300Y16077300D03*
X-169800D03*
X-262500D03*
X19200Y16310300D03*
Y17310300D03*
Y18310300D03*
Y19310300D03*
Y20310300D03*
X598000Y3070000D03*
X373000Y2831200D03*
X533000D03*
X453000D03*
X613000D03*
X333000Y3351900D03*
X573000D03*
X409920Y3771000D03*
X496090D03*
X516000Y4208000D03*
X410200Y4601700D03*
Y4500100D03*
X312800Y5724500D03*
Y5804500D03*
Y5884500D03*
Y5964500D03*
X441420Y6528520D03*
X525420Y6612520D03*
X604800Y8254200D03*
X604900Y8635200D03*
X604800Y9016200D03*
X611400Y10254200D03*
Y10635200D03*
X494200Y12060300D03*
X269200Y13660300D03*
Y14260300D03*
X84200Y15480400D03*
X439800Y15797900D03*
X223900D03*
X439800Y15302600D03*
X849000Y3263000D03*
X1013000Y2831200D03*
X1093000D03*
X933000D03*
X773000D03*
X853000D03*
X693000D03*
X813000Y3351900D03*
X1053000D03*
X973200Y3804020D03*
X902080Y3776080D03*
X725300Y3898000D03*
X653000Y3351900D03*
X733000Y3353000D03*
X993070Y3886340D03*
X733000Y3351900D03*
X1156200Y3979400D03*
X1157600Y4444600D03*
X1151000Y4888600D03*
X972400Y4675100D03*
X743800D03*
X1146300Y5358500D03*
X1151000Y5129900D03*
X733650Y8597000D03*
X808100Y8571070D03*
X1025750Y8800200D03*
X1024000Y8876400D03*
X1074800Y9130400D03*
X858900Y10032100D03*
X717800Y9878300D03*
X780080Y9933120D03*
X965810Y9968600D03*
X903530Y9917800D03*
X846200Y10260700D03*
X1125600Y10667100D03*
X998600Y10654400D03*
X1062100Y10603600D03*
X1156200Y10443700D03*
X782700Y10184500D03*
X706500Y10806800D03*
X960500Y11251300D03*
X615060Y10786480D03*
Y10867760D03*
X871600Y11187800D03*
X935100Y11137000D03*
X1049400Y12368100D03*
X794200Y11935300D03*
X844200Y12685300D03*
X1062100Y12661000D03*
X973200Y12572100D03*
X922400Y12495900D03*
X1062100Y12876900D03*
Y12775300D03*
X844200Y13185300D03*
Y13660300D03*
Y14260300D03*
X897000Y18655400D03*
X894200Y18835300D03*
X1144200Y19085300D03*
X894200Y19335300D03*
X1144200Y19585300D03*
X894200Y20335300D03*
X1144200Y20085300D03*
X894200Y19835300D03*
X1532000Y4456800D03*
X1697100Y4228200D03*
X1196600Y4208000D03*
X1366900Y4672700D03*
X1646300Y5358500D03*
X1443100Y5282300D03*
X1747900Y5091800D03*
X1506600Y7377800D03*
X1582800Y8393200D03*
X1343200Y8116940D03*
X1700500Y8873000D03*
X1493900Y9346300D03*
X1303400Y9988920D03*
Y9854300D03*
X1493900D03*
X1491360Y9991460D03*
X1689760Y10026740D03*
X1693340Y9926740D03*
X1694940Y9826740D03*
X1519300Y10443700D03*
X1316100Y10629000D03*
X1303400Y10146400D03*
X1493900D03*
X1691000Y10193000D03*
X1684400Y10324200D03*
X1392300Y10667100D03*
X1544700Y10349600D03*
X1201800Y10341580D03*
X1684400Y10870300D03*
X1328800Y10717900D03*
X1417700Y11911700D03*
X1582800D03*
X1683600D03*
X1481200Y12292700D03*
X1226600Y12280000D03*
X1683600Y12254600D03*
X1595500Y12737200D03*
Y12508600D03*
X1711100Y12509900D03*
X1595600Y12623000D03*
X1711100D03*
X1341500Y12648000D03*
X1607400Y13257900D03*
X1228900Y13065700D03*
X1608200Y12991200D03*
X1679620Y13410300D03*
X1369200Y13660300D03*
X1379600Y16496400D03*
X1316100Y16907350D03*
X1392300Y17055200D03*
X1614000Y19157600D03*
X1394200Y18835300D03*
X1644200Y19035300D03*
X1550500Y19767200D03*
Y19411600D03*
X1674240Y19679020D03*
X1394200Y19335300D03*
X1614000Y20021200D03*
X1394200Y20335300D03*
X2273000Y2831200D03*
X2284000Y3874000D03*
X2233000Y3341700D03*
X2309430Y3778620D03*
X2268600Y4220700D03*
X2294000Y4355200D03*
X2167000Y4507600D03*
X2168600Y4610600D03*
X2217800Y4850500D03*
X1951100Y4952100D03*
X1874900Y5004650D03*
X2154300Y5396600D03*
X1887600Y5104500D03*
X2052700D03*
X1874900Y5218800D03*
X2268600Y5282300D03*
X2090800D03*
X1811400Y5155300D03*
X2012300Y5724500D03*
X2013100Y5804500D03*
X2009300Y5884500D03*
X2011000Y5964500D03*
X1824100Y6590300D03*
Y6680300D03*
X1874000Y7022200D03*
X2034000D03*
X1954000D03*
X1794000D03*
X1907580Y8399220D03*
X2154300Y8493200D03*
X2116200Y8793200D03*
X2154300Y8965300D03*
Y8587180D03*
X1874900Y9185300D03*
X2299800Y9359000D03*
X1849500Y9346300D03*
X1926000Y9669000D03*
X2221700Y9685300D03*
X2217800Y9867000D03*
X1798700Y9676500D03*
X1947000Y10016700D03*
X1798700Y10017000D03*
X2243200Y10298800D03*
Y10209900D03*
X2176500Y10635300D03*
X1975000Y10220000D03*
X2032000Y10345000D03*
X1845800Y10364050D03*
X1795000Y10262450D03*
X1887600Y11060800D03*
X2014600Y10819500D03*
X1862200Y11505300D03*
X1886800Y11911700D03*
X2026500D03*
X1760600D03*
X1959700Y12373000D03*
X2065400Y12749900D03*
X1811400Y12762600D03*
X2052200Y12598000D03*
X2103500Y12495900D03*
X2179700Y12775300D03*
X1912200Y13308700D03*
X2051900D03*
X1785200Y13257100D03*
Y13004700D03*
X1764020Y13448400D03*
X1975090Y14812470D03*
X1834490Y15038960D03*
X2257570Y14814330D03*
X2229450Y15136650D03*
X2116200Y15719160D03*
X2241380Y15348430D03*
X2253650Y15569950D03*
X2055540Y15425930D03*
X1889030Y15269950D03*
X2254030Y16134710D03*
X2032380Y16176360D03*
X2253080Y15991970D03*
X2249500Y16349990D03*
Y16519950D03*
Y16719950D03*
X2264410Y16953120D03*
X2266080Y17469950D03*
X2262710Y17277530D03*
X2151850Y17369950D03*
X2258540Y17147230D03*
X2044200Y18560300D03*
X1894200Y18835300D03*
X2144200Y19035300D03*
X2309240Y19679020D03*
X2182240D03*
X2055240D03*
X1928240D03*
X1925700Y19460580D03*
X2052700D03*
X2179700D03*
X2306700D03*
X1801240Y19679020D03*
X1798700Y19460580D03*
X2187320Y20052400D03*
X2314320D03*
X1894200Y20335300D03*
X2433000Y2526400D03*
X2564000Y3066000D03*
X2643000Y3060000D03*
X2435450Y3313000D03*
X2833000Y2831200D03*
X2673000D03*
X2753000D03*
X2353000D03*
X2593000D03*
X2513000D03*
X2833500Y3880000D03*
X2740000Y3334000D03*
X2876090Y3788780D03*
X2789920D03*
X2395600Y3778620D03*
X2553000Y3356900D03*
X2490600Y3898000D03*
X2725800D03*
X2633000Y3355800D03*
X2319400Y3992100D03*
X2509900Y4850500D03*
X2789300D03*
X2496400Y4687800D03*
X2725000D03*
X2802000Y5396600D03*
X2852800Y5041000D03*
X2789300Y5104500D03*
X2725800Y5155300D03*
X2509900D03*
X2535300Y5282300D03*
X2751200Y6476100D03*
X2543200Y7166700D03*
X2326300Y8876400D03*
X2844200Y9085300D03*
X2471800Y9435200D03*
X2408300Y9185300D03*
X2611500Y9371700D03*
X2580700Y9041500D03*
X2744200Y9485300D03*
Y9385300D03*
Y9285300D03*
X2611500Y9663800D03*
X2744200Y9985300D03*
X2624200Y9930500D03*
X2700400Y9881450D03*
X2744200Y9685300D03*
Y9585300D03*
X2463000Y9685300D03*
X2744200Y9785300D03*
X2484500Y9867000D03*
X2573400Y10603600D03*
X2644520Y10428340D03*
X2744200Y10285300D03*
X2509900Y10209900D03*
X2744200Y10585300D03*
X2444200Y10435300D03*
X2744200Y10685300D03*
X2414600Y10635300D03*
X2421000Y11060800D03*
X2844200Y11085300D03*
X2744200Y10785300D03*
Y11185300D03*
X2644200Y11085300D03*
X2744200Y10985300D03*
Y10885300D03*
X2421000Y10819500D03*
X2843400Y11487700D03*
X2357500Y11632300D03*
X2506100Y12187300D03*
X2382900Y12388100D03*
X2699600Y12213960D03*
X2870580Y12094580D03*
X2548400Y12711400D03*
X2388400Y12757100D03*
X2370200Y12495900D03*
X2548400Y12457800D03*
X2814700Y14553300D03*
X2564880Y15207430D03*
X2532850Y15057990D03*
X2539750Y15578930D03*
X2585300Y15356870D03*
X2538300Y15473600D03*
X2539460Y15723600D03*
X2578740Y16023600D03*
X2594830Y16223600D03*
X2546970Y16324190D03*
X2541760Y15923600D03*
X2547500Y16596750D03*
X2549410Y16492620D03*
X2584040Y17125420D03*
X2580400Y17291130D03*
X2581670Y16973600D03*
X2369200Y18060300D03*
X2436240Y19679020D03*
X2817240D03*
X2690240D03*
X2563240D03*
X2433700Y19460580D03*
X2687700D03*
X2814700D03*
X2560700D03*
X2441320Y20052400D03*
X2568320D03*
X2695320D03*
X2822320D03*
X2394200Y20335300D03*
X2993000Y2831200D03*
X2913000D03*
X2953000Y3353300D03*
X2894200Y4447400D03*
X2954400Y4220700D03*
X2906200Y4093700D03*
X3005200Y4990200D03*
X3094100Y5142600D03*
X3386200Y5930000D03*
X3437000Y6006200D03*
X3257450D03*
X3030600Y6222100D03*
X3322700Y6463400D03*
X3310700Y6717400D03*
X3183700D03*
X3056700D03*
X2929700D03*
X3437000Y6260200D03*
X3141300D03*
X3310700Y7758100D03*
X3183700D03*
X3056700Y7758800D03*
X2970200Y8187500D03*
X3050200Y8184800D03*
X3130200Y8188600D03*
X3210200Y8188800D03*
X3081400Y8901800D03*
X2930700Y8939900D03*
X3398900Y8990700D03*
X3244200Y9285300D03*
X2944200Y9485300D03*
X3344200D03*
X3044200Y9285300D03*
X3444200D03*
X3244200Y9385300D03*
Y9085300D03*
X3144200Y9285300D03*
X3244200Y9485300D03*
X3444200D03*
Y9385300D03*
Y9085300D03*
X3344200Y9385300D03*
Y9285300D03*
Y9085300D03*
X3044200Y9485300D03*
X2944200Y9385300D03*
Y9285300D03*
X3244200Y9785300D03*
X3144200Y10085300D03*
X3044200Y9685300D03*
X2944200Y9785300D03*
X3444200Y9585300D03*
X2944200D03*
X3344200Y9685300D03*
X3444200Y10085300D03*
X3044200Y9985300D03*
X3144200D03*
X3044200Y9785300D03*
X3144200D03*
X2944200Y9685300D03*
X3444200D03*
X3344200Y9585300D03*
X3244200Y9685300D03*
X3144200D03*
X3344200Y9985300D03*
Y9885300D03*
X3244200Y9585300D03*
X3144200D03*
X3044200D03*
X3444200Y9885300D03*
X3344200Y9785300D03*
X3244200Y10085300D03*
X3044200D03*
X3244200Y9885300D03*
Y9985300D03*
Y10585300D03*
X3044200D03*
Y10385300D03*
X2942600Y10286100D03*
X2944200Y10685300D03*
X3244200Y10185300D03*
X3444200Y10385300D03*
Y10585300D03*
X3344200Y10185300D03*
X3044200Y10485300D03*
X3144200D03*
X2944200Y10585300D03*
X3044200Y10685300D03*
X3144200D03*
X3344200Y10385300D03*
X3244200D03*
X3144200Y10185300D03*
X3044200D03*
X3344200Y10685300D03*
Y10585300D03*
X3144200D03*
Y10385300D03*
X2944200Y10485300D03*
X3444200Y10985300D03*
X3044200Y10785300D03*
X2944200Y10885300D03*
X3444200Y11085300D03*
Y11185300D03*
X3344200Y10985300D03*
Y11185300D03*
X3244200D03*
X3044200D03*
X3244200Y10885300D03*
Y11085300D03*
X2944200Y10785300D03*
X3244200Y10985300D03*
X3444200Y10885300D03*
X3144200Y11185300D03*
Y11085300D03*
X3044200Y10985300D03*
X3344200Y10885300D03*
Y10785300D03*
X2944200Y11185300D03*
X3044200Y11085300D03*
X3144200Y10985300D03*
X2944200D03*
X3044200Y10885300D03*
X3144200D03*
X3444200Y10785300D03*
X3144200D03*
X3344200Y11085300D03*
X3284600Y11594200D03*
X3386200D03*
X3244200Y11285300D03*
X3348100Y11454500D03*
X3081400Y11581500D03*
X3386200Y11683100D03*
X3284600D03*
X3444200Y11285300D03*
X3044200D03*
X3194200Y11423000D03*
X3284600Y12229200D03*
X3386200D03*
X3133950Y12355490D03*
X3144200Y12877600D03*
X3348100Y12699100D03*
X3233800Y12495900D03*
X3348100Y13372200D03*
X3271900Y13458930D03*
X3144200Y13308000D03*
X3271900Y13550000D03*
X3297300Y14680300D03*
X3290360Y15201090D03*
X3295130Y14872280D03*
X3355120Y14771910D03*
X3005200Y14769200D03*
X2951850Y14973600D03*
X3014500Y15075950D03*
X3015930Y14873600D03*
X3394500Y15675300D03*
X3287510Y15669950D03*
X3285500Y15527590D03*
X3328500Y15425950D03*
X3003470Y15559040D03*
X3015930Y15673600D03*
X3011320Y15265700D03*
Y15373600D03*
X2981050Y15773600D03*
X3285760Y16069950D03*
X2981270Y16173600D03*
X3017090Y15873600D03*
X2994010Y16353630D03*
X3015930Y16073600D03*
X3404720Y16166730D03*
X2983170Y15973600D03*
X3022190Y16619330D03*
X3128700Y16831150D03*
X2995420Y16463760D03*
X3209210Y16717240D03*
X3282920Y17369950D03*
X3056000Y17487000D03*
X3004910Y17073360D03*
X3282670Y17224470D03*
X3337330Y17122020D03*
X3398900Y17017100D03*
X3282920Y17019950D03*
X2991950Y16954600D03*
X3005960Y17280860D03*
X2962900Y17180020D03*
X3144900Y17487000D03*
X2954220Y17374670D03*
X3043300Y17652100D03*
X3369200Y17660300D03*
X3444200Y18835300D03*
X3344200Y19035300D03*
X3071240Y19679020D03*
X3068700Y19460580D03*
X3195700D03*
X3344200Y19785300D03*
X2944240Y19679020D03*
X2941700Y19460580D03*
X3344200Y19285300D03*
X3076320Y20052400D03*
X3394200Y20335300D03*
X3344200Y20085300D03*
X2949320Y20052400D03*
X2894200Y20335300D03*
X3686000Y625000D03*
X3767200Y1604500D03*
X3627500Y1650100D03*
X3923760Y2577200D03*
X3652900Y6069700D03*
X3602100Y5866500D03*
X3475100Y5777600D03*
X3884700Y5701400D03*
X3538610Y6107800D03*
X3538600Y6006200D03*
X3884700Y5984000D03*
X3957700Y6692000D03*
X3881500Y6615800D03*
X3792600Y6692000D03*
X3678300Y6311000D03*
X3919200Y6460300D03*
X3487800Y6387200D03*
X3589400Y6184000D03*
X3643200Y6831700D03*
X3881700Y7204380D03*
X3643200Y7174600D03*
X3780700Y7263500D03*
X3995800D03*
X3494200Y7714400D03*
X3941600Y7603000D03*
X3805000Y7644800D03*
X3856100Y8317600D03*
X3652900Y8152500D03*
X3678300Y8647800D03*
X3983100Y8749400D03*
X3678300Y8800200D03*
X3868800Y8876400D03*
X3983100Y9003400D03*
X3644200Y9285300D03*
X3983100Y9092300D03*
X3744200Y9485300D03*
Y9385300D03*
Y9285300D03*
X3844200D03*
Y9485300D03*
X3644200D03*
Y9385300D03*
X3544200Y9485300D03*
Y9385300D03*
X3844200D03*
X3644200Y9985300D03*
X3844200D03*
X3544200Y9785300D03*
X3844200Y9585300D03*
Y10085300D03*
X3644200Y9885300D03*
X3844200D03*
X3544200Y9985300D03*
X3744200Y9585300D03*
Y9685300D03*
X3844200D03*
Y9785300D03*
X3644200Y9585300D03*
Y9685300D03*
X3544200Y9585300D03*
Y9685300D03*
X3744200Y9885300D03*
X3844200Y10485300D03*
X3744200Y10585300D03*
Y10385300D03*
X3644200Y10485300D03*
Y10285300D03*
Y10685300D03*
X3844200Y10185300D03*
Y10585300D03*
Y10385300D03*
X3644200Y10585300D03*
X3744200Y10485300D03*
X3644200Y10385300D03*
Y10185300D03*
X3744200D03*
Y10685300D03*
X3544200D03*
X3944200D03*
X3844200Y10985300D03*
X3944200Y10885300D03*
Y10985300D03*
X3844200Y10885300D03*
Y11085300D03*
X3744200Y10885300D03*
Y10985300D03*
Y11085300D03*
Y11185300D03*
X3644200Y10885300D03*
Y11085300D03*
Y11185300D03*
X3544200Y10885300D03*
Y10985300D03*
Y11085300D03*
X3538600Y11187800D03*
X3644200Y10985300D03*
X3844200Y10785300D03*
X3644200Y11285300D03*
X3640200Y11568800D03*
X3543400Y11287700D03*
X3844200Y11285300D03*
X3475100Y11429100D03*
X3694200Y12305400D03*
X3892900Y12624200D03*
X3500500Y12673700D03*
X3671770Y12762600D03*
X3577920D03*
X3607200Y13075000D03*
X3995800Y13384900D03*
X3970400Y13296000D03*
X3830700Y13372200D03*
X3805300Y13461100D03*
X3741800Y13537300D03*
X3602100Y13372200D03*
X3551300Y13435700D03*
X3702500Y13256700D03*
X3892900Y13256600D03*
X3899500Y13588100D03*
X3868800Y13677000D03*
X3676550Y13740500D03*
X3602100Y13626200D03*
X3475100Y13550000D03*
X3576700Y14680300D03*
X3779900D03*
X3578920Y15138950D03*
X3869200Y14860300D03*
X3576700Y15442300D03*
X3687480Y15769950D03*
X3844200Y15485300D03*
X3580920Y15263950D03*
X3596250Y16064400D03*
X3690330Y15969950D03*
X3679250Y16269950D03*
X3488650Y16390550D03*
X3691000Y16521800D03*
X3869200Y16685300D03*
X3477020Y16604490D03*
X3476050Y16723180D03*
X3589120Y16449660D03*
X3894200Y16410300D03*
Y17185300D03*
X3729100Y17550500D03*
X3944200Y17560300D03*
X3617340Y19681560D03*
X3871340D03*
X3998340D03*
X3995800Y19463120D03*
X3744340Y19681560D03*
X3868800Y19463120D03*
X3741800D03*
X3617340Y20072720D03*
X3744340D03*
X3998340D03*
X3871340D03*
X3894200Y20335300D03*
X4135500Y354700D03*
X4134700Y252300D03*
X4427600Y530500D03*
X4035000Y579000D03*
X4022820Y2577200D03*
X4278960Y2484540D03*
X4582540Y2994300D03*
X4440300Y2945500D03*
X4351400Y4896220D03*
X4304880Y4791280D03*
X4284700Y5701400D03*
X4440300Y6724700D03*
X4033900Y6615800D03*
X4440300Y6978700D03*
X4414900Y7230600D03*
X4046600Y7200000D03*
X4326000Y7434800D03*
X4503800Y7415900D03*
X4351400Y7644800D03*
X4554600Y8292200D03*
X4338730Y8273640D03*
X4338700Y8358350D03*
X4194200Y8441000D03*
X4193930Y8961000D03*
X4444200Y8622400D03*
Y8952600D03*
X4351400Y8470000D03*
X4144200Y9285300D03*
X4544200D03*
Y9085300D03*
Y9385300D03*
Y9485300D03*
X4444200Y9085300D03*
X4244200Y9385300D03*
X4144200Y9485300D03*
X4244200D03*
X4344200Y9285300D03*
Y9085300D03*
Y9385300D03*
Y9485300D03*
X4244200Y9085300D03*
X4044200Y9385300D03*
X4244200Y9285300D03*
X4444200Y9385300D03*
Y9485300D03*
X4144200Y9385300D03*
X4044200Y9285300D03*
X4544200Y9785300D03*
X4044200Y10085300D03*
X4344200Y9585300D03*
X4044200Y9685300D03*
X4144200D03*
X4444200Y9585300D03*
X4244200Y9985300D03*
X4144200Y10085300D03*
X4344200D03*
X4444200Y9985300D03*
X4144200Y9885300D03*
X4344200Y9685300D03*
X4144200Y9585300D03*
X4544200D03*
X4044200D03*
X4244200Y9885300D03*
X4044200D03*
X4244200Y10385300D03*
X4144200Y10485300D03*
X4044200Y10585300D03*
Y10385300D03*
X4144200Y10185300D03*
Y10285300D03*
Y10385300D03*
X4244200Y10485300D03*
X4144200Y10585300D03*
X4044200Y10485300D03*
Y10185300D03*
X4544200Y10285300D03*
X4444200Y10485300D03*
X4344200Y10385300D03*
Y10985300D03*
X4144200Y10885300D03*
X4444200Y10985300D03*
Y11085300D03*
Y11185300D03*
X4344200D03*
X4244200Y10885300D03*
Y10985300D03*
Y11085300D03*
Y11185300D03*
X4144200Y11085300D03*
Y11185300D03*
X4044200Y11085300D03*
Y11185300D03*
X4544200Y11085300D03*
Y11185300D03*
X4444200Y10885300D03*
X4544200Y10985300D03*
X4144200D03*
X4446600Y10786100D03*
X4544200Y10885300D03*
X4344200Y11085300D03*
X4287970Y11834700D03*
X4144200Y11285300D03*
X4544200D03*
X4287900Y11479900D03*
X4444510Y11837000D03*
X4544060Y11838870D03*
X4344200Y11285300D03*
X4444310Y11597010D03*
X4544390Y11594050D03*
X4290590Y11599300D03*
X4414900Y13270600D03*
X4351400Y13181700D03*
X4199000Y13397600D03*
X4135500Y13245200D03*
X4099500Y13359500D03*
X4046600Y13486500D03*
X4448450Y14062550D03*
X4449500Y14678320D03*
X4544200Y15210300D03*
X4224400Y14743800D03*
X4097400Y16902800D03*
X4419200Y16410300D03*
Y17010300D03*
X4499500Y17713900D03*
X4419200Y17560300D03*
X4125340Y19681560D03*
X4249800Y19463120D03*
X4122800D03*
X4506340Y19681560D03*
X4503800Y19463120D03*
X4252340Y19681560D03*
X4379340D03*
X4376800Y19463120D03*
X4125340Y20072720D03*
X4379340D03*
X4252340D03*
X4506340D03*
X4344200Y20335300D03*
X4658060Y-115200D03*
X5039740Y2094300D03*
X5054980Y4172020D03*
X4814620Y4412020D03*
X4597780Y5072020D03*
X4748300Y5701400D03*
X5148300D03*
X4748300Y5984000D03*
X4969200Y6460300D03*
X4808600Y6724700D03*
X4841500Y7598900D03*
X5108200D03*
X4882100Y7829400D03*
X4994200Y8355700D03*
X4614800Y7946000D03*
X4844200Y8398000D03*
X4745100Y8660500D03*
Y8914500D03*
X4594200Y8622400D03*
Y8952600D03*
X4744200Y9085300D03*
X5144200Y9485300D03*
X4944200D03*
X4744200D03*
X4644200Y9085300D03*
Y9285300D03*
Y9385300D03*
X5049900Y9179600D03*
X4644200Y9485300D03*
X4844200Y9285300D03*
X4944200D03*
X4744200Y9385300D03*
X4845000Y9082900D03*
X4945000D03*
X4844200Y9385300D03*
X5144200D03*
X4744200Y9285300D03*
X4844200Y9485300D03*
X4644200Y9585300D03*
X4744200Y9785300D03*
X4944200Y9985300D03*
X4644200Y10085300D03*
X4944200Y9585300D03*
Y9785300D03*
X4644200Y9885300D03*
Y9685300D03*
X4744200Y9585300D03*
X5144200Y9885300D03*
Y9785300D03*
X4744200Y9885300D03*
X4844200Y9685300D03*
X5144200D03*
Y9585300D03*
X4844200Y10085300D03*
X5144200D03*
Y9985300D03*
X4844200Y9885300D03*
X4944200D03*
X4844200Y9785300D03*
X4644200D03*
X4744200Y9685300D03*
X4944200D03*
X4844200Y9585300D03*
X4744200Y10085300D03*
X4944200D03*
X4844200Y9985300D03*
X4744200D03*
X4944200Y10485300D03*
X4644200Y10585300D03*
X5144200Y10385300D03*
X4944200D03*
X5144200Y10485300D03*
X4844200D03*
X4944200Y10685300D03*
X4644200Y10385300D03*
X4944200Y10185300D03*
X5144200D03*
X4844200D03*
X5144200Y10685300D03*
X4844200Y10585300D03*
X4744200Y10485300D03*
X4844200Y10385300D03*
X4744200Y10185300D03*
X4844200Y10685300D03*
X4744200Y10585300D03*
X4644200Y10485300D03*
X4744200Y10385300D03*
X4644200Y10285300D03*
X4744200Y11085300D03*
X4746600Y10786100D03*
X4944200Y10885300D03*
X4744200Y11185300D03*
X4844200Y10885300D03*
Y10985300D03*
X4744200Y10885300D03*
X5144200Y10985300D03*
X4944200D03*
Y11085300D03*
X4646600Y10786100D03*
X4844200Y11085300D03*
X4840550Y11180850D03*
X4944200Y11485300D03*
X5044200D03*
X4744200Y11285300D03*
X4836000Y11605300D03*
Y11930700D03*
X4994200Y11937100D03*
X5100700Y12978500D03*
X4891150Y12972150D03*
X5099500Y13462300D03*
X4745100Y13410300D03*
X4694300Y13283300D03*
X4637150Y12997550D03*
X4592700Y13473800D03*
X4795900Y14083400D03*
X5056250Y13588100D03*
X4846700Y13575400D03*
X4913570Y15123920D03*
X5136990Y14995480D03*
X4969200Y14785300D03*
X4869200Y16060300D03*
Y16410300D03*
Y17010300D03*
Y17560300D03*
X5144200Y18835300D03*
X4760340Y19681560D03*
X4757800Y19463120D03*
X5014340Y19681560D03*
X5138800Y19463120D03*
X4887340Y19681560D03*
X5011800Y19463120D03*
X4884800D03*
X4633340Y19681560D03*
X4630800Y19463120D03*
X4760340Y20072720D03*
X4887340D03*
X5014340D03*
X4794200Y20335300D03*
X4633340Y20072720D03*
X5416780Y300500D03*
Y377260D03*
Y224860D03*
X5603060Y114220D03*
X5526300D03*
X5678700D03*
X5527420Y486780D03*
X5679820D03*
X5603060D03*
X5342000Y530500D03*
X5532500Y1424040D03*
Y1523100D03*
X5571720Y2764300D03*
Y2688660D03*
X5681240Y2578020D03*
X5571720Y2841060D03*
X5682360Y2950580D03*
X5496940Y2994300D03*
X5555360Y3697340D03*
Y3796400D03*
X5697600Y5028300D03*
X5696480Y4655740D03*
X5586960Y4842020D03*
Y4918780D03*
Y4766380D03*
X5512180Y5072020D03*
X5559640Y5991080D03*
Y6090140D03*
X5164200Y6722600D03*
X5544600Y6793600D03*
X5383300Y6768200D03*
X5278500Y7230600D03*
X5164200Y7232700D03*
X5253100Y7066300D03*
X5631500Y7555600D03*
X5541500D03*
X5294200Y8238400D03*
X5669200Y8241400D03*
X5494200Y8241200D03*
X5392800Y8838300D03*
Y8939900D03*
X5659500Y9117700D03*
X5583300Y9168500D03*
X5418900Y9485300D03*
X5684900Y9757400D03*
X5410200D03*
X5425700Y9630900D03*
X5678590Y10693720D03*
X5634100Y11085300D03*
X5586300Y10936800D03*
X5192650Y10895700D03*
X5319600Y10936800D03*
X5278500Y11086200D03*
X5352500Y11659900D03*
X5659500Y11314800D03*
X5596000Y11378300D03*
X5176870Y11933980D03*
X5612500Y11852020D03*
X5507100Y13270600D03*
X5443600Y13359500D03*
X5202300Y13397600D03*
X5596000Y13423000D03*
X5494400Y13867500D03*
X5299500Y13626200D03*
X5249500Y13702400D03*
X5697600D03*
X5696650Y14920610D03*
X5288900Y15131220D03*
X5172330Y14875920D03*
X5704250Y15472290D03*
X5390060Y16169950D03*
X5596540Y16036710D03*
X5704500Y16357510D03*
X5405500Y15953950D03*
X5709680Y16514290D03*
X5508640Y16688150D03*
X5409440Y16919950D03*
X5369200Y16410300D03*
X5240680Y17069950D03*
X5601400Y17119950D03*
X5498390Y17475640D03*
X5354500Y17258370D03*
X5244200Y19035300D03*
X5674740Y19679020D03*
X5294200Y19785300D03*
Y19285300D03*
X5672200Y20075260D03*
X5545200D03*
X5294200Y20335300D03*
Y20085300D03*
X6131140Y-399560D03*
X5789340Y376140D03*
Y223740D03*
Y300500D03*
X6171780Y1873740D03*
X5944280Y2687540D03*
Y2764300D03*
X5833640Y2578020D03*
X5758000D03*
X5944280Y2839940D03*
X5834760Y2950580D03*
X5758000D03*
X6187020Y4167360D03*
X5850000Y5028300D03*
X5848880Y4655740D03*
X5959520Y4917660D03*
Y4765260D03*
Y4842020D03*
X5773240Y5028300D03*
Y4655740D03*
X5844200Y6735300D03*
X6192900Y7161900D03*
X6015100D03*
X6192900Y6966900D03*
X6197600Y7661900D03*
X5994200Y7839500D03*
X6194200Y7836300D03*
X6010400Y7661900D03*
X5764300Y7596900D03*
X5926200Y8939900D03*
Y8851000D03*
X6244200Y8835300D03*
X6194200Y8583000D03*
X5772100Y9335300D03*
X5773100Y9485300D03*
X6056700Y10095600D03*
X5768600Y9630900D03*
X6218300Y10502000D03*
X6034330Y10438500D03*
X6128180D03*
X5950380Y10489300D03*
X5856530D03*
X6034330Y10692500D03*
X6128180D03*
X5773800Y10679800D03*
X5799200Y11264000D03*
X6218300Y11022700D03*
X5748400Y11530700D03*
X6234400Y11755900D03*
X6180200Y11327500D03*
X6090200Y11860900D03*
X6243700Y12755100D03*
X5913500Y12838800D03*
X6243700Y12628100D03*
Y13263100D03*
X6096380Y13097880D03*
X5761100Y13283300D03*
X6243700Y13390100D03*
X6167490Y14045290D03*
X5989700Y13664300D03*
X6152560Y14536850D03*
X6194200Y14260300D03*
X5968320Y15122750D03*
X5734570Y15219360D03*
X5967860Y14923600D03*
X5869690Y15244170D03*
X5860470Y15023700D03*
X5932840Y15573600D03*
X5932380Y15467020D03*
X5951370Y15754000D03*
X5842500Y15665580D03*
X5930500Y15362890D03*
X5899950Y15973600D03*
X5953070Y16223600D03*
X5868800Y16354310D03*
X5949500Y15869950D03*
X5950900Y16073600D03*
X5952320Y16874560D03*
X5944100Y16532580D03*
X5945500Y16424770D03*
X5949500Y16719950D03*
X5839640Y17375030D03*
X5756710Y17255380D03*
X5949500Y17119950D03*
X5950610Y17002340D03*
X5944500Y17474950D03*
X5943440Y17323110D03*
X5944330Y17602080D03*
X5799500Y17673500D03*
X5926200Y19460580D03*
X5928740Y19679020D03*
X6055740D03*
X6182740D03*
X6180200Y19460580D03*
X6053200D03*
X5801740Y19679020D03*
X5799200Y19460580D03*
X6180200Y20075260D03*
X6053200D03*
X5926200D03*
X5799200D03*
X5794200Y20335300D03*
X6766140Y-145560D03*
X6639140D03*
X6512140D03*
X6766140Y-18560D03*
X6639140D03*
X6766140Y108440D03*
X6639140D03*
X6766140Y235440D03*
X6639140D03*
X6766140Y362440D03*
X6639140D03*
X6766140Y489440D03*
X6639140D03*
X6766140Y616440D03*
X6639140D03*
X6766140Y743440D03*
X6639140D03*
X6766140Y870440D03*
X6639140D03*
Y997440D03*
X6766140D03*
Y1124440D03*
X6639140D03*
X6806780Y2127740D03*
X6679780D03*
X6552780D03*
X6806780Y2254740D03*
X6679780D03*
X6806780Y2381740D03*
X6679780D03*
X6806780Y2508740D03*
X6679780D03*
X6806780Y2635740D03*
X6679780D03*
X6806780Y2762740D03*
X6679780D03*
X6806780Y2889740D03*
X6679780D03*
X6806780Y3016740D03*
X6679780D03*
X6806780Y3143740D03*
X6679780D03*
Y3270740D03*
X6806780D03*
Y3397740D03*
X6679780D03*
X6695020Y4421360D03*
X6822020D03*
X6568020D03*
X6822020Y4548360D03*
X6695020D03*
X6822020Y4675360D03*
X6695020D03*
X6822020Y4802360D03*
X6695020D03*
X6822020Y4929360D03*
X6695020D03*
X6822020Y5183360D03*
X6695020D03*
X6822020Y5310360D03*
X6695020D03*
X6822020Y5437360D03*
X6695020D03*
Y5564360D03*
X6822020D03*
Y5056360D03*
X6695020D03*
Y5691360D03*
X6822020D03*
X6344200Y6735300D03*
X6840600Y6730220D03*
X6824300Y7285300D03*
X6510970Y6780900D03*
X6510400Y6882500D03*
X6815200Y7025800D03*
X6535800Y7294800D03*
X6827900Y7441300D03*
Y7530200D03*
X6815200Y7675800D03*
X6459400Y7466900D03*
X6461030Y7643070D03*
X6485000Y7570050D03*
X6777100Y7885300D03*
X6497700D03*
X6485000Y8025500D03*
X6480470Y8114930D03*
X6345300Y8533500D03*
X6319900Y8622400D03*
X6345300Y8444600D03*
X6418000D03*
X6456700Y10095600D03*
X6627100Y10110700D03*
X6757500Y11258200D03*
X6612000Y11276700D03*
X6502900Y11754100D03*
X6676600Y11950900D03*
X6319200Y12110300D03*
X6744200Y12885300D03*
Y12460300D03*
X6769200Y13185300D03*
X6535790Y13930980D03*
X6364350Y13924650D03*
X6544200Y13610300D03*
X6707260Y13988160D03*
X6297430Y14585630D03*
X6419620Y14778250D03*
X6736170Y15669950D03*
X6429660Y15745060D03*
X6373910Y15650770D03*
X6735500Y15940630D03*
Y16094550D03*
X6643830Y16348550D03*
X6731520Y15819950D03*
X6430760Y16158180D03*
X6355070Y16023600D03*
X6430780Y15923600D03*
Y16275890D03*
X6472300Y16483700D03*
X6355500Y16623320D03*
X6396970Y16824270D03*
X6725560Y17172460D03*
X6356500Y17023600D03*
X6396970Y17173600D03*
X6319200Y17885300D03*
X6794200Y18835300D03*
X6436740Y19679020D03*
X6434200Y19460580D03*
X6563740Y19679020D03*
X6690740D03*
X6817740D03*
X6561200Y19460580D03*
X6815200D03*
X6688200D03*
X6309740Y19679020D03*
X6307200Y19460580D03*
X6434200Y20075260D03*
X6815200D03*
X6688200D03*
X6561200D03*
X6794200Y20335300D03*
X6307200Y20075260D03*
X6294200Y20335300D03*
X7401140Y-272560D03*
X6966160Y-155720D03*
X6893140Y-272560D03*
X7020140Y235440D03*
Y362440D03*
X7147140Y108440D03*
X7020140Y489440D03*
X7147140D03*
X6893140Y108440D03*
Y235440D03*
Y362440D03*
Y489440D03*
X7401140D03*
X7403700Y238000D03*
X7279000Y240300D03*
X7401140Y362440D03*
X7274140D03*
X7020140Y616440D03*
Y743440D03*
Y870440D03*
Y997440D03*
X7147140Y616440D03*
Y743440D03*
Y870440D03*
Y997440D03*
X6893140Y616440D03*
Y743440D03*
Y870440D03*
Y997440D03*
X7401140Y616440D03*
Y743440D03*
Y870440D03*
Y997440D03*
X7110000Y1210000D03*
X7231000Y1276000D03*
X7110000Y1591000D03*
Y1464000D03*
X7231000Y1530000D03*
X7110000Y1337000D03*
X7231000Y1403000D03*
X7020140Y1124440D03*
X7147140D03*
X6893140D03*
X7360100Y1442060D03*
Y1541120D03*
X7401140Y1124440D03*
X7231000Y1784000D03*
Y1657000D03*
X7110000Y1718000D03*
X7006800Y2117580D03*
X6933780Y2000740D03*
X7060780Y2508740D03*
Y2635740D03*
Y2762740D03*
X7187780Y2381740D03*
Y2762740D03*
X6933780Y2381740D03*
Y2508740D03*
Y2635740D03*
Y2762740D03*
X7316040Y2510000D03*
X7314780Y2635740D03*
X7060780Y2889740D03*
X7187780D03*
X7060780Y3016740D03*
Y3143740D03*
Y3270740D03*
X7187780Y3016740D03*
Y3143740D03*
Y3270740D03*
X6933780Y2889740D03*
Y3016740D03*
Y3143740D03*
Y3270740D03*
X7101000Y3884000D03*
Y3757000D03*
Y3630000D03*
Y3503000D03*
X7222000Y3569000D03*
Y3696000D03*
Y3823000D03*
X7060780Y3397740D03*
X7187780D03*
X6933780D03*
X7398200Y3715360D03*
Y3814420D03*
X7101000Y4011000D03*
X7222000Y3950000D03*
Y4077000D03*
X7022040Y4411200D03*
X6946390Y4293440D03*
X6949020Y4675360D03*
Y4802360D03*
Y4929360D03*
X7076020Y4802360D03*
Y4929360D03*
X7203020Y4675360D03*
X7328660Y4801000D03*
X7330020Y4929360D03*
X6949020Y5183360D03*
Y5310360D03*
Y5437360D03*
X7076020Y5183360D03*
Y5310360D03*
Y5437360D03*
X7203020Y5183360D03*
Y5310360D03*
Y5437360D03*
X6949020Y5564360D03*
X7076020D03*
X7203020D03*
X6949020Y5056360D03*
X7076020D03*
X7203020D03*
X7209000Y6100000D03*
Y5973000D03*
Y5846000D03*
X7088000Y5780000D03*
Y5907000D03*
Y6034000D03*
Y6161000D03*
X6949020Y5691360D03*
X7076020D03*
X7203020D03*
X7414900Y6008320D03*
Y6107380D03*
X7209000Y6354000D03*
Y6227000D03*
X7088000Y6288000D03*
X6967600Y6730100D03*
X7069200Y7294800D03*
X6944200Y7160300D03*
X7056500Y6793600D03*
Y6882500D03*
X7394200Y7710300D03*
X7069200Y7441300D03*
Y7530200D03*
X7361300Y7898500D03*
Y8000100D03*
X7043800Y8152500D03*
Y8254100D03*
X7138500Y8476900D03*
X7374000Y8609700D03*
X7228500Y8476900D03*
X7269200Y9735300D03*
X6916800Y10095600D03*
X7269200Y11010300D03*
X7365090Y11721200D03*
X7412100Y11657700D03*
X7145680Y11657980D03*
X7081900Y11733900D03*
X7132700Y12295600D03*
X7119200Y11960300D03*
X7178300Y12755100D03*
X7165600Y12628100D03*
X7170800Y13257900D03*
X6894200Y13935300D03*
X7183500Y13854800D03*
X7202550Y14051650D03*
X7194200Y14260300D03*
X7319200Y17685300D03*
Y18285300D03*
X7294200Y18835300D03*
X7069200Y19460580D03*
X7071740Y19679020D03*
X7196200Y19460580D03*
X7294200Y19335300D03*
X6944740Y19679020D03*
X6942200Y19460580D03*
X7294200Y20335300D03*
Y20035300D03*
X6942200Y20075260D03*
X7763700Y-128000D03*
X7676000Y-49000D03*
X7528140Y489440D03*
X7655140D03*
X7789780Y168000D03*
X7790000Y-59000D03*
X7763680Y391840D03*
Y264840D03*
X7718640Y44940D03*
X7528140Y-18560D03*
X7763120Y745420D03*
Y618420D03*
X7761540Y964980D03*
X7528140Y616440D03*
Y743440D03*
Y870440D03*
Y997440D03*
X7655140Y616440D03*
Y743440D03*
Y870440D03*
Y997440D03*
X7528140Y1124440D03*
X7655140D03*
X7761540Y1091980D03*
X7815160Y2150600D03*
X7441780Y2000740D03*
X7717440Y2237560D03*
X7568780Y2762740D03*
X7695780D03*
X7441780D03*
X7851310Y2420410D03*
X7826580Y2250000D03*
X7454810Y2521770D03*
X7441780Y2635740D03*
X7804720Y2666780D03*
Y2539780D03*
X7759280Y2318240D03*
X7568780Y2254740D03*
X7804720Y3017300D03*
Y2890300D03*
X7568780Y2889740D03*
X7695780D03*
X7802180Y3240820D03*
X7568780Y3016740D03*
Y3143740D03*
Y3270740D03*
X7695780Y3016740D03*
Y3143740D03*
Y3270740D03*
X7441780Y2889740D03*
Y3016740D03*
Y3143740D03*
Y3270740D03*
X7568780Y3397740D03*
X7695780D03*
X7441780D03*
X7802180Y3367820D03*
X7830400Y4444220D03*
X7457020Y4294360D03*
X7774520Y4611860D03*
X7860000Y4741000D03*
X7811000Y4526000D03*
X7462000Y4807340D03*
X7457020Y4929360D03*
X7818500Y4960360D03*
Y4833360D03*
X7584020Y4548360D03*
X7818500Y5183360D03*
Y5310360D03*
X7584020Y5183360D03*
Y5310360D03*
Y5437360D03*
X7711020Y5183360D03*
Y5310360D03*
Y5437360D03*
X7818500Y5564360D03*
X7584020D03*
X7711020D03*
X7457020Y5183360D03*
Y5310360D03*
Y5437360D03*
Y5564360D03*
X7584020Y5056360D03*
X7711020D03*
X7457020D03*
X7584020Y5691360D03*
X7711020D03*
X7457020D03*
X7818500D03*
X7479200Y6644800D03*
X7767300Y7035300D03*
X7494200Y7160300D03*
X7488300Y7301600D03*
X7491900Y7025800D03*
X7755000Y7675800D03*
Y8275800D03*
X7780400Y8038200D03*
Y8139800D03*
X7767700Y8597000D03*
X7988550Y8444600D03*
X7894700D03*
X7744200Y9735300D03*
X7894200Y11610300D03*
X7819200Y12260300D03*
X7494200Y11960300D03*
X7536200Y12295600D03*
X7819200Y12960300D03*
X7501000Y12628100D03*
X7819200Y13485300D03*
X7494200Y13860300D03*
X7819200Y14235300D03*
X7694200Y18835300D03*
X7494200Y19085300D03*
X7694200Y19335300D03*
X7494200Y19585300D03*
X7694200Y20335300D03*
Y20035300D03*
Y19835300D03*
X8148700Y-282720D03*
X8025000Y-47000D03*
X8029000Y154000D03*
X8288400Y396240D03*
Y297180D03*
Y47360D03*
Y-51700D03*
X8285380Y749820D03*
Y650760D03*
X8283800Y997320D03*
X8288400Y1434200D03*
Y1548500D03*
X8283800Y1096380D03*
X8199500Y1990580D03*
X8050940Y2330940D03*
X8326980Y2671180D03*
Y2572120D03*
Y2320660D03*
Y2221600D03*
Y3021700D03*
Y2922640D03*
X8324440Y3273160D03*
X8329040Y3821800D03*
Y3707500D03*
X8324440Y3372220D03*
X8199500Y4284200D03*
X8108690Y4550050D03*
X8104500Y4704990D03*
X8340760Y4614760D03*
Y4515700D03*
Y4964760D03*
Y4865700D03*
Y5314760D03*
Y5215700D03*
Y5565700D03*
X8343200Y6114760D03*
Y6000460D03*
X8340760Y5664760D03*
X8034400Y6644800D03*
X8534400Y6654800D03*
X8293100Y6793600D03*
Y6896100D03*
X8481000Y6949100D03*
X8391200D03*
X8288400Y7428600D03*
X8287840Y7549740D03*
X8015900Y8285300D03*
X8288400D03*
X8034400Y7894800D03*
X8094200Y9885300D03*
X8369200Y10460300D03*
X8294200Y11460300D03*
X8194200Y11910300D03*
X8344200Y13485300D03*
X8094200Y13860300D03*
X8344200Y14235300D03*
X8194200Y14685300D03*
Y15285300D03*
Y16285300D03*
Y17285300D03*
Y18285300D03*
Y18985300D03*
X8019200Y20285300D03*
X8620200Y6569000D03*
X8819200Y15285300D03*
Y16285300D03*
Y17285300D03*
Y18285300D03*
Y19285300D03*
Y20285300D03*
X9478860Y2377340D03*
X9471240Y3286660D03*
X9619200Y14685300D03*
Y15285300D03*
Y16285300D03*
Y17285300D03*
Y18285300D03*
Y20285300D03*
G54D15*
X0Y0D03*
Y1000000D03*
Y2000000D03*
X568000D03*
X858000Y0D03*
X1108000Y2000000D03*
X1425000Y500000D03*
Y1500000D03*
Y2500000D03*
Y3500000D03*
X1900000Y0D03*
Y1000000D03*
Y2000000D03*
X2758000Y0D03*
X2468000Y2000000D03*
X3325000Y500000D03*
Y1500000D03*
X3008000Y2000000D03*
X3325000Y2500000D03*
Y3500000D03*
G54D24*
X7952500Y17903950D03*
X7698500D03*
X7952500Y17649950D03*
X7698500D03*
X7952500Y18157950D03*
X7698500D03*
G54D25*
G01X-981550Y1999950D02*
X-971880Y1993110D01*
X-958210Y1987920D01*
X-945250Y1989100D01*
X-932990Y1996650D01*
X-925450Y2008900D01*
X-924030Y2024460D01*
X-930400Y2039310D01*
X-942180Y2051090D01*
X-946430Y2060990D01*
X-945250Y2073960D01*
X-937710Y2086210D01*
X-924270Y2092570D01*
X-908950Y2091400D01*
X-896690Y2084800D01*
X-890090Y2072540D01*
X-888910Y2057220D01*
X-895280Y2043780D01*
X-907540Y2036240D01*
X-920500Y2035060D01*
X-930400Y2039310D01*
X-942180Y2051090D01*
X-957030Y2057450D01*
X-972590Y2056040D01*
X-984840Y2048500D01*
X-992390Y2036240D01*
X-993570Y2023280D01*
X-988380Y2009610D01*
X-981550Y1999950D01*
G01X2710870Y-1164700D02*
Y-1044700D01*
X2750870D01*
X2764200Y-1050700D01*
X2774200Y-1064700D01*
X2777530Y-1080700D01*
X2774200Y-1096700D01*
X2765870Y-1108700D01*
X2750870Y-1114700D01*
X2710870D01*
G01X2881870Y-1054700D02*
X2871870Y-1048700D01*
X2860200Y-1044700D01*
X2846870D01*
X2831860Y-1050700D01*
X2820200Y-1060700D01*
X2811870Y-1072700D01*
X2805200Y-1092700D01*
X2803530Y-1110700D01*
X2806870Y-1128700D01*
X2811870Y-1140700D01*
X2821870Y-1152700D01*
X2833530Y-1160700D01*
X2845200Y-1164700D01*
X2856870D01*
X2868530Y-1160700D01*
X2878530Y-1154700D01*
X2886870Y-1146700D01*
G01X2946200Y-1044700D02*
X2932860Y-1048700D01*
X2922870Y-1058700D01*
X2916200Y-1070700D01*
X2911200Y-1086700D01*
X2909530Y-1104700D01*
X2911200Y-1122700D01*
X2916200Y-1138700D01*
X2922870Y-1150700D01*
X2932860Y-1160700D01*
X2946200Y-1164700D01*
X2959530Y-1160700D01*
X2969530Y-1150700D01*
X2976200Y-1138700D01*
X2981200Y-1122700D01*
X2982870Y-1104700D01*
X2981200Y-1086700D01*
X2976200Y-1070700D01*
X2969530Y-1058700D01*
X2959530Y-1048700D01*
X2946200Y-1044700D01*
G01X3067200Y-1164700D02*
Y-1044700D01*
X3005530Y-1130700D01*
X3088870D01*
G01X3119870Y-1150700D02*
X3131530Y-1160700D01*
X3144870Y-1164700D01*
X3158200Y-1160700D01*
X3169870Y-1148700D01*
X3178200Y-1130700D01*
X3181530Y-1112700D01*
Y-1090700D01*
X3178200Y-1072700D01*
X3169870Y-1056700D01*
X3159870Y-1048700D01*
X3148200Y-1044700D01*
X3134860Y-1048700D01*
X3124870Y-1056700D01*
X3118200Y-1068700D01*
X3114870Y-1084700D01*
X3118200Y-1098700D01*
X3126530Y-1112700D01*
X3136530Y-1120700D01*
X3148200Y-1122700D01*
X3161530Y-1118700D01*
X3171530Y-1108700D01*
X3181530Y-1090700D01*
G01X3207530Y-1164700D02*
X3249200Y-1044700D01*
X3290870Y-1164700D01*
G01X3275870Y-1122700D02*
X3222530D01*
G01X3431200Y-1044700D02*
X3471200D01*
G01X3451200D02*
Y-1164700D01*
G01X3431200D02*
X3471200D01*
G01X3517200Y-1148700D02*
X3530530Y-1158700D01*
X3545530Y-1164700D01*
X3558870D01*
X3572200Y-1158700D01*
X3582200Y-1148700D01*
X3587200Y-1134700D01*
X3583870Y-1120700D01*
X3575530Y-1108700D01*
X3560530Y-1100700D01*
X3540530Y-1096700D01*
X3528870Y-1088700D01*
X3523870Y-1074700D01*
X3527200Y-1060700D01*
X3535530Y-1050700D01*
X3547200Y-1044700D01*
X3558870D01*
X3570530Y-1048700D01*
X3580530Y-1058700D01*
G01X3618200Y-1148700D02*
X3631530Y-1158700D01*
X3646530Y-1164700D01*
X3659870D01*
X3673200Y-1158700D01*
X3683200Y-1148700D01*
X3688200Y-1134700D01*
X3684870Y-1120700D01*
X3676530Y-1108700D01*
X3661530Y-1100700D01*
X3641530Y-1096700D01*
X3629870Y-1088700D01*
X3624870Y-1074700D01*
X3628200Y-1060700D01*
X3636530Y-1050700D01*
X3648200Y-1044700D01*
X3659870D01*
X3671530Y-1048700D01*
X3681530Y-1058700D01*
G01X3717530Y-1044700D02*
Y-1130700D01*
X3724200Y-1148700D01*
X3737530Y-1160700D01*
X3754200Y-1164700D01*
X3770870Y-1160700D01*
X3784200Y-1148700D01*
X3790870Y-1130700D01*
Y-1044700D01*
G01X3888530Y-1164700D02*
X3821870D01*
Y-1044700D01*
X3888530D01*
G01X3861870Y-1102700D02*
X3821870D01*
G01X4057200Y-1164700D02*
Y-1044700D01*
X4037200Y-1068700D01*
G01Y-1164700D02*
X4077200D01*
G01X4510870Y-1044700D02*
Y-1164700D01*
X4577530D01*
G01X4603530D02*
X4645200Y-1044700D01*
X4686870Y-1164700D01*
G01X4671870Y-1122700D02*
X4618530D01*
G01X4746200Y-1164700D02*
Y-1110700D01*
X4712870Y-1044700D01*
G01X4779530D02*
X4746200Y-1110700D01*
G01X4880530Y-1164700D02*
X4813870D01*
Y-1044700D01*
X4880530D01*
G01X4853870Y-1102700D02*
X4813870D01*
G01X4914870Y-1164700D02*
Y-1044700D01*
X4956530D01*
X4969870Y-1050700D01*
X4978200Y-1058700D01*
X4981530Y-1074700D01*
X4978200Y-1090700D01*
X4968200Y-1100700D01*
X4956530Y-1106700D01*
X4914870D01*
G01X4956530D02*
X4981530Y-1164700D01*
G01X5150200D02*
X5161870Y-1162700D01*
X5175200Y-1156700D01*
X5183530Y-1146700D01*
X5186870Y-1132700D01*
X5183530Y-1118700D01*
X5173530Y-1106700D01*
X5158530Y-1100700D01*
X5141870D01*
X5131870Y-1096700D01*
X5123530Y-1086700D01*
X5120200Y-1072700D01*
X5125200Y-1058700D01*
X5136860Y-1048700D01*
X5150200Y-1044700D01*
X5163530Y-1048700D01*
X5175200Y-1058700D01*
X5180200Y-1072700D01*
X5176870Y-1086700D01*
X5168530Y-1096700D01*
X5158530Y-1100700D01*
X5141870D01*
X5126870Y-1106700D01*
X5116870Y-1118700D01*
X5113530Y-1132700D01*
X5116870Y-1146700D01*
X5125200Y-1156700D01*
X5138530Y-1162700D01*
X5150200Y-1164700D01*
G01X5343870Y-1204700D02*
X5327200Y-1184700D01*
X5318870Y-1164700D01*
Y-1084700D01*
X5327200Y-1064700D01*
X5343870Y-1044700D01*
G01X5418200Y-1148700D02*
X5431530Y-1158700D01*
X5446530Y-1164700D01*
X5459870D01*
X5473200Y-1158700D01*
X5483200Y-1148700D01*
X5488200Y-1134700D01*
X5484870Y-1120700D01*
X5476530Y-1108700D01*
X5461530Y-1100700D01*
X5441530Y-1096700D01*
X5429870Y-1088700D01*
X5424870Y-1074700D01*
X5428200Y-1060700D01*
X5436530Y-1050700D01*
X5448200Y-1044700D01*
X5459870D01*
X5471530Y-1048700D01*
X5481530Y-1058700D01*
G01X5534200Y-1044700D02*
X5574200D01*
G01X5554200D02*
Y-1164700D01*
G01X5534200D02*
X5574200D01*
G01X5665200Y-1104700D02*
X5698530D01*
Y-1140700D01*
X5688530Y-1152700D01*
X5676870Y-1160700D01*
X5660200Y-1164700D01*
X5643530Y-1160700D01*
X5631870Y-1152700D01*
X5621870Y-1140700D01*
X5615200Y-1126700D01*
X5611870Y-1110700D01*
Y-1096700D01*
X5615200Y-1084700D01*
X5621870Y-1070700D01*
X5631870Y-1058700D01*
X5641860Y-1050700D01*
X5655200Y-1044700D01*
X5666870D01*
X5680200Y-1048700D01*
X5690200Y-1056700D01*
G01X5717870Y-1164700D02*
Y-1044700D01*
X5794530Y-1164700D01*
Y-1044700D01*
G01X5815530Y-1164700D02*
X5857200Y-1044700D01*
X5898870Y-1164700D01*
G01X5883870Y-1122700D02*
X5830530D01*
G01X5924870Y-1044700D02*
Y-1164700D01*
X5991530D01*
G01X6067530Y-1204700D02*
X6084200Y-1184700D01*
X6092530Y-1164700D01*
Y-1084700D01*
X6084200Y-1064700D01*
X6067530Y-1044700D01*
G54D16*
X0Y2750000D03*
Y2280000D03*
Y3250000D03*
X233000Y3710000D03*
X1193000D03*
X713000D03*
X1425000Y2750000D03*
Y2280000D03*
Y3250000D03*
X1900000Y2750000D03*
Y2280000D03*
Y3250000D03*
X2133000Y3710000D03*
X2613000D03*
X3325000Y2750000D03*
Y2280000D03*
Y3250000D03*
X3093000Y3710000D03*
G54D26*
G01X1874900Y5218800D02*
X1738520D01*
G03X1667810Y5189510I1J-100000D01*
G01X1561290Y5082990D01*
G03X1532000Y5012280I70710J-70711D01*
G01Y4663320D01*
G02X1502710Y4592610I-100000J1D01*
G01X1254390Y4344290D01*
G02X1183680Y4315000I-70711J70710D01*
G01X1099250D01*
G03X1028540Y4285710I1J-100000D01*
G01X871540Y4128710D01*
G03X842250Y4058000I70710J-70711D01*
G01Y3688370D01*
G02X812960Y3617660I-100000J1D01*
G01X676910Y3481610D01*
G02X609050Y3453500I-67858J67850D01*
G01X569300D01*
G03X498550Y3382750I0J-70750D01*
G01Y3345400D01*
G03X515770Y3303830I58780J-3D01*
G02X533000Y3262240I-41580J-41590D01*
G01Y2831200D01*
G01X453000D02*
Y3407010D01*
G02X537590Y3491600I84590J0D01*
G01X600060D01*
G03X670770Y3520890I-1J100000D01*
G01X787560Y3637680D01*
G03X816850Y3708390I-70710J70711D01*
G01Y3753030D01*
X800000Y3769880D01*
Y4135580D01*
G02X829290Y4206290I100000J-1D01*
G01X948910Y4325910D01*
G02X1019620Y4355200I70711J-70710D01*
G01X1160380D01*
G03X1231090Y4384490I-1J100000D01*
G01X1413810Y4567210D01*
G03X1443100Y4637920I-70710J70711D01*
G01Y5282300D01*
G01X1951100Y4952100D02*
Y4290780D01*
G02X1921810Y4220070I-100000J1D01*
G01X1269190Y3567450D01*
G03X1239900Y3496740I70710J-70711D01*
G01Y3355220D01*
G02X1210610Y3284510I-100000J1D01*
G01X962290Y3036190D01*
G03X933000Y2965480I70710J-70711D01*
G01Y2831200D01*
G01X1887600Y5104500D02*
X1820390Y5037290D01*
G03X1791100Y4966580I70710J-70711D01*
G01Y4285780D01*
G02X1768630Y4231530I-76720J-2D01*
G01X1746150Y4209050D01*
Y4207880D01*
G02X1717420Y4179150I-28730J0D01*
G01X1716250D01*
X1352740Y3815640D01*
G03X1323450Y3744930I70710J-70711D01*
G01Y3734990D01*
G02X1294160Y3664280I-100000J1D01*
G01X1192990Y3563110D01*
G03X1163700Y3492400I70710J-70711D01*
G01Y3406020D01*
G02X1134410Y3335310I-100000J1D01*
G01X802290Y3003190D01*
G03X773000Y2932480I70710J-70711D01*
G01Y2831200D01*
G01X1874900Y5004650D02*
Y4990200D01*
X1871100Y4986400D01*
Y4308420D01*
G02X1841810Y4237710I-100000J1D01*
G01X1398700Y3794600D01*
G03X1376890Y3741940I52660J-52656D01*
G02X1355070Y3689260I-74500J-1D01*
G01X1216440Y3550630D01*
G03X1201800Y3515280I35360J-35351D01*
G01Y3380620D01*
G02X1172510Y3309910I-100000J1D01*
G01X882290Y3019690D01*
G03X853000Y2948980I70710J-70711D01*
G01Y2831200D01*
G01X693000D02*
Y2901580D01*
G02X722290Y2972290I100000J-1D01*
G01X974660Y3224660D01*
G03X1003950Y3295370I-70710J70711D01*
G01Y3372220D01*
X1045510Y3413780D01*
G03X1074800Y3484490I-70710J70711D01*
G01Y3716880D01*
G02X1104090Y3787590I100000J-1D01*
G01X1667810Y4351310D01*
G03X1697100Y4422020I-70710J70711D01*
G01Y4999580D01*
G02X1726390Y5070290I100000J-1D01*
G01X1747900Y5091800D01*
G01X613000Y2831200D02*
Y2881580D01*
G02X642290Y2952290I100000J-1D01*
G01X913710Y3223710D01*
G03X943000Y3294420I-70710J70711D01*
G01Y3365580D01*
G02X972290Y3436290I100000J-1D01*
G01X985710Y3449710D01*
G03X1015000Y3520420I-70710J70711D01*
G01Y3695180D01*
G02X1044290Y3765890I100000J-1D01*
G01X1279180Y4000780D01*
G03X1306190Y4065990I-65210J65209D01*
G02X1333200Y4131200I92220J1D01*
G01X1601810Y4399810D01*
G03X1631100Y4470520I-70710J70711D01*
G01Y5009780D01*
G02X1660390Y5080490I100000J-1D01*
G01X1705910Y5126010D01*
G02X1776620Y5155300I70711J-70710D01*
G01X1811400D01*
G01X2179700Y12775300D02*
Y11280020D01*
G02X2150410Y11209310I-100000J1D01*
G01X1434290Y10493190D01*
G03X1405000Y10422480I70710J-70711D01*
G01Y8511420D01*
G03X1434290Y8440710I100000J1D01*
G01X1477310Y8397690D01*
G02X1506600Y8326980I-70710J-70711D01*
G01Y7377800D01*
G01X2433000Y2526400D02*
X2318120D01*
G02X2247410Y2555690I1J100000D01*
G01X2135290Y2667810D01*
G02X2106000Y2738520I70710J70711D01*
G01Y2805580D01*
G02X2135290Y2876290I100000J-1D01*
G01X2242710Y2983710D01*
G03X2272000Y3054420I-70710J70711D01*
G01Y3126580D01*
G03X2242710Y3197290I-100000J-1D01*
G01X1942290Y3497710D01*
G02X1913000Y3568420I70710J70711D01*
G01Y4085180D01*
G02X1942290Y4155890I100000J-1D01*
G01X1991670Y4205270D01*
G03X2020960Y4275980I-70710J70711D01*
G01Y5018620D01*
G03X1991670Y5089330I-100000J-1D01*
G01X1982140Y5098860D01*
G02X1952850Y5169570I70710J70711D01*
G01Y5534730D01*
G02X1982140Y5605440I100000J-1D01*
G01X2186710Y5810010D01*
G03X2216000Y5880720I-70710J70711D01*
G01Y7597130D01*
G02X2245290Y7667840I100000J-1D01*
G01X3462660Y8885210D01*
G03X3491950Y8955920I-70710J70711D01*
G01Y9617150D01*
G02X3512350Y9637550I20400J0D01*
G01X3655030D01*
G03X3725740Y9666840I-1J100000D01*
G01X3744200Y9685300D01*
G01X2673000Y2831200D02*
Y2765700D01*
G02X2636900Y2729600I-36100J0D01*
G01X2302100D01*
G02X2223950Y2807750I0J78150D01*
G01Y2850540D01*
G02X2253240Y2921250I100000J-1D01*
G01X2285710Y2953720D01*
G03X2315000Y3024430I-70710J70711D01*
G01Y3148910D01*
G03X2285710Y3219620I-100000J-1D01*
G01X2018490Y3486840D01*
G02X1989200Y3557550I70710J70711D01*
G01Y4072480D01*
G02X2018490Y4143190I100000J-1D01*
G01X2086910Y4211610D01*
G03X2116200Y4282320I-70710J70711D01*
G01Y5164680D01*
G02X2145490Y5235390I100000J-1D01*
G01X2188510Y5278410D01*
G03X2217800Y5349120I-70710J70711D01*
G01Y5672680D01*
G02X2247090Y5743390I100000J-1D01*
G01X2963210Y6459510D01*
G03X2992500Y6530220I-70710J70711D01*
G01Y7778340D01*
G02X3021790Y7849050I100000J-1D01*
G01X3714910Y8542170D01*
G03X3744200Y8612880I-70710J70711D01*
G01Y9285300D01*
G01X3844200Y9685300D02*
X3862660Y9666840D01*
G02X3891950Y9596130I-70710J-70711D01*
G01Y9222620D01*
G02X3862660Y9151910I-100000J1D01*
G01X3839290Y9128540D01*
G03X3810000Y9057830I70710J-70711D01*
G01Y8533900D01*
G02X3780710Y8463190I-100000J1D01*
G01X3275790Y7958270D01*
G03X3246500Y7887560I70710J-70711D01*
G01Y6708020D01*
G02X3217210Y6637310I-100000J1D01*
G01X2348690Y5768790D01*
G03X2319400Y5698080I70710J-70711D01*
G01Y4561720D01*
G02X2290110Y4491010I-100000J1D01*
G01X2208990Y4409890D01*
G03X2179700Y4339180I70710J-70711D01*
G01Y3943720D01*
G03X2208990Y3873010I100000J1D01*
G01X2226610Y3855390D01*
G02X2255900Y3784680I-70710J-70711D01*
G01Y3634620D01*
G03X2285190Y3563910I100000J1D01*
G01X2323710Y3525390D01*
G02X2353000Y3454680I-70710J-70711D01*
G01Y2831200D01*
G01X3744200Y9485300D02*
X3715830Y9456930D01*
G02X3658180Y9433050I-57647J57640D01*
G01X3624410D01*
G03X3591950Y9400590I0J-32460D01*
G01Y8996570D01*
G02X3562660Y8925860I-100000J1D01*
G01X2466290Y7829490D01*
G03X2437000Y7758780I70710J-70711D01*
G01Y6050920D01*
G02X2407710Y5980210I-100000J1D01*
G01X2031190Y5603690D01*
G03X2001900Y5532980I70710J-70711D01*
G01Y5196720D01*
G03X2031190Y5126010I100000J1D01*
G01X2052700Y5104500D01*
G01X3744200Y9585300D02*
X3768010Y9561490D01*
G02X3797300Y9490780I-70710J-70711D01*
G01Y9194800D01*
X3784600Y9182100D01*
Y8577080D01*
G02X3755310Y8506370I-100000J1D01*
G01X3142420Y7893480D01*
G03X3113130Y7822770I70710J-70711D01*
G01Y6612750D01*
G02X3083840Y6542040I-100000J1D01*
G01X2297890Y5756090D01*
G03X2268600Y5685380I70710J-70711D01*
G01Y5282300D01*
G01X3744200Y9385300D02*
X3722540Y9363640D01*
G03X3693250Y9292930I70710J-70711D01*
G01Y9047070D01*
G02X3663960Y8976360I-100000J1D01*
G01X2687290Y7999690D01*
G03X2658000Y7928980I70710J-70711D01*
G01Y6233820D01*
G02X2628710Y6163110I-100000J1D01*
G01X2120090Y5654490D01*
G03X2090800Y5583780I70710J-70711D01*
G01Y5282300D01*
G01X3444200Y10885300D02*
X3422450Y10907050D01*
G03X3351740Y10936340I-70711J-70710D01*
G01X3116960D01*
G02X3094100Y10959200I0J22860D01*
G01Y11385140D01*
G03X3064810Y11455850I-100000J-1D01*
G01X2833830Y11686830D01*
G02X2804540Y11757540I70710J70711D01*
G01Y12830400D01*
G03X2775250Y12901110I-100000J-1D01*
G01X1824090Y13852270D01*
G02X1794800Y13922980I70710J70711D01*
G01Y14002900D01*
G01X1994800D02*
Y13918560D01*
G03X2024090Y13847850I100000J1D01*
G01X2841290Y13030650D01*
G02X2870580Y12959940I-70710J-70711D01*
G01Y12094580D01*
G01X2833000Y2831200D02*
Y3005680D01*
G02X2862290Y3076390I100000J-1D01*
G01X3026710Y3240810D01*
G03X3056000Y3311520I-70710J70711D01*
G01Y3378930D01*
G02X3085290Y3449640I100000J-1D01*
G01X3328020Y3692370D01*
G02X3398730Y3721660I70711J-70710D01*
G01X3406240D01*
G03X3476950Y3750950I-1J100000D01*
G01X4050330Y4324330D01*
G03X4079620Y4395040I-70710J70711D01*
G01Y6109560D01*
G02X4108910Y6180270I100000J-1D01*
G01X4200190Y6271550D01*
G03X4229480Y6342260I-70710J70711D01*
G01Y7887560D01*
G02X4258770Y7958270I100000J-1D01*
G01X4433870Y8133370D01*
G03X4463160Y8204080I-70710J70711D01*
G01Y8464140D01*
G03X4433870Y8534850I-100000J-1D01*
G01X4423870Y8544850D01*
G02X4394580Y8615560I70710J70711D01*
G01Y9188820D01*
X4422520Y9216760D01*
Y9328520D01*
X4394580Y9356460D01*
Y9417420D01*
G03X4376800Y9435200I-17780J0D01*
G01X4318380D01*
G02X4292980Y9460600I0J25400D01*
G01Y9506320D01*
G03X4262500Y9536800I-30480J0D01*
G01X4237120D01*
G03X4166410Y9507510I1J-100000D01*
G01X4144200Y9485300D01*
G01X2753000Y2831200D02*
Y3213580D01*
G02X2782290Y3284290I100000J-1D01*
G01X3025130Y3527130D01*
G02X3092650Y3555100I67519J-67510D01*
G03X3160170Y3583070I1J95480D01*
G01X3936030Y4358930D01*
G03X3965320Y4429640I-70710J70711D01*
G01Y6084160D01*
G02X3994610Y6154870I100000J-1D01*
G01X4144310Y6304570D01*
G03X4173600Y6375280I-70710J70711D01*
G01Y7938360D01*
G02X4202890Y8009070I100000J-1D01*
G01X4385610Y8191790D01*
G03X4414900Y8262500I-70710J70711D01*
G01Y8459060D01*
G03X4385610Y8529770I-100000J-1D01*
G01X4322270Y8593110D01*
G02X4292980Y8663820I70710J70711D01*
G01Y9111840D01*
G02X4322270Y9182550I100000J-1D01*
G01X4370330Y9230610D01*
G03X4391950Y9282800I-52180J52189D01*
G01Y9313370D01*
G03X4370820Y9334500I-21130J0D01*
G01X4320020D01*
G02X4295520Y9359000I0J24500D01*
G01Y9384400D01*
G03X4277560Y9427760I-61320J0D01*
G01X4261300Y9444020D01*
G02X4244200Y9485300I41270J41278D01*
G01X2513000Y2831200D02*
Y3022000D01*
X2484500Y3050500D01*
Y3357270D01*
G02X2513790Y3427980I100000J-1D01*
G01X2611620Y3525810D01*
G02X2682330Y3555100I70711J-70710D01*
G01X2722480D01*
G03X2793190Y3584390I-1J100000D01*
G01X3696310Y4487510D01*
G03X3725600Y4558220I-70710J70711D01*
G01Y5948580D01*
G02X3754890Y6019290I100000J-1D01*
G01X4090980Y6355380D01*
G03X4120270Y6426090I-70710J70711D01*
G01Y8197450D01*
G02X4149560Y8268160I100000J-1D01*
G01X4351400Y8470000D01*
G01X2789300Y5104500D02*
X2937810Y5253010D01*
G03X2967100Y5323720I-70710J70711D01*
G01Y5901280D01*
G02X2996390Y5971990I100000J-1D01*
G01X3257660Y6233260D01*
G03X3284600Y6298300I-65040J65039D01*
G02X3311540Y6363340I91980J1D01*
G01X3697270Y6749070D01*
G03X3726560Y6819780I-70710J70711D01*
G01Y7920580D01*
G02X3755850Y7991290I100000J-1D01*
G01X4083350Y8318790D01*
G03X4112640Y8389500I-70710J70711D01*
G01Y9128390D01*
G02X4141930Y9199100I100000J-1D01*
G01X4165860Y9223030D01*
G03X4195150Y9293740I-70710J70711D01*
G01Y9403720D01*
G03X4162620Y9436250I-32530J0D01*
G01X4123880D01*
G02X4095150Y9464980I0J28730D01*
G01Y9494830D01*
G02X4124440Y9565540I100000J-1D01*
G01X4144200Y9585300D01*
G01X2725800Y5155300D02*
X2874310Y5303810D01*
G03X2903600Y5374520I-70710J70711D01*
G01Y5888580D01*
G02X2932890Y5959290I100000J-1D01*
G01X3217210Y6243610D01*
G03X3246500Y6314320I-70710J70711D01*
G01Y6421980D01*
G02X3275790Y6492690I100000J-1D01*
G01X3464840Y6681740D01*
G03X3494130Y6752450I-70710J70711D01*
G01Y7208160D01*
G02X3523420Y7278870I100000J-1D01*
G01X3605800Y7361250D01*
G03X3635090Y7431960I-70710J70711D01*
G01Y7891680D01*
G02X3664380Y7962390I100000J-1D01*
G01X4046980Y8344990D01*
G03X4076270Y8415700I-70710J70711D01*
G01Y9213410D01*
X4093250Y9230390D01*
Y9292930D01*
G02X4122540Y9363640I100000J-1D01*
G01X4144200Y9385300D01*
G01X2509900Y5155300D02*
Y5206100D01*
X2484500Y5231500D01*
Y5761580D01*
G02X2513790Y5832290I100000J-1D01*
G01X3375940Y6694440D01*
G03X3405230Y6765150I-70710J70711D01*
G01Y7985330D01*
G02X3434520Y8056040I100000J-1D01*
G01X3839510Y8461030D01*
G03X3868800Y8531740I-70710J70711D01*
G01Y8876400D01*
G01X4044200Y9285300D02*
Y8442840D01*
G02X4014910Y8372130I-100000J1D01*
G01X3612410Y7969630D01*
G03X3583120Y7898920I70710J-70711D01*
G01Y7565350D01*
G02X3553830Y7494640I-100000J1D01*
G01X3478980Y7419790D01*
G03X3449690Y7349080I70710J-70711D01*
G01Y6758810D01*
G02X3420400Y6688100I-100000J1D01*
G01X2564590Y5832290D01*
G03X2535300Y5761580I70710J-70711D01*
G01Y5282300D01*
G01X3005200Y14769200D02*
Y14757400D01*
X2814700Y14566900D01*
Y14553300D01*
G01X2852800Y5041000D02*
X3001310Y5189510D01*
G03X3030600Y5260220I-70710J70711D01*
G01Y5901280D01*
G02X3059890Y5971990I100000J-1D01*
G01X3293410Y6205510D01*
G03X3322700Y6276220I-70710J70711D01*
G01Y6279740D01*
G02X3351990Y6350450I100000J-1D01*
G01X3916980Y6915440D01*
G03X3946270Y6986150I-70710J70711D01*
G01Y7418930D01*
G02X3975560Y7489640I100000J-1D01*
G01X4024930Y7539010D01*
G03X4054220Y7609720I-70710J70711D01*
G01Y8189820D01*
G02X4083510Y8260530I100000J-1D01*
G01X4116370Y8293390D01*
G03X4145660Y8364100I-70710J70711D01*
G01Y8420170D01*
X4145150Y8420680D01*
Y8685390D01*
X4145660Y8685900D01*
Y9069690D01*
G02X4174950Y9140400I100000J-1D01*
G01X4268240Y9233690D01*
G03X4291950Y9290930I-57230J57236D01*
G03X4268230Y9348190I-80970J1D01*
G01X4244200Y9372220D01*
Y9385300D01*
G01X3475100Y13550000D02*
Y13228520D01*
G02X3450970Y13170270I-82370J-1D01*
G03X3426840Y13112020I58240J-58249D01*
G01Y12598280D01*
G03X3456130Y12527570I100000J1D01*
G01X3471210Y12512490D01*
G02X3500500Y12441780I-70710J-70711D01*
G01Y11597520D01*
G02X3471210Y11526810I-100000J1D01*
G01X3425740Y11481340D01*
G03X3396450Y11410630I70710J-70711D01*
G01Y11274470D01*
G03X3425740Y11203760I100000J1D01*
G01X3444200Y11185300D01*
G01X3344200Y10985300D02*
X3319010Y11010490D01*
G03X3256700Y11036300I-62306J-62300D01*
G01X3220200D01*
G02X3188150Y11068350I0J32050D01*
G01Y11278700D01*
G02X3217320Y11349120I99580J3D01*
G03X3246500Y11419560I-70430J70440D01*
G01Y11478360D01*
G03X3227450Y11524350I-65030J4D01*
G02X3208400Y11570340I45980J45986D01*
G01Y12367360D01*
G03X3189350Y12413350I-65030J4D01*
G02X3170300Y12459340I45980J45986D01*
G01Y12561580D01*
G02X3195700Y12622900I86710J4D01*
G03X3221100Y12684220I-61310J61316D01*
G01Y13410300D01*
G02X3269730Y13458930I48630J0D01*
G01X3271900D01*
G01X3344200Y11185300D02*
X3325740Y11203760D01*
G02X3296450Y11274470I70710J70711D01*
G01Y11477760D01*
G02X3315920Y11524770I66480J3D01*
G01X3315930Y11524780D01*
G03X3335400Y11571790I-47010J47007D01*
G01Y12543380D01*
G03X3306110Y12614090I-100000J-1D01*
G01X3301190Y12619010D01*
G02X3271900Y12689720I70710J70711D01*
G01Y13343480D01*
G02X3301190Y13414190I100000J-1D01*
G01X3335400Y13448400D01*
Y13486500D01*
X3271900Y13550000D01*
G01X4351400Y13181700D02*
X4398310Y13134790D01*
G02X4427600Y13064080I-70710J-70711D01*
G01Y12753220D01*
G02X4398310Y12682510I-100000J1D01*
G01X3923490Y12207690D01*
G03X3894200Y12136980I70710J-70711D01*
G01Y11176720D01*
G02X3864910Y11106010I-100000J1D01*
G01X3844200Y11085300D01*
G01X4135500Y13245200D02*
Y12550020D01*
G02X4106210Y12479310I-100000J1D01*
G01X3821890Y12194990D01*
G03X3792600Y12124280I70710J-70711D01*
G01Y11075120D01*
G02X3763310Y11004410I-100000J1D01*
G01X3744200Y10985300D01*
G01X3970400Y13296000D02*
Y12473820D01*
G02X3941110Y12403110I-100000J1D01*
G01X3720290Y12182290D01*
G03X3691000Y12111580I70710J-70711D01*
G01Y11893920D01*
X3691950Y11892970D01*
Y11174470D01*
G02X3662660Y11103760I-100000J1D01*
G01X3644200Y11085300D01*
G01X3805300Y13461100D02*
G03X3781650Y13404010I57080J-57089D01*
G01Y12588120D01*
G02X3752360Y12517410I-100000J1D01*
G01X3621740Y12386790D01*
G03X3592450Y12316080I70710J-70711D01*
G01Y11074970D01*
G02X3563160Y11004260I-100000J1D01*
G01X3544200Y10985300D01*
G01X3551300Y13435700D02*
X3542490Y13426890D01*
G03X3513200Y13356180I70710J-70711D01*
G01Y12785820D01*
G03X3538600Y12724500I86710J-4D01*
G02X3564000Y12663180I-61310J-61316D01*
G01Y12521300D01*
X3538590Y12495890D01*
Y12153010D01*
X3538600Y12153000D01*
Y11383030D01*
G02X3515560Y11327400I-78670J-4D01*
G03X3492500Y11271730I55660J-55667D01*
G01Y11175020D01*
G02X3463210Y11104310I-100000J1D01*
G01X3444200Y11085300D01*
G01X3640200Y11568800D02*
Y12136980D01*
G02X3669490Y12207690I100000J-1D01*
G01X3814110Y12352310D01*
G03X3843400Y12423020I-70710J70711D01*
G01Y13258890D01*
G02X3858040Y13294240I50000J-1D01*
G01X3905150Y13341350D01*
Y13459350D01*
X3906900Y13461100D01*
Y13580700D01*
X3899500Y13588100D01*
G01X3868800Y13677000D02*
X3853150Y13661350D01*
G03X3830700Y13607150I54200J-54199D01*
G03X3853150Y13552950I76650J-1D01*
G01X3853160Y13552940D01*
G02X3879750Y13488740I-64200J-64196D01*
G01Y13351880D01*
X3832640Y13304770D01*
G03X3818000Y13269420I35360J-35351D01*
G01Y12470620D01*
G02X3788710Y12399910I-100000J1D01*
G01X3694200Y12305400D01*
G01X6472300Y16483700D02*
X6485000Y16471000D01*
Y16423520D01*
G03X6514290Y16352810I100000J1D01*
G01X6544610Y16322490D01*
G02X6573900Y16251780I-70710J-70711D01*
G01Y14315320D01*
G02X6544610Y14244610I-100000J1D01*
G01X6133290Y13833290D01*
G03X6104000Y13762580I70710J-70711D01*
G01Y13337420D01*
G02X6074710Y13266710I-100000J1D01*
G01X4952190Y12144190D01*
G03X4922900Y12073480I70710J-70711D01*
G01Y11610220D01*
G02X4893610Y11539510I-100000J1D01*
G01X4723590Y11369490D01*
G03X4694300Y11298780I70710J-70711D01*
G01Y10975220D01*
G02X4665010Y10904510I-100000J1D01*
G01X4561030Y10800530D01*
G03X4531740Y10729820I70710J-70711D01*
G01Y10416420D01*
G02X4502450Y10345710I-100000J1D01*
G01X4213900Y10057160D01*
G03X4191000Y10001880I55270J-55279D01*
G01Y9969500D01*
G03X4224920Y9935580I33920J0D01*
G01X4668900D01*
G02X4696840Y9907640I0J-27940D01*
G01Y9679360D01*
G02X4667550Y9608650I-100000J1D01*
G01X4644200Y9585300D01*
G01X5535040Y9930500D02*
X5532490Y9933050D01*
X4758570D01*
G02X4687860Y9962340I1J100000D01*
G01X4644850Y10005350D01*
G03X4574140Y10034640I-70711J-70710D01*
G01X4334960D01*
G03X4264250Y10005350I1J-100000D01*
G01X4244200Y9985300D01*
G01X5507100Y13270600D02*
Y12943720D01*
G02X5477810Y12873010I-100000J1D01*
G01X4723590Y12118790D01*
G03X4694300Y12048080I70710J-70711D01*
G01Y11622920D01*
G02X4665010Y11552210I-100000J1D01*
G01X4521240Y11408440D01*
G03X4491950Y11337730I70710J-70711D01*
G01Y11074470D01*
G02X4462660Y11003760I-100000J1D01*
G01X4444200Y10985300D01*
G01Y11185300D02*
Y11328080D01*
G02X4473490Y11398790I100000J-1D01*
G01X4607860Y11533160D01*
G03X4637150Y11603870I-70710J70711D01*
G01Y12067130D01*
G02X4666440Y12137840I100000J-1D01*
G01X5414310Y12885710D01*
G03X5443600Y12956420I-70710J70711D01*
G01Y13359500D01*
G01X5100700Y12978500D02*
X4393390Y12271190D01*
G03X4364100Y12200480I70710J-70711D01*
G01Y11470520D01*
G02X4334810Y11399810I-100000J1D01*
G01X4321240Y11386240D01*
G03X4291950Y11315530I70710J-70711D01*
G01Y11074470D01*
G02X4262660Y11003760I-100000J1D01*
G01X4244200Y10985300D01*
G01X4144200Y11085300D02*
X4162660Y11103760D01*
G03X4191950Y11174470I-70710J70711D01*
G01Y12142630D01*
G02X4221240Y12213340I100000J-1D01*
G01X4861860Y12853960D01*
G03X4891150Y12924670I-70710J70711D01*
G01Y12972150D01*
G01X4637150Y12997550D02*
Y12784970D01*
G02X4607860Y12714260I-100000J1D01*
G01X4126690Y12233090D01*
G03X4097400Y12162380I70710J-70711D01*
G01Y11893920D01*
X4096450Y11892970D01*
Y11178970D01*
G02X4067160Y11108260I-100000J1D01*
G01X4044200Y11085300D01*
G01X5761100Y13283300D02*
Y13108820D01*
G02X5731810Y13038110I-100000J1D01*
G01X4774390Y12080690D01*
G03X4745100Y12009980I70710J-70711D01*
G01Y11584820D01*
G02X4715810Y11514110I-100000J1D01*
G01X4660090Y11458390D01*
G03X4630800Y11387680I70710J-70711D01*
G01Y11213320D01*
G02X4601510Y11142610I-100000J1D01*
G01X4544200Y11085300D01*
G01X8287840Y7549740D02*
X8242830Y7504310D01*
X8230190Y7504250D01*
X8218070D01*
X8179400Y7542920D01*
Y9613020D01*
X6878720Y10913700D01*
X5735690D01*
X5647690Y10825700D01*
X5535500D01*
X5531100Y10821300D01*
X5352900D01*
X5230750Y10943450D01*
X5172860D01*
X5163210Y10933800D01*
X4892700D01*
X4844200Y10885300D01*
G01X8288400Y7428600D02*
X8242970Y7473610D01*
X8230270Y7473550D01*
X8205350D01*
X8148700Y7530200D01*
Y9600300D01*
X6866000Y10883000D01*
X5748410D01*
X5660410Y10795000D01*
X5540730D01*
X5541630Y10795900D01*
X5342370D01*
X5326220Y10812050D01*
X5276300D01*
X5192650Y10895700D01*
G01X7145680Y11657980D02*
Y11632020D01*
X8021700Y10756000D01*
Y10196640D01*
X8407400Y9810940D01*
Y7162800D01*
X8342150Y7097550D01*
Y6842650D01*
X8293100Y6793600D01*
G01Y6896100D02*
Y7086600D01*
X8382000Y7175500D01*
Y9800410D01*
X7991000Y10191410D01*
Y10743280D01*
X7081900Y11652380D01*
Y11733900D01*
G54D17*
X0Y3000000D03*
X1900000D03*
G54D27*
G01X-744250Y6773250D02*
X-657500Y6860000D01*
G01D02*
X-570750Y6946750D01*
G01X-744250Y7535250D02*
X-657500Y7622000D01*
G01D02*
X-570750Y7708750D01*
G01X-744250Y8297250D02*
X-657500Y8384000D01*
G01D02*
X-570750Y8470750D01*
G01X-744250Y9059250D02*
X-657500Y9146000D01*
G01D02*
X-570750Y9232750D01*
G01X-744250Y9821250D02*
X-657500Y9908000D01*
G01D02*
X-570750Y9994750D01*
G01X-744250Y10583250D02*
X-657500Y10670000D01*
G01D02*
X-570750Y10756750D01*
G01X-744250Y11345250D02*
X-657500Y11432000D01*
G01D02*
X-570750Y11518750D01*
G01X-744250Y12107250D02*
X-657500Y12194000D01*
G01D02*
X-570750Y12280750D01*
G01X-744250Y12869250D02*
X-657500Y12956000D01*
G01D02*
X-570750Y13042750D01*
G01X-88520Y1911480D02*
X0Y2000000D01*
G01D02*
X88520Y2088520D01*
G01X-84980Y2195020D02*
X0Y2280000D01*
G01D02*
X84980Y2364980D01*
G01X-84980Y2665020D02*
X0Y2750000D01*
G01X-81450Y2918550D02*
X0Y3000000D01*
G01D02*
X81450Y3081450D01*
G01X-84980Y3165020D02*
X0Y3250000D01*
G01D02*
X84980Y3334980D01*
G01X0Y2750000D02*
X84980Y2834980D01*
G01X-490250Y7027250D02*
X-403500Y7114000D01*
G01D02*
X-316750Y7200750D01*
G01X-236250Y6773250D02*
X-149500Y6860000D01*
G01D02*
X-62750Y6946750D01*
G01X-490250Y7281250D02*
X-403500Y7368000D01*
G01D02*
X-316750Y7454750D01*
G01X-490250Y7535250D02*
X-403500Y7622000D01*
G01D02*
X-316750Y7708750D01*
G01X-490250Y7789250D02*
X-403500Y7876000D01*
G01X-236250Y7535250D02*
X-149500Y7622000D01*
G01D02*
X-62750Y7708750D01*
G01X-490250Y8043250D02*
X-403500Y8130000D01*
G01D02*
X-316750Y8216750D01*
G01X-490250Y8297250D02*
X-403500Y8384000D01*
G01D02*
X-316750Y8470750D01*
G01X-236250Y8297250D02*
X-149500Y8384000D01*
G01D02*
X-62750Y8470750D01*
G01X-403500Y7876000D02*
X-316750Y7962750D01*
G01X-490250Y8551250D02*
X-403500Y8638000D01*
G01D02*
X-316750Y8724750D01*
G01X-490250Y8805250D02*
X-403500Y8892000D01*
G01D02*
X-316750Y8978750D01*
G01X-490250Y9059250D02*
X-403500Y9146000D01*
G01D02*
X-316750Y9232750D01*
G01X-490250Y9313250D02*
X-403500Y9400000D01*
G01D02*
X-316750Y9486750D01*
G01X-236250Y9059250D02*
X-149500Y9146000D01*
G01D02*
X-62750Y9232750D01*
G01X-490250Y9567250D02*
X-403500Y9654000D01*
G01D02*
X-316750Y9740750D01*
G01X-490250Y9821250D02*
X-403500Y9908000D01*
G01D02*
X-316750Y9994750D01*
G01X-490250Y10075250D02*
X-403500Y10162000D01*
G01X-236250Y9821250D02*
X-149500Y9908000D01*
G01D02*
X-62750Y9994750D01*
G01X-490250Y10329250D02*
X-403500Y10416000D01*
G01D02*
X-316750Y10502750D01*
G01X-490250Y10583250D02*
X-403500Y10670000D01*
G01D02*
X-316750Y10756750D01*
G01X-236250Y10583250D02*
X-149500Y10670000D01*
G01D02*
X-62750Y10756750D01*
G01X-403500Y10162000D02*
X-316750Y10248750D01*
G01X-490250Y10837250D02*
X-403500Y10924000D01*
G01D02*
X-316750Y11010750D01*
G01X-490250Y11091250D02*
X-403500Y11178000D01*
G01D02*
X-316750Y11264750D01*
G01X-490250Y11345250D02*
X-403500Y11432000D01*
G01D02*
X-316750Y11518750D01*
G01X-490250Y11599250D02*
X-403500Y11686000D01*
G01D02*
X-316750Y11772750D01*
G01X-236250Y11345250D02*
X-149500Y11432000D01*
G01D02*
X-62750Y11518750D01*
G01X-490250Y11853250D02*
X-403500Y11940000D01*
G01D02*
X-316750Y12026750D01*
G01X-490250Y12107250D02*
X-403500Y12194000D01*
G01D02*
X-316750Y12280750D01*
G01X-490250Y12361250D02*
X-403500Y12448000D01*
G01X-236250Y12107250D02*
X-149500Y12194000D01*
G01D02*
X-62750Y12280750D01*
G01X-490250Y12615250D02*
X-403500Y12702000D01*
G01D02*
X-316750Y12788750D01*
G01X-490250Y12869250D02*
X-403500Y12956000D01*
G01D02*
X-316750Y13042750D01*
G01X-236250Y12869250D02*
X-149500Y12956000D01*
G01D02*
X-62750Y13042750D01*
G01X-403500Y12448000D02*
X-316750Y12534750D01*
G01X-490250Y13123250D02*
X-403500Y13210000D01*
G01D02*
X-316750Y13296750D01*
G01X-490250Y13377250D02*
X-403500Y13464000D01*
G01D02*
X-316750Y13550750D01*
G01X-157900Y14693100D02*
Y14774400D01*
G01D02*
Y14855700D01*
G01X-239200Y14774400D02*
X-157900D01*
G01D02*
X-76600D01*
G01X479480Y1911480D02*
X568000Y2000000D01*
G01D02*
X656520Y2088520D01*
G01X148020Y3625020D02*
X233000Y3710000D01*
G01D02*
X317980Y3794980D01*
G01X769480Y-88520D02*
X858000Y0D01*
G01D02*
X946520Y88520D01*
G01X1019480Y1911480D02*
X1108000Y2000000D01*
G01D02*
X1196520Y2088520D01*
G01X628020Y3625020D02*
X713000Y3710000D01*
G01X628020Y3794980D02*
X713000Y3710000D01*
G01X1336480Y411480D02*
X1425000Y500000D01*
G01D02*
X1513520Y588520D01*
G01X1336480Y1411480D02*
X1425000Y1500000D01*
G01D02*
X1513520Y1588520D01*
G01X1336480Y2411480D02*
X1425000Y2500000D01*
G01D02*
X1513520Y2588520D01*
G01X1340020Y2195020D02*
X1425000Y2280000D01*
G01D02*
X1509980Y2364980D01*
G01X1340020Y2665020D02*
X1425000Y2750000D01*
G01X1340020Y3165020D02*
X1425000Y3250000D01*
G01D02*
X1509980Y3334980D01*
G01X1425000Y2750000D02*
X1509980Y2834980D01*
G01X1336480Y3411480D02*
X1425000Y3500000D01*
G01D02*
X1513520Y3588520D01*
G01X1714270Y14122370D02*
X1794800Y14202900D01*
G01X1514270Y14122370D02*
X1594800Y14202900D01*
G01D02*
X1675330Y14283430D01*
G01X1314270Y14122370D02*
X1394800Y14202900D01*
G01D02*
X1475330Y14283430D01*
G01X1811480Y-88520D02*
X1900000Y0D01*
G01D02*
X1988520Y88520D01*
G01X1811480Y911480D02*
X1900000Y1000000D01*
G01D02*
X1988520Y1088520D01*
G01X1811480Y1911480D02*
X1900000Y2000000D01*
G01D02*
X1988520Y2088520D01*
G01X1815020Y2195020D02*
X1900000Y2280000D01*
G01D02*
X1984980Y2364980D01*
G01X1815020Y2665020D02*
X1900000Y2750000D01*
G01X1818550Y2918550D02*
X1900000Y3000000D01*
G01D02*
X1981450Y3081450D01*
G01X1815020Y3165020D02*
X1900000Y3250000D01*
G01D02*
X1984980Y3334980D01*
G01X1900000Y2750000D02*
X1984980Y2834980D01*
G01X2048020Y3625020D02*
X2133000Y3710000D01*
G01X2048020Y3794980D02*
X2133000Y3710000D01*
G01X2114270Y14122370D02*
X2194800Y14202900D01*
G01D02*
X2275330Y14283430D01*
G01X1914270Y14122370D02*
X1994800Y14202900D01*
G01D02*
X2075330Y14283430D01*
G01X1794800Y14202900D02*
X1875330Y14283430D01*
G01X2669480Y-88520D02*
X2758000Y0D01*
G01D02*
X2846520Y88520D01*
G01X2379480Y1911480D02*
X2468000Y2000000D01*
G01D02*
X2556520Y2088520D01*
G01X2528020Y3625020D02*
X2613000Y3710000D01*
G01D02*
X2697980Y3794980D01*
G01X3144200Y13308000D02*
X2983820D01*
G02X2913110Y13337290I1J100000D01*
G01X2424090Y13826310D01*
G02X2394800Y13897020I70710J70711D01*
G01Y14002900D01*
G01X3236480Y411480D02*
X3325000Y500000D01*
G01D02*
X3413520Y588520D01*
G01X3236480Y1411480D02*
X3325000Y1500000D01*
G01D02*
X3413520Y1588520D01*
G01X2919480Y1911480D02*
X3008000Y2000000D01*
G01D02*
X3096520Y2088520D01*
G01X3236480Y2411480D02*
X3325000Y2500000D01*
G01D02*
X3413520Y2588520D01*
G01X3240020Y2195020D02*
X3325000Y2280000D01*
G01D02*
X3409980Y2364980D01*
G01X3240020Y2665020D02*
X3325000Y2750000D01*
G01X3240020Y3165020D02*
X3325000Y3250000D01*
G01D02*
X3409980Y3334980D01*
G01X3325000Y2750000D02*
X3409980Y2834980D01*
G01X3008020Y3625020D02*
X3093000Y3710000D01*
G01D02*
X3177980Y3794980D01*
G01X3236480Y3411480D02*
X3325000Y3500000D01*
G01D02*
X3413520Y3588520D01*
G01X3412750Y13775100D02*
X3484300Y13846650D01*
G01D02*
X3555850Y13918200D01*
G01X7228500Y8476900D02*
Y9336080D01*
G03X7199210Y9406790I-100000J-1D01*
G01X6704790Y9901210D01*
G03X6634080Y9930500I-70711J-70710D01*
G01X5535040D01*
G01X6299150Y10227250D02*
X6370700Y10298800D01*
G01D02*
X6442250Y10370350D01*
G01X7952500Y18060150D02*
Y18157950D01*
G01D02*
Y18255750D01*
G01X7854700Y18157950D02*
X7952500D01*
G01D02*
X8050300D01*
G01X9028500Y6098000D02*
X9115250Y6184750D01*
G01X8941750D02*
X9028500Y6098000D01*
G01X8774500D02*
X8861250Y6184750D01*
G01X8687750D02*
X8774500Y6098000D01*
G01X8941750Y6265250D02*
X9028500Y6352000D01*
G01D02*
X9115250Y6438750D01*
G01X8941750Y7027250D02*
X9028500Y7114000D01*
G01D02*
X9115250Y7200750D01*
G01X8687750Y6773250D02*
X8774500Y6860000D01*
G01D02*
X8861250Y6946750D01*
G01X8941750Y7789250D02*
X9028500Y7876000D01*
G01X8941750Y7535250D02*
X9028500Y7622000D01*
G01D02*
X9115250Y7708750D01*
G01X8941750Y7281250D02*
X9028500Y7368000D01*
G01D02*
X9115250Y7454750D01*
G01X8687750Y7535250D02*
X8774500Y7622000D01*
G01D02*
X8861250Y7708750D01*
G01X8941750Y8297250D02*
X9028500Y8384000D01*
G01D02*
X9115250Y8470750D01*
G01X8941750Y8043250D02*
X9028500Y8130000D01*
G01D02*
X9115250Y8216750D01*
G01X8687750Y8297250D02*
X8774500Y8384000D01*
G01D02*
X8861250Y8470750D01*
G01X9028500Y7876000D02*
X9115250Y7962750D01*
G01X8941750Y8805250D02*
X9028500Y8892000D01*
G01D02*
X9115250Y8978750D01*
G01X8941750Y8551250D02*
X9028500Y8638000D01*
G01D02*
X9115250Y8724750D01*
G01X8941750Y9313250D02*
X9028500Y9400000D01*
G01D02*
X9115250Y9486750D01*
G01X8941750Y9059250D02*
X9028500Y9146000D01*
G01D02*
X9115250Y9232750D01*
G01X8687750Y9059250D02*
X8774500Y9146000D01*
G01D02*
X8861250Y9232750D01*
G01X8941750Y10075250D02*
X9028500Y10162000D01*
G01X8941750Y9821250D02*
X9028500Y9908000D01*
G01D02*
X9115250Y9994750D01*
G01X8941750Y9567250D02*
X9028500Y9654000D01*
G01D02*
X9115250Y9740750D01*
G01X8687750Y9821250D02*
X8774500Y9908000D01*
G01D02*
X8861250Y9994750D01*
G01X8941750Y10583250D02*
X9028500Y10670000D01*
G01D02*
X9115250Y10756750D01*
G01X8941750Y10329250D02*
X9028500Y10416000D01*
G01D02*
X9115250Y10502750D01*
G01X8687750Y10583250D02*
X8774500Y10670000D01*
G01D02*
X8861250Y10756750D01*
G01X9028500Y10162000D02*
X9115250Y10248750D01*
G01X8941750Y11091250D02*
X9028500Y11178000D01*
G01D02*
X9115250Y11264750D01*
G01X8941750Y10837250D02*
X9028500Y10924000D01*
G01D02*
X9115250Y11010750D01*
G01X8941750Y11599250D02*
X9028500Y11686000D01*
G01D02*
X9115250Y11772750D01*
G01X8941750Y11345250D02*
X9028500Y11432000D01*
G01D02*
X9115250Y11518750D01*
G01X8687750Y11345250D02*
X8774500Y11432000D01*
G01D02*
X8861250Y11518750D01*
G01X8941750Y12361250D02*
X9028500Y12448000D01*
G01X8941750Y12107250D02*
X9028500Y12194000D01*
G01D02*
X9115250Y12280750D01*
G01X8941750Y11853250D02*
X9028500Y11940000D01*
G01D02*
X9115250Y12026750D01*
G01X8687750Y12107250D02*
X8774500Y12194000D01*
G01D02*
X8861250Y12280750D01*
G01X8941750Y12869250D02*
X9028500Y12956000D01*
G01D02*
X9115250Y13042750D01*
G01X8941750Y12615250D02*
X9028500Y12702000D01*
G01D02*
X9115250Y12788750D01*
G01X8687750Y12869250D02*
X8774500Y12956000D01*
G01D02*
X8861250Y13042750D01*
G01X9028500Y12448000D02*
X9115250Y12534750D01*
G01X8941750Y13377250D02*
X9028500Y13464000D01*
G01D02*
X9115250Y13550750D01*
G01X8941750Y13123250D02*
X9028500Y13210000D01*
G01D02*
X9115250Y13296750D01*
G01X9282500Y6098000D02*
X9369250Y6184750D01*
G01X9195750D02*
X9282500Y6098000D01*
G01X9195750Y6773250D02*
X9282500Y6860000D01*
G01D02*
X9369250Y6946750D01*
G01X9195750Y7535250D02*
X9282500Y7622000D01*
G01D02*
X9369250Y7708750D01*
G01X9195750Y8297250D02*
X9282500Y8384000D01*
G01D02*
X9369250Y8470750D01*
G01X9195750Y9059250D02*
X9282500Y9146000D01*
G01D02*
X9369250Y9232750D01*
G01X9195750Y9821250D02*
X9282500Y9908000D01*
G01D02*
X9369250Y9994750D01*
G01X9195750Y10583250D02*
X9282500Y10670000D01*
G01D02*
X9369250Y10756750D01*
G01X9195750Y11345250D02*
X9282500Y11432000D01*
G01D02*
X9369250Y11518750D01*
G01X9195750Y12107250D02*
X9282500Y12194000D01*
G01D02*
X9369250Y12280750D01*
G01X9195750Y12869250D02*
X9282500Y12956000D01*
G01D02*
X9369250Y13042750D01*
G54D18*
X233000Y3090000D03*
X1193000D03*
X2133000D03*
X3093000D03*
G54D19*
X425100Y7979200D03*
X525100Y9262200D03*
X425100Y9979200D03*
X525100Y11262200D03*
X8712500Y1090000D03*
Y1598000D03*
M02*
