.HEADER
BOARD_FILE         3.0  allegro_16.6  2014/05/09.16:35:31  1
pc049a_toplevel_05_dummy.brd  MM
.END_HEADER
.BOARD_OUTLINE  ECAD
    1.5990
0    -55.0000   -130.0000       0.000
0     55.0000   -130.0000       0.000
0     55.0000     75.0000       0.000
0    -55.0000     75.0000       0.000
0    -55.0000   -130.0000       0.000
.END_BOARD_OUTLINE
.ROUTE_OUTLINE  ECAD
ALL
0    -54.0000   -129.0000       0.000
0     54.0000   -129.0000       0.000
0     54.0000     74.0000       0.000
0    -54.0000     74.0000       0.000
0    -54.0000   -129.0000       0.000
.END_ROUTE_OUTLINE
.PLACE_OUTLINE  ECAD
BOTH      0.0000
0    -53.0000   -128.0000       0.000
0     53.0000   -128.0000       0.000
0     53.0000     73.0000       0.000
0    -53.0000     73.0000       0.000
0    -53.0000   -128.0000       0.000
.END_PLACE_OUTLINE
.ROUTE_KEEPOUT  ECAD
TOP
1     25.4800    -83.2000       0.000
1     22.3800    -83.2000       0.000
1     22.3800    -82.2000       0.000
1     25.4800    -82.2000       0.000
1     25.4800    -83.2000       0.000
.END_ROUTE_KEEPOUT
.ROUTE_KEEPOUT  ECAD
TOP
1     16.0000   -129.2800       0.000
1     16.0000    -82.2000       0.000
1     20.6800    -82.2000       0.000
1     20.6800    -83.2000       0.000
1     18.0000    -83.2000       0.000
1     18.0000    -97.7000       0.000
1     30.2500    -97.7000       0.000
1     30.2500    -83.2000       0.000
1     27.1800    -83.2000       0.000
1     27.1800    -82.2000       0.000
1     32.2500    -82.2000       0.000
1     32.2500   -129.2800       0.000
1     16.0000   -129.2800       0.000
.END_ROUTE_KEEPOUT
.ROUTE_KEEPOUT  ECAD
TOP
1     -5.0000   -129.2800       0.000
1     -5.0000    -82.2000       0.000
1     -0.3200    -82.2000       0.000
1     -0.3200    -83.2000       0.000
1     -3.0000    -83.2000       0.000
1     -3.0000    -97.7000       0.000
1      9.2500    -97.7000       0.000
1      9.2500    -83.2000       0.000
1      6.1800    -83.2000       0.000
1      6.1800    -82.2000       0.000
1     11.2500    -82.2000       0.000
1     11.2500   -129.2800       0.000
1     -5.0000   -129.2800       0.000
.END_ROUTE_KEEPOUT
.ROUTE_KEEPOUT  ECAD
TOP
1      4.4800    -83.2000       0.000
1      1.3800    -83.2000       0.000
1      1.3800    -82.2000       0.000
1      4.4800    -82.2000       0.000
1      4.4800    -83.2000       0.000
.END_ROUTE_KEEPOUT
.ROUTE_KEEPOUT  ECAD
BOTTOM
0     49.5400    -70.8200       0.000
0     53.0400    -70.8200     360.000
.END_ROUTE_KEEPOUT
.ROUTE_KEEPOUT  ECAD
BOTTOM
0     49.5400     18.0800       0.000
0     53.0400     18.0800     360.000
.END_ROUTE_KEEPOUT
.VIA_KEEPOUT  ECAD
1     25.4800    -83.2000       0.000
1     22.3800    -83.2000       0.000
1     22.3800    -82.2000       0.000
1     25.4800    -82.2000       0.000
1     25.4800    -83.2000       0.000
.END_VIA_KEEPOUT
.VIA_KEEPOUT  ECAD
1     16.0000    -82.2000       0.000
1     20.6800    -82.2000       0.000
1     20.6800    -83.2000       0.000
1     18.0000    -83.2000       0.000
1     18.0000    -97.7000       0.000
1     30.2500    -97.7000       0.000
1     30.2500    -83.2000       0.000
1     27.1800    -83.2000       0.000
1     27.1800    -82.2000       0.000
1     32.2500    -82.2000       0.000
1     32.2500   -129.2800       0.000
1     16.0000   -129.2800       0.000
1     16.0000    -82.2000       0.000
.END_VIA_KEEPOUT
.VIA_KEEPOUT  ECAD
1     -5.0000    -82.2000       0.000
1     -0.3200    -82.2000       0.000
1     -0.3200    -83.2000       0.000
1     -3.0000    -83.2000       0.000
1     -3.0000    -97.7000       0.000
1      9.2500    -97.7000       0.000
1      9.2500    -83.2000       0.000
1      6.1800    -83.2000       0.000
1      6.1800    -82.2000       0.000
1     11.2500    -82.2000       0.000
1     11.2500   -129.2800       0.000
1     -5.0000   -129.2800       0.000
1     -5.0000    -82.2000       0.000
.END_VIA_KEEPOUT
.VIA_KEEPOUT  ECAD
1      4.4800    -83.2000       0.000
1      1.3800    -83.2000       0.000
1      1.3800    -82.2000       0.000
1      4.4800    -82.2000       0.000
1      4.4800    -83.2000       0.000
.END_VIA_KEEPOUT
.DRILLED_HOLES
    0.4064     18.9941     26.5217  PTH  BOARD  VIA  UNOWNED
    0.4064    -14.9133     29.7500  PTH  BOARD  VIA  UNOWNED
    0.4064    -18.9283     39.7500  PTH  BOARD  VIA  UNOWNED
    0.4064    -14.9345     27.7500  PTH  BOARD  VIA  UNOWNED
    0.4064    -19.3274     29.2500  PTH  BOARD  VIA  UNOWNED
    0.4064     14.7640     30.7500  PTH  BOARD  VIA  UNOWNED
    0.4064    -19.2753     33.2559  PTH  BOARD  VIA  UNOWNED
    0.4064     13.8597     20.2510  PTH  BOARD  VIA  UNOWNED
    0.4064     13.9519     22.4557  PTH  BOARD  VIA  UNOWNED
    0.4064    -18.9410     42.9253  PTH  BOARD  VIA  UNOWNED
    0.4064    -12.6529     37.1864  PTH  BOARD  VIA  UNOWNED
    0.4064    -19.3504     27.2500  PTH  BOARD  VIA  UNOWNED
    0.4064     14.7500     37.2135  PTH  BOARD  VIA  UNOWNED
    0.4064    -15.2028     43.7607  PTH  BOARD  VIA  UNOWNED
    0.4064     14.6894     43.2451  PTH  BOARD  VIA  UNOWNED
    0.4064     14.7000     44.7635  PTH  BOARD  VIA  UNOWNED
    0.4064     14.7611     40.0374  PTH  BOARD  VIA  UNOWNED
    0.4064     14.7500     28.7135  PTH  BOARD  VIA  UNOWNED
    0.4064    -18.7967     32.2500  PTH  BOARD  VIA  UNOWNED
    0.4064    -10.6978     31.6813  PTH  BOARD  VIA  UNOWNED
    0.4064     19.5628     32.7729  PTH  BOARD  VIA  UNOWNED
    0.4064    -19.3620     24.7500  PTH  BOARD  VIA  UNOWNED
    0.4064    -14.6318     23.7500  PTH  BOARD  VIA  UNOWNED
    0.4064     14.5600     23.6429  PTH  BOARD  VIA  UNOWNED
    0.4064    -14.7908     34.6516  PTH  BOARD  VIA  UNOWNED
    0.4064     19.2247     38.2567  PTH  BOARD  VIA  UNOWNED
    0.4064     14.9336     19.2500  PTH  BOARD  VIA  UNOWNED
    0.4064    -19.4165     20.5939  PTH  BOARD  VIA  UNOWNED
    0.4064    -18.9046     41.2682  PTH  BOARD  VIA  UNOWNED
    0.4064     14.7500     41.2135  PTH  BOARD  VIA  UNOWNED
    0.4064    -18.9576     30.2500  PTH  BOARD  VIA  UNOWNED
    0.4064     19.5516     27.4646  PTH  BOARD  VIA  UNOWNED
    0.4064    -14.5857     30.7500  PTH  BOARD  VIA  UNOWNED
    0.4064     19.5628     29.2500  PTH  BOARD  VIA  UNOWNED
    0.4064    -14.6318     22.6710  PTH  BOARD  VIA  UNOWNED
    0.4064    -18.8920     23.5827  PTH  BOARD  VIA  UNOWNED
    0.4064    -14.8049     33.5503  PTH  BOARD  VIA  UNOWNED
    0.4064     19.2247     41.7500  PTH  BOARD  VIA  UNOWNED
    0.4064     18.8057     30.2500  PTH  BOARD  VIA  UNOWNED
    0.4064    -19.3475     25.8033  PTH  BOARD  VIA  UNOWNED
    0.4064    -14.5857     18.7500  PTH  BOARD  VIA  UNOWNED
    0.4064    -14.6000     20.7735  PTH  BOARD  VIA  UNOWNED
    0.4064    -15.2265     19.7500  PTH  BOARD  VIA  UNOWNED
    0.4064     14.9276     17.9234  PTH  BOARD  VIA  UNOWNED
    0.4064    -13.4580     38.3255  PTH  BOARD  VIA  UNOWNED
    0.4064    -14.5741     28.7500  PTH  BOARD  VIA  UNOWNED
    0.4064    -19.0962     22.0883  PTH  BOARD  VIA  UNOWNED
    0.4064     14.7100     34.2617  PTH  BOARD  VIA  UNOWNED
    0.4064     13.6800     26.6698  PTH  BOARD  VIA  UNOWNED
    0.4064    -19.2509     34.9402  PTH  BOARD  VIA  UNOWNED
    0.4064     19.5626     31.5958  PTH  BOARD  VIA  UNOWNED
    0.4064     13.9430     33.5571  PTH  BOARD  VIA  UNOWNED
    0.4064    -14.5857     26.7500  PTH  BOARD  VIA  UNOWNED
    0.4064    -15.1160     41.8142  PTH  BOARD  VIA  UNOWNED
    0.4064    -19.2700     35.9815  PTH  BOARD  VIA  UNOWNED
    0.4064    -14.6854     42.8226  PTH  BOARD  VIA  UNOWNED
    0.4064    -14.8255     39.5600  PTH  BOARD  VIA  UNOWNED
    0.4064    -14.9323     31.7500  PTH  BOARD  VIA  UNOWNED
    0.4064     22.5106     41.7386  PTH  BOARD  VIA  UNOWNED
    0.4064     21.6933     33.4995  PTH  BOARD  VIA  UNOWNED
    0.4064     22.6100     30.9595  PTH  BOARD  VIA  UNOWNED
    0.4064     22.5702     28.2135  PTH  BOARD  VIA  UNOWNED
    0.4064     22.6167     26.7135  PTH  BOARD  VIA  UNOWNED
    0.4064     19.4512     17.7965  PTH  BOARD  VIA  UNOWNED
    0.4064     12.8221     42.5678  PTH  BOARD  VIA  UNOWNED
    0.4064     13.2500     46.7490  PTH  BOARD  VIA  UNOWNED
    0.4064     13.6514     43.7643  PTH  BOARD  VIA  UNOWNED
    0.4064     14.6983     46.0348  PTH  BOARD  VIA  UNOWNED
    0.4064     11.2690     41.2135  PTH  BOARD  VIA  UNOWNED
    0.4064     14.7857     32.2500  PTH  BOARD  VIA  UNOWNED
    0.4064     14.6960     35.3398  PTH  BOARD  VIA  UNOWNED
    0.4064     12.3000     33.5891  PTH  BOARD  VIA  UNOWNED
    0.4064     12.3518     35.1569  PTH  BOARD  VIA  UNOWNED
    0.4064     14.7687     27.5540  PTH  BOARD  VIA  UNOWNED
    0.4064     14.5788     24.6842  PTH  BOARD  VIA  UNOWNED
    0.4064     14.5834     25.7500  PTH  BOARD  VIA  UNOWNED
    0.4064     14.2545     29.7500  PTH  BOARD  VIA  UNOWNED
    0.4064     12.6007     22.2076  PTH  BOARD  VIA  UNOWNED
    0.4064     12.2215     19.2201  PTH  BOARD  VIA  UNOWNED
    0.4064     14.9382     21.2415  PTH  BOARD  VIA  UNOWNED
    0.4064     16.7806     15.3825  PTH  BOARD  VIA  UNOWNED
    0.4064      7.6618     40.7135  PTH  BOARD  VIA  UNOWNED
    0.4064      8.1100     28.0265  PTH  BOARD  VIA  UNOWNED
    0.4064      4.3907     21.2532  PTH  BOARD  VIA  UNOWNED
    0.4064      0.2500     47.1530  PTH  BOARD  VIA  UNOWNED
    0.4064     -1.5550     24.7185  PTH  BOARD  VIA  UNOWNED
    0.4064     -0.3850     23.4485  PTH  BOARD  VIA  UNOWNED
    0.4064    -11.3717     41.2342  PTH  BOARD  VIA  UNOWNED
    0.4064    -11.9158     40.2135  PTH  BOARD  VIA  UNOWNED
    0.4064    -11.9183     42.2587  PTH  BOARD  VIA  UNOWNED
    0.4064     -9.9748     36.0589  PTH  BOARD  VIA  UNOWNED
    0.4064     -8.8538     34.5106  PTH  BOARD  VIA  UNOWNED
    0.4064     -7.9525     32.7135  PTH  BOARD  VIA  UNOWNED
    0.4064     -7.8702     27.7135  PTH  BOARD  VIA  UNOWNED
    0.4064     -7.8417     29.7135  PTH  BOARD  VIA  UNOWNED
    0.4064    -11.7937     18.7368  PTH  BOARD  VIA  UNOWNED
    0.4064    -14.6959     40.7476  PTH  BOARD  VIA  UNOWNED
    0.4064    -14.6791     44.7500  PTH  BOARD  VIA  UNOWNED
    0.4064    -15.1982     45.7500  PTH  BOARD  VIA  UNOWNED
    0.4064    -14.5231     36.2073  PTH  BOARD  VIA  UNOWNED
    0.4064    -22.1596     41.4863  PTH  BOARD  VIA  UNOWNED
    0.4064    -22.1009     39.5452  PTH  BOARD  VIA  UNOWNED
    0.4064    -23.2265     43.7135  PTH  BOARD  VIA  UNOWNED
    0.4064    -22.1179     42.7893  PTH  BOARD  VIA  UNOWNED
    0.4064    -22.0842     44.7135  PTH  BOARD  VIA  UNOWNED
    0.4064    -22.2500     33.5139  PTH  BOARD  VIA  UNOWNED
    0.4064    -22.2142     29.9337  PTH  BOARD  VIA  UNOWNED
    0.4064    -22.2085     25.7135  PTH  BOARD  VIA  UNOWNED
    0.4064    -26.4001     20.4036  PTH  BOARD  VIA  UNOWNED
    0.4064    -22.4505     21.3805  PTH  BOARD  VIA  UNOWNED
    0.4064     18.8200     40.2500  PTH  BOARD  VIA  UNOWNED
    0.4064     18.8100     36.2472  PTH  BOARD  VIA  UNOWNED
    0.4064    -14.8018     38.5188  PTH  BOARD  VIA  UNOWNED
    0.4064     -0.2500     16.7972  PTH  BOARD  VIA  UNOWNED
    0.4064    -14.7103     25.6044  PTH  BOARD  VIA  UNOWNED
    0.4064    -22.3312     23.4983  PTH  BOARD  VIA  UNOWNED
    0.4064     14.7782     38.7596  PTH  BOARD  VIA  UNOWNED
    0.4064    -22.1693     18.1573  PTH  BOARD  VIA  UNOWNED
    0.4064    -22.2500     37.2135  PTH  BOARD  VIA  UNOWNED
    0.4064     22.6100     29.4203  PTH  BOARD  VIA  UNOWNED
    0.4064     -8.9358     22.6535  PTH  BOARD  VIA  UNOWNED
    0.4064    -11.4600     24.2735  PTH  BOARD  VIA  UNOWNED
    0.4064    -11.8900     25.2899  PTH  BOARD  VIA  UNOWNED
    0.4064    -11.8874     30.7135  PTH  BOARD  VIA  UNOWNED
    0.4064     11.2204     30.3811  PTH  BOARD  VIA  UNOWNED
    0.4064    -11.8699     26.7135  PTH  BOARD  VIA  UNOWNED
    0.4064    -22.2500     35.2135  PTH  BOARD  VIA  UNOWNED
    0.4064    -11.8414     22.0249  PTH  BOARD  VIA  UNOWNED
    0.4064     12.2975     24.7369  PTH  BOARD  VIA  UNOWNED
    0.4064      6.9783     18.7732  PTH  BOARD  VIA  UNOWNED
    0.4064     18.2293     15.8703  PTH  BOARD  VIA  UNOWNED
    0.4064     10.2389     44.7704  PTH  BOARD  VIA  UNOWNED
    0.4064     10.3414     36.8955  PTH  BOARD  VIA  UNOWNED
    0.4064      8.8000     42.5977  PTH  BOARD  VIA  UNOWNED
    0.4064      9.3494     39.2135  PTH  BOARD  VIA  UNOWNED
    0.4064      9.1556     31.7135  PTH  BOARD  VIA  UNOWNED
    0.4064      9.3100     29.5535  PTH  BOARD  VIA  UNOWNED
    0.4064      8.1440     21.3262  PTH  BOARD  VIA  UNOWNED
    0.4064      6.6249     19.9688  PTH  BOARD  VIA  UNOWNED
    0.4064      1.0600     28.3535  PTH  BOARD  VIA  UNOWNED
    0.4064     -0.4550     25.9885  PTH  BOARD  VIA  UNOWNED
    0.4064    -11.9158     43.7135  PTH  BOARD  VIA  UNOWNED
    0.4064     -9.9845     37.2458  PTH  BOARD  VIA  UNOWNED
    0.4064     -9.8585     33.9195  PTH  BOARD  VIA  UNOWNED
    0.4064    -11.1938     17.7331  PTH  BOARD  VIA  UNOWNED
    0.4064    -24.1896     24.2733  PTH  BOARD  VIA  UNOWNED
    0.4064    -22.2047     31.3611  PTH  BOARD  VIA  UNOWNED
    0.4064    -22.2461     27.1721  PTH  BOARD  VIA  UNOWNED
    0.4064    -24.9941     18.1387  PTH  BOARD  VIA  UNOWNED
    0.4064    -25.8547     22.7135  PTH  BOARD  VIA  UNOWNED
    0.4064     -8.7825     30.6580  PTH  BOARD  VIA  UNOWNED
    0.4064     -8.9558     21.4035  PTH  BOARD  VIA  UNOWNED
    0.4064     -5.8380     10.6395  PTH  BOARD  VIA  UNOWNED
    0.4064    -13.9660     10.6395  PTH  BOARD  VIA  UNOWNED
    0.9000     24.4600      9.0000  PTH  J9  PIN  UNOWNED
    0.9000     27.0000      9.0000  PTH  J9  PIN  UNOWNED
    0.9000     29.5400      9.0000  PTH  J9  PIN  UNOWNED
    0.9144     30.0000    -73.0000  PTH  J8  PIN  UNOWNED
    0.9144     30.0000    -75.0000  PTH  J8  PIN  UNOWNED
    0.9144     28.0000    -73.0000  PTH  J8  PIN  UNOWNED
    0.9144     28.0000    -75.0000  PTH  J8  PIN  UNOWNED
    0.9144     26.0000    -73.0000  PTH  J8  PIN  UNOWNED
    0.9144     26.0000    -75.0000  PTH  J8  PIN  UNOWNED
    0.9144     24.0000    -73.0000  PTH  J8  PIN  UNOWNED
    0.9144     24.0000    -75.0000  PTH  J8  PIN  UNOWNED
    0.9144     22.0000    -73.0000  PTH  J8  PIN  UNOWNED
    0.9144     22.0000    -75.0000  PTH  J8  PIN  UNOWNED
    0.9144     20.0000    -73.0000  PTH  J8  PIN  UNOWNED
    0.9144     20.0000    -75.0000  PTH  J8  PIN  UNOWNED
    0.9144     18.0000    -73.0000  PTH  J8  PIN  UNOWNED
    0.9144     18.0000    -75.0000  PTH  J8  PIN  UNOWNED
    1.0668     31.2500    -95.0000  PTH  U?  PIN  UNOWNED
    1.0668     31.2500    -85.0000  PTH  U?  PIN  UNOWNED
    1.0668     31.2500   -115.0000  PTH  U?  PIN  UNOWNED
    1.0668     31.2500   -105.0000  PTH  U?  PIN  UNOWNED
    1.0668     25.5800   -120.0000  PTH  U?  PIN  UNOWNED
    1.0668     28.0800   -100.0000  PTH  U?  PIN  UNOWNED
    1.0668     22.6800   -100.0000  PTH  U?  PIN  UNOWNED
    1.0668     17.0000   -120.0000  PTH  U?  PIN  UNOWNED
    1.0668     17.0000   -110.0000  PTH  U?  PIN  UNOWNED
    1.0668     17.0000   -100.0000  PTH  U?  PIN  UNOWNED
    0.9652     31.2500    -97.2000  PTH  U?  PIN  UNOWNED
    0.9652     31.2500    -92.5000  PTH  U?  PIN  UNOWNED
    0.9652     31.2500    -87.5000  PTH  U?  PIN  UNOWNED
    0.9652     28.9300    -82.9000  PTH  U?  PIN  UNOWNED
    0.9652     19.3300    -82.9000  PTH  U?  PIN  UNOWNED
    0.9652     24.1300    -82.9000  PTH  U?  PIN  UNOWNED
    0.9652     17.0000    -97.2000  PTH  U?  PIN  UNOWNED
    0.9652     17.0000    -87.5000  PTH  U?  PIN  UNOWNED
    0.9652     17.0000    -92.5000  PTH  U?  PIN  UNOWNED
    0.8636     17.0000    -90.0000  PTH  U?  PIN  UNOWNED
    1.6256     19.3200    -89.1000  PTH  U?  PIN  UNOWNED
    1.6256     28.9200    -89.1000  PTH  U?  PIN  UNOWNED
    1.6256      7.9200    -89.1000  PTH  U?  PIN  UNOWNED
    1.6256     -1.6800    -89.1000  PTH  U?  PIN  UNOWNED
    0.8636     -4.0000    -90.0000  PTH  U?  PIN  UNOWNED
    0.9652     -4.0000    -92.5000  PTH  U?  PIN  UNOWNED
    0.9652     -4.0000    -87.5000  PTH  U?  PIN  UNOWNED
    0.9652     -4.0000    -97.2000  PTH  U?  PIN  UNOWNED
    0.9652      3.1300    -82.9000  PTH  U?  PIN  UNOWNED
    0.9652     -1.6700    -82.9000  PTH  U?  PIN  UNOWNED
    0.9652      7.9300    -82.9000  PTH  U?  PIN  UNOWNED
    0.9652     10.2500    -87.5000  PTH  U?  PIN  UNOWNED
    0.9652     10.2500    -92.5000  PTH  U?  PIN  UNOWNED
    0.9652     10.2500    -97.2000  PTH  U?  PIN  UNOWNED
    1.0668     -4.0000   -100.0000  PTH  U?  PIN  UNOWNED
    1.0668     -4.0000   -110.0000  PTH  U?  PIN  UNOWNED
    1.0668     -4.0000   -120.0000  PTH  U?  PIN  UNOWNED
    1.0668      1.6800   -100.0000  PTH  U?  PIN  UNOWNED
    1.0668      7.0800   -100.0000  PTH  U?  PIN  UNOWNED
    1.0668      4.5800   -120.0000  PTH  U?  PIN  UNOWNED
    1.0668     10.2500   -105.0000  PTH  U?  PIN  UNOWNED
    1.0668     10.2500   -115.0000  PTH  U?  PIN  UNOWNED
    1.0668     10.2500    -85.0000  PTH  U?  PIN  UNOWNED
    1.0668     10.2500    -95.0000  PTH  U?  PIN  UNOWNED
    1.5500     28.7950    -89.0000  NPTH  J7  PIN  UNOWNED
    1.5500     19.1950    -89.0000  NPTH  J7  PIN  UNOWNED
    1.5500      7.7950    -89.0000  NPTH  J6  PIN  UNOWNED
    1.5500     -1.8050    -89.0000  NPTH  J6  PIN  UNOWNED
    1.7000     44.8500    -82.8000  NPTH  J5  PIN  UNOWNED
    1.4000     43.9500    -97.2000  NPTH  J5  PIN  UNOWNED
    1.7000     41.5000    -99.2000  PTH  J5  PIN  UNOWNED
    1.7000     41.5000    -80.8000  PTH  J5  PIN  UNOWNED
    1.7000     50.4500    -99.2000  PTH  J5  PIN  UNOWNED
    1.7000     50.4500    -80.8000  PTH  J5  PIN  UNOWNED
    1.7000     44.8500   -107.8000  NPTH  J4  PIN  UNOWNED
    1.4000     43.9500   -122.2000  NPTH  J4  PIN  UNOWNED
    1.7000     41.5000   -124.2000  PTH  J4  PIN  UNOWNED
    1.7000     41.5000   -105.8000  PTH  J4  PIN  UNOWNED
    1.7000     50.4500   -124.2000  PTH  J4  PIN  UNOWNED
    1.7000     50.4500   -105.8000  PTH  J4  PIN  UNOWNED
    1.0160     27.6220     69.9460  PTH  J1  PIN  UNOWNED
    1.0160    -30.8610     69.9460  PTH  J1  PIN  UNOWNED
    1.0000     47.0000     13.0000  PTH  J2  PIN  UNOWNED
    1.0000     47.0000     10.4600  PTH  J2  PIN  UNOWNED
    1.0000     47.0000      7.9200  PTH  J2  PIN  UNOWNED
    1.0000     47.0000      5.3800  PTH  J2  PIN  UNOWNED
    1.0000     47.0000      2.8400  PTH  J2  PIN  UNOWNED
    1.0000     47.0000      0.3000  PTH  J2  PIN  UNOWNED
    1.0000     47.0000     -2.2400  PTH  J2  PIN  UNOWNED
    1.0000     47.0000     -4.7800  PTH  J2  PIN  UNOWNED
    1.0000     47.0000     -7.3200  PTH  J2  PIN  UNOWNED
    1.0000     47.0000     -9.8600  PTH  J2  PIN  UNOWNED
    1.0000     47.0000    -12.4000  PTH  J2  PIN  UNOWNED
    1.0000     47.0000    -14.9400  PTH  J2  PIN  UNOWNED
    1.0000     47.0000    -17.4800  PTH  J2  PIN  UNOWNED
    1.0000     47.0000    -20.0200  PTH  J2  PIN  UNOWNED
    1.0000     47.0000    -22.5600  PTH  J2  PIN  UNOWNED
    1.0000     47.0000    -25.1000  PTH  J2  PIN  UNOWNED
    1.0000     47.0000    -27.6400  PTH  J2  PIN  UNOWNED
    1.0000     47.0000    -30.1800  PTH  J2  PIN  UNOWNED
    1.0000     47.0000    -32.7200  PTH  J2  PIN  UNOWNED
    1.0000     47.0000    -35.2600  PTH  J2  PIN  UNOWNED
    1.0000     47.0000    -37.8000  PTH  J2  PIN  UNOWNED
    1.0000     47.0000    -40.3400  PTH  J2  PIN  UNOWNED
    1.0000     47.0000    -42.8800  PTH  J2  PIN  UNOWNED
    1.0000     47.0000    -45.4200  PTH  J2  PIN  UNOWNED
    1.0000     47.0000    -47.9600  PTH  J2  PIN  UNOWNED
    1.0000     47.0000    -50.5000  PTH  J2  PIN  UNOWNED
    1.0000     47.0000    -53.0400  PTH  J2  PIN  UNOWNED
    1.0000     47.0000    -55.5800  PTH  J2  PIN  UNOWNED
    1.0000     47.0000    -58.1200  PTH  J2  PIN  UNOWNED
    1.0000     47.0000    -60.6600  PTH  J2  PIN  UNOWNED
    1.0000     47.0000    -63.2000  PTH  J2  PIN  UNOWNED
    1.0000     47.0000    -65.7400  PTH  J2  PIN  UNOWNED
    1.0000     44.4600     13.0000  PTH  J2  PIN  UNOWNED
    1.0000     44.4600     10.4600  PTH  J2  PIN  UNOWNED
    1.0000     44.4600      7.9200  PTH  J2  PIN  UNOWNED
    1.0000     44.4600      5.3800  PTH  J2  PIN  UNOWNED
    1.0000     44.4600      2.8400  PTH  J2  PIN  UNOWNED
    1.0000     44.4600      0.3000  PTH  J2  PIN  UNOWNED
    1.0000     44.4600     -2.2400  PTH  J2  PIN  UNOWNED
    1.0000     44.4600     -4.7800  PTH  J2  PIN  UNOWNED
    1.0000     44.4600     -7.3200  PTH  J2  PIN  UNOWNED
    1.0000     44.4600     -9.8600  PTH  J2  PIN  UNOWNED
    1.0000     44.4600    -12.4000  PTH  J2  PIN  UNOWNED
    1.0000     44.4600    -14.9400  PTH  J2  PIN  UNOWNED
    1.0000     44.4600    -17.4800  PTH  J2  PIN  UNOWNED
    1.0000     44.4600    -20.0200  PTH  J2  PIN  UNOWNED
    1.0000     44.4600    -22.5600  PTH  J2  PIN  UNOWNED
    1.0000     44.4600    -25.1000  PTH  J2  PIN  UNOWNED
    1.0000     44.4600    -27.6400  PTH  J2  PIN  UNOWNED
    1.0000     44.4600    -30.1800  PTH  J2  PIN  UNOWNED
    1.0000     44.4600    -32.7200  PTH  J2  PIN  UNOWNED
    1.0000     44.4600    -35.2600  PTH  J2  PIN  UNOWNED
    1.0000     44.4600    -37.8000  PTH  J2  PIN  UNOWNED
    1.0000     44.4600    -40.3400  PTH  J2  PIN  UNOWNED
    1.0000     44.4600    -42.8800  PTH  J2  PIN  UNOWNED
    1.0000     44.4600    -45.4200  PTH  J2  PIN  UNOWNED
    1.0000     44.4600    -47.9600  PTH  J2  PIN  UNOWNED
    1.0000     44.4600    -50.5000  PTH  J2  PIN  UNOWNED
    1.0000     44.4600    -53.0400  PTH  J2  PIN  UNOWNED
    1.0000     44.4600    -55.5800  PTH  J2  PIN  UNOWNED
    1.0000     44.4600    -58.1200  PTH  J2  PIN  UNOWNED
    1.0000     44.4600    -60.6600  PTH  J2  PIN  UNOWNED
    1.0000     44.4600    -63.2000  PTH  J2  PIN  UNOWNED
    1.0000     44.4600    -65.7400  PTH  J2  PIN  UNOWNED
    1.0000     41.9200     13.0000  PTH  J2  PIN  UNOWNED
    1.0000     41.9200     10.4600  PTH  J2  PIN  UNOWNED
    1.0000     41.9200      7.9200  PTH  J2  PIN  UNOWNED
    1.0000     41.9200      5.3800  PTH  J2  PIN  UNOWNED
    1.0000     41.9200      2.8400  PTH  J2  PIN  UNOWNED
    1.0000     41.9200      0.3000  PTH  J2  PIN  UNOWNED
    1.0000     41.9200     -2.2400  PTH  J2  PIN  UNOWNED
    1.0000     41.9200     -4.7800  PTH  J2  PIN  UNOWNED
    1.0000     41.9200     -7.3200  PTH  J2  PIN  UNOWNED
    1.0000     41.9200     -9.8600  PTH  J2  PIN  UNOWNED
    1.0000     41.9200    -12.4000  PTH  J2  PIN  UNOWNED
    1.0000     41.9200    -14.9400  PTH  J2  PIN  UNOWNED
    1.0000     41.9200    -17.4800  PTH  J2  PIN  UNOWNED
    1.0000     41.9200    -20.0200  PTH  J2  PIN  UNOWNED
    1.0000     41.9200    -22.5600  PTH  J2  PIN  UNOWNED
    1.0000     41.9200    -25.1000  PTH  J2  PIN  UNOWNED
    1.0000     41.9200    -27.6400  PTH  J2  PIN  UNOWNED
    1.0000     41.9200    -30.1800  PTH  J2  PIN  UNOWNED
    1.0000     41.9200    -32.7200  PTH  J2  PIN  UNOWNED
    1.0000     41.9200    -35.2600  PTH  J2  PIN  UNOWNED
    1.0000     41.9200    -37.8000  PTH  J2  PIN  UNOWNED
    1.0000     41.9200    -40.3400  PTH  J2  PIN  UNOWNED
    1.0000     41.9200    -42.8800  PTH  J2  PIN  UNOWNED
    1.0000     41.9200    -45.4200  PTH  J2  PIN  UNOWNED
    1.0000     41.9200    -47.9600  PTH  J2  PIN  UNOWNED
    1.0000     41.9200    -50.5000  PTH  J2  PIN  UNOWNED
    1.0000     41.9200    -53.0400  PTH  J2  PIN  UNOWNED
    1.0000     41.9200    -55.5800  PTH  J2  PIN  UNOWNED
    1.0000     41.9200    -58.1200  PTH  J2  PIN  UNOWNED
    1.0000     41.9200    -60.6600  PTH  J2  PIN  UNOWNED
    1.0000     41.9200    -63.2000  PTH  J2  PIN  UNOWNED
    1.0000     41.9200    -65.7400  PTH  J2  PIN  UNOWNED
    2.8000     49.5400     18.0800  PTH  J2  PIN  UNOWNED
    2.8000     49.5400    -70.8200  PTH  J2  PIN  UNOWNED
    1.0000    -49.0000    -63.0000  PTH  J3  PIN  UNOWNED
    1.0000    -49.0000    -60.4600  PTH  J3  PIN  UNOWNED
    1.0000    -49.0000    -57.9200  PTH  J3  PIN  UNOWNED
    1.0000    -49.0000    -55.3800  PTH  J3  PIN  UNOWNED
    1.0000    -49.0000    -52.8400  PTH  J3  PIN  UNOWNED
    1.0000    -49.0000    -50.3000  PTH  J3  PIN  UNOWNED
    1.0000    -49.0000    -47.7600  PTH  J3  PIN  UNOWNED
    1.0000    -49.0000    -45.2200  PTH  J3  PIN  UNOWNED
    1.0000    -49.0000    -42.6800  PTH  J3  PIN  UNOWNED
    1.0000    -49.0000    -40.1400  PTH  J3  PIN  UNOWNED
    1.0000    -49.0000    -37.6000  PTH  J3  PIN  UNOWNED
    1.0000    -49.0000    -35.0600  PTH  J3  PIN  UNOWNED
    1.0000    -49.0000    -32.5200  PTH  J3  PIN  UNOWNED
    1.0000    -49.0000    -29.9800  PTH  J3  PIN  UNOWNED
    1.0000    -49.0000    -27.4400  PTH  J3  PIN  UNOWNED
    1.0000    -49.0000    -24.9000  PTH  J3  PIN  UNOWNED
    1.0000    -49.0000    -22.3600  PTH  J3  PIN  UNOWNED
    1.0000    -49.0000    -19.8200  PTH  J3  PIN  UNOWNED
    1.0000    -49.0000    -17.2800  PTH  J3  PIN  UNOWNED
    1.0000    -49.0000    -14.7400  PTH  J3  PIN  UNOWNED
    1.0000    -49.0000    -12.2000  PTH  J3  PIN  UNOWNED
    1.0000    -49.0000     -9.6600  PTH  J3  PIN  UNOWNED
    1.0000    -49.0000     -7.1200  PTH  J3  PIN  UNOWNED
    1.0000    -49.0000     -4.5800  PTH  J3  PIN  UNOWNED
    1.0000    -49.0000     -2.0400  PTH  J3  PIN  UNOWNED
    1.0000    -49.0000      0.5000  PTH  J3  PIN  UNOWNED
    1.0000    -49.0000      3.0400  PTH  J3  PIN  UNOWNED
    1.0000    -49.0000      5.5800  PTH  J3  PIN  UNOWNED
    1.0000    -49.0000      8.1200  PTH  J3  PIN  UNOWNED
    1.0000    -49.0000     10.6600  PTH  J3  PIN  UNOWNED
    1.0000    -49.0000     13.2000  PTH  J3  PIN  UNOWNED
    1.0000    -49.0000     15.7400  PTH  J3  PIN  UNOWNED
    1.0000    -46.4600    -63.0000  PTH  J3  PIN  UNOWNED
    1.0000    -46.4600    -60.4600  PTH  J3  PIN  UNOWNED
    1.0000    -46.4600    -57.9200  PTH  J3  PIN  UNOWNED
    1.0000    -46.4600    -55.3800  PTH  J3  PIN  UNOWNED
    1.0000    -46.4600    -52.8400  PTH  J3  PIN  UNOWNED
    1.0000    -46.4600    -50.3000  PTH  J3  PIN  UNOWNED
    1.0000    -46.4600    -47.7600  PTH  J3  PIN  UNOWNED
    1.0000    -46.4600    -45.2200  PTH  J3  PIN  UNOWNED
    1.0000    -46.4600    -42.6800  PTH  J3  PIN  UNOWNED
    1.0000    -46.4600    -40.1400  PTH  J3  PIN  UNOWNED
    1.0000    -46.4600    -37.6000  PTH  J3  PIN  UNOWNED
    1.0000    -46.4600    -35.0600  PTH  J3  PIN  UNOWNED
    1.0000    -46.4600    -32.5200  PTH  J3  PIN  UNOWNED
    1.0000    -46.4600    -29.9800  PTH  J3  PIN  UNOWNED
    1.0000    -46.4600    -27.4400  PTH  J3  PIN  UNOWNED
    1.0000    -46.4600    -24.9000  PTH  J3  PIN  UNOWNED
    1.0000    -46.4600    -22.3600  PTH  J3  PIN  UNOWNED
    1.0000    -46.4600    -19.8200  PTH  J3  PIN  UNOWNED
    1.0000    -46.4600    -17.2800  PTH  J3  PIN  UNOWNED
    1.0000    -46.4600    -14.7400  PTH  J3  PIN  UNOWNED
    1.0000    -46.4600    -12.2000  PTH  J3  PIN  UNOWNED
    1.0000    -46.4600     -9.6600  PTH  J3  PIN  UNOWNED
    1.0000    -46.4600     -7.1200  PTH  J3  PIN  UNOWNED
    1.0000    -46.4600     -4.5800  PTH  J3  PIN  UNOWNED
    1.0000    -46.4600     -2.0400  PTH  J3  PIN  UNOWNED
    1.0000    -46.4600      0.5000  PTH  J3  PIN  UNOWNED
    1.0000    -46.4600      3.0400  PTH  J3  PIN  UNOWNED
    1.0000    -46.4600      5.5800  PTH  J3  PIN  UNOWNED
    1.0000    -46.4600      8.1200  PTH  J3  PIN  UNOWNED
    1.0000    -46.4600     10.6600  PTH  J3  PIN  UNOWNED
    1.0000    -46.4600     13.2000  PTH  J3  PIN  UNOWNED
    1.0000    -46.4600     15.7400  PTH  J3  PIN  UNOWNED
    1.0000    -43.9200    -63.0000  PTH  J3  PIN  UNOWNED
    1.0000    -43.9200    -60.4600  PTH  J3  PIN  UNOWNED
    1.0000    -43.9200    -57.9200  PTH  J3  PIN  UNOWNED
    1.0000    -43.9200    -55.3800  PTH  J3  PIN  UNOWNED
    1.0000    -43.9200    -52.8400  PTH  J3  PIN  UNOWNED
    1.0000    -43.9200    -50.3000  PTH  J3  PIN  UNOWNED
    1.0000    -43.9200    -47.7600  PTH  J3  PIN  UNOWNED
    1.0000    -43.9200    -45.2200  PTH  J3  PIN  UNOWNED
    1.0000    -43.9200    -42.6800  PTH  J3  PIN  UNOWNED
    1.0000    -43.9200    -40.1400  PTH  J3  PIN  UNOWNED
    1.0000    -43.9200    -37.6000  PTH  J3  PIN  UNOWNED
    1.0000    -43.9200    -35.0600  PTH  J3  PIN  UNOWNED
    1.0000    -43.9200    -32.5200  PTH  J3  PIN  UNOWNED
    1.0000    -43.9200    -29.9800  PTH  J3  PIN  UNOWNED
    1.0000    -43.9200    -27.4400  PTH  J3  PIN  UNOWNED
    1.0000    -43.9200    -24.9000  PTH  J3  PIN  UNOWNED
    1.0000    -43.9200    -22.3600  PTH  J3  PIN  UNOWNED
    1.0000    -43.9200    -19.8200  PTH  J3  PIN  UNOWNED
    1.0000    -43.9200    -17.2800  PTH  J3  PIN  UNOWNED
    1.0000    -43.9200    -14.7400  PTH  J3  PIN  UNOWNED
    1.0000    -43.9200    -12.2000  PTH  J3  PIN  UNOWNED
    1.0000    -43.9200     -9.6600  PTH  J3  PIN  UNOWNED
    1.0000    -43.9200     -7.1200  PTH  J3  PIN  UNOWNED
    1.0000    -43.9200     -4.5800  PTH  J3  PIN  UNOWNED
    1.0000    -43.9200     -2.0400  PTH  J3  PIN  UNOWNED
    1.0000    -43.9200      0.5000  PTH  J3  PIN  UNOWNED
    1.0000    -43.9200      3.0400  PTH  J3  PIN  UNOWNED
    1.0000    -43.9200      5.5800  PTH  J3  PIN  UNOWNED
    1.0000    -43.9200      8.1200  PTH  J3  PIN  UNOWNED
    1.0000    -43.9200     10.6600  PTH  J3  PIN  UNOWNED
    1.0000    -43.9200     13.2000  PTH  J3  PIN  UNOWNED
    1.0000    -43.9200     15.7400  PTH  J3  PIN  UNOWNED
    2.8000    -51.5400    -68.0800  PTH  J3  PIN  UNOWNED
    2.8000    -51.5400     20.8200  PTH  J3  PIN  UNOWNED
    0.9000     32.2400     46.5135  PTH  J1_1  PIN  UNOWNED
    0.9000     34.7800     46.5135  PTH  J1_1  PIN  UNOWNED
    0.9000     32.2400     49.0535  PTH  J1_1  PIN  UNOWNED
    0.9000     34.7800     49.0535  PTH  J1_1  PIN  UNOWNED
    0.9000     32.2400     51.5935  PTH  J1_1  PIN  UNOWNED
    0.9000     34.7800     51.5935  PTH  J1_1  PIN  UNOWNED
    0.9144     24.6420     47.7235  PTH  J4_1  PIN  UNOWNED
    0.9144     24.6420     45.1835  PTH  J4_1  PIN  UNOWNED
    0.9144     24.6420     42.6435  PTH  J4_1  PIN  UNOWNED
    0.9144     24.6420     22.0695  PTH  J3_1  PIN  UNOWNED
    0.9144     24.6420     19.5295  PTH  J3_1  PIN  UNOWNED
    0.9144     24.6420     16.9895  PTH  J3_1  PIN  UNOWNED
    0.8128     34.8020     40.6115  PTH  LK4_1  PIN  UNOWNED
    0.8128     34.8020     36.5475  PTH  LK5_1  PIN  UNOWNED
    0.8128     34.8020     34.5155  PTH  LK9_1  PIN  UNOWNED
    0.8128     34.8020     32.4835  PTH  LK38_1  PIN  UNOWNED
    0.8128     34.8020     38.5795  PTH  LK41_1  PIN  UNOWNED
    0.8128     34.8020     26.3875  PTH  LK13_1  PIN  UNOWNED
    0.8128     34.8020     28.4195  PTH  LK45_1  PIN  UNOWNED
    0.8128     34.8020     30.4515  PTH  LK34_1  PIN  UNOWNED
    0.8128     34.8020     20.2915  PTH  LK52_1  PIN  UNOWNED
    0.8128     34.8020     18.2595  PTH  LK1_1  PIN  UNOWNED
    0.8128     34.8020     22.3235  PTH  LK28_1  PIN  UNOWNED
    0.8128     34.8020     24.3555  PTH  LK23_1  PIN  UNOWNED
    0.8128     34.8020     16.2275  PTH  LK26_1  PIN  UNOWNED
    0.8128     30.7380     39.5955  PTH  LK6_1  PIN  UNOWNED
    0.8128     30.7380     33.4995  PTH  LK58_1  PIN  UNOWNED
    0.8128     30.7380     35.5315  PTH  LK7_1  PIN  UNOWNED
    0.8128     30.7380     37.5635  PTH  LK46_1  PIN  UNOWNED
    0.8128     30.7380     29.4355  PTH  LK21_1  PIN  UNOWNED
    0.8128     30.7380     25.3715  PTH  LK40_1  PIN  UNOWNED
    0.8128     30.7380     27.4035  PTH  LK49_1  PIN  UNOWNED
    0.8128     30.7380     31.4675  PTH  LK10_1  PIN  UNOWNED
    0.8128     30.7380     17.2435  PTH  LK68_1  PIN  UNOWNED
    0.8128     30.7380     21.3075  PTH  LK29_1  PIN  UNOWNED
    0.8128     30.7380     19.2755  PTH  LK51_1  PIN  UNOWNED
    0.8128     30.7380     23.3395  PTH  LK63_1  PIN  UNOWNED
    0.8128     -9.9020     10.6395  PTH  LK55_1  PIN  UNOWNED
    0.8128     -7.8700     10.6395  PTH  LK56_1  PIN  UNOWNED
    0.8128    -11.9340     10.6395  PTH  LK54_1  PIN  UNOWNED
    0.8128    -28.6980     54.5815  PTH  LK60_1  PIN  UNOWNED
    0.8128    -28.6980     52.5495  PTH  LK35_1  PIN  UNOWNED
    0.8128    -28.6980     50.5175  PTH  LK57_1  PIN  UNOWNED
    0.8128    -28.6980     48.2315  PTH  LK16_1  PIN  UNOWNED
    0.8128    -28.6980     46.1995  PTH  LK18_1  PIN  UNOWNED
    0.8128    -28.6980     44.1675  PTH  LK61_1  PIN  UNOWNED
    0.8128    -28.6980     42.1355  PTH  LK64_1  PIN  UNOWNED
    0.8128    -28.6980     40.1035  PTH  LK53_1  PIN  UNOWNED
    0.8128    -28.6980     38.0715  PTH  LK43_1  PIN  UNOWNED
    0.8128    -28.6980     36.0395  PTH  LK32_1  PIN  UNOWNED
    0.8128    -28.6980     34.0075  PTH  LK20_1  PIN  UNOWNED
    0.8128    -28.6980     25.8795  PTH  LK12_1  PIN  UNOWNED
    0.8128    -28.6980     27.9115  PTH  LK19_1  PIN  UNOWNED
    0.8128    -28.6980     29.9435  PTH  LK50_1  PIN  UNOWNED
    0.8128    -28.6980     31.9755  PTH  LK25_1  PIN  UNOWNED
    0.8128    -28.6980     23.8475  PTH  LK48_1  PIN  UNOWNED
    0.8128    -28.6980     21.8155  PTH  LK33_1  PIN  UNOWNED
    0.8128    -28.6980     17.7515  PTH  LK15_1  PIN  UNOWNED
    0.8128    -28.6980     19.7835  PTH  LK2_1  PIN  UNOWNED
    0.8128    -28.6980     15.7195  PTH  LK47_1  PIN  UNOWNED
    0.8128    -34.2860     53.5655  PTH  LK66_1  PIN  UNOWNED
    0.8128    -34.2860     49.5015  PTH  LK31_1  PIN  UNOWNED
    0.8128    -34.2860     51.5335  PTH  LK39_1  PIN  UNOWNED
    0.8128    -34.2860     47.2155  PTH  LK42_1  PIN  UNOWNED
    0.8128    -34.2860     41.1195  PTH  LK62_1  PIN  UNOWNED
    0.8128    -34.2860     43.1515  PTH  LK3_1  PIN  UNOWNED
    0.8128    -34.2860     45.1835  PTH  LK8_1  PIN  UNOWNED
    0.8128    -34.2860     35.0235  PTH  LK67_1  PIN  UNOWNED
    0.8128    -34.2860     39.0875  PTH  LK65_1  PIN  UNOWNED
    0.8128    -34.2860     32.9915  PTH  LK11_1  PIN  UNOWNED
    0.8128    -34.2860     37.0555  PTH  LK22_1  PIN  UNOWNED
    0.8128    -37.0800     26.8955  PTH  LK30_1  PIN  UNOWNED
    0.8128    -34.2860     26.8955  PTH  LK27_1  PIN  UNOWNED
    0.8128    -34.2860     24.8635  PTH  LK17_1  PIN  UNOWNED
    0.8128    -34.2860     28.9275  PTH  LK24_1  PIN  UNOWNED
    0.8128    -34.2860     30.9595  PTH  LK36_1  PIN  UNOWNED
    0.8128    -34.2860     18.7675  PTH  LK59_1  PIN  UNOWNED
    0.8128    -34.2860     22.8315  PTH  LK14_1  PIN  UNOWNED
    0.8128    -34.2860     20.7995  PTH  LK44_1  PIN  UNOWNED
    0.8128    -34.2860     16.7355  PTH  LK37_1  PIN  UNOWNED
.END_DRILLED_HOLES
.PLACEMENT
SOT23  LM4040CIM3-2.5  Z1
   23.0000    -29.0000      0.0000       0.000  TOP  PLACED
SOT23-5  AD8031ARTZ-R2  U2
   23.0000    -34.0000      0.0000       0.000  TOP  PLACED
SAMTEC_TSW-103-23-L-S  TSW-103-23-L-S  J9
   27.0000      9.0000      0.0000       0.000  TOP  PLACED
CON14MD_2MM  87831-1420  J8
   30.0000    -73.0000      0.0000     270.000  TOP  PLACED
OSCSC254P490X696X180-6N  "20MHz CFPV-45"  QZ2
   12.0000    -51.0000      0.0000      90.000  TOP  PLACED
SOP65P490X110-8N  DS18B20U+  IC13
   21.0000    -63.0000      0.0000       0.000  TOP  PLACED
FGA456  DEVICE?  U?
  -10.0000    -30.0000      0.0000       0.000  TOP  PLACED
OSC_4PIN_53S  VM53S3-25.000-2.5/-30+75  U1
    3.0000    -42.0000      0.0000       0.000  TOP  PLACED
SOIC127P1032X265-16N  M25P32-VMF6P  IC12
   -3.0000    -56.0000      0.0000       0.000  TOP  PLACED
QFN50P500X500X100-33N-S355  CDCM61004RHB  IC11
   -3.0000    -42.0000      0.0000       0.000  TOP  PLACED
OSC_SILABS_SI570  570CAC000121DG  QZ1
   12.0000    -42.0000      0.0000       0.000  TOP  PLACED
SFP_SMD_2X10  DEVICE?  U?
   17.0000    -90.0000      0.0000      90.000  TOP  PLACED
SFP_SMD_2X10  DEVICE?  U?
   -4.0000    -90.0000      0.0000      90.000  TOP  PLACED
QFN50P400X500X80-29N-R375X275  LT3070EUFD#PBF  RG1
  -20.0000    -37.0000      0.0000       0.000  TOP  PLACED
TO254P1435X460-4N  LM1084IS-ADJ  REG2
  -25.0000    -26.0000      0.0000       0.000  TOP  PLACED
TO254P1435X460-4N  LM1084IS-3.3  REG1
  -25.0000    -13.0000      0.0000       0.000  TOP  PLACED
MURATA_BNX02  BNX022-01  LC1
  -43.0000    -77.0000      0.0000       0.000  TOP  PLACED
INDC2012X90N  LI0805H121R-10  L4
   35.0000    -90.0000      0.0000       0.000  TOP  PLACED
INDC2012X90N  LI0805H121R-10  L3
   35.0000    -85.0000      0.0000       0.000  TOP  PLACED
INDC2012X90N  LI0805H121R-10  L2
   14.0000    -89.0000      0.0000       0.000  TOP  PLACED
INDC2012X90N  LI0805H121R-10  L1
   14.0000    -92.0000      0.0000       0.000  TOP  PLACED
TYCO_1367073  1367073-1  J7
   24.0000    -89.0000      0.0000     270.000  TOP  PLACED
TYCO_1367073  1367073-1  J6
    3.0000    -89.0000      0.0000     270.000  TOP  PLACED
MOLEX_47082-001  47082-1000  J5
   42.0000    -90.0000      0.0000      90.000  TOP  PLACED
MOLEX_47082-001  47082-1000  J4
   42.0000   -115.0000      0.0000      90.000  TOP  PLACED
LGA133S127P12X12_05-08-1766  LTM4606EV#PBF  IC10
  -43.0000    -92.0000      0.0000       0.000  TOP  PLACED
SOP65P490X95-8N  AD5662BRMZ-1  IC9
   22.0000    -41.0000      0.0000       0.000  TOP  PLACED
SOP65P490X95-8N  AD5662BRMZ-1  IC1
   22.0000    -46.0000      0.0000       0.000  TOP  PLACED
CON150_QTSDA  QTS-075-03-F-D-A  J1
   26.0000     71.0000      0.0000      90.000  BOTTOM  PLACED
HARTING_0903196X921  "09 03 196 6921"  J2
   47.0000     13.0000      0.0000       0.000  TOP  PLACED
HARTING_09732966801  "09 73 296 6801"  J3
  -49.0000    -63.0000      0.0000     180.000  TOP  PLACED
SAMTEC_SSW-103-01-G-D  SSW-103-01-G-D  J1_1
   33.5100     49.0535      0.0000     270.000  TOP  PLACED
CONHE13D3X1M  MTLW-103-07-L-S-250  J4_1
   24.6420     47.7235      0.0000     270.000  TOP  PLACED
CONHE13D3X1M  MTLW-103-07-L-S-250  J3_1
   24.6420     22.0695      0.0000     270.000  TOP  PLACED
C3216POL  TCJA226M006R0300  C48_1
    9.4100     24.0535      0.0000      90.000  BOTTOM  PLACED
SOIC127P600X175-8N  MC100EP05DG  IC8
  -19.0000    -60.0000      0.0000       0.000  TOP  PLACED
SOIC127P600X175-8N  DS90LV001TM  IC7
  -19.0000    -52.0000      0.0000       0.000  TOP  PLACED
SOIC127P600X175-8N  DS90LV001TM  IC6
  -32.0000    -60.0000      0.0000       0.000  TOP  PLACED
SOIC127P600X175-8N  DS90LV001TM  IC5
  -32.0000    -52.0000      0.0000       0.000  TOP  PLACED
SOIC127P600X175-8N  DS92001TMA  IC3
   32.0000    -54.0000      0.0000       0.000  TOP  PLACED
SOIC127P600X175-8N  DS92001TMA  IC2
   32.0000    -62.0000      0.0000       0.000  TOP  PLACED
SOIC127P600X175-8N  TPS77625D  RG1_1
    3.7100     25.3535      0.0000     180.000  BOTTOM  PLACED
PQFP240_050  MAROC3  U1_1
   14.7500     48.9935      0.0000     270.000  TOP  PLACED
C0603  CC0603_10UF_6V3_5%_X5R  C52_1
   16.7806     17.1667      0.0000      90.000  BOTTOM  PLACED
C0603  CC0603_10UF_6V3_5%_X5R  C54_1
    6.1749     21.2532      0.0000     180.000  BOTTOM  PLACED
C0603  R0603_82R_1%_0.1W_100PPM  R42_1
   10.2071     20.5245      0.0000       0.000  BOTTOM  PLACED
C0603  CC0603_10UF_6V3_5%_X5R  C53_1
  -24.5120     20.4036      0.0000     180.000  BOTTOM  PLACED
C0402  CC0402_100NF_16V_10%_X7R  C38_1
   21.0184     41.7386      0.0000       0.000  BOTTOM  PLACED
C0402  CC0402_100NF_16V_10%_X7R  C25_1
   21.2500     26.7135      0.0000       0.000  BOTTOM  PLACED
C0402  CC0402_100NF_16V_10%_X7R  C37_1
   21.2500     28.2135      0.0000       0.000  BOTTOM  PLACED
C0402  CC0402_100NF_16V_10%_X7R  C42_1
   21.2391     30.6049      0.0000       0.000  BOTTOM  PLACED
C0402  CC0402_100NF_16V_10%_X7R  C46_1
   21.2391     29.4203      0.0000       0.000  BOTTOM  PLACED
C0402  CC0402_100NF_16V_10%_X7R  C31_1
   21.2503     31.8118      0.0000       0.000  BOTTOM  PLACED
C0402  R0402_51R_1%_0.063W_200PPM  R2_1
   21.3400     22.8315      0.0000       0.000  TOP  PLACED
C0402  R0402_51R_1%_0.063W_200PPM  R1_1
   21.3400     21.5615      0.0000       0.000  TOP  PLACED
C0402  R0402_100R_1%_0.063W_200PPM  R24_1
   19.0540     20.2915      0.0000     270.000  TOP  PLACED
C0402  R0402_3R3_5%_0.063W_200PPM  R46_1
   18.2293     17.2045      0.0000      90.000  BOTTOM  PLACED
C0402  CC0402_100NF_16V_10%_X7R  C4_1
   13.2500     45.2135      0.0000     270.000  BOTTOM  PLACED
C0402  CC0402_100NF_16V_10%_X7R  C43_1
   12.7500     41.2135      0.0000     180.000  BOTTOM  PLACED
C0402  R0402_10R_5%_0.063W_200PPM  R6_1
   11.6528     44.7704      0.0000       0.000  BOTTOM  PLACED
C0402  CC0402_100NF_16V_10%_X7R  C7_1
   12.7507     37.9077      0.0000     180.000  BOTTOM  PLACED
C0402  CC0402_100NF_16V_10%_X7R  C10_1
   12.8018     36.1018      0.0000     180.000  BOTTOM  PLACED
C0402  CC0402_100NF_16V_10%_X7R  C5_1
   12.7500     39.2135      0.0000     180.000  BOTTOM  PLACED
C0402  CC0402_100NF_16V_10%_X7R  C16_1
   12.7941     28.7169      0.0000     180.000  BOTTOM  PLACED
C0402  CC0402_100NF_16V_10%_X7R  C23_1
   12.7714     30.3924      0.0000     180.000  BOTTOM  PLACED
C0402  CC0402_100NF_16V_10%_X7R  C12_1
   12.7500     31.7135      0.0000     180.000  BOTTOM  PLACED
C0402  CC0402_100NF_16V_10%_X7R  C35_1
   12.7500     32.7135      0.0000     180.000  BOTTOM  PLACED
C0402  CC0402_100NF_16V_10%_X7R  C1_1
   13.5557     19.2201      0.0000       0.000  BOTTOM  PLACED
C0402  CC0402_100NF_16V_10%_X7R  C50_1
   12.6105     20.8433      0.0000     270.000  BOTTOM  PLACED
C0402  CC0402_100NF_16V_10%_X7R  C51_1
   13.1682     23.6572      0.0000     270.000  BOTTOM  PLACED
C0402  R0402_10R_5%_0.063W_200PPM  R3_1
   13.5885     17.9528      0.0000       0.000  BOTTOM  PLACED
C0402  R0402_XX_1%_0.063W  R34_1
    9.2500     41.7135      0.0000       0.000  BOTTOM  PLACED
C0402  R0402_10R_5%_0.063W_200PPM  R11_1
   10.7914     36.1018      0.0000       0.000  BOTTOM  PLACED
C0402  R0402_10R_5%_0.063W_200PPM  R9_1
   10.7403     37.9077      0.0000       0.000  BOTTOM  PLACED
C0402  R0402_10R_5%_0.063W_200PPM  R7_1
   10.7500     39.2135      0.0000       0.000  BOTTOM  PLACED
C0402  R0402_XX_1%_0.063W  R35_1
    9.2500     40.7135      0.0000     180.000  BOTTOM  PLACED
C0402  R0402_10R_5%_0.063W_200PPM  R13_1
   10.7500     31.7135      0.0000       0.000  BOTTOM  PLACED
C0402  R0402_100R_0.1%_0.063W_25PPM  R17_1
   10.7500     28.7135      0.0000       0.000  BOTTOM  PLACED
C0402  CC0402_100NF_16V_10%_X7R  C3_1
  -11.3262     34.5106      0.0000       0.000  BOTTOM  PLACED
C0402  CC0402_100NF_16V_10%_X7R  C9_1
  -11.3187     36.1331      0.0000       0.000  BOTTOM  PLACED
C0402  R0402_10R_5%_0.063W_200PPM  R10_1
  -11.3187     37.1716      0.0000     180.000  BOTTOM  PLACED
C0402  R0402_XX_1%_0.063W  R29_1
   -9.2500     32.7135      0.0000       0.000  BOTTOM  PLACED
C0402  R0402_100R_0.1%_0.063W_25PPM  R14_1
   -9.2325     31.6813      0.0000     180.000  BOTTOM  PLACED
C0402  R0402_XX_1%_0.063W  R20_1
  -11.2500     27.7135      0.0000     180.000  BOTTOM  PLACED
C0402  R0402_XX_1%_0.063W  R23_1
   -9.2500     29.7135      0.0000       0.000  BOTTOM  PLACED
C0402  R0402_XX_1%_0.063W  R22_1
  -11.2500     29.7135      0.0000     180.000  BOTTOM  PLACED
C0402  R0402_XX_1%_0.063W  R21_1
   -9.2500     27.7135      0.0000       0.000  BOTTOM  PLACED
C0402  CC0402_100NF_16V_10%_X7R  C34_1
  -10.2700     22.6535      0.0000       0.000  BOTTOM  PLACED
C0402  R0402_1K_5%_0.063W_100PPM  R27_1
  -10.2900     21.4035      0.0000     180.000  BOTTOM  PLACED
C0402  CC0402_100NF_16V_10%_X7R  C28_1
  -13.2500     40.2135      0.0000       0.000  BOTTOM  PLACED
C0402  CC0402_100NF_16V_10%_X7R  C32_1
  -13.2525     42.2587      0.0000       0.000  BOTTOM  PLACED
C0402  CC0402_100NF_16V_10%_X7R  C36_1
  -13.2449     41.2342      0.0000       0.000  BOTTOM  PLACED
C0402  R0402_10R_5%_0.063W_200PPM  R8_1
  -13.2500     43.7135      0.0000     180.000  BOTTOM  PLACED
C0402  R0402_10R_5%_0.063W_200PPM  R5_1
  -13.2474     33.9195      0.0000     180.000  BOTTOM  PLACED
C0402  R0402_XX_1%_0.063W  R25_1
  -13.2626     35.1305      0.0000     180.000  BOTTOM  PLACED
C0402  R0402_XX_1%_0.063W  R28_1
  -11.2500     32.7135      0.0000       0.000  BOTTOM  PLACED
C0402  CC0402_100NF_16V_10%_X7R  C19_1
  -13.2500     27.7135      0.0000       0.000  BOTTOM  PLACED
C0402  CC0402_100NF_16V_10%_X7R  C21_1
  -13.2500     29.7135      0.0000       0.000  BOTTOM  PLACED
C0402  CC0402_100NF_16V_10%_X7R  C33_1
  -13.2500     30.7135      0.0000       0.000  BOTTOM  PLACED
C0402  CC0402_100NF_16V_10%_X7R  C41_1
  -13.2500     26.7135      0.0000       0.000  BOTTOM  PLACED
C0402  CC0402_100NF_16V_10%_X7R  C45_1
  -13.2589     25.2899      0.0000       0.000  BOTTOM  PLACED
C0402  CC0402_100NF_16V_10%_X7R  C27_1
  -13.2500     31.7135      0.0000       0.000  BOTTOM  PLACED
C0402  CC0402_100NF_16V_10%_X7R  C29_1
  -13.2500     32.7135      0.0000     180.000  BOTTOM  PLACED
C0402  CC0402_100NF_16V_10%_X7R  C44_1
  -13.2589     18.7368      0.0000       0.000  BOTTOM  PLACED
C0402  R0402_51R_1%_0.063W_200PPM  R19_1
  -13.2500     20.7735      0.0000       0.000  BOTTOM  PLACED
C0402  R0402_51R_1%_0.063W_200PPM  R18_1
  -13.2500     19.7635      0.0000       0.000  BOTTOM  PLACED
C0402  R0402_XX_1%_0.063W  R32_1
  -13.2474     23.2709      0.0000     180.000  BOTTOM  PLACED
C0402  CC0402_100NF_16V_10%_X7R  C30_1
  -13.2474     24.2746      0.0000       0.000  BOTTOM  PLACED
C0402  R0402_XX_1%_0.063W  R33_1
  -13.2474     22.0249      0.0000       0.000  BOTTOM  PLACED
C0402  R0402_XX_1%_0.063W  R36_1
  -13.2704     17.7331      0.0000     180.000  BOTTOM  PLACED
C0402  CC0402_100NF_16V_10%_X7R  C6_1
  -20.7500     44.7135      0.0000     180.000  BOTTOM  PLACED
C0402  CC0402_100NF_16V_10%_X7R  C8_1
  -20.7500     43.7135      0.0000     180.000  BOTTOM  PLACED
C0402  CC0402_100NF_16V_10%_X7R  C18_1
  -20.7500     42.7135      0.0000     180.000  BOTTOM  PLACED
C0402  CC0402_100NF_16V_10%_X7R  C39_1
  -20.7394     41.3442      0.0000     180.000  BOTTOM  PLACED
C0402  CC0402_100NF_16V_10%_X7R  C22_1
  -20.7500     34.2135      0.0000     180.000  BOTTOM  PLACED
C0402  CC0402_100NF_16V_10%_X7R  C24_1
  -20.7500     36.2135      0.0000     180.000  BOTTOM  PLACED
C0402  CC0402_100NF_16V_10%_X7R  C40_1
  -20.7500     37.2135      0.0000     180.000  BOTTOM  PLACED
C0402  R0402_XX_1%_0.063W  R26_1
  -20.7500     35.2135      0.0000     180.000  BOTTOM  PLACED
C0402  CC0402_100NF_16V_10%_X7R  C20_1
  -20.7500     39.7135      0.0000     180.000  BOTTOM  PLACED
C0402  CC0402_100NF_16V_10%_X7R  C11_1
  -20.7500     28.2135      0.0000     180.000  BOTTOM  PLACED
C0402  CC0402_100NF_16V_10%_X7R  C26_1
  -20.7500     29.2135      0.0000     180.000  BOTTOM  PLACED
C0402  CC0402_100NF_16V_10%_X7R  C47_1
  -20.7500     30.2135      0.0000     180.000  BOTTOM  PLACED
C0402  R0402_10R_5%_0.063W_200PPM  R12_1
  -20.7500     27.2135      0.0000       0.000  BOTTOM  PLACED
C0402  R0402_10R_5%_0.063W_200PPM  R15_1
  -20.7500     24.7135      0.0000       0.000  BOTTOM  PLACED
C0402  R0402_XX_1%_0.063W  R31_1
  -20.7500     32.2135      0.0000     180.000  BOTTOM  PLACED
C0402  R0402_XX_1%_0.063W  R30_1
  -20.7500     31.2135      0.0000       0.000  BOTTOM  PLACED
C0402  CC0402_100NF_16V_10%_X7R  C13_1
  -20.7500     33.2135      0.0000     180.000  BOTTOM  PLACED
C0402  CC0402_100NF_16V_10%_X7R  C2_1
  -20.7611     19.3688      0.0000     180.000  BOTTOM  PLACED
C0402  CC0402_100NF_16V_10%_X7R  C15_1
  -20.7500     23.7135      0.0000     180.000  BOTTOM  PLACED
C0402  CC0402_100NF_16V_10%_X7R  C17_1
  -20.7500     21.7135      0.0000     180.000  BOTTOM  PLACED
C0402  R0402_10R_5%_0.063W_200PPM  R4_1
  -20.7507     20.5802      0.0000     180.000  BOTTOM  PLACED
C0402  R0402_10R_5%_0.063W_200PPM  R16_1
  -20.7500     22.7135      0.0000       0.000  BOTTOM  PLACED
C0402  R0402_3R3_5%_0.063W_200PPM  R47_1
  -24.5441     19.0229      0.0000     180.000  BOTTOM  PLACED
C0402  R0402_XX_1%_0.063W  R37_1
  -20.7507     18.1573      0.0000     180.000  BOTTOM  PLACED
C0402  CC0402_100NF_16V_10%_X7R  C14_1
  -20.7500     25.7135      0.0000     180.000  BOTTOM  PLACED
SOD323_INV  RB751V40T1G  D1_1
    9.4100     18.7535      0.0000       0.000  BOTTOM  PLACED
1-HOLE_0-8P  1-HOLE_0-8-BASE  LK4_1
   34.8020     40.6115      0.0000       0.000  TOP  PLACED
1-HOLE_0-8P  1-HOLE_0-8-BASE  LK5_1
   34.8020     36.5475      0.0000       0.000  TOP  PLACED
1-HOLE_0-8P  1-HOLE_0-8-BASE  LK9_1
   34.8020     34.5155      0.0000       0.000  TOP  PLACED
1-HOLE_0-8P  1-HOLE_0-8-BASE  LK38_1
   34.8020     32.4835      0.0000       0.000  TOP  PLACED
1-HOLE_0-8P  1-HOLE_0-8-BASE  LK41_1
   34.8020     38.5795      0.0000       0.000  TOP  PLACED
1-HOLE_0-8P  1-HOLE_0-8-BASE  LK13_1
   34.8020     26.3875      0.0000       0.000  TOP  PLACED
1-HOLE_0-8P  1-HOLE_0-8-BASE  LK45_1
   34.8020     28.4195      0.0000       0.000  TOP  PLACED
1-HOLE_0-8P  1-HOLE_0-8-BASE  LK34_1
   34.8020     30.4515      0.0000       0.000  TOP  PLACED
1-HOLE_0-8P  1-HOLE_0-8-BASE  LK52_1
   34.8020     20.2915      0.0000       0.000  TOP  PLACED
1-HOLE_0-8P  1-HOLE_0-8-BASE  LK1_1
   34.8020     18.2595      0.0000       0.000  TOP  PLACED
1-HOLE_0-8P  1-HOLE_0-8-BASE  LK28_1
   34.8020     22.3235      0.0000       0.000  TOP  PLACED
1-HOLE_0-8P  1-HOLE_0-8-BASE  LK23_1
   34.8020     24.3555      0.0000       0.000  TOP  PLACED
1-HOLE_0-8P  1-HOLE_0-8-BASE  LK26_1
   34.8020     16.2275      0.0000       0.000  TOP  PLACED
1-HOLE_0-8P  1-HOLE_0-8-BASE  LK6_1
   30.7380     39.5955      0.0000       0.000  TOP  PLACED
1-HOLE_0-8P  1-HOLE_0-8-BASE  LK58_1
   30.7380     33.4995      0.0000       0.000  TOP  PLACED
1-HOLE_0-8P  1-HOLE_0-8-BASE  LK7_1
   30.7380     35.5315      0.0000       0.000  TOP  PLACED
1-HOLE_0-8P  1-HOLE_0-8-BASE  LK46_1
   30.7380     37.5635      0.0000       0.000  TOP  PLACED
1-HOLE_0-8P  1-HOLE_0-8-BASE  LK21_1
   30.7380     29.4355      0.0000       0.000  TOP  PLACED
1-HOLE_0-8P  1-HOLE_0-8-BASE  LK40_1
   30.7380     25.3715      0.0000       0.000  TOP  PLACED
1-HOLE_0-8P  1-HOLE_0-8-BASE  LK49_1
   30.7380     27.4035      0.0000       0.000  TOP  PLACED
1-HOLE_0-8P  1-HOLE_0-8-BASE  LK10_1
   30.7380     31.4675      0.0000       0.000  TOP  PLACED
1-HOLE_0-8P  1-HOLE_0-8-BASE  LK68_1
   30.7380     17.2435      0.0000       0.000  TOP  PLACED
1-HOLE_0-8P  1-HOLE_0-8-BASE  LK29_1
   30.7380     21.3075      0.0000       0.000  TOP  PLACED
1-HOLE_0-8P  1-HOLE_0-8-BASE  LK51_1
   30.7380     19.2755      0.0000       0.000  TOP  PLACED
1-HOLE_0-8P  1-HOLE_0-8-BASE  LK63_1
   30.7380     23.3395      0.0000       0.000  TOP  PLACED
1-HOLE_0-8P  1-HOLE_0-8-BASE  LK55_1
   -9.9020     10.6395      0.0000       0.000  TOP  PLACED
1-HOLE_0-8P  1-HOLE_0-8-BASE  LK56_1
   -7.8700     10.6395      0.0000       0.000  TOP  PLACED
1-HOLE_0-8P  1-HOLE_0-8-BASE  LK54_1
  -11.9340     10.6395      0.0000       0.000  TOP  PLACED
1-HOLE_0-8P  1-HOLE_0-8-BASE  LK60_1
  -28.6980     54.5815      0.0000       0.000  TOP  PLACED
1-HOLE_0-8P  1-HOLE_0-8-BASE  LK35_1
  -28.6980     52.5495      0.0000       0.000  TOP  PLACED
1-HOLE_0-8P  1-HOLE_0-8-BASE  LK57_1
  -28.6980     50.5175      0.0000       0.000  TOP  PLACED
1-HOLE_0-8P  1-HOLE_0-8-BASE  LK16_1
  -28.6980     48.2315      0.0000       0.000  TOP  PLACED
1-HOLE_0-8P  1-HOLE_0-8-BASE  LK18_1
  -28.6980     46.1995      0.0000       0.000  TOP  PLACED
1-HOLE_0-8P  1-HOLE_0-8-BASE  LK61_1
  -28.6980     44.1675      0.0000       0.000  TOP  PLACED
1-HOLE_0-8P  1-HOLE_0-8-BASE  LK64_1
  -28.6980     42.1355      0.0000       0.000  TOP  PLACED
1-HOLE_0-8P  1-HOLE_0-8-BASE  LK53_1
  -28.6980     40.1035      0.0000       0.000  TOP  PLACED
1-HOLE_0-8P  1-HOLE_0-8-BASE  LK43_1
  -28.6980     38.0715      0.0000       0.000  TOP  PLACED
1-HOLE_0-8P  1-HOLE_0-8-BASE  LK32_1
  -28.6980     36.0395      0.0000       0.000  TOP  PLACED
1-HOLE_0-8P  1-HOLE_0-8-BASE  LK20_1
  -28.6980     34.0075      0.0000       0.000  TOP  PLACED
1-HOLE_0-8P  1-HOLE_0-8-BASE  LK12_1
  -28.6980     25.8795      0.0000       0.000  TOP  PLACED
1-HOLE_0-8P  1-HOLE_0-8-BASE  LK19_1
  -28.6980     27.9115      0.0000       0.000  TOP  PLACED
1-HOLE_0-8P  1-HOLE_0-8-BASE  LK50_1
  -28.6980     29.9435      0.0000       0.000  TOP  PLACED
1-HOLE_0-8P  1-HOLE_0-8-BASE  LK25_1
  -28.6980     31.9755      0.0000       0.000  TOP  PLACED
1-HOLE_0-8P  1-HOLE_0-8-BASE  LK48_1
  -28.6980     23.8475      0.0000       0.000  TOP  PLACED
1-HOLE_0-8P  1-HOLE_0-8-BASE  LK33_1
  -28.6980     21.8155      0.0000       0.000  TOP  PLACED
1-HOLE_0-8P  1-HOLE_0-8-BASE  LK15_1
  -28.6980     17.7515      0.0000       0.000  TOP  PLACED
1-HOLE_0-8P  1-HOLE_0-8-BASE  LK2_1
  -28.6980     19.7835      0.0000       0.000  TOP  PLACED
1-HOLE_0-8P  1-HOLE_0-8-BASE  LK47_1
  -28.6980     15.7195      0.0000       0.000  TOP  PLACED
1-HOLE_0-8P  1-HOLE_0-8-BASE  LK66_1
  -34.2860     53.5655      0.0000       0.000  TOP  PLACED
1-HOLE_0-8P  1-HOLE_0-8-BASE  LK31_1
  -34.2860     49.5015      0.0000       0.000  TOP  PLACED
1-HOLE_0-8P  1-HOLE_0-8-BASE  LK39_1
  -34.2860     51.5335      0.0000       0.000  TOP  PLACED
1-HOLE_0-8P  1-HOLE_0-8-BASE  LK42_1
  -34.2860     47.2155      0.0000       0.000  TOP  PLACED
1-HOLE_0-8P  1-HOLE_0-8-BASE  LK62_1
  -34.2860     41.1195      0.0000       0.000  TOP  PLACED
1-HOLE_0-8P  1-HOLE_0-8-BASE  LK3_1
  -34.2860     43.1515      0.0000       0.000  TOP  PLACED
1-HOLE_0-8P  1-HOLE_0-8-BASE  LK8_1
  -34.2860     45.1835      0.0000       0.000  TOP  PLACED
1-HOLE_0-8P  1-HOLE_0-8-BASE  LK67_1
  -34.2860     35.0235      0.0000       0.000  TOP  PLACED
1-HOLE_0-8P  1-HOLE_0-8-BASE  LK65_1
  -34.2860     39.0875      0.0000       0.000  TOP  PLACED
1-HOLE_0-8P  1-HOLE_0-8-BASE  LK11_1
  -34.2860     32.9915      0.0000       0.000  TOP  PLACED
1-HOLE_0-8P  1-HOLE_0-8-BASE  LK22_1
  -34.2860     37.0555      0.0000       0.000  TOP  PLACED
1-HOLE_0-8P  1-HOLE_0-8-BASE  LK30_1
  -37.0800     26.8955      0.0000       0.000  TOP  PLACED
1-HOLE_0-8P  1-HOLE_0-8-BASE  LK27_1
  -34.2860     26.8955      0.0000       0.000  TOP  PLACED
1-HOLE_0-8P  1-HOLE_0-8-BASE  LK17_1
  -34.2860     24.8635      0.0000       0.000  TOP  PLACED
1-HOLE_0-8P  1-HOLE_0-8-BASE  LK24_1
  -34.2860     28.9275      0.0000       0.000  TOP  PLACED
1-HOLE_0-8P  1-HOLE_0-8-BASE  LK36_1
  -34.2860     30.9595      0.0000       0.000  TOP  PLACED
1-HOLE_0-8P  1-HOLE_0-8-BASE  LK59_1
  -34.2860     18.7675      0.0000       0.000  TOP  PLACED
1-HOLE_0-8P  1-HOLE_0-8-BASE  LK14_1
  -34.2860     22.8315      0.0000       0.000  TOP  PLACED
1-HOLE_0-8P  1-HOLE_0-8-BASE  LK44_1
  -34.2860     20.7995      0.0000       0.000  TOP  PLACED
1-HOLE_0-8P  1-HOLE_0-8-BASE  LK37_1
  -34.2860     16.7355      0.0000       0.000  TOP  PLACED
C0603  CAPCERSMDCL2_0603-1.0UF,6.3V  C3
    0.0000      0.0000      0.0000       0.000  TOP  UNPLACED
C0603  RSMD0603_1/16W-1.2K,1%  R26
    0.0000      0.0000      0.0000       0.000  TOP  UNPLACED
C0603  RSMD0603_1/16W-1.2K,1%  R28
    0.0000      0.0000      0.0000       0.000  TOP  UNPLACED
C0603  RSMD0603_1/16W-1.2K,1%  R30
    0.0000      0.0000      0.0000       0.000  TOP  UNPLACED
C0603  RSMD0603_1/16W-2.4K,1%  R3
    0.0000      0.0000      0.0000       0.000  TOP  UNPLACED
C0603  RSMD0603_1/16W-2.4K,1%  R25
    0.0000      0.0000      0.0000       0.000  TOP  UNPLACED
C0603  RSMD0603_1/16W-2.4K,1%  R27
    0.0000      0.0000      0.0000       0.000  TOP  UNPLACED
C0603  RSMD0603_1/16W-2.4K,1%  R29
    0.0000      0.0000      0.0000       0.000  TOP  UNPLACED
C0603  RSMD0603_1/16W-2.4K,1%  R31
    0.0000      0.0000      0.0000       0.000  TOP  UNPLACED
C0603  FERRITE_SMD-220Z,ILBB_0603  L5
    0.0000      0.0000      0.0000       0.000  TOP  UNPLACED
C0603  FERRITE_SMD-220Z,ILBB_0603  L6
    0.0000      0.0000      0.0000       0.000  TOP  UNPLACED
C0603  FERRITE_SMD-220Z,ILBB_0603  L7
    0.0000      0.0000      0.0000       0.000  TOP  UNPLACED
C0603  FERRITE_SMD-220Z,ILBB_0603  L8
    0.0000      0.0000      0.0000       0.000  TOP  UNPLACED
C0603  RSMD0603_-00,  R33
    0.0000      0.0000      0.0000       0.000  TOP  UNPLACED
C0603  RSMD0603_-00,  R34
    0.0000      0.0000      0.0000       0.000  TOP  UNPLACED
C0603  RSMD0603_-00,  R18
    0.0000      0.0000      0.0000       0.000  TOP  UNPLACED
C0603  RSMD0603_-00,  R19
    0.0000      0.0000      0.0000       0.000  TOP  UNPLACED
C0603  RSMD0603_-00,  R20
    0.0000      0.0000      0.0000       0.000  TOP  UNPLACED
C0603  RSMD0603_-00,  R21
    0.0000      0.0000      0.0000       0.000  TOP  UNPLACED
C0603  RSMD0603_-00,  R22
    0.0000      0.0000      0.0000       0.000  TOP  UNPLACED
C0603  RSMD0603_-00,  R23
    0.0000      0.0000      0.0000       0.000  TOP  UNPLACED
C0603  RSMD0603_-00,  R24
    0.0000      0.0000      0.0000       0.000  TOP  UNPLACED
C0603  RSMD0603_1/10W-240,1%  R14
    0.0000      0.0000      0.0000       0.000  TOP  UNPLACED
C0603  RSMD0603_1/10W-240,1%  R15
    0.0000      0.0000      0.0000       0.000  TOP  UNPLACED
C0603  RSMD0603_1/10W-240,1%  R16
    0.0000      0.0000      0.0000       0.000  TOP  UNPLACED
C0603  RSMD0603_1/10W-33,1%  R17
    0.0000      0.0000      0.0000       0.000  TOP  UNPLACED
C0402  CAPCERSMDCL2_0402-100NF,10V  C14
    0.0000      0.0000      0.0000       0.000  TOP  UNPLACED
C0402  CAPCERSMDCL2_0402-100NF,10V  C15
    0.0000      0.0000      0.0000       0.000  TOP  UNPLACED
C0402  CAPCERSMDCL2_0402-100NF,10V  C16
    0.0000      0.0000      0.0000       0.000  TOP  UNPLACED
C0402  CAPCERSMDCL2_0402-100NF,10V  C17
    0.0000      0.0000      0.0000       0.000  TOP  UNPLACED
C0402  CAPCERSMDCL2_0402-100NF,10V  C18
    0.0000      0.0000      0.0000       0.000  TOP  UNPLACED
C0402  CAPCERSMDCL2_0402-100NF,10V  C19
    0.0000      0.0000      0.0000       0.000  TOP  UNPLACED
C0402  CAPCERSMDCL2_0402-100NF,10V  C20
    0.0000      0.0000      0.0000       0.000  TOP  UNPLACED
C0402  CAPCERSMDCL2_0402-100NF,10V  C21
    0.0000      0.0000      0.0000       0.000  TOP  UNPLACED
C0402  CAPCERSMDCL2_0402-10NF,16V_GEN  C45
    0.0000      0.0000      0.0000       0.000  TOP  UNPLACED
C0402  CAPCERSMDCL2_0402-1NF_X7R,50V  C44
    0.0000      0.0000      0.0000       0.000  TOP  UNPLACED
C0402  CAPCERSMDCL2_0402-1UF,10V  C59
    0.0000      0.0000      0.0000       0.000  TOP  UNPLACED
C0402  CAPCERSMDCL2_0402-1UF,10V  C71
    0.0000      0.0000      0.0000       0.000  TOP  UNPLACED
C0402  CAPCERSMDCL2_0402-1UF,10V  C9
    0.0000      0.0000      0.0000       0.000  TOP  UNPLACED
C0402  CAPCERSMDCL2_0402-1UF,10V  C10
    0.0000      0.0000      0.0000       0.000  TOP  UNPLACED
C0402  CAPCERSMDCL2_0402-1UF,10V  C12
    0.0000      0.0000      0.0000       0.000  TOP  UNPLACED
C0402  CAPCERSMDCL2_0402-1UF,10V  C24
    0.0000      0.0000      0.0000       0.000  TOP  UNPLACED
C0402  CAPCERSMDCL2_0402-1UF,10V  C25
    0.0000      0.0000      0.0000       0.000  TOP  UNPLACED
C0402  CAPCERSMDCL2_0402-1UF,10V  C27
    0.0000      0.0000      0.0000       0.000  TOP  UNPLACED
C0603  CAPCERSMDCL2_0603-100NF,16V  C49
    0.0000      0.0000      0.0000       0.000  TOP  UNPLACED
C0603  CAPCERSMDCL2_0603-100NF,16V  C60
    0.0000      0.0000      0.0000       0.000  TOP  UNPLACED
C0603  CAPCERSMDCL2_0603-100NF,16V  C61
    0.0000      0.0000      0.0000       0.000  TOP  UNPLACED
C0603  CAPCERSMDCL2_0603-100NF,16V  C1
    0.0000      0.0000      0.0000       0.000  TOP  UNPLACED
C0603  CAPCERSMDCL2_0603-100NF,16V  C2
    0.0000      0.0000      0.0000       0.000  TOP  UNPLACED
C0603  CAPCERSMDCL2_0603-100NF,16V  C4
    0.0000      0.0000      0.0000       0.000  TOP  UNPLACED
C0603  CAPCERSMDCL2_0603-100NF,16V  C5
    0.0000      0.0000      0.0000       0.000  TOP  UNPLACED
C0603  CAPCERSMDCL2_0603-100NF,16V  C6
    0.0000      0.0000      0.0000       0.000  TOP  UNPLACED
C0603  CAPCERSMDCL2_0603-100NF,16V  C7
    0.0000      0.0000      0.0000       0.000  TOP  UNPLACED
C0603  CAPCERSMDCL2_0603-100NF,16V  C8
    0.0000      0.0000      0.0000       0.000  TOP  UNPLACED
C0603  CAPCERSMDCL2_0603-100NF,16V  C31
    0.0000      0.0000      0.0000       0.000  TOP  UNPLACED
C0603  CAPCERSMDCL2_0603-100NF,16V  C34
    0.0000      0.0000      0.0000       0.000  TOP  UNPLACED
C0603  CAPCERSMDCL2_0603-10UF,6.3V  C48
    0.0000      0.0000      0.0000       0.000  TOP  UNPLACED
C0603  CAPCERSMDCL2_0603-2.2UF,10V  C41
    0.0000      0.0000      0.0000       0.000  TOP  UNPLACED
C0603  CAPCERSMDCL2_0603-2.2UF,10V  C42
    0.0000      0.0000      0.0000       0.000  TOP  UNPLACED
C0603  CAPCERSMDCL2_0603-2.2UF,10V  C46
    0.0000      0.0000      0.0000       0.000  TOP  UNPLACED
C0603  CAPCERSMDCL2_0603-22UF,4V  C51
    0.0000      0.0000      0.0000       0.000  TOP  UNPLACED
C0603  CAPCERSMDCL2_0603-22UF,4V  C52
    0.0000      0.0000      0.0000       0.000  TOP  UNPLACED
C0603  CAPCERSMDCL2_0603-22UF,4V  C53
    0.0000      0.0000      0.0000       0.000  TOP  UNPLACED
C0603  CAPCERSMDCL2_0603-22UF,4V  C54
    0.0000      0.0000      0.0000       0.000  TOP  UNPLACED
C0603  CAPCERSMDCL2_0603-22UF,4V  C55
    0.0000      0.0000      0.0000       0.000  TOP  UNPLACED
C0603  CAPCERSMDCL2_0603-22UF,4V  C65
    0.0000      0.0000      0.0000       0.000  TOP  UNPLACED
C0603  CAPCERSMDCL2_0603-22UF,4V  C67
    0.0000      0.0000      0.0000       0.000  TOP  UNPLACED
C0603  CAPCERSMDCL2_0603-22UF,4V  C13
    0.0000      0.0000      0.0000       0.000  TOP  UNPLACED
C0603  CAPCERSMDCL2_0603-22UF,4V  C23
    0.0000      0.0000      0.0000       0.000  TOP  UNPLACED
C0603  CAPCERSMDCL2_0603-22UF,4V  C28
    0.0000      0.0000      0.0000       0.000  TOP  UNPLACED
C0603  CAPCERSMDCL2_0603-22UF,4V  C30
    0.0000      0.0000      0.0000       0.000  TOP  UNPLACED
C0603  CAPCERSMDCL2_0603-4.7UF,6.3V_GA  C47
    0.0000      0.0000      0.0000       0.000  TOP  UNPLACED
CAPC3225X279N  CAPCERSMDCL2_1210-10UF,50V  C33
    0.0000      0.0000      0.0000       0.000  TOP  UNPLACED
CAPC3225X279N  CAPCERSMDCL2_1210-10UF,50V  C35
    0.0000      0.0000      0.0000       0.000  TOP  UNPLACED
CAPC3225X279N  CAPCERSMDCL2_1210-10UF,50V  C36
    0.0000      0.0000      0.0000       0.000  TOP  UNPLACED
CAPC3225X279N  CAPCERSMDCL2_1210-10UF,50V  C37
    0.0000      0.0000      0.0000       0.000  TOP  UNPLACED
C1210  CAPCERSMDCL2_1210-47UF_X5R,6.3V  C38
    0.0000      0.0000      0.0000       0.000  TOP  UNPLACED
C1210  CAPCERSMDCL2_1210-47UF_X5R,6.3V  C39
    0.0000      0.0000      0.0000       0.000  TOP  UNPLACED
C7343POL  ELCAPTAN_SMD-150UF,20V  C32
    0.0000      0.0000      0.0000       0.000  TOP  UNPLACED
POSCAP_D3  ELCAPTAN_SMD-220UF,6.3V  C40
    0.0000      0.0000      0.0000       0.000  TOP  UNPLACED
POSCAP_D3  ELCAPTAN_SMD-220UF,6.3V  C43
    0.0000      0.0000      0.0000       0.000  TOP  UNPLACED
C0402  RSMD0402_1/16W-47K,1%  R13
    0.0000      0.0000      0.0000       0.000  TOP  UNPLACED
C0603  RSMD0603_1/10W-100K,1%  R10
    0.0000      0.0000      0.0000       0.000  TOP  UNPLACED
C0603  RSMD0603_1/10W-390K,1%  R12
    0.0000      0.0000      0.0000       0.000  TOP  UNPLACED
C0603  RSMD0603_1/10W-5.1K,1%  R7
    0.0000      0.0000      0.0000       0.000  TOP  UNPLACED
C0603  RSMD0603_1/10W-XX,1%  R32
    0.0000      0.0000      0.0000       0.000  TOP  UNPLACED
C0603  RSMD0603_1/10W-XX,1%  R35
    0.0000      0.0000      0.0000       0.000  TOP  UNPLACED
C0603  RSMD0603_1/10W-XX,1%  R8
    0.0000      0.0000      0.0000       0.000  TOP  UNPLACED
C0603  RSMD0603_1/10W-XX,1%  R9
    0.0000      0.0000      0.0000       0.000  TOP  UNPLACED
C0603  RSMD0603_1/16W-40.2K,1%  R11
    0.0000      0.0000      0.0000       0.000  TOP  UNPLACED
C0402  CAPCERSMDCL2_0402-100NF,16V_GEN  C50
    0.0000      0.0000      0.0000       0.000  TOP  UNPLACED
C0402  CAPCERSMDCL2_0402-100NF,16V_GEN  C56
    0.0000      0.0000      0.0000       0.000  TOP  UNPLACED
C0402  CAPCERSMDCL2_0402-100NF,16V_GEN  C57
    0.0000      0.0000      0.0000       0.000  TOP  UNPLACED
C0402  CAPCERSMDCL2_0402-100NF,16V_GEN  C58
    0.0000      0.0000      0.0000       0.000  TOP  UNPLACED
C0402  CAPCERSMDCL2_0402-100NF,16V_GEN  C62
    0.0000      0.0000      0.0000       0.000  TOP  UNPLACED
C0402  CAPCERSMDCL2_0402-100NF,16V_GEN  C63
    0.0000      0.0000      0.0000       0.000  TOP  UNPLACED
C0402  CAPCERSMDCL2_0402-100NF,16V_GEN  C64
    0.0000      0.0000      0.0000       0.000  TOP  UNPLACED
C0402  CAPCERSMDCL2_0402-100NF,16V_GEN  C66
    0.0000      0.0000      0.0000       0.000  TOP  UNPLACED
C0402  CAPCERSMDCL2_0402-100NF,16V_GEN  C68
    0.0000      0.0000      0.0000       0.000  TOP  UNPLACED
C0402  CAPCERSMDCL2_0402-100NF,16V_GEN  C69
    0.0000      0.0000      0.0000       0.000  TOP  UNPLACED
C0402  CAPCERSMDCL2_0402-100NF,16V_GEN  C70
    0.0000      0.0000      0.0000       0.000  TOP  UNPLACED
C0402  CAPCERSMDCL2_0402-100NF,16V_GEN  C72
    0.0000      0.0000      0.0000       0.000  TOP  UNPLACED
C0402  CAPCERSMDCL2_0402-100NF,16V_GEN  C73
    0.0000      0.0000      0.0000       0.000  TOP  UNPLACED
C0402  CAPCERSMDCL2_0402-100NF,16V_GEN  C11
    0.0000      0.0000      0.0000       0.000  TOP  UNPLACED
C0402  CAPCERSMDCL2_0402-100NF,16V_GEN  C22
    0.0000      0.0000      0.0000       0.000  TOP  UNPLACED
C0402  CAPCERSMDCL2_0402-100NF,16V_GEN  C26
    0.0000      0.0000      0.0000       0.000  TOP  UNPLACED
C0402  CAPCERSMDCL2_0402-100NF,16V_GEN  C29
    0.0000      0.0000      0.0000       0.000  TOP  UNPLACED
C0402  RSMD0402_1/16W-100,1%  R1
    0.0000      0.0000      0.0000       0.000  TOP  UNPLACED
C0402  RSMD0402_1/16W-100,1%  R2
    0.0000      0.0000      0.0000       0.000  TOP  UNPLACED
C0402  RSMD0402_1/16W-100,1%  R6
    0.0000      0.0000      0.0000       0.000  TOP  UNPLACED
C0402  RSMD0402_1/16W-51,1%  R4
    0.0000      0.0000      0.0000       0.000  TOP  UNPLACED
C0402  RSMD0402_1/16W-51,1%  R5
    0.0000      0.0000      0.0000       0.000  TOP  UNPLACED
.END_PLACEMENT
