  0
SECTION
  2
HEADER
  9
$ACADVER
  1
AC1014
  9
$INSBASE
 10
0.000000
 20
0.000000
  9
$LIMMIN
 10
-282.889900
 20
-252.070000
  9
$LIMMAX
 10
517.390100
 20
248.330000
  9
$EXTMIN
 10
-282.889900
 20
-252.070000
  9
$EXTMAX
 10
517.390100
 20
248.330000
  9
$ATTMODE
 70
0
  9
$LUNITS
 70
2
  9
$LUPREC
 70
4
  9
$THICKNESS
 40
1.628360
  9
$MEASUREMENT
 70
1
  9
$HANDSEED
  5
4c0
  0
ENDSEC
  0
SECTION
  2
TABLES
  0
TABLE
  2
LTYPE
  5
4
100
AcDbSymbolTable
 70
3
  0
LTYPE
  5
1
100
AcDbSymbolTableRecord
100
AcDbLinetypeTableRecord
  3

  2
BYBLOCK
 70
0
 72
65
 73
0
 40
0.000000
  0
LTYPE
  5
2
100
AcDbSymbolTableRecord
100
AcDbLinetypeTableRecord
  3

  2
BYLAYER
 70
0
 72
65
 73
0
 40
0.000000
  0
LTYPE
  5
3
100
AcDbSymbolTableRecord
100
AcDbLinetypeTableRecord
  3
Solid Line
  2
CONTINUOUS
 70
0
 72
65
 73
0
 40
0.000000
  0
ENDTAB
  0
TABLE
  2
LAYER
  5
9
100
AcDbSymbolTable
 70
4
  0
LAYER
  5
5
100
AcDbSymbolTableRecord
100
AcDbLayerTableRecord
  2
0
 70
0
 62
1
  6
CONTINUOUS
  0
LAYER
  5
6
100
AcDbSymbolTableRecord
100
AcDbLayerTableRecord
  2
BG_OUTLINE
 70
0
 62
2
  6
CONTINUOUS
  0
LAYER
  5
7
100
AcDbSymbolTableRecord
100
AcDbLayerTableRecord
  2
ET_BOTTOM
 70
0
 62
3
  6
CONTINUOUS
  0
LAYER
  5
8
100
AcDbSymbolTableRecord
100
AcDbLayerTableRecord
  2
PIN_BOTTOM
 70
0
 62
4
  6
CONTINUOUS
  0
ENDTAB
  0
TABLE
  2
STYLE
  5
b
100
AcDbSymbolTable
 70
1
  0
STYLE
  5
a
100
AcDbSymbolTableRecord
100
AcDbTextStyleTableRecord
  2
STANDARD
 70
0
 40
0.000000
 41
1.000000
 50
0.000000
 71
0
 42
0.200000
  3
txt
  0
ENDTAB
  0
TABLE
  2
VPORT
  5
c
100
AcDbSymbolTable
 70
1
  0
ENDTAB
  0
TABLE
  2
VIEW
  5
d
100
AcDbSymbolTable
 70
1
  0
ENDTAB
  0
TABLE
  2
APPID
  5
f
100
AcDbSymbolTable
 70
1
  0
APPID
  5
e
100
AcDbSymbolTableRecord
100
AcDbRegAppTableRecord
  2
ACAD
 70
0
  0
ENDTAB
  0
TABLE
  2
UCS
  5
10
100
AcDbSymbolTable
 70
1
  0
ENDTAB
  0
TABLE
  2
BLOCK_RECORD
  5
11
100
AcDbSymbolTable
 70
10
  0
BLOCK_RECORD
  5
6d
100
AcDbSymbolTableRecord
100
AcDbBlockTableRecord
  2
FIGURE_DIAMOND
  0
BLOCK_RECORD
  5
64
100
AcDbSymbolTableRecord
100
AcDbBlockTableRecord
  2
FIGURE_CROSS
  0
BLOCK_RECORD
  5
59
100
AcDbSymbolTableRecord
100
AcDbBlockTableRecord
  2
FIGURE_TRI
  0
BLOCK_RECORD
  5
51
100
AcDbSymbolTableRecord
100
AcDbBlockTableRecord
  2
FIGURE_OBLONG
  0
BLOCK_RECORD
  5
40
100
AcDbSymbolTableRecord
100
AcDbBlockTableRecord
  2
FIGURE_OCT
  0
BLOCK_RECORD
  5
33
100
AcDbSymbolTableRecord
100
AcDbBlockTableRecord
  2
FIGURE_HEX
  0
BLOCK_RECORD
  5
28
100
AcDbSymbolTableRecord
100
AcDbBlockTableRecord
  2
FIGURE_SQUARE
  0
BLOCK_RECORD
  5
1f
100
AcDbSymbolTableRecord
100
AcDbBlockTableRecord
  2
FIGURE_CIRCLE
  0
BLOCK_RECORD
  5
1b
100
AcDbSymbolTableRecord
100
AcDbBlockTableRecord
  2
*PAPER_SPACE
  0
BLOCK_RECORD
  5
18
100
AcDbSymbolTableRecord
100
AcDbBlockTableRecord
  2
*MODEL_SPACE
  0
ENDTAB
  0
TABLE
  2
DIMSTYLE
  5
12
100
AcDbSymbolTable
 70
1
  0
ENDTAB
  0
ENDSEC
  0
SECTION
  2
BLOCKS
  0
BLOCK
  5
16
100
AcDbEntity
  8
0
100
AcDbBlockBegin
  2
*MODEL_SPACE
 70
0
 10
0.000000
 20
0.000000
  3
*MODEL_SPACE
  0
ENDBLK
  5
17
100
AcDbEntity
  8
0
100
AcDbBlockEnd
  0
BLOCK
  5
19
100
AcDbEntity
  8
0
100
AcDbBlockBegin
  2
*PAPER_SPACE
 70
0
 10
0.000000
 20
0.000000
  3
*PAPER_SPACE
  0
ENDBLK
  5
1a
100
AcDbEntity
  8
0
100
AcDbBlockEnd
  0
BLOCK
  5
1c
100
AcDbEntity
  8
0
100
AcDbBlockBegin
  2
FIGURE_CIRCLE
 70
0
 10
0.000000
 20
0.000000
  3
FIGURE_CIRCLE
  0
CIRCLE
  5
1e
100
AcDbEntity
  8
0
100
AcDbCircle
 10
0.000000
 20
0.000000
 40
0.500000
  0
ENDBLK
  5
1d
100
AcDbEntity
  8
0
100
AcDbBlockEnd
  0
BLOCK
  5
20
100
AcDbEntity
  8
0
100
AcDbBlockBegin
  2
FIGURE_SQUARE
 70
0
 10
0.000000
 20
0.000000
  3
FIGURE_SQUARE
  0
POLYLINE
  5
22
100
AcDbEntity
  8
0
100
AcDb2dPolyline
 66
1
 70
1
 40
0.000000
 41
0.000000
 39
0.000000
  0
VERTEX
  5
24
100
AcDbEntity
  8
0
100
AcDbVertex
100
AcDb2dVertex
 10
-0.500000
 20
-0.500000
 40
0.000000
 41
0.000000
 42
0.000000
  0
VERTEX
  5
25
100
AcDbEntity
  8
0
100
AcDbVertex
100
AcDb2dVertex
 10
-0.500000
 20
0.500000
 40
0.000000
 41
0.000000
 42
0.000000
  0
VERTEX
  5
26
100
AcDbEntity
  8
0
100
AcDbVertex
100
AcDb2dVertex
 10
0.500000
 20
0.500000
 40
0.000000
 41
0.000000
 42
0.000000
  0
VERTEX
  5
27
100
AcDbEntity
  8
0
100
AcDbVertex
100
AcDb2dVertex
 10
0.500000
 20
-0.500000
 40
0.000000
 41
0.000000
 42
0.000000
  0
SEQEND
  5
23
100
AcDbEntity
  0
ENDBLK
  5
21
100
AcDbEntity
  8
0
100
AcDbBlockEnd
  0
BLOCK
  5
29
100
AcDbEntity
  8
0
100
AcDbBlockBegin
  2
FIGURE_HEX
 70
0
 10
0.000000
 20
0.000000
  3
FIGURE_HEX
  0
POLYLINE
  5
2b
100
AcDbEntity
  8
0
100
AcDb2dPolyline
 66
1
 70
1
 40
0.000000
 41
0.000000
 39
0.000000
  0
VERTEX
  5
2d
100
AcDbEntity
  8
0
100
AcDbVertex
100
AcDb2dVertex
 10
-0.500000
 20
0.000000
 40
0.000000
 41
0.000000
 42
0.000000
  0
VERTEX
  5
2e
100
AcDbEntity
  8
0
100
AcDbVertex
100
AcDb2dVertex
 10
-0.250000
 20
0.500000
 40
0.000000
 41
0.000000
 42
0.000000
  0
VERTEX
  5
2f
100
AcDbEntity
  8
0
100
AcDbVertex
100
AcDb2dVertex
 10
0.250000
 20
0.500000
 40
0.000000
 41
0.000000
 42
0.000000
  0
VERTEX
  5
30
100
AcDbEntity
  8
0
100
AcDbVertex
100
AcDb2dVertex
 10
0.500000
 20
0.000000
 40
0.000000
 41
0.000000
 42
0.000000
  0
VERTEX
  5
31
100
AcDbEntity
  8
0
100
AcDbVertex
100
AcDb2dVertex
 10
0.250000
 20
-0.500000
 40
0.000000
 41
0.000000
 42
0.000000
  0
VERTEX
  5
32
100
AcDbEntity
  8
0
100
AcDbVertex
100
AcDb2dVertex
 10
-0.250000
 20
-0.500000
 40
0.000000
 41
0.000000
 42
0.000000
  0
SEQEND
  5
2c
100
AcDbEntity
  0
ENDBLK
  5
2a
100
AcDbEntity
  8
0
100
AcDbBlockEnd
  0
BLOCK
  5
34
100
AcDbEntity
  8
0
100
AcDbBlockBegin
  2
FIGURE_OCT
 70
0
 10
0.000000
 20
0.000000
  3
FIGURE_OCT
  0
POLYLINE
  5
36
100
AcDbEntity
  8
0
100
AcDb2dPolyline
 66
1
 70
1
 40
0.000000
 41
0.000000
 39
0.000000
  0
VERTEX
  5
38
100
AcDbEntity
  8
0
100
AcDbVertex
100
AcDb2dVertex
 10
-0.500000
 20
-0.207100
 40
0.000000
 41
0.000000
 42
0.000000
  0
VERTEX
  5
39
100
AcDbEntity
  8
0
100
AcDbVertex
100
AcDb2dVertex
 10
-0.500000
 20
0.207100
 40
0.000000
 41
0.000000
 42
0.000000
  0
VERTEX
  5
3a
100
AcDbEntity
  8
0
100
AcDbVertex
100
AcDb2dVertex
 10
-0.207100
 20
0.500000
 40
0.000000
 41
0.000000
 42
0.000000
  0
VERTEX
  5
3b
100
AcDbEntity
  8
0
100
AcDbVertex
100
AcDb2dVertex
 10
0.207100
 20
0.500000
 40
0.000000
 41
0.000000
 42
0.000000
  0
VERTEX
  5
3c
100
AcDbEntity
  8
0
100
AcDbVertex
100
AcDb2dVertex
 10
0.500000
 20
0.207100
 40
0.000000
 41
0.000000
 42
0.000000
  0
VERTEX
  5
3d
100
AcDbEntity
  8
0
100
AcDbVertex
100
AcDb2dVertex
 10
0.500000
 20
-0.207100
 40
0.000000
 41
0.000000
 42
0.000000
  0
VERTEX
  5
3e
100
AcDbEntity
  8
0
100
AcDbVertex
100
AcDb2dVertex
 10
0.207100
 20
-0.500000
 40
0.000000
 41
0.000000
 42
0.000000
  0
VERTEX
  5
3f
100
AcDbEntity
  8
0
100
AcDbVertex
100
AcDb2dVertex
 10
-0.207100
 20
-0.500000
 40
0.000000
 41
0.000000
 42
0.000000
  0
SEQEND
  5
37
100
AcDbEntity
  0
ENDBLK
  5
35
100
AcDbEntity
  8
0
100
AcDbBlockEnd
  0
BLOCK
  5
41
100
AcDbEntity
  8
0
100
AcDbBlockBegin
  2
FIGURE_OBLONG
 70
0
 10
0.000000
 20
0.000000
  3
FIGURE_OBLONG
  0
POLYLINE
  5
43
100
AcDbEntity
  8
0
100
AcDb2dPolyline
 66
1
 70
1
 40
0.000000
 41
0.000000
 39
0.000000
  0
VERTEX
  5
45
100
AcDbEntity
  8
0
100
AcDbVertex
100
AcDb2dVertex
 10
-0.500000
 20
-0.125000
 40
0.000000
 41
0.000000
 42
0.000000
  0
VERTEX
  5
46
100
AcDbEntity
  8
0
100
AcDbVertex
100
AcDb2dVertex
 10
-0.500000
 20
0.125000
 40
0.000000
 41
0.000000
 42
0.000000
  0
VERTEX
  5
47
100
AcDbEntity
  8
0
100
AcDbVertex
100
AcDb2dVertex
 10
-0.416000
 20
0.375000
 40
0.000000
 41
0.000000
 42
0.000000
  0
VERTEX
  5
48
100
AcDbEntity
  8
0
100
AcDbVertex
100
AcDb2dVertex
 10
-0.250000
 20
0.500000
 40
0.000000
 41
0.000000
 42
0.000000
  0
VERTEX
  5
49
100
AcDbEntity
  8
0
100
AcDbVertex
100
AcDb2dVertex
 10
0.250000
 20
0.500000
 40
0.000000
 41
0.000000
 42
0.000000
  0
VERTEX
  5
4a
100
AcDbEntity
  8
0
100
AcDbVertex
100
AcDb2dVertex
 10
0.416000
 20
0.375000
 40
0.000000
 41
0.000000
 42
0.000000
  0
VERTEX
  5
4b
100
AcDbEntity
  8
0
100
AcDbVertex
100
AcDb2dVertex
 10
0.500000
 20
0.125000
 40
0.000000
 41
0.000000
 42
0.000000
  0
VERTEX
  5
4c
100
AcDbEntity
  8
0
100
AcDbVertex
100
AcDb2dVertex
 10
0.500000
 20
-0.125000
 40
0.000000
 41
0.000000
 42
0.000000
  0
VERTEX
  5
4d
100
AcDbEntity
  8
0
100
AcDbVertex
100
AcDb2dVertex
 10
0.416000
 20
-0.375000
 40
0.000000
 41
0.000000
 42
0.000000
  0
VERTEX
  5
4e
100
AcDbEntity
  8
0
100
AcDbVertex
100
AcDb2dVertex
 10
0.250000
 20
-0.500000
 40
0.000000
 41
0.000000
 42
0.000000
  0
VERTEX
  5
4f
100
AcDbEntity
  8
0
100
AcDbVertex
100
AcDb2dVertex
 10
-0.250000
 20
-0.500000
 40
0.000000
 41
0.000000
 42
0.000000
  0
VERTEX
  5
50
100
AcDbEntity
  8
0
100
AcDbVertex
100
AcDb2dVertex
 10
-0.416000
 20
-0.375000
 40
0.000000
 41
0.000000
 42
0.000000
  0
SEQEND
  5
44
100
AcDbEntity
  0
ENDBLK
  5
42
100
AcDbEntity
  8
0
100
AcDbBlockEnd
  0
BLOCK
  5
52
100
AcDbEntity
  8
0
100
AcDbBlockBegin
  2
FIGURE_TRI
 70
0
 10
0.000000
 20
0.000000
  3
FIGURE_TRI
  0
POLYLINE
  5
54
100
AcDbEntity
  8
0
100
AcDb2dPolyline
 66
1
 70
1
 40
0.000000
 41
0.000000
 39
0.000000
  0
VERTEX
  5
56
100
AcDbEntity
  8
0
100
AcDbVertex
100
AcDb2dVertex
 10
-0.500000
 20
-0.500000
 40
0.000000
 41
0.000000
 42
0.000000
  0
VERTEX
  5
57
100
AcDbEntity
  8
0
100
AcDbVertex
100
AcDb2dVertex
 10
0.000000
 20
0.500000
 40
0.000000
 41
0.000000
 42
0.000000
  0
VERTEX
  5
58
100
AcDbEntity
  8
0
100
AcDbVertex
100
AcDb2dVertex
 10
0.500000
 20
-0.500000
 40
0.000000
 41
0.000000
 42
0.000000
  0
SEQEND
  5
55
100
AcDbEntity
  0
ENDBLK
  5
53
100
AcDbEntity
  8
0
100
AcDbBlockEnd
  0
BLOCK
  5
5a
100
AcDbEntity
  8
0
100
AcDbBlockBegin
  2
FIGURE_CROSS
 70
0
 10
0.000000
 20
0.000000
  3
FIGURE_CROSS
  0
POLYLINE
  5
5c
100
AcDbEntity
  8
0
100
AcDb2dPolyline
 66
1
 70
0
 40
0.000000
 41
0.000000
 39
0.000000
  0
VERTEX
  5
60
100
AcDbEntity
  8
0
100
AcDbVertex
100
AcDb2dVertex
 10
-0.500000
 20
0.000000
 40
0.000000
 41
0.000000
 42
0.000000
  0
VERTEX
  5
61
100
AcDbEntity
  8
0
100
AcDbVertex
100
AcDb2dVertex
 10
0.500000
 20
0.000000
 40
0.000000
 41
0.000000
 42
0.000000
  0
SEQEND
  5
5d
100
AcDbEntity
  0
POLYLINE
  5
5e
100
AcDbEntity
  8
0
100
AcDb2dPolyline
 66
1
 70
0
 40
0.000000
 41
0.000000
 39
0.000000
  0
VERTEX
  5
62
100
AcDbEntity
  8
0
100
AcDbVertex
100
AcDb2dVertex
 10
0.000000
 20
0.500000
 40
0.000000
 41
0.000000
 42
0.000000
  0
VERTEX
  5
63
100
AcDbEntity
  8
0
100
AcDbVertex
100
AcDb2dVertex
 10
0.000000
 20
-0.500000
 40
0.000000
 41
0.000000
 42
0.000000
  0
SEQEND
  5
5f
100
AcDbEntity
  0
ENDBLK
  5
5b
100
AcDbEntity
  8
0
100
AcDbBlockEnd
  0
BLOCK
  5
65
100
AcDbEntity
  8
0
100
AcDbBlockBegin
  2
FIGURE_DIAMOND
 70
0
 10
0.000000
 20
0.000000
  3
FIGURE_DIAMOND
  0
POLYLINE
  5
67
100
AcDbEntity
  8
0
100
AcDb2dPolyline
 66
1
 70
1
 40
0.000000
 41
0.000000
 39
0.000000
  0
VERTEX
  5
69
100
AcDbEntity
  8
0
100
AcDbVertex
100
AcDb2dVertex
 10
-0.500000
 20
0.000000
 40
0.000000
 41
0.000000
 42
0.000000
  0
VERTEX
  5
6a
100
AcDbEntity
  8
0
100
AcDbVertex
100
AcDb2dVertex
 10
0.000000
 20
0.500000
 40
0.000000
 41
0.000000
 42
0.000000
  0
VERTEX
  5
6b
100
AcDbEntity
  8
0
100
AcDbVertex
100
AcDb2dVertex
 10
0.500000
 20
0.000000
 40
0.000000
 41
0.000000
 42
0.000000
  0
VERTEX
  5
6c
100
AcDbEntity
  8
0
100
AcDbVertex
100
AcDb2dVertex
 10
0.000000
 20
-0.500000
 40
0.000000
 41
0.000000
 42
0.000000
  0
SEQEND
  5
68
100
AcDbEntity
  0
ENDBLK
  5
66
100
AcDbEntity
  8
0
100
AcDbBlockEnd
  0
ENDSEC
  0
SECTION
  2
ENTITIES
  0
INSERT
  5
6e
100
AcDbEntity
  8
MANUFACTURING_NCDRILL_FIGURE
100
AcDbBlockReference
  2
FIGURE_CIRCLE
 10
-63.250000
 20
22.003900
 41
1.270000
 42
1.270000
 50
0.000000
  0
TEXT
  5
70
100
AcDbEntity
  8
MANUFACTURING_NCDRILL_FIGURE
100
AcDbText
 10
-63.673333
 20
21.686400
 11
-63.250000
 21
22.003900
 40
0.635000
 41
1.000000
 50
0.000000
  7
STANDARD
 71
0
 72
1
  1
+
100
AcDbText
 73
2
  0
INSERT
  5
71
100
AcDbEntity
  8
MANUFACTURING_NCDRILL_FIGURE
100
AcDbBlockReference
  2
FIGURE_CIRCLE
 10
-63.250000
 20
-17.996100
 41
1.270000
 42
1.270000
 50
0.000000
  0
TEXT
  5
73
100
AcDbEntity
  8
MANUFACTURING_NCDRILL_FIGURE
100
AcDbText
 10
-63.673333
 20
-18.313600
 11
-63.250000
 21
-17.996100
 40
0.635000
 41
1.000000
 50
0.000000
  7
STANDARD
 71
0
 72
1
  1
+
100
AcDbText
 73
2
  0
INSERT
  5
74
100
AcDbEntity
  8
MANUFACTURING_NCDRILL_FIGURE
100
AcDbBlockReference
  2
FIGURE_CIRCLE
 10
63.250000
 20
-22.003900
 41
1.270000
 42
1.270000
 50
0.000000
  0
TEXT
  5
76
100
AcDbEntity
  8
MANUFACTURING_NCDRILL_FIGURE
100
AcDbText
 10
62.826667
 20
-22.321400
 11
63.250000
 21
-22.003900
 40
0.635000
 41
1.000000
 50
0.000000
  7
STANDARD
 71
0
 72
1
  1
+
100
AcDbText
 73
2
  0
INSERT
  5
77
100
AcDbEntity
  8
MANUFACTURING_NCDRILL_FIGURE
100
AcDbBlockReference
  2
FIGURE_CIRCLE
 10
63.250000
 20
17.996100
 41
1.270000
 42
1.270000
 50
0.000000
  0
TEXT
  5
79
100
AcDbEntity
  8
MANUFACTURING_NCDRILL_FIGURE
100
AcDbText
 10
62.826667
 20
17.678600
 11
63.250000
 21
17.996100
 40
0.635000
 41
1.000000
 50
0.000000
  7
STANDARD
 71
0
 72
1
  1
+
100
AcDbText
 73
2
  0
INSERT
  5
7a
100
AcDbEntity
  8
MANUFACTURING_NCDRILL_FIGURE
100
AcDbBlockReference
  2
FIGURE_CIRCLE
 10
63.200000
 20
22.006800
 41
1.270000
 42
1.270000
 50
0.000000
  0
TEXT
  5
7c
100
AcDbEntity
  8
MANUFACTURING_NCDRILL_FIGURE
100
AcDbText
 10
62.776667
 20
21.689300
 11
63.200000
 21
22.006800
 40
0.635000
 41
1.000000
 50
0.000000
  7
STANDARD
 71
0
 72
1
  1
+
100
AcDbText
 73
2
  0
INSERT
  5
7d
100
AcDbEntity
  8
MANUFACTURING_NCDRILL_FIGURE
100
AcDbBlockReference
  2
FIGURE_CIRCLE
 10
63.200000
 20
-17.993200
 41
1.270000
 42
1.270000
 50
0.000000
  0
TEXT
  5
7f
100
AcDbEntity
  8
MANUFACTURING_NCDRILL_FIGURE
100
AcDbText
 10
62.776667
 20
-18.310700
 11
63.200000
 21
-17.993200
 40
0.635000
 41
1.000000
 50
0.000000
  7
STANDARD
 71
0
 72
1
  1
+
100
AcDbText
 73
2
  0
INSERT
  5
80
100
AcDbEntity
  8
MANUFACTURING_NCDRILL_FIGURE
100
AcDbBlockReference
  2
FIGURE_CIRCLE
 10
-63.200000
 20
-22.006800
 41
1.270000
 42
1.270000
 50
0.000000
  0
TEXT
  5
82
100
AcDbEntity
  8
MANUFACTURING_NCDRILL_FIGURE
100
AcDbText
 10
-63.623333
 20
-22.324300
 11
-63.200000
 21
-22.006800
 40
0.635000
 41
1.000000
 50
0.000000
  7
STANDARD
 71
0
 72
1
  1
+
100
AcDbText
 73
2
  0
INSERT
  5
83
100
AcDbEntity
  8
MANUFACTURING_NCDRILL_FIGURE
100
AcDbBlockReference
  2
FIGURE_CIRCLE
 10
-63.200000
 20
17.993200
 41
1.270000
 42
1.270000
 50
0.000000
  0
TEXT
  5
85
100
AcDbEntity
  8
MANUFACTURING_NCDRILL_FIGURE
100
AcDbText
 10
-63.623333
 20
17.675700
 11
-63.200000
 21
17.993200
 40
0.635000
 41
1.000000
 50
0.000000
  7
STANDARD
 71
0
 72
1
  1
+
100
AcDbText
 73
2
  0
INSERT
  5
86
100
AcDbEntity
  8
MANUFACTURING_NCDRILL_FIGURE
100
AcDbBlockReference
  2
FIGURE_CIRCLE
 10
17.996100
 20
-33.250000
 41
1.270000
 42
1.270000
 50
0.000000
  0
TEXT
  5
88
100
AcDbEntity
  8
MANUFACTURING_NCDRILL_FIGURE
100
AcDbText
 10
17.572767
 20
-33.567500
 11
17.996100
 21
-33.250000
 40
0.635000
 41
1.000000
 50
0.000000
  7
STANDARD
 71
0
 72
1
  1
+
100
AcDbText
 73
2
  0
INSERT
  5
89
100
AcDbEntity
  8
MANUFACTURING_NCDRILL_FIGURE
100
AcDbBlockReference
  2
FIGURE_CIRCLE
 10
17.996100
 20
-73.250000
 41
1.270000
 42
1.270000
 50
0.000000
  0
TEXT
  5
8b
100
AcDbEntity
  8
MANUFACTURING_NCDRILL_FIGURE
100
AcDbText
 10
17.572767
 20
-73.567500
 11
17.996100
 21
-73.250000
 40
0.635000
 41
1.000000
 50
0.000000
  7
STANDARD
 71
0
 72
1
  1
+
100
AcDbText
 73
2
  0
INSERT
  5
8c
100
AcDbEntity
  8
MANUFACTURING_NCDRILL_FIGURE
100
AcDbBlockReference
  2
FIGURE_CIRCLE
 10
-22.003900
 20
-73.250000
 41
1.270000
 42
1.270000
 50
0.000000
  0
TEXT
  5
8e
100
AcDbEntity
  8
MANUFACTURING_NCDRILL_FIGURE
100
AcDbText
 10
-22.427233
 20
-73.567500
 11
-22.003900
 21
-73.250000
 40
0.635000
 41
1.000000
 50
0.000000
  7
STANDARD
 71
0
 72
1
  1
+
100
AcDbText
 73
2
  0
INSERT
  5
8f
100
AcDbEntity
  8
MANUFACTURING_NCDRILL_FIGURE
100
AcDbBlockReference
  2
FIGURE_CIRCLE
 10
-22.003900
 20
-33.250000
 41
1.270000
 42
1.270000
 50
0.000000
  0
TEXT
  5
91
100
AcDbEntity
  8
MANUFACTURING_NCDRILL_FIGURE
100
AcDbText
 10
-22.427233
 20
-33.567500
 11
-22.003900
 21
-33.250000
 40
0.635000
 41
1.000000
 50
0.000000
  7
STANDARD
 71
0
 72
1
  1
+
100
AcDbText
 73
2
  0
INSERT
  5
92
100
AcDbEntity
  8
MANUFACTURING_NCDRILL_FIGURE
100
AcDbBlockReference
  2
FIGURE_CIRCLE
 10
-17.996100
 20
33.250000
 41
1.270000
 42
1.270000
 50
0.000000
  0
TEXT
  5
94
100
AcDbEntity
  8
MANUFACTURING_NCDRILL_FIGURE
100
AcDbText
 10
-18.419433
 20
32.932500
 11
-17.996100
 21
33.250000
 40
0.635000
 41
1.000000
 50
0.000000
  7
STANDARD
 71
0
 72
1
  1
+
100
AcDbText
 73
2
  0
INSERT
  5
95
100
AcDbEntity
  8
MANUFACTURING_NCDRILL_FIGURE
100
AcDbBlockReference
  2
FIGURE_CIRCLE
 10
-17.996100
 20
73.250000
 41
1.270000
 42
1.270000
 50
0.000000
  0
TEXT
  5
97
100
AcDbEntity
  8
MANUFACTURING_NCDRILL_FIGURE
100
AcDbText
 10
-18.419433
 20
72.932500
 11
-17.996100
 21
73.250000
 40
0.635000
 41
1.000000
 50
0.000000
  7
STANDARD
 71
0
 72
1
  1
+
100
AcDbText
 73
2
  0
INSERT
  5
98
100
AcDbEntity
  8
MANUFACTURING_NCDRILL_FIGURE
100
AcDbBlockReference
  2
FIGURE_CIRCLE
 10
22.003900
 20
73.250000
 41
1.270000
 42
1.270000
 50
0.000000
  0
TEXT
  5
9a
100
AcDbEntity
  8
MANUFACTURING_NCDRILL_FIGURE
100
AcDbText
 10
21.580567
 20
72.932500
 11
22.003900
 21
73.250000
 40
0.635000
 41
1.000000
 50
0.000000
  7
STANDARD
 71
0
 72
1
  1
+
100
AcDbText
 73
2
  0
INSERT
  5
9b
100
AcDbEntity
  8
MANUFACTURING_NCDRILL_FIGURE
100
AcDbBlockReference
  2
FIGURE_CIRCLE
 10
22.003900
 20
33.250000
 41
1.270000
 42
1.270000
 50
0.000000
  0
TEXT
  5
9d
100
AcDbEntity
  8
MANUFACTURING_NCDRILL_FIGURE
100
AcDbText
 10
21.580567
 20
32.932500
 11
22.003900
 21
33.250000
 40
0.635000
 41
1.000000
 50
0.000000
  7
STANDARD
 71
0
 72
1
  1
+
100
AcDbText
 73
2
  0
INSERT
  5
9e
100
AcDbEntity
  8
MANUFACTURING_NCDRILL_FIGURE
100
AcDbBlockReference
  2
FIGURE_CIRCLE
 10
-57.996100
 20
63.250000
 41
1.270000
 42
1.270000
 50
0.000000
  0
TEXT
  5
a0
100
AcDbEntity
  8
MANUFACTURING_NCDRILL_FIGURE
100
AcDbText
 10
-58.419433
 20
62.932500
 11
-57.996100
 21
63.250000
 40
0.635000
 41
1.000000
 50
0.000000
  7
STANDARD
 71
0
 72
1
  1
+
100
AcDbText
 73
2
  0
INSERT
  5
a1
100
AcDbEntity
  8
MANUFACTURING_NCDRILL_FIGURE
100
AcDbBlockReference
  2
FIGURE_CIRCLE
 10
62.003900
 20
63.250000
 41
1.270000
 42
1.270000
 50
0.000000
  0
TEXT
  5
a3
100
AcDbEntity
  8
MANUFACTURING_NCDRILL_FIGURE
100
AcDbText
 10
61.580567
 20
62.932500
 11
62.003900
 21
63.250000
 40
0.635000
 41
1.000000
 50
0.000000
  7
STANDARD
 71
0
 72
1
  1
+
100
AcDbText
 73
2
  0
INSERT
  5
a4
100
AcDbEntity
  8
MANUFACTURING_NCDRILL_FIGURE
100
AcDbBlockReference
  2
FIGURE_CIRCLE
 10
57.996100
 20
-63.250000
 41
1.270000
 42
1.270000
 50
0.000000
  0
TEXT
  5
a6
100
AcDbEntity
  8
MANUFACTURING_NCDRILL_FIGURE
100
AcDbText
 10
57.572767
 20
-63.567500
 11
57.996100
 21
-63.250000
 40
0.635000
 41
1.000000
 50
0.000000
  7
STANDARD
 71
0
 72
1
  1
+
100
AcDbText
 73
2
  0
INSERT
  5
a7
100
AcDbEntity
  8
MANUFACTURING_NCDRILL_FIGURE
100
AcDbBlockReference
  2
FIGURE_CIRCLE
 10
-62.003900
 20
-63.250000
 41
1.270000
 42
1.270000
 50
0.000000
  0
TEXT
  5
a9
100
AcDbEntity
  8
MANUFACTURING_NCDRILL_FIGURE
100
AcDbText
 10
-62.427233
 20
-63.567500
 11
-62.003900
 21
-63.250000
 40
0.635000
 41
1.000000
 50
0.000000
  7
STANDARD
 71
0
 72
1
  1
+
100
AcDbText
 73
2
  0
INSERT
  5
aa
100
AcDbEntity
  8
MANUFACTURING_NCDRILL_FIGURE
100
AcDbBlockReference
  2
FIGURE_CIRCLE
 10
57.993200
 20
63.200000
 41
1.270000
 42
1.270000
 50
0.000000
  0
TEXT
  5
ac
100
AcDbEntity
  8
MANUFACTURING_NCDRILL_FIGURE
100
AcDbText
 10
57.569867
 20
62.882500
 11
57.993200
 21
63.200000
 40
0.635000
 41
1.000000
 50
0.000000
  7
STANDARD
 71
0
 72
1
  1
+
100
AcDbText
 73
2
  0
INSERT
  5
ad
100
AcDbEntity
  8
MANUFACTURING_NCDRILL_FIGURE
100
AcDbBlockReference
  2
FIGURE_CIRCLE
 10
62.006800
 20
-63.200000
 41
1.270000
 42
1.270000
 50
0.000000
  0
TEXT
  5
af
100
AcDbEntity
  8
MANUFACTURING_NCDRILL_FIGURE
100
AcDbText
 10
61.583467
 20
-63.517500
 11
62.006800
 21
-63.200000
 40
0.635000
 41
1.000000
 50
0.000000
  7
STANDARD
 71
0
 72
1
  1
+
100
AcDbText
 73
2
  0
INSERT
  5
b0
100
AcDbEntity
  8
MANUFACTURING_NCDRILL_FIGURE
100
AcDbBlockReference
  2
FIGURE_CIRCLE
 10
22.006800
 20
-33.200000
 41
1.270000
 42
1.270000
 50
0.000000
  0
TEXT
  5
b2
100
AcDbEntity
  8
MANUFACTURING_NCDRILL_FIGURE
100
AcDbText
 10
21.583467
 20
-33.517500
 11
22.006800
 21
-33.200000
 40
0.635000
 41
1.000000
 50
0.000000
  7
STANDARD
 71
0
 72
1
  1
+
100
AcDbText
 73
2
  0
INSERT
  5
b3
100
AcDbEntity
  8
MANUFACTURING_NCDRILL_FIGURE
100
AcDbBlockReference
  2
FIGURE_CIRCLE
 10
17.993200
 20
73.200000
 41
1.270000
 42
1.270000
 50
0.000000
  0
TEXT
  5
b5
100
AcDbEntity
  8
MANUFACTURING_NCDRILL_FIGURE
100
AcDbText
 10
17.569867
 20
72.882500
 11
17.993200
 21
73.200000
 40
0.635000
 41
1.000000
 50
0.000000
  7
STANDARD
 71
0
 72
1
  1
+
100
AcDbText
 73
2
  0
INSERT
  5
b6
100
AcDbEntity
  8
MANUFACTURING_NCDRILL_FIGURE
100
AcDbBlockReference
  2
FIGURE_CIRCLE
 10
17.993200
 20
33.200000
 41
1.270000
 42
1.270000
 50
0.000000
  0
TEXT
  5
b8
100
AcDbEntity
  8
MANUFACTURING_NCDRILL_FIGURE
100
AcDbText
 10
17.569867
 20
32.882500
 11
17.993200
 21
33.200000
 40
0.635000
 41
1.000000
 50
0.000000
  7
STANDARD
 71
0
 72
1
  1
+
100
AcDbText
 73
2
  0
INSERT
  5
b9
100
AcDbEntity
  8
MANUFACTURING_NCDRILL_FIGURE
100
AcDbBlockReference
  2
FIGURE_CIRCLE
 10
-22.006800
 20
73.200000
 41
1.270000
 42
1.270000
 50
0.000000
  0
TEXT
  5
bb
100
AcDbEntity
  8
MANUFACTURING_NCDRILL_FIGURE
100
AcDbText
 10
-22.430133
 20
72.882500
 11
-22.006800
 21
73.200000
 40
0.635000
 41
1.000000
 50
0.000000
  7
STANDARD
 71
0
 72
1
  1
+
100
AcDbText
 73
2
  0
INSERT
  5
bc
100
AcDbEntity
  8
MANUFACTURING_NCDRILL_FIGURE
100
AcDbBlockReference
  2
FIGURE_CIRCLE
 10
-22.006800
 20
33.200000
 41
1.270000
 42
1.270000
 50
0.000000
  0
TEXT
  5
be
100
AcDbEntity
  8
MANUFACTURING_NCDRILL_FIGURE
100
AcDbText
 10
-22.430133
 20
32.882500
 11
-22.006800
 21
33.200000
 40
0.635000
 41
1.000000
 50
0.000000
  7
STANDARD
 71
0
 72
1
  1
+
100
AcDbText
 73
2
  0
INSERT
  5
bf
100
AcDbEntity
  8
MANUFACTURING_NCDRILL_FIGURE
100
AcDbBlockReference
  2
FIGURE_CIRCLE
 10
-62.006800
 20
63.200000
 41
1.270000
 42
1.270000
 50
0.000000
  0
TEXT
  5
c1
100
AcDbEntity
  8
MANUFACTURING_NCDRILL_FIGURE
100
AcDbText
 10
-62.430133
 20
62.882500
 11
-62.006800
 21
63.200000
 40
0.635000
 41
1.000000
 50
0.000000
  7
STANDARD
 71
0
 72
1
  1
+
100
AcDbText
 73
2
  0
INSERT
  5
c2
100
AcDbEntity
  8
MANUFACTURING_NCDRILL_FIGURE
100
AcDbBlockReference
  2
FIGURE_CIRCLE
 10
-57.993200
 20
-63.200000
 41
1.270000
 42
1.270000
 50
0.000000
  0
TEXT
  5
c4
100
AcDbEntity
  8
MANUFACTURING_NCDRILL_FIGURE
100
AcDbText
 10
-58.416533
 20
-63.517500
 11
-57.993200
 21
-63.200000
 40
0.635000
 41
1.000000
 50
0.000000
  7
STANDARD
 71
0
 72
1
  1
+
100
AcDbText
 73
2
  0
INSERT
  5
c5
100
AcDbEntity
  8
MANUFACTURING_NCDRILL_FIGURE
100
AcDbBlockReference
  2
FIGURE_CIRCLE
 10
22.006800
 20
-73.200000
 41
1.270000
 42
1.270000
 50
0.000000
  0
TEXT
  5
c7
100
AcDbEntity
  8
MANUFACTURING_NCDRILL_FIGURE
100
AcDbText
 10
21.583467
 20
-73.517500
 11
22.006800
 21
-73.200000
 40
0.635000
 41
1.000000
 50
0.000000
  7
STANDARD
 71
0
 72
1
  1
+
100
AcDbText
 73
2
  0
INSERT
  5
c8
100
AcDbEntity
  8
MANUFACTURING_NCDRILL_FIGURE
100
AcDbBlockReference
  2
FIGURE_CIRCLE
 10
-17.993200
 20
-33.200000
 41
1.270000
 42
1.270000
 50
0.000000
  0
TEXT
  5
ca
100
AcDbEntity
  8
MANUFACTURING_NCDRILL_FIGURE
100
AcDbText
 10
-18.416533
 20
-33.517500
 11
-17.993200
 21
-33.200000
 40
0.635000
 41
1.000000
 50
0.000000
  7
STANDARD
 71
0
 72
1
  1
+
100
AcDbText
 73
2
  0
INSERT
  5
cb
100
AcDbEntity
  8
MANUFACTURING_NCDRILL_FIGURE
100
AcDbBlockReference
  2
FIGURE_CIRCLE
 10
-17.993200
 20
-73.200000
 41
1.270000
 42
1.270000
 50
0.000000
  0
TEXT
  5
cd
100
AcDbEntity
  8
MANUFACTURING_NCDRILL_FIGURE
100
AcDbText
 10
-18.416533
 20
-73.517500
 11
-17.993200
 21
-73.200000
 40
0.635000
 41
1.000000
 50
0.000000
  7
STANDARD
 71
0
 72
1
  1
+
100
AcDbText
 73
2
  0
CIRCLE
  5
ce
100
AcDbEntity
  8
PIN_BOTTOM
100
AcDbCircle
 10
37.000000
 20
0.000000
 40
2.500000
  0
INSERT
  5
cf
100
AcDbEntity
  8
MANUFACTURING_NCDRILL_FIGURE
100
AcDbBlockReference
  2
FIGURE_DIAMOND
 10
37.000000
 20
0.000000
 41
4.572000
 42
4.572000
 50
0.000000
  0
TEXT
  5
d1
100
AcDbEntity
  8
MANUFACTURING_NCDRILL_FIGURE
100
AcDbText
 10
35.476000
 20
-1.143000
 11
37.000000
 21
0.000000
 40
2.286000
 41
1.000000
 50
0.000000
  7
STANDARD
 71
0
 72
1
  1
+
100
AcDbText
 73
2
  0
CIRCLE
  5
d2
100
AcDbEntity
  8
PIN_BOTTOM
100
AcDbCircle
 10
-37.000000
 20
0.000000
 40
2.500000
  0
INSERT
  5
d3
100
AcDbEntity
  8
MANUFACTURING_NCDRILL_FIGURE
100
AcDbBlockReference
  2
FIGURE_DIAMOND
 10
-37.000000
 20
0.000000
 41
4.572000
 42
4.572000
 50
0.000000
  0
TEXT
  5
d5
100
AcDbEntity
  8
MANUFACTURING_NCDRILL_FIGURE
100
AcDbText
 10
-38.524000
 20
-1.143000
 11
-37.000000
 21
0.000000
 40
2.286000
 41
1.000000
 50
0.000000
  7
STANDARD
 71
0
 72
1
  1
+
100
AcDbText
 73
2
  0
CIRCLE
  5
d6
100
AcDbEntity
  8
PIN_BOTTOM
100
AcDbCircle
 10
0.000000
 20
-70.000000
 40
3.302000
  0
INSERT
  5
d7
100
AcDbEntity
  8
MANUFACTURING_NCDRILL_FIGURE
100
AcDbBlockReference
  2
FIGURE_SQUARE
 10
0.000000
 20
-70.000000
 41
3.048000
 42
3.048000
 50
0.000000
  0
CIRCLE
  5
d9
100
AcDbEntity
  8
PIN_BOTTOM
100
AcDbCircle
 10
0.000000
 20
70.000000
 40
3.302000
  0
INSERT
  5
da
100
AcDbEntity
  8
MANUFACTURING_NCDRILL_FIGURE
100
AcDbBlockReference
  2
FIGURE_SQUARE
 10
0.000000
 20
70.000000
 41
3.048000
 42
3.048000
 50
0.000000
  0
CIRCLE
  5
dc
100
AcDbEntity
  8
PIN_BOTTOM
100
AcDbCircle
 10
-60.000000
 20
-40.000000
 40
3.302000
  0
INSERT
  5
dd
100
AcDbEntity
  8
MANUFACTURING_NCDRILL_FIGURE
100
AcDbBlockReference
  2
FIGURE_SQUARE
 10
-60.000000
 20
-40.000000
 41
3.048000
 42
3.048000
 50
0.000000
  0
CIRCLE
  5
df
100
AcDbEntity
  8
PIN_BOTTOM
100
AcDbCircle
 10
60.000000
 20
-40.000000
 40
3.302000
  0
INSERT
  5
e0
100
AcDbEntity
  8
MANUFACTURING_NCDRILL_FIGURE
100
AcDbBlockReference
  2
FIGURE_SQUARE
 10
60.000000
 20
-40.000000
 41
3.048000
 42
3.048000
 50
0.000000
  0
CIRCLE
  5
e2
100
AcDbEntity
  8
PIN_BOTTOM
100
AcDbCircle
 10
60.000000
 20
40.000000
 40
3.302000
  0
INSERT
  5
e3
100
AcDbEntity
  8
MANUFACTURING_NCDRILL_FIGURE
100
AcDbBlockReference
  2
FIGURE_SQUARE
 10
60.000000
 20
40.000000
 41
3.048000
 42
3.048000
 50
0.000000
  0
CIRCLE
  5
e5
100
AcDbEntity
  8
PIN_BOTTOM
100
AcDbCircle
 10
-60.000000
 20
40.000000
 40
3.302000
  0
INSERT
  5
e6
100
AcDbEntity
  8
MANUFACTURING_NCDRILL_FIGURE
100
AcDbBlockReference
  2
FIGURE_SQUARE
 10
-60.000000
 20
40.000000
 41
3.048000
 42
3.048000
 50
0.000000
  0
CIRCLE
  5
e8
100
AcDbEntity
  8
PIN_BOTTOM
100
AcDbCircle
 10
-80.000000
 20
-80.000000
 40
3.302000
  0
INSERT
  5
e9
100
AcDbEntity
  8
MANUFACTURING_NCDRILL_FIGURE
100
AcDbBlockReference
  2
FIGURE_SQUARE
 10
-80.000000
 20
-80.000000
 41
3.048000
 42
3.048000
 50
0.000000
  0
CIRCLE
  5
eb
100
AcDbEntity
  8
PIN_BOTTOM
100
AcDbCircle
 10
80.000000
 20
-80.000000
 40
3.302000
  0
INSERT
  5
ec
100
AcDbEntity
  8
MANUFACTURING_NCDRILL_FIGURE
100
AcDbBlockReference
  2
FIGURE_SQUARE
 10
80.000000
 20
-80.000000
 41
3.048000
 42
3.048000
 50
0.000000
  0
CIRCLE
  5
ee
100
AcDbEntity
  8
PIN_BOTTOM
100
AcDbCircle
 10
80.000000
 20
80.000000
 40
3.302000
  0
INSERT
  5
ef
100
AcDbEntity
  8
MANUFACTURING_NCDRILL_FIGURE
100
AcDbBlockReference
  2
FIGURE_SQUARE
 10
80.000000
 20
80.000000
 41
3.048000
 42
3.048000
 50
0.000000
  0
CIRCLE
  5
f1
100
AcDbEntity
  8
PIN_BOTTOM
100
AcDbCircle
 10
-80.000000
 20
80.000000
 40
3.302000
  0
INSERT
  5
f2
100
AcDbEntity
  8
MANUFACTURING_NCDRILL_FIGURE
100
AcDbBlockReference
  2
FIGURE_SQUARE
 10
-80.000000
 20
80.000000
 41
3.048000
 42
3.048000
 50
0.000000
  0
CIRCLE
  5
f4
100
AcDbEntity
  8
PIN_BOTTOM
100
AcDbCircle
 10
-70.007000
 20
29.994000
 40
0.698500
  0
INSERT
  5
f5
100
AcDbEntity
  8
MANUFACTURING_NCDRILL_FIGURE
100
AcDbBlockReference
  2
FIGURE_CROSS
 10
-70.007000
 20
29.994000
 41
1.397000
 42
1.397000
 50
0.000000
  0
CIRCLE
  5
f7
100
AcDbEntity
  8
PIN_BOTTOM
100
AcDbCircle
 10
-67.467000
 20
32.534000
 40
0.698500
  0
INSERT
  5
f8
100
AcDbEntity
  8
MANUFACTURING_NCDRILL_FIGURE
100
AcDbBlockReference
  2
FIGURE_CROSS
 10
-67.467000
 20
32.534000
 41
1.397000
 42
1.397000
 50
0.000000
  0
CIRCLE
  5
fa
100
AcDbEntity
  8
PIN_BOTTOM
100
AcDbCircle
 10
-67.467000
 20
27.454000
 40
0.698500
  0
INSERT
  5
fb
100
AcDbEntity
  8
MANUFACTURING_NCDRILL_FIGURE
100
AcDbBlockReference
  2
FIGURE_CROSS
 10
-67.467000
 20
27.454000
 41
1.397000
 42
1.397000
 50
0.000000
  0
CIRCLE
  5
fd
100
AcDbEntity
  8
PIN_BOTTOM
100
AcDbCircle
 10
-72.547000
 20
27.454000
 40
0.698500
  0
INSERT
  5
fe
100
AcDbEntity
  8
MANUFACTURING_NCDRILL_FIGURE
100
AcDbBlockReference
  2
FIGURE_CROSS
 10
-72.547000
 20
27.454000
 41
1.397000
 42
1.397000
 50
0.000000
  0
CIRCLE
  5
100
100
AcDbEntity
  8
PIN_BOTTOM
100
AcDbCircle
 10
-72.547000
 20
32.534000
 40
0.698500
  0
INSERT
  5
101
100
AcDbEntity
  8
MANUFACTURING_NCDRILL_FIGURE
100
AcDbBlockReference
  2
FIGURE_CROSS
 10
-72.547000
 20
32.534000
 41
1.397000
 42
1.397000
 50
0.000000
  0
CIRCLE
  5
103
100
AcDbEntity
  8
PIN_BOTTOM
100
AcDbCircle
 10
-50.007000
 20
29.994000
 40
0.698500
  0
INSERT
  5
104
100
AcDbEntity
  8
MANUFACTURING_NCDRILL_FIGURE
100
AcDbBlockReference
  2
FIGURE_CROSS
 10
-50.007000
 20
29.994000
 41
1.397000
 42
1.397000
 50
0.000000
  0
CIRCLE
  5
106
100
AcDbEntity
  8
PIN_BOTTOM
100
AcDbCircle
 10
-47.467000
 20
32.534000
 40
0.698500
  0
INSERT
  5
107
100
AcDbEntity
  8
MANUFACTURING_NCDRILL_FIGURE
100
AcDbBlockReference
  2
FIGURE_CROSS
 10
-47.467000
 20
32.534000
 41
1.397000
 42
1.397000
 50
0.000000
  0
CIRCLE
  5
109
100
AcDbEntity
  8
PIN_BOTTOM
100
AcDbCircle
 10
-47.467000
 20
27.454000
 40
0.698500
  0
INSERT
  5
10a
100
AcDbEntity
  8
MANUFACTURING_NCDRILL_FIGURE
100
AcDbBlockReference
  2
FIGURE_CROSS
 10
-47.467000
 20
27.454000
 41
1.397000
 42
1.397000
 50
0.000000
  0
CIRCLE
  5
10c
100
AcDbEntity
  8
PIN_BOTTOM
100
AcDbCircle
 10
-52.547000
 20
27.454000
 40
0.698500
  0
INSERT
  5
10d
100
AcDbEntity
  8
MANUFACTURING_NCDRILL_FIGURE
100
AcDbBlockReference
  2
FIGURE_CROSS
 10
-52.547000
 20
27.454000
 41
1.397000
 42
1.397000
 50
0.000000
  0
CIRCLE
  5
10f
100
AcDbEntity
  8
PIN_BOTTOM
100
AcDbCircle
 10
-52.547000
 20
32.534000
 40
0.698500
  0
INSERT
  5
110
100
AcDbEntity
  8
MANUFACTURING_NCDRILL_FIGURE
100
AcDbBlockReference
  2
FIGURE_CROSS
 10
-52.547000
 20
32.534000
 41
1.397000
 42
1.397000
 50
0.000000
  0
CIRCLE
  5
112
100
AcDbEntity
  8
PIN_BOTTOM
100
AcDbCircle
 10
-70.007000
 20
9.994000
 40
0.698500
  0
INSERT
  5
113
100
AcDbEntity
  8
MANUFACTURING_NCDRILL_FIGURE
100
AcDbBlockReference
  2
FIGURE_CROSS
 10
-70.007000
 20
9.994000
 41
1.397000
 42
1.397000
 50
0.000000
  0
CIRCLE
  5
115
100
AcDbEntity
  8
PIN_BOTTOM
100
AcDbCircle
 10
-67.467000
 20
12.534000
 40
0.698500
  0
INSERT
  5
116
100
AcDbEntity
  8
MANUFACTURING_NCDRILL_FIGURE
100
AcDbBlockReference
  2
FIGURE_CROSS
 10
-67.467000
 20
12.534000
 41
1.397000
 42
1.397000
 50
0.000000
  0
CIRCLE
  5
118
100
AcDbEntity
  8
PIN_BOTTOM
100
AcDbCircle
 10
-67.467000
 20
7.454000
 40
0.698500
  0
INSERT
  5
119
100
AcDbEntity
  8
MANUFACTURING_NCDRILL_FIGURE
100
AcDbBlockReference
  2
FIGURE_CROSS
 10
-67.467000
 20
7.454000
 41
1.397000
 42
1.397000
 50
0.000000
  0
CIRCLE
  5
11b
100
AcDbEntity
  8
PIN_BOTTOM
100
AcDbCircle
 10
-72.547000
 20
7.454000
 40
0.698500
  0
INSERT
  5
11c
100
AcDbEntity
  8
MANUFACTURING_NCDRILL_FIGURE
100
AcDbBlockReference
  2
FIGURE_CROSS
 10
-72.547000
 20
7.454000
 41
1.397000
 42
1.397000
 50
0.000000
  0
CIRCLE
  5
11e
100
AcDbEntity
  8
PIN_BOTTOM
100
AcDbCircle
 10
-72.547000
 20
12.534000
 40
0.698500
  0
INSERT
  5
11f
100
AcDbEntity
  8
MANUFACTURING_NCDRILL_FIGURE
100
AcDbBlockReference
  2
FIGURE_CROSS
 10
-72.547000
 20
12.534000
 41
1.397000
 42
1.397000
 50
0.000000
  0
CIRCLE
  5
121
100
AcDbEntity
  8
PIN_BOTTOM
100
AcDbCircle
 10
-50.007000
 20
9.994000
 40
0.698500
  0
INSERT
  5
122
100
AcDbEntity
  8
MANUFACTURING_NCDRILL_FIGURE
100
AcDbBlockReference
  2
FIGURE_CROSS
 10
-50.007000
 20
9.994000
 41
1.397000
 42
1.397000
 50
0.000000
  0
CIRCLE
  5
124
100
AcDbEntity
  8
PIN_BOTTOM
100
AcDbCircle
 10
-47.467000
 20
12.534000
 40
0.698500
  0
INSERT
  5
125
100
AcDbEntity
  8
MANUFACTURING_NCDRILL_FIGURE
100
AcDbBlockReference
  2
FIGURE_CROSS
 10
-47.467000
 20
12.534000
 41
1.397000
 42
1.397000
 50
0.000000
  0
CIRCLE
  5
127
100
AcDbEntity
  8
PIN_BOTTOM
100
AcDbCircle
 10
-47.467000
 20
7.454000
 40
0.698500
  0
INSERT
  5
128
100
AcDbEntity
  8
MANUFACTURING_NCDRILL_FIGURE
100
AcDbBlockReference
  2
FIGURE_CROSS
 10
-47.467000
 20
7.454000
 41
1.397000
 42
1.397000
 50
0.000000
  0
CIRCLE
  5
12a
100
AcDbEntity
  8
PIN_BOTTOM
100
AcDbCircle
 10
-52.547000
 20
7.454000
 40
0.698500
  0
INSERT
  5
12b
100
AcDbEntity
  8
MANUFACTURING_NCDRILL_FIGURE
100
AcDbBlockReference
  2
FIGURE_CROSS
 10
-52.547000
 20
7.454000
 41
1.397000
 42
1.397000
 50
0.000000
  0
CIRCLE
  5
12d
100
AcDbEntity
  8
PIN_BOTTOM
100
AcDbCircle
 10
-52.547000
 20
12.534000
 40
0.698500
  0
INSERT
  5
12e
100
AcDbEntity
  8
MANUFACTURING_NCDRILL_FIGURE
100
AcDbBlockReference
  2
FIGURE_CROSS
 10
-52.547000
 20
12.534000
 41
1.397000
 42
1.397000
 50
0.000000
  0
CIRCLE
  5
130
100
AcDbEntity
  8
PIN_BOTTOM
100
AcDbCircle
 10
-70.007000
 20
-10.006000
 40
0.698500
  0
INSERT
  5
131
100
AcDbEntity
  8
MANUFACTURING_NCDRILL_FIGURE
100
AcDbBlockReference
  2
FIGURE_CROSS
 10
-70.007000
 20
-10.006000
 41
1.397000
 42
1.397000
 50
0.000000
  0
CIRCLE
  5
133
100
AcDbEntity
  8
PIN_BOTTOM
100
AcDbCircle
 10
-67.467000
 20
-7.466000
 40
0.698500
  0
INSERT
  5
134
100
AcDbEntity
  8
MANUFACTURING_NCDRILL_FIGURE
100
AcDbBlockReference
  2
FIGURE_CROSS
 10
-67.467000
 20
-7.466000
 41
1.397000
 42
1.397000
 50
0.000000
  0
CIRCLE
  5
136
100
AcDbEntity
  8
PIN_BOTTOM
100
AcDbCircle
 10
-67.467000
 20
-12.546000
 40
0.698500
  0
INSERT
  5
137
100
AcDbEntity
  8
MANUFACTURING_NCDRILL_FIGURE
100
AcDbBlockReference
  2
FIGURE_CROSS
 10
-67.467000
 20
-12.546000
 41
1.397000
 42
1.397000
 50
0.000000
  0
CIRCLE
  5
139
100
AcDbEntity
  8
PIN_BOTTOM
100
AcDbCircle
 10
-72.547000
 20
-12.546000
 40
0.698500
  0
INSERT
  5
13a
100
AcDbEntity
  8
MANUFACTURING_NCDRILL_FIGURE
100
AcDbBlockReference
  2
FIGURE_CROSS
 10
-72.547000
 20
-12.546000
 41
1.397000
 42
1.397000
 50
0.000000
  0
CIRCLE
  5
13c
100
AcDbEntity
  8
PIN_BOTTOM
100
AcDbCircle
 10
-72.547000
 20
-7.466000
 40
0.698500
  0
INSERT
  5
13d
100
AcDbEntity
  8
MANUFACTURING_NCDRILL_FIGURE
100
AcDbBlockReference
  2
FIGURE_CROSS
 10
-72.547000
 20
-7.466000
 41
1.397000
 42
1.397000
 50
0.000000
  0
CIRCLE
  5
13f
100
AcDbEntity
  8
PIN_BOTTOM
100
AcDbCircle
 10
-50.007000
 20
-10.006000
 40
0.698500
  0
INSERT
  5
140
100
AcDbEntity
  8
MANUFACTURING_NCDRILL_FIGURE
100
AcDbBlockReference
  2
FIGURE_CROSS
 10
-50.007000
 20
-10.006000
 41
1.397000
 42
1.397000
 50
0.000000
  0
CIRCLE
  5
142
100
AcDbEntity
  8
PIN_BOTTOM
100
AcDbCircle
 10
-47.467000
 20
-7.466000
 40
0.698500
  0
INSERT
  5
143
100
AcDbEntity
  8
MANUFACTURING_NCDRILL_FIGURE
100
AcDbBlockReference
  2
FIGURE_CROSS
 10
-47.467000
 20
-7.466000
 41
1.397000
 42
1.397000
 50
0.000000
  0
CIRCLE
  5
145
100
AcDbEntity
  8
PIN_BOTTOM
100
AcDbCircle
 10
-47.467000
 20
-12.546000
 40
0.698500
  0
INSERT
  5
146
100
AcDbEntity
  8
MANUFACTURING_NCDRILL_FIGURE
100
AcDbBlockReference
  2
FIGURE_CROSS
 10
-47.467000
 20
-12.546000
 41
1.397000
 42
1.397000
 50
0.000000
  0
CIRCLE
  5
148
100
AcDbEntity
  8
PIN_BOTTOM
100
AcDbCircle
 10
-52.547000
 20
-12.546000
 40
0.698500
  0
INSERT
  5
149
100
AcDbEntity
  8
MANUFACTURING_NCDRILL_FIGURE
100
AcDbBlockReference
  2
FIGURE_CROSS
 10
-52.547000
 20
-12.546000
 41
1.397000
 42
1.397000
 50
0.000000
  0
CIRCLE
  5
14b
100
AcDbEntity
  8
PIN_BOTTOM
100
AcDbCircle
 10
-52.547000
 20
-7.466000
 40
0.698500
  0
INSERT
  5
14c
100
AcDbEntity
  8
MANUFACTURING_NCDRILL_FIGURE
100
AcDbBlockReference
  2
FIGURE_CROSS
 10
-52.547000
 20
-7.466000
 41
1.397000
 42
1.397000
 50
0.000000
  0
CIRCLE
  5
14e
100
AcDbEntity
  8
PIN_BOTTOM
100
AcDbCircle
 10
-70.007000
 20
-30.006000
 40
0.698500
  0
INSERT
  5
14f
100
AcDbEntity
  8
MANUFACTURING_NCDRILL_FIGURE
100
AcDbBlockReference
  2
FIGURE_CROSS
 10
-70.007000
 20
-30.006000
 41
1.397000
 42
1.397000
 50
0.000000
  0
CIRCLE
  5
151
100
AcDbEntity
  8
PIN_BOTTOM
100
AcDbCircle
 10
-67.467000
 20
-27.466000
 40
0.698500
  0
INSERT
  5
152
100
AcDbEntity
  8
MANUFACTURING_NCDRILL_FIGURE
100
AcDbBlockReference
  2
FIGURE_CROSS
 10
-67.467000
 20
-27.466000
 41
1.397000
 42
1.397000
 50
0.000000
  0
CIRCLE
  5
154
100
AcDbEntity
  8
PIN_BOTTOM
100
AcDbCircle
 10
-67.467000
 20
-32.546000
 40
0.698500
  0
INSERT
  5
155
100
AcDbEntity
  8
MANUFACTURING_NCDRILL_FIGURE
100
AcDbBlockReference
  2
FIGURE_CROSS
 10
-67.467000
 20
-32.546000
 41
1.397000
 42
1.397000
 50
0.000000
  0
CIRCLE
  5
157
100
AcDbEntity
  8
PIN_BOTTOM
100
AcDbCircle
 10
-72.547000
 20
-32.546000
 40
0.698500
  0
INSERT
  5
158
100
AcDbEntity
  8
MANUFACTURING_NCDRILL_FIGURE
100
AcDbBlockReference
  2
FIGURE_CROSS
 10
-72.547000
 20
-32.546000
 41
1.397000
 42
1.397000
 50
0.000000
  0
CIRCLE
  5
15a
100
AcDbEntity
  8
PIN_BOTTOM
100
AcDbCircle
 10
-72.547000
 20
-27.466000
 40
0.698500
  0
INSERT
  5
15b
100
AcDbEntity
  8
MANUFACTURING_NCDRILL_FIGURE
100
AcDbBlockReference
  2
FIGURE_CROSS
 10
-72.547000
 20
-27.466000
 41
1.397000
 42
1.397000
 50
0.000000
  0
CIRCLE
  5
15d
100
AcDbEntity
  8
PIN_BOTTOM
100
AcDbCircle
 10
-50.007000
 20
-30.006000
 40
0.698500
  0
INSERT
  5
15e
100
AcDbEntity
  8
MANUFACTURING_NCDRILL_FIGURE
100
AcDbBlockReference
  2
FIGURE_CROSS
 10
-50.007000
 20
-30.006000
 41
1.397000
 42
1.397000
 50
0.000000
  0
CIRCLE
  5
160
100
AcDbEntity
  8
PIN_BOTTOM
100
AcDbCircle
 10
-47.467000
 20
-27.466000
 40
0.698500
  0
INSERT
  5
161
100
AcDbEntity
  8
MANUFACTURING_NCDRILL_FIGURE
100
AcDbBlockReference
  2
FIGURE_CROSS
 10
-47.467000
 20
-27.466000
 41
1.397000
 42
1.397000
 50
0.000000
  0
CIRCLE
  5
163
100
AcDbEntity
  8
PIN_BOTTOM
100
AcDbCircle
 10
-47.467000
 20
-32.546000
 40
0.698500
  0
INSERT
  5
164
100
AcDbEntity
  8
MANUFACTURING_NCDRILL_FIGURE
100
AcDbBlockReference
  2
FIGURE_CROSS
 10
-47.467000
 20
-32.546000
 41
1.397000
 42
1.397000
 50
0.000000
  0
CIRCLE
  5
166
100
AcDbEntity
  8
PIN_BOTTOM
100
AcDbCircle
 10
-52.547000
 20
-32.546000
 40
0.698500
  0
INSERT
  5
167
100
AcDbEntity
  8
MANUFACTURING_NCDRILL_FIGURE
100
AcDbBlockReference
  2
FIGURE_CROSS
 10
-52.547000
 20
-32.546000
 41
1.397000
 42
1.397000
 50
0.000000
  0
CIRCLE
  5
169
100
AcDbEntity
  8
PIN_BOTTOM
100
AcDbCircle
 10
-52.547000
 20
-27.466000
 40
0.698500
  0
INSERT
  5
16a
100
AcDbEntity
  8
MANUFACTURING_NCDRILL_FIGURE
100
AcDbBlockReference
  2
FIGURE_CROSS
 10
-52.547000
 20
-27.466000
 41
1.397000
 42
1.397000
 50
0.000000
  0
CIRCLE
  5
16c
100
AcDbEntity
  8
PIN_BOTTOM
100
AcDbCircle
 10
70.007000
 20
-29.994000
 40
0.698500
  0
INSERT
  5
16d
100
AcDbEntity
  8
MANUFACTURING_NCDRILL_FIGURE
100
AcDbBlockReference
  2
FIGURE_CROSS
 10
70.007000
 20
-29.994000
 41
1.397000
 42
1.397000
 50
0.000000
  0
CIRCLE
  5
16f
100
AcDbEntity
  8
PIN_BOTTOM
100
AcDbCircle
 10
67.467000
 20
-32.534000
 40
0.698500
  0
INSERT
  5
170
100
AcDbEntity
  8
MANUFACTURING_NCDRILL_FIGURE
100
AcDbBlockReference
  2
FIGURE_CROSS
 10
67.467000
 20
-32.534000
 41
1.397000
 42
1.397000
 50
0.000000
  0
CIRCLE
  5
172
100
AcDbEntity
  8
PIN_BOTTOM
100
AcDbCircle
 10
67.467000
 20
-27.454000
 40
0.698500
  0
INSERT
  5
173
100
AcDbEntity
  8
MANUFACTURING_NCDRILL_FIGURE
100
AcDbBlockReference
  2
FIGURE_CROSS
 10
67.467000
 20
-27.454000
 41
1.397000
 42
1.397000
 50
0.000000
  0
CIRCLE
  5
175
100
AcDbEntity
  8
PIN_BOTTOM
100
AcDbCircle
 10
72.547000
 20
-27.454000
 40
0.698500
  0
INSERT
  5
176
100
AcDbEntity
  8
MANUFACTURING_NCDRILL_FIGURE
100
AcDbBlockReference
  2
FIGURE_CROSS
 10
72.547000
 20
-27.454000
 41
1.397000
 42
1.397000
 50
0.000000
  0
CIRCLE
  5
178
100
AcDbEntity
  8
PIN_BOTTOM
100
AcDbCircle
 10
72.547000
 20
-32.534000
 40
0.698500
  0
INSERT
  5
179
100
AcDbEntity
  8
MANUFACTURING_NCDRILL_FIGURE
100
AcDbBlockReference
  2
FIGURE_CROSS
 10
72.547000
 20
-32.534000
 41
1.397000
 42
1.397000
 50
0.000000
  0
CIRCLE
  5
17b
100
AcDbEntity
  8
PIN_BOTTOM
100
AcDbCircle
 10
50.007000
 20
-29.994000
 40
0.698500
  0
INSERT
  5
17c
100
AcDbEntity
  8
MANUFACTURING_NCDRILL_FIGURE
100
AcDbBlockReference
  2
FIGURE_CROSS
 10
50.007000
 20
-29.994000
 41
1.397000
 42
1.397000
 50
0.000000
  0
CIRCLE
  5
17e
100
AcDbEntity
  8
PIN_BOTTOM
100
AcDbCircle
 10
47.467000
 20
-32.534000
 40
0.698500
  0
INSERT
  5
17f
100
AcDbEntity
  8
MANUFACTURING_NCDRILL_FIGURE
100
AcDbBlockReference
  2
FIGURE_CROSS
 10
47.467000
 20
-32.534000
 41
1.397000
 42
1.397000
 50
0.000000
  0
CIRCLE
  5
181
100
AcDbEntity
  8
PIN_BOTTOM
100
AcDbCircle
 10
47.467000
 20
-27.454000
 40
0.698500
  0
INSERT
  5
182
100
AcDbEntity
  8
MANUFACTURING_NCDRILL_FIGURE
100
AcDbBlockReference
  2
FIGURE_CROSS
 10
47.467000
 20
-27.454000
 41
1.397000
 42
1.397000
 50
0.000000
  0
CIRCLE
  5
184
100
AcDbEntity
  8
PIN_BOTTOM
100
AcDbCircle
 10
52.547000
 20
-27.454000
 40
0.698500
  0
INSERT
  5
185
100
AcDbEntity
  8
MANUFACTURING_NCDRILL_FIGURE
100
AcDbBlockReference
  2
FIGURE_CROSS
 10
52.547000
 20
-27.454000
 41
1.397000
 42
1.397000
 50
0.000000
  0
CIRCLE
  5
187
100
AcDbEntity
  8
PIN_BOTTOM
100
AcDbCircle
 10
52.547000
 20
-32.534000
 40
0.698500
  0
INSERT
  5
188
100
AcDbEntity
  8
MANUFACTURING_NCDRILL_FIGURE
100
AcDbBlockReference
  2
FIGURE_CROSS
 10
52.547000
 20
-32.534000
 41
1.397000
 42
1.397000
 50
0.000000
  0
CIRCLE
  5
18a
100
AcDbEntity
  8
PIN_BOTTOM
100
AcDbCircle
 10
70.007000
 20
-9.994000
 40
0.698500
  0
INSERT
  5
18b
100
AcDbEntity
  8
MANUFACTURING_NCDRILL_FIGURE
100
AcDbBlockReference
  2
FIGURE_CROSS
 10
70.007000
 20
-9.994000
 41
1.397000
 42
1.397000
 50
0.000000
  0
CIRCLE
  5
18d
100
AcDbEntity
  8
PIN_BOTTOM
100
AcDbCircle
 10
67.467000
 20
-12.534000
 40
0.698500
  0
INSERT
  5
18e
100
AcDbEntity
  8
MANUFACTURING_NCDRILL_FIGURE
100
AcDbBlockReference
  2
FIGURE_CROSS
 10
67.467000
 20
-12.534000
 41
1.397000
 42
1.397000
 50
0.000000
  0
CIRCLE
  5
190
100
AcDbEntity
  8
PIN_BOTTOM
100
AcDbCircle
 10
67.467000
 20
-7.454000
 40
0.698500
  0
INSERT
  5
191
100
AcDbEntity
  8
MANUFACTURING_NCDRILL_FIGURE
100
AcDbBlockReference
  2
FIGURE_CROSS
 10
67.467000
 20
-7.454000
 41
1.397000
 42
1.397000
 50
0.000000
  0
CIRCLE
  5
193
100
AcDbEntity
  8
PIN_BOTTOM
100
AcDbCircle
 10
72.547000
 20
-7.454000
 40
0.698500
  0
INSERT
  5
194
100
AcDbEntity
  8
MANUFACTURING_NCDRILL_FIGURE
100
AcDbBlockReference
  2
FIGURE_CROSS
 10
72.547000
 20
-7.454000
 41
1.397000
 42
1.397000
 50
0.000000
  0
CIRCLE
  5
196
100
AcDbEntity
  8
PIN_BOTTOM
100
AcDbCircle
 10
72.547000
 20
-12.534000
 40
0.698500
  0
INSERT
  5
197
100
AcDbEntity
  8
MANUFACTURING_NCDRILL_FIGURE
100
AcDbBlockReference
  2
FIGURE_CROSS
 10
72.547000
 20
-12.534000
 41
1.397000
 42
1.397000
 50
0.000000
  0
CIRCLE
  5
199
100
AcDbEntity
  8
PIN_BOTTOM
100
AcDbCircle
 10
50.007000
 20
-9.994000
 40
0.698500
  0
INSERT
  5
19a
100
AcDbEntity
  8
MANUFACTURING_NCDRILL_FIGURE
100
AcDbBlockReference
  2
FIGURE_CROSS
 10
50.007000
 20
-9.994000
 41
1.397000
 42
1.397000
 50
0.000000
  0
CIRCLE
  5
19c
100
AcDbEntity
  8
PIN_BOTTOM
100
AcDbCircle
 10
47.467000
 20
-12.534000
 40
0.698500
  0
INSERT
  5
19d
100
AcDbEntity
  8
MANUFACTURING_NCDRILL_FIGURE
100
AcDbBlockReference
  2
FIGURE_CROSS
 10
47.467000
 20
-12.534000
 41
1.397000
 42
1.397000
 50
0.000000
  0
CIRCLE
  5
19f
100
AcDbEntity
  8
PIN_BOTTOM
100
AcDbCircle
 10
47.467000
 20
-7.454000
 40
0.698500
  0
INSERT
  5
1a0
100
AcDbEntity
  8
MANUFACTURING_NCDRILL_FIGURE
100
AcDbBlockReference
  2
FIGURE_CROSS
 10
47.467000
 20
-7.454000
 41
1.397000
 42
1.397000
 50
0.000000
  0
CIRCLE
  5
1a2
100
AcDbEntity
  8
PIN_BOTTOM
100
AcDbCircle
 10
52.547000
 20
-7.454000
 40
0.698500
  0
INSERT
  5
1a3
100
AcDbEntity
  8
MANUFACTURING_NCDRILL_FIGURE
100
AcDbBlockReference
  2
FIGURE_CROSS
 10
52.547000
 20
-7.454000
 41
1.397000
 42
1.397000
 50
0.000000
  0
CIRCLE
  5
1a5
100
AcDbEntity
  8
PIN_BOTTOM
100
AcDbCircle
 10
52.547000
 20
-12.534000
 40
0.698500
  0
INSERT
  5
1a6
100
AcDbEntity
  8
MANUFACTURING_NCDRILL_FIGURE
100
AcDbBlockReference
  2
FIGURE_CROSS
 10
52.547000
 20
-12.534000
 41
1.397000
 42
1.397000
 50
0.000000
  0
CIRCLE
  5
1a8
100
AcDbEntity
  8
PIN_BOTTOM
100
AcDbCircle
 10
70.007000
 20
10.006000
 40
0.698500
  0
INSERT
  5
1a9
100
AcDbEntity
  8
MANUFACTURING_NCDRILL_FIGURE
100
AcDbBlockReference
  2
FIGURE_CROSS
 10
70.007000
 20
10.006000
 41
1.397000
 42
1.397000
 50
0.000000
  0
CIRCLE
  5
1ab
100
AcDbEntity
  8
PIN_BOTTOM
100
AcDbCircle
 10
67.467000
 20
7.466000
 40
0.698500
  0
INSERT
  5
1ac
100
AcDbEntity
  8
MANUFACTURING_NCDRILL_FIGURE
100
AcDbBlockReference
  2
FIGURE_CROSS
 10
67.467000
 20
7.466000
 41
1.397000
 42
1.397000
 50
0.000000
  0
CIRCLE
  5
1ae
100
AcDbEntity
  8
PIN_BOTTOM
100
AcDbCircle
 10
67.467000
 20
12.546000
 40
0.698500
  0
INSERT
  5
1af
100
AcDbEntity
  8
MANUFACTURING_NCDRILL_FIGURE
100
AcDbBlockReference
  2
FIGURE_CROSS
 10
67.467000
 20
12.546000
 41
1.397000
 42
1.397000
 50
0.000000
  0
CIRCLE
  5
1b1
100
AcDbEntity
  8
PIN_BOTTOM
100
AcDbCircle
 10
72.547000
 20
12.546000
 40
0.698500
  0
INSERT
  5
1b2
100
AcDbEntity
  8
MANUFACTURING_NCDRILL_FIGURE
100
AcDbBlockReference
  2
FIGURE_CROSS
 10
72.547000
 20
12.546000
 41
1.397000
 42
1.397000
 50
0.000000
  0
CIRCLE
  5
1b4
100
AcDbEntity
  8
PIN_BOTTOM
100
AcDbCircle
 10
72.547000
 20
7.466000
 40
0.698500
  0
INSERT
  5
1b5
100
AcDbEntity
  8
MANUFACTURING_NCDRILL_FIGURE
100
AcDbBlockReference
  2
FIGURE_CROSS
 10
72.547000
 20
7.466000
 41
1.397000
 42
1.397000
 50
0.000000
  0
CIRCLE
  5
1b7
100
AcDbEntity
  8
PIN_BOTTOM
100
AcDbCircle
 10
50.007000
 20
10.006000
 40
0.698500
  0
INSERT
  5
1b8
100
AcDbEntity
  8
MANUFACTURING_NCDRILL_FIGURE
100
AcDbBlockReference
  2
FIGURE_CROSS
 10
50.007000
 20
10.006000
 41
1.397000
 42
1.397000
 50
0.000000
  0
CIRCLE
  5
1ba
100
AcDbEntity
  8
PIN_BOTTOM
100
AcDbCircle
 10
47.467000
 20
7.466000
 40
0.698500
  0
INSERT
  5
1bb
100
AcDbEntity
  8
MANUFACTURING_NCDRILL_FIGURE
100
AcDbBlockReference
  2
FIGURE_CROSS
 10
47.467000
 20
7.466000
 41
1.397000
 42
1.397000
 50
0.000000
  0
CIRCLE
  5
1bd
100
AcDbEntity
  8
PIN_BOTTOM
100
AcDbCircle
 10
47.467000
 20
12.546000
 40
0.698500
  0
INSERT
  5
1be
100
AcDbEntity
  8
MANUFACTURING_NCDRILL_FIGURE
100
AcDbBlockReference
  2
FIGURE_CROSS
 10
47.467000
 20
12.546000
 41
1.397000
 42
1.397000
 50
0.000000
  0
CIRCLE
  5
1c0
100
AcDbEntity
  8
PIN_BOTTOM
100
AcDbCircle
 10
52.547000
 20
12.546000
 40
0.698500
  0
INSERT
  5
1c1
100
AcDbEntity
  8
MANUFACTURING_NCDRILL_FIGURE
100
AcDbBlockReference
  2
FIGURE_CROSS
 10
52.547000
 20
12.546000
 41
1.397000
 42
1.397000
 50
0.000000
  0
CIRCLE
  5
1c3
100
AcDbEntity
  8
PIN_BOTTOM
100
AcDbCircle
 10
52.547000
 20
7.466000
 40
0.698500
  0
INSERT
  5
1c4
100
AcDbEntity
  8
MANUFACTURING_NCDRILL_FIGURE
100
AcDbBlockReference
  2
FIGURE_CROSS
 10
52.547000
 20
7.466000
 41
1.397000
 42
1.397000
 50
0.000000
  0
CIRCLE
  5
1c6
100
AcDbEntity
  8
PIN_BOTTOM
100
AcDbCircle
 10
70.007000
 20
30.006000
 40
0.698500
  0
INSERT
  5
1c7
100
AcDbEntity
  8
MANUFACTURING_NCDRILL_FIGURE
100
AcDbBlockReference
  2
FIGURE_CROSS
 10
70.007000
 20
30.006000
 41
1.397000
 42
1.397000
 50
0.000000
  0
CIRCLE
  5
1c9
100
AcDbEntity
  8
PIN_BOTTOM
100
AcDbCircle
 10
67.467000
 20
27.466000
 40
0.698500
  0
INSERT
  5
1ca
100
AcDbEntity
  8
MANUFACTURING_NCDRILL_FIGURE
100
AcDbBlockReference
  2
FIGURE_CROSS
 10
67.467000
 20
27.466000
 41
1.397000
 42
1.397000
 50
0.000000
  0
CIRCLE
  5
1cc
100
AcDbEntity
  8
PIN_BOTTOM
100
AcDbCircle
 10
67.467000
 20
32.546000
 40
0.698500
  0
INSERT
  5
1cd
100
AcDbEntity
  8
MANUFACTURING_NCDRILL_FIGURE
100
AcDbBlockReference
  2
FIGURE_CROSS
 10
67.467000
 20
32.546000
 41
1.397000
 42
1.397000
 50
0.000000
  0
CIRCLE
  5
1cf
100
AcDbEntity
  8
PIN_BOTTOM
100
AcDbCircle
 10
72.547000
 20
32.546000
 40
0.698500
  0
INSERT
  5
1d0
100
AcDbEntity
  8
MANUFACTURING_NCDRILL_FIGURE
100
AcDbBlockReference
  2
FIGURE_CROSS
 10
72.547000
 20
32.546000
 41
1.397000
 42
1.397000
 50
0.000000
  0
CIRCLE
  5
1d2
100
AcDbEntity
  8
PIN_BOTTOM
100
AcDbCircle
 10
72.547000
 20
27.466000
 40
0.698500
  0
INSERT
  5
1d3
100
AcDbEntity
  8
MANUFACTURING_NCDRILL_FIGURE
100
AcDbBlockReference
  2
FIGURE_CROSS
 10
72.547000
 20
27.466000
 41
1.397000
 42
1.397000
 50
0.000000
  0
CIRCLE
  5
1d5
100
AcDbEntity
  8
PIN_BOTTOM
100
AcDbCircle
 10
50.007000
 20
30.006000
 40
0.698500
  0
INSERT
  5
1d6
100
AcDbEntity
  8
MANUFACTURING_NCDRILL_FIGURE
100
AcDbBlockReference
  2
FIGURE_CROSS
 10
50.007000
 20
30.006000
 41
1.397000
 42
1.397000
 50
0.000000
  0
CIRCLE
  5
1d8
100
AcDbEntity
  8
PIN_BOTTOM
100
AcDbCircle
 10
47.467000
 20
27.466000
 40
0.698500
  0
INSERT
  5
1d9
100
AcDbEntity
  8
MANUFACTURING_NCDRILL_FIGURE
100
AcDbBlockReference
  2
FIGURE_CROSS
 10
47.467000
 20
27.466000
 41
1.397000
 42
1.397000
 50
0.000000
  0
CIRCLE
  5
1db
100
AcDbEntity
  8
PIN_BOTTOM
100
AcDbCircle
 10
47.467000
 20
32.546000
 40
0.698500
  0
INSERT
  5
1dc
100
AcDbEntity
  8
MANUFACTURING_NCDRILL_FIGURE
100
AcDbBlockReference
  2
FIGURE_CROSS
 10
47.467000
 20
32.546000
 41
1.397000
 42
1.397000
 50
0.000000
  0
CIRCLE
  5
1de
100
AcDbEntity
  8
PIN_BOTTOM
100
AcDbCircle
 10
52.547000
 20
32.546000
 40
0.698500
  0
INSERT
  5
1df
100
AcDbEntity
  8
MANUFACTURING_NCDRILL_FIGURE
100
AcDbBlockReference
  2
FIGURE_CROSS
 10
52.547000
 20
32.546000
 41
1.397000
 42
1.397000
 50
0.000000
  0
CIRCLE
  5
1e1
100
AcDbEntity
  8
PIN_BOTTOM
100
AcDbCircle
 10
52.547000
 20
27.466000
 40
0.698500
  0
INSERT
  5
1e2
100
AcDbEntity
  8
MANUFACTURING_NCDRILL_FIGURE
100
AcDbBlockReference
  2
FIGURE_CROSS
 10
52.547000
 20
27.466000
 41
1.397000
 42
1.397000
 50
0.000000
  0
CIRCLE
  5
1e4
100
AcDbEntity
  8
PIN_BOTTOM
100
AcDbCircle
 10
10.006000
 20
-40.007000
 40
0.698500
  0
INSERT
  5
1e5
100
AcDbEntity
  8
MANUFACTURING_NCDRILL_FIGURE
100
AcDbBlockReference
  2
FIGURE_CROSS
 10
10.006000
 20
-40.007000
 41
1.397000
 42
1.397000
 50
0.000000
  0
CIRCLE
  5
1e7
100
AcDbEntity
  8
PIN_BOTTOM
100
AcDbCircle
 10
7.466000
 20
-37.467000
 40
0.698500
  0
INSERT
  5
1e8
100
AcDbEntity
  8
MANUFACTURING_NCDRILL_FIGURE
100
AcDbBlockReference
  2
FIGURE_CROSS
 10
7.466000
 20
-37.467000
 41
1.397000
 42
1.397000
 50
0.000000
  0
CIRCLE
  5
1ea
100
AcDbEntity
  8
PIN_BOTTOM
100
AcDbCircle
 10
12.546000
 20
-37.467000
 40
0.698500
  0
INSERT
  5
1eb
100
AcDbEntity
  8
MANUFACTURING_NCDRILL_FIGURE
100
AcDbBlockReference
  2
FIGURE_CROSS
 10
12.546000
 20
-37.467000
 41
1.397000
 42
1.397000
 50
0.000000
  0
CIRCLE
  5
1ed
100
AcDbEntity
  8
PIN_BOTTOM
100
AcDbCircle
 10
12.546000
 20
-42.547000
 40
0.698500
  0
INSERT
  5
1ee
100
AcDbEntity
  8
MANUFACTURING_NCDRILL_FIGURE
100
AcDbBlockReference
  2
FIGURE_CROSS
 10
12.546000
 20
-42.547000
 41
1.397000
 42
1.397000
 50
0.000000
  0
CIRCLE
  5
1f0
100
AcDbEntity
  8
PIN_BOTTOM
100
AcDbCircle
 10
7.466000
 20
-42.547000
 40
0.698500
  0
INSERT
  5
1f1
100
AcDbEntity
  8
MANUFACTURING_NCDRILL_FIGURE
100
AcDbBlockReference
  2
FIGURE_CROSS
 10
7.466000
 20
-42.547000
 41
1.397000
 42
1.397000
 50
0.000000
  0
CIRCLE
  5
1f3
100
AcDbEntity
  8
PIN_BOTTOM
100
AcDbCircle
 10
10.006000
 20
-20.007000
 40
0.698500
  0
INSERT
  5
1f4
100
AcDbEntity
  8
MANUFACTURING_NCDRILL_FIGURE
100
AcDbBlockReference
  2
FIGURE_CROSS
 10
10.006000
 20
-20.007000
 41
1.397000
 42
1.397000
 50
0.000000
  0
CIRCLE
  5
1f6
100
AcDbEntity
  8
PIN_BOTTOM
100
AcDbCircle
 10
7.466000
 20
-17.467000
 40
0.698500
  0
INSERT
  5
1f7
100
AcDbEntity
  8
MANUFACTURING_NCDRILL_FIGURE
100
AcDbBlockReference
  2
FIGURE_CROSS
 10
7.466000
 20
-17.467000
 41
1.397000
 42
1.397000
 50
0.000000
  0
CIRCLE
  5
1f9
100
AcDbEntity
  8
PIN_BOTTOM
100
AcDbCircle
 10
12.546000
 20
-17.467000
 40
0.698500
  0
INSERT
  5
1fa
100
AcDbEntity
  8
MANUFACTURING_NCDRILL_FIGURE
100
AcDbBlockReference
  2
FIGURE_CROSS
 10
12.546000
 20
-17.467000
 41
1.397000
 42
1.397000
 50
0.000000
  0
CIRCLE
  5
1fc
100
AcDbEntity
  8
PIN_BOTTOM
100
AcDbCircle
 10
12.546000
 20
-22.547000
 40
0.698500
  0
INSERT
  5
1fd
100
AcDbEntity
  8
MANUFACTURING_NCDRILL_FIGURE
100
AcDbBlockReference
  2
FIGURE_CROSS
 10
12.546000
 20
-22.547000
 41
1.397000
 42
1.397000
 50
0.000000
  0
CIRCLE
  5
1ff
100
AcDbEntity
  8
PIN_BOTTOM
100
AcDbCircle
 10
7.466000
 20
-22.547000
 40
0.698500
  0
INSERT
  5
200
100
AcDbEntity
  8
MANUFACTURING_NCDRILL_FIGURE
100
AcDbBlockReference
  2
FIGURE_CROSS
 10
7.466000
 20
-22.547000
 41
1.397000
 42
1.397000
 50
0.000000
  0
CIRCLE
  5
202
100
AcDbEntity
  8
PIN_BOTTOM
100
AcDbCircle
 10
30.006000
 20
-40.007000
 40
0.698500
  0
INSERT
  5
203
100
AcDbEntity
  8
MANUFACTURING_NCDRILL_FIGURE
100
AcDbBlockReference
  2
FIGURE_CROSS
 10
30.006000
 20
-40.007000
 41
1.397000
 42
1.397000
 50
0.000000
  0
CIRCLE
  5
205
100
AcDbEntity
  8
PIN_BOTTOM
100
AcDbCircle
 10
27.466000
 20
-37.467000
 40
0.698500
  0
INSERT
  5
206
100
AcDbEntity
  8
MANUFACTURING_NCDRILL_FIGURE
100
AcDbBlockReference
  2
FIGURE_CROSS
 10
27.466000
 20
-37.467000
 41
1.397000
 42
1.397000
 50
0.000000
  0
CIRCLE
  5
208
100
AcDbEntity
  8
PIN_BOTTOM
100
AcDbCircle
 10
32.546000
 20
-37.467000
 40
0.698500
  0
INSERT
  5
209
100
AcDbEntity
  8
MANUFACTURING_NCDRILL_FIGURE
100
AcDbBlockReference
  2
FIGURE_CROSS
 10
32.546000
 20
-37.467000
 41
1.397000
 42
1.397000
 50
0.000000
  0
CIRCLE
  5
20b
100
AcDbEntity
  8
PIN_BOTTOM
100
AcDbCircle
 10
32.546000
 20
-42.547000
 40
0.698500
  0
INSERT
  5
20c
100
AcDbEntity
  8
MANUFACTURING_NCDRILL_FIGURE
100
AcDbBlockReference
  2
FIGURE_CROSS
 10
32.546000
 20
-42.547000
 41
1.397000
 42
1.397000
 50
0.000000
  0
CIRCLE
  5
20e
100
AcDbEntity
  8
PIN_BOTTOM
100
AcDbCircle
 10
27.466000
 20
-42.547000
 40
0.698500
  0
INSERT
  5
20f
100
AcDbEntity
  8
MANUFACTURING_NCDRILL_FIGURE
100
AcDbBlockReference
  2
FIGURE_CROSS
 10
27.466000
 20
-42.547000
 41
1.397000
 42
1.397000
 50
0.000000
  0
CIRCLE
  5
211
100
AcDbEntity
  8
PIN_BOTTOM
100
AcDbCircle
 10
30.006000
 20
-20.007000
 40
0.698500
  0
INSERT
  5
212
100
AcDbEntity
  8
MANUFACTURING_NCDRILL_FIGURE
100
AcDbBlockReference
  2
FIGURE_CROSS
 10
30.006000
 20
-20.007000
 41
1.397000
 42
1.397000
 50
0.000000
  0
CIRCLE
  5
214
100
AcDbEntity
  8
PIN_BOTTOM
100
AcDbCircle
 10
27.466000
 20
-17.467000
 40
0.698500
  0
INSERT
  5
215
100
AcDbEntity
  8
MANUFACTURING_NCDRILL_FIGURE
100
AcDbBlockReference
  2
FIGURE_CROSS
 10
27.466000
 20
-17.467000
 41
1.397000
 42
1.397000
 50
0.000000
  0
CIRCLE
  5
217
100
AcDbEntity
  8
PIN_BOTTOM
100
AcDbCircle
 10
32.546000
 20
-17.467000
 40
0.698500
  0
INSERT
  5
218
100
AcDbEntity
  8
MANUFACTURING_NCDRILL_FIGURE
100
AcDbBlockReference
  2
FIGURE_CROSS
 10
32.546000
 20
-17.467000
 41
1.397000
 42
1.397000
 50
0.000000
  0
CIRCLE
  5
21a
100
AcDbEntity
  8
PIN_BOTTOM
100
AcDbCircle
 10
32.546000
 20
-22.547000
 40
0.698500
  0
INSERT
  5
21b
100
AcDbEntity
  8
MANUFACTURING_NCDRILL_FIGURE
100
AcDbBlockReference
  2
FIGURE_CROSS
 10
32.546000
 20
-22.547000
 41
1.397000
 42
1.397000
 50
0.000000
  0
CIRCLE
  5
21d
100
AcDbEntity
  8
PIN_BOTTOM
100
AcDbCircle
 10
27.466000
 20
-22.547000
 40
0.698500
  0
INSERT
  5
21e
100
AcDbEntity
  8
MANUFACTURING_NCDRILL_FIGURE
100
AcDbBlockReference
  2
FIGURE_CROSS
 10
27.466000
 20
-22.547000
 41
1.397000
 42
1.397000
 50
0.000000
  0
CIRCLE
  5
220
100
AcDbEntity
  8
PIN_BOTTOM
100
AcDbCircle
 10
10.006000
 20
-80.007000
 40
0.698500
  0
INSERT
  5
221
100
AcDbEntity
  8
MANUFACTURING_NCDRILL_FIGURE
100
AcDbBlockReference
  2
FIGURE_CROSS
 10
10.006000
 20
-80.007000
 41
1.397000
 42
1.397000
 50
0.000000
  0
CIRCLE
  5
223
100
AcDbEntity
  8
PIN_BOTTOM
100
AcDbCircle
 10
7.466000
 20
-77.467000
 40
0.698500
  0
INSERT
  5
224
100
AcDbEntity
  8
MANUFACTURING_NCDRILL_FIGURE
100
AcDbBlockReference
  2
FIGURE_CROSS
 10
7.466000
 20
-77.467000
 41
1.397000
 42
1.397000
 50
0.000000
  0
CIRCLE
  5
226
100
AcDbEntity
  8
PIN_BOTTOM
100
AcDbCircle
 10
12.546000
 20
-77.467000
 40
0.698500
  0
INSERT
  5
227
100
AcDbEntity
  8
MANUFACTURING_NCDRILL_FIGURE
100
AcDbBlockReference
  2
FIGURE_CROSS
 10
12.546000
 20
-77.467000
 41
1.397000
 42
1.397000
 50
0.000000
  0
CIRCLE
  5
229
100
AcDbEntity
  8
PIN_BOTTOM
100
AcDbCircle
 10
12.546000
 20
-82.547000
 40
0.698500
  0
INSERT
  5
22a
100
AcDbEntity
  8
MANUFACTURING_NCDRILL_FIGURE
100
AcDbBlockReference
  2
FIGURE_CROSS
 10
12.546000
 20
-82.547000
 41
1.397000
 42
1.397000
 50
0.000000
  0
CIRCLE
  5
22c
100
AcDbEntity
  8
PIN_BOTTOM
100
AcDbCircle
 10
7.466000
 20
-82.547000
 40
0.698500
  0
INSERT
  5
22d
100
AcDbEntity
  8
MANUFACTURING_NCDRILL_FIGURE
100
AcDbBlockReference
  2
FIGURE_CROSS
 10
7.466000
 20
-82.547000
 41
1.397000
 42
1.397000
 50
0.000000
  0
CIRCLE
  5
22f
100
AcDbEntity
  8
PIN_BOTTOM
100
AcDbCircle
 10
10.006000
 20
-60.007000
 40
0.698500
  0
INSERT
  5
230
100
AcDbEntity
  8
MANUFACTURING_NCDRILL_FIGURE
100
AcDbBlockReference
  2
FIGURE_CROSS
 10
10.006000
 20
-60.007000
 41
1.397000
 42
1.397000
 50
0.000000
  0
CIRCLE
  5
232
100
AcDbEntity
  8
PIN_BOTTOM
100
AcDbCircle
 10
7.466000
 20
-57.467000
 40
0.698500
  0
INSERT
  5
233
100
AcDbEntity
  8
MANUFACTURING_NCDRILL_FIGURE
100
AcDbBlockReference
  2
FIGURE_CROSS
 10
7.466000
 20
-57.467000
 41
1.397000
 42
1.397000
 50
0.000000
  0
CIRCLE
  5
235
100
AcDbEntity
  8
PIN_BOTTOM
100
AcDbCircle
 10
12.546000
 20
-57.467000
 40
0.698500
  0
INSERT
  5
236
100
AcDbEntity
  8
MANUFACTURING_NCDRILL_FIGURE
100
AcDbBlockReference
  2
FIGURE_CROSS
 10
12.546000
 20
-57.467000
 41
1.397000
 42
1.397000
 50
0.000000
  0
CIRCLE
  5
238
100
AcDbEntity
  8
PIN_BOTTOM
100
AcDbCircle
 10
12.546000
 20
-62.547000
 40
0.698500
  0
INSERT
  5
239
100
AcDbEntity
  8
MANUFACTURING_NCDRILL_FIGURE
100
AcDbBlockReference
  2
FIGURE_CROSS
 10
12.546000
 20
-62.547000
 41
1.397000
 42
1.397000
 50
0.000000
  0
CIRCLE
  5
23b
100
AcDbEntity
  8
PIN_BOTTOM
100
AcDbCircle
 10
7.466000
 20
-62.547000
 40
0.698500
  0
INSERT
  5
23c
100
AcDbEntity
  8
MANUFACTURING_NCDRILL_FIGURE
100
AcDbBlockReference
  2
FIGURE_CROSS
 10
7.466000
 20
-62.547000
 41
1.397000
 42
1.397000
 50
0.000000
  0
CIRCLE
  5
23e
100
AcDbEntity
  8
PIN_BOTTOM
100
AcDbCircle
 10
30.006000
 20
-80.007000
 40
0.698500
  0
INSERT
  5
23f
100
AcDbEntity
  8
MANUFACTURING_NCDRILL_FIGURE
100
AcDbBlockReference
  2
FIGURE_CROSS
 10
30.006000
 20
-80.007000
 41
1.397000
 42
1.397000
 50
0.000000
  0
CIRCLE
  5
241
100
AcDbEntity
  8
PIN_BOTTOM
100
AcDbCircle
 10
27.466000
 20
-77.467000
 40
0.698500
  0
INSERT
  5
242
100
AcDbEntity
  8
MANUFACTURING_NCDRILL_FIGURE
100
AcDbBlockReference
  2
FIGURE_CROSS
 10
27.466000
 20
-77.467000
 41
1.397000
 42
1.397000
 50
0.000000
  0
CIRCLE
  5
244
100
AcDbEntity
  8
PIN_BOTTOM
100
AcDbCircle
 10
32.546000
 20
-77.467000
 40
0.698500
  0
INSERT
  5
245
100
AcDbEntity
  8
MANUFACTURING_NCDRILL_FIGURE
100
AcDbBlockReference
  2
FIGURE_CROSS
 10
32.546000
 20
-77.467000
 41
1.397000
 42
1.397000
 50
0.000000
  0
CIRCLE
  5
247
100
AcDbEntity
  8
PIN_BOTTOM
100
AcDbCircle
 10
32.546000
 20
-82.547000
 40
0.698500
  0
INSERT
  5
248
100
AcDbEntity
  8
MANUFACTURING_NCDRILL_FIGURE
100
AcDbBlockReference
  2
FIGURE_CROSS
 10
32.546000
 20
-82.547000
 41
1.397000
 42
1.397000
 50
0.000000
  0
CIRCLE
  5
24a
100
AcDbEntity
  8
PIN_BOTTOM
100
AcDbCircle
 10
27.466000
 20
-82.547000
 40
0.698500
  0
INSERT
  5
24b
100
AcDbEntity
  8
MANUFACTURING_NCDRILL_FIGURE
100
AcDbBlockReference
  2
FIGURE_CROSS
 10
27.466000
 20
-82.547000
 41
1.397000
 42
1.397000
 50
0.000000
  0
CIRCLE
  5
24d
100
AcDbEntity
  8
PIN_BOTTOM
100
AcDbCircle
 10
30.006000
 20
-60.007000
 40
0.698500
  0
INSERT
  5
24e
100
AcDbEntity
  8
MANUFACTURING_NCDRILL_FIGURE
100
AcDbBlockReference
  2
FIGURE_CROSS
 10
30.006000
 20
-60.007000
 41
1.397000
 42
1.397000
 50
0.000000
  0
CIRCLE
  5
250
100
AcDbEntity
  8
PIN_BOTTOM
100
AcDbCircle
 10
27.466000
 20
-57.467000
 40
0.698500
  0
INSERT
  5
251
100
AcDbEntity
  8
MANUFACTURING_NCDRILL_FIGURE
100
AcDbBlockReference
  2
FIGURE_CROSS
 10
27.466000
 20
-57.467000
 41
1.397000
 42
1.397000
 50
0.000000
  0
CIRCLE
  5
253
100
AcDbEntity
  8
PIN_BOTTOM
100
AcDbCircle
 10
32.546000
 20
-57.467000
 40
0.698500
  0
INSERT
  5
254
100
AcDbEntity
  8
MANUFACTURING_NCDRILL_FIGURE
100
AcDbBlockReference
  2
FIGURE_CROSS
 10
32.546000
 20
-57.467000
 41
1.397000
 42
1.397000
 50
0.000000
  0
CIRCLE
  5
256
100
AcDbEntity
  8
PIN_BOTTOM
100
AcDbCircle
 10
32.546000
 20
-62.547000
 40
0.698500
  0
INSERT
  5
257
100
AcDbEntity
  8
MANUFACTURING_NCDRILL_FIGURE
100
AcDbBlockReference
  2
FIGURE_CROSS
 10
32.546000
 20
-62.547000
 41
1.397000
 42
1.397000
 50
0.000000
  0
CIRCLE
  5
259
100
AcDbEntity
  8
PIN_BOTTOM
100
AcDbCircle
 10
27.466000
 20
-62.547000
 40
0.698500
  0
INSERT
  5
25a
100
AcDbEntity
  8
MANUFACTURING_NCDRILL_FIGURE
100
AcDbBlockReference
  2
FIGURE_CROSS
 10
27.466000
 20
-62.547000
 41
1.397000
 42
1.397000
 50
0.000000
  0
CIRCLE
  5
25c
100
AcDbEntity
  8
PIN_BOTTOM
100
AcDbCircle
 10
-29.994000
 20
-80.007000
 40
0.698500
  0
INSERT
  5
25d
100
AcDbEntity
  8
MANUFACTURING_NCDRILL_FIGURE
100
AcDbBlockReference
  2
FIGURE_CROSS
 10
-29.994000
 20
-80.007000
 41
1.397000
 42
1.397000
 50
0.000000
  0
CIRCLE
  5
25f
100
AcDbEntity
  8
PIN_BOTTOM
100
AcDbCircle
 10
-32.534000
 20
-77.467000
 40
0.698500
  0
INSERT
  5
260
100
AcDbEntity
  8
MANUFACTURING_NCDRILL_FIGURE
100
AcDbBlockReference
  2
FIGURE_CROSS
 10
-32.534000
 20
-77.467000
 41
1.397000
 42
1.397000
 50
0.000000
  0
CIRCLE
  5
262
100
AcDbEntity
  8
PIN_BOTTOM
100
AcDbCircle
 10
-27.454000
 20
-77.467000
 40
0.698500
  0
INSERT
  5
263
100
AcDbEntity
  8
MANUFACTURING_NCDRILL_FIGURE
100
AcDbBlockReference
  2
FIGURE_CROSS
 10
-27.454000
 20
-77.467000
 41
1.397000
 42
1.397000
 50
0.000000
  0
CIRCLE
  5
265
100
AcDbEntity
  8
PIN_BOTTOM
100
AcDbCircle
 10
-27.454000
 20
-82.547000
 40
0.698500
  0
INSERT
  5
266
100
AcDbEntity
  8
MANUFACTURING_NCDRILL_FIGURE
100
AcDbBlockReference
  2
FIGURE_CROSS
 10
-27.454000
 20
-82.547000
 41
1.397000
 42
1.397000
 50
0.000000
  0
CIRCLE
  5
268
100
AcDbEntity
  8
PIN_BOTTOM
100
AcDbCircle
 10
-32.534000
 20
-82.547000
 40
0.698500
  0
INSERT
  5
269
100
AcDbEntity
  8
MANUFACTURING_NCDRILL_FIGURE
100
AcDbBlockReference
  2
FIGURE_CROSS
 10
-32.534000
 20
-82.547000
 41
1.397000
 42
1.397000
 50
0.000000
  0
CIRCLE
  5
26b
100
AcDbEntity
  8
PIN_BOTTOM
100
AcDbCircle
 10
-29.994000
 20
-60.007000
 40
0.698500
  0
INSERT
  5
26c
100
AcDbEntity
  8
MANUFACTURING_NCDRILL_FIGURE
100
AcDbBlockReference
  2
FIGURE_CROSS
 10
-29.994000
 20
-60.007000
 41
1.397000
 42
1.397000
 50
0.000000
  0
CIRCLE
  5
26e
100
AcDbEntity
  8
PIN_BOTTOM
100
AcDbCircle
 10
-32.534000
 20
-57.467000
 40
0.698500
  0
INSERT
  5
26f
100
AcDbEntity
  8
MANUFACTURING_NCDRILL_FIGURE
100
AcDbBlockReference
  2
FIGURE_CROSS
 10
-32.534000
 20
-57.467000
 41
1.397000
 42
1.397000
 50
0.000000
  0
CIRCLE
  5
271
100
AcDbEntity
  8
PIN_BOTTOM
100
AcDbCircle
 10
-27.454000
 20
-57.467000
 40
0.698500
  0
INSERT
  5
272
100
AcDbEntity
  8
MANUFACTURING_NCDRILL_FIGURE
100
AcDbBlockReference
  2
FIGURE_CROSS
 10
-27.454000
 20
-57.467000
 41
1.397000
 42
1.397000
 50
0.000000
  0
CIRCLE
  5
274
100
AcDbEntity
  8
PIN_BOTTOM
100
AcDbCircle
 10
-27.454000
 20
-62.547000
 40
0.698500
  0
INSERT
  5
275
100
AcDbEntity
  8
MANUFACTURING_NCDRILL_FIGURE
100
AcDbBlockReference
  2
FIGURE_CROSS
 10
-27.454000
 20
-62.547000
 41
1.397000
 42
1.397000
 50
0.000000
  0
CIRCLE
  5
277
100
AcDbEntity
  8
PIN_BOTTOM
100
AcDbCircle
 10
-32.534000
 20
-62.547000
 40
0.698500
  0
INSERT
  5
278
100
AcDbEntity
  8
MANUFACTURING_NCDRILL_FIGURE
100
AcDbBlockReference
  2
FIGURE_CROSS
 10
-32.534000
 20
-62.547000
 41
1.397000
 42
1.397000
 50
0.000000
  0
CIRCLE
  5
27a
100
AcDbEntity
  8
PIN_BOTTOM
100
AcDbCircle
 10
-9.994000
 20
-80.007000
 40
0.698500
  0
INSERT
  5
27b
100
AcDbEntity
  8
MANUFACTURING_NCDRILL_FIGURE
100
AcDbBlockReference
  2
FIGURE_CROSS
 10
-9.994000
 20
-80.007000
 41
1.397000
 42
1.397000
 50
0.000000
  0
CIRCLE
  5
27d
100
AcDbEntity
  8
PIN_BOTTOM
100
AcDbCircle
 10
-12.534000
 20
-77.467000
 40
0.698500
  0
INSERT
  5
27e
100
AcDbEntity
  8
MANUFACTURING_NCDRILL_FIGURE
100
AcDbBlockReference
  2
FIGURE_CROSS
 10
-12.534000
 20
-77.467000
 41
1.397000
 42
1.397000
 50
0.000000
  0
CIRCLE
  5
280
100
AcDbEntity
  8
PIN_BOTTOM
100
AcDbCircle
 10
-7.454000
 20
-77.467000
 40
0.698500
  0
INSERT
  5
281
100
AcDbEntity
  8
MANUFACTURING_NCDRILL_FIGURE
100
AcDbBlockReference
  2
FIGURE_CROSS
 10
-7.454000
 20
-77.467000
 41
1.397000
 42
1.397000
 50
0.000000
  0
CIRCLE
  5
283
100
AcDbEntity
  8
PIN_BOTTOM
100
AcDbCircle
 10
-7.454000
 20
-82.547000
 40
0.698500
  0
INSERT
  5
284
100
AcDbEntity
  8
MANUFACTURING_NCDRILL_FIGURE
100
AcDbBlockReference
  2
FIGURE_CROSS
 10
-7.454000
 20
-82.547000
 41
1.397000
 42
1.397000
 50
0.000000
  0
CIRCLE
  5
286
100
AcDbEntity
  8
PIN_BOTTOM
100
AcDbCircle
 10
-12.534000
 20
-82.547000
 40
0.698500
  0
INSERT
  5
287
100
AcDbEntity
  8
MANUFACTURING_NCDRILL_FIGURE
100
AcDbBlockReference
  2
FIGURE_CROSS
 10
-12.534000
 20
-82.547000
 41
1.397000
 42
1.397000
 50
0.000000
  0
CIRCLE
  5
289
100
AcDbEntity
  8
PIN_BOTTOM
100
AcDbCircle
 10
-9.994000
 20
-60.007000
 40
0.698500
  0
INSERT
  5
28a
100
AcDbEntity
  8
MANUFACTURING_NCDRILL_FIGURE
100
AcDbBlockReference
  2
FIGURE_CROSS
 10
-9.994000
 20
-60.007000
 41
1.397000
 42
1.397000
 50
0.000000
  0
CIRCLE
  5
28c
100
AcDbEntity
  8
PIN_BOTTOM
100
AcDbCircle
 10
-12.534000
 20
-57.467000
 40
0.698500
  0
INSERT
  5
28d
100
AcDbEntity
  8
MANUFACTURING_NCDRILL_FIGURE
100
AcDbBlockReference
  2
FIGURE_CROSS
 10
-12.534000
 20
-57.467000
 41
1.397000
 42
1.397000
 50
0.000000
  0
CIRCLE
  5
28f
100
AcDbEntity
  8
PIN_BOTTOM
100
AcDbCircle
 10
-7.454000
 20
-57.467000
 40
0.698500
  0
INSERT
  5
290
100
AcDbEntity
  8
MANUFACTURING_NCDRILL_FIGURE
100
AcDbBlockReference
  2
FIGURE_CROSS
 10
-7.454000
 20
-57.467000
 41
1.397000
 42
1.397000
 50
0.000000
  0
CIRCLE
  5
292
100
AcDbEntity
  8
PIN_BOTTOM
100
AcDbCircle
 10
-7.454000
 20
-62.547000
 40
0.698500
  0
INSERT
  5
293
100
AcDbEntity
  8
MANUFACTURING_NCDRILL_FIGURE
100
AcDbBlockReference
  2
FIGURE_CROSS
 10
-7.454000
 20
-62.547000
 41
1.397000
 42
1.397000
 50
0.000000
  0
CIRCLE
  5
295
100
AcDbEntity
  8
PIN_BOTTOM
100
AcDbCircle
 10
-12.534000
 20
-62.547000
 40
0.698500
  0
INSERT
  5
296
100
AcDbEntity
  8
MANUFACTURING_NCDRILL_FIGURE
100
AcDbBlockReference
  2
FIGURE_CROSS
 10
-12.534000
 20
-62.547000
 41
1.397000
 42
1.397000
 50
0.000000
  0
CIRCLE
  5
298
100
AcDbEntity
  8
PIN_BOTTOM
100
AcDbCircle
 10
-29.994000
 20
-40.007000
 40
0.698500
  0
INSERT
  5
299
100
AcDbEntity
  8
MANUFACTURING_NCDRILL_FIGURE
100
AcDbBlockReference
  2
FIGURE_CROSS
 10
-29.994000
 20
-40.007000
 41
1.397000
 42
1.397000
 50
0.000000
  0
CIRCLE
  5
29b
100
AcDbEntity
  8
PIN_BOTTOM
100
AcDbCircle
 10
-32.534000
 20
-37.467000
 40
0.698500
  0
INSERT
  5
29c
100
AcDbEntity
  8
MANUFACTURING_NCDRILL_FIGURE
100
AcDbBlockReference
  2
FIGURE_CROSS
 10
-32.534000
 20
-37.467000
 41
1.397000
 42
1.397000
 50
0.000000
  0
CIRCLE
  5
29e
100
AcDbEntity
  8
PIN_BOTTOM
100
AcDbCircle
 10
-27.454000
 20
-37.467000
 40
0.698500
  0
INSERT
  5
29f
100
AcDbEntity
  8
MANUFACTURING_NCDRILL_FIGURE
100
AcDbBlockReference
  2
FIGURE_CROSS
 10
-27.454000
 20
-37.467000
 41
1.397000
 42
1.397000
 50
0.000000
  0
CIRCLE
  5
2a1
100
AcDbEntity
  8
PIN_BOTTOM
100
AcDbCircle
 10
-27.454000
 20
-42.547000
 40
0.698500
  0
INSERT
  5
2a2
100
AcDbEntity
  8
MANUFACTURING_NCDRILL_FIGURE
100
AcDbBlockReference
  2
FIGURE_CROSS
 10
-27.454000
 20
-42.547000
 41
1.397000
 42
1.397000
 50
0.000000
  0
CIRCLE
  5
2a4
100
AcDbEntity
  8
PIN_BOTTOM
100
AcDbCircle
 10
-32.534000
 20
-42.547000
 40
0.698500
  0
INSERT
  5
2a5
100
AcDbEntity
  8
MANUFACTURING_NCDRILL_FIGURE
100
AcDbBlockReference
  2
FIGURE_CROSS
 10
-32.534000
 20
-42.547000
 41
1.397000
 42
1.397000
 50
0.000000
  0
CIRCLE
  5
2a7
100
AcDbEntity
  8
PIN_BOTTOM
100
AcDbCircle
 10
-29.994000
 20
-20.007000
 40
0.698500
  0
INSERT
  5
2a8
100
AcDbEntity
  8
MANUFACTURING_NCDRILL_FIGURE
100
AcDbBlockReference
  2
FIGURE_CROSS
 10
-29.994000
 20
-20.007000
 41
1.397000
 42
1.397000
 50
0.000000
  0
CIRCLE
  5
2aa
100
AcDbEntity
  8
PIN_BOTTOM
100
AcDbCircle
 10
-32.534000
 20
-17.467000
 40
0.698500
  0
INSERT
  5
2ab
100
AcDbEntity
  8
MANUFACTURING_NCDRILL_FIGURE
100
AcDbBlockReference
  2
FIGURE_CROSS
 10
-32.534000
 20
-17.467000
 41
1.397000
 42
1.397000
 50
0.000000
  0
CIRCLE
  5
2ad
100
AcDbEntity
  8
PIN_BOTTOM
100
AcDbCircle
 10
-27.454000
 20
-17.467000
 40
0.698500
  0
INSERT
  5
2ae
100
AcDbEntity
  8
MANUFACTURING_NCDRILL_FIGURE
100
AcDbBlockReference
  2
FIGURE_CROSS
 10
-27.454000
 20
-17.467000
 41
1.397000
 42
1.397000
 50
0.000000
  0
CIRCLE
  5
2b0
100
AcDbEntity
  8
PIN_BOTTOM
100
AcDbCircle
 10
-27.454000
 20
-22.547000
 40
0.698500
  0
INSERT
  5
2b1
100
AcDbEntity
  8
MANUFACTURING_NCDRILL_FIGURE
100
AcDbBlockReference
  2
FIGURE_CROSS
 10
-27.454000
 20
-22.547000
 41
1.397000
 42
1.397000
 50
0.000000
  0
CIRCLE
  5
2b3
100
AcDbEntity
  8
PIN_BOTTOM
100
AcDbCircle
 10
-32.534000
 20
-22.547000
 40
0.698500
  0
INSERT
  5
2b4
100
AcDbEntity
  8
MANUFACTURING_NCDRILL_FIGURE
100
AcDbBlockReference
  2
FIGURE_CROSS
 10
-32.534000
 20
-22.547000
 41
1.397000
 42
1.397000
 50
0.000000
  0
CIRCLE
  5
2b6
100
AcDbEntity
  8
PIN_BOTTOM
100
AcDbCircle
 10
-9.994000
 20
-40.007000
 40
0.698500
  0
INSERT
  5
2b7
100
AcDbEntity
  8
MANUFACTURING_NCDRILL_FIGURE
100
AcDbBlockReference
  2
FIGURE_CROSS
 10
-9.994000
 20
-40.007000
 41
1.397000
 42
1.397000
 50
0.000000
  0
CIRCLE
  5
2b9
100
AcDbEntity
  8
PIN_BOTTOM
100
AcDbCircle
 10
-12.534000
 20
-37.467000
 40
0.698500
  0
INSERT
  5
2ba
100
AcDbEntity
  8
MANUFACTURING_NCDRILL_FIGURE
100
AcDbBlockReference
  2
FIGURE_CROSS
 10
-12.534000
 20
-37.467000
 41
1.397000
 42
1.397000
 50
0.000000
  0
CIRCLE
  5
2bc
100
AcDbEntity
  8
PIN_BOTTOM
100
AcDbCircle
 10
-7.454000
 20
-37.467000
 40
0.698500
  0
INSERT
  5
2bd
100
AcDbEntity
  8
MANUFACTURING_NCDRILL_FIGURE
100
AcDbBlockReference
  2
FIGURE_CROSS
 10
-7.454000
 20
-37.467000
 41
1.397000
 42
1.397000
 50
0.000000
  0
CIRCLE
  5
2bf
100
AcDbEntity
  8
PIN_BOTTOM
100
AcDbCircle
 10
-7.454000
 20
-42.547000
 40
0.698500
  0
INSERT
  5
2c0
100
AcDbEntity
  8
MANUFACTURING_NCDRILL_FIGURE
100
AcDbBlockReference
  2
FIGURE_CROSS
 10
-7.454000
 20
-42.547000
 41
1.397000
 42
1.397000
 50
0.000000
  0
CIRCLE
  5
2c2
100
AcDbEntity
  8
PIN_BOTTOM
100
AcDbCircle
 10
-12.534000
 20
-42.547000
 40
0.698500
  0
INSERT
  5
2c3
100
AcDbEntity
  8
MANUFACTURING_NCDRILL_FIGURE
100
AcDbBlockReference
  2
FIGURE_CROSS
 10
-12.534000
 20
-42.547000
 41
1.397000
 42
1.397000
 50
0.000000
  0
CIRCLE
  5
2c5
100
AcDbEntity
  8
PIN_BOTTOM
100
AcDbCircle
 10
-9.994000
 20
-20.007000
 40
0.698500
  0
INSERT
  5
2c6
100
AcDbEntity
  8
MANUFACTURING_NCDRILL_FIGURE
100
AcDbBlockReference
  2
FIGURE_CROSS
 10
-9.994000
 20
-20.007000
 41
1.397000
 42
1.397000
 50
0.000000
  0
CIRCLE
  5
2c8
100
AcDbEntity
  8
PIN_BOTTOM
100
AcDbCircle
 10
-12.534000
 20
-17.467000
 40
0.698500
  0
INSERT
  5
2c9
100
AcDbEntity
  8
MANUFACTURING_NCDRILL_FIGURE
100
AcDbBlockReference
  2
FIGURE_CROSS
 10
-12.534000
 20
-17.467000
 41
1.397000
 42
1.397000
 50
0.000000
  0
CIRCLE
  5
2cb
100
AcDbEntity
  8
PIN_BOTTOM
100
AcDbCircle
 10
-7.454000
 20
-17.467000
 40
0.698500
  0
INSERT
  5
2cc
100
AcDbEntity
  8
MANUFACTURING_NCDRILL_FIGURE
100
AcDbBlockReference
  2
FIGURE_CROSS
 10
-7.454000
 20
-17.467000
 41
1.397000
 42
1.397000
 50
0.000000
  0
CIRCLE
  5
2ce
100
AcDbEntity
  8
PIN_BOTTOM
100
AcDbCircle
 10
-7.454000
 20
-22.547000
 40
0.698500
  0
INSERT
  5
2cf
100
AcDbEntity
  8
MANUFACTURING_NCDRILL_FIGURE
100
AcDbBlockReference
  2
FIGURE_CROSS
 10
-7.454000
 20
-22.547000
 41
1.397000
 42
1.397000
 50
0.000000
  0
CIRCLE
  5
2d1
100
AcDbEntity
  8
PIN_BOTTOM
100
AcDbCircle
 10
-12.534000
 20
-22.547000
 40
0.698500
  0
INSERT
  5
2d2
100
AcDbEntity
  8
MANUFACTURING_NCDRILL_FIGURE
100
AcDbBlockReference
  2
FIGURE_CROSS
 10
-12.534000
 20
-22.547000
 41
1.397000
 42
1.397000
 50
0.000000
  0
CIRCLE
  5
2d4
100
AcDbEntity
  8
PIN_BOTTOM
100
AcDbCircle
 10
-10.006000
 20
40.007000
 40
0.698500
  0
INSERT
  5
2d5
100
AcDbEntity
  8
MANUFACTURING_NCDRILL_FIGURE
100
AcDbBlockReference
  2
FIGURE_CROSS
 10
-10.006000
 20
40.007000
 41
1.397000
 42
1.397000
 50
0.000000
  0
CIRCLE
  5
2d7
100
AcDbEntity
  8
PIN_BOTTOM
100
AcDbCircle
 10
-7.466000
 20
37.467000
 40
0.698500
  0
INSERT
  5
2d8
100
AcDbEntity
  8
MANUFACTURING_NCDRILL_FIGURE
100
AcDbBlockReference
  2
FIGURE_CROSS
 10
-7.466000
 20
37.467000
 41
1.397000
 42
1.397000
 50
0.000000
  0
CIRCLE
  5
2da
100
AcDbEntity
  8
PIN_BOTTOM
100
AcDbCircle
 10
-12.546000
 20
37.467000
 40
0.698500
  0
INSERT
  5
2db
100
AcDbEntity
  8
MANUFACTURING_NCDRILL_FIGURE
100
AcDbBlockReference
  2
FIGURE_CROSS
 10
-12.546000
 20
37.467000
 41
1.397000
 42
1.397000
 50
0.000000
  0
CIRCLE
  5
2dd
100
AcDbEntity
  8
PIN_BOTTOM
100
AcDbCircle
 10
-12.546000
 20
42.547000
 40
0.698500
  0
INSERT
  5
2de
100
AcDbEntity
  8
MANUFACTURING_NCDRILL_FIGURE
100
AcDbBlockReference
  2
FIGURE_CROSS
 10
-12.546000
 20
42.547000
 41
1.397000
 42
1.397000
 50
0.000000
  0
CIRCLE
  5
2e0
100
AcDbEntity
  8
PIN_BOTTOM
100
AcDbCircle
 10
-7.466000
 20
42.547000
 40
0.698500
  0
INSERT
  5
2e1
100
AcDbEntity
  8
MANUFACTURING_NCDRILL_FIGURE
100
AcDbBlockReference
  2
FIGURE_CROSS
 10
-7.466000
 20
42.547000
 41
1.397000
 42
1.397000
 50
0.000000
  0
CIRCLE
  5
2e3
100
AcDbEntity
  8
PIN_BOTTOM
100
AcDbCircle
 10
-10.006000
 20
20.007000
 40
0.698500
  0
INSERT
  5
2e4
100
AcDbEntity
  8
MANUFACTURING_NCDRILL_FIGURE
100
AcDbBlockReference
  2
FIGURE_CROSS
 10
-10.006000
 20
20.007000
 41
1.397000
 42
1.397000
 50
0.000000
  0
CIRCLE
  5
2e6
100
AcDbEntity
  8
PIN_BOTTOM
100
AcDbCircle
 10
-7.466000
 20
17.467000
 40
0.698500
  0
INSERT
  5
2e7
100
AcDbEntity
  8
MANUFACTURING_NCDRILL_FIGURE
100
AcDbBlockReference
  2
FIGURE_CROSS
 10
-7.466000
 20
17.467000
 41
1.397000
 42
1.397000
 50
0.000000
  0
CIRCLE
  5
2e9
100
AcDbEntity
  8
PIN_BOTTOM
100
AcDbCircle
 10
-12.546000
 20
17.467000
 40
0.698500
  0
INSERT
  5
2ea
100
AcDbEntity
  8
MANUFACTURING_NCDRILL_FIGURE
100
AcDbBlockReference
  2
FIGURE_CROSS
 10
-12.546000
 20
17.467000
 41
1.397000
 42
1.397000
 50
0.000000
  0
CIRCLE
  5
2ec
100
AcDbEntity
  8
PIN_BOTTOM
100
AcDbCircle
 10
-12.546000
 20
22.547000
 40
0.698500
  0
INSERT
  5
2ed
100
AcDbEntity
  8
MANUFACTURING_NCDRILL_FIGURE
100
AcDbBlockReference
  2
FIGURE_CROSS
 10
-12.546000
 20
22.547000
 41
1.397000
 42
1.397000
 50
0.000000
  0
CIRCLE
  5
2ef
100
AcDbEntity
  8
PIN_BOTTOM
100
AcDbCircle
 10
-7.466000
 20
22.547000
 40
0.698500
  0
INSERT
  5
2f0
100
AcDbEntity
  8
MANUFACTURING_NCDRILL_FIGURE
100
AcDbBlockReference
  2
FIGURE_CROSS
 10
-7.466000
 20
22.547000
 41
1.397000
 42
1.397000
 50
0.000000
  0
CIRCLE
  5
2f2
100
AcDbEntity
  8
PIN_BOTTOM
100
AcDbCircle
 10
-30.006000
 20
40.007000
 40
0.698500
  0
INSERT
  5
2f3
100
AcDbEntity
  8
MANUFACTURING_NCDRILL_FIGURE
100
AcDbBlockReference
  2
FIGURE_CROSS
 10
-30.006000
 20
40.007000
 41
1.397000
 42
1.397000
 50
0.000000
  0
CIRCLE
  5
2f5
100
AcDbEntity
  8
PIN_BOTTOM
100
AcDbCircle
 10
-27.466000
 20
37.467000
 40
0.698500
  0
INSERT
  5
2f6
100
AcDbEntity
  8
MANUFACTURING_NCDRILL_FIGURE
100
AcDbBlockReference
  2
FIGURE_CROSS
 10
-27.466000
 20
37.467000
 41
1.397000
 42
1.397000
 50
0.000000
  0
CIRCLE
  5
2f8
100
AcDbEntity
  8
PIN_BOTTOM
100
AcDbCircle
 10
-32.546000
 20
37.467000
 40
0.698500
  0
INSERT
  5
2f9
100
AcDbEntity
  8
MANUFACTURING_NCDRILL_FIGURE
100
AcDbBlockReference
  2
FIGURE_CROSS
 10
-32.546000
 20
37.467000
 41
1.397000
 42
1.397000
 50
0.000000
  0
CIRCLE
  5
2fb
100
AcDbEntity
  8
PIN_BOTTOM
100
AcDbCircle
 10
-32.546000
 20
42.547000
 40
0.698500
  0
INSERT
  5
2fc
100
AcDbEntity
  8
MANUFACTURING_NCDRILL_FIGURE
100
AcDbBlockReference
  2
FIGURE_CROSS
 10
-32.546000
 20
42.547000
 41
1.397000
 42
1.397000
 50
0.000000
  0
CIRCLE
  5
2fe
100
AcDbEntity
  8
PIN_BOTTOM
100
AcDbCircle
 10
-27.466000
 20
42.547000
 40
0.698500
  0
INSERT
  5
2ff
100
AcDbEntity
  8
MANUFACTURING_NCDRILL_FIGURE
100
AcDbBlockReference
  2
FIGURE_CROSS
 10
-27.466000
 20
42.547000
 41
1.397000
 42
1.397000
 50
0.000000
  0
CIRCLE
  5
301
100
AcDbEntity
  8
PIN_BOTTOM
100
AcDbCircle
 10
-30.006000
 20
20.007000
 40
0.698500
  0
INSERT
  5
302
100
AcDbEntity
  8
MANUFACTURING_NCDRILL_FIGURE
100
AcDbBlockReference
  2
FIGURE_CROSS
 10
-30.006000
 20
20.007000
 41
1.397000
 42
1.397000
 50
0.000000
  0
CIRCLE
  5
304
100
AcDbEntity
  8
PIN_BOTTOM
100
AcDbCircle
 10
-27.466000
 20
17.467000
 40
0.698500
  0
INSERT
  5
305
100
AcDbEntity
  8
MANUFACTURING_NCDRILL_FIGURE
100
AcDbBlockReference
  2
FIGURE_CROSS
 10
-27.466000
 20
17.467000
 41
1.397000
 42
1.397000
 50
0.000000
  0
CIRCLE
  5
307
100
AcDbEntity
  8
PIN_BOTTOM
100
AcDbCircle
 10
-32.546000
 20
17.467000
 40
0.698500
  0
INSERT
  5
308
100
AcDbEntity
  8
MANUFACTURING_NCDRILL_FIGURE
100
AcDbBlockReference
  2
FIGURE_CROSS
 10
-32.546000
 20
17.467000
 41
1.397000
 42
1.397000
 50
0.000000
  0
CIRCLE
  5
30a
100
AcDbEntity
  8
PIN_BOTTOM
100
AcDbCircle
 10
-32.546000
 20
22.547000
 40
0.698500
  0
INSERT
  5
30b
100
AcDbEntity
  8
MANUFACTURING_NCDRILL_FIGURE
100
AcDbBlockReference
  2
FIGURE_CROSS
 10
-32.546000
 20
22.547000
 41
1.397000
 42
1.397000
 50
0.000000
  0
CIRCLE
  5
30d
100
AcDbEntity
  8
PIN_BOTTOM
100
AcDbCircle
 10
-27.466000
 20
22.547000
 40
0.698500
  0
INSERT
  5
30e
100
AcDbEntity
  8
MANUFACTURING_NCDRILL_FIGURE
100
AcDbBlockReference
  2
FIGURE_CROSS
 10
-27.466000
 20
22.547000
 41
1.397000
 42
1.397000
 50
0.000000
  0
CIRCLE
  5
310
100
AcDbEntity
  8
PIN_BOTTOM
100
AcDbCircle
 10
-10.006000
 20
80.007000
 40
0.698500
  0
INSERT
  5
311
100
AcDbEntity
  8
MANUFACTURING_NCDRILL_FIGURE
100
AcDbBlockReference
  2
FIGURE_CROSS
 10
-10.006000
 20
80.007000
 41
1.397000
 42
1.397000
 50
0.000000
  0
CIRCLE
  5
313
100
AcDbEntity
  8
PIN_BOTTOM
100
AcDbCircle
 10
-7.466000
 20
77.467000
 40
0.698500
  0
INSERT
  5
314
100
AcDbEntity
  8
MANUFACTURING_NCDRILL_FIGURE
100
AcDbBlockReference
  2
FIGURE_CROSS
 10
-7.466000
 20
77.467000
 41
1.397000
 42
1.397000
 50
0.000000
  0
CIRCLE
  5
316
100
AcDbEntity
  8
PIN_BOTTOM
100
AcDbCircle
 10
-12.546000
 20
77.467000
 40
0.698500
  0
INSERT
  5
317
100
AcDbEntity
  8
MANUFACTURING_NCDRILL_FIGURE
100
AcDbBlockReference
  2
FIGURE_CROSS
 10
-12.546000
 20
77.467000
 41
1.397000
 42
1.397000
 50
0.000000
  0
CIRCLE
  5
319
100
AcDbEntity
  8
PIN_BOTTOM
100
AcDbCircle
 10
-12.546000
 20
82.547000
 40
0.698500
  0
INSERT
  5
31a
100
AcDbEntity
  8
MANUFACTURING_NCDRILL_FIGURE
100
AcDbBlockReference
  2
FIGURE_CROSS
 10
-12.546000
 20
82.547000
 41
1.397000
 42
1.397000
 50
0.000000
  0
CIRCLE
  5
31c
100
AcDbEntity
  8
PIN_BOTTOM
100
AcDbCircle
 10
-7.466000
 20
82.547000
 40
0.698500
  0
INSERT
  5
31d
100
AcDbEntity
  8
MANUFACTURING_NCDRILL_FIGURE
100
AcDbBlockReference
  2
FIGURE_CROSS
 10
-7.466000
 20
82.547000
 41
1.397000
 42
1.397000
 50
0.000000
  0
CIRCLE
  5
31f
100
AcDbEntity
  8
PIN_BOTTOM
100
AcDbCircle
 10
-10.006000
 20
60.007000
 40
0.698500
  0
INSERT
  5
320
100
AcDbEntity
  8
MANUFACTURING_NCDRILL_FIGURE
100
AcDbBlockReference
  2
FIGURE_CROSS
 10
-10.006000
 20
60.007000
 41
1.397000
 42
1.397000
 50
0.000000
  0
CIRCLE
  5
322
100
AcDbEntity
  8
PIN_BOTTOM
100
AcDbCircle
 10
-7.466000
 20
57.467000
 40
0.698500
  0
INSERT
  5
323
100
AcDbEntity
  8
MANUFACTURING_NCDRILL_FIGURE
100
AcDbBlockReference
  2
FIGURE_CROSS
 10
-7.466000
 20
57.467000
 41
1.397000
 42
1.397000
 50
0.000000
  0
CIRCLE
  5
325
100
AcDbEntity
  8
PIN_BOTTOM
100
AcDbCircle
 10
-12.546000
 20
57.467000
 40
0.698500
  0
INSERT
  5
326
100
AcDbEntity
  8
MANUFACTURING_NCDRILL_FIGURE
100
AcDbBlockReference
  2
FIGURE_CROSS
 10
-12.546000
 20
57.467000
 41
1.397000
 42
1.397000
 50
0.000000
  0
CIRCLE
  5
328
100
AcDbEntity
  8
PIN_BOTTOM
100
AcDbCircle
 10
-12.546000
 20
62.547000
 40
0.698500
  0
INSERT
  5
329
100
AcDbEntity
  8
MANUFACTURING_NCDRILL_FIGURE
100
AcDbBlockReference
  2
FIGURE_CROSS
 10
-12.546000
 20
62.547000
 41
1.397000
 42
1.397000
 50
0.000000
  0
CIRCLE
  5
32b
100
AcDbEntity
  8
PIN_BOTTOM
100
AcDbCircle
 10
-7.466000
 20
62.547000
 40
0.698500
  0
INSERT
  5
32c
100
AcDbEntity
  8
MANUFACTURING_NCDRILL_FIGURE
100
AcDbBlockReference
  2
FIGURE_CROSS
 10
-7.466000
 20
62.547000
 41
1.397000
 42
1.397000
 50
0.000000
  0
CIRCLE
  5
32e
100
AcDbEntity
  8
PIN_BOTTOM
100
AcDbCircle
 10
-30.006000
 20
80.007000
 40
0.698500
  0
INSERT
  5
32f
100
AcDbEntity
  8
MANUFACTURING_NCDRILL_FIGURE
100
AcDbBlockReference
  2
FIGURE_CROSS
 10
-30.006000
 20
80.007000
 41
1.397000
 42
1.397000
 50
0.000000
  0
CIRCLE
  5
331
100
AcDbEntity
  8
PIN_BOTTOM
100
AcDbCircle
 10
-27.466000
 20
77.467000
 40
0.698500
  0
INSERT
  5
332
100
AcDbEntity
  8
MANUFACTURING_NCDRILL_FIGURE
100
AcDbBlockReference
  2
FIGURE_CROSS
 10
-27.466000
 20
77.467000
 41
1.397000
 42
1.397000
 50
0.000000
  0
CIRCLE
  5
334
100
AcDbEntity
  8
PIN_BOTTOM
100
AcDbCircle
 10
-32.546000
 20
77.467000
 40
0.698500
  0
INSERT
  5
335
100
AcDbEntity
  8
MANUFACTURING_NCDRILL_FIGURE
100
AcDbBlockReference
  2
FIGURE_CROSS
 10
-32.546000
 20
77.467000
 41
1.397000
 42
1.397000
 50
0.000000
  0
CIRCLE
  5
337
100
AcDbEntity
  8
PIN_BOTTOM
100
AcDbCircle
 10
-32.546000
 20
82.547000
 40
0.698500
  0
INSERT
  5
338
100
AcDbEntity
  8
MANUFACTURING_NCDRILL_FIGURE
100
AcDbBlockReference
  2
FIGURE_CROSS
 10
-32.546000
 20
82.547000
 41
1.397000
 42
1.397000
 50
0.000000
  0
CIRCLE
  5
33a
100
AcDbEntity
  8
PIN_BOTTOM
100
AcDbCircle
 10
-27.466000
 20
82.547000
 40
0.698500
  0
INSERT
  5
33b
100
AcDbEntity
  8
MANUFACTURING_NCDRILL_FIGURE
100
AcDbBlockReference
  2
FIGURE_CROSS
 10
-27.466000
 20
82.547000
 41
1.397000
 42
1.397000
 50
0.000000
  0
CIRCLE
  5
33d
100
AcDbEntity
  8
PIN_BOTTOM
100
AcDbCircle
 10
-30.006000
 20
60.007000
 40
0.698500
  0
INSERT
  5
33e
100
AcDbEntity
  8
MANUFACTURING_NCDRILL_FIGURE
100
AcDbBlockReference
  2
FIGURE_CROSS
 10
-30.006000
 20
60.007000
 41
1.397000
 42
1.397000
 50
0.000000
  0
CIRCLE
  5
340
100
AcDbEntity
  8
PIN_BOTTOM
100
AcDbCircle
 10
-27.466000
 20
57.467000
 40
0.698500
  0
INSERT
  5
341
100
AcDbEntity
  8
MANUFACTURING_NCDRILL_FIGURE
100
AcDbBlockReference
  2
FIGURE_CROSS
 10
-27.466000
 20
57.467000
 41
1.397000
 42
1.397000
 50
0.000000
  0
CIRCLE
  5
343
100
AcDbEntity
  8
PIN_BOTTOM
100
AcDbCircle
 10
-32.546000
 20
57.467000
 40
0.698500
  0
INSERT
  5
344
100
AcDbEntity
  8
MANUFACTURING_NCDRILL_FIGURE
100
AcDbBlockReference
  2
FIGURE_CROSS
 10
-32.546000
 20
57.467000
 41
1.397000
 42
1.397000
 50
0.000000
  0
CIRCLE
  5
346
100
AcDbEntity
  8
PIN_BOTTOM
100
AcDbCircle
 10
-32.546000
 20
62.547000
 40
0.698500
  0
INSERT
  5
347
100
AcDbEntity
  8
MANUFACTURING_NCDRILL_FIGURE
100
AcDbBlockReference
  2
FIGURE_CROSS
 10
-32.546000
 20
62.547000
 41
1.397000
 42
1.397000
 50
0.000000
  0
CIRCLE
  5
349
100
AcDbEntity
  8
PIN_BOTTOM
100
AcDbCircle
 10
-27.466000
 20
62.547000
 40
0.698500
  0
INSERT
  5
34a
100
AcDbEntity
  8
MANUFACTURING_NCDRILL_FIGURE
100
AcDbBlockReference
  2
FIGURE_CROSS
 10
-27.466000
 20
62.547000
 41
1.397000
 42
1.397000
 50
0.000000
  0
CIRCLE
  5
34c
100
AcDbEntity
  8
PIN_BOTTOM
100
AcDbCircle
 10
29.994000
 20
80.007000
 40
0.698500
  0
INSERT
  5
34d
100
AcDbEntity
  8
MANUFACTURING_NCDRILL_FIGURE
100
AcDbBlockReference
  2
FIGURE_CROSS
 10
29.994000
 20
80.007000
 41
1.397000
 42
1.397000
 50
0.000000
  0
CIRCLE
  5
34f
100
AcDbEntity
  8
PIN_BOTTOM
100
AcDbCircle
 10
32.534000
 20
77.467000
 40
0.698500
  0
INSERT
  5
350
100
AcDbEntity
  8
MANUFACTURING_NCDRILL_FIGURE
100
AcDbBlockReference
  2
FIGURE_CROSS
 10
32.534000
 20
77.467000
 41
1.397000
 42
1.397000
 50
0.000000
  0
CIRCLE
  5
352
100
AcDbEntity
  8
PIN_BOTTOM
100
AcDbCircle
 10
27.454000
 20
77.467000
 40
0.698500
  0
INSERT
  5
353
100
AcDbEntity
  8
MANUFACTURING_NCDRILL_FIGURE
100
AcDbBlockReference
  2
FIGURE_CROSS
 10
27.454000
 20
77.467000
 41
1.397000
 42
1.397000
 50
0.000000
  0
CIRCLE
  5
355
100
AcDbEntity
  8
PIN_BOTTOM
100
AcDbCircle
 10
27.454000
 20
82.547000
 40
0.698500
  0
INSERT
  5
356
100
AcDbEntity
  8
MANUFACTURING_NCDRILL_FIGURE
100
AcDbBlockReference
  2
FIGURE_CROSS
 10
27.454000
 20
82.547000
 41
1.397000
 42
1.397000
 50
0.000000
  0
CIRCLE
  5
358
100
AcDbEntity
  8
PIN_BOTTOM
100
AcDbCircle
 10
32.534000
 20
82.547000
 40
0.698500
  0
INSERT
  5
359
100
AcDbEntity
  8
MANUFACTURING_NCDRILL_FIGURE
100
AcDbBlockReference
  2
FIGURE_CROSS
 10
32.534000
 20
82.547000
 41
1.397000
 42
1.397000
 50
0.000000
  0
CIRCLE
  5
35b
100
AcDbEntity
  8
PIN_BOTTOM
100
AcDbCircle
 10
29.994000
 20
60.007000
 40
0.698500
  0
INSERT
  5
35c
100
AcDbEntity
  8
MANUFACTURING_NCDRILL_FIGURE
100
AcDbBlockReference
  2
FIGURE_CROSS
 10
29.994000
 20
60.007000
 41
1.397000
 42
1.397000
 50
0.000000
  0
CIRCLE
  5
35e
100
AcDbEntity
  8
PIN_BOTTOM
100
AcDbCircle
 10
32.534000
 20
57.467000
 40
0.698500
  0
INSERT
  5
35f
100
AcDbEntity
  8
MANUFACTURING_NCDRILL_FIGURE
100
AcDbBlockReference
  2
FIGURE_CROSS
 10
32.534000
 20
57.467000
 41
1.397000
 42
1.397000
 50
0.000000
  0
CIRCLE
  5
361
100
AcDbEntity
  8
PIN_BOTTOM
100
AcDbCircle
 10
27.454000
 20
57.467000
 40
0.698500
  0
INSERT
  5
362
100
AcDbEntity
  8
MANUFACTURING_NCDRILL_FIGURE
100
AcDbBlockReference
  2
FIGURE_CROSS
 10
27.454000
 20
57.467000
 41
1.397000
 42
1.397000
 50
0.000000
  0
CIRCLE
  5
364
100
AcDbEntity
  8
PIN_BOTTOM
100
AcDbCircle
 10
27.454000
 20
62.547000
 40
0.698500
  0
INSERT
  5
365
100
AcDbEntity
  8
MANUFACTURING_NCDRILL_FIGURE
100
AcDbBlockReference
  2
FIGURE_CROSS
 10
27.454000
 20
62.547000
 41
1.397000
 42
1.397000
 50
0.000000
  0
CIRCLE
  5
367
100
AcDbEntity
  8
PIN_BOTTOM
100
AcDbCircle
 10
32.534000
 20
62.547000
 40
0.698500
  0
INSERT
  5
368
100
AcDbEntity
  8
MANUFACTURING_NCDRILL_FIGURE
100
AcDbBlockReference
  2
FIGURE_CROSS
 10
32.534000
 20
62.547000
 41
1.397000
 42
1.397000
 50
0.000000
  0
CIRCLE
  5
36a
100
AcDbEntity
  8
PIN_BOTTOM
100
AcDbCircle
 10
9.994000
 20
80.007000
 40
0.698500
  0
INSERT
  5
36b
100
AcDbEntity
  8
MANUFACTURING_NCDRILL_FIGURE
100
AcDbBlockReference
  2
FIGURE_CROSS
 10
9.994000
 20
80.007000
 41
1.397000
 42
1.397000
 50
0.000000
  0
CIRCLE
  5
36d
100
AcDbEntity
  8
PIN_BOTTOM
100
AcDbCircle
 10
12.534000
 20
77.467000
 40
0.698500
  0
INSERT
  5
36e
100
AcDbEntity
  8
MANUFACTURING_NCDRILL_FIGURE
100
AcDbBlockReference
  2
FIGURE_CROSS
 10
12.534000
 20
77.467000
 41
1.397000
 42
1.397000
 50
0.000000
  0
CIRCLE
  5
370
100
AcDbEntity
  8
PIN_BOTTOM
100
AcDbCircle
 10
7.454000
 20
77.467000
 40
0.698500
  0
INSERT
  5
371
100
AcDbEntity
  8
MANUFACTURING_NCDRILL_FIGURE
100
AcDbBlockReference
  2
FIGURE_CROSS
 10
7.454000
 20
77.467000
 41
1.397000
 42
1.397000
 50
0.000000
  0
CIRCLE
  5
373
100
AcDbEntity
  8
PIN_BOTTOM
100
AcDbCircle
 10
7.454000
 20
82.547000
 40
0.698500
  0
INSERT
  5
374
100
AcDbEntity
  8
MANUFACTURING_NCDRILL_FIGURE
100
AcDbBlockReference
  2
FIGURE_CROSS
 10
7.454000
 20
82.547000
 41
1.397000
 42
1.397000
 50
0.000000
  0
CIRCLE
  5
376
100
AcDbEntity
  8
PIN_BOTTOM
100
AcDbCircle
 10
12.534000
 20
82.547000
 40
0.698500
  0
INSERT
  5
377
100
AcDbEntity
  8
MANUFACTURING_NCDRILL_FIGURE
100
AcDbBlockReference
  2
FIGURE_CROSS
 10
12.534000
 20
82.547000
 41
1.397000
 42
1.397000
 50
0.000000
  0
CIRCLE
  5
379
100
AcDbEntity
  8
PIN_BOTTOM
100
AcDbCircle
 10
9.994000
 20
60.007000
 40
0.698500
  0
INSERT
  5
37a
100
AcDbEntity
  8
MANUFACTURING_NCDRILL_FIGURE
100
AcDbBlockReference
  2
FIGURE_CROSS
 10
9.994000
 20
60.007000
 41
1.397000
 42
1.397000
 50
0.000000
  0
CIRCLE
  5
37c
100
AcDbEntity
  8
PIN_BOTTOM
100
AcDbCircle
 10
12.534000
 20
57.467000
 40
0.698500
  0
INSERT
  5
37d
100
AcDbEntity
  8
MANUFACTURING_NCDRILL_FIGURE
100
AcDbBlockReference
  2
FIGURE_CROSS
 10
12.534000
 20
57.467000
 41
1.397000
 42
1.397000
 50
0.000000
  0
CIRCLE
  5
37f
100
AcDbEntity
  8
PIN_BOTTOM
100
AcDbCircle
 10
7.454000
 20
57.467000
 40
0.698500
  0
INSERT
  5
380
100
AcDbEntity
  8
MANUFACTURING_NCDRILL_FIGURE
100
AcDbBlockReference
  2
FIGURE_CROSS
 10
7.454000
 20
57.467000
 41
1.397000
 42
1.397000
 50
0.000000
  0
CIRCLE
  5
382
100
AcDbEntity
  8
PIN_BOTTOM
100
AcDbCircle
 10
7.454000
 20
62.547000
 40
0.698500
  0
INSERT
  5
383
100
AcDbEntity
  8
MANUFACTURING_NCDRILL_FIGURE
100
AcDbBlockReference
  2
FIGURE_CROSS
 10
7.454000
 20
62.547000
 41
1.397000
 42
1.397000
 50
0.000000
  0
CIRCLE
  5
385
100
AcDbEntity
  8
PIN_BOTTOM
100
AcDbCircle
 10
12.534000
 20
62.547000
 40
0.698500
  0
INSERT
  5
386
100
AcDbEntity
  8
MANUFACTURING_NCDRILL_FIGURE
100
AcDbBlockReference
  2
FIGURE_CROSS
 10
12.534000
 20
62.547000
 41
1.397000
 42
1.397000
 50
0.000000
  0
CIRCLE
  5
388
100
AcDbEntity
  8
PIN_BOTTOM
100
AcDbCircle
 10
29.994000
 20
40.007000
 40
0.698500
  0
INSERT
  5
389
100
AcDbEntity
  8
MANUFACTURING_NCDRILL_FIGURE
100
AcDbBlockReference
  2
FIGURE_CROSS
 10
29.994000
 20
40.007000
 41
1.397000
 42
1.397000
 50
0.000000
  0
CIRCLE
  5
38b
100
AcDbEntity
  8
PIN_BOTTOM
100
AcDbCircle
 10
32.534000
 20
37.467000
 40
0.698500
  0
INSERT
  5
38c
100
AcDbEntity
  8
MANUFACTURING_NCDRILL_FIGURE
100
AcDbBlockReference
  2
FIGURE_CROSS
 10
32.534000
 20
37.467000
 41
1.397000
 42
1.397000
 50
0.000000
  0
CIRCLE
  5
38e
100
AcDbEntity
  8
PIN_BOTTOM
100
AcDbCircle
 10
27.454000
 20
37.467000
 40
0.698500
  0
INSERT
  5
38f
100
AcDbEntity
  8
MANUFACTURING_NCDRILL_FIGURE
100
AcDbBlockReference
  2
FIGURE_CROSS
 10
27.454000
 20
37.467000
 41
1.397000
 42
1.397000
 50
0.000000
  0
CIRCLE
  5
391
100
AcDbEntity
  8
PIN_BOTTOM
100
AcDbCircle
 10
27.454000
 20
42.547000
 40
0.698500
  0
INSERT
  5
392
100
AcDbEntity
  8
MANUFACTURING_NCDRILL_FIGURE
100
AcDbBlockReference
  2
FIGURE_CROSS
 10
27.454000
 20
42.547000
 41
1.397000
 42
1.397000
 50
0.000000
  0
CIRCLE
  5
394
100
AcDbEntity
  8
PIN_BOTTOM
100
AcDbCircle
 10
32.534000
 20
42.547000
 40
0.698500
  0
INSERT
  5
395
100
AcDbEntity
  8
MANUFACTURING_NCDRILL_FIGURE
100
AcDbBlockReference
  2
FIGURE_CROSS
 10
32.534000
 20
42.547000
 41
1.397000
 42
1.397000
 50
0.000000
  0
CIRCLE
  5
397
100
AcDbEntity
  8
PIN_BOTTOM
100
AcDbCircle
 10
29.994000
 20
20.007000
 40
0.698500
  0
INSERT
  5
398
100
AcDbEntity
  8
MANUFACTURING_NCDRILL_FIGURE
100
AcDbBlockReference
  2
FIGURE_CROSS
 10
29.994000
 20
20.007000
 41
1.397000
 42
1.397000
 50
0.000000
  0
CIRCLE
  5
39a
100
AcDbEntity
  8
PIN_BOTTOM
100
AcDbCircle
 10
32.534000
 20
17.467000
 40
0.698500
  0
INSERT
  5
39b
100
AcDbEntity
  8
MANUFACTURING_NCDRILL_FIGURE
100
AcDbBlockReference
  2
FIGURE_CROSS
 10
32.534000
 20
17.467000
 41
1.397000
 42
1.397000
 50
0.000000
  0
CIRCLE
  5
39d
100
AcDbEntity
  8
PIN_BOTTOM
100
AcDbCircle
 10
27.454000
 20
17.467000
 40
0.698500
  0
INSERT
  5
39e
100
AcDbEntity
  8
MANUFACTURING_NCDRILL_FIGURE
100
AcDbBlockReference
  2
FIGURE_CROSS
 10
27.454000
 20
17.467000
 41
1.397000
 42
1.397000
 50
0.000000
  0
CIRCLE
  5
3a0
100
AcDbEntity
  8
PIN_BOTTOM
100
AcDbCircle
 10
27.454000
 20
22.547000
 40
0.698500
  0
INSERT
  5
3a1
100
AcDbEntity
  8
MANUFACTURING_NCDRILL_FIGURE
100
AcDbBlockReference
  2
FIGURE_CROSS
 10
27.454000
 20
22.547000
 41
1.397000
 42
1.397000
 50
0.000000
  0
CIRCLE
  5
3a3
100
AcDbEntity
  8
PIN_BOTTOM
100
AcDbCircle
 10
32.534000
 20
22.547000
 40
0.698500
  0
INSERT
  5
3a4
100
AcDbEntity
  8
MANUFACTURING_NCDRILL_FIGURE
100
AcDbBlockReference
  2
FIGURE_CROSS
 10
32.534000
 20
22.547000
 41
1.397000
 42
1.397000
 50
0.000000
  0
CIRCLE
  5
3a6
100
AcDbEntity
  8
PIN_BOTTOM
100
AcDbCircle
 10
9.994000
 20
40.007000
 40
0.698500
  0
INSERT
  5
3a7
100
AcDbEntity
  8
MANUFACTURING_NCDRILL_FIGURE
100
AcDbBlockReference
  2
FIGURE_CROSS
 10
9.994000
 20
40.007000
 41
1.397000
 42
1.397000
 50
0.000000
  0
CIRCLE
  5
3a9
100
AcDbEntity
  8
PIN_BOTTOM
100
AcDbCircle
 10
12.534000
 20
37.467000
 40
0.698500
  0
INSERT
  5
3aa
100
AcDbEntity
  8
MANUFACTURING_NCDRILL_FIGURE
100
AcDbBlockReference
  2
FIGURE_CROSS
 10
12.534000
 20
37.467000
 41
1.397000
 42
1.397000
 50
0.000000
  0
CIRCLE
  5
3ac
100
AcDbEntity
  8
PIN_BOTTOM
100
AcDbCircle
 10
7.454000
 20
37.467000
 40
0.698500
  0
INSERT
  5
3ad
100
AcDbEntity
  8
MANUFACTURING_NCDRILL_FIGURE
100
AcDbBlockReference
  2
FIGURE_CROSS
 10
7.454000
 20
37.467000
 41
1.397000
 42
1.397000
 50
0.000000
  0
CIRCLE
  5
3af
100
AcDbEntity
  8
PIN_BOTTOM
100
AcDbCircle
 10
7.454000
 20
42.547000
 40
0.698500
  0
INSERT
  5
3b0
100
AcDbEntity
  8
MANUFACTURING_NCDRILL_FIGURE
100
AcDbBlockReference
  2
FIGURE_CROSS
 10
7.454000
 20
42.547000
 41
1.397000
 42
1.397000
 50
0.000000
  0
CIRCLE
  5
3b2
100
AcDbEntity
  8
PIN_BOTTOM
100
AcDbCircle
 10
12.534000
 20
42.547000
 40
0.698500
  0
INSERT
  5
3b3
100
AcDbEntity
  8
MANUFACTURING_NCDRILL_FIGURE
100
AcDbBlockReference
  2
FIGURE_CROSS
 10
12.534000
 20
42.547000
 41
1.397000
 42
1.397000
 50
0.000000
  0
CIRCLE
  5
3b5
100
AcDbEntity
  8
PIN_BOTTOM
100
AcDbCircle
 10
9.994000
 20
20.007000
 40
0.698500
  0
INSERT
  5
3b6
100
AcDbEntity
  8
MANUFACTURING_NCDRILL_FIGURE
100
AcDbBlockReference
  2
FIGURE_CROSS
 10
9.994000
 20
20.007000
 41
1.397000
 42
1.397000
 50
0.000000
  0
CIRCLE
  5
3b8
100
AcDbEntity
  8
PIN_BOTTOM
100
AcDbCircle
 10
12.534000
 20
17.467000
 40
0.698500
  0
INSERT
  5
3b9
100
AcDbEntity
  8
MANUFACTURING_NCDRILL_FIGURE
100
AcDbBlockReference
  2
FIGURE_CROSS
 10
12.534000
 20
17.467000
 41
1.397000
 42
1.397000
 50
0.000000
  0
CIRCLE
  5
3bb
100
AcDbEntity
  8
PIN_BOTTOM
100
AcDbCircle
 10
7.454000
 20
17.467000
 40
0.698500
  0
INSERT
  5
3bc
100
AcDbEntity
  8
MANUFACTURING_NCDRILL_FIGURE
100
AcDbBlockReference
  2
FIGURE_CROSS
 10
7.454000
 20
17.467000
 41
1.397000
 42
1.397000
 50
0.000000
  0
CIRCLE
  5
3be
100
AcDbEntity
  8
PIN_BOTTOM
100
AcDbCircle
 10
7.454000
 20
22.547000
 40
0.698500
  0
INSERT
  5
3bf
100
AcDbEntity
  8
MANUFACTURING_NCDRILL_FIGURE
100
AcDbBlockReference
  2
FIGURE_CROSS
 10
7.454000
 20
22.547000
 41
1.397000
 42
1.397000
 50
0.000000
  0
CIRCLE
  5
3c1
100
AcDbEntity
  8
PIN_BOTTOM
100
AcDbCircle
 10
12.534000
 20
22.547000
 40
0.698500
  0
INSERT
  5
3c2
100
AcDbEntity
  8
MANUFACTURING_NCDRILL_FIGURE
100
AcDbBlockReference
  2
FIGURE_CROSS
 10
12.534000
 20
22.547000
 41
1.397000
 42
1.397000
 50
0.000000
  0
CIRCLE
  5
3c4
100
AcDbEntity
  8
PIN_BOTTOM
100
AcDbCircle
 10
-50.006000
 20
70.007000
 40
0.698500
  0
INSERT
  5
3c5
100
AcDbEntity
  8
MANUFACTURING_NCDRILL_FIGURE
100
AcDbBlockReference
  2
FIGURE_CROSS
 10
-50.006000
 20
70.007000
 41
1.397000
 42
1.397000
 50
0.000000
  0
CIRCLE
  5
3c7
100
AcDbEntity
  8
PIN_BOTTOM
100
AcDbCircle
 10
-47.466000
 20
67.467000
 40
0.698500
  0
INSERT
  5
3c8
100
AcDbEntity
  8
MANUFACTURING_NCDRILL_FIGURE
100
AcDbBlockReference
  2
FIGURE_CROSS
 10
-47.466000
 20
67.467000
 41
1.397000
 42
1.397000
 50
0.000000
  0
CIRCLE
  5
3ca
100
AcDbEntity
  8
PIN_BOTTOM
100
AcDbCircle
 10
-52.546000
 20
67.467000
 40
0.698500
  0
INSERT
  5
3cb
100
AcDbEntity
  8
MANUFACTURING_NCDRILL_FIGURE
100
AcDbBlockReference
  2
FIGURE_CROSS
 10
-52.546000
 20
67.467000
 41
1.397000
 42
1.397000
 50
0.000000
  0
CIRCLE
  5
3cd
100
AcDbEntity
  8
PIN_BOTTOM
100
AcDbCircle
 10
-52.546000
 20
72.547000
 40
0.698500
  0
INSERT
  5
3ce
100
AcDbEntity
  8
MANUFACTURING_NCDRILL_FIGURE
100
AcDbBlockReference
  2
FIGURE_CROSS
 10
-52.546000
 20
72.547000
 41
1.397000
 42
1.397000
 50
0.000000
  0
CIRCLE
  5
3d0
100
AcDbEntity
  8
PIN_BOTTOM
100
AcDbCircle
 10
-47.466000
 20
72.547000
 40
0.698500
  0
INSERT
  5
3d1
100
AcDbEntity
  8
MANUFACTURING_NCDRILL_FIGURE
100
AcDbBlockReference
  2
FIGURE_CROSS
 10
-47.466000
 20
72.547000
 41
1.397000
 42
1.397000
 50
0.000000
  0
CIRCLE
  5
3d3
100
AcDbEntity
  8
PIN_BOTTOM
100
AcDbCircle
 10
-50.006000
 20
50.007000
 40
0.698500
  0
INSERT
  5
3d4
100
AcDbEntity
  8
MANUFACTURING_NCDRILL_FIGURE
100
AcDbBlockReference
  2
FIGURE_CROSS
 10
-50.006000
 20
50.007000
 41
1.397000
 42
1.397000
 50
0.000000
  0
CIRCLE
  5
3d6
100
AcDbEntity
  8
PIN_BOTTOM
100
AcDbCircle
 10
-47.466000
 20
47.467000
 40
0.698500
  0
INSERT
  5
3d7
100
AcDbEntity
  8
MANUFACTURING_NCDRILL_FIGURE
100
AcDbBlockReference
  2
FIGURE_CROSS
 10
-47.466000
 20
47.467000
 41
1.397000
 42
1.397000
 50
0.000000
  0
CIRCLE
  5
3d9
100
AcDbEntity
  8
PIN_BOTTOM
100
AcDbCircle
 10
-52.546000
 20
47.467000
 40
0.698500
  0
INSERT
  5
3da
100
AcDbEntity
  8
MANUFACTURING_NCDRILL_FIGURE
100
AcDbBlockReference
  2
FIGURE_CROSS
 10
-52.546000
 20
47.467000
 41
1.397000
 42
1.397000
 50
0.000000
  0
CIRCLE
  5
3dc
100
AcDbEntity
  8
PIN_BOTTOM
100
AcDbCircle
 10
-52.546000
 20
52.547000
 40
0.698500
  0
INSERT
  5
3dd
100
AcDbEntity
  8
MANUFACTURING_NCDRILL_FIGURE
100
AcDbBlockReference
  2
FIGURE_CROSS
 10
-52.546000
 20
52.547000
 41
1.397000
 42
1.397000
 50
0.000000
  0
CIRCLE
  5
3df
100
AcDbEntity
  8
PIN_BOTTOM
100
AcDbCircle
 10
-47.466000
 20
52.547000
 40
0.698500
  0
INSERT
  5
3e0
100
AcDbEntity
  8
MANUFACTURING_NCDRILL_FIGURE
100
AcDbBlockReference
  2
FIGURE_CROSS
 10
-47.466000
 20
52.547000
 41
1.397000
 42
1.397000
 50
0.000000
  0
CIRCLE
  5
3e2
100
AcDbEntity
  8
PIN_BOTTOM
100
AcDbCircle
 10
-70.006000
 20
70.007000
 40
0.698500
  0
INSERT
  5
3e3
100
AcDbEntity
  8
MANUFACTURING_NCDRILL_FIGURE
100
AcDbBlockReference
  2
FIGURE_CROSS
 10
-70.006000
 20
70.007000
 41
1.397000
 42
1.397000
 50
0.000000
  0
CIRCLE
  5
3e5
100
AcDbEntity
  8
PIN_BOTTOM
100
AcDbCircle
 10
-67.466000
 20
67.467000
 40
0.698500
  0
INSERT
  5
3e6
100
AcDbEntity
  8
MANUFACTURING_NCDRILL_FIGURE
100
AcDbBlockReference
  2
FIGURE_CROSS
 10
-67.466000
 20
67.467000
 41
1.397000
 42
1.397000
 50
0.000000
  0
CIRCLE
  5
3e8
100
AcDbEntity
  8
PIN_BOTTOM
100
AcDbCircle
 10
-72.546000
 20
67.467000
 40
0.698500
  0
INSERT
  5
3e9
100
AcDbEntity
  8
MANUFACTURING_NCDRILL_FIGURE
100
AcDbBlockReference
  2
FIGURE_CROSS
 10
-72.546000
 20
67.467000
 41
1.397000
 42
1.397000
 50
0.000000
  0
CIRCLE
  5
3eb
100
AcDbEntity
  8
PIN_BOTTOM
100
AcDbCircle
 10
-72.546000
 20
72.547000
 40
0.698500
  0
INSERT
  5
3ec
100
AcDbEntity
  8
MANUFACTURING_NCDRILL_FIGURE
100
AcDbBlockReference
  2
FIGURE_CROSS
 10
-72.546000
 20
72.547000
 41
1.397000
 42
1.397000
 50
0.000000
  0
CIRCLE
  5
3ee
100
AcDbEntity
  8
PIN_BOTTOM
100
AcDbCircle
 10
-67.466000
 20
72.547000
 40
0.698500
  0
INSERT
  5
3ef
100
AcDbEntity
  8
MANUFACTURING_NCDRILL_FIGURE
100
AcDbBlockReference
  2
FIGURE_CROSS
 10
-67.466000
 20
72.547000
 41
1.397000
 42
1.397000
 50
0.000000
  0
CIRCLE
  5
3f1
100
AcDbEntity
  8
PIN_BOTTOM
100
AcDbCircle
 10
-70.006000
 20
50.007000
 40
0.698500
  0
INSERT
  5
3f2
100
AcDbEntity
  8
MANUFACTURING_NCDRILL_FIGURE
100
AcDbBlockReference
  2
FIGURE_CROSS
 10
-70.006000
 20
50.007000
 41
1.397000
 42
1.397000
 50
0.000000
  0
CIRCLE
  5
3f4
100
AcDbEntity
  8
PIN_BOTTOM
100
AcDbCircle
 10
-67.466000
 20
47.467000
 40
0.698500
  0
INSERT
  5
3f5
100
AcDbEntity
  8
MANUFACTURING_NCDRILL_FIGURE
100
AcDbBlockReference
  2
FIGURE_CROSS
 10
-67.466000
 20
47.467000
 41
1.397000
 42
1.397000
 50
0.000000
  0
CIRCLE
  5
3f7
100
AcDbEntity
  8
PIN_BOTTOM
100
AcDbCircle
 10
-72.546000
 20
47.467000
 40
0.698500
  0
INSERT
  5
3f8
100
AcDbEntity
  8
MANUFACTURING_NCDRILL_FIGURE
100
AcDbBlockReference
  2
FIGURE_CROSS
 10
-72.546000
 20
47.467000
 41
1.397000
 42
1.397000
 50
0.000000
  0
CIRCLE
  5
3fa
100
AcDbEntity
  8
PIN_BOTTOM
100
AcDbCircle
 10
-72.546000
 20
52.547000
 40
0.698500
  0
INSERT
  5
3fb
100
AcDbEntity
  8
MANUFACTURING_NCDRILL_FIGURE
100
AcDbBlockReference
  2
FIGURE_CROSS
 10
-72.546000
 20
52.547000
 41
1.397000
 42
1.397000
 50
0.000000
  0
CIRCLE
  5
3fd
100
AcDbEntity
  8
PIN_BOTTOM
100
AcDbCircle
 10
-67.466000
 20
52.547000
 40
0.698500
  0
INSERT
  5
3fe
100
AcDbEntity
  8
MANUFACTURING_NCDRILL_FIGURE
100
AcDbBlockReference
  2
FIGURE_CROSS
 10
-67.466000
 20
52.547000
 41
1.397000
 42
1.397000
 50
0.000000
  0
CIRCLE
  5
400
100
AcDbEntity
  8
PIN_BOTTOM
100
AcDbCircle
 10
69.994000
 20
70.007000
 40
0.698500
  0
INSERT
  5
401
100
AcDbEntity
  8
MANUFACTURING_NCDRILL_FIGURE
100
AcDbBlockReference
  2
FIGURE_CROSS
 10
69.994000
 20
70.007000
 41
1.397000
 42
1.397000
 50
0.000000
  0
CIRCLE
  5
403
100
AcDbEntity
  8
PIN_BOTTOM
100
AcDbCircle
 10
72.534000
 20
67.467000
 40
0.698500
  0
INSERT
  5
404
100
AcDbEntity
  8
MANUFACTURING_NCDRILL_FIGURE
100
AcDbBlockReference
  2
FIGURE_CROSS
 10
72.534000
 20
67.467000
 41
1.397000
 42
1.397000
 50
0.000000
  0
CIRCLE
  5
406
100
AcDbEntity
  8
PIN_BOTTOM
100
AcDbCircle
 10
67.454000
 20
67.467000
 40
0.698500
  0
INSERT
  5
407
100
AcDbEntity
  8
MANUFACTURING_NCDRILL_FIGURE
100
AcDbBlockReference
  2
FIGURE_CROSS
 10
67.454000
 20
67.467000
 41
1.397000
 42
1.397000
 50
0.000000
  0
CIRCLE
  5
409
100
AcDbEntity
  8
PIN_BOTTOM
100
AcDbCircle
 10
67.454000
 20
72.547000
 40
0.698500
  0
INSERT
  5
40a
100
AcDbEntity
  8
MANUFACTURING_NCDRILL_FIGURE
100
AcDbBlockReference
  2
FIGURE_CROSS
 10
67.454000
 20
72.547000
 41
1.397000
 42
1.397000
 50
0.000000
  0
CIRCLE
  5
40c
100
AcDbEntity
  8
PIN_BOTTOM
100
AcDbCircle
 10
72.534000
 20
72.547000
 40
0.698500
  0
INSERT
  5
40d
100
AcDbEntity
  8
MANUFACTURING_NCDRILL_FIGURE
100
AcDbBlockReference
  2
FIGURE_CROSS
 10
72.534000
 20
72.547000
 41
1.397000
 42
1.397000
 50
0.000000
  0
CIRCLE
  5
40f
100
AcDbEntity
  8
PIN_BOTTOM
100
AcDbCircle
 10
69.994000
 20
50.007000
 40
0.698500
  0
INSERT
  5
410
100
AcDbEntity
  8
MANUFACTURING_NCDRILL_FIGURE
100
AcDbBlockReference
  2
FIGURE_CROSS
 10
69.994000
 20
50.007000
 41
1.397000
 42
1.397000
 50
0.000000
  0
CIRCLE
  5
412
100
AcDbEntity
  8
PIN_BOTTOM
100
AcDbCircle
 10
72.534000
 20
47.467000
 40
0.698500
  0
INSERT
  5
413
100
AcDbEntity
  8
MANUFACTURING_NCDRILL_FIGURE
100
AcDbBlockReference
  2
FIGURE_CROSS
 10
72.534000
 20
47.467000
 41
1.397000
 42
1.397000
 50
0.000000
  0
CIRCLE
  5
415
100
AcDbEntity
  8
PIN_BOTTOM
100
AcDbCircle
 10
67.454000
 20
47.467000
 40
0.698500
  0
INSERT
  5
416
100
AcDbEntity
  8
MANUFACTURING_NCDRILL_FIGURE
100
AcDbBlockReference
  2
FIGURE_CROSS
 10
67.454000
 20
47.467000
 41
1.397000
 42
1.397000
 50
0.000000
  0
CIRCLE
  5
418
100
AcDbEntity
  8
PIN_BOTTOM
100
AcDbCircle
 10
67.454000
 20
52.547000
 40
0.698500
  0
INSERT
  5
419
100
AcDbEntity
  8
MANUFACTURING_NCDRILL_FIGURE
100
AcDbBlockReference
  2
FIGURE_CROSS
 10
67.454000
 20
52.547000
 41
1.397000
 42
1.397000
 50
0.000000
  0
CIRCLE
  5
41b
100
AcDbEntity
  8
PIN_BOTTOM
100
AcDbCircle
 10
72.534000
 20
52.547000
 40
0.698500
  0
INSERT
  5
41c
100
AcDbEntity
  8
MANUFACTURING_NCDRILL_FIGURE
100
AcDbBlockReference
  2
FIGURE_CROSS
 10
72.534000
 20
52.547000
 41
1.397000
 42
1.397000
 50
0.000000
  0
CIRCLE
  5
41e
100
AcDbEntity
  8
PIN_BOTTOM
100
AcDbCircle
 10
49.994000
 20
70.007000
 40
0.698500
  0
INSERT
  5
41f
100
AcDbEntity
  8
MANUFACTURING_NCDRILL_FIGURE
100
AcDbBlockReference
  2
FIGURE_CROSS
 10
49.994000
 20
70.007000
 41
1.397000
 42
1.397000
 50
0.000000
  0
CIRCLE
  5
421
100
AcDbEntity
  8
PIN_BOTTOM
100
AcDbCircle
 10
52.534000
 20
67.467000
 40
0.698500
  0
INSERT
  5
422
100
AcDbEntity
  8
MANUFACTURING_NCDRILL_FIGURE
100
AcDbBlockReference
  2
FIGURE_CROSS
 10
52.534000
 20
67.467000
 41
1.397000
 42
1.397000
 50
0.000000
  0
CIRCLE
  5
424
100
AcDbEntity
  8
PIN_BOTTOM
100
AcDbCircle
 10
47.454000
 20
67.467000
 40
0.698500
  0
INSERT
  5
425
100
AcDbEntity
  8
MANUFACTURING_NCDRILL_FIGURE
100
AcDbBlockReference
  2
FIGURE_CROSS
 10
47.454000
 20
67.467000
 41
1.397000
 42
1.397000
 50
0.000000
  0
CIRCLE
  5
427
100
AcDbEntity
  8
PIN_BOTTOM
100
AcDbCircle
 10
47.454000
 20
72.547000
 40
0.698500
  0
INSERT
  5
428
100
AcDbEntity
  8
MANUFACTURING_NCDRILL_FIGURE
100
AcDbBlockReference
  2
FIGURE_CROSS
 10
47.454000
 20
72.547000
 41
1.397000
 42
1.397000
 50
0.000000
  0
CIRCLE
  5
42a
100
AcDbEntity
  8
PIN_BOTTOM
100
AcDbCircle
 10
52.534000
 20
72.547000
 40
0.698500
  0
INSERT
  5
42b
100
AcDbEntity
  8
MANUFACTURING_NCDRILL_FIGURE
100
AcDbBlockReference
  2
FIGURE_CROSS
 10
52.534000
 20
72.547000
 41
1.397000
 42
1.397000
 50
0.000000
  0
CIRCLE
  5
42d
100
AcDbEntity
  8
PIN_BOTTOM
100
AcDbCircle
 10
49.994000
 20
50.007000
 40
0.698500
  0
INSERT
  5
42e
100
AcDbEntity
  8
MANUFACTURING_NCDRILL_FIGURE
100
AcDbBlockReference
  2
FIGURE_CROSS
 10
49.994000
 20
50.007000
 41
1.397000
 42
1.397000
 50
0.000000
  0
CIRCLE
  5
430
100
AcDbEntity
  8
PIN_BOTTOM
100
AcDbCircle
 10
52.534000
 20
47.467000
 40
0.698500
  0
INSERT
  5
431
100
AcDbEntity
  8
MANUFACTURING_NCDRILL_FIGURE
100
AcDbBlockReference
  2
FIGURE_CROSS
 10
52.534000
 20
47.467000
 41
1.397000
 42
1.397000
 50
0.000000
  0
CIRCLE
  5
433
100
AcDbEntity
  8
PIN_BOTTOM
100
AcDbCircle
 10
47.454000
 20
47.467000
 40
0.698500
  0
INSERT
  5
434
100
AcDbEntity
  8
MANUFACTURING_NCDRILL_FIGURE
100
AcDbBlockReference
  2
FIGURE_CROSS
 10
47.454000
 20
47.467000
 41
1.397000
 42
1.397000
 50
0.000000
  0
CIRCLE
  5
436
100
AcDbEntity
  8
PIN_BOTTOM
100
AcDbCircle
 10
47.454000
 20
52.547000
 40
0.698500
  0
INSERT
  5
437
100
AcDbEntity
  8
MANUFACTURING_NCDRILL_FIGURE
100
AcDbBlockReference
  2
FIGURE_CROSS
 10
47.454000
 20
52.547000
 41
1.397000
 42
1.397000
 50
0.000000
  0
CIRCLE
  5
439
100
AcDbEntity
  8
PIN_BOTTOM
100
AcDbCircle
 10
52.534000
 20
52.547000
 40
0.698500
  0
INSERT
  5
43a
100
AcDbEntity
  8
MANUFACTURING_NCDRILL_FIGURE
100
AcDbBlockReference
  2
FIGURE_CROSS
 10
52.534000
 20
52.547000
 41
1.397000
 42
1.397000
 50
0.000000
  0
CIRCLE
  5
43c
100
AcDbEntity
  8
PIN_BOTTOM
100
AcDbCircle
 10
50.006000
 20
-70.007000
 40
0.698500
  0
INSERT
  5
43d
100
AcDbEntity
  8
MANUFACTURING_NCDRILL_FIGURE
100
AcDbBlockReference
  2
FIGURE_CROSS
 10
50.006000
 20
-70.007000
 41
1.397000
 42
1.397000
 50
0.000000
  0
CIRCLE
  5
43f
100
AcDbEntity
  8
PIN_BOTTOM
100
AcDbCircle
 10
47.466000
 20
-67.467000
 40
0.698500
  0
INSERT
  5
440
100
AcDbEntity
  8
MANUFACTURING_NCDRILL_FIGURE
100
AcDbBlockReference
  2
FIGURE_CROSS
 10
47.466000
 20
-67.467000
 41
1.397000
 42
1.397000
 50
0.000000
  0
CIRCLE
  5
442
100
AcDbEntity
  8
PIN_BOTTOM
100
AcDbCircle
 10
52.546000
 20
-67.467000
 40
0.698500
  0
INSERT
  5
443
100
AcDbEntity
  8
MANUFACTURING_NCDRILL_FIGURE
100
AcDbBlockReference
  2
FIGURE_CROSS
 10
52.546000
 20
-67.467000
 41
1.397000
 42
1.397000
 50
0.000000
  0
CIRCLE
  5
445
100
AcDbEntity
  8
PIN_BOTTOM
100
AcDbCircle
 10
52.546000
 20
-72.547000
 40
0.698500
  0
INSERT
  5
446
100
AcDbEntity
  8
MANUFACTURING_NCDRILL_FIGURE
100
AcDbBlockReference
  2
FIGURE_CROSS
 10
52.546000
 20
-72.547000
 41
1.397000
 42
1.397000
 50
0.000000
  0
CIRCLE
  5
448
100
AcDbEntity
  8
PIN_BOTTOM
100
AcDbCircle
 10
47.466000
 20
-72.547000
 40
0.698500
  0
INSERT
  5
449
100
AcDbEntity
  8
MANUFACTURING_NCDRILL_FIGURE
100
AcDbBlockReference
  2
FIGURE_CROSS
 10
47.466000
 20
-72.547000
 41
1.397000
 42
1.397000
 50
0.000000
  0
CIRCLE
  5
44b
100
AcDbEntity
  8
PIN_BOTTOM
100
AcDbCircle
 10
50.006000
 20
-50.007000
 40
0.698500
  0
INSERT
  5
44c
100
AcDbEntity
  8
MANUFACTURING_NCDRILL_FIGURE
100
AcDbBlockReference
  2
FIGURE_CROSS
 10
50.006000
 20
-50.007000
 41
1.397000
 42
1.397000
 50
0.000000
  0
CIRCLE
  5
44e
100
AcDbEntity
  8
PIN_BOTTOM
100
AcDbCircle
 10
47.466000
 20
-47.467000
 40
0.698500
  0
INSERT
  5
44f
100
AcDbEntity
  8
MANUFACTURING_NCDRILL_FIGURE
100
AcDbBlockReference
  2
FIGURE_CROSS
 10
47.466000
 20
-47.467000
 41
1.397000
 42
1.397000
 50
0.000000
  0
CIRCLE
  5
451
100
AcDbEntity
  8
PIN_BOTTOM
100
AcDbCircle
 10
52.546000
 20
-47.467000
 40
0.698500
  0
INSERT
  5
452
100
AcDbEntity
  8
MANUFACTURING_NCDRILL_FIGURE
100
AcDbBlockReference
  2
FIGURE_CROSS
 10
52.546000
 20
-47.467000
 41
1.397000
 42
1.397000
 50
0.000000
  0
CIRCLE
  5
454
100
AcDbEntity
  8
PIN_BOTTOM
100
AcDbCircle
 10
52.546000
 20
-52.547000
 40
0.698500
  0
INSERT
  5
455
100
AcDbEntity
  8
MANUFACTURING_NCDRILL_FIGURE
100
AcDbBlockReference
  2
FIGURE_CROSS
 10
52.546000
 20
-52.547000
 41
1.397000
 42
1.397000
 50
0.000000
  0
CIRCLE
  5
457
100
AcDbEntity
  8
PIN_BOTTOM
100
AcDbCircle
 10
47.466000
 20
-52.547000
 40
0.698500
  0
INSERT
  5
458
100
AcDbEntity
  8
MANUFACTURING_NCDRILL_FIGURE
100
AcDbBlockReference
  2
FIGURE_CROSS
 10
47.466000
 20
-52.547000
 41
1.397000
 42
1.397000
 50
0.000000
  0
CIRCLE
  5
45a
100
AcDbEntity
  8
PIN_BOTTOM
100
AcDbCircle
 10
70.006000
 20
-70.007000
 40
0.698500
  0
INSERT
  5
45b
100
AcDbEntity
  8
MANUFACTURING_NCDRILL_FIGURE
100
AcDbBlockReference
  2
FIGURE_CROSS
 10
70.006000
 20
-70.007000
 41
1.397000
 42
1.397000
 50
0.000000
  0
CIRCLE
  5
45d
100
AcDbEntity
  8
PIN_BOTTOM
100
AcDbCircle
 10
67.466000
 20
-67.467000
 40
0.698500
  0
INSERT
  5
45e
100
AcDbEntity
  8
MANUFACTURING_NCDRILL_FIGURE
100
AcDbBlockReference
  2
FIGURE_CROSS
 10
67.466000
 20
-67.467000
 41
1.397000
 42
1.397000
 50
0.000000
  0
CIRCLE
  5
460
100
AcDbEntity
  8
PIN_BOTTOM
100
AcDbCircle
 10
72.546000
 20
-67.467000
 40
0.698500
  0
INSERT
  5
461
100
AcDbEntity
  8
MANUFACTURING_NCDRILL_FIGURE
100
AcDbBlockReference
  2
FIGURE_CROSS
 10
72.546000
 20
-67.467000
 41
1.397000
 42
1.397000
 50
0.000000
  0
CIRCLE
  5
463
100
AcDbEntity
  8
PIN_BOTTOM
100
AcDbCircle
 10
72.546000
 20
-72.547000
 40
0.698500
  0
INSERT
  5
464
100
AcDbEntity
  8
MANUFACTURING_NCDRILL_FIGURE
100
AcDbBlockReference
  2
FIGURE_CROSS
 10
72.546000
 20
-72.547000
 41
1.397000
 42
1.397000
 50
0.000000
  0
CIRCLE
  5
466
100
AcDbEntity
  8
PIN_BOTTOM
100
AcDbCircle
 10
67.466000
 20
-72.547000
 40
0.698500
  0
INSERT
  5
467
100
AcDbEntity
  8
MANUFACTURING_NCDRILL_FIGURE
100
AcDbBlockReference
  2
FIGURE_CROSS
 10
67.466000
 20
-72.547000
 41
1.397000
 42
1.397000
 50
0.000000
  0
CIRCLE
  5
469
100
AcDbEntity
  8
PIN_BOTTOM
100
AcDbCircle
 10
70.006000
 20
-50.007000
 40
0.698500
  0
INSERT
  5
46a
100
AcDbEntity
  8
MANUFACTURING_NCDRILL_FIGURE
100
AcDbBlockReference
  2
FIGURE_CROSS
 10
70.006000
 20
-50.007000
 41
1.397000
 42
1.397000
 50
0.000000
  0
CIRCLE
  5
46c
100
AcDbEntity
  8
PIN_BOTTOM
100
AcDbCircle
 10
67.466000
 20
-47.467000
 40
0.698500
  0
INSERT
  5
46d
100
AcDbEntity
  8
MANUFACTURING_NCDRILL_FIGURE
100
AcDbBlockReference
  2
FIGURE_CROSS
 10
67.466000
 20
-47.467000
 41
1.397000
 42
1.397000
 50
0.000000
  0
CIRCLE
  5
46f
100
AcDbEntity
  8
PIN_BOTTOM
100
AcDbCircle
 10
72.546000
 20
-47.467000
 40
0.698500
  0
INSERT
  5
470
100
AcDbEntity
  8
MANUFACTURING_NCDRILL_FIGURE
100
AcDbBlockReference
  2
FIGURE_CROSS
 10
72.546000
 20
-47.467000
 41
1.397000
 42
1.397000
 50
0.000000
  0
CIRCLE
  5
472
100
AcDbEntity
  8
PIN_BOTTOM
100
AcDbCircle
 10
72.546000
 20
-52.547000
 40
0.698500
  0
INSERT
  5
473
100
AcDbEntity
  8
MANUFACTURING_NCDRILL_FIGURE
100
AcDbBlockReference
  2
FIGURE_CROSS
 10
72.546000
 20
-52.547000
 41
1.397000
 42
1.397000
 50
0.000000
  0
CIRCLE
  5
475
100
AcDbEntity
  8
PIN_BOTTOM
100
AcDbCircle
 10
67.466000
 20
-52.547000
 40
0.698500
  0
INSERT
  5
476
100
AcDbEntity
  8
MANUFACTURING_NCDRILL_FIGURE
100
AcDbBlockReference
  2
FIGURE_CROSS
 10
67.466000
 20
-52.547000
 41
1.397000
 42
1.397000
 50
0.000000
  0
CIRCLE
  5
478
100
AcDbEntity
  8
PIN_BOTTOM
100
AcDbCircle
 10
-69.994000
 20
-70.007000
 40
0.698500
  0
INSERT
  5
479
100
AcDbEntity
  8
MANUFACTURING_NCDRILL_FIGURE
100
AcDbBlockReference
  2
FIGURE_CROSS
 10
-69.994000
 20
-70.007000
 41
1.397000
 42
1.397000
 50
0.000000
  0
CIRCLE
  5
47b
100
AcDbEntity
  8
PIN_BOTTOM
100
AcDbCircle
 10
-72.534000
 20
-67.467000
 40
0.698500
  0
INSERT
  5
47c
100
AcDbEntity
  8
MANUFACTURING_NCDRILL_FIGURE
100
AcDbBlockReference
  2
FIGURE_CROSS
 10
-72.534000
 20
-67.467000
 41
1.397000
 42
1.397000
 50
0.000000
  0
CIRCLE
  5
47e
100
AcDbEntity
  8
PIN_BOTTOM
100
AcDbCircle
 10
-67.454000
 20
-67.467000
 40
0.698500
  0
INSERT
  5
47f
100
AcDbEntity
  8
MANUFACTURING_NCDRILL_FIGURE
100
AcDbBlockReference
  2
FIGURE_CROSS
 10
-67.454000
 20
-67.467000
 41
1.397000
 42
1.397000
 50
0.000000
  0
CIRCLE
  5
481
100
AcDbEntity
  8
PIN_BOTTOM
100
AcDbCircle
 10
-67.454000
 20
-72.547000
 40
0.698500
  0
INSERT
  5
482
100
AcDbEntity
  8
MANUFACTURING_NCDRILL_FIGURE
100
AcDbBlockReference
  2
FIGURE_CROSS
 10
-67.454000
 20
-72.547000
 41
1.397000
 42
1.397000
 50
0.000000
  0
CIRCLE
  5
484
100
AcDbEntity
  8
PIN_BOTTOM
100
AcDbCircle
 10
-72.534000
 20
-72.547000
 40
0.698500
  0
INSERT
  5
485
100
AcDbEntity
  8
MANUFACTURING_NCDRILL_FIGURE
100
AcDbBlockReference
  2
FIGURE_CROSS
 10
-72.534000
 20
-72.547000
 41
1.397000
 42
1.397000
 50
0.000000
  0
CIRCLE
  5
487
100
AcDbEntity
  8
PIN_BOTTOM
100
AcDbCircle
 10
-69.994000
 20
-50.007000
 40
0.698500
  0
INSERT
  5
488
100
AcDbEntity
  8
MANUFACTURING_NCDRILL_FIGURE
100
AcDbBlockReference
  2
FIGURE_CROSS
 10
-69.994000
 20
-50.007000
 41
1.397000
 42
1.397000
 50
0.000000
  0
CIRCLE
  5
48a
100
AcDbEntity
  8
PIN_BOTTOM
100
AcDbCircle
 10
-72.534000
 20
-47.467000
 40
0.698500
  0
INSERT
  5
48b
100
AcDbEntity
  8
MANUFACTURING_NCDRILL_FIGURE
100
AcDbBlockReference
  2
FIGURE_CROSS
 10
-72.534000
 20
-47.467000
 41
1.397000
 42
1.397000
 50
0.000000
  0
CIRCLE
  5
48d
100
AcDbEntity
  8
PIN_BOTTOM
100
AcDbCircle
 10
-67.454000
 20
-47.467000
 40
0.698500
  0
INSERT
  5
48e
100
AcDbEntity
  8
MANUFACTURING_NCDRILL_FIGURE
100
AcDbBlockReference
  2
FIGURE_CROSS
 10
-67.454000
 20
-47.467000
 41
1.397000
 42
1.397000
 50
0.000000
  0
CIRCLE
  5
490
100
AcDbEntity
  8
PIN_BOTTOM
100
AcDbCircle
 10
-67.454000
 20
-52.547000
 40
0.698500
  0
INSERT
  5
491
100
AcDbEntity
  8
MANUFACTURING_NCDRILL_FIGURE
100
AcDbBlockReference
  2
FIGURE_CROSS
 10
-67.454000
 20
-52.547000
 41
1.397000
 42
1.397000
 50
0.000000
  0
CIRCLE
  5
493
100
AcDbEntity
  8
PIN_BOTTOM
100
AcDbCircle
 10
-72.534000
 20
-52.547000
 40
0.698500
  0
INSERT
  5
494
100
AcDbEntity
  8
MANUFACTURING_NCDRILL_FIGURE
100
AcDbBlockReference
  2
FIGURE_CROSS
 10
-72.534000
 20
-52.547000
 41
1.397000
 42
1.397000
 50
0.000000
  0
CIRCLE
  5
496
100
AcDbEntity
  8
PIN_BOTTOM
100
AcDbCircle
 10
-49.994000
 20
-70.007000
 40
0.698500
  0
INSERT
  5
497
100
AcDbEntity
  8
MANUFACTURING_NCDRILL_FIGURE
100
AcDbBlockReference
  2
FIGURE_CROSS
 10
-49.994000
 20
-70.007000
 41
1.397000
 42
1.397000
 50
0.000000
  0
CIRCLE
  5
499
100
AcDbEntity
  8
PIN_BOTTOM
100
AcDbCircle
 10
-52.534000
 20
-67.467000
 40
0.698500
  0
INSERT
  5
49a
100
AcDbEntity
  8
MANUFACTURING_NCDRILL_FIGURE
100
AcDbBlockReference
  2
FIGURE_CROSS
 10
-52.534000
 20
-67.467000
 41
1.397000
 42
1.397000
 50
0.000000
  0
CIRCLE
  5
49c
100
AcDbEntity
  8
PIN_BOTTOM
100
AcDbCircle
 10
-47.454000
 20
-67.467000
 40
0.698500
  0
INSERT
  5
49d
100
AcDbEntity
  8
MANUFACTURING_NCDRILL_FIGURE
100
AcDbBlockReference
  2
FIGURE_CROSS
 10
-47.454000
 20
-67.467000
 41
1.397000
 42
1.397000
 50
0.000000
  0
CIRCLE
  5
49f
100
AcDbEntity
  8
PIN_BOTTOM
100
AcDbCircle
 10
-47.454000
 20
-72.547000
 40
0.698500
  0
INSERT
  5
4a0
100
AcDbEntity
  8
MANUFACTURING_NCDRILL_FIGURE
100
AcDbBlockReference
  2
FIGURE_CROSS
 10
-47.454000
 20
-72.547000
 41
1.397000
 42
1.397000
 50
0.000000
  0
CIRCLE
  5
4a2
100
AcDbEntity
  8
PIN_BOTTOM
100
AcDbCircle
 10
-52.534000
 20
-72.547000
 40
0.698500
  0
INSERT
  5
4a3
100
AcDbEntity
  8
MANUFACTURING_NCDRILL_FIGURE
100
AcDbBlockReference
  2
FIGURE_CROSS
 10
-52.534000
 20
-72.547000
 41
1.397000
 42
1.397000
 50
0.000000
  0
CIRCLE
  5
4a5
100
AcDbEntity
  8
PIN_BOTTOM
100
AcDbCircle
 10
-49.994000
 20
-50.007000
 40
0.698500
  0
INSERT
  5
4a6
100
AcDbEntity
  8
MANUFACTURING_NCDRILL_FIGURE
100
AcDbBlockReference
  2
FIGURE_CROSS
 10
-49.994000
 20
-50.007000
 41
1.397000
 42
1.397000
 50
0.000000
  0
CIRCLE
  5
4a8
100
AcDbEntity
  8
PIN_BOTTOM
100
AcDbCircle
 10
-52.534000
 20
-47.467000
 40
0.698500
  0
INSERT
  5
4a9
100
AcDbEntity
  8
MANUFACTURING_NCDRILL_FIGURE
100
AcDbBlockReference
  2
FIGURE_CROSS
 10
-52.534000
 20
-47.467000
 41
1.397000
 42
1.397000
 50
0.000000
  0
CIRCLE
  5
4ab
100
AcDbEntity
  8
PIN_BOTTOM
100
AcDbCircle
 10
-47.454000
 20
-47.467000
 40
0.698500
  0
INSERT
  5
4ac
100
AcDbEntity
  8
MANUFACTURING_NCDRILL_FIGURE
100
AcDbBlockReference
  2
FIGURE_CROSS
 10
-47.454000
 20
-47.467000
 41
1.397000
 42
1.397000
 50
0.000000
  0
CIRCLE
  5
4ae
100
AcDbEntity
  8
PIN_BOTTOM
100
AcDbCircle
 10
-47.454000
 20
-52.547000
 40
0.698500
  0
INSERT
  5
4af
100
AcDbEntity
  8
MANUFACTURING_NCDRILL_FIGURE
100
AcDbBlockReference
  2
FIGURE_CROSS
 10
-47.454000
 20
-52.547000
 41
1.397000
 42
1.397000
 50
0.000000
  0
CIRCLE
  5
4b1
100
AcDbEntity
  8
PIN_BOTTOM
100
AcDbCircle
 10
-52.534000
 20
-52.547000
 40
0.698500
  0
INSERT
  5
4b2
100
AcDbEntity
  8
MANUFACTURING_NCDRILL_FIGURE
100
AcDbBlockReference
  2
FIGURE_CROSS
 10
-52.534000
 20
-52.547000
 41
1.397000
 42
1.397000
 50
0.000000
  0
CIRCLE
  5
4b4
100
AcDbEntity
  8
PIN_BOTTOM
100
AcDbCircle
 10
30.000000
 20
-2.650000
 40
0.800100
  0
INSERT
  5
4b5
100
AcDbEntity
  8
MANUFACTURING_NCDRILL_FIGURE
100
AcDbBlockReference
  2
FIGURE_OCT
 10
30.000000
 20
-2.650000
 41
1.651000
 42
1.651000
 50
0.000000
  0
CIRCLE
  5
4b7
100
AcDbEntity
  8
PIN_BOTTOM
100
AcDbCircle
 10
-30.000000
 20
-2.650000
 40
0.800100
  0
INSERT
  5
4b8
100
AcDbEntity
  8
MANUFACTURING_NCDRILL_FIGURE
100
AcDbBlockReference
  2
FIGURE_OCT
 10
-30.000000
 20
-2.650000
 41
1.651000
 42
1.651000
 50
0.000000
  0
POLYLINE
  5
4ba
100
AcDbEntity
  8
BG_OUTLINE
100
AcDb2dPolyline
 66
1
 70
1
 40
0.000000
 41
0.000000
 39
0.000000
  0
VERTEX
  5
4bc
100
AcDbEntity
  8
BG_OUTLINE
100
AcDbVertex
100
AcDb2dVertex
 10
-90.000000
 20
-90.000000
 40
0.000000
 41
0.000000
 42
0.000000
  0
VERTEX
  5
4bd
100
AcDbEntity
  8
BG_OUTLINE
100
AcDbVertex
100
AcDb2dVertex
 10
-90.000000
 20
90.000000
 40
0.000000
 41
0.000000
 42
0.000000
  0
VERTEX
  5
4be
100
AcDbEntity
  8
BG_OUTLINE
100
AcDbVertex
100
AcDb2dVertex
 10
90.000000
 20
90.000000
 40
0.000000
 41
0.000000
 42
0.000000
  0
VERTEX
  5
4bf
100
AcDbEntity
  8
BG_OUTLINE
100
AcDbVertex
100
AcDb2dVertex
 10
90.000000
 20
-90.000000
 40
0.000000
 41
0.000000
 42
0.000000
  0
SEQEND
  5
4bb
100
AcDbEntity
  0
ENDSEC
  0
SECTION
  2
OBJECTS
  0
DICTIONARY
  5
13
100
AcDbDictionary
  3
ACAD_GROUP
350
14
  3
ACAD_MLINESTYLE
350
15
  0
DICTIONARY
  5
14
100
AcDbDictionary
  0
DICTIONARY
  5
15
100
AcDbDictionary
  0
ENDSEC
  0
EOF
