.HEADER
BOARD_FILE         3.0  allegro_16.5  2014/04/03.12:22:00  1
pc049a_lemo_db_05.brd  MM
.END_HEADER
.BOARD_OUTLINE  ECAD
    1.6284
0    -90.0000    -90.0000      -0.000
0     90.0000    -90.0000      -0.000
0     90.0000     90.0000      -0.000
0    -90.0000     90.0000      -0.000
0    -90.0000    -90.0000      -0.000
.END_BOARD_OUTLINE
.PLACE_OUTLINE  ECAD
BOTH      0.0000
0    -85.0000    -85.0000       0.000
0     85.0000    -85.0000       0.000
0     85.0000     85.0000       0.000
0    -85.0000     85.0000       0.000
0    -85.0000    -85.0000       0.000
.END_PLACE_OUTLINE
.ROUTE_KEEPOUT  ECAD
BOTTOM
1    -66.2470     33.7570       0.000
1    -66.2470     26.1370       0.000
1    -73.8670     26.1370       0.000
1    -73.8670     33.7570       0.000
1    -66.2470     33.7570       0.000
.END_ROUTE_KEEPOUT
.ROUTE_KEEPOUT  ECAD
BOTTOM
1    -46.2470     33.7570       0.000
1    -46.2470     26.1370       0.000
1    -53.8670     26.1370       0.000
1    -53.8670     33.7570       0.000
1    -46.2470     33.7570       0.000
.END_ROUTE_KEEPOUT
.ROUTE_KEEPOUT  ECAD
BOTTOM
1    -66.2470     13.7570       0.000
1    -66.2470      6.1370       0.000
1    -73.8670      6.1370       0.000
1    -73.8670     13.7570       0.000
1    -66.2470     13.7570       0.000
.END_ROUTE_KEEPOUT
.ROUTE_KEEPOUT  ECAD
BOTTOM
1    -46.2470     13.7570       0.000
1    -46.2470      6.1370       0.000
1    -53.8670      6.1370       0.000
1    -53.8670     13.7570       0.000
1    -46.2470     13.7570       0.000
.END_ROUTE_KEEPOUT
.ROUTE_KEEPOUT  ECAD
BOTTOM
1    -66.2470     -6.2430       0.000
1    -66.2470    -13.8630       0.000
1    -73.8670    -13.8630       0.000
1    -73.8670     -6.2430       0.000
1    -66.2470     -6.2430       0.000
.END_ROUTE_KEEPOUT
.ROUTE_KEEPOUT  ECAD
BOTTOM
1    -46.2470     -6.2430       0.000
1    -46.2470    -13.8630       0.000
1    -53.8670    -13.8630       0.000
1    -53.8670     -6.2430       0.000
1    -46.2470     -6.2430       0.000
.END_ROUTE_KEEPOUT
.ROUTE_KEEPOUT  ECAD
BOTTOM
1    -66.2470    -26.2430       0.000
1    -66.2470    -33.8630       0.000
1    -73.8670    -33.8630       0.000
1    -73.8670    -26.2430       0.000
1    -66.2470    -26.2430       0.000
.END_ROUTE_KEEPOUT
.ROUTE_KEEPOUT  ECAD
BOTTOM
1    -46.2470    -26.2430       0.000
1    -46.2470    -33.8630       0.000
1    -53.8670    -33.8630       0.000
1    -53.8670    -26.2430       0.000
1    -46.2470    -26.2430       0.000
.END_ROUTE_KEEPOUT
.ROUTE_KEEPOUT  ECAD
BOTTOM
1     66.2470    -33.7570       0.000
1     66.2470    -26.1370       0.000
1     73.8670    -26.1370       0.000
1     73.8670    -33.7570       0.000
1     66.2470    -33.7570       0.000
.END_ROUTE_KEEPOUT
.ROUTE_KEEPOUT  ECAD
BOTTOM
1     46.2470    -33.7570       0.000
1     46.2470    -26.1370       0.000
1     53.8670    -26.1370       0.000
1     53.8670    -33.7570       0.000
1     46.2470    -33.7570       0.000
.END_ROUTE_KEEPOUT
.ROUTE_KEEPOUT  ECAD
BOTTOM
1     66.2470    -13.7570       0.000
1     66.2470     -6.1370       0.000
1     73.8670     -6.1370       0.000
1     73.8670    -13.7570       0.000
1     66.2470    -13.7570       0.000
.END_ROUTE_KEEPOUT
.ROUTE_KEEPOUT  ECAD
BOTTOM
1     46.2470    -13.7570       0.000
1     46.2470     -6.1370       0.000
1     53.8670     -6.1370       0.000
1     53.8670    -13.7570       0.000
1     46.2470    -13.7570       0.000
.END_ROUTE_KEEPOUT
.ROUTE_KEEPOUT  ECAD
BOTTOM
1     66.2470      6.2430       0.000
1     66.2470     13.8630       0.000
1     73.8670     13.8630       0.000
1     73.8670      6.2430       0.000
1     66.2470      6.2430       0.000
.END_ROUTE_KEEPOUT
.ROUTE_KEEPOUT  ECAD
BOTTOM
1     46.2470      6.2430       0.000
1     46.2470     13.8630       0.000
1     53.8670     13.8630       0.000
1     53.8670      6.2430       0.000
1     46.2470      6.2430       0.000
.END_ROUTE_KEEPOUT
.ROUTE_KEEPOUT  ECAD
BOTTOM
1     66.2470     26.2430       0.000
1     66.2470     33.8630       0.000
1     73.8670     33.8630       0.000
1     73.8670     26.2430       0.000
1     66.2470     26.2430       0.000
.END_ROUTE_KEEPOUT
.ROUTE_KEEPOUT  ECAD
BOTTOM
1     46.2470     26.2430       0.000
1     46.2470     33.8630       0.000
1     53.8670     33.8630       0.000
1     53.8670     26.2430       0.000
1     46.2470     26.2430       0.000
.END_ROUTE_KEEPOUT
.ROUTE_KEEPOUT  ECAD
BOTTOM
1      6.2430    -36.2470       0.000
1     13.8630    -36.2470       0.000
1     13.8630    -43.8670       0.000
1      6.2430    -43.8670       0.000
1      6.2430    -36.2470       0.000
.END_ROUTE_KEEPOUT
.ROUTE_KEEPOUT  ECAD
BOTTOM
1      6.2430    -16.2470       0.000
1     13.8630    -16.2470       0.000
1     13.8630    -23.8670       0.000
1      6.2430    -23.8670       0.000
1      6.2430    -16.2470       0.000
.END_ROUTE_KEEPOUT
.ROUTE_KEEPOUT  ECAD
BOTTOM
1     26.2430    -36.2470       0.000
1     33.8630    -36.2470       0.000
1     33.8630    -43.8670       0.000
1     26.2430    -43.8670       0.000
1     26.2430    -36.2470       0.000
.END_ROUTE_KEEPOUT
.ROUTE_KEEPOUT  ECAD
BOTTOM
1     26.2430    -16.2470       0.000
1     33.8630    -16.2470       0.000
1     33.8630    -23.8670       0.000
1     26.2430    -23.8670       0.000
1     26.2430    -16.2470       0.000
.END_ROUTE_KEEPOUT
.ROUTE_KEEPOUT  ECAD
BOTTOM
1      6.2430    -76.2470       0.000
1     13.8630    -76.2470       0.000
1     13.8630    -83.8670       0.000
1      6.2430    -83.8670       0.000
1      6.2430    -76.2470       0.000
.END_ROUTE_KEEPOUT
.ROUTE_KEEPOUT  ECAD
BOTTOM
1      6.2430    -56.2470       0.000
1     13.8630    -56.2470       0.000
1     13.8630    -63.8670       0.000
1      6.2430    -63.8670       0.000
1      6.2430    -56.2470       0.000
.END_ROUTE_KEEPOUT
.ROUTE_KEEPOUT  ECAD
BOTTOM
1     26.2430    -76.2470       0.000
1     33.8630    -76.2470       0.000
1     33.8630    -83.8670       0.000
1     26.2430    -83.8670       0.000
1     26.2430    -76.2470       0.000
.END_ROUTE_KEEPOUT
.ROUTE_KEEPOUT  ECAD
BOTTOM
1     26.2430    -56.2470       0.000
1     33.8630    -56.2470       0.000
1     33.8630    -63.8670       0.000
1     26.2430    -63.8670       0.000
1     26.2430    -56.2470       0.000
.END_ROUTE_KEEPOUT
.ROUTE_KEEPOUT  ECAD
BOTTOM
1    -33.7570    -76.2470       0.000
1    -26.1370    -76.2470       0.000
1    -26.1370    -83.8670       0.000
1    -33.7570    -83.8670       0.000
1    -33.7570    -76.2470       0.000
.END_ROUTE_KEEPOUT
.ROUTE_KEEPOUT  ECAD
BOTTOM
1    -33.7570    -56.2470       0.000
1    -26.1370    -56.2470       0.000
1    -26.1370    -63.8670       0.000
1    -33.7570    -63.8670       0.000
1    -33.7570    -56.2470       0.000
.END_ROUTE_KEEPOUT
.ROUTE_KEEPOUT  ECAD
BOTTOM
1    -13.7570    -76.2470       0.000
1     -6.1370    -76.2470       0.000
1     -6.1370    -83.8670       0.000
1    -13.7570    -83.8670       0.000
1    -13.7570    -76.2470       0.000
.END_ROUTE_KEEPOUT
.ROUTE_KEEPOUT  ECAD
BOTTOM
1    -13.7570    -56.2470       0.000
1     -6.1370    -56.2470       0.000
1     -6.1370    -63.8670       0.000
1    -13.7570    -63.8670       0.000
1    -13.7570    -56.2470       0.000
.END_ROUTE_KEEPOUT
.ROUTE_KEEPOUT  ECAD
BOTTOM
1    -33.7570    -36.2470       0.000
1    -26.1370    -36.2470       0.000
1    -26.1370    -43.8670       0.000
1    -33.7570    -43.8670       0.000
1    -33.7570    -36.2470       0.000
.END_ROUTE_KEEPOUT
.ROUTE_KEEPOUT  ECAD
BOTTOM
1    -33.7570    -16.2470       0.000
1    -26.1370    -16.2470       0.000
1    -26.1370    -23.8670       0.000
1    -33.7570    -23.8670       0.000
1    -33.7570    -16.2470       0.000
.END_ROUTE_KEEPOUT
.ROUTE_KEEPOUT  ECAD
BOTTOM
1    -13.7570    -36.2470       0.000
1     -6.1370    -36.2470       0.000
1     -6.1370    -43.8670       0.000
1    -13.7570    -43.8670       0.000
1    -13.7570    -36.2470       0.000
.END_ROUTE_KEEPOUT
.ROUTE_KEEPOUT  ECAD
BOTTOM
1    -13.7570    -16.2470       0.000
1     -6.1370    -16.2470       0.000
1     -6.1370    -23.8670       0.000
1    -13.7570    -23.8670       0.000
1    -13.7570    -16.2470       0.000
.END_ROUTE_KEEPOUT
.ROUTE_KEEPOUT  ECAD
BOTTOM
1     -6.2430     36.2470       0.000
1    -13.8630     36.2470       0.000
1    -13.8630     43.8670       0.000
1     -6.2430     43.8670       0.000
1     -6.2430     36.2470       0.000
.END_ROUTE_KEEPOUT
.ROUTE_KEEPOUT  ECAD
BOTTOM
1     -6.2430     16.2470       0.000
1    -13.8630     16.2470       0.000
1    -13.8630     23.8670       0.000
1     -6.2430     23.8670       0.000
1     -6.2430     16.2470       0.000
.END_ROUTE_KEEPOUT
.ROUTE_KEEPOUT  ECAD
BOTTOM
1    -26.2430     36.2470       0.000
1    -33.8630     36.2470       0.000
1    -33.8630     43.8670       0.000
1    -26.2430     43.8670       0.000
1    -26.2430     36.2470       0.000
.END_ROUTE_KEEPOUT
.ROUTE_KEEPOUT  ECAD
BOTTOM
1    -26.2430     16.2470       0.000
1    -33.8630     16.2470       0.000
1    -33.8630     23.8670       0.000
1    -26.2430     23.8670       0.000
1    -26.2430     16.2470       0.000
.END_ROUTE_KEEPOUT
.ROUTE_KEEPOUT  ECAD
BOTTOM
1     -6.2430     76.2470       0.000
1    -13.8630     76.2470       0.000
1    -13.8630     83.8670       0.000
1     -6.2430     83.8670       0.000
1     -6.2430     76.2470       0.000
.END_ROUTE_KEEPOUT
.ROUTE_KEEPOUT  ECAD
BOTTOM
1     -6.2430     56.2470       0.000
1    -13.8630     56.2470       0.000
1    -13.8630     63.8670       0.000
1     -6.2430     63.8670       0.000
1     -6.2430     56.2470       0.000
.END_ROUTE_KEEPOUT
.ROUTE_KEEPOUT  ECAD
BOTTOM
1    -26.2430     76.2470       0.000
1    -33.8630     76.2470       0.000
1    -33.8630     83.8670       0.000
1    -26.2430     83.8670       0.000
1    -26.2430     76.2470       0.000
.END_ROUTE_KEEPOUT
.ROUTE_KEEPOUT  ECAD
BOTTOM
1    -26.2430     56.2470       0.000
1    -33.8630     56.2470       0.000
1    -33.8630     63.8670       0.000
1    -26.2430     63.8670       0.000
1    -26.2430     56.2470       0.000
.END_ROUTE_KEEPOUT
.ROUTE_KEEPOUT  ECAD
BOTTOM
1     33.7570     76.2470       0.000
1     26.1370     76.2470       0.000
1     26.1370     83.8670       0.000
1     33.7570     83.8670       0.000
1     33.7570     76.2470       0.000
.END_ROUTE_KEEPOUT
.ROUTE_KEEPOUT  ECAD
BOTTOM
1     33.7570     56.2470       0.000
1     26.1370     56.2470       0.000
1     26.1370     63.8670       0.000
1     33.7570     63.8670       0.000
1     33.7570     56.2470       0.000
.END_ROUTE_KEEPOUT
.ROUTE_KEEPOUT  ECAD
BOTTOM
1     13.7570     76.2470       0.000
1      6.1370     76.2470       0.000
1      6.1370     83.8670       0.000
1     13.7570     83.8670       0.000
1     13.7570     76.2470       0.000
.END_ROUTE_KEEPOUT
.ROUTE_KEEPOUT  ECAD
BOTTOM
1     13.7570     56.2470       0.000
1      6.1370     56.2470       0.000
1      6.1370     63.8670       0.000
1     13.7570     63.8670       0.000
1     13.7570     56.2470       0.000
.END_ROUTE_KEEPOUT
.ROUTE_KEEPOUT  ECAD
BOTTOM
1     33.7570     36.2470       0.000
1     26.1370     36.2470       0.000
1     26.1370     43.8670       0.000
1     33.7570     43.8670       0.000
1     33.7570     36.2470       0.000
.END_ROUTE_KEEPOUT
.ROUTE_KEEPOUT  ECAD
BOTTOM
1     33.7570     16.2470       0.000
1     26.1370     16.2470       0.000
1     26.1370     23.8670       0.000
1     33.7570     23.8670       0.000
1     33.7570     16.2470       0.000
.END_ROUTE_KEEPOUT
.ROUTE_KEEPOUT  ECAD
BOTTOM
1     13.7570     36.2470       0.000
1      6.1370     36.2470       0.000
1      6.1370     43.8670       0.000
1     13.7570     43.8670       0.000
1     13.7570     36.2470       0.000
.END_ROUTE_KEEPOUT
.ROUTE_KEEPOUT  ECAD
BOTTOM
1     13.7570     16.2470       0.000
1      6.1370     16.2470       0.000
1      6.1370     23.8670       0.000
1     13.7570     23.8670       0.000
1     13.7570     16.2470       0.000
.END_ROUTE_KEEPOUT
.ROUTE_KEEPOUT  ECAD
BOTTOM
1    -46.2430     66.2470       0.000
1    -53.8630     66.2470       0.000
1    -53.8630     73.8670       0.000
1    -46.2430     73.8670       0.000
1    -46.2430     66.2470       0.000
.END_ROUTE_KEEPOUT
.ROUTE_KEEPOUT  ECAD
BOTTOM
1    -46.2430     46.2470       0.000
1    -53.8630     46.2470       0.000
1    -53.8630     53.8670       0.000
1    -46.2430     53.8670       0.000
1    -46.2430     46.2470       0.000
.END_ROUTE_KEEPOUT
.ROUTE_KEEPOUT  ECAD
BOTTOM
1    -66.2430     66.2470       0.000
1    -73.8630     66.2470       0.000
1    -73.8630     73.8670       0.000
1    -66.2430     73.8670       0.000
1    -66.2430     66.2470       0.000
.END_ROUTE_KEEPOUT
.ROUTE_KEEPOUT  ECAD
BOTTOM
1    -66.2430     46.2470       0.000
1    -73.8630     46.2470       0.000
1    -73.8630     53.8670       0.000
1    -66.2430     53.8670       0.000
1    -66.2430     46.2470       0.000
.END_ROUTE_KEEPOUT
.ROUTE_KEEPOUT  ECAD
BOTTOM
1     73.7570     66.2470       0.000
1     66.1370     66.2470       0.000
1     66.1370     73.8670       0.000
1     73.7570     73.8670       0.000
1     73.7570     66.2470       0.000
.END_ROUTE_KEEPOUT
.ROUTE_KEEPOUT  ECAD
BOTTOM
1     73.7570     46.2470       0.000
1     66.1370     46.2470       0.000
1     66.1370     53.8670       0.000
1     73.7570     53.8670       0.000
1     73.7570     46.2470       0.000
.END_ROUTE_KEEPOUT
.ROUTE_KEEPOUT  ECAD
BOTTOM
1     53.7570     66.2470       0.000
1     46.1370     66.2470       0.000
1     46.1370     73.8670       0.000
1     53.7570     73.8670       0.000
1     53.7570     66.2470       0.000
.END_ROUTE_KEEPOUT
.ROUTE_KEEPOUT  ECAD
BOTTOM
1     53.7570     46.2470       0.000
1     46.1370     46.2470       0.000
1     46.1370     53.8670       0.000
1     53.7570     53.8670       0.000
1     53.7570     46.2470       0.000
.END_ROUTE_KEEPOUT
.ROUTE_KEEPOUT  ECAD
BOTTOM
1     46.2430    -66.2470       0.000
1     53.8630    -66.2470       0.000
1     53.8630    -73.8670       0.000
1     46.2430    -73.8670       0.000
1     46.2430    -66.2470       0.000
.END_ROUTE_KEEPOUT
.ROUTE_KEEPOUT  ECAD
BOTTOM
1     46.2430    -46.2470       0.000
1     53.8630    -46.2470       0.000
1     53.8630    -53.8670       0.000
1     46.2430    -53.8670       0.000
1     46.2430    -46.2470       0.000
.END_ROUTE_KEEPOUT
.ROUTE_KEEPOUT  ECAD
BOTTOM
1     66.2430    -66.2470       0.000
1     73.8630    -66.2470       0.000
1     73.8630    -73.8670       0.000
1     66.2430    -73.8670       0.000
1     66.2430    -66.2470       0.000
.END_ROUTE_KEEPOUT
.ROUTE_KEEPOUT  ECAD
BOTTOM
1     66.2430    -46.2470       0.000
1     73.8630    -46.2470       0.000
1     73.8630    -53.8670       0.000
1     66.2430    -53.8670       0.000
1     66.2430    -46.2470       0.000
.END_ROUTE_KEEPOUT
.ROUTE_KEEPOUT  ECAD
BOTTOM
1    -73.7570    -66.2470       0.000
1    -66.1370    -66.2470       0.000
1    -66.1370    -73.8670       0.000
1    -73.7570    -73.8670       0.000
1    -73.7570    -66.2470       0.000
.END_ROUTE_KEEPOUT
.ROUTE_KEEPOUT  ECAD
BOTTOM
1    -73.7570    -46.2470       0.000
1    -66.1370    -46.2470       0.000
1    -66.1370    -53.8670       0.000
1    -73.7570    -53.8670       0.000
1    -73.7570    -46.2470       0.000
.END_ROUTE_KEEPOUT
.ROUTE_KEEPOUT  ECAD
BOTTOM
1    -53.7570    -66.2470       0.000
1    -46.1370    -66.2470       0.000
1    -46.1370    -73.8670       0.000
1    -53.7570    -73.8670       0.000
1    -53.7570    -66.2470       0.000
.END_ROUTE_KEEPOUT
.ROUTE_KEEPOUT  ECAD
BOTTOM
1    -53.7570    -46.2470       0.000
1    -46.1370    -46.2470       0.000
1    -46.1370    -53.8670       0.000
1    -53.7570    -53.8670       0.000
1    -53.7570    -46.2470       0.000
.END_ROUTE_KEEPOUT
.DRILLED_HOLES
    0.3302    -63.2500     22.0039  PTH  BOARD  VIA  UNOWNED
    0.3302    -63.2500    -17.9961  PTH  BOARD  VIA  UNOWNED
    0.3302     63.2500    -22.0039  PTH  BOARD  VIA  UNOWNED
    0.3302     63.2500     17.9961  PTH  BOARD  VIA  UNOWNED
    0.3302     63.2000     22.0068  PTH  BOARD  VIA  UNOWNED
    0.3302     63.2000    -17.9932  PTH  BOARD  VIA  UNOWNED
    0.3302    -63.2000    -22.0068  PTH  BOARD  VIA  UNOWNED
    0.3302    -63.2000     17.9932  PTH  BOARD  VIA  UNOWNED
    0.3302     17.9961    -33.2500  PTH  BOARD  VIA  UNOWNED
    0.3302     17.9961    -73.2500  PTH  BOARD  VIA  UNOWNED
    0.3302    -22.0039    -73.2500  PTH  BOARD  VIA  UNOWNED
    0.3302    -22.0039    -33.2500  PTH  BOARD  VIA  UNOWNED
    0.3302    -17.9961     33.2500  PTH  BOARD  VIA  UNOWNED
    0.3302    -17.9961     73.2500  PTH  BOARD  VIA  UNOWNED
    0.3302     22.0039     73.2500  PTH  BOARD  VIA  UNOWNED
    0.3302     22.0039     33.2500  PTH  BOARD  VIA  UNOWNED
    0.3302    -57.9961     63.2500  PTH  BOARD  VIA  UNOWNED
    0.3302     62.0039     63.2500  PTH  BOARD  VIA  UNOWNED
    0.3302     57.9961    -63.2500  PTH  BOARD  VIA  UNOWNED
    0.3302    -62.0039    -63.2500  PTH  BOARD  VIA  UNOWNED
    0.3302     57.9932     63.2000  PTH  BOARD  VIA  UNOWNED
    0.3302     62.0068    -63.2000  PTH  BOARD  VIA  UNOWNED
    0.3302     22.0068    -33.2000  PTH  BOARD  VIA  UNOWNED
    0.3302     17.9932     73.2000  PTH  BOARD  VIA  UNOWNED
    0.3302     17.9932     33.2000  PTH  BOARD  VIA  UNOWNED
    0.3302    -22.0068     73.2000  PTH  BOARD  VIA  UNOWNED
    0.3302    -22.0068     33.2000  PTH  BOARD  VIA  UNOWNED
    0.3302    -62.0068     63.2000  PTH  BOARD  VIA  UNOWNED
    0.3302    -57.9932    -63.2000  PTH  BOARD  VIA  UNOWNED
    0.3302     22.0068    -73.2000  PTH  BOARD  VIA  UNOWNED
    0.3302    -17.9932    -33.2000  PTH  BOARD  VIA  UNOWNED
    0.3302    -17.9932    -73.2000  PTH  BOARD  VIA  UNOWNED
    4.2400     37.0000      0.0000  NPTH  U?  PIN  UNOWNED
    4.2400    -37.0000      0.0000  NPTH  U?  PIN  UNOWNED
    3.5560      0.0000    -70.0000  PTH  U?  PIN  UNOWNED
    3.5560      0.0000     70.0000  PTH  U?  PIN  UNOWNED
    3.5560    -60.0000    -40.0000  PTH  U?  PIN  UNOWNED
    3.5560     60.0000    -40.0000  PTH  U?  PIN  UNOWNED
    3.5560     60.0000     40.0000  PTH  U?  PIN  UNOWNED
    3.5560    -60.0000     40.0000  PTH  U?  PIN  UNOWNED
    3.5560    -80.0000    -80.0000  PTH  U?  PIN  UNOWNED
    3.5560     80.0000    -80.0000  PTH  U?  PIN  UNOWNED
    3.5560     80.0000     80.0000  PTH  U?  PIN  UNOWNED
    3.5560    -80.0000     80.0000  PTH  U?  PIN  UNOWNED
    0.8128    -70.0070     29.9940  PTH  PX3_15  PIN  UNOWNED
    0.8128    -67.4670     32.5340  PTH  PX3_15  PIN  UNOWNED
    0.8128    -67.4670     27.4540  PTH  PX3_15  PIN  UNOWNED
    0.8128    -72.5470     27.4540  PTH  PX3_15  PIN  UNOWNED
    0.8128    -72.5470     32.5340  PTH  PX3_15  PIN  UNOWNED
    0.8128    -50.0070     29.9940  PTH  PX4_15  PIN  UNOWNED
    0.8128    -47.4670     32.5340  PTH  PX4_15  PIN  UNOWNED
    0.8128    -47.4670     27.4540  PTH  PX4_15  PIN  UNOWNED
    0.8128    -52.5470     27.4540  PTH  PX4_15  PIN  UNOWNED
    0.8128    -52.5470     32.5340  PTH  PX4_15  PIN  UNOWNED
    0.8128    -70.0070      9.9940  PTH  PX2_15  PIN  UNOWNED
    0.8128    -67.4670     12.5340  PTH  PX2_15  PIN  UNOWNED
    0.8128    -67.4670      7.4540  PTH  PX2_15  PIN  UNOWNED
    0.8128    -72.5470      7.4540  PTH  PX2_15  PIN  UNOWNED
    0.8128    -72.5470     12.5340  PTH  PX2_15  PIN  UNOWNED
    0.8128    -50.0070      9.9940  PTH  PX1_15  PIN  UNOWNED
    0.8128    -47.4670     12.5340  PTH  PX1_15  PIN  UNOWNED
    0.8128    -47.4670      7.4540  PTH  PX1_15  PIN  UNOWNED
    0.8128    -52.5470      7.4540  PTH  PX1_15  PIN  UNOWNED
    0.8128    -52.5470     12.5340  PTH  PX1_15  PIN  UNOWNED
    0.8128    -70.0070    -10.0060  PTH  PX3_1  PIN  UNOWNED
    0.8128    -67.4670     -7.4660  PTH  PX3_1  PIN  UNOWNED
    0.8128    -67.4670    -12.5460  PTH  PX3_1  PIN  UNOWNED
    0.8128    -72.5470    -12.5460  PTH  PX3_1  PIN  UNOWNED
    0.8128    -72.5470     -7.4660  PTH  PX3_1  PIN  UNOWNED
    0.8128    -50.0070    -10.0060  PTH  PX4_1  PIN  UNOWNED
    0.8128    -47.4670     -7.4660  PTH  PX4_1  PIN  UNOWNED
    0.8128    -47.4670    -12.5460  PTH  PX4_1  PIN  UNOWNED
    0.8128    -52.5470    -12.5460  PTH  PX4_1  PIN  UNOWNED
    0.8128    -52.5470     -7.4660  PTH  PX4_1  PIN  UNOWNED
    0.8128    -70.0070    -30.0060  PTH  PX2_1  PIN  UNOWNED
    0.8128    -67.4670    -27.4660  PTH  PX2_1  PIN  UNOWNED
    0.8128    -67.4670    -32.5460  PTH  PX2_1  PIN  UNOWNED
    0.8128    -72.5470    -32.5460  PTH  PX2_1  PIN  UNOWNED
    0.8128    -72.5470    -27.4660  PTH  PX2_1  PIN  UNOWNED
    0.8128    -50.0070    -30.0060  PTH  PX1_1  PIN  UNOWNED
    0.8128    -47.4670    -27.4660  PTH  PX1_1  PIN  UNOWNED
    0.8128    -47.4670    -32.5460  PTH  PX1_1  PIN  UNOWNED
    0.8128    -52.5470    -32.5460  PTH  PX1_1  PIN  UNOWNED
    0.8128    -52.5470    -27.4660  PTH  PX1_1  PIN  UNOWNED
    0.8128     70.0070    -29.9940  PTH  PX3_7  PIN  UNOWNED
    0.8128     67.4670    -32.5340  PTH  PX3_7  PIN  UNOWNED
    0.8128     67.4670    -27.4540  PTH  PX3_7  PIN  UNOWNED
    0.8128     72.5470    -27.4540  PTH  PX3_7  PIN  UNOWNED
    0.8128     72.5470    -32.5340  PTH  PX3_7  PIN  UNOWNED
    0.8128     50.0070    -29.9940  PTH  PX4_7  PIN  UNOWNED
    0.8128     47.4670    -32.5340  PTH  PX4_7  PIN  UNOWNED
    0.8128     47.4670    -27.4540  PTH  PX4_7  PIN  UNOWNED
    0.8128     52.5470    -27.4540  PTH  PX4_7  PIN  UNOWNED
    0.8128     52.5470    -32.5340  PTH  PX4_7  PIN  UNOWNED
    0.8128     70.0070     -9.9940  PTH  PX2_7  PIN  UNOWNED
    0.8128     67.4670    -12.5340  PTH  PX2_7  PIN  UNOWNED
    0.8128     67.4670     -7.4540  PTH  PX2_7  PIN  UNOWNED
    0.8128     72.5470     -7.4540  PTH  PX2_7  PIN  UNOWNED
    0.8128     72.5470    -12.5340  PTH  PX2_7  PIN  UNOWNED
    0.8128     50.0070     -9.9940  PTH  PX1_7  PIN  UNOWNED
    0.8128     47.4670    -12.5340  PTH  PX1_7  PIN  UNOWNED
    0.8128     47.4670     -7.4540  PTH  PX1_7  PIN  UNOWNED
    0.8128     52.5470     -7.4540  PTH  PX1_7  PIN  UNOWNED
    0.8128     52.5470    -12.5340  PTH  PX1_7  PIN  UNOWNED
    0.8128     70.0070     10.0060  PTH  PX3_9  PIN  UNOWNED
    0.8128     67.4670      7.4660  PTH  PX3_9  PIN  UNOWNED
    0.8128     67.4670     12.5460  PTH  PX3_9  PIN  UNOWNED
    0.8128     72.5470     12.5460  PTH  PX3_9  PIN  UNOWNED
    0.8128     72.5470      7.4660  PTH  PX3_9  PIN  UNOWNED
    0.8128     50.0070     10.0060  PTH  PX4_9  PIN  UNOWNED
    0.8128     47.4670      7.4660  PTH  PX4_9  PIN  UNOWNED
    0.8128     47.4670     12.5460  PTH  PX4_9  PIN  UNOWNED
    0.8128     52.5470     12.5460  PTH  PX4_9  PIN  UNOWNED
    0.8128     52.5470      7.4660  PTH  PX4_9  PIN  UNOWNED
    0.8128     70.0070     30.0060  PTH  PX2_9  PIN  UNOWNED
    0.8128     67.4670     27.4660  PTH  PX2_9  PIN  UNOWNED
    0.8128     67.4670     32.5460  PTH  PX2_9  PIN  UNOWNED
    0.8128     72.5470     32.5460  PTH  PX2_9  PIN  UNOWNED
    0.8128     72.5470     27.4660  PTH  PX2_9  PIN  UNOWNED
    0.8128     50.0070     30.0060  PTH  PX1_9  PIN  UNOWNED
    0.8128     47.4670     27.4660  PTH  PX1_9  PIN  UNOWNED
    0.8128     47.4670     32.5460  PTH  PX1_9  PIN  UNOWNED
    0.8128     52.5470     32.5460  PTH  PX1_9  PIN  UNOWNED
    0.8128     52.5470     27.4660  PTH  PX1_9  PIN  UNOWNED
    0.8128     10.0060    -40.0070  PTH  PX3_6  PIN  UNOWNED
    0.8128      7.4660    -37.4670  PTH  PX3_6  PIN  UNOWNED
    0.8128     12.5460    -37.4670  PTH  PX3_6  PIN  UNOWNED
    0.8128     12.5460    -42.5470  PTH  PX3_6  PIN  UNOWNED
    0.8128      7.4660    -42.5470  PTH  PX3_6  PIN  UNOWNED
    0.8128     10.0060    -20.0070  PTH  PX4_6  PIN  UNOWNED
    0.8128      7.4660    -17.4670  PTH  PX4_6  PIN  UNOWNED
    0.8128     12.5460    -17.4670  PTH  PX4_6  PIN  UNOWNED
    0.8128     12.5460    -22.5470  PTH  PX4_6  PIN  UNOWNED
    0.8128      7.4660    -22.5470  PTH  PX4_6  PIN  UNOWNED
    0.8128     30.0060    -40.0070  PTH  PX2_6  PIN  UNOWNED
    0.8128     27.4660    -37.4670  PTH  PX2_6  PIN  UNOWNED
    0.8128     32.5460    -37.4670  PTH  PX2_6  PIN  UNOWNED
    0.8128     32.5460    -42.5470  PTH  PX2_6  PIN  UNOWNED
    0.8128     27.4660    -42.5470  PTH  PX2_6  PIN  UNOWNED
    0.8128     30.0060    -20.0070  PTH  PX1_6  PIN  UNOWNED
    0.8128     27.4660    -17.4670  PTH  PX1_6  PIN  UNOWNED
    0.8128     32.5460    -17.4670  PTH  PX1_6  PIN  UNOWNED
    0.8128     32.5460    -22.5470  PTH  PX1_6  PIN  UNOWNED
    0.8128     27.4660    -22.5470  PTH  PX1_6  PIN  UNOWNED
    0.8128     10.0060    -80.0070  PTH  PX3_5  PIN  UNOWNED
    0.8128      7.4660    -77.4670  PTH  PX3_5  PIN  UNOWNED
    0.8128     12.5460    -77.4670  PTH  PX3_5  PIN  UNOWNED
    0.8128     12.5460    -82.5470  PTH  PX3_5  PIN  UNOWNED
    0.8128      7.4660    -82.5470  PTH  PX3_5  PIN  UNOWNED
    0.8128     10.0060    -60.0070  PTH  PX4_5  PIN  UNOWNED
    0.8128      7.4660    -57.4670  PTH  PX4_5  PIN  UNOWNED
    0.8128     12.5460    -57.4670  PTH  PX4_5  PIN  UNOWNED
    0.8128     12.5460    -62.5470  PTH  PX4_5  PIN  UNOWNED
    0.8128      7.4660    -62.5470  PTH  PX4_5  PIN  UNOWNED
    0.8128     30.0060    -80.0070  PTH  PX2_5  PIN  UNOWNED
    0.8128     27.4660    -77.4670  PTH  PX2_5  PIN  UNOWNED
    0.8128     32.5460    -77.4670  PTH  PX2_5  PIN  UNOWNED
    0.8128     32.5460    -82.5470  PTH  PX2_5  PIN  UNOWNED
    0.8128     27.4660    -82.5470  PTH  PX2_5  PIN  UNOWNED
    0.8128     30.0060    -60.0070  PTH  PX1_5  PIN  UNOWNED
    0.8128     27.4660    -57.4670  PTH  PX1_5  PIN  UNOWNED
    0.8128     32.5460    -57.4670  PTH  PX1_5  PIN  UNOWNED
    0.8128     32.5460    -62.5470  PTH  PX1_5  PIN  UNOWNED
    0.8128     27.4660    -62.5470  PTH  PX1_5  PIN  UNOWNED
    0.8128    -29.9940    -80.0070  PTH  PX3_4  PIN  UNOWNED
    0.8128    -32.5340    -77.4670  PTH  PX3_4  PIN  UNOWNED
    0.8128    -27.4540    -77.4670  PTH  PX3_4  PIN  UNOWNED
    0.8128    -27.4540    -82.5470  PTH  PX3_4  PIN  UNOWNED
    0.8128    -32.5340    -82.5470  PTH  PX3_4  PIN  UNOWNED
    0.8128    -29.9940    -60.0070  PTH  PX4_4  PIN  UNOWNED
    0.8128    -32.5340    -57.4670  PTH  PX4_4  PIN  UNOWNED
    0.8128    -27.4540    -57.4670  PTH  PX4_4  PIN  UNOWNED
    0.8128    -27.4540    -62.5470  PTH  PX4_4  PIN  UNOWNED
    0.8128    -32.5340    -62.5470  PTH  PX4_4  PIN  UNOWNED
    0.8128     -9.9940    -80.0070  PTH  PX2_4  PIN  UNOWNED
    0.8128    -12.5340    -77.4670  PTH  PX2_4  PIN  UNOWNED
    0.8128     -7.4540    -77.4670  PTH  PX2_4  PIN  UNOWNED
    0.8128     -7.4540    -82.5470  PTH  PX2_4  PIN  UNOWNED
    0.8128    -12.5340    -82.5470  PTH  PX2_4  PIN  UNOWNED
    0.8128     -9.9940    -60.0070  PTH  PX1_4  PIN  UNOWNED
    0.8128    -12.5340    -57.4670  PTH  PX1_4  PIN  UNOWNED
    0.8128     -7.4540    -57.4670  PTH  PX1_4  PIN  UNOWNED
    0.8128     -7.4540    -62.5470  PTH  PX1_4  PIN  UNOWNED
    0.8128    -12.5340    -62.5470  PTH  PX1_4  PIN  UNOWNED
    0.8128    -29.9940    -40.0070  PTH  PX3_3  PIN  UNOWNED
    0.8128    -32.5340    -37.4670  PTH  PX3_3  PIN  UNOWNED
    0.8128    -27.4540    -37.4670  PTH  PX3_3  PIN  UNOWNED
    0.8128    -27.4540    -42.5470  PTH  PX3_3  PIN  UNOWNED
    0.8128    -32.5340    -42.5470  PTH  PX3_3  PIN  UNOWNED
    0.8128    -29.9940    -20.0070  PTH  PX4_3  PIN  UNOWNED
    0.8128    -32.5340    -17.4670  PTH  PX4_3  PIN  UNOWNED
    0.8128    -27.4540    -17.4670  PTH  PX4_3  PIN  UNOWNED
    0.8128    -27.4540    -22.5470  PTH  PX4_3  PIN  UNOWNED
    0.8128    -32.5340    -22.5470  PTH  PX4_3  PIN  UNOWNED
    0.8128     -9.9940    -40.0070  PTH  PX2_3  PIN  UNOWNED
    0.8128    -12.5340    -37.4670  PTH  PX2_3  PIN  UNOWNED
    0.8128     -7.4540    -37.4670  PTH  PX2_3  PIN  UNOWNED
    0.8128     -7.4540    -42.5470  PTH  PX2_3  PIN  UNOWNED
    0.8128    -12.5340    -42.5470  PTH  PX2_3  PIN  UNOWNED
    0.8128     -9.9940    -20.0070  PTH  PX1_3  PIN  UNOWNED
    0.8128    -12.5340    -17.4670  PTH  PX1_3  PIN  UNOWNED
    0.8128     -7.4540    -17.4670  PTH  PX1_3  PIN  UNOWNED
    0.8128     -7.4540    -22.5470  PTH  PX1_3  PIN  UNOWNED
    0.8128    -12.5340    -22.5470  PTH  PX1_3  PIN  UNOWNED
    0.8128    -10.0060     40.0070  PTH  PX3_14  PIN  UNOWNED
    0.8128     -7.4660     37.4670  PTH  PX3_14  PIN  UNOWNED
    0.8128    -12.5460     37.4670  PTH  PX3_14  PIN  UNOWNED
    0.8128    -12.5460     42.5470  PTH  PX3_14  PIN  UNOWNED
    0.8128     -7.4660     42.5470  PTH  PX3_14  PIN  UNOWNED
    0.8128    -10.0060     20.0070  PTH  PX4_14  PIN  UNOWNED
    0.8128     -7.4660     17.4670  PTH  PX4_14  PIN  UNOWNED
    0.8128    -12.5460     17.4670  PTH  PX4_14  PIN  UNOWNED
    0.8128    -12.5460     22.5470  PTH  PX4_14  PIN  UNOWNED
    0.8128     -7.4660     22.5470  PTH  PX4_14  PIN  UNOWNED
    0.8128    -30.0060     40.0070  PTH  PX2_14  PIN  UNOWNED
    0.8128    -27.4660     37.4670  PTH  PX2_14  PIN  UNOWNED
    0.8128    -32.5460     37.4670  PTH  PX2_14  PIN  UNOWNED
    0.8128    -32.5460     42.5470  PTH  PX2_14  PIN  UNOWNED
    0.8128    -27.4660     42.5470  PTH  PX2_14  PIN  UNOWNED
    0.8128    -30.0060     20.0070  PTH  PX1_14  PIN  UNOWNED
    0.8128    -27.4660     17.4670  PTH  PX1_14  PIN  UNOWNED
    0.8128    -32.5460     17.4670  PTH  PX1_14  PIN  UNOWNED
    0.8128    -32.5460     22.5470  PTH  PX1_14  PIN  UNOWNED
    0.8128    -27.4660     22.5470  PTH  PX1_14  PIN  UNOWNED
    0.8128    -10.0060     80.0070  PTH  PX3_13  PIN  UNOWNED
    0.8128     -7.4660     77.4670  PTH  PX3_13  PIN  UNOWNED
    0.8128    -12.5460     77.4670  PTH  PX3_13  PIN  UNOWNED
    0.8128    -12.5460     82.5470  PTH  PX3_13  PIN  UNOWNED
    0.8128     -7.4660     82.5470  PTH  PX3_13  PIN  UNOWNED
    0.8128    -10.0060     60.0070  PTH  PX4_13  PIN  UNOWNED
    0.8128     -7.4660     57.4670  PTH  PX4_13  PIN  UNOWNED
    0.8128    -12.5460     57.4670  PTH  PX4_13  PIN  UNOWNED
    0.8128    -12.5460     62.5470  PTH  PX4_13  PIN  UNOWNED
    0.8128     -7.4660     62.5470  PTH  PX4_13  PIN  UNOWNED
    0.8128    -30.0060     80.0070  PTH  PX2_13  PIN  UNOWNED
    0.8128    -27.4660     77.4670  PTH  PX2_13  PIN  UNOWNED
    0.8128    -32.5460     77.4670  PTH  PX2_13  PIN  UNOWNED
    0.8128    -32.5460     82.5470  PTH  PX2_13  PIN  UNOWNED
    0.8128    -27.4660     82.5470  PTH  PX2_13  PIN  UNOWNED
    0.8128    -30.0060     60.0070  PTH  PX1_13  PIN  UNOWNED
    0.8128    -27.4660     57.4670  PTH  PX1_13  PIN  UNOWNED
    0.8128    -32.5460     57.4670  PTH  PX1_13  PIN  UNOWNED
    0.8128    -32.5460     62.5470  PTH  PX1_13  PIN  UNOWNED
    0.8128    -27.4660     62.5470  PTH  PX1_13  PIN  UNOWNED
    0.8128     29.9940     80.0070  PTH  PX3_11  PIN  UNOWNED
    0.8128     32.5340     77.4670  PTH  PX3_11  PIN  UNOWNED
    0.8128     27.4540     77.4670  PTH  PX3_11  PIN  UNOWNED
    0.8128     27.4540     82.5470  PTH  PX3_11  PIN  UNOWNED
    0.8128     32.5340     82.5470  PTH  PX3_11  PIN  UNOWNED
    0.8128     29.9940     60.0070  PTH  PX4_11  PIN  UNOWNED
    0.8128     32.5340     57.4670  PTH  PX4_11  PIN  UNOWNED
    0.8128     27.4540     57.4670  PTH  PX4_11  PIN  UNOWNED
    0.8128     27.4540     62.5470  PTH  PX4_11  PIN  UNOWNED
    0.8128     32.5340     62.5470  PTH  PX4_11  PIN  UNOWNED
    0.8128      9.9940     80.0070  PTH  PX2_11  PIN  UNOWNED
    0.8128     12.5340     77.4670  PTH  PX2_11  PIN  UNOWNED
    0.8128      7.4540     77.4670  PTH  PX2_11  PIN  UNOWNED
    0.8128      7.4540     82.5470  PTH  PX2_11  PIN  UNOWNED
    0.8128     12.5340     82.5470  PTH  PX2_11  PIN  UNOWNED
    0.8128      9.9940     60.0070  PTH  PX1_11  PIN  UNOWNED
    0.8128     12.5340     57.4670  PTH  PX1_11  PIN  UNOWNED
    0.8128      7.4540     57.4670  PTH  PX1_11  PIN  UNOWNED
    0.8128      7.4540     62.5470  PTH  PX1_11  PIN  UNOWNED
    0.8128     12.5340     62.5470  PTH  PX1_11  PIN  UNOWNED
    0.8128     29.9940     40.0070  PTH  PX3_12  PIN  UNOWNED
    0.8128     32.5340     37.4670  PTH  PX3_12  PIN  UNOWNED
    0.8128     27.4540     37.4670  PTH  PX3_12  PIN  UNOWNED
    0.8128     27.4540     42.5470  PTH  PX3_12  PIN  UNOWNED
    0.8128     32.5340     42.5470  PTH  PX3_12  PIN  UNOWNED
    0.8128     29.9940     20.0070  PTH  PX4_12  PIN  UNOWNED
    0.8128     32.5340     17.4670  PTH  PX4_12  PIN  UNOWNED
    0.8128     27.4540     17.4670  PTH  PX4_12  PIN  UNOWNED
    0.8128     27.4540     22.5470  PTH  PX4_12  PIN  UNOWNED
    0.8128     32.5340     22.5470  PTH  PX4_12  PIN  UNOWNED
    0.8128      9.9940     40.0070  PTH  PX2_12  PIN  UNOWNED
    0.8128     12.5340     37.4670  PTH  PX2_12  PIN  UNOWNED
    0.8128      7.4540     37.4670  PTH  PX2_12  PIN  UNOWNED
    0.8128      7.4540     42.5470  PTH  PX2_12  PIN  UNOWNED
    0.8128     12.5340     42.5470  PTH  PX2_12  PIN  UNOWNED
    0.8128      9.9940     20.0070  PTH  PX1_12  PIN  UNOWNED
    0.8128     12.5340     17.4670  PTH  PX1_12  PIN  UNOWNED
    0.8128      7.4540     17.4670  PTH  PX1_12  PIN  UNOWNED
    0.8128      7.4540     22.5470  PTH  PX1_12  PIN  UNOWNED
    0.8128     12.5340     22.5470  PTH  PX1_12  PIN  UNOWNED
    0.8128    -50.0060     70.0070  PTH  PX3_16  PIN  UNOWNED
    0.8128    -47.4660     67.4670  PTH  PX3_16  PIN  UNOWNED
    0.8128    -52.5460     67.4670  PTH  PX3_16  PIN  UNOWNED
    0.8128    -52.5460     72.5470  PTH  PX3_16  PIN  UNOWNED
    0.8128    -47.4660     72.5470  PTH  PX3_16  PIN  UNOWNED
    0.8128    -50.0060     50.0070  PTH  PX4_16  PIN  UNOWNED
    0.8128    -47.4660     47.4670  PTH  PX4_16  PIN  UNOWNED
    0.8128    -52.5460     47.4670  PTH  PX4_16  PIN  UNOWNED
    0.8128    -52.5460     52.5470  PTH  PX4_16  PIN  UNOWNED
    0.8128    -47.4660     52.5470  PTH  PX4_16  PIN  UNOWNED
    0.8128    -70.0060     70.0070  PTH  PX2_16  PIN  UNOWNED
    0.8128    -67.4660     67.4670  PTH  PX2_16  PIN  UNOWNED
    0.8128    -72.5460     67.4670  PTH  PX2_16  PIN  UNOWNED
    0.8128    -72.5460     72.5470  PTH  PX2_16  PIN  UNOWNED
    0.8128    -67.4660     72.5470  PTH  PX2_16  PIN  UNOWNED
    0.8128    -70.0060     50.0070  PTH  PX1_16  PIN  UNOWNED
    0.8128    -67.4660     47.4670  PTH  PX1_16  PIN  UNOWNED
    0.8128    -72.5460     47.4670  PTH  PX1_16  PIN  UNOWNED
    0.8128    -72.5460     52.5470  PTH  PX1_16  PIN  UNOWNED
    0.8128    -67.4660     52.5470  PTH  PX1_16  PIN  UNOWNED
    0.8128     69.9940     70.0070  PTH  PX3_10  PIN  UNOWNED
    0.8128     72.5340     67.4670  PTH  PX3_10  PIN  UNOWNED
    0.8128     67.4540     67.4670  PTH  PX3_10  PIN  UNOWNED
    0.8128     67.4540     72.5470  PTH  PX3_10  PIN  UNOWNED
    0.8128     72.5340     72.5470  PTH  PX3_10  PIN  UNOWNED
    0.8128     69.9940     50.0070  PTH  PX4_10  PIN  UNOWNED
    0.8128     72.5340     47.4670  PTH  PX4_10  PIN  UNOWNED
    0.8128     67.4540     47.4670  PTH  PX4_10  PIN  UNOWNED
    0.8128     67.4540     52.5470  PTH  PX4_10  PIN  UNOWNED
    0.8128     72.5340     52.5470  PTH  PX4_10  PIN  UNOWNED
    0.8128     49.9940     70.0070  PTH  PX2_10  PIN  UNOWNED
    0.8128     52.5340     67.4670  PTH  PX2_10  PIN  UNOWNED
    0.8128     47.4540     67.4670  PTH  PX2_10  PIN  UNOWNED
    0.8128     47.4540     72.5470  PTH  PX2_10  PIN  UNOWNED
    0.8128     52.5340     72.5470  PTH  PX2_10  PIN  UNOWNED
    0.8128     49.9940     50.0070  PTH  PX1_10  PIN  UNOWNED
    0.8128     52.5340     47.4670  PTH  PX1_10  PIN  UNOWNED
    0.8128     47.4540     47.4670  PTH  PX1_10  PIN  UNOWNED
    0.8128     47.4540     52.5470  PTH  PX1_10  PIN  UNOWNED
    0.8128     52.5340     52.5470  PTH  PX1_10  PIN  UNOWNED
    0.8128     50.0060    -70.0070  PTH  PX3_8  PIN  UNOWNED
    0.8128     47.4660    -67.4670  PTH  PX3_8  PIN  UNOWNED
    0.8128     52.5460    -67.4670  PTH  PX3_8  PIN  UNOWNED
    0.8128     52.5460    -72.5470  PTH  PX3_8  PIN  UNOWNED
    0.8128     47.4660    -72.5470  PTH  PX3_8  PIN  UNOWNED
    0.8128     50.0060    -50.0070  PTH  PX4_8  PIN  UNOWNED
    0.8128     47.4660    -47.4670  PTH  PX4_8  PIN  UNOWNED
    0.8128     52.5460    -47.4670  PTH  PX4_8  PIN  UNOWNED
    0.8128     52.5460    -52.5470  PTH  PX4_8  PIN  UNOWNED
    0.8128     47.4660    -52.5470  PTH  PX4_8  PIN  UNOWNED
    0.8128     70.0060    -70.0070  PTH  PX2_8  PIN  UNOWNED
    0.8128     67.4660    -67.4670  PTH  PX2_8  PIN  UNOWNED
    0.8128     72.5460    -67.4670  PTH  PX2_8  PIN  UNOWNED
    0.8128     72.5460    -72.5470  PTH  PX2_8  PIN  UNOWNED
    0.8128     67.4660    -72.5470  PTH  PX2_8  PIN  UNOWNED
    0.8128     70.0060    -50.0070  PTH  PX1_8  PIN  UNOWNED
    0.8128     67.4660    -47.4670  PTH  PX1_8  PIN  UNOWNED
    0.8128     72.5460    -47.4670  PTH  PX1_8  PIN  UNOWNED
    0.8128     72.5460    -52.5470  PTH  PX1_8  PIN  UNOWNED
    0.8128     67.4660    -52.5470  PTH  PX1_8  PIN  UNOWNED
    0.8128    -69.9940    -70.0070  PTH  PX3_2  PIN  UNOWNED
    0.8128    -72.5340    -67.4670  PTH  PX3_2  PIN  UNOWNED
    0.8128    -67.4540    -67.4670  PTH  PX3_2  PIN  UNOWNED
    0.8128    -67.4540    -72.5470  PTH  PX3_2  PIN  UNOWNED
    0.8128    -72.5340    -72.5470  PTH  PX3_2  PIN  UNOWNED
    0.8128    -69.9940    -50.0070  PTH  PX4_2  PIN  UNOWNED
    0.8128    -72.5340    -47.4670  PTH  PX4_2  PIN  UNOWNED
    0.8128    -67.4540    -47.4670  PTH  PX4_2  PIN  UNOWNED
    0.8128    -67.4540    -52.5470  PTH  PX4_2  PIN  UNOWNED
    0.8128    -72.5340    -52.5470  PTH  PX4_2  PIN  UNOWNED
    0.8128    -49.9940    -70.0070  PTH  PX2_2  PIN  UNOWNED
    0.8128    -52.5340    -67.4670  PTH  PX2_2  PIN  UNOWNED
    0.8128    -47.4540    -67.4670  PTH  PX2_2  PIN  UNOWNED
    0.8128    -47.4540    -72.5470  PTH  PX2_2  PIN  UNOWNED
    0.8128    -52.5340    -72.5470  PTH  PX2_2  PIN  UNOWNED
    0.8128    -49.9940    -50.0070  PTH  PX1_2  PIN  UNOWNED
    0.8128    -52.5340    -47.4670  PTH  PX1_2  PIN  UNOWNED
    0.8128    -47.4540    -47.4670  PTH  PX1_2  PIN  UNOWNED
    0.8128    -47.4540    -52.5470  PTH  PX1_2  PIN  UNOWNED
    0.8128    -52.5340    -52.5470  PTH  PX1_2  PIN  UNOWNED
    1.0160     30.0000     -2.6500  PTH  J1  PIN  UNOWNED
    1.0160    -30.0000     -2.6500  PTH  J1  PIN  UNOWNED
.END_DRILLED_HOLES
.PLACEMENT
1-HOLE_4-2N  DEVICE?  U?
   37.0000      0.0000      0.0000       0.000  TOP  PLACED
1-HOLE_4-2N  DEVICE?  U?
  -37.0000      0.0000      0.0000       0.000  TOP  PLACED
1-HOLE_3-5P  DEVICE?  U?
    0.0000    -70.0000      0.0000       0.000  TOP  PLACED
1-HOLE_3-5P  DEVICE?  U?
    0.0000     70.0000      0.0000       0.000  TOP  PLACED
1-HOLE_3-5P  DEVICE?  U?
  -60.0000    -40.0000      0.0000       0.000  TOP  PLACED
1-HOLE_3-5P  DEVICE?  U?
   60.0000    -40.0000      0.0000       0.000  TOP  PLACED
1-HOLE_3-5P  DEVICE?  U?
   60.0000     40.0000      0.0000       0.000  TOP  PLACED
1-HOLE_3-5P  DEVICE?  U?
  -60.0000     40.0000      0.0000       0.000  TOP  PLACED
1-HOLE_3-5P  DEVICE?  U?
  -80.0000    -80.0000      0.0000       0.000  TOP  PLACED
1-HOLE_3-5P  DEVICE?  U?
   80.0000    -80.0000      0.0000       0.000  TOP  PLACED
1-HOLE_3-5P  DEVICE?  U?
   80.0000     80.0000      0.0000       0.000  TOP  PLACED
1-HOLE_3-5P  DEVICE?  U?
  -80.0000     80.0000      0.0000       0.000  TOP  PLACED
SOT65P210X110-6N  PRTR5V0U4Y  D1_15
  -63.0000     20.0000      0.0000      90.000  TOP  PLACED
SOT65P210X110-6N  PRTR5V0U4Y  D1_1
  -63.0000    -20.0000      0.0000      90.000  TOP  PLACED
SOT65P210X110-6N  PRTR5V0U4Y  D1_7
   63.0000    -20.0000      0.0000     270.000  TOP  PLACED
SOT65P210X110-6N  PRTR5V0U4Y  D1_9
   63.0000     20.0000      0.0000     270.000  TOP  PLACED
SOT65P210X110-6N  PRTR5V0U4Y  D1_6
   20.0000    -33.0000      0.0000     180.000  TOP  PLACED
SOT65P210X110-6N  PRTR5V0U4Y  D1_5
   20.0000    -73.0000      0.0000     180.000  TOP  PLACED
SOT65P210X110-6N  PRTR5V0U4Y  D1_4
  -20.0000    -73.0000      0.0000     180.000  TOP  PLACED
SOT65P210X110-6N  PRTR5V0U4Y  D1_3
  -20.0000    -33.0000      0.0000     180.000  TOP  PLACED
SOT65P210X110-6N  PRTR5V0U4Y  D1_14
  -20.0000     33.0000      0.0000       0.000  TOP  PLACED
SOT65P210X110-6N  PRTR5V0U4Y  D1_13
  -20.0000     73.0000      0.0000       0.000  TOP  PLACED
SOT65P210X110-6N  PRTR5V0U4Y  D1_11
   20.0000     73.0000      0.0000       0.000  TOP  PLACED
SOT65P210X110-6N  PRTR5V0U4Y  D1_12
   20.0000     33.0000      0.0000       0.000  TOP  PLACED
SOT65P210X110-6N  PRTR5V0U4Y  D1_16
  -60.0000     63.0000      0.0000       0.000  TOP  PLACED
SOT65P210X110-6N  PRTR5V0U4Y  D1_10
   60.0000     63.0000      0.0000       0.000  TOP  PLACED
SOT65P210X110-6N  PRTR5V0U4Y  D1_8
   60.0000    -63.0000      0.0000     180.000  TOP  PLACED
SOT65P210X110-6N  PRTR5V0U4Y  D1_2
  -60.0000    -63.0000      0.0000     180.000  TOP  PLACED
PLEMOD80  EPA.00.250.NTN  PX3_15
  -70.0000     30.0000      0.0000     270.000  BOTTOM  PLACED
PLEMOD80  EPA.00.250.NTN  PX4_15
  -50.0000     30.0000      0.0000     270.000  BOTTOM  PLACED
PLEMOD80  EPA.00.250.NTN  PX2_15
  -70.0000     10.0000      0.0000     270.000  BOTTOM  PLACED
PLEMOD80  EPA.00.250.NTN  PX1_15
  -50.0000     10.0000      0.0000     270.000  BOTTOM  PLACED
PLEMOD80  EPA.00.250.NTN  PX3_1
  -70.0000    -10.0000      0.0000     270.000  BOTTOM  PLACED
PLEMOD80  EPA.00.250.NTN  PX4_1
  -50.0000    -10.0000      0.0000     270.000  BOTTOM  PLACED
PLEMOD80  EPA.00.250.NTN  PX2_1
  -70.0000    -30.0000      0.0000     270.000  BOTTOM  PLACED
PLEMOD80  EPA.00.250.NTN  PX1_1
  -50.0000    -30.0000      0.0000     270.000  BOTTOM  PLACED
PLEMOD80  EPA.00.250.NTN  PX3_7
   70.0000    -30.0000      0.0000      90.000  BOTTOM  PLACED
PLEMOD80  EPA.00.250.NTN  PX4_7
   50.0000    -30.0000      0.0000      90.000  BOTTOM  PLACED
PLEMOD80  EPA.00.250.NTN  PX2_7
   70.0000    -10.0000      0.0000      90.000  BOTTOM  PLACED
PLEMOD80  EPA.00.250.NTN  PX1_7
   50.0000    -10.0000      0.0000      90.000  BOTTOM  PLACED
PLEMOD80  EPA.00.250.NTN  PX3_9
   70.0000     10.0000      0.0000      90.000  BOTTOM  PLACED
PLEMOD80  EPA.00.250.NTN  PX4_9
   50.0000     10.0000      0.0000      90.000  BOTTOM  PLACED
PLEMOD80  EPA.00.250.NTN  PX2_9
   70.0000     30.0000      0.0000      90.000  BOTTOM  PLACED
PLEMOD80  EPA.00.250.NTN  PX1_9
   50.0000     30.0000      0.0000      90.000  BOTTOM  PLACED
PLEMOD80  EPA.00.250.NTN  PX3_6
   10.0000    -40.0000      0.0000     180.000  BOTTOM  PLACED
PLEMOD80  EPA.00.250.NTN  PX4_6
   10.0000    -20.0000      0.0000     180.000  BOTTOM  PLACED
PLEMOD80  EPA.00.250.NTN  PX2_6
   30.0000    -40.0000      0.0000     180.000  BOTTOM  PLACED
PLEMOD80  EPA.00.250.NTN  PX1_6
   30.0000    -20.0000      0.0000     180.000  BOTTOM  PLACED
PLEMOD80  EPA.00.250.NTN  PX3_5
   10.0000    -80.0000      0.0000     180.000  BOTTOM  PLACED
PLEMOD80  EPA.00.250.NTN  PX4_5
   10.0000    -60.0000      0.0000     180.000  BOTTOM  PLACED
PLEMOD80  EPA.00.250.NTN  PX2_5
   30.0000    -80.0000      0.0000     180.000  BOTTOM  PLACED
PLEMOD80  EPA.00.250.NTN  PX1_5
   30.0000    -60.0000      0.0000     180.000  BOTTOM  PLACED
PLEMOD80  EPA.00.250.NTN  PX3_4
  -30.0000    -80.0000      0.0000     180.000  BOTTOM  PLACED
PLEMOD80  EPA.00.250.NTN  PX4_4
  -30.0000    -60.0000      0.0000     180.000  BOTTOM  PLACED
PLEMOD80  EPA.00.250.NTN  PX2_4
  -10.0000    -80.0000      0.0000     180.000  BOTTOM  PLACED
PLEMOD80  EPA.00.250.NTN  PX1_4
  -10.0000    -60.0000      0.0000     180.000  BOTTOM  PLACED
PLEMOD80  EPA.00.250.NTN  PX3_3
  -30.0000    -40.0000      0.0000     180.000  BOTTOM  PLACED
PLEMOD80  EPA.00.250.NTN  PX4_3
  -30.0000    -20.0000      0.0000     180.000  BOTTOM  PLACED
PLEMOD80  EPA.00.250.NTN  PX2_3
  -10.0000    -40.0000      0.0000     180.000  BOTTOM  PLACED
PLEMOD80  EPA.00.250.NTN  PX1_3
  -10.0000    -20.0000      0.0000     180.000  BOTTOM  PLACED
PLEMOD80  EPA.00.250.NTN  PX3_14
  -10.0000     40.0000      0.0000       0.000  BOTTOM  PLACED
PLEMOD80  EPA.00.250.NTN  PX4_14
  -10.0000     20.0000      0.0000       0.000  BOTTOM  PLACED
PLEMOD80  EPA.00.250.NTN  PX2_14
  -30.0000     40.0000      0.0000       0.000  BOTTOM  PLACED
PLEMOD80  EPA.00.250.NTN  PX1_14
  -30.0000     20.0000      0.0000       0.000  BOTTOM  PLACED
PLEMOD80  EPA.00.250.NTN  PX3_13
  -10.0000     80.0000      0.0000       0.000  BOTTOM  PLACED
PLEMOD80  EPA.00.250.NTN  PX4_13
  -10.0000     60.0000      0.0000       0.000  BOTTOM  PLACED
PLEMOD80  EPA.00.250.NTN  PX2_13
  -30.0000     80.0000      0.0000       0.000  BOTTOM  PLACED
PLEMOD80  EPA.00.250.NTN  PX1_13
  -30.0000     60.0000      0.0000       0.000  BOTTOM  PLACED
PLEMOD80  EPA.00.250.NTN  PX3_11
   30.0000     80.0000      0.0000       0.000  BOTTOM  PLACED
PLEMOD80  EPA.00.250.NTN  PX4_11
   30.0000     60.0000      0.0000       0.000  BOTTOM  PLACED
PLEMOD80  EPA.00.250.NTN  PX2_11
   10.0000     80.0000      0.0000       0.000  BOTTOM  PLACED
PLEMOD80  EPA.00.250.NTN  PX1_11
   10.0000     60.0000      0.0000       0.000  BOTTOM  PLACED
PLEMOD80  EPA.00.250.NTN  PX3_12
   30.0000     40.0000      0.0000       0.000  BOTTOM  PLACED
PLEMOD80  EPA.00.250.NTN  PX4_12
   30.0000     20.0000      0.0000       0.000  BOTTOM  PLACED
PLEMOD80  EPA.00.250.NTN  PX2_12
   10.0000     40.0000      0.0000       0.000  BOTTOM  PLACED
PLEMOD80  EPA.00.250.NTN  PX1_12
   10.0000     20.0000      0.0000       0.000  BOTTOM  PLACED
PLEMOD80  EPA.00.250.NTN  PX3_16
  -50.0000     70.0000      0.0000       0.000  BOTTOM  PLACED
PLEMOD80  EPA.00.250.NTN  PX4_16
  -50.0000     50.0000      0.0000       0.000  BOTTOM  PLACED
PLEMOD80  EPA.00.250.NTN  PX2_16
  -70.0000     70.0000      0.0000       0.000  BOTTOM  PLACED
PLEMOD80  EPA.00.250.NTN  PX1_16
  -70.0000     50.0000      0.0000       0.000  BOTTOM  PLACED
PLEMOD80  EPA.00.250.NTN  PX3_10
   70.0000     70.0000      0.0000       0.000  BOTTOM  PLACED
PLEMOD80  EPA.00.250.NTN  PX4_10
   70.0000     50.0000      0.0000       0.000  BOTTOM  PLACED
PLEMOD80  EPA.00.250.NTN  PX2_10
   50.0000     70.0000      0.0000       0.000  BOTTOM  PLACED
PLEMOD80  EPA.00.250.NTN  PX1_10
   50.0000     50.0000      0.0000       0.000  BOTTOM  PLACED
PLEMOD80  EPA.00.250.NTN  PX3_8
   50.0000    -70.0000      0.0000     180.000  BOTTOM  PLACED
PLEMOD80  EPA.00.250.NTN  PX4_8
   50.0000    -50.0000      0.0000     180.000  BOTTOM  PLACED
PLEMOD80  EPA.00.250.NTN  PX2_8
   70.0000    -70.0000      0.0000     180.000  BOTTOM  PLACED
PLEMOD80  EPA.00.250.NTN  PX1_8
   70.0000    -50.0000      0.0000     180.000  BOTTOM  PLACED
PLEMOD80  EPA.00.250.NTN  PX3_2
  -70.0000    -70.0000      0.0000     180.000  BOTTOM  PLACED
PLEMOD80  EPA.00.250.NTN  PX4_2
  -70.0000    -50.0000      0.0000     180.000  BOTTOM  PLACED
PLEMOD80  EPA.00.250.NTN  PX2_2
  -50.0000    -70.0000      0.0000     180.000  BOTTOM  PLACED
PLEMOD80  EPA.00.250.NTN  PX1_2
  -50.0000    -50.0000      0.0000     180.000  BOTTOM  PLACED
CAPCAF80P160X320X110-8N  CKCA43X7R1C104M  CN1_15
  -58.8000     20.0000      0.0000       0.000  TOP  PLACED
CAPCAF80P160X320X110-8N  CKCA43X7R1C104M  CN1_1
  -58.8000    -20.0000      0.0000       0.000  TOP  PLACED
CAPCAF80P160X320X110-8N  CKCA43X7R1C104M  CN1_7
   58.8000    -20.0000      0.0000     180.000  TOP  PLACED
CAPCAF80P160X320X110-8N  CKCA43X7R1C104M  CN1_9
   58.8000     20.0000      0.0000     180.000  TOP  PLACED
CAPCAF80P160X320X110-8N  CKCA43X7R1C104M  CN1_6
   20.0000    -28.8000      0.0000      90.000  TOP  PLACED
CAPCAF80P160X320X110-8N  CKCA43X7R1C104M  CN1_5
   20.0000    -68.8000      0.0000      90.000  TOP  PLACED
CAPCAF80P160X320X110-8N  CKCA43X7R1C104M  CN1_4
  -20.0000    -68.8000      0.0000      90.000  TOP  PLACED
CAPCAF80P160X320X110-8N  CKCA43X7R1C104M  CN1_3
  -20.0000    -28.8000      0.0000      90.000  TOP  PLACED
CAPCAF80P160X320X110-8N  CKCA43X7R1C104M  CN1_14
  -20.0000     28.8000      0.0000     270.000  TOP  PLACED
CAPCAF80P160X320X110-8N  CKCA43X7R1C104M  CN1_13
  -20.0000     68.8000      0.0000     270.000  TOP  PLACED
CAPCAF80P160X320X110-8N  CKCA43X7R1C104M  CN1_11
   20.0000     68.8000      0.0000     270.000  TOP  PLACED
CAPCAF80P160X320X110-8N  CKCA43X7R1C104M  CN1_12
   20.0000     28.8000      0.0000     270.000  TOP  PLACED
CAPCAF80P160X320X110-8N  CKCA43X7R1C104M  CN1_16
  -60.0000     58.8000      0.0000     270.000  TOP  PLACED
CAPCAF80P160X320X110-8N  CKCA43X7R1C104M  CN1_10
   60.0000     58.8000      0.0000     270.000  TOP  PLACED
CAPCAF80P160X320X110-8N  CKCA43X7R1C104M  CN1_8
   60.0000    -58.8000      0.0000      90.000  TOP  PLACED
CAPCAF80P160X320X110-8N  CKCA43X7R1C104M  CN1_2
  -60.0000    -58.8000      0.0000      90.000  TOP  PLACED
CON150_QSSDA  QSS-075-01-F-D-A  J1
   27.6200      2.8500      0.0000     270.000  TOP  PLACED
.END_PLACEMENT
